<?xml version="1.0" standalone="no"?><!DOCTYPE svg PUBLIC "-//W3C//DTD SVG 1.1//EN" "http://www.w3.org/Graphics/SVG/1.1/DTD/svg11.dtd"><svg height="800" node-id="1" sillyvg="true" template-height="800" template-width="800" version="1.1" viewBox="0 0 800 800" width="800" xmlns="http://www.w3.org/2000/svg" xmlns:xlink="http://www.w3.org/1999/xlink"><defs node-id="164"><linearGradient gradientUnits="objectBoundingBox" id="SVGID_1_" node-id="43" spreadMethod="pad" x1="256.2039" x2="256.2039" y1="423.3921" y2="326.6038"><stop offset="0.0000005358273" stop-color="#ffffff"></stop><stop offset="1" stop-color="#dbe3ee"></stop></linearGradient><linearGradient gradientUnits="objectBoundingBox" id="SVGID_2_" node-id="47" spreadMethod="pad" x1="191.587" x2="191.587" y1="481.384" y2="264.895"><stop offset="0.0000005358273" stop-color="#ffffff"></stop><stop offset="1" stop-color="#dbe3ee"></stop></linearGradient><linearGradient gradientUnits="objectBoundingBox" id="SVGID_3_" node-id="51" spreadMethod="pad" x1="567.3685" x2="567.3685" y1="438.7051" y2="282.2243"><stop offset="0.0000005358273" stop-color="#ffffff"></stop><stop offset="1" stop-color="#dbe3ee"></stop></linearGradient><linearGradient gradientUnits="objectBoundingBox" id="SVGID_4_" node-id="55" spreadMethod="pad" x1="629.8934" x2="629.8934" y1="461.3751" y2="291.6344"><stop offset="0.0000005358273" stop-color="#ffffff"></stop><stop offset="1" stop-color="#dbe3ee"></stop></linearGradient><linearGradient gradientUnits="objectBoundingBox" id="SVGID_5_" node-id="59" spreadMethod="pad" x1="121.1808" x2="121.1808" y1="503.4536" y2="352.9402"><stop offset="0.0000005358273" stop-color="#ffffff"></stop><stop offset="1" stop-color="#edf1f9"></stop></linearGradient><linearGradient gradientUnits="objectBoundingBox" id="SVGID_6_" node-id="63" spreadMethod="pad" x1="683.854" x2="683.854" y1="486.8482" y2="363.7159"><stop offset="0.0000005358273" stop-color="#ffffff"></stop><stop offset="1" stop-color="#edf1f9"></stop></linearGradient><linearGradient gradientUnits="objectBoundingBox" id="SVGID_7_" node-id="67" spreadMethod="pad" x1="127.1445" x2="127.1445" y1="231.1463" y2="166.605"><stop offset="0.2332" stop-color="#ffffff"></stop><stop offset="1" stop-color="#d3dfee"></stop></linearGradient><linearGradient gradientUnits="objectBoundingBox" id="SVGID_8_" node-id="71" spreadMethod="pad" x1="644.213" x2="644.213" y1="194.3259" y2="129.7846"><stop offset="0.2332" stop-color="#ffffff"></stop><stop offset="1" stop-color="#d3dfee"></stop></linearGradient><linearGradient gradientUnits="objectBoundingBox" id="SVGID_9_" node-id="75" spreadMethod="pad" x1="514.442" x2="514.442" y1="237.4993" y2="190.7821"><stop offset="0.2332" stop-color="#ffffff"></stop><stop offset="1" stop-color="#d3dfee"></stop></linearGradient><linearGradient gradientUnits="objectBoundingBox" id="SVGID_10_" node-id="79" spreadMethod="pad" x1="400.6593" x2="400.6593" y1="753.0242" y2="400.8953"><stop offset="0.4065" stop-color="#ffffff"></stop><stop offset="1" stop-color="#dae4ef"></stop></linearGradient><linearGradient gradientUnits="objectBoundingBox" id="SVGID_11_" node-id="85" spreadMethod="pad" x1="191.5889" x2="140.1526" y1="576.48" y2="515.1807"><stop offset="0.4034" stop-color="#eff4f8"></stop><stop offset="1" stop-color="#d4dfec"></stop></linearGradient><linearGradient gradientUnits="objectBoundingBox" id="SVGID_12_" node-id="89" spreadMethod="pad" x1="112.541" x2="176.7279" y1="456.1896" y2="456.1896"><stop offset="0.1022" stop-color="#f0f5f8"></stop><stop offset="1" stop-color="#b4c7dc"></stop></linearGradient><linearGradient gradientUnits="objectBoundingBox" id="SVGID_13_" node-id="95" spreadMethod="pad" x1="710.451" x2="663.0856" y1="556.5074" y2="500.0595"><stop offset="0.4034" stop-color="#eff4f8"></stop><stop offset="1" stop-color="#d4dfec"></stop></linearGradient><linearGradient gradientUnits="objectBoundingBox" id="SVGID_14_" node-id="99" spreadMethod="pad" x1="637.6592" x2="696.7661" y1="445.7372" y2="445.7372"><stop offset="0.1022" stop-color="#f0f5f8"></stop><stop offset="1" stop-color="#b4c7dc"></stop></linearGradient><linearGradient gradientUnits="objectBoundingBox" id="SVGID_15_" node-id="105" spreadMethod="pad" x1="251.7884" x2="226.3471" y1="457.3366" y2="427.0169"><stop offset="0.0000001438503" stop-color="#eaeff6"></stop><stop offset="1" stop-color="#cddae9"></stop></linearGradient><linearGradient gradientUnits="objectBoundingBox" id="SVGID_16_" node-id="109" spreadMethod="pad" x1="212.6899" x2="244.4379" y1="397.8389" y2="397.8389"><stop offset="0.1022" stop-color="#f0f5f8"></stop><stop offset="1" stop-color="#b4c7dc"></stop></linearGradient><linearGradient gradientUnits="objectBoundingBox" id="SVGID_17_" node-id="115" spreadMethod="pad" x1="543.1371" x2="435.4013" y1="673.5643" y2="377.5627"><stop offset="0.0938" stop-color="#ffffff"></stop><stop offset="0.9362" stop-color="#bbcbe0"></stop></linearGradient><linearGradient gradientUnits="objectBoundingBox" id="SVGID_18_" node-id="119" spreadMethod="pad" x1="255.5681" x2="602.2184" y1="359.1036" y2="359.1036"><stop offset="0" stop-color="#dfe8f3"></stop><stop offset="1" stop-color="#9fb7ce"></stop></linearGradient><linearGradient gradientUnits="objectBoundingBox" id="SVGID_19_" node-id="123" spreadMethod="pad" x1="239.2245" x2="585.8748" y1="359.1006" y2="359.1006"><stop offset="0" stop-color="#eff3f9"></stop><stop offset="1" stop-color="#b6c9de"></stop></linearGradient><linearGradient gradientUnits="objectBoundingBox" id="SVGID_20_" node-id="127" spreadMethod="pad" x1="362.7973" x2="474.2468" y1="448.3754" y2="448.3754"><stop offset="0" stop-color="#dfe8f3"></stop><stop offset="1" stop-color="#9fb7ce"></stop></linearGradient><linearGradient gradientUnits="objectBoundingBox" id="SVGID_21_" node-id="131" spreadMethod="pad" x1="356.825" x2="459.8932" y1="449.0344" y2="449.0344"><stop offset="0" stop-color="#ffffff"></stop><stop offset="1" stop-color="#ccd9e8"></stop></linearGradient><linearGradient gradientUnits="objectBoundingBox" id="SVGID_22_" node-id="135" spreadMethod="pad" x1="317.5797" x2="286.3571" y1="701.0043" y2="592.1183"><stop offset="0.2949" stop-color="#ffffff"></stop><stop offset="0.9362" stop-color="#d6e1ed"></stop></linearGradient><linearGradient gradientUnits="objectBoundingBox" id="SVGID_23_" node-id="141" spreadMethod="pad" x1="267.8111" x2="267.8111" y1="496.9919" y2="480.3741"><stop offset="0.3408" stop-color="#f4ae7f"></stop><stop offset="1" stop-color="#ffbe92"></stop></linearGradient><linearGradient gradientUnits="objectBoundingBox" id="SVGID_24_" node-id="149" spreadMethod="pad" x1="281.7637" x2="260.6692" y1="588.4283" y2="530.4715"><stop offset="0" stop-color="#78c8ff"></stop><stop offset="0.6903" stop-color="#2a80e2"></stop></linearGradient><linearGradient gradientUnits="objectBoundingBox" id="SVGID_25_" node-id="155" spreadMethod="pad" x1="268.8352" x2="268.8352" y1="537.9451" y2="494.499"><stop offset="0" stop-color="#f2a319"></stop><stop offset="0.4796" stop-color="#ffc552"></stop></linearGradient></defs><g node-id="480"><g node-id="485"><path d="M 270.66 330.01 L 270.66 326.60 L 241.16 326.60 L 241.16 330.56 L 234.68 330.56 L 234.68 423.39 L 277.73 423.39 L 277.73 330.01 L 270.66 330.01 Z M 274.00 412.75 L 237.96 412.75 L 237.96 410.00 L 274.00 410.00 L 274.00 412.75 Z M 274.00 400.07 L 237.96 400.07 L 237.96 397.32 L 274.00 397.32 L 274.00 400.07 Z M 274.00 387.39 L 237.96 387.39 L 237.96 384.64 L 274.00 384.64 L 274.00 387.39 Z M 274.00 375.05 L 237.96 375.05 L 237.96 372.30 L 274.00 372.30 L 274.00 375.05 Z M 274.00 362.74 L 237.96 362.74 L 237.96 359.99 L 274.00 359.99 L 274.00 362.74 Z M 274.00 350.06 L 237.96 350.06 L 237.96 347.31 L 274.00 347.31 L 274.00 350.06 Z M 274.00 337.72 L 237.96 337.72 L 237.96 334.97 L 274.00 334.97 L 274.00 337.72 Z" fill="url(#SVGID_1_)" fill-rule="nonzero" group-id="38,43" node-id="356" stroke="none" target-height="96.79001" target-width="43.05002" target-x="234.68" target-y="326.6"></path><path d="M 212.68 381.82 L 212.68 273.64 L 179.93 273.64 L 179.93 264.90 L 166.07 264.90 L 166.07 318.23 L 162.34 318.23 L 162.34 481.39 L 220.85 481.39 L 220.85 381.83 L 212.68 381.83 Z M 188.18 413.63 L 179.92 413.63 L 179.92 405.62 L 188.18 405.62 L 188.18 413.63 Z M 188.18 401.10 L 179.92 401.10 L 179.92 393.09 L 188.18 393.09 L 188.18 401.10 Z M 188.18 388.63 L 179.92 388.63 L 179.92 380.62 L 188.18 380.62 L 188.18 388.63 Z M 188.18 376.19 L 179.92 376.19 L 179.92 368.18 L 188.18 368.18 L 188.18 376.19 Z M 188.18 363.66 L 179.92 363.66 L 179.92 355.65 L 188.18 355.65 L 188.18 363.66 Z M 188.18 338.66 L 179.92 338.66 L 179.92 330.65 L 188.18 330.65 L 188.18 338.66 Z M 188.18 326.13 L 179.92 326.13 L 179.92 318.12 L 188.18 318.12 L 188.18 326.13 Z M 188.18 313.65 L 179.92 313.65 L 179.92 305.64 L 188.18 305.64 L 188.18 313.65 Z M 188.18 301.22 L 179.92 301.22 L 179.92 293.21 L 188.18 293.21 L 188.18 301.22 Z M 188.18 288.69 L 179.92 288.69 L 179.92 280.68 L 188.18 280.68 L 188.18 288.69 Z M 200.53 413.63 L 192.27 413.63 L 192.27 405.62 L 200.53 405.62 L 200.53 413.63 Z M 200.53 401.10 L 192.27 401.10 L 192.27 393.09 L 200.53 393.09 L 200.53 401.10 Z M 200.53 388.63 L 192.27 388.63 L 192.27 380.62 L 200.53 380.62 L 200.53 388.63 Z M 200.53 376.19 L 192.27 376.19 L 192.27 368.18 L 200.53 368.18 L 200.53 376.19 Z M 200.53 363.66 L 192.27 363.66 L 192.27 355.65 L 200.53 355.65 L 200.53 363.66 Z M 200.53 338.66 L 192.27 338.66 L 192.27 330.65 L 200.53 330.65 L 200.53 338.66 Z M 200.53 326.13 L 192.27 326.13 L 192.27 318.12 L 200.53 318.12 L 200.53 326.13 Z M 200.53 313.65 L 192.27 313.65 L 192.27 305.64 L 200.53 305.64 L 200.53 313.65 Z M 200.53 301.22 L 192.27 301.22 L 192.27 293.21 L 200.53 293.21 L 200.53 301.22 Z M 200.53 288.69 L 192.27 288.69 L 192.27 280.68 L 200.53 280.68 L 200.53 288.69 Z" fill="url(#SVGID_2_)" fill-rule="nonzero" group-id="38,43" node-id="358" stroke="none" target-height="216.49002" target-width="58.51001" target-x="162.34" target-y="264.9"></path><path d="M 534.99 438.71 C 535.35 434.06 534.99 282.23 534.99 282.23 L 553.52 282.23 L 553.52 315.94 L 583.02 315.94 L 583.02 386.39 L 599.75 386.39 L 599.75 438.71 L 534.99 438.71 Z" fill="url(#SVGID_3_)" fill-rule="nonzero" group-id="38,43" node-id="360" stroke="none" target-height="156.47998" target-width="64.76001" target-x="534.99" target-y="282.23"></path><path d="M 656.20 370.56 L 656.20 365.71 L 651.20 365.71 L 651.20 323.38 L 639.00 323.38 L 639.00 318.68 L 630.77 318.68 L 630.77 311.77 L 626.48 311.77 L 626.48 291.63 L 623.39 291.63 L 623.39 311.91 L 619.45 311.91 L 619.45 318.82 L 607.25 318.82 L 607.25 330.14 L 600.20 330.14 L 600.20 461.37 L 659.58 461.37 L 659.58 370.55 L 656.20 370.55 Z M 610.69 423.34 L 606.67 423.34 L 606.67 408.10 L 610.69 408.10 L 610.69 423.34 Z M 610.69 404.69 L 606.67 404.69 L 606.67 389.45 L 610.69 389.45 L 610.69 404.69 Z M 610.69 386.04 L 606.67 386.04 L 606.67 370.80 L 610.69 370.80 L 610.69 386.04 Z M 610.69 367.06 L 606.67 367.06 L 606.67 351.82 L 610.69 351.82 L 610.69 367.06 Z M 610.69 348.07 L 606.67 348.07 L 606.67 332.83 L 610.69 332.83 L 610.69 348.07 Z M 618.97 423.34 L 614.95 423.34 L 614.95 408.10 L 618.97 408.10 L 618.97 423.34 Z M 618.97 404.69 L 614.95 404.69 L 614.95 389.45 L 618.97 389.45 L 618.97 404.69 Z M 618.97 386.04 L 614.95 386.04 L 614.95 370.80 L 618.97 370.80 L 618.97 386.04 Z M 618.97 367.06 L 614.95 367.06 L 614.95 351.82 L 618.97 351.82 L 618.97 367.06 Z M 618.97 348.07 L 614.95 348.07 L 614.95 332.83 L 618.97 332.83 L 618.97 348.07 Z M 627.25 423.34 L 623.23 423.34 L 623.23 408.10 L 627.25 408.10 L 627.25 423.34 Z M 627.25 404.69 L 623.23 404.69 L 623.23 389.45 L 627.25 389.45 L 627.25 404.69 Z M 627.25 386.04 L 623.23 386.04 L 623.23 370.80 L 627.25 370.80 L 627.25 386.04 Z M 627.25 367.06 L 623.23 367.06 L 623.23 351.82 L 627.25 351.82 L 627.25 367.06 Z M 627.25 348.07 L 623.23 348.07 L 623.23 332.83 L 627.25 332.83 L 627.25 348.07 Z M 635.53 423.34 L 631.51 423.34 L 631.51 408.10 L 635.53 408.10 L 635.53 423.34 Z M 635.53 404.69 L 631.51 404.69 L 631.51 389.45 L 635.53 389.45 L 635.53 404.69 Z M 635.53 386.04 L 631.51 386.04 L 631.51 370.80 L 635.53 370.80 L 635.53 386.04 Z M 635.53 367.06 L 631.51 367.06 L 631.51 351.82 L 635.53 351.82 L 635.53 367.06 Z M 635.53 348.07 L 631.51 348.07 L 631.51 332.83 L 635.53 332.83 L 635.53 348.07 Z M 643.81 423.34 L 639.79 423.34 L 639.79 408.10 L 643.81 408.10 L 643.81 423.34 Z M 643.81 404.69 L 639.79 404.69 L 639.79 389.45 L 643.81 389.45 L 643.81 404.69 Z M 643.81 386.04 L 639.79 386.04 L 639.79 370.80 L 643.81 370.80 L 643.81 386.04 Z M 643.81 367.06 L 639.79 367.06 L 639.79 351.82 L 643.81 351.82 L 643.81 367.06 Z M 643.81 348.07 L 639.79 348.07 L 639.79 332.83 L 643.81 332.83 L 643.81 348.07 Z" fill="url(#SVGID_4_)" fill-rule="nonzero" group-id="38,43" node-id="362" stroke="none" target-height="169.73999" target-width="59.380005" target-x="600.2" target-y="291.63"></path><path d="M 94.56 503.45 L 94.56 413.91 L 104.81 413.91 L 104.81 368.21 L 140.07 352.94 L 140.07 413.19 L 147.81 413.19 L 147.81 503.45 Z" fill="url(#SVGID_5_)" fill-rule="nonzero" group-id="38,43" node-id="364" stroke="none" target-height="150.51001" target-width="53.25" target-x="94.56" target-y="352.94"></path><path d="M 699.32 486.85 L 668.38 486.85 L 668.38 363.72 L 699.32 378.69 Z" fill="url(#SVGID_6_)" fill-rule="nonzero" group-id="38,43" node-id="366" stroke="none" target-height="123.129974" target-width="30.940002" target-x="668.38" target-y="363.72"></path><path d="M 89.37 190.04 C 89.37 190.04 98.71 164.56 121.67 174.56 C 126.97 169.18 133.53 165.27 142.40 167.03 C 151.27 168.79 156.99 175.44 158.93 179.86 C 161.71 179.73 183.97 180.47 183.97 203.56 C 183.97 226.65 157.03 226.21 155.08 224.38 C 152.68 226.52 141.14 238.13 127.14 224.88 C 124.11 227.47 114.21 238.44 98.56 223.30 C 91.31 226.33 74.08 228.66 70.74 210.87 C 67.40 193.08 84.54 188.06 89.37 190.04 Z" fill="url(#SVGID_7_)" fill-rule="nonzero" group-id="38,43" node-id="368" stroke="none" target-height="73.880005" target-width="116.57" target-x="67.4" target-y="164.56"></path><path d="M 606.44 153.22 C 606.44 153.22 615.78 127.74 638.74 137.74 C 644.04 132.36 650.60 128.45 659.47 130.21 C 668.34 131.97 674.06 138.62 676.00 143.04 C 678.78 142.91 701.04 143.65 701.04 166.74 C 701.04 189.83 674.10 189.39 672.15 187.56 C 669.75 189.70 658.21 201.31 644.21 188.06 C 641.18 190.65 631.28 201.62 615.63 186.48 C 608.38 189.51 591.15 191.84 587.81 174.05 C 584.47 156.27 601.61 151.24 606.44 153.22 Z" fill="url(#SVGID_8_)" fill-rule="nonzero" group-id="38,43" node-id="370" stroke="none" target-height="73.88" target-width="116.57001" target-x="584.47" target-y="127.74"></path><path d="M 487.10 207.74 C 487.10 207.74 493.86 189.29 510.48 196.54 C 514.32 192.64 519.06 189.81 525.49 191.09 C 531.91 192.37 536.05 197.18 537.45 200.37 C 539.46 200.28 555.58 200.81 555.58 217.52 C 555.58 234.23 536.08 233.91 534.67 232.59 C 532.93 234.14 524.58 242.54 514.44 232.96 C 512.25 234.83 505.08 242.78 493.76 231.82 C 488.51 234.01 476.04 235.70 473.62 222.82 C 471.20 209.95 483.60 206.31 487.10 207.74 Z" fill="url(#SVGID_9_)" fill-rule="nonzero" group-id="38,43" node-id="372" stroke="none" target-height="53.49002" target-width="84.379974" target-x="471.20004" target-y="189.28998"></path><path d="M 771.64 576.96 C 771.64 623.65 732.55 668.44 662.98 701.45 C 593.41 734.47 499.05 753.02 400.66 753.02 C 302.27 753.02 207.91 734.47 138.34 701.45 C 68.77 668.44 29.68 623.65 29.68 576.96 C 29.68 530.27 68.77 485.48 138.34 452.47 C 207.91 419.45 302.27 400.90 400.66 400.90 C 499.05 400.90 593.41 419.45 662.98 452.47 C 732.55 485.48 771.64 530.27 771.64 576.96 Z" fill="url(#SVGID_10_)" fill-rule="nonzero" group-id="38,43" node-id="374" stroke="none" target-height="352.12" target-width="741.96" target-x="29.679993" target-y="400.90002"></path></g><g node-id="486"><g node-id="489"><path d="M 146.61 555.43 C 146.61 555.43 143.08 560.44 148.98 567.90 C 154.24 574.54 162.55 573.25 165.31 571.12 C 166.16 576.90 173.25 589.08 184.47 582.19 C 195.02 575.72 189.94 565.88 186.57 562.01 C 193.16 560.15 198.07 544.36 182.95 538.91 C 185.19 532.39 185.59 529.44 182.31 523.58 C 179.15 517.94 173.96 517.04 165.68 520.47 L 153.70 525.52 L 146.07 511.28 L 141.99 513.64 L 150.79 527.24 L 139.13 533.09 C 139.13 533.09 129.16 536.99 133.46 547.69 C 137.45 557.60 146.61 555.43 146.61 555.43 Z" fill="url(#SVGID_11_)" fill-rule="nonzero" group-id="38,44,47" node-id="380" stroke="none" target-height="77.80002" target-width="68.91" target-x="129.16" target-y="511.28"></path><path d="M 126.31 494.71 L 162.37 494.71 C 162.37 494.71 174.02 495.04 176.34 481.73 C 178.89 467.12 168.26 465.11 168.26 465.11 C 168.26 465.11 174.66 462.17 173.27 451.12 C 171.88 440.07 162.15 438.68 158.10 439.19 C 158.76 432.64 160.14 417.81 144.74 417.66 C 129.87 417.51 129.96 432.48 131.07 438.38 C 125.77 438.44 109.76 446.39 121.02 463.83 C 114.89 469.08 112.30 472.11 112.57 479.68 C 112.84 487.26 117.47 494.71 126.31 494.71 Z" fill="url(#SVGID_12_)" fill-rule="nonzero" group-id="38,44,47" node-id="382" stroke="none" target-height="77.53003" target-width="69.13" target-x="109.76" target-y="417.50998"></path><path d="M 161.48 474.48 L 146.10 484.60 L 145.68 474.81 L 155.41 463.35 L 145.53 471.33 L 144.25 441.43 L 143.31 471.53 L 132.94 463.27 L 143.21 474.59 L 142.90 484.66 L 127.08 473.04 L 142.79 488.30 L 141.99 513.65 L 147.35 513.65 L 146.27 488.45 Z" fill="#c6d5e6" fill-rule="nonzero" group-id="38,44,47" node-id="384" stroke="none" target-height="72.22006" target-width="34.4" target-x="127.079994" target-y="441.42996"></path></g><g node-id="490"><path d="M 669.03 537.12 C 669.03 537.12 665.78 541.74 671.21 548.60 C 676.05 554.72 683.71 553.53 686.25 551.56 C 687.03 556.88 693.57 568.09 703.90 561.76 C 713.61 555.80 708.94 546.74 705.83 543.18 C 711.90 541.47 716.42 526.92 702.50 521.91 C 704.57 515.91 704.94 513.19 701.91 507.80 C 699.00 502.61 694.22 501.77 686.60 504.94 L 675.56 509.59 L 668.53 496.48 L 664.78 498.65 L 672.88 511.17 L 662.15 516.56 C 662.15 516.56 652.97 520.15 656.93 530.01 C 660.59 539.13 669.03 537.12 669.03 537.12 Z" fill="url(#SVGID_13_)" fill-rule="nonzero" group-id="38,44,48" node-id="389" stroke="none" target-height="71.610016" target-width="63.450012" target-x="652.97" target-y="496.48"></path><path d="M 650.34 481.21 L 683.54 481.21 C 683.54 481.21 694.27 481.52 696.40 469.26 C 698.74 455.81 688.96 453.96 688.96 453.96 C 688.96 453.96 694.86 451.25 693.57 441.08 C 692.28 430.91 683.33 429.62 679.60 430.10 C 680.21 424.07 681.48 410.41 667.30 410.27 C 653.61 410.13 653.69 423.91 654.71 429.35 C 649.83 429.40 635.08 436.72 645.46 452.79 C 639.82 457.62 637.43 460.42 637.68 467.38 C 637.93 474.35 642.20 481.21 650.34 481.21 Z" fill="url(#SVGID_14_)" fill-rule="nonzero" group-id="38,44,48" node-id="391" stroke="none" target-height="71.38995" target-width="63.659973" target-x="635.08" target-y="410.13004"></path><path d="M 682.73 462.58 L 668.56 471.89 L 668.18 462.88 L 677.13 452.33 L 668.04 459.68 L 666.86 432.14 L 665.99 459.86 L 656.44 452.25 L 665.91 462.68 L 665.61 471.96 L 651.05 461.25 L 665.51 475.30 L 664.78 498.65 L 669.71 498.65 L 668.72 475.44 Z" fill="#c6d5e6" fill-rule="nonzero" group-id="38,44,48" node-id="393" stroke="none" target-height="66.50998" target-width="31.679993" target-x="651.05" target-y="432.14"></path></g><g node-id="491"><path d="M 229.54 446.92 C 229.54 446.92 227.79 449.40 230.71 453.09 C 233.31 456.38 237.42 455.74 238.79 454.68 C 239.21 457.54 242.72 463.56 248.27 460.16 C 253.49 456.96 250.98 452.09 249.31 450.18 C 252.57 449.26 255.00 441.45 247.52 438.76 C 248.63 435.54 248.83 434.08 247.20 431.18 C 245.64 428.39 243.07 427.94 238.98 429.64 L 233.05 432.14 L 229.28 425.10 L 227.26 426.27 L 231.61 432.99 L 225.84 435.88 C 225.84 435.88 220.91 437.81 223.04 443.10 C 225.01 448.00 229.54 446.92 229.54 446.92 Z" fill="url(#SVGID_15_)" fill-rule="nonzero" group-id="38,44,49" node-id="398" stroke="none" target-height="38.45999" target-width="34.089996" target-x="220.91" target-y="425.1"></path><path d="M 219.50 416.89 L 237.33 416.89 C 237.33 416.89 243.09 417.05 244.24 410.47 C 245.50 403.24 240.24 402.25 240.24 402.25 C 240.24 402.25 243.41 400.79 242.72 395.33 C 242.03 389.87 237.22 389.18 235.22 389.43 C 235.55 386.19 236.23 378.85 228.61 378.78 C 221.25 378.71 221.30 386.11 221.85 389.03 C 219.23 389.06 211.31 392.99 216.88 401.62 C 213.85 404.21 212.56 405.72 212.70 409.46 C 212.84 413.20 215.13 416.89 219.50 416.89 Z" fill="url(#SVGID_16_)" fill-rule="nonzero" group-id="38,44,49" node-id="400" stroke="none" target-height="38.339996" target-width="34.190002" target-x="211.31" target-y="378.70996"></path><path d="M 236.90 406.88 L 229.29 411.89 L 229.08 407.05 L 233.89 401.38 L 229.01 405.33 L 228.38 390.54 L 227.91 405.42 L 222.78 401.34 L 227.86 406.94 L 227.71 411.92 L 219.88 406.17 L 227.65 413.72 L 227.26 426.26 L 229.91 426.26 L 229.37 413.79 Z" fill="#c6d5e6" fill-rule="nonzero" group-id="38,44,49" node-id="402" stroke="none" target-height="35.72003" target-width="17.020004" target-x="219.88" target-y="390.54"></path></g></g><g node-id="487"><path d="M 577.51 460.53 L 727.57 604.50 C 727.57 604.50 400.26 728.40 396.28 724.43 C 392.30 720.46 250.34 444.93 250.34 444.93 L 577.51 460.53 Z" fill="url(#SVGID_17_)" fill-rule="nonzero" group-id="38,45" node-id="408" stroke="none" target-height="283.47003" target-width="477.23" target-x="250.34" target-y="444.93"></path><path d="M 533.03 333.79 C 530.25 287.56 497.52 249.40 453.99 238.46 L 437.65 238.45 L 424.87 293.13 L 449.66 314.50 L 428.29 329.32 L 437.98 352.97 L 420.03 329.04 L 432.57 313.65 L 399.23 299.97 L 408.63 270.91 L 384.72 244.77 C 381.09 244.77 374.70 244.72 368.38 244.76 C 339.68 262.97 325.85 296.90 323.65 333.85 C 285.62 336.40 255.57 368.04 255.57 406.71 C 255.57 447.05 288.27 479.74 328.60 479.74 L 529.18 479.74 C 569.52 479.74 602.21 447.04 602.21 406.71 C 602.22 367.68 571.58 335.79 533.03 333.79 Z" fill="url(#SVGID_18_)" fill-rule="nonzero" group-id="38,45" node-id="410" stroke="none" target-height="241.29" target-width="346.64996" target-x="255.57" target-y="238.45"></path><path d="M 516.69 333.78 C 513.91 287.55 481.18 249.39 437.65 238.45 L 421.64 254.09 L 408.53 293.12 L 433.32 314.49 L 411.95 329.31 L 421.64 352.96 L 403.69 329.03 L 416.23 313.64 L 382.89 299.96 L 392.29 270.90 L 368.38 244.76 C 334.05 260.49 309.67 294.20 307.31 333.84 C 269.28 336.39 239.23 368.03 239.23 406.70 C 239.23 447.04 271.93 479.73 312.26 479.73 L 512.84 479.73 C 553.18 479.73 585.87 447.03 585.87 406.70 C 585.87 367.67 555.24 335.78 516.69 333.78 Z" fill="url(#SVGID_19_)" fill-rule="nonzero" group-id="38,45" node-id="412" stroke="none" target-height="241.27998" target-width="346.64" target-x="239.23" target-y="238.45"></path><path d="M 472.10 465.87 L 421.06 514.62 C 416.36 518.52 408.65 517.04 406.47 514.75 L 364.95 465.86 C 360.45 461.56 363.48 453.95 369.69 453.95 L 385.99 453.95 L 385.99 384.30 C 385.99 381.77 388.03 379.71 390.56 379.71 L 446.49 379.71 C 449.01 379.71 451.06 381.76 451.06 384.30 L 451.06 453.96 L 467.36 453.96 C 473.57 453.96 476.60 461.57 472.10 465.87 Z" fill="url(#SVGID_20_)" fill-rule="nonzero" group-id="38,45" node-id="414" stroke="none" target-height="138.81006" target-width="116.149994" target-x="360.45" target-y="379.70996"></path><path d="M 457.90 465.83 L 410.69 514.39 C 409.38 515.74 407.32 515.74 406.01 514.39 L 358.80 465.83 C 354.64 461.55 357.44 453.97 363.18 453.97 L 378.25 453.97 L 378.25 384.59 C 378.25 382.07 380.14 380.02 382.47 380.02 L 434.20 380.02 C 436.53 380.02 438.42 382.06 438.42 384.59 L 438.42 453.97 L 453.49 453.97 C 459.26 453.97 462.06 461.55 457.90 465.83 Z" fill="url(#SVGID_21_)" fill-rule="nonzero" group-id="38,45" node-id="416" stroke="none" target-height="135.72" target-width="107.42001" target-x="354.63998" target-y="380.02"></path></g><path d="M 283.13 591.37 L 342.81 697.95 L 300.53 702.63 L 261.05 597.11 L 268.39 596.00 L 289.32 632.89 L 276.36 597.22 Z" fill="url(#SVGID_22_)" fill-rule="nonzero" group-id="38" node-id="419" stroke="none" target-height="111.25995" target-width="81.76001" target-x="261.05" target-y="591.37"></path><g node-id="488"><path d="M 267.81 476.44 C 267.81 476.44 268.87 475.09 270.37 475.24 C 271.98 475.40 271.56 476.42 272.66 476.65 C 273.77 476.88 274.46 476.80 274.16 478.91 C 273.99 480.08 274.13 480.07 274.44 480.62 C 274.63 480.95 275.96 482.07 275.06 483.52 C 274.17 484.93 273.92 484.41 274.15 485.76 C 274.37 487.11 273.86 488.30 273.05 488.71 C 272.26 489.11 272.46 489.84 272.61 490.26 C 272.75 490.67 272.31 492.00 270.97 491.52 C 269.63 491.04 268.44 490.87 267.39 491.33 C 266.34 491.79 261.98 492.06 262.91 490.16 C 263.76 488.42 262.58 488.07 261.78 487.29 C 260.99 486.51 260.35 485.17 260.76 483.85 C 261.00 483.08 261.34 482.26 260.39 481.11 C 259.41 479.92 261.09 476.70 262.20 476.82 C 263.31 476.94 264.83 473.86 267.81 476.44 Z" fill="#171c61" fill-rule="nonzero" group-id="38,46" node-id="423" stroke="none" target-height="18.200043" target-width="16.549988" target-x="259.41" target-y="473.86"></path><path d="M 264.40 481.87 C 263.41 482.90 263.50 482.66 263.27 483.29 C 261.74 482.47 261.67 486.82 262.95 486.93 C 263.31 489.22 264.29 489.86 264.86 490.41 C 265.23 491.67 264.35 496.99 264.35 496.99 L 270.92 496.99 L 270.56 490.26 C 270.56 490.26 272.04 489.79 272.35 487.12 C 273.57 487.26 274.26 482.49 272.59 483.65 C 272.64 482.39 270.72 482.07 270.47 480.62 C 270.44 480.44 270.28 480.32 270.13 480.39 C 269.45 480.69 268.31 481.49 267.15 481.46 C 266.20 481.43 265.07 481.16 264.40 481.87 Z" fill="url(#SVGID_23_)" fill-rule="nonzero" group-id="38,46" node-id="425" stroke="none" target-height="16.669983" target-width="12.589996" target-x="261.67" target-y="480.32"></path><path d="M 280.94 587.01 C 280.89 587.30 280.74 587.57 280.52 587.77 C 280.07 588.19 279.85 588.79 278.72 588.65 C 277.02 588.43 276.68 587.90 276.32 586.89 C 275.60 588.39 276.58 589.93 276.25 592.06 C 275.93 594.19 275.17 597.62 278.36 599.28 C 281.55 600.94 284.02 597.30 283.90 594.46 C 283.78 591.62 281.33 588.34 281.56 587.13 C 281.61 586.28 281.23 585.60 281.23 585.60 C 281.23 585.60 281.04 586.46 280.94 587.01 Z" fill="#f8b62d" fill-rule="nonzero" group-id="38,46" node-id="427" stroke="none" target-height="15.340027" target-width="8.849976" target-x="275.17" target-y="585.6"></path><path d="M 283.45 592.30 C 283.45 592.30 284.36 596.42 282.22 598.06 C 281.64 598.56 278.63 600.03 276.36 597.22 C 276.56 597.75 277.40 599.57 279.38 600.01 C 280.27 600.08 282.09 600.10 283.48 597.92 C 284.87 595.73 283.45 592.30 283.45 592.30 Z" fill="#e6e8e8" fill-rule="nonzero" group-id="38,46" node-id="429" stroke="none" target-height="7.799988" target-width="8.51001" target-x="276.36" target-y="592.3"></path><path d="M 261.97 587.27 C 262.02 587.56 262.17 587.83 262.39 588.03 C 262.84 588.45 263.06 589.05 264.19 588.91 C 265.89 588.69 266.23 588.16 266.59 587.15 C 267.31 588.65 267.33 590.19 267.66 592.32 C 267.98 594.45 269.74 597.88 266.55 599.54 C 263.36 601.20 260.50 597.24 260.62 594.40 C 260.74 591.56 261.58 588.60 261.35 587.40 C 261.30 586.55 261.68 585.87 261.68 585.87 C 261.68 585.87 261.88 586.72 261.97 587.27 Z" fill="#f8b62d" fill-rule="nonzero" group-id="38,46" node-id="431" stroke="none" target-height="15.330017" target-width="9.23999" target-x="260.5" target-y="585.87"></path><path d="M 260.78 592.55 C 260.78 592.55 260.69 596.77 262.69 598.31 C 263.27 598.81 265.93 600.59 268.21 597.77 C 267.99 598.24 267.51 599.82 265.53 600.26 C 264.64 600.33 262.82 600.35 261.43 598.17 C 260.04 595.99 260.78 592.55 260.78 592.55 Z" fill="#e6e8e8" fill-rule="nonzero" group-id="38,46" node-id="433" stroke="none" target-height="8.040039" target-width="8.169983" target-x="260.04" target-y="592.55"></path><path d="M 259.80 530.79 C 259.80 530.79 257.20 537.07 257.89 547.98 C 258.48 557.22 260.86 579.65 261.58 587.52 C 261.70 588.79 262.76 589.76 264.04 589.76 L 264.46 589.76 C 265.75 589.76 266.82 588.77 266.92 587.49 L 270.56 545.80 L 276.13 587.54 C 276.28 588.81 277.26 589.32 278.54 589.32 L 278.77 589.27 C 280.10 589.27 281.07 588.73 281.16 587.41 C 281.90 576.47 284.71 534.91 280.44 530.79 L 259.80 530.79 Z" fill="url(#SVGID_24_)" fill-rule="nonzero" group-id="38,46" node-id="435" stroke="none" target-height="58.97003" target-width="27.50998" target-x="257.2" target-y="530.79"></path><path d="M 304.42 497.34 C 304.42 497.34 302.28 498.30 302.10 499.63 C 301.68 502.72 295.10 508.86 293.37 509.23 C 291.64 509.60 285.33 501.08 284.70 501.09 C 283.21 502.40 280.95 506.60 280.95 506.60 C 280.95 506.60 289.83 517.61 293.79 515.72 C 297.76 513.84 301.68 508.20 304.25 504.27 C 304.87 503.02 305.78 502.70 306.36 502.56 C 306.94 502.42 310.34 500.99 310.27 497.76 C 310.23 495.81 307.26 498.04 306.90 498.48 C 306.54 498.92 304.60 500.32 304.87 498.23 C 305.11 497.45 304.94 497.05 304.42 497.34 Z" fill="#ffbe92" fill-rule="nonzero" group-id="38,46" node-id="437" stroke="none" target-height="21.799988" target-width="29.389984" target-x="280.95" target-y="495.81"></path><path d="M 233.69 499.53 C 233.69 499.53 235.83 500.49 236.01 501.82 C 236.43 504.91 243.01 511.05 244.74 511.42 C 246.47 511.79 251.88 502.75 252.51 502.77 C 254.00 504.08 257.15 508.79 257.15 508.79 C 257.15 508.79 247.98 519.72 244.02 517.84 C 240.06 515.96 236.42 510.40 233.85 506.47 C 233.23 505.22 232.32 504.90 231.74 504.76 C 231.16 504.62 227.76 503.19 227.83 499.96 C 227.87 498.01 230.84 500.24 231.20 500.68 C 231.56 501.12 233.50 502.52 233.23 500.43 C 233.00 499.64 233.16 499.23 233.69 499.53 Z" fill="#ffbe92" fill-rule="nonzero" group-id="38,46" node-id="439" stroke="none" target-height="21.70993" target-width="29.390015" target-x="227.75998" target-y="498.01004"></path><path d="M 289.54 504.42 L 284.80 512.27 C 284.80 512.27 283.15 510.50 281.73 508.78 C 281.58 510.84 281.78 510.83 281.90 512.97 C 282.02 515.11 285.25 535.50 281.84 536.77 C 278.43 538.04 260.80 538.17 258.20 537.65 C 255.60 537.13 256.10 518.80 257.08 513.42 C 257.55 510.75 257.37 509.15 257.37 509.15 L 254.45 512.36 L 248.13 506.47 C 248.13 506.47 251.44 497.85 256.33 496.16 C 260.84 494.60 264.34 494.77 264.69 494.60 C 264.92 495.42 265.53 496.92 267.74 496.99 C 269.17 497.03 270.55 496.14 270.79 494.50 C 271.34 494.73 274.75 494.58 279.57 495.81 C 284.23 496.99 286.22 501.29 289.54 504.42 Z" fill="url(#SVGID_25_)" fill-rule="nonzero" group-id="38,46" node-id="441" stroke="none" target-height="43.669983" target-width="41.410004" target-x="248.13" target-y="494.5"></path></g></g></svg>