<?xml version="1.0" standalone="no"?><!DOCTYPE svg PUBLIC "-//W3C//DTD SVG 1.1//EN" "http://www.w3.org/Graphics/SVG/1.1/DTD/svg11.dtd"><svg height="800" node-id="1" sillyvg="true" template-height="800" template-width="800" version="1.1" viewBox="0 0 800 800" width="800" xmlns="http://www.w3.org/2000/svg" xmlns:xlink="http://www.w3.org/1999/xlink"><defs node-id="189"><linearGradient gradientUnits="objectBoundingBox" id="SVGID_1_" node-id="44" spreadMethod="pad" x1="256.7882" x2="256.7882" y1="423.3921" y2="326.6038"><stop offset="0.0000005358273" stop-color="#ffffff"></stop><stop offset="1" stop-color="#dbe3ee"></stop></linearGradient><linearGradient gradientUnits="objectBoundingBox" id="SVGID_2_" node-id="48" spreadMethod="pad" x1="192.1712" x2="192.1712" y1="481.384" y2="264.895"><stop offset="0.0000005358273" stop-color="#ffffff"></stop><stop offset="1" stop-color="#dbe3ee"></stop></linearGradient><linearGradient gradientUnits="objectBoundingBox" id="SVGID_3_" node-id="52" spreadMethod="pad" x1="567.9528" x2="567.9528" y1="438.7051" y2="282.2243"><stop offset="0.0000005358273" stop-color="#ffffff"></stop><stop offset="1" stop-color="#dbe3ee"></stop></linearGradient><linearGradient gradientUnits="objectBoundingBox" id="SVGID_4_" node-id="56" spreadMethod="pad" x1="630.4777" x2="630.4777" y1="461.3751" y2="291.6344"><stop offset="0.0000005358273" stop-color="#ffffff"></stop><stop offset="1" stop-color="#dbe3ee"></stop></linearGradient><linearGradient gradientUnits="objectBoundingBox" id="SVGID_5_" node-id="60" spreadMethod="pad" x1="121.7651" x2="121.7651" y1="503.4536" y2="352.9402"><stop offset="0.0000005358273" stop-color="#ffffff"></stop><stop offset="1" stop-color="#edf1f9"></stop></linearGradient><linearGradient gradientUnits="objectBoundingBox" id="SVGID_6_" node-id="64" spreadMethod="pad" x1="684.4383" x2="684.4383" y1="486.8482" y2="363.7159"><stop offset="0.0000005358273" stop-color="#ffffff"></stop><stop offset="1" stop-color="#edf1f9"></stop></linearGradient><linearGradient gradientUnits="objectBoundingBox" id="SVGID_7_" node-id="68" spreadMethod="pad" x1="127.7288" x2="127.7288" y1="231.1463" y2="166.605"><stop offset="0.2332" stop-color="#ffffff"></stop><stop offset="1" stop-color="#d3dfee"></stop></linearGradient><linearGradient gradientUnits="objectBoundingBox" id="SVGID_8_" node-id="72" spreadMethod="pad" x1="644.7972" x2="644.7972" y1="194.3259" y2="129.7846"><stop offset="0.2332" stop-color="#ffffff"></stop><stop offset="1" stop-color="#d3dfee"></stop></linearGradient><linearGradient gradientUnits="objectBoundingBox" id="SVGID_9_" node-id="76" spreadMethod="pad" x1="515.0263" x2="515.0263" y1="237.4993" y2="190.7821"><stop offset="0.2332" stop-color="#ffffff"></stop><stop offset="1" stop-color="#d3dfee"></stop></linearGradient><linearGradient gradientUnits="objectBoundingBox" id="SVGID_10_" node-id="80" spreadMethod="pad" x1="401.2436" x2="401.2436" y1="753.0242" y2="400.8953"><stop offset="0.4065" stop-color="#ffffff"></stop><stop offset="1" stop-color="#dae4ef"></stop></linearGradient><linearGradient gradientUnits="objectBoundingBox" id="SVGID_11_" node-id="86" spreadMethod="pad" x1="192.1731" x2="140.7369" y1="576.48" y2="515.1807"><stop offset="0.4034" stop-color="#eff4f8"></stop><stop offset="1" stop-color="#d4dfec"></stop></linearGradient><linearGradient gradientUnits="objectBoundingBox" id="SVGID_12_" node-id="90" spreadMethod="pad" x1="113.1253" x2="177.3122" y1="456.1896" y2="456.1896"><stop offset="0.1022" stop-color="#f0f5f8"></stop><stop offset="1" stop-color="#b4c7dc"></stop></linearGradient><linearGradient gradientUnits="objectBoundingBox" id="SVGID_13_" node-id="96" spreadMethod="pad" x1="711.0353" x2="663.6699" y1="556.5074" y2="500.0595"><stop offset="0.4034" stop-color="#eff4f8"></stop><stop offset="1" stop-color="#d4dfec"></stop></linearGradient><linearGradient gradientUnits="objectBoundingBox" id="SVGID_14_" node-id="100" spreadMethod="pad" x1="638.2435" x2="697.3504" y1="445.7372" y2="445.7372"><stop offset="0.1022" stop-color="#f0f5f8"></stop><stop offset="1" stop-color="#b4c7dc"></stop></linearGradient><linearGradient gradientUnits="objectBoundingBox" id="SVGID_15_" node-id="106" spreadMethod="pad" x1="252.3727" x2="226.9314" y1="457.3366" y2="427.0169"><stop offset="0.0000001438503" stop-color="#eaeff6"></stop><stop offset="1" stop-color="#cddae9"></stop></linearGradient><linearGradient gradientUnits="objectBoundingBox" id="SVGID_16_" node-id="110" spreadMethod="pad" x1="213.2742" x2="245.0221" y1="397.8389" y2="397.8389"><stop offset="0.1022" stop-color="#f0f5f8"></stop><stop offset="1" stop-color="#b4c7dc"></stop></linearGradient><linearGradient gradientUnits="objectBoundingBox" id="SVGID_17_" node-id="116" spreadMethod="pad" x1="558.533" x2="463.8543" y1="674.5671" y2="414.4396"><stop offset="0.0698" stop-color="#ffffff"></stop><stop offset="0.7853" stop-color="#bbcbe0"></stop><stop offset="1" stop-color="#bbcbe0"></stop></linearGradient><linearGradient gradientUnits="objectBoundingBox" id="SVGID_18_" node-id="121" spreadMethod="pad" x1="295.5128" x2="516.5991" y1="365.3846" y2="365.3846"><stop offset="0" stop-color="#eff3f9"></stop><stop offset="1" stop-color="#b6c9de"></stop></linearGradient><linearGradient gradientUnits="objectBoundingBox" id="SVGID_19_" node-id="125" spreadMethod="pad" x1="313.0832" x2="499.0288" y1="365.3846" y2="365.3846"><stop offset="0" stop-color="#dde5f0"></stop><stop offset="1" stop-color="#9fb7ce"></stop></linearGradient><linearGradient gradientUnits="objectBoundingBox" id="SVGID_20_" node-id="129" spreadMethod="pad" x1="347.2882" x2="464.8236" y1="233.2728" y2="233.2728"><stop offset="0" stop-color="#eff3f9"></stop><stop offset="1" stop-color="#b6c9de"></stop></linearGradient><linearGradient gradientUnits="objectBoundingBox" id="SVGID_21_" node-id="133" spreadMethod="pad" x1="445.5512" x2="558.8508" y1="458.1855" y2="458.1855"><stop offset="0" stop-color="#eff3f9"></stop><stop offset="1" stop-color="#b6c9de"></stop></linearGradient><linearGradient gradientUnits="objectBoundingBox" id="SVGID_22_" node-id="137" spreadMethod="pad" x1="445.5512" x2="558.8508" y1="458.1855" y2="458.1855"><stop offset="0" stop-color="#eff3f9"></stop><stop offset="1" stop-color="#b6c9de"></stop></linearGradient><linearGradient gradientUnits="objectBoundingBox" id="SVGID_23_" node-id="141" spreadMethod="pad" x1="458.1" x2="546.3019" y1="458.1855" y2="458.1855"><stop offset="0" stop-color="#dde5f0"></stop><stop offset="1" stop-color="#9fb7ce"></stop></linearGradient><linearGradient gradientUnits="objectBoundingBox" id="SVGID_24_" node-id="145" spreadMethod="pad" x1="341.4109" x2="470.7164" y1="296.3963" y2="296.3963"><stop offset="0.1453" stop-color="#ffffff"></stop><stop offset="1" stop-color="#d8e3ef"></stop></linearGradient><linearGradient gradientUnits="objectBoundingBox" id="SVGID_25_" node-id="149" spreadMethod="pad" x1="341.4109" x2="470.7164" y1="348.1242" y2="348.1242"><stop offset="0.1453" stop-color="#ffffff"></stop><stop offset="1" stop-color="#d8e3ef"></stop></linearGradient><linearGradient gradientUnits="objectBoundingBox" id="SVGID_26_" node-id="153" spreadMethod="pad" x1="341.4109" x2="437.3798" y1="399.8521" y2="399.8521"><stop offset="0.1453" stop-color="#ffffff"></stop><stop offset="1" stop-color="#d8e3ef"></stop></linearGradient><linearGradient gradientUnits="objectBoundingBox" id="SVGID_27_" node-id="157" spreadMethod="pad" x1="472.7579" x2="529.8228" y1="459.9113" y2="459.9113"><stop offset="0.1453" stop-color="#ffffff"></stop><stop offset="1" stop-color="#d8e3ef"></stop></linearGradient><linearGradient gradientUnits="objectBoundingBox" id="SVGID_28_" node-id="162" spreadMethod="pad" x1="283.1011" x2="251.8786" y1="562.3826" y2="453.4967"><stop offset="0.2949" stop-color="#ffffff"></stop><stop offset="0.9362" stop-color="#d6e1ed"></stop></linearGradient><linearGradient gradientUnits="objectBoundingBox" id="SVGID_29_" node-id="168" spreadMethod="pad" x1="245.6395" x2="245.6395" y1="487.7712" y2="471.1535"><stop offset="0.3408" stop-color="#f4ae7f"></stop><stop offset="1" stop-color="#ffbe92"></stop></linearGradient><linearGradient gradientUnits="objectBoundingBox" id="SVGID_30_" node-id="176" spreadMethod="pad" x1="258.9152" x2="237.8207" y1="578.4083" y2="520.4515"><stop offset="0" stop-color="#78c8ff"></stop><stop offset="0.6903" stop-color="#2a80e2"></stop></linearGradient><linearGradient gradientUnits="objectBoundingBox" id="SVGID_31_" node-id="181" spreadMethod="pad" x1="245.5532" x2="245.5532" y1="528.1408" y2="484.8606"><stop offset="0" stop-color="#f2a319"></stop><stop offset="0.4796" stop-color="#ffc552"></stop></linearGradient></defs><g node-id="557"><g node-id="561"><path d="M 271.24 330.01 L 271.24 326.60 L 241.74 326.60 L 241.74 330.56 L 235.26 330.56 L 235.26 423.39 L 278.31 423.39 L 278.31 330.01 L 271.24 330.01 Z M 274.59 412.75 L 238.55 412.75 L 238.55 410.00 L 274.59 410.00 L 274.59 412.75 Z M 274.59 400.07 L 238.55 400.07 L 238.55 397.32 L 274.59 397.32 L 274.59 400.07 Z M 274.59 387.39 L 238.55 387.39 L 238.55 384.64 L 274.59 384.64 L 274.59 387.39 Z M 274.59 375.05 L 238.55 375.05 L 238.55 372.30 L 274.59 372.30 L 274.59 375.05 Z M 274.59 362.74 L 238.55 362.74 L 238.55 359.99 L 274.59 359.99 L 274.59 362.74 Z M 274.59 350.06 L 238.55 350.06 L 238.55 347.31 L 274.59 347.31 L 274.59 350.06 Z M 274.59 337.72 L 238.55 337.72 L 238.55 334.97 L 274.59 334.97 L 274.59 337.72 Z" fill="url(#SVGID_1_)" fill-rule="nonzero" group-id="39,43" node-id="420" stroke="none" target-height="96.79001" target-width="43.05002" target-x="235.25998" target-y="326.6"></path><path d="M 213.26 381.82 L 213.26 273.64 L 180.51 273.64 L 180.51 264.90 L 166.65 264.90 L 166.65 318.23 L 162.92 318.23 L 162.92 481.39 L 221.43 481.39 L 221.43 381.83 L 213.26 381.83 Z M 188.76 413.63 L 180.50 413.63 L 180.50 405.62 L 188.76 405.62 L 188.76 413.63 Z M 188.76 401.10 L 180.50 401.10 L 180.50 393.09 L 188.76 393.09 L 188.76 401.10 Z M 188.76 388.63 L 180.50 388.63 L 180.50 380.62 L 188.76 380.62 L 188.76 388.63 Z M 188.76 376.19 L 180.50 376.19 L 180.50 368.18 L 188.76 368.18 L 188.76 376.19 Z M 188.76 363.66 L 180.50 363.66 L 180.50 355.65 L 188.76 355.65 L 188.76 363.66 Z M 188.76 338.66 L 180.50 338.66 L 180.50 330.65 L 188.76 330.65 L 188.76 338.66 Z M 188.76 326.13 L 180.50 326.13 L 180.50 318.12 L 188.76 318.12 L 188.76 326.13 Z M 188.76 313.65 L 180.50 313.65 L 180.50 305.64 L 188.76 305.64 L 188.76 313.65 Z M 188.76 301.22 L 180.50 301.22 L 180.50 293.21 L 188.76 293.21 L 188.76 301.22 Z M 188.76 288.69 L 180.50 288.69 L 180.50 280.68 L 188.76 280.68 L 188.76 288.69 Z M 201.12 413.63 L 192.86 413.63 L 192.86 405.62 L 201.12 405.62 L 201.12 413.63 Z M 201.12 401.10 L 192.86 401.10 L 192.86 393.09 L 201.12 393.09 L 201.12 401.10 Z M 201.12 388.63 L 192.86 388.63 L 192.86 380.62 L 201.12 380.62 L 201.12 388.63 Z M 201.12 376.19 L 192.86 376.19 L 192.86 368.18 L 201.12 368.18 L 201.12 376.19 Z M 201.12 363.66 L 192.86 363.66 L 192.86 355.65 L 201.12 355.65 L 201.12 363.66 Z M 201.12 338.66 L 192.86 338.66 L 192.86 330.65 L 201.12 330.65 L 201.12 338.66 Z M 201.12 326.13 L 192.86 326.13 L 192.86 318.12 L 201.12 318.12 L 201.12 326.13 Z M 201.12 313.65 L 192.86 313.65 L 192.86 305.64 L 201.12 305.64 L 201.12 313.65 Z M 201.12 301.22 L 192.86 301.22 L 192.86 293.21 L 201.12 293.21 L 201.12 301.22 Z M 201.12 288.69 L 192.86 288.69 L 192.86 280.68 L 201.12 280.68 L 201.12 288.69 Z" fill="url(#SVGID_2_)" fill-rule="nonzero" group-id="39,43" node-id="422" stroke="none" target-height="216.49002" target-width="58.509995" target-x="162.92" target-y="264.9"></path><path d="M 535.57 438.71 C 535.93 434.06 535.57 282.23 535.57 282.23 L 554.10 282.23 L 554.10 315.94 L 583.60 315.94 L 583.60 386.39 L 600.33 386.39 L 600.33 438.71 L 535.57 438.71 Z" fill="url(#SVGID_3_)" fill-rule="nonzero" group-id="39,43" node-id="424" stroke="none" target-height="156.47998" target-width="64.76001" target-x="535.57" target-y="282.23"></path><path d="M 656.79 370.56 L 656.79 365.71 L 651.79 365.71 L 651.79 323.38 L 639.59 323.38 L 639.59 318.68 L 631.36 318.68 L 631.36 311.77 L 627.07 311.77 L 627.07 291.63 L 623.98 291.63 L 623.98 311.91 L 620.04 311.91 L 620.04 318.82 L 607.84 318.82 L 607.84 330.14 L 600.79 330.14 L 600.79 461.37 L 660.17 461.37 L 660.17 370.55 L 656.79 370.55 Z M 611.27 423.34 L 607.25 423.34 L 607.25 408.10 L 611.27 408.10 L 611.27 423.34 Z M 611.27 404.69 L 607.25 404.69 L 607.25 389.45 L 611.27 389.45 L 611.27 404.69 Z M 611.27 386.04 L 607.25 386.04 L 607.25 370.80 L 611.27 370.80 L 611.27 386.04 Z M 611.27 367.06 L 607.25 367.06 L 607.25 351.82 L 611.27 351.82 L 611.27 367.06 Z M 611.27 348.07 L 607.25 348.07 L 607.25 332.83 L 611.27 332.83 L 611.27 348.07 Z M 619.55 423.34 L 615.53 423.34 L 615.53 408.10 L 619.55 408.10 L 619.55 423.34 Z M 619.55 404.69 L 615.53 404.69 L 615.53 389.45 L 619.55 389.45 L 619.55 404.69 Z M 619.55 386.04 L 615.53 386.04 L 615.53 370.80 L 619.55 370.80 L 619.55 386.04 Z M 619.55 367.06 L 615.53 367.06 L 615.53 351.82 L 619.55 351.82 L 619.55 367.06 Z M 619.55 348.07 L 615.53 348.07 L 615.53 332.83 L 619.55 332.83 L 619.55 348.07 Z M 627.83 423.34 L 623.81 423.34 L 623.81 408.10 L 627.83 408.10 L 627.83 423.34 Z M 627.83 404.69 L 623.81 404.69 L 623.81 389.45 L 627.83 389.45 L 627.83 404.69 Z M 627.83 386.04 L 623.81 386.04 L 623.81 370.80 L 627.83 370.80 L 627.83 386.04 Z M 627.83 367.06 L 623.81 367.06 L 623.81 351.82 L 627.83 351.82 L 627.83 367.06 Z M 627.83 348.07 L 623.81 348.07 L 623.81 332.83 L 627.83 332.83 L 627.83 348.07 Z M 636.11 423.34 L 632.09 423.34 L 632.09 408.10 L 636.11 408.10 L 636.11 423.34 Z M 636.11 404.69 L 632.09 404.69 L 632.09 389.45 L 636.11 389.45 L 636.11 404.69 Z M 636.11 386.04 L 632.09 386.04 L 632.09 370.80 L 636.11 370.80 L 636.11 386.04 Z M 636.11 367.06 L 632.09 367.06 L 632.09 351.82 L 636.11 351.82 L 636.11 367.06 Z M 636.11 348.07 L 632.09 348.07 L 632.09 332.83 L 636.11 332.83 L 636.11 348.07 Z M 644.39 423.34 L 640.37 423.34 L 640.37 408.10 L 644.39 408.10 L 644.39 423.34 Z M 644.39 404.69 L 640.37 404.69 L 640.37 389.45 L 644.39 389.45 L 644.39 404.69 Z M 644.39 386.04 L 640.37 386.04 L 640.37 370.80 L 644.39 370.80 L 644.39 386.04 Z M 644.39 367.06 L 640.37 367.06 L 640.37 351.82 L 644.39 351.82 L 644.39 367.06 Z M 644.39 348.07 L 640.37 348.07 L 640.37 332.83 L 644.39 332.83 L 644.39 348.07 Z" fill="url(#SVGID_4_)" fill-rule="nonzero" group-id="39,43" node-id="426" stroke="none" target-height="169.73999" target-width="59.380005" target-x="600.79" target-y="291.63"></path><path d="M 95.14 503.45 L 95.14 413.91 L 105.39 413.91 L 105.39 368.21 L 140.66 352.94 L 140.66 413.19 L 148.39 413.19 L 148.39 503.45 Z" fill="url(#SVGID_5_)" fill-rule="nonzero" group-id="39,43" node-id="428" stroke="none" target-height="150.51001" target-width="53.249992" target-x="95.14001" target-y="352.94"></path><path d="M 699.91 486.85 L 668.97 486.85 L 668.97 363.72 L 699.91 378.69 Z" fill="url(#SVGID_6_)" fill-rule="nonzero" group-id="39,43" node-id="430" stroke="none" target-height="123.129974" target-width="30.940002" target-x="668.97" target-y="363.72"></path><path d="M 89.96 190.04 C 89.96 190.04 99.30 164.56 122.26 174.56 C 127.56 169.18 134.12 165.27 142.99 167.03 C 151.86 168.79 157.58 175.44 159.52 179.86 C 162.30 179.73 184.56 180.47 184.56 203.56 C 184.56 226.65 157.62 226.21 155.67 224.38 C 153.27 226.52 141.73 238.13 127.73 224.88 C 124.70 227.47 114.80 238.44 99.15 223.30 C 91.90 226.33 74.67 228.66 71.33 210.87 C 67.98 193.09 85.12 188.06 89.96 190.04 Z" fill="url(#SVGID_7_)" fill-rule="nonzero" group-id="39,43" node-id="432" stroke="none" target-height="73.880005" target-width="116.579994" target-x="67.98" target-y="164.56"></path><path d="M 607.03 153.22 C 607.03 153.22 616.37 127.74 639.33 137.74 C 644.63 132.36 651.19 128.45 660.06 130.21 C 668.93 131.97 674.65 138.62 676.59 143.04 C 679.37 142.91 701.63 143.65 701.63 166.74 C 701.63 189.83 674.69 189.39 672.74 187.56 C 670.34 189.70 658.80 201.31 644.80 188.06 C 641.77 190.65 631.87 201.62 616.22 186.48 C 608.97 189.51 591.74 191.84 588.40 174.05 C 585.05 156.27 602.19 151.24 607.03 153.22 Z" fill="url(#SVGID_8_)" fill-rule="nonzero" group-id="39,43" node-id="434" stroke="none" target-height="73.88" target-width="116.579956" target-x="585.05" target-y="127.74"></path><path d="M 487.69 207.74 C 487.69 207.74 494.45 189.29 511.07 196.54 C 514.91 192.64 519.65 189.81 526.08 191.09 C 532.51 192.37 536.64 197.18 538.04 200.37 C 540.05 200.28 556.17 200.81 556.17 217.52 C 556.17 234.23 536.67 233.91 535.26 232.59 C 533.52 234.14 525.17 242.54 515.03 232.96 C 512.84 234.83 505.67 242.78 494.35 231.82 C 489.10 234.01 476.63 235.70 474.21 222.82 C 471.78 209.95 484.19 206.31 487.69 207.74 Z" fill="url(#SVGID_9_)" fill-rule="nonzero" group-id="39,43" node-id="436" stroke="none" target-height="53.49002" target-width="84.390015" target-x="471.77997" target-y="189.28998"></path><path d="M 772.22 576.96 C 772.22 623.65 733.13 668.44 663.56 701.45 C 593.99 734.47 499.63 753.02 401.24 753.02 C 302.85 753.02 208.49 734.47 138.92 701.45 C 69.35 668.44 30.26 623.65 30.26 576.96 C 30.26 530.27 69.35 485.48 138.92 452.47 C 208.49 419.45 302.85 400.90 401.24 400.90 C 499.63 400.90 593.99 419.45 663.56 452.47 C 733.13 485.48 772.22 530.27 772.22 576.96 Z" fill="url(#SVGID_10_)" fill-rule="nonzero" group-id="39,43" node-id="438" stroke="none" target-height="352.12" target-width="741.96" target-x="30.259977" target-y="400.90002"></path></g><g node-id="562"><g node-id="565"><path d="M 147.19 555.43 C 147.19 555.43 143.66 560.44 149.56 567.90 C 154.82 574.54 163.13 573.25 165.89 571.12 C 166.74 576.90 173.83 589.08 185.05 582.19 C 195.60 575.72 190.52 565.88 187.15 562.01 C 193.74 560.15 198.65 544.36 183.53 538.91 C 185.77 532.39 186.17 529.44 182.89 523.58 C 179.73 517.94 174.54 517.04 166.26 520.47 L 154.28 525.52 L 146.65 511.28 L 142.57 513.64 L 151.37 527.24 L 139.71 533.09 C 139.71 533.09 129.74 536.99 134.04 547.69 C 138.03 557.60 147.19 555.43 147.19 555.43 Z" fill="url(#SVGID_11_)" fill-rule="nonzero" group-id="39,44,47" node-id="444" stroke="none" target-height="77.80002" target-width="68.90999" target-x="129.74" target-y="511.28"></path><path d="M 126.89 494.71 L 162.95 494.71 C 162.95 494.71 174.60 495.04 176.92 481.73 C 179.47 467.12 168.84 465.11 168.84 465.11 C 168.84 465.11 175.24 462.17 173.85 451.12 C 172.46 440.07 162.73 438.68 158.68 439.19 C 159.34 432.64 160.72 417.81 145.32 417.66 C 130.45 417.51 130.54 432.48 131.65 438.38 C 126.35 438.44 110.34 446.39 121.60 463.83 C 115.47 469.08 112.88 472.11 113.15 479.68 C 113.42 487.26 118.06 494.71 126.89 494.71 Z" fill="url(#SVGID_12_)" fill-rule="nonzero" group-id="39,44,47" node-id="446" stroke="none" target-height="77.53003" target-width="69.130005" target-x="110.34" target-y="417.50998"></path><path d="M 162.07 474.48 L 146.69 484.60 L 146.27 474.81 L 155.99 463.35 L 146.12 471.33 L 144.84 441.43 L 143.90 471.53 L 133.52 463.27 L 143.80 474.59 L 143.48 484.66 L 127.67 473.04 L 143.37 488.30 L 142.57 513.65 L 147.93 513.65 L 146.85 488.45 Z" fill="#c6d5e6" fill-rule="nonzero" group-id="39,44,47" node-id="448" stroke="none" target-height="72.22006" target-width="34.40001" target-x="127.67" target-y="441.42996"></path></g><g node-id="566"><path d="M 669.61 537.12 C 669.61 537.12 666.36 541.74 671.79 548.60 C 676.63 554.72 684.29 553.53 686.83 551.56 C 687.61 556.88 694.15 568.09 704.48 561.76 C 714.19 555.80 709.52 546.74 706.41 543.18 C 712.48 541.47 717.00 526.92 703.08 521.91 C 705.15 515.91 705.52 513.19 702.49 507.80 C 699.58 502.61 694.80 501.77 687.18 504.94 L 676.14 509.59 L 669.11 496.48 L 665.36 498.65 L 673.46 511.17 L 662.73 516.56 C 662.73 516.56 653.55 520.15 657.51 530.01 C 661.18 539.13 669.61 537.12 669.61 537.12 Z" fill="url(#SVGID_13_)" fill-rule="nonzero" group-id="39,44,48" node-id="453" stroke="none" target-height="71.610016" target-width="63.450012" target-x="653.55" target-y="496.48"></path><path d="M 650.92 481.21 L 684.12 481.21 C 684.12 481.21 694.85 481.52 696.98 469.26 C 699.32 455.81 689.54 453.96 689.54 453.96 C 689.54 453.96 695.44 451.25 694.15 441.08 C 692.86 430.91 683.91 429.62 680.18 430.10 C 680.79 424.07 682.06 410.41 667.88 410.27 C 654.19 410.13 654.27 423.91 655.29 429.35 C 650.41 429.40 635.66 436.72 646.04 452.79 C 640.40 457.62 638.01 460.42 638.26 467.38 C 638.52 474.35 642.79 481.21 650.92 481.21 Z" fill="url(#SVGID_14_)" fill-rule="nonzero" group-id="39,44,48" node-id="455" stroke="none" target-height="71.38995" target-width="63.660034" target-x="635.66" target-y="410.13004"></path><path d="M 683.31 462.58 L 669.15 471.89 L 668.76 462.88 L 677.72 452.33 L 668.63 459.68 L 667.45 432.14 L 666.58 459.86 L 657.02 452.25 L 666.49 462.68 L 666.20 471.96 L 651.63 461.25 L 666.09 475.30 L 665.36 498.65 L 670.29 498.65 L 669.30 475.44 Z" fill="#c6d5e6" fill-rule="nonzero" group-id="39,44,48" node-id="457" stroke="none" target-height="66.50998" target-width="31.679993" target-x="651.63" target-y="432.14"></path></g><g node-id="567"><path d="M 230.12 446.92 C 230.12 446.92 228.37 449.40 231.29 453.09 C 233.89 456.38 238.00 455.74 239.37 454.68 C 239.79 457.54 243.30 463.56 248.85 460.16 C 254.07 456.96 251.56 452.09 249.89 450.18 C 253.15 449.26 255.58 441.45 248.10 438.76 C 249.21 435.54 249.41 434.08 247.78 431.18 C 246.22 428.39 243.65 427.94 239.56 429.64 L 233.63 432.14 L 229.86 425.10 L 227.84 426.27 L 232.19 432.99 L 226.42 435.88 C 226.42 435.88 221.49 437.81 223.62 443.10 C 225.59 448.00 230.12 446.92 230.12 446.92 Z" fill="url(#SVGID_15_)" fill-rule="nonzero" group-id="39,44,49" node-id="462" stroke="none" target-height="38.45999" target-width="34.089996" target-x="221.49" target-y="425.1"></path><path d="M 220.08 416.89 L 237.91 416.89 C 237.91 416.89 243.67 417.05 244.82 410.47 C 246.08 403.24 240.82 402.25 240.82 402.25 C 240.82 402.25 243.99 400.79 243.30 395.33 C 242.61 389.87 237.80 389.18 235.80 389.43 C 236.13 386.19 236.81 378.85 229.19 378.78 C 221.83 378.71 221.88 386.11 222.43 389.03 C 219.81 389.06 211.89 392.99 217.46 401.62 C 214.43 404.21 213.14 405.72 213.28 409.46 C 213.42 413.20 215.71 416.89 220.08 416.89 Z" fill="url(#SVGID_16_)" fill-rule="nonzero" group-id="39,44,49" node-id="464" stroke="none" target-height="38.339996" target-width="34.190018" target-x="211.88998" target-y="378.70996"></path><path d="M 237.48 406.88 L 229.87 411.89 L 229.67 407.05 L 234.48 401.38 L 229.59 405.33 L 228.96 390.54 L 228.49 405.42 L 223.36 401.34 L 228.45 406.94 L 228.29 411.92 L 220.47 406.17 L 228.23 413.72 L 227.84 426.26 L 230.49 426.26 L 229.96 413.79 Z" fill="#c6d5e6" fill-rule="nonzero" group-id="39,44,49" node-id="466" stroke="none" target-height="35.72003" target-width="17.009995" target-x="220.47" target-y="390.54"></path></g></g><g node-id="563"><path d="M 323.85 465.40 L 300.27 481.21 L 437.38 704.57 L 724.45 614.18 L 546.30 475.79 L 506.15 445.74 Z" fill="url(#SVGID_17_)" fill-rule="nonzero" group-id="39,45" node-id="472" stroke="none" target-height="258.83002" target-width="424.18002" target-x="300.27" target-y="445.74"></path><path d="M 489.28 493.13 L 322.83 493.13 C 307.74 493.13 295.51 480.90 295.51 465.81 L 295.51 264.96 C 295.51 249.87 307.74 237.64 322.83 237.64 L 489.28 237.64 C 504.37 237.64 516.60 249.87 516.60 264.96 L 516.60 465.82 C 516.60 480.90 504.37 493.13 489.28 493.13 Z" fill="url(#SVGID_18_)" fill-rule="nonzero" group-id="39,45" node-id="474" stroke="none" target-height="255.48999" target-width="221.08997" target-x="295.51" target-y="237.64001"></path><path d="M 486.39 475.79 L 325.72 475.79 C 318.74 475.79 313.08 470.13 313.08 463.15 L 313.08 267.62 C 313.08 260.64 318.74 254.98 325.72 254.98 L 486.39 254.98 C 493.37 254.98 499.03 260.64 499.03 267.62 L 499.03 463.16 C 499.03 470.13 493.37 475.79 486.39 475.79 Z" fill="url(#SVGID_19_)" fill-rule="nonzero" group-id="39,45" node-id="476" stroke="none" target-height="220.81001" target-width="185.95004" target-x="313.08" target-y="254.98"></path><path d="M 458.02 221.85 L 429.35 221.85 C 427.18 221.85 425.35 220.33 424.85 218.22 C 422.83 209.70 415.18 203.36 406.05 203.36 C 396.91 203.36 389.26 209.70 387.25 218.22 C 386.75 220.33 384.92 221.85 382.75 221.85 L 354.08 221.85 C 350.32 221.85 347.28 224.90 347.28 228.65 L 347.28 256.38 C 347.28 260.14 350.32 263.18 354.08 263.18 L 458.01 263.18 C 461.77 263.18 464.81 260.14 464.81 256.38 L 464.81 228.65 C 464.82 224.90 461.78 221.85 458.02 221.85 Z M 406.06 232.58 C 400.33 232.58 395.68 227.93 395.68 222.20 C 395.68 216.47 400.33 211.82 406.06 211.82 C 411.79 211.82 416.44 216.47 416.44 222.20 C 416.44 227.93 411.79 232.58 406.06 232.58 Z" fill="url(#SVGID_20_)" fill-rule="nonzero" group-id="39,45" node-id="478" stroke="none" target-height="59.819977" target-width="117.53998" target-x="347.28003" target-y="203.36002"></path><path d="M 558.85 458.19 C 558.85 473.21 552.88 487.62 542.26 498.25 C 531.63 508.87 517.22 514.84 502.20 514.84 C 470.91 514.84 445.55 489.48 445.55 458.19 C 445.55 426.90 470.91 401.54 502.20 401.54 C 533.49 401.54 558.85 426.90 558.85 458.19 Z" fill="url(#SVGID_21_)" fill-rule="nonzero" group-id="39,45" node-id="480" stroke="none" target-height="113.30002" target-width="113.30002" target-x="445.55002" target-y="401.54"></path><path d="M 558.85 458.19 C 558.85 473.21 552.88 487.62 542.26 498.25 C 531.63 508.87 517.22 514.84 502.20 514.84 C 470.91 514.84 445.55 489.48 445.55 458.19 C 445.55 426.90 470.91 401.54 502.20 401.54 C 533.49 401.54 558.85 426.90 558.85 458.19 Z" fill="url(#SVGID_22_)" fill-rule="nonzero" group-id="39,45" node-id="482" stroke="none" target-height="113.30002" target-width="113.30002" target-x="445.55002" target-y="401.54"></path><path d="M 546.30 458.19 C 546.30 482.55 526.56 502.29 502.20 502.29 C 477.84 502.29 458.10 482.55 458.10 458.19 C 458.10 433.83 477.84 414.09 502.20 414.09 C 526.56 414.09 546.30 433.83 546.30 458.19 Z" fill="url(#SVGID_23_)" fill-rule="nonzero" group-id="39,45" node-id="484" stroke="none" target-height="88.20001" target-width="88.19998" target-x="458.1" target-y="414.09"></path><path d="M 341.41 286.80 L 470.72 286.80 L 470.72 305.99 L 341.41 305.99 Z" fill="url(#SVGID_24_)" fill-rule="nonzero" group-id="39,45" node-id="486" stroke="none" target-height="19.190002" target-width="129.31003" target-x="341.41" target-y="286.8"></path><path d="M 341.41 338.53 L 470.72 338.53 L 470.72 357.72 L 341.41 357.72 Z" fill="url(#SVGID_25_)" fill-rule="nonzero" group-id="39,45" node-id="488" stroke="none" target-height="19.189972" target-width="129.31003" target-x="341.41" target-y="338.53"></path><path d="M 341.41 390.26 L 437.38 390.26 L 437.38 409.45 L 341.41 409.45 Z" fill="url(#SVGID_26_)" fill-rule="nonzero" group-id="39,45" node-id="490" stroke="none" target-height="19.190002" target-width="95.97" target-x="341.41" target-y="390.26"></path><path d="M 495.28 481.12 C 492.84 481.12 490.52 480.23 488.69 478.58 C 488.58 478.48 488.48 478.39 488.38 478.28 L 474.28 463.47 C 472.17 461.25 472.26 457.75 474.47 455.64 C 476.68 453.53 480.19 453.62 482.30 455.83 L 495.26 469.44 L 520.08 440.62 C 522.08 438.30 525.57 438.04 527.89 440.04 C 530.21 442.04 530.47 445.53 528.47 447.85 L 502.78 477.68 C 501.03 479.71 498.60 480.92 495.92 481.09 C 495.71 481.11 495.50 481.12 495.28 481.12 Z" fill="url(#SVGID_27_)" fill-rule="nonzero" group-id="39,45" node-id="492" stroke="none" target-height="43.079987" target-width="58.299957" target-x="472.17" target-y="438.04"></path></g><g node-id="564"><path d="M 260.04 580.90 L 319.72 687.49 L 277.44 692.16 L 237.96 586.65 L 245.30 585.54 L 266.23 622.42 L 253.28 586.75 Z" fill="url(#SVGID_28_)" fill-rule="nonzero" group-id="39,46" node-id="497" stroke="none" target-height="111.25989" target-width="81.759995" target-x="237.96" target-y="580.9"></path><path d="M 240.56 513.01 C 240.56 513.01 239.12 511.04 237.76 511.11 C 234.62 511.28 223.53 505.09 222.77 503.41 C 222.01 501.73 234.20 499.54 234.04 498.90 C 232.41 497.65 232.63 491.07 232.63 491.07 C 232.63 491.07 210.77 498.87 214.98 505.05 C 217.56 508.84 229.20 512.35 233.67 514.20 C 235.04 514.59 235.57 515.44 235.85 516.00 C 236.13 516.56 238.33 519.73 241.50 519.02 C 243.42 518.60 240.53 516.03 240.00 515.75 C 239.48 515.47 237.65 513.78 239.77 513.65 C 240.61 513.73 240.98 513.48 240.56 513.01 Z" fill="#ffbe92" fill-rule="nonzero" group-id="39,46" node-id="499" stroke="none" target-height="28.659973" target-width="32.649994" target-x="210.77" target-y="491.07"></path><path d="M 245.64 467.22 C 245.64 467.22 246.70 465.87 248.20 466.02 C 249.81 466.18 249.39 467.20 250.49 467.43 C 251.60 467.66 252.29 467.58 251.99 469.69 C 251.82 470.86 251.96 470.85 252.27 471.40 C 252.46 471.73 253.79 472.85 252.89 474.30 C 252.00 475.71 251.75 475.19 251.98 476.54 C 252.20 477.89 251.69 479.08 250.88 479.49 C 250.09 479.89 250.29 480.62 250.44 481.04 C 250.58 481.45 250.14 482.78 248.80 482.30 C 247.46 481.82 246.27 481.65 245.22 482.11 C 244.17 482.57 239.81 482.84 240.74 480.94 C 241.59 479.20 240.41 478.85 239.61 478.07 C 238.81 477.29 238.18 475.95 238.59 474.63 C 238.83 473.86 239.17 473.04 238.22 471.89 C 237.24 470.70 238.92 467.48 240.03 467.60 C 241.14 467.73 242.66 464.64 245.64 467.22 Z" fill="#171c61" fill-rule="nonzero" group-id="39,46" node-id="501" stroke="none" target-height="18.199982" target-width="16.550003" target-x="237.24" target-y="464.64"></path><path d="M 242.23 472.65 C 241.24 473.68 241.33 473.44 241.10 474.07 C 239.57 473.25 239.50 477.60 240.78 477.71 C 241.14 480.00 242.12 480.64 242.69 481.19 C 243.06 482.45 242.18 487.77 242.18 487.77 L 248.75 487.77 L 248.39 481.04 C 248.39 481.04 249.87 480.57 250.18 477.90 C 251.40 478.04 252.09 473.27 250.42 474.43 C 250.47 473.17 248.55 472.85 248.30 471.40 C 248.27 471.22 248.11 471.10 247.96 471.17 C 247.28 471.47 246.14 472.27 244.98 472.24 C 244.03 472.21 242.90 471.94 242.23 472.65 Z" fill="url(#SVGID_29_)" fill-rule="nonzero" group-id="39,46" node-id="503" stroke="none" target-height="16.669983" target-width="12.589996" target-x="239.5" target-y="471.1"></path><path d="M 258.09 576.99 C 258.04 577.28 257.89 577.55 257.67 577.75 C 257.22 578.17 257.00 578.77 255.87 578.63 C 254.17 578.41 253.83 577.88 253.47 576.87 C 252.75 578.37 253.73 579.91 253.40 582.04 C 253.07 584.17 252.32 587.60 255.51 589.26 C 258.70 590.92 261.17 587.28 261.05 584.44 C 260.93 581.60 258.48 578.32 258.71 577.11 C 258.76 576.26 258.38 575.58 258.38 575.58 C 258.38 575.58 258.19 576.44 258.09 576.99 Z" fill="#f8b62d" fill-rule="nonzero" group-id="39,46" node-id="505" stroke="none" target-height="15.339966" target-width="8.850006" target-x="252.32" target-y="575.58"></path><path d="M 260.61 582.28 C 260.61 582.28 261.52 586.40 259.38 588.04 C 258.80 588.54 255.79 590.01 253.52 587.20 C 253.72 587.73 254.56 589.55 256.54 589.99 C 257.43 590.06 259.25 590.08 260.64 587.90 C 262.02 585.71 260.61 582.28 260.61 582.28 Z" fill="#e6e8e8" fill-rule="nonzero" group-id="39,46" node-id="507" stroke="none" target-height="7.799988" target-width="8.5" target-x="253.51999" target-y="582.28"></path><path d="M 239.13 577.25 C 239.18 577.54 239.33 577.81 239.55 578.01 C 240.00 578.43 240.22 579.03 241.35 578.89 C 243.05 578.67 243.39 578.14 243.75 577.13 C 244.47 578.63 244.49 580.17 244.82 582.30 C 245.14 584.43 246.90 587.86 243.71 589.52 C 240.52 591.18 237.66 587.22 237.78 584.38 C 237.90 581.54 238.74 578.58 238.51 577.38 C 238.46 576.53 238.84 575.85 238.84 575.85 C 238.84 575.85 239.03 576.70 239.13 577.25 Z" fill="#f8b62d" fill-rule="nonzero" group-id="39,46" node-id="509" stroke="none" target-height="15.330017" target-width="9.23999" target-x="237.66" target-y="575.85"></path><path d="M 237.93 582.53 C 237.93 582.53 237.84 586.75 239.84 588.29 C 240.42 588.79 243.08 590.57 245.36 587.75 C 245.14 588.22 244.66 589.80 242.68 590.24 C 241.79 590.31 239.97 590.33 238.58 588.15 C 237.19 585.97 237.93 582.53 237.93 582.53 Z" fill="#e6e8e8" fill-rule="nonzero" group-id="39,46" node-id="511" stroke="none" target-height="8.039978" target-width="8.169998" target-x="237.19" target-y="582.53"></path><path d="M 236.95 520.77 C 236.95 520.77 234.35 527.05 235.04 537.96 C 235.63 547.20 238.01 569.63 238.73 577.50 C 238.85 578.77 239.91 579.74 241.19 579.74 L 241.61 579.74 C 242.90 579.74 243.97 578.75 244.07 577.47 L 247.71 535.78 L 253.28 577.52 C 253.43 578.79 254.41 579.30 255.69 579.30 L 255.92 579.25 C 257.25 579.25 258.22 578.71 258.31 577.39 C 259.05 566.45 261.86 524.89 257.59 520.77 L 236.95 520.77 Z" fill="url(#SVGID_30_)" fill-rule="nonzero" group-id="39,46" node-id="513" stroke="none" target-height="58.96997" target-width="27.509995" target-x="234.34999" target-y="520.77"></path><path d="M 294.65 492.32 C 294.22 490.50 293.44 489.53 292.62 489.56 C 292.61 489.56 292.61 489.55 292.60 489.55 C 292.17 489.42 291.23 489.87 290.38 490.31 C 290.41 490.21 290.45 490.12 290.48 490.05 C 290.77 489.48 291.65 486.73 290.32 486.53 C 289.92 486.47 289.77 487.01 289.34 488.45 C 288.84 490.11 287.46 491.36 287.17 492.87 C 286.88 494.39 275.47 498.15 272.54 499.56 C 270.63 499.18 261.82 491.39 261.82 491.39 C 261.82 491.39 260.88 493.83 259.48 498.67 C 264.55 502.86 270.71 506.23 273.28 505.85 C 275.86 505.47 285.48 499.03 286.53 498.31 C 287.46 497.68 287.68 497.71 288.34 497.50 C 288.34 497.50 288.34 497.50 288.34 497.50 C 290.62 497.23 293.25 496.03 293.25 496.03 C 293.77 495.94 295.20 494.68 294.65 492.32 Z" fill="#ffbe92" fill-rule="nonzero" group-id="39,46" node-id="515" stroke="none" target-height="19.76001" target-width="35.72" target-x="259.48" target-y="486.47"></path><path d="M 267.38 494.78 L 262.64 502.63 C 262.64 502.63 261.08 501.66 259.53 500.90 C 259.62 502.02 259.64 502.46 259.75 504.60 C 259.87 506.74 263.09 525.87 259.68 527.14 C 256.27 528.41 236.71 528.29 234.11 527.77 C 231.51 527.25 232.55 511.43 233.13 505.60 C 233.53 501.75 233.29 500.65 233.29 500.65 L 227.08 502.47 L 223.73 493.21 C 223.73 493.21 226.98 491.07 231.72 488.58 C 233.40 487.49 236.05 484.86 242.52 484.96 C 242.75 485.78 243.36 487.28 245.57 487.35 C 247.00 487.39 248.38 486.50 248.62 484.86 C 249.17 485.09 252.58 484.94 257.40 486.17 C 262.06 487.35 264.06 491.65 267.38 494.78 Z" fill="url(#SVGID_31_)" fill-rule="nonzero" group-id="39,46" node-id="517" stroke="none" target-height="43.549988" target-width="43.65001" target-x="223.73" target-y="484.86"></path></g></g></svg>