<?xml version="1.0" standalone="no"?><!DOCTYPE svg PUBLIC "-//W3C//DTD SVG 1.1//EN" "http://www.w3.org/Graphics/SVG/1.1/DTD/svg11.dtd"><svg height="800" node-id="1" sillyvg="true" template-height="800" template-width="800" version="1.1" viewBox="0 0 800 800" width="800" xmlns="http://www.w3.org/2000/svg" xmlns:xlink="http://www.w3.org/1999/xlink"><defs node-id="170"><linearGradient gradientUnits="objectBoundingBox" id="SVGID_1_" node-id="22" spreadMethod="pad" x1="256.7906" x2="256.7906" y1="416.3844" y2="319.5962"><stop offset="0.0000005358273" stop-color="#ffffff"></stop><stop offset="1" stop-color="#dbe3ee"></stop></linearGradient><linearGradient gradientUnits="objectBoundingBox" id="SVGID_2_" node-id="26" spreadMethod="pad" x1="192.1736" x2="192.1736" y1="474.3763" y2="257.8873"><stop offset="0.0000005358273" stop-color="#ffffff"></stop><stop offset="1" stop-color="#dbe3ee"></stop></linearGradient><linearGradient gradientUnits="objectBoundingBox" id="SVGID_3_" node-id="30" spreadMethod="pad" x1="567.9552" x2="567.9552" y1="431.6975" y2="275.2167"><stop offset="0.0000005358273" stop-color="#ffffff"></stop><stop offset="1" stop-color="#dbe3ee"></stop></linearGradient><linearGradient gradientUnits="objectBoundingBox" id="SVGID_4_" node-id="34" spreadMethod="pad" x1="630.48" x2="630.48" y1="454.3675" y2="284.6268"><stop offset="0.0000005358273" stop-color="#ffffff"></stop><stop offset="1" stop-color="#dbe3ee"></stop></linearGradient><linearGradient gradientUnits="objectBoundingBox" id="SVGID_5_" node-id="38" spreadMethod="pad" x1="121.7675" x2="121.7675" y1="496.446" y2="345.9326"><stop offset="0.0000005358273" stop-color="#ffffff"></stop><stop offset="1" stop-color="#edf1f9"></stop></linearGradient><linearGradient gradientUnits="objectBoundingBox" id="SVGID_6_" node-id="42" spreadMethod="pad" x1="684.4407" x2="684.4407" y1="479.8406" y2="356.7083"><stop offset="0.0000005358273" stop-color="#ffffff"></stop><stop offset="1" stop-color="#edf1f9"></stop></linearGradient><linearGradient gradientUnits="objectBoundingBox" id="SVGID_7_" node-id="46" spreadMethod="pad" x1="127.7311" x2="127.7311" y1="224.1387" y2="159.5974"><stop offset="0.2332" stop-color="#ffffff"></stop><stop offset="1" stop-color="#d3dfee"></stop></linearGradient><linearGradient gradientUnits="objectBoundingBox" id="SVGID_8_" node-id="50" spreadMethod="pad" x1="644.7996" x2="644.7996" y1="187.3183" y2="122.777"><stop offset="0.2332" stop-color="#ffffff"></stop><stop offset="1" stop-color="#d3dfee"></stop></linearGradient><linearGradient gradientUnits="objectBoundingBox" id="SVGID_9_" node-id="54" spreadMethod="pad" x1="515.0287" x2="515.0287" y1="230.4917" y2="183.7745"><stop offset="0.2332" stop-color="#ffffff"></stop><stop offset="1" stop-color="#d3dfee"></stop></linearGradient><linearGradient gradientUnits="objectBoundingBox" id="SVGID_10_" node-id="58" spreadMethod="pad" x1="401.246" x2="401.246" y1="746.0165" y2="393.8877"><stop offset="0.4065" stop-color="#ffffff"></stop><stop offset="1" stop-color="#dae4ef"></stop></linearGradient><linearGradient gradientUnits="objectBoundingBox" id="SVGID_11_" node-id="64" spreadMethod="pad" x1="192.1755" x2="140.7393" y1="569.4724" y2="508.173"><stop offset="0.4034" stop-color="#eff4f8"></stop><stop offset="1" stop-color="#d4dfec"></stop></linearGradient><linearGradient gradientUnits="objectBoundingBox" id="SVGID_12_" node-id="68" spreadMethod="pad" x1="113.1277" x2="177.3145" y1="449.182" y2="449.182"><stop offset="0.1022" stop-color="#f0f5f8"></stop><stop offset="1" stop-color="#b4c7dc"></stop></linearGradient><linearGradient gradientUnits="objectBoundingBox" id="SVGID_13_" node-id="74" spreadMethod="pad" x1="711.0376" x2="663.6722" y1="549.4998" y2="493.0518"><stop offset="0.4034" stop-color="#eff4f8"></stop><stop offset="1" stop-color="#d4dfec"></stop></linearGradient><linearGradient gradientUnits="objectBoundingBox" id="SVGID_14_" node-id="78" spreadMethod="pad" x1="638.2458" x2="697.3528" y1="438.7295" y2="438.7295"><stop offset="0.1022" stop-color="#f0f5f8"></stop><stop offset="1" stop-color="#b4c7dc"></stop></linearGradient><linearGradient gradientUnits="objectBoundingBox" id="SVGID_15_" node-id="84" spreadMethod="pad" x1="252.375" x2="226.9337" y1="450.329" y2="420.0093"><stop offset="0.0000001438503" stop-color="#eaeff6"></stop><stop offset="1" stop-color="#cddae9"></stop></linearGradient><linearGradient gradientUnits="objectBoundingBox" id="SVGID_16_" node-id="88" spreadMethod="pad" x1="213.2765" x2="245.0245" y1="390.8312" y2="390.8312"><stop offset="0.1022" stop-color="#f0f5f8"></stop><stop offset="1" stop-color="#b4c7dc"></stop></linearGradient><linearGradient gradientUnits="objectBoundingBox" id="SVGID_17_" node-id="94" spreadMethod="pad" x1="530.9274" x2="452.1107" y1="709.7521" y2="434.8854"><stop offset="0.1648" stop-color="#ffffff"></stop><stop offset="0.9362" stop-color="#bbcbe0"></stop></linearGradient><linearGradient gradientUnits="objectBoundingBox" id="SVGID_18_" node-id="98" spreadMethod="pad" x1="503.8955" x2="620.9971" y1="411.5834" y2="411.5834"><stop offset="0" stop-color="#eff3f9"></stop><stop offset="1" stop-color="#b6c9de"></stop></linearGradient><linearGradient gradientUnits="objectBoundingBox" id="SVGID_19_" node-id="102" spreadMethod="pad" x1="290.2388" x2="562.0688" y1="411.5834" y2="411.5834"><stop offset="0" stop-color="#eff3f9"></stop><stop offset="1" stop-color="#b6c9de"></stop></linearGradient><linearGradient gradientUnits="objectBoundingBox" id="SVGID_20_" node-id="106" spreadMethod="pad" x1="349.8223" x2="408.177" y1="276.7176" y2="276.7176"><stop offset="0" stop-color="#eff3f9"></stop><stop offset="1" stop-color="#b6c9de"></stop></linearGradient><linearGradient gradientUnits="objectBoundingBox" id="SVGID_21_" node-id="110" spreadMethod="pad" x1="426.5953" x2="513.1931" y1="261.6752" y2="261.6752"><stop offset="0" stop-color="#eff3f9"></stop><stop offset="1" stop-color="#b6c9de"></stop></linearGradient><linearGradient gradientUnits="objectBoundingBox" id="SVGID_22_" node-id="114" spreadMethod="pad" x1="393.3205" x2="468.4005" y1="411.5834" y2="411.5834"><stop offset="0" stop-color="#eff3f9"></stop><stop offset="1" stop-color="#d5dfed"></stop></linearGradient><linearGradient gradientUnits="objectBoundingBox" id="SVGID_23_" node-id="125" spreadMethod="pad" x1="263.5211" x2="263.5211" y1="489.4391" y2="453.1176"><stop offset="0" stop-color="#4ea2f4"></stop><stop offset="0.6903" stop-color="#1e77cf"></stop></linearGradient><linearGradient gradientUnits="objectBoundingBox" id="SVGID_24_" node-id="129" spreadMethod="pad" x1="266.9201" x2="278.8694" y1="493.9967" y2="446.9243"><stop offset="0" stop-color="#78c8ff"></stop><stop offset="0.6903" stop-color="#2a80e2"></stop></linearGradient><linearGradient gradientUnits="objectBoundingBox" id="SVGID_25_" node-id="135" spreadMethod="pad" x1="291.1511" x2="263.3874" y1="430.4013" y2="439.7652"><stop offset="0" stop-color="#f2a319"></stop><stop offset="0.4796" stop-color="#ffc552"></stop></linearGradient><linearGradient gradientUnits="objectBoundingBox" id="SVGID_26_" node-id="140" spreadMethod="pad" x1="7277.3467" x2="7290.9087" y1="2481.8806" y2="2481.592"><stop offset="0" stop-color="#f2a319"></stop><stop offset="0.4796" stop-color="#ffc552"></stop></linearGradient></defs><g node-id="456"><g node-id="482"><path d="M 271.25 323.00 L 271.25 319.59 L 241.75 319.59 L 241.75 323.55 L 235.27 323.55 L 235.27 416.38 L 278.32 416.38 L 278.32 323.00 L 271.25 323.00 Z M 274.59 405.74 L 238.55 405.74 L 238.55 402.99 L 274.59 402.99 L 274.59 405.74 Z M 274.59 393.06 L 238.55 393.06 L 238.55 390.31 L 274.59 390.31 L 274.59 393.06 Z M 274.59 380.39 L 238.55 380.39 L 238.55 377.64 L 274.59 377.64 L 274.59 380.39 Z M 274.59 368.04 L 238.55 368.04 L 238.55 365.29 L 274.59 365.29 L 274.59 368.04 Z M 274.59 355.73 L 238.55 355.73 L 238.55 352.98 L 274.59 352.98 L 274.59 355.73 Z M 274.59 343.05 L 238.55 343.05 L 238.55 340.30 L 274.59 340.30 L 274.59 343.05 Z M 274.59 330.71 L 238.55 330.71 L 238.55 327.96 L 274.59 327.96 L 274.59 330.71 Z" fill="url(#SVGID_1_)" fill-rule="nonzero" group-id="17,43" node-id="347" stroke="none" target-height="96.78998" target-width="43.050003" target-x="235.27" target-y="319.59"></path><path d="M 213.26 374.81 L 213.26 266.63 L 180.51 266.63 L 180.51 257.89 L 166.65 257.89 L 166.65 311.22 L 162.92 311.22 L 162.92 474.38 L 221.43 474.38 L 221.43 374.82 L 213.26 374.82 Z M 188.77 406.62 L 180.51 406.62 L 180.51 398.61 L 188.77 398.61 L 188.77 406.62 Z M 188.77 394.09 L 180.51 394.09 L 180.51 386.08 L 188.77 386.08 L 188.77 394.09 Z M 188.77 381.62 L 180.51 381.62 L 180.51 373.61 L 188.77 373.61 L 188.77 381.62 Z M 188.77 369.18 L 180.51 369.18 L 180.51 361.17 L 188.77 361.17 L 188.77 369.18 Z M 188.77 356.65 L 180.51 356.65 L 180.51 348.64 L 188.77 348.64 L 188.77 356.65 Z M 188.77 331.65 L 180.51 331.65 L 180.51 323.64 L 188.77 323.64 L 188.77 331.65 Z M 188.77 319.12 L 180.51 319.12 L 180.51 311.11 L 188.77 311.11 L 188.77 319.12 Z M 188.77 306.65 L 180.51 306.65 L 180.51 298.64 L 188.77 298.64 L 188.77 306.65 Z M 188.77 294.21 L 180.51 294.21 L 180.51 286.20 L 188.77 286.20 L 188.77 294.21 Z M 188.77 281.68 L 180.51 281.68 L 180.51 273.67 L 188.77 273.67 L 188.77 281.68 Z M 201.12 406.62 L 192.86 406.62 L 192.86 398.61 L 201.12 398.61 L 201.12 406.62 Z M 201.12 394.09 L 192.86 394.09 L 192.86 386.08 L 201.12 386.08 L 201.12 394.09 Z M 201.12 381.62 L 192.86 381.62 L 192.86 373.61 L 201.12 373.61 L 201.12 381.62 Z M 201.12 369.18 L 192.86 369.18 L 192.86 361.17 L 201.12 361.17 L 201.12 369.18 Z M 201.12 356.65 L 192.86 356.65 L 192.86 348.64 L 201.12 348.64 L 201.12 356.65 Z M 201.12 331.65 L 192.86 331.65 L 192.86 323.64 L 201.12 323.64 L 201.12 331.65 Z M 201.12 319.12 L 192.86 319.12 L 192.86 311.11 L 201.12 311.11 L 201.12 319.12 Z M 201.12 306.65 L 192.86 306.65 L 192.86 298.64 L 201.12 298.64 L 201.12 306.65 Z M 201.12 294.21 L 192.86 294.21 L 192.86 286.20 L 201.12 286.20 L 201.12 294.21 Z M 201.12 281.68 L 192.86 281.68 L 192.86 273.67 L 201.12 273.67 L 201.12 281.68 Z" fill="url(#SVGID_2_)" fill-rule="nonzero" group-id="17,43" node-id="349" stroke="none" target-height="216.48999" target-width="58.509995" target-x="162.92" target-y="257.89"></path><path d="M 535.57 431.70 C 535.93 427.05 535.57 275.22 535.57 275.22 L 554.10 275.22 L 554.10 308.93 L 583.60 308.93 L 583.60 379.38 L 600.33 379.38 L 600.33 431.70 L 535.57 431.70 Z" fill="url(#SVGID_3_)" fill-rule="nonzero" group-id="17,43" node-id="351" stroke="none" target-height="156.48001" target-width="64.76001" target-x="535.57" target-y="275.22"></path><path d="M 656.79 363.55 L 656.79 358.70 L 651.79 358.70 L 651.79 316.37 L 639.59 316.37 L 639.59 311.67 L 631.36 311.67 L 631.36 304.76 L 627.07 304.76 L 627.07 284.62 L 623.98 284.62 L 623.98 304.90 L 620.04 304.90 L 620.04 311.81 L 607.84 311.81 L 607.84 323.13 L 600.79 323.13 L 600.79 454.36 L 660.17 454.36 L 660.17 363.54 L 656.79 363.54 Z M 611.28 416.34 L 607.26 416.34 L 607.26 401.10 L 611.28 401.10 L 611.28 416.34 Z M 611.28 397.68 L 607.26 397.68 L 607.26 382.44 L 611.28 382.44 L 611.28 397.68 Z M 611.28 379.03 L 607.26 379.03 L 607.26 363.80 L 611.28 363.80 L 611.28 379.03 Z M 611.28 360.05 L 607.26 360.05 L 607.26 344.81 L 611.28 344.81 L 611.28 360.05 Z M 611.28 341.06 L 607.26 341.06 L 607.26 325.82 L 611.28 325.82 L 611.28 341.06 Z M 619.55 416.34 L 615.53 416.34 L 615.53 401.10 L 619.55 401.10 L 619.55 416.34 Z M 619.55 397.68 L 615.53 397.68 L 615.53 382.44 L 619.55 382.44 L 619.55 397.68 Z M 619.55 379.03 L 615.53 379.03 L 615.53 363.80 L 619.55 363.80 L 619.55 379.03 Z M 619.55 360.05 L 615.53 360.05 L 615.53 344.81 L 619.55 344.81 L 619.55 360.05 Z M 619.55 341.06 L 615.53 341.06 L 615.53 325.82 L 619.55 325.82 L 619.55 341.06 Z M 627.83 416.34 L 623.81 416.34 L 623.81 401.10 L 627.83 401.10 L 627.83 416.34 Z M 627.83 397.68 L 623.81 397.68 L 623.81 382.44 L 627.83 382.44 L 627.83 397.68 Z M 627.83 379.03 L 623.81 379.03 L 623.81 363.80 L 627.83 363.80 L 627.83 379.03 Z M 627.83 360.05 L 623.81 360.05 L 623.81 344.81 L 627.83 344.81 L 627.83 360.05 Z M 627.83 341.06 L 623.81 341.06 L 623.81 325.82 L 627.83 325.82 L 627.83 341.06 Z M 636.11 416.34 L 632.09 416.34 L 632.09 401.10 L 636.11 401.10 L 636.11 416.34 Z M 636.11 397.68 L 632.09 397.68 L 632.09 382.44 L 636.11 382.44 L 636.11 397.68 Z M 636.11 379.03 L 632.09 379.03 L 632.09 363.80 L 636.11 363.80 L 636.11 379.03 Z M 636.11 360.05 L 632.09 360.05 L 632.09 344.81 L 636.11 344.81 L 636.11 360.05 Z M 636.11 341.06 L 632.09 341.06 L 632.09 325.82 L 636.11 325.82 L 636.11 341.06 Z M 644.39 416.34 L 640.37 416.34 L 640.37 401.10 L 644.39 401.10 L 644.39 416.34 Z M 644.39 397.68 L 640.37 397.68 L 640.37 382.44 L 644.39 382.44 L 644.39 397.68 Z M 644.39 379.03 L 640.37 379.03 L 640.37 363.80 L 644.39 363.80 L 644.39 379.03 Z M 644.39 360.05 L 640.37 360.05 L 640.37 344.81 L 644.39 344.81 L 644.39 360.05 Z M 644.39 341.06 L 640.37 341.06 L 640.37 325.82 L 644.39 325.82 L 644.39 341.06 Z" fill="url(#SVGID_4_)" fill-rule="nonzero" group-id="17,43" node-id="353" stroke="none" target-height="169.73999" target-width="59.380005" target-x="600.79" target-y="284.62"></path><path d="M 95.14 496.45 L 95.14 406.90 L 105.40 406.90 L 105.40 361.21 L 140.66 345.93 L 140.66 406.18 L 148.39 406.18 L 148.39 496.45 Z" fill="url(#SVGID_5_)" fill-rule="nonzero" group-id="17,43" node-id="355" stroke="none" target-height="150.52008" target-width="53.249992" target-x="95.14001" target-y="345.92996"></path><path d="M 699.91 479.84 L 668.97 479.84 L 668.97 356.71 L 699.91 371.68 Z" fill="url(#SVGID_6_)" fill-rule="nonzero" group-id="17,43" node-id="357" stroke="none" target-height="123.130005" target-width="30.940002" target-x="668.97" target-y="356.71"></path><path d="M 89.96 183.03 C 89.96 183.03 99.30 157.55 122.26 167.55 C 127.56 162.17 134.12 158.26 142.99 160.02 C 151.86 161.79 157.58 168.43 159.52 172.85 C 162.30 172.72 184.56 173.46 184.56 196.55 C 184.56 219.64 157.62 219.20 155.67 217.37 C 153.27 219.51 141.73 231.12 127.73 217.87 C 124.70 220.46 114.80 231.43 99.15 216.29 C 91.90 219.32 74.67 221.65 71.33 203.86 C 67.99 186.07 85.12 181.05 89.96 183.03 Z" fill="url(#SVGID_7_)" fill-rule="nonzero" group-id="17,43" node-id="359" stroke="none" target-height="73.880005" target-width="116.57" target-x="67.99" target-y="157.55"></path><path d="M 607.03 146.21 C 607.03 146.21 616.37 120.73 639.33 130.73 C 644.63 125.35 651.19 121.44 660.06 123.20 C 668.93 124.97 674.65 131.61 676.59 136.03 C 679.37 135.90 701.63 136.64 701.63 159.73 C 701.63 182.82 674.69 182.38 672.74 180.55 C 670.34 182.69 658.80 194.30 644.80 181.05 C 641.77 183.64 631.87 194.61 616.22 179.47 C 608.97 182.50 591.74 184.83 588.40 167.04 C 585.06 149.26 602.19 144.23 607.03 146.21 Z" fill="url(#SVGID_8_)" fill-rule="nonzero" group-id="17,43" node-id="361" stroke="none" target-height="73.87999" target-width="116.56995" target-x="585.06" target-y="120.729996"></path><path d="M 487.69 200.74 C 487.69 200.74 494.45 182.29 511.07 189.54 C 514.91 185.64 519.65 182.81 526.08 184.09 C 532.50 185.37 536.64 190.18 538.04 193.37 C 540.05 193.28 556.17 193.81 556.17 210.52 C 556.17 227.23 536.67 226.91 535.26 225.59 C 533.52 227.14 525.17 235.54 515.03 225.96 C 512.84 227.83 505.67 235.78 494.35 224.82 C 489.10 227.01 476.63 228.70 474.21 215.82 C 471.79 202.94 484.19 199.31 487.69 200.74 Z" fill="url(#SVGID_9_)" fill-rule="nonzero" group-id="17,43" node-id="363" stroke="none" target-height="53.48999" target-width="84.379974" target-x="471.79" target-y="182.29001"></path><path d="M 772.23 569.95 C 772.23 616.64 733.14 661.43 663.57 694.44 C 594.00 727.46 499.64 746.01 401.25 746.01 C 302.86 746.01 208.50 727.46 138.93 694.44 C 69.36 661.43 30.27 616.64 30.27 569.95 C 30.27 523.26 69.36 478.47 138.93 445.46 C 208.50 412.44 302.86 393.89 401.25 393.89 C 499.64 393.89 594.00 412.44 663.57 445.46 C 733.14 478.47 772.23 523.26 772.23 569.95 Z" fill="url(#SVGID_10_)" fill-rule="nonzero" group-id="17,43" node-id="365" stroke="none" target-height="352.1201" target-width="741.9601" target-x="30.269987" target-y="393.88998"></path></g><g node-id="483"><g node-id="486"><path d="M 147.19 548.42 C 147.19 548.42 143.66 553.43 149.56 560.89 C 154.82 567.53 163.13 566.24 165.89 564.11 C 166.74 569.89 173.83 582.07 185.05 575.18 C 195.60 568.71 190.52 558.87 187.15 555.00 C 193.74 553.14 198.65 537.35 183.53 531.90 C 185.77 525.38 186.17 522.43 182.89 516.57 C 179.73 510.93 174.54 510.03 166.26 513.46 L 154.28 518.51 L 146.65 504.27 L 142.57 506.63 L 151.37 520.23 L 139.71 526.08 C 139.71 526.08 129.74 529.98 134.04 540.68 C 138.03 550.60 147.19 548.42 147.19 548.42 Z" fill="url(#SVGID_11_)" fill-rule="nonzero" group-id="17,44,47" node-id="371" stroke="none" target-height="77.80002" target-width="68.90999" target-x="129.74" target-y="504.27"></path><path d="M 126.90 487.70 L 162.96 487.70 C 162.96 487.70 174.61 488.03 176.93 474.72 C 179.48 460.11 168.85 458.10 168.85 458.10 C 168.85 458.10 175.25 455.16 173.86 444.11 C 172.47 433.06 162.74 431.67 158.69 432.18 C 159.35 425.63 160.73 410.80 145.33 410.65 C 130.46 410.50 130.55 425.47 131.66 431.37 C 126.36 431.43 110.35 439.38 121.61 456.82 C 115.48 462.07 112.89 465.10 113.16 472.67 C 113.42 480.25 118.06 487.70 126.90 487.70 Z" fill="url(#SVGID_12_)" fill-rule="nonzero" group-id="17,44,47" node-id="373" stroke="none" target-height="77.53" target-width="69.13" target-x="110.35" target-y="410.5"></path><path d="M 162.07 467.47 L 146.69 477.59 L 146.27 467.80 L 155.99 456.34 L 146.12 464.32 L 144.84 434.42 L 143.90 464.52 L 133.52 456.26 L 143.80 467.59 L 143.49 477.65 L 127.67 466.03 L 143.37 481.29 L 142.58 506.64 L 147.93 506.64 L 146.85 481.44 Z" fill="#c6d5e6" fill-rule="nonzero" group-id="17,44,47" node-id="375" stroke="none" target-height="72.22" target-width="34.40001" target-x="127.67" target-y="434.42"></path></g><g node-id="487"><path d="M 669.62 530.11 C 669.62 530.11 666.37 534.73 671.80 541.59 C 676.64 547.71 684.30 546.52 686.84 544.55 C 687.62 549.87 694.16 561.08 704.49 554.75 C 714.20 548.79 709.53 539.73 706.42 536.17 C 712.49 534.46 717.01 519.91 703.09 514.90 C 705.16 508.90 705.53 506.18 702.50 500.79 C 699.59 495.60 694.81 494.76 687.19 497.93 L 676.15 502.58 L 669.12 489.47 L 665.37 491.64 L 673.47 504.16 L 662.74 509.55 C 662.74 509.55 653.56 513.14 657.52 523.00 C 661.18 532.12 669.62 530.11 669.62 530.11 Z" fill="url(#SVGID_13_)" fill-rule="nonzero" group-id="17,44,48" node-id="380" stroke="none" target-height="71.610016" target-width="63.450073" target-x="653.56" target-y="489.47"></path><path d="M 650.92 474.20 L 684.12 474.20 C 684.12 474.20 694.85 474.51 696.98 462.25 C 699.32 448.80 689.54 446.95 689.54 446.95 C 689.54 446.95 695.44 444.24 694.15 434.07 C 692.86 423.90 683.91 422.61 680.18 423.09 C 680.79 417.06 682.06 403.40 667.88 403.26 C 654.19 403.12 654.27 416.90 655.29 422.34 C 650.41 422.39 635.66 429.71 646.04 445.78 C 640.40 450.61 638.01 453.41 638.26 460.37 C 638.52 467.34 642.79 474.20 650.92 474.20 Z" fill="url(#SVGID_14_)" fill-rule="nonzero" group-id="17,44,48" node-id="382" stroke="none" target-height="71.390015" target-width="63.660034" target-x="635.66" target-y="403.12"></path><path d="M 683.31 455.57 L 669.15 464.89 L 668.77 455.88 L 677.72 445.32 L 668.63 452.67 L 667.45 425.14 L 666.58 452.85 L 657.03 445.25 L 666.49 455.68 L 666.20 464.95 L 651.64 454.25 L 666.10 468.29 L 665.36 491.64 L 670.30 491.64 L 669.30 468.43 Z" fill="#c6d5e6" fill-rule="nonzero" group-id="17,44,48" node-id="384" stroke="none" target-height="66.5" target-width="31.669983" target-x="651.64" target-y="425.14"></path></g><g node-id="488"><path d="M 230.13 439.92 C 230.13 439.92 228.38 442.40 231.30 446.09 C 233.90 449.38 238.01 448.74 239.38 447.68 C 239.80 450.54 243.31 456.56 248.86 453.16 C 254.08 449.96 251.57 445.09 249.90 443.18 C 253.16 442.26 255.59 434.45 248.11 431.76 C 249.22 428.54 249.42 427.08 247.79 424.18 C 246.23 421.39 243.66 420.94 239.57 422.64 L 233.64 425.14 L 229.87 418.10 L 227.85 419.27 L 232.20 425.99 L 226.43 428.88 C 226.43 428.88 221.50 430.81 223.63 436.10 C 225.60 440.99 230.13 439.92 230.13 439.92 Z" fill="url(#SVGID_15_)" fill-rule="nonzero" group-id="17,44,49" node-id="389" stroke="none" target-height="38.45999" target-width="34.089996" target-x="221.5" target-y="418.1"></path><path d="M 220.09 409.88 L 237.92 409.88 C 237.92 409.88 243.68 410.04 244.83 403.46 C 246.09 396.23 240.83 395.24 240.83 395.24 C 240.83 395.24 244.00 393.78 243.31 388.32 C 242.62 382.86 237.81 382.17 235.81 382.42 C 236.14 379.18 236.82 371.84 229.20 371.77 C 221.84 371.70 221.89 379.10 222.44 382.02 C 219.82 382.05 211.90 385.98 217.47 394.61 C 214.44 397.20 213.15 398.71 213.29 402.45 C 213.42 406.20 215.72 409.88 220.09 409.88 Z" fill="url(#SVGID_16_)" fill-rule="nonzero" group-id="17,44,49" node-id="391" stroke="none" target-height="38.339966" target-width="34.190018" target-x="211.89998" target-y="371.7"></path><path d="M 237.48 399.88 L 229.88 404.88 L 229.67 400.04 L 234.48 394.37 L 229.60 398.32 L 228.96 383.53 L 228.50 398.42 L 223.36 394.33 L 228.45 399.93 L 228.29 404.91 L 220.47 399.17 L 228.24 406.71 L 227.84 419.25 L 230.49 419.25 L 229.96 406.79 Z" fill="#c6d5e6" fill-rule="nonzero" group-id="17,44,49" node-id="393" stroke="none" target-height="35.72" target-width="17.009995" target-x="220.47" target-y="383.53"></path></g></g><g node-id="484"><path d="M 556.46 491.47 L 294.09 488.71 L 364.38 590.47 L 273.88 500.36 L 264.31 494.08 L 256.81 490.89 L 248.94 494.90 L 460.69 729.89 L 724.94 617.82 Z" fill="url(#SVGID_17_)" fill-rule="nonzero" group-id="17,45" node-id="399" stroke="none" target-height="241.18002" target-width="476" target-x="248.94002" target-y="488.71"></path><path d="M 514.45 429.86 L 589.34 473.10 C 603.41 481.22 621.00 471.07 621.00 454.82 L 621.00 368.35 C 621.00 352.10 603.41 341.95 589.34 350.07 L 514.45 393.31 C 500.38 401.43 500.38 421.74 514.45 429.86 Z" fill="url(#SVGID_18_)" fill-rule="nonzero" group-id="17,45" node-id="401" stroke="none" target-height="139.26999" target-width="120.619995" target-x="500.38" target-y="341.95"></path><path d="M 532.13 503.97 L 320.18 503.97 C 303.64 503.97 290.24 490.56 290.24 474.03 L 290.24 349.14 C 290.24 332.60 303.65 319.20 320.18 319.20 L 532.12 319.20 C 548.66 319.20 562.06 332.61 562.06 349.14 L 562.06 474.03 C 562.07 490.57 548.66 503.97 532.13 503.97 Z" fill="url(#SVGID_19_)" fill-rule="nonzero" group-id="17,45" node-id="403" stroke="none" target-height="184.76999" target-width="271.83002" target-x="290.24" target-y="319.2"></path><path d="M 408.18 276.72 C 408.18 292.84 395.12 305.90 379.00 305.90 C 362.88 305.90 349.82 292.84 349.82 276.72 C 349.82 260.60 362.88 247.54 379.00 247.54 C 395.12 247.54 408.18 260.60 408.18 276.72 Z" fill="url(#SVGID_20_)" fill-rule="nonzero" group-id="17,45" node-id="405" stroke="none" target-height="58.36" target-width="58.359955" target-x="349.82004" target-y="247.54"></path><path d="M 513.19 261.68 C 513.19 285.59 493.80 304.98 469.89 304.98 C 445.98 304.98 426.59 285.59 426.59 261.68 C 426.59 237.77 445.98 218.38 469.89 218.38 C 493.80 218.38 513.19 237.77 513.19 261.68 Z" fill="url(#SVGID_21_)" fill-rule="nonzero" group-id="17,45" node-id="407" stroke="none" target-height="86.600006" target-width="86.599945" target-x="426.59006" target-y="218.37997"></path><path d="M 461.57 423.42 L 413.82 450.99 C 404.71 456.25 393.32 449.68 393.32 439.16 L 393.32 384.02 C 393.32 373.50 404.71 366.93 413.82 372.19 L 461.57 399.76 C 470.68 405.01 470.68 418.16 461.57 423.42 Z" fill="url(#SVGID_22_)" fill-rule="nonzero" group-id="17,45" node-id="409" stroke="none" target-height="89.32001" target-width="77.359985" target-x="393.32" target-y="366.93"></path></g><g node-id="485"><path d="M 258.16 487.23 C 258.16 487.23 258.71 488.07 256.81 490.89 C 259.39 491.95 262.91 491.08 262.91 491.08 L 263.00 486.22 L 258.16 487.23 Z" fill="#ffbe92" fill-rule="nonzero" group-id="17,46" node-id="414" stroke="none" target-height="5.7300415" target-width="6.1900024" target-x="256.81" target-y="486.21997"></path><path d="M 264.31 494.08 L 248.98 493.97 C 248.98 493.97 248.23 489.37 254.27 489.60 C 255.49 489.65 256.51 488.28 257.51 488.33 C 259.79 490.43 263.79 490.11 263.79 490.11 L 264.31 494.08 Z" fill="#f8b62d" fill-rule="nonzero" group-id="17,46" node-id="416" stroke="none" target-height="5.8000183" target-width="16.080002" target-x="248.23" target-y="488.27997"></path><path d="M 264.61 495.08 L 257.86 495.63 L 257.61 494.40 L 248.94 494.90 L 248.78 493.86 L 264.34 492.81 Z" fill="#e6e8e8" fill-rule="nonzero" group-id="17,46" node-id="418" stroke="none" target-height="2.8200073" target-width="15.829987" target-x="248.78" target-y="492.81"></path><path d="M 266.04 492.56 C 266.04 492.56 267.50 493.46 265.75 496.75 C 268.66 497.60 271.61 496.19 271.61 496.19 L 271.19 490.89 L 266.04 492.56 Z" fill="#ffbe92" fill-rule="nonzero" group-id="17,46" node-id="420" stroke="none" target-height="6.710022" target-width="5.8599854" target-x="265.75" target-y="490.88998"></path><path d="M 273.44 499.30 L 256.79 500.95 C 256.79 500.95 255.49 496.03 262.06 495.58 C 263.39 495.49 264.35 493.89 265.44 493.82 C 268.14 495.84 272.45 495.03 272.45 495.03 L 273.44 499.30 Z" fill="#f8b62d" fill-rule="nonzero" group-id="17,46" node-id="422" stroke="none" target-height="7.1299744" target-width="17.949997" target-x="255.49" target-y="493.82004"></path><path d="M 273.88 500.36 L 266.61 501.74 L 266.22 500.43 L 256.86 501.97 L 256.57 500.85 L 273.34 497.91 Z" fill="#e6e8e8" fill-rule="nonzero" group-id="17,46" node-id="424" stroke="none" target-height="4.0599976" target-width="17.309998" target-x="256.57" target-y="497.91"></path><path d="M 269.12 453.12 C 269.12 453.12 260.40 463.57 259.91 469.47 C 259.48 474.55 257.92 489.44 257.92 489.44 L 263.23 489.44 L 265.22 475.77 L 269.12 453.12 Z" fill="url(#SVGID_23_)" fill-rule="nonzero" group-id="17,46" node-id="426" stroke="none" target-height="36.320007" target-width="11.199982" target-x="257.92" target-y="453.12"></path><path d="M 271.95 447.61 C 271.95 447.61 261.03 460.59 262.62 470.29 C 264.31 480.61 266.45 493.88 266.45 493.88 L 271.72 494.07 C 271.72 494.07 270.70 479.92 270.81 473.70 C 270.93 466.61 277.64 462.60 279.18 461.85 C 281.19 460.87 289.68 456.62 288.83 451.53 C 287.98 446.44 271.95 447.61 271.95 447.61 Z" fill="url(#SVGID_24_)" fill-rule="nonzero" group-id="17,46" node-id="428" stroke="none" target-height="47.630005" target-width="28.649994" target-x="261.03" target-y="446.44"></path><path d="M 263.27 411.71 C 263.27 411.71 263.62 415.57 268.14 418.07 C 269.08 418.48 270.78 419.13 271.59 416.72 C 271.70 416.56 271.99 416.68 272.20 416.84 C 272.41 417.00 275.90 419.92 275.90 419.92 L 280.66 415.61 C 280.66 415.61 270.93 409.38 269.49 407.72 C 268.74 406.87 266.53 406.23 264.70 407.75 C 262.87 409.29 263.27 411.71 263.27 411.71 Z" fill="#ffbe92" fill-rule="nonzero" group-id="17,46" node-id="430" stroke="none" target-height="13.689972" target-width="17.790009" target-x="262.87" target-y="406.23"></path><path d="M 261.18 407.37 C 261.18 407.37 259.87 406.90 259.15 408.78 C 258.43 410.65 260.13 411.24 260.45 411.49 C 260.76 411.74 260.79 412.13 260.25 412.33 C 259.71 412.53 258.91 413.05 259.25 414.39 C 259.59 415.72 262.77 417.15 264.10 415.50 C 265.43 413.85 265.48 412.35 265.53 411.27 C 265.57 410.20 266.03 408.54 266.80 409.06 C 267.57 409.58 268.81 411.02 268.93 410.53 C 269.04 410.07 267.56 408.79 268.42 408.00 C 269.28 407.21 270.34 408.51 270.39 409.69 C 270.41 410.19 270.38 410.13 270.72 410.34 C 271.07 410.55 271.23 410.77 271.85 410.83 C 272.48 410.89 272.78 410.96 272.58 410.22 C 272.38 409.49 271.99 408.09 269.89 406.31 C 269.26 405.84 269.41 405.64 269.41 405.05 C 269.41 404.46 269.38 403.57 268.28 403.24 C 267.18 402.91 266.86 403.37 266.34 403.89 C 265.82 404.40 265.67 404.19 265.37 403.87 C 265.07 403.56 263.56 402.69 262.51 403.68 C 261.47 404.67 261.56 405.69 261.76 406.45 C 261.96 407.21 261.50 407.38 261.18 407.37 Z" fill="#171c61" fill-rule="nonzero" group-id="17,46" node-id="432" stroke="none" target-height="14.459991" target-width="14.350006" target-x="258.43" target-y="402.69"></path><path d="M 288.66 423.02 C 288.66 423.02 284.95 411.76 275.20 412.01 C 274.00 414.33 269.98 422.10 271.95 429.82 C 273.34 435.45 273.34 435.68 273.86 439.32 C 274.39 442.96 264.90 452.73 268.44 453.02 C 270.76 453.21 280.69 456.24 283.17 454.92 C 286.29 453.25 290.39 457.47 290.25 452.08 C 290.13 447.49 291.28 431.87 288.66 423.02 Z" fill="url(#SVGID_25_)" fill-rule="nonzero" group-id="17,46" node-id="434" stroke="none" target-height="45.70996" target-width="26.380005" target-x="264.9" target-y="411.76004"></path><path d="M 284.68 421.60 C 284.68 421.60 292.98 429.35 292.87 431.27 C 292.76 433.19 290.58 440.12 290.58 441.37 C 290.58 442.63 290.63 444.98 290.47 445.93 C 290.31 446.88 288.29 443.00 288.56 440.55 C 288.83 438.09 289.60 431.88 288.51 431.28 C 287.42 430.68 281.19 425.48 281.19 425.48 L 284.68 421.60 Z" fill="#ffbe92" fill-rule="nonzero" group-id="17,46" node-id="436" stroke="none" target-height="25.279999" target-width="11.790009" target-x="281.19" target-y="421.6"></path><path d="M 286.43 421.78 L 280.86 429.44 C 280.86 429.44 271.73 422.51 276.39 417.39 C 281.06 412.27 286.43 421.78 286.43 421.78 Z" fill="url(#SVGID_26_)" fill-rule="nonzero" group-id="17,46" node-id="438" stroke="none" target-height="17.170013" target-width="14.699982" target-x="271.73" target-y="412.27"></path></g></g></svg>