<?xml version="1.0" standalone="no"?><!DOCTYPE svg PUBLIC "-//W3C//DTD SVG 1.1//EN" "http://www.w3.org/Graphics/SVG/1.1/DTD/svg11.dtd"><svg height="800" node-id="1" sillyvg="true" template-height="800" template-width="800" version="1.1" viewBox="0 0 800 800" width="800" xmlns="http://www.w3.org/2000/svg" xmlns:xlink="http://www.w3.org/1999/xlink"><defs node-id="172"><linearGradient gradientUnits="objectBoundingBox" id="SVGID_1_" node-id="11" spreadMethod="pad" x1="254.8268" x2="254.8268" y1="429.5166" y2="332.7283"><stop offset="0.0000005358273" stop-color="#ffffff"></stop><stop offset="1" stop-color="#dbe3ee"></stop></linearGradient><linearGradient gradientUnits="objectBoundingBox" id="SVGID_2_" node-id="15" spreadMethod="pad" x1="190.2099" x2="190.2099" y1="487.5085" y2="271.0195"><stop offset="0.0000005358273" stop-color="#ffffff"></stop><stop offset="1" stop-color="#dbe3ee"></stop></linearGradient><linearGradient gradientUnits="objectBoundingBox" id="SVGID_3_" node-id="19" spreadMethod="pad" x1="565.9915" x2="565.9915" y1="444.8296" y2="288.3488"><stop offset="0.0000005358273" stop-color="#ffffff"></stop><stop offset="1" stop-color="#dbe3ee"></stop></linearGradient><linearGradient gradientUnits="objectBoundingBox" id="SVGID_4_" node-id="23" spreadMethod="pad" x1="628.5163" x2="628.5163" y1="467.4996" y2="297.759"><stop offset="0.0000005358273" stop-color="#ffffff"></stop><stop offset="1" stop-color="#dbe3ee"></stop></linearGradient><linearGradient gradientUnits="objectBoundingBox" id="SVGID_5_" node-id="27" spreadMethod="pad" x1="119.8037" x2="119.8037" y1="509.5781" y2="359.0647"><stop offset="0.0000005358273" stop-color="#ffffff"></stop><stop offset="1" stop-color="#edf1f9"></stop></linearGradient><linearGradient gradientUnits="objectBoundingBox" id="SVGID_6_" node-id="31" spreadMethod="pad" x1="682.4769" x2="682.4769" y1="492.9727" y2="369.8405"><stop offset="0.0000005358273" stop-color="#ffffff"></stop><stop offset="1" stop-color="#edf1f9"></stop></linearGradient><linearGradient gradientUnits="objectBoundingBox" id="SVGID_7_" node-id="35" spreadMethod="pad" x1="125.7674" x2="125.7674" y1="237.2708" y2="172.7296"><stop offset="0.2332" stop-color="#ffffff"></stop><stop offset="1" stop-color="#d3dfee"></stop></linearGradient><linearGradient gradientUnits="objectBoundingBox" id="SVGID_8_" node-id="39" spreadMethod="pad" x1="642.8358" x2="642.8358" y1="200.4504" y2="135.9091"><stop offset="0.2332" stop-color="#ffffff"></stop><stop offset="1" stop-color="#d3dfee"></stop></linearGradient><linearGradient gradientUnits="objectBoundingBox" id="SVGID_9_" node-id="43" spreadMethod="pad" x1="513.0649" x2="513.0649" y1="243.6239" y2="196.9066"><stop offset="0.2332" stop-color="#ffffff"></stop><stop offset="1" stop-color="#d3dfee"></stop></linearGradient><linearGradient gradientUnits="objectBoundingBox" id="SVGID_10_" node-id="47" spreadMethod="pad" x1="399.2822" x2="399.2822" y1="759.1487" y2="407.0198"><stop offset="0.4065" stop-color="#ffffff"></stop><stop offset="1" stop-color="#dae4ef"></stop></linearGradient><linearGradient gradientUnits="objectBoundingBox" id="SVGID_11_" node-id="53" spreadMethod="pad" x1="190.2117" x2="138.7755" y1="582.6045" y2="521.3052"><stop offset="0.4034" stop-color="#eff4f8"></stop><stop offset="1" stop-color="#d4dfec"></stop></linearGradient><linearGradient gradientUnits="objectBoundingBox" id="SVGID_12_" node-id="57" spreadMethod="pad" x1="111.1639" x2="175.3508" y1="462.3141" y2="462.3141"><stop offset="0.1022" stop-color="#f0f5f8"></stop><stop offset="1" stop-color="#b4c7dc"></stop></linearGradient><linearGradient gradientUnits="objectBoundingBox" id="SVGID_13_" node-id="63" spreadMethod="pad" x1="709.0739" x2="661.7084" y1="562.6319" y2="506.184"><stop offset="0.4034" stop-color="#eff4f8"></stop><stop offset="1" stop-color="#d4dfec"></stop></linearGradient><linearGradient gradientUnits="objectBoundingBox" id="SVGID_14_" node-id="67" spreadMethod="pad" x1="636.2821" x2="695.389" y1="451.8617" y2="451.8617"><stop offset="0.1022" stop-color="#f0f5f8"></stop><stop offset="1" stop-color="#b4c7dc"></stop></linearGradient><linearGradient gradientUnits="objectBoundingBox" id="SVGID_15_" node-id="73" spreadMethod="pad" x1="250.4113" x2="224.97" y1="463.4612" y2="433.1414"><stop offset="0.0000001438503" stop-color="#eaeff6"></stop><stop offset="1" stop-color="#cddae9"></stop></linearGradient><linearGradient gradientUnits="objectBoundingBox" id="SVGID_16_" node-id="77" spreadMethod="pad" x1="211.3128" x2="243.0607" y1="403.9634" y2="403.9634"><stop offset="0.1022" stop-color="#f0f5f8"></stop><stop offset="1" stop-color="#b4c7dc"></stop></linearGradient><linearGradient gradientUnits="objectBoundingBox" id="SVGID_17_" node-id="83" spreadMethod="pad" x1="514.4612" x2="468.0024" y1="681.2097" y2="442.1996"><stop offset="0.1887" stop-color="#ffffff"></stop><stop offset="1" stop-color="#bbcbe0"></stop></linearGradient><linearGradient gradientUnits="objectBoundingBox" id="SVGID_18_" node-id="88" spreadMethod="pad" x1="407.204" x2="407.204" y1="426.4307" y2="217.4294"><stop offset="0" stop-color="#eff3f9"></stop><stop offset="1" stop-color="#b6c9de"></stop></linearGradient><linearGradient gradientUnits="objectBoundingBox" id="SVGID_19_" node-id="92" spreadMethod="pad" x1="557.6683" x2="283.1236" y1="353.4067" y2="352.947"><stop offset="0.0000005327789" stop-color="#cedaea"></stop><stop offset="1" stop-color="#ffffff"></stop></linearGradient><linearGradient gradientUnits="objectBoundingBox" id="SVGID_20_" node-id="96" spreadMethod="pad" x1="408.6754" x2="408.6754" y1="248.8662" y2="470.8191"><stop offset="0" stop-color="#eff3f9"></stop><stop offset="1" stop-color="#b6c9de"></stop></linearGradient><linearGradient gradientUnits="objectBoundingBox" id="SVGID_21_" node-id="101" spreadMethod="pad" x1="318.7617" x2="502.5953" y1="366.5031" y2="366.5031"><stop offset="0.0000004424263" stop-color="#f7fafb"></stop><stop offset="1" stop-color="#d5e0ee"></stop></linearGradient><linearGradient gradientUnits="objectBoundingBox" id="SVGID_22_" node-id="105" spreadMethod="pad" x1="407.204" x2="407.204" y1="487.3692" y2="313.0998"><stop offset="0" stop-color="#eff3f9"></stop><stop offset="1" stop-color="#b6c9de"></stop></linearGradient><linearGradient gradientUnits="objectBoundingBox" id="SVGID_23_" node-id="109" spreadMethod="pad" x1="407.204" x2="407.204" y1="387.2774" y2="487.3692"><stop offset="0" stop-color="#eff3f9"></stop><stop offset="1" stop-color="#b6c9de"></stop></linearGradient><linearGradient gradientUnits="objectBoundingBox" id="SVGID_24_" node-id="116" spreadMethod="pad" x1="444.3539" x2="469.8678" y1="393.6825" y2="393.6825"><stop offset="0.0000004424263" stop-color="#f7fafb"></stop><stop offset="1" stop-color="#cfdbea"></stop></linearGradient><linearGradient gradientUnits="objectBoundingBox" id="SVGID_25_" node-id="126" spreadMethod="pad" x1="473.4745" x2="450.7563" y1="548.1612" y2="485.7436"><stop offset="0" stop-color="#78c8ff"></stop><stop offset="0.6903" stop-color="#2a80e2"></stop></linearGradient><linearGradient gradientUnits="objectBoundingBox" id="SVGID_26_" node-id="131" spreadMethod="pad" x1="460.3901" x2="460.3901" y1="492.8961" y2="443.6975"><stop offset="0" stop-color="#f2a319"></stop><stop offset="0.4796" stop-color="#ffc552"></stop></linearGradient></defs><g node-id="440"><g node-id="477"><path d="M 269.28 336.13 L 269.28 332.72 L 239.78 332.72 L 239.78 336.68 L 233.30 336.68 L 233.30 429.51 L 276.35 429.51 L 276.35 336.13 L 269.28 336.13 Z M 272.62 418.87 L 236.58 418.87 L 236.58 416.12 L 272.62 416.12 L 272.62 418.87 Z M 272.62 406.19 L 236.58 406.19 L 236.58 403.44 L 272.62 403.44 L 272.62 406.19 Z M 272.62 393.52 L 236.58 393.52 L 236.58 390.77 L 272.62 390.77 L 272.62 393.52 Z M 272.62 381.18 L 236.58 381.18 L 236.58 378.43 L 272.62 378.43 L 272.62 381.18 Z M 272.62 368.86 L 236.58 368.86 L 236.58 366.11 L 272.62 366.11 L 272.62 368.86 Z M 272.62 356.19 L 236.58 356.19 L 236.58 353.44 L 272.62 353.44 L 272.62 356.19 Z M 272.62 343.84 L 236.58 343.84 L 236.58 341.09 L 272.62 341.09 L 272.62 343.84 Z" fill="url(#SVGID_1_)" fill-rule="nonzero" group-id="6,43" node-id="338" stroke="none" target-height="96.79001" target-width="43.050003" target-x="233.3" target-y="332.72"></path><path d="M 211.30 387.95 L 211.30 279.76 L 178.55 279.76 L 178.55 271.02 L 164.69 271.02 L 164.69 324.35 L 160.96 324.35 L 160.96 487.51 L 219.47 487.51 L 219.47 387.95 L 211.30 387.95 Z M 186.80 419.75 L 178.54 419.75 L 178.54 411.74 L 186.80 411.74 L 186.80 419.75 Z M 186.80 407.23 L 178.54 407.23 L 178.54 399.22 L 186.80 399.22 L 186.80 407.23 Z M 186.80 394.75 L 178.54 394.75 L 178.54 386.74 L 186.80 386.74 L 186.80 394.75 Z M 186.80 382.31 L 178.54 382.31 L 178.54 374.30 L 186.80 374.30 L 186.80 382.31 Z M 186.80 369.78 L 178.54 369.78 L 178.54 361.77 L 186.80 361.77 L 186.80 369.78 Z M 186.80 344.78 L 178.54 344.78 L 178.54 336.77 L 186.80 336.77 L 186.80 344.78 Z M 186.80 332.25 L 178.54 332.25 L 178.54 324.24 L 186.80 324.24 L 186.80 332.25 Z M 186.80 319.78 L 178.54 319.78 L 178.54 311.77 L 186.80 311.77 L 186.80 319.78 Z M 186.80 307.34 L 178.54 307.34 L 178.54 299.33 L 186.80 299.33 L 186.80 307.34 Z M 186.80 294.81 L 178.54 294.81 L 178.54 286.80 L 186.80 286.80 L 186.80 294.81 Z M 199.15 419.75 L 190.89 419.75 L 190.89 411.74 L 199.15 411.74 L 199.15 419.75 Z M 199.15 407.23 L 190.89 407.23 L 190.89 399.22 L 199.15 399.22 L 199.15 407.23 Z M 199.15 394.75 L 190.89 394.75 L 190.89 386.74 L 199.15 386.74 L 199.15 394.75 Z M 199.15 382.31 L 190.89 382.31 L 190.89 374.30 L 199.15 374.30 L 199.15 382.31 Z M 199.15 369.78 L 190.89 369.78 L 190.89 361.77 L 199.15 361.77 L 199.15 369.78 Z M 199.15 344.78 L 190.89 344.78 L 190.89 336.77 L 199.15 336.77 L 199.15 344.78 Z M 199.15 332.25 L 190.89 332.25 L 190.89 324.24 L 199.15 324.24 L 199.15 332.25 Z M 199.15 319.78 L 190.89 319.78 L 190.89 311.77 L 199.15 311.77 L 199.15 319.78 Z M 199.15 307.34 L 190.89 307.34 L 190.89 299.33 L 199.15 299.33 L 199.15 307.34 Z M 199.15 294.81 L 190.89 294.81 L 190.89 286.80 L 199.15 286.80 L 199.15 294.81 Z" fill="url(#SVGID_2_)" fill-rule="nonzero" group-id="6,43" node-id="340" stroke="none" target-height="216.49002" target-width="58.509995" target-x="160.96" target-y="271.02"></path><path d="M 533.61 444.83 C 533.97 440.18 533.61 288.35 533.61 288.35 L 552.14 288.35 L 552.14 322.06 L 581.64 322.06 L 581.64 392.51 L 598.37 392.51 L 598.37 444.83 L 533.61 444.83 Z" fill="url(#SVGID_3_)" fill-rule="nonzero" group-id="6,43" node-id="342" stroke="none" target-height="156.47998" target-width="64.76001" target-x="533.61" target-y="288.35"></path><path d="M 654.82 376.68 L 654.82 371.83 L 649.82 371.83 L 649.82 329.50 L 637.62 329.50 L 637.62 324.80 L 629.39 324.80 L 629.39 317.89 L 625.10 317.89 L 625.10 297.75 L 622.01 297.75 L 622.01 318.03 L 618.07 318.03 L 618.07 324.94 L 605.87 324.94 L 605.87 336.26 L 598.82 336.26 L 598.82 467.50 L 658.20 467.50 L 658.20 376.68 L 654.82 376.68 Z M 609.31 429.47 L 605.29 429.47 L 605.29 414.23 L 609.31 414.23 L 609.31 429.47 Z M 609.31 410.82 L 605.29 410.82 L 605.29 395.58 L 609.31 395.58 L 609.31 410.82 Z M 609.31 392.17 L 605.29 392.17 L 605.29 376.93 L 609.31 376.93 L 609.31 392.17 Z M 609.31 373.18 L 605.29 373.18 L 605.29 357.94 L 609.31 357.94 L 609.31 373.18 Z M 609.31 354.20 L 605.29 354.20 L 605.29 338.96 L 609.31 338.96 L 609.31 354.20 Z M 617.59 429.47 L 613.57 429.47 L 613.57 414.23 L 617.59 414.23 L 617.59 429.47 Z M 617.59 410.82 L 613.57 410.82 L 613.57 395.58 L 617.59 395.58 L 617.59 410.82 Z M 617.59 392.17 L 613.57 392.17 L 613.57 376.93 L 617.59 376.93 L 617.59 392.17 Z M 617.59 373.18 L 613.57 373.18 L 613.57 357.94 L 617.59 357.94 L 617.59 373.18 Z M 617.59 354.20 L 613.57 354.20 L 613.57 338.96 L 617.59 338.96 L 617.59 354.20 Z M 625.87 429.47 L 621.85 429.47 L 621.85 414.23 L 625.87 414.23 L 625.87 429.47 Z M 625.87 410.82 L 621.85 410.82 L 621.85 395.58 L 625.87 395.58 L 625.87 410.82 Z M 625.87 392.17 L 621.85 392.17 L 621.85 376.93 L 625.87 376.93 L 625.87 392.17 Z M 625.87 373.18 L 621.85 373.18 L 621.85 357.94 L 625.87 357.94 L 625.87 373.18 Z M 625.87 354.20 L 621.85 354.20 L 621.85 338.96 L 625.87 338.96 L 625.87 354.20 Z M 634.15 429.47 L 630.13 429.47 L 630.13 414.23 L 634.15 414.23 L 634.15 429.47 Z M 634.15 410.82 L 630.13 410.82 L 630.13 395.58 L 634.15 395.58 L 634.15 410.82 Z M 634.15 392.17 L 630.13 392.17 L 630.13 376.93 L 634.15 376.93 L 634.15 392.17 Z M 634.15 373.18 L 630.13 373.18 L 630.13 357.94 L 634.15 357.94 L 634.15 373.18 Z M 634.15 354.20 L 630.13 354.20 L 630.13 338.96 L 634.15 338.96 L 634.15 354.20 Z M 642.43 429.47 L 638.41 429.47 L 638.41 414.23 L 642.43 414.23 L 642.43 429.47 Z M 642.43 410.82 L 638.41 410.82 L 638.41 395.58 L 642.43 395.58 L 642.43 410.82 Z M 642.43 392.17 L 638.41 392.17 L 638.41 376.93 L 642.43 376.93 L 642.43 392.17 Z M 642.43 373.18 L 638.41 373.18 L 638.41 357.94 L 642.43 357.94 L 642.43 373.18 Z M 642.43 354.20 L 638.41 354.20 L 638.41 338.96 L 642.43 338.96 L 642.43 354.20 Z" fill="url(#SVGID_4_)" fill-rule="nonzero" group-id="6,43" node-id="344" stroke="none" target-height="169.75" target-width="59.380005" target-x="598.82" target-y="297.75"></path><path d="M 93.18 509.58 L 93.18 420.03 L 103.43 420.03 L 103.43 374.34 L 138.69 359.06 L 138.69 419.31 L 146.43 419.31 L 146.43 509.58 Z" fill="url(#SVGID_5_)" fill-rule="nonzero" group-id="6,43" node-id="346" stroke="none" target-height="150.51999" target-width="53.25" target-x="93.17999" target-y="359.06"></path><path d="M 697.95 492.97 L 667.01 492.97 L 667.01 369.84 L 697.95 384.81 Z" fill="url(#SVGID_6_)" fill-rule="nonzero" group-id="6,43" node-id="348" stroke="none" target-height="123.129974" target-width="30.940063" target-x="667.01" target-y="369.84"></path><path d="M 88.00 196.16 C 88.00 196.16 97.34 170.68 120.30 180.68 C 125.60 175.30 132.16 171.39 141.03 173.15 C 149.90 174.92 155.62 181.56 157.56 185.98 C 160.34 185.85 182.60 186.59 182.60 209.68 C 182.60 232.77 155.66 232.33 153.71 230.50 C 151.31 232.64 139.77 244.25 125.77 231.00 C 122.74 233.59 112.84 244.56 97.19 229.42 C 89.94 232.45 72.71 234.78 69.37 216.99 C 66.02 199.21 83.16 194.19 88.00 196.16 Z" fill="url(#SVGID_7_)" fill-rule="nonzero" group-id="6,43" node-id="350" stroke="none" target-height="73.880005" target-width="116.58001" target-x="66.02" target-y="170.68"></path><path d="M 605.07 159.34 C 605.07 159.34 614.41 133.86 637.37 143.86 C 642.67 138.48 649.23 134.57 658.10 136.33 C 666.97 138.10 672.69 144.74 674.63 149.16 C 677.41 149.03 699.67 149.77 699.67 172.86 C 699.67 195.95 672.73 195.51 670.78 193.68 C 668.38 195.82 656.84 207.43 642.84 194.18 C 639.81 196.77 629.91 207.74 614.26 192.60 C 607.01 195.63 589.78 197.96 586.44 180.17 C 583.09 162.39 600.23 157.37 605.07 159.34 Z" fill="url(#SVGID_8_)" fill-rule="nonzero" group-id="6,43" node-id="352" stroke="none" target-height="73.880005" target-width="116.579956" target-x="583.09" target-y="133.86"></path><path d="M 485.73 213.87 C 485.73 213.87 492.49 195.42 509.11 202.67 C 512.95 198.77 517.69 195.94 524.12 197.22 C 530.54 198.50 534.68 203.31 536.08 206.50 C 538.09 206.41 554.21 206.94 554.21 223.65 C 554.21 240.36 534.71 240.04 533.30 238.72 C 531.56 240.27 523.21 248.67 513.07 239.09 C 510.88 240.96 503.71 248.91 492.39 237.95 C 487.14 240.14 474.67 241.83 472.25 228.95 C 469.82 216.08 482.22 212.44 485.73 213.87 Z" fill="url(#SVGID_9_)" fill-rule="nonzero" group-id="6,43" node-id="354" stroke="none" target-height="53.490005" target-width="84.390015" target-x="469.82" target-y="195.42"></path><path d="M 770.26 583.08 C 770.26 629.77 731.17 674.56 661.60 707.57 C 592.03 740.59 497.67 759.14 399.28 759.14 C 300.89 759.14 206.53 740.59 136.96 707.57 C 67.39 674.56 28.30 629.77 28.30 583.08 C 28.30 536.39 67.39 491.60 136.96 458.59 C 206.53 425.57 300.89 407.02 399.28 407.02 C 497.67 407.02 592.03 425.57 661.60 458.59 C 731.17 491.60 770.26 536.39 770.26 583.08 Z" fill="url(#SVGID_10_)" fill-rule="nonzero" group-id="6,43" node-id="356" stroke="none" target-height="352.12" target-width="741.96" target-x="28.299988" target-y="407.02002"></path></g><g node-id="478"><g node-id="481"><path d="M 145.23 561.55 C 145.23 561.55 141.70 566.56 147.60 574.02 C 152.86 580.66 161.17 579.37 163.93 577.24 C 164.78 583.02 171.87 595.20 183.09 588.31 C 193.64 581.84 188.56 572.00 185.19 568.13 C 191.78 566.27 196.69 550.48 181.57 545.03 C 183.81 538.51 184.21 535.56 180.93 529.70 C 177.77 524.06 172.58 523.16 164.30 526.59 L 152.32 531.64 L 144.69 517.40 L 140.61 519.76 L 149.41 533.36 L 137.75 539.21 C 137.75 539.21 127.78 543.11 132.08 553.81 C 136.07 563.73 145.23 561.55 145.23 561.55 Z" fill="url(#SVGID_11_)" fill-rule="nonzero" group-id="6,44,47" node-id="362" stroke="none" target-height="77.79999" target-width="68.909996" target-x="127.78001" target-y="517.4"></path><path d="M 124.93 500.84 L 160.99 500.84 C 160.99 500.84 172.64 501.17 174.96 487.86 C 177.51 473.25 166.88 471.24 166.88 471.24 C 166.88 471.24 173.28 468.30 171.89 457.25 C 170.50 446.20 160.77 444.81 156.72 445.32 C 157.38 438.77 158.76 423.94 143.36 423.79 C 128.49 423.64 128.58 438.61 129.69 444.51 C 124.39 444.57 108.38 452.52 119.64 469.96 C 113.51 475.21 110.92 478.24 111.19 485.81 C 111.46 493.38 116.10 500.84 124.93 500.84 Z" fill="url(#SVGID_12_)" fill-rule="nonzero" group-id="6,44,47" node-id="364" stroke="none" target-height="77.53" target-width="69.13" target-x="108.38" target-y="423.64"></path><path d="M 160.10 480.60 L 144.73 490.72 L 144.31 480.93 L 154.03 469.47 L 144.16 477.46 L 142.88 447.55 L 141.93 477.65 L 131.56 469.39 L 141.84 480.72 L 141.52 490.79 L 125.71 479.16 L 141.41 494.42 L 140.61 519.77 L 145.97 519.77 L 144.89 494.57 Z" fill="#c6d5e6" fill-rule="nonzero" group-id="6,44,47" node-id="366" stroke="none" target-height="72.22006" target-width="34.390007" target-x="125.71" target-y="447.54996"></path></g><g node-id="482"><path d="M 667.65 543.25 C 667.65 543.25 664.40 547.87 669.83 554.73 C 674.67 560.85 682.33 559.66 684.87 557.69 C 685.65 563.01 692.19 574.22 702.52 567.89 C 712.23 561.93 707.56 552.87 704.45 549.31 C 710.52 547.60 715.04 533.05 701.12 528.04 C 703.19 522.04 703.56 519.32 700.53 513.93 C 697.62 508.74 692.84 507.90 685.22 511.07 L 674.18 515.72 L 667.15 502.61 L 663.40 504.78 L 671.50 517.30 L 660.77 522.69 C 660.77 522.69 651.59 526.28 655.55 536.14 C 659.22 545.25 667.65 543.25 667.65 543.25 Z" fill="url(#SVGID_13_)" fill-rule="nonzero" group-id="6,44,48" node-id="371" stroke="none" target-height="71.609955" target-width="63.44995" target-x="651.59" target-y="502.61002"></path><path d="M 648.96 487.33 L 682.16 487.33 C 682.16 487.33 692.89 487.64 695.02 475.38 C 697.36 461.93 687.58 460.08 687.58 460.08 C 687.58 460.08 693.48 457.37 692.19 447.20 C 690.90 437.03 681.95 435.74 678.22 436.22 C 678.83 430.19 680.10 416.53 665.92 416.39 C 652.23 416.25 652.31 430.03 653.33 435.47 C 648.45 435.52 633.70 442.84 644.08 458.91 C 638.44 463.74 636.05 466.54 636.30 473.50 C 636.55 480.47 640.83 487.33 648.96 487.33 Z" fill="url(#SVGID_14_)" fill-rule="nonzero" group-id="6,44,48" node-id="373" stroke="none" target-height="71.389984" target-width="63.659973" target-x="633.7" target-y="416.25003"></path><path d="M 681.35 468.70 L 667.19 478.02 L 666.80 469.01 L 675.76 458.45 L 666.66 465.80 L 665.49 438.27 L 664.62 465.98 L 655.06 458.38 L 664.53 468.81 L 664.24 478.08 L 649.67 467.38 L 664.13 481.43 L 663.40 504.77 L 668.33 504.77 L 667.34 481.57 Z" fill="#c6d5e6" fill-rule="nonzero" group-id="6,44,48" node-id="375" stroke="none" target-height="66.5" target-width="31.679993" target-x="649.67" target-y="438.27"></path></g><g node-id="483"><path d="M 228.16 453.05 C 228.16 453.05 226.41 455.53 229.33 459.22 C 231.93 462.51 236.04 461.87 237.41 460.81 C 237.83 463.67 241.34 469.69 246.89 466.29 C 252.11 463.09 249.60 458.22 247.93 456.31 C 251.19 455.39 253.62 447.58 246.14 444.89 C 247.25 441.67 247.45 440.21 245.82 437.31 C 244.26 434.52 241.69 434.07 237.60 435.77 L 231.67 438.27 L 227.90 431.23 L 225.88 432.40 L 230.23 439.12 L 224.46 442.01 C 224.46 442.01 219.53 443.94 221.66 449.23 C 223.63 454.12 228.16 453.05 228.16 453.05 Z" fill="url(#SVGID_15_)" fill-rule="nonzero" group-id="6,44,49" node-id="380" stroke="none" target-height="38.460022" target-width="34.089996" target-x="219.53" target-y="431.22998"></path><path d="M 218.12 423.02 L 235.95 423.02 C 235.95 423.02 241.71 423.18 242.86 416.60 C 244.12 409.37 238.86 408.38 238.86 408.38 C 238.86 408.38 242.03 406.92 241.34 401.46 C 240.65 396.00 235.84 395.31 233.84 395.56 C 234.17 392.32 234.85 384.98 227.23 384.91 C 219.87 384.84 219.92 392.24 220.47 395.16 C 217.85 395.19 209.93 399.12 215.50 407.75 C 212.47 410.34 211.18 411.85 211.32 415.59 C 211.46 419.33 213.75 423.02 218.12 423.02 Z" fill="url(#SVGID_16_)" fill-rule="nonzero" group-id="6,44,49" node-id="382" stroke="none" target-height="38.339996" target-width="34.190002" target-x="209.93" target-y="384.84"></path><path d="M 235.52 413.01 L 227.91 418.01 L 227.71 413.17 L 232.52 407.50 L 227.63 411.45 L 227.00 396.66 L 226.53 411.55 L 221.40 407.46 L 226.48 413.07 L 226.33 418.05 L 218.51 412.30 L 226.27 419.84 L 225.88 432.38 L 228.53 432.38 L 227.99 419.92 Z" fill="#c6d5e6" fill-rule="nonzero" group-id="6,44,49" node-id="384" stroke="none" target-height="35.71997" target-width="17.01001" target-x="218.51" target-y="396.66"></path></g></g><g node-id="479"><path d="M 552.94 482.35 L 714.26 606.40 L 410.68 701.38 L 261.47 482.35 L 426.26 463.94 Z" fill="url(#SVGID_17_)" fill-rule="nonzero" group-id="6,45" node-id="389" stroke="none" target-height="237.44" target-width="452.79" target-x="261.47" target-y="463.94"></path><g node-id="484"><path d="M 254.08 426.43 L 560.33 426.43 L 560.33 313.10 L 427.06 223.53 C 414.95 215.39 399.45 215.39 387.34 223.53 L 254.08 313.10 L 254.08 426.43 Z" fill="url(#SVGID_18_)" fill-rule="nonzero" group-id="6,45,50" node-id="393" stroke="none" target-height="211.03996" target-width="306.25" target-x="254.08" target-y="215.39"></path><path d="M 534.87 411.09 L 324.63 466.01 C 316.24 468.20 307.76 462.85 305.68 454.06 L 272.16 321.65 C 270.08 312.86 275.55 302.16 285.31 299.81 L 493.15 245.90 C 501.54 243.71 512.63 248.91 514.71 257.70 L 546.30 391.21 C 548.37 400.00 543.26 408.90 534.87 411.09 Z" fill="url(#SVGID_19_)" fill-rule="nonzero" group-id="6,45,50" node-id="395" stroke="none" target-height="224.49" target-width="278.29" target-x="270.08" target-y="243.71"></path><path d="M 533.19 415.55 L 323.49 470.34 C 315.13 472.53 306.66 467.17 304.58 458.38 L 272.78 324.01 C 270.70 315.22 275.79 306.33 284.16 304.14 L 493.86 249.35 C 502.22 247.16 510.69 252.52 512.77 261.31 L 544.57 395.68 C 546.65 404.46 541.55 413.36 533.19 415.55 Z" fill="url(#SVGID_20_)" fill-rule="nonzero" group-id="6,45,50" node-id="397" stroke="none" target-height="225.36998" target-width="275.95" target-x="270.7" target-y="247.16002"></path><path d="M 358.41 350.00 L 313.74 358.87 L 309.21 333.70 L 353.88 324.82 Z" fill="#ffffff" fill-rule="nonzero" group-id="6,45,50" node-id="399" stroke="none" target-height="34.049957" target-width="49.200012" target-x="309.21" target-y="324.82"></path><path d="M 502.60 352.89 L 321.53 393.68 L 318.76 380.12 L 499.83 339.32 Z" fill="url(#SVGID_21_)" fill-rule="nonzero" group-id="6,45,50" node-id="401" stroke="none" target-height="54.359985" target-width="183.84" target-x="318.76" target-y="339.32"></path><path d="M 539.76 487.37 L 274.65 487.37 C 263.29 487.37 254.08 477.69 254.08 465.76 L 254.08 313.10 L 407.20 448.95 L 560.33 313.10 L 560.33 465.76 C 560.33 477.69 551.12 487.37 539.76 487.37 Z" fill="url(#SVGID_22_)" fill-rule="nonzero" group-id="6,45,50" node-id="403" stroke="none" target-height="174.27002" target-width="306.25" target-x="254.08" target-y="313.1"></path><path d="M 274.65 487.37 L 539.77 487.37 C 544.79 487.37 549.38 485.48 552.95 482.35 L 418.05 390.64 C 411.46 386.16 402.97 386.16 396.38 390.64 L 261.48 482.35 C 265.04 485.48 269.63 487.37 274.65 487.37 Z" fill="url(#SVGID_23_)" fill-rule="nonzero" group-id="6,45,50" node-id="405" stroke="none" target-height="101.21005" target-width="291.47" target-x="261.48" target-y="386.15997"></path></g></g><g node-id="480"><path d="M 456.59 436.00 L 454.25 436.95 C 454.25 436.95 453.43 438.34 453.77 441.33 C 454.12 444.32 455.68 445.46 456.03 446.56 C 456.38 447.66 456.16 451.87 456.16 451.87 L 462.36 451.87 L 462.62 445.97 C 462.62 445.97 464.02 444.21 464.48 442.99 C 464.94 441.78 465.87 439.78 465.55 438.83 C 465.23 437.88 461.13 434.21 456.59 436.00 Z" fill="#ffbe92" fill-rule="nonzero" group-id="6,46" node-id="411" stroke="none" target-height="17.660004" target-width="12.440002" target-x="453.43" target-y="434.21"></path><path d="M 459.48 432.94 C 459.48 432.94 460.48 431.13 461.27 432.11 C 462.06 433.09 462.56 433.58 463.47 433.37 C 464.38 433.15 466.17 433.35 465.53 435.02 C 464.89 436.69 465.50 436.84 465.75 437.29 C 465.90 437.57 467.00 438.51 466.26 439.72 C 465.53 440.91 464.50 440.47 464.68 441.60 C 464.86 442.73 464.44 443.73 463.77 444.08 C 463.12 444.42 463.28 445.03 463.40 445.38 C 463.52 445.72 463.15 446.84 462.05 446.44 C 460.95 446.04 459.97 445.89 459.11 446.28 C 458.24 446.67 454.66 446.90 455.42 445.30 C 456.12 443.84 455.15 443.54 454.50 442.89 C 453.85 442.24 453.32 441.12 453.67 440.00 C 453.87 439.36 454.15 437.83 453.37 436.87 C 452.57 435.88 453.95 433.17 454.86 433.27 C 455.77 433.37 457.02 430.78 459.48 432.94 Z" fill="#171c61" fill-rule="nonzero" group-id="6,46" node-id="413" stroke="none" target-height="16.119965" target-width="14.430023" target-x="452.56998" target-y="430.78"></path><path d="M 469.87 393.68 C 469.87 397.06 468.53 400.31 466.13 402.70 C 463.74 405.10 460.49 406.44 457.11 406.44 C 453.73 406.44 450.48 405.10 448.09 402.70 C 445.69 400.31 444.35 397.06 444.35 393.68 C 444.35 390.30 445.69 387.05 448.09 384.66 C 450.48 382.26 453.73 380.92 457.11 380.92 C 460.49 380.92 463.74 382.26 466.13 384.66 C 468.53 387.05 469.87 390.30 469.87 393.68 Z" fill="url(#SVGID_24_)" fill-rule="nonzero" group-id="6,46" node-id="415" stroke="none" target-height="25.52005" target-width="25.519989" target-x="444.34998" target-y="380.91998"></path><path d="M 475.20 424.12 L 465.78 405.87 C 469.53 403.17 471.99 398.77 471.99 393.80 C 471.99 385.60 465.32 378.92 457.11 378.92 C 448.90 378.92 442.23 385.60 442.23 393.80 C 442.23 402.00 448.90 408.68 457.11 408.68 C 458.66 408.68 460.15 408.44 461.56 408.00 L 471.00 426.28 C 471.42 427.09 472.25 427.56 473.10 427.56 C 473.46 427.56 473.84 427.47 474.18 427.30 C 475.34 426.70 475.80 425.28 475.20 424.12 Z M 445.38 393.80 C 445.38 387.33 450.64 382.07 457.11 382.07 C 463.58 382.07 468.84 387.33 468.84 393.80 C 468.84 400.27 463.58 405.53 457.11 405.53 C 450.64 405.53 445.38 400.27 445.38 393.80 Z" fill="#75bcef" fill-rule="nonzero" group-id="6,46" node-id="417" stroke="none" target-height="48.640015" target-width="33.569977" target-x="442.23" target-y="378.92"></path><path d="M 441.21 465.27 C 441.21 465.27 438.84 475.39 444.62 476.14 C 450.40 476.89 454.28 462.61 454.28 462.61 L 454.28 456.13 L 443.70 458.39 L 441.21 465.27 Z" fill="#ffbe92" fill-rule="nonzero" group-id="6,46" node-id="419" stroke="none" target-height="20.76007" target-width="15.440002" target-x="438.84" target-y="456.12997"></path><path d="M 467.94 538.60 C 467.94 538.60 463.82 537.38 463.75 541.09 C 464.49 544.44 465.16 545.58 465.13 547.15 C 465.10 548.72 466.58 551.23 469.79 551.66 C 473.00 552.09 474.43 549.57 473.32 546.04 C 472.21 542.50 471.83 539.27 467.94 538.60 Z" fill="#f8b62d" fill-rule="nonzero" group-id="6,46" node-id="421" stroke="none" target-height="14.710022" target-width="10.679993" target-x="463.74997" target-y="537.38"></path><path d="M 463.84 540.28 C 463.84 540.28 464.31 543.03 464.80 543.98 C 465.29 544.93 465.60 546.18 465.85 547.22 C 466.10 548.26 466.62 550.76 470.40 550.89 C 472.72 550.80 473.68 549.69 473.67 548.71 C 473.66 549.35 473.78 550.33 473.31 550.95 C 472.79 551.62 471.63 551.90 470.36 551.91 C 467.89 551.93 466.09 551.33 465.10 547.94 C 464.92 546.55 464.83 545.49 464.57 544.67 C 464.30 543.86 463.37 541.26 463.84 540.28 Z" fill="#e6e8e8" fill-rule="nonzero" group-id="6,46" node-id="423" stroke="none" target-height="11.649963" target-width="10.410034" target-x="463.37" target-y="540.28"></path><path d="M 454.42 538.76 C 454.42 538.76 449.42 537.66 449.42 541.22 C 449.65 544.37 450.18 545.78 450.15 547.34 C 450.12 548.90 451.60 551.42 454.81 551.85 C 458.02 552.28 459.45 549.76 458.34 546.23 C 457.23 542.69 458.30 539.43 454.42 538.76 Z" fill="#f8b62d" fill-rule="nonzero" group-id="6,46" node-id="425" stroke="none" target-height="14.620056" target-width="10.029999" target-x="449.42" target-y="537.66"></path><path d="M 450.00 539.52 C 450.00 539.52 449.13 540.77 450.07 544.19 C 450.39 545.21 450.63 546.36 450.87 547.41 C 451.12 548.45 451.64 550.95 455.42 551.08 C 457.74 550.99 458.70 549.88 458.69 548.90 C 458.68 549.54 458.86 550.37 458.39 550.99 C 457.87 551.66 456.66 552.09 455.39 552.10 C 452.92 552.12 451.12 551.52 450.13 548.13 C 449.95 546.74 449.86 545.68 449.60 544.86 C 449.32 544.05 448.94 540.26 450.00 539.52 Z" fill="#e6e8e8" fill-rule="nonzero" group-id="6,46" node-id="427" stroke="none" target-height="12.599976" target-width="9.919983" target-x="448.94" target-y="539.52"></path><path d="M 450.77 485.74 C 450.77 485.74 448.17 492.02 448.86 502.93 C 449.55 513.84 452.75 548.71 452.75 548.71 L 457.71 548.71 L 461.53 500.75 L 467.38 548.71 L 471.98 548.71 C 471.98 548.71 476.28 490.42 471.43 485.74 C 463.08 485.74 450.77 485.74 450.77 485.74 Z" fill="url(#SVGID_25_)" fill-rule="nonzero" group-id="6,46" node-id="429" stroke="none" target-height="62.970062" target-width="28.109985" target-x="448.17" target-y="485.73996"></path><path d="M 465.36 415.84 C 465.36 415.84 465.53 418.67 466.92 419.66 C 468.31 420.64 469.00 422.20 469.58 423.25 C 470.16 424.29 472.55 429.14 473.01 429.83 C 473.47 430.52 474.34 432.32 473.94 434.51 C 473.54 436.71 469.26 446.94 468.97 447.69 C 469.78 450.06 474.69 456.25 474.69 456.25 C 474.69 456.25 482.44 439.13 482.15 433.58 C 481.86 428.03 476.75 424.28 473.40 419.37 C 472.24 418.04 472.30 416.83 472.42 416.07 C 472.54 415.32 472.50 410.65 468.69 409.18 C 466.39 408.29 467.56 412.84 467.91 413.47 C 468.26 414.11 468.95 417.05 466.64 415.72 C 465.83 415.09 465.27 415.09 465.36 415.84 Z" fill="#ffbe92" fill-rule="nonzero" group-id="6,46" node-id="431" stroke="none" target-height="47.95999" target-width="17.169983" target-x="465.27002" target-y="408.29"></path><path d="M 469.17 443.70 L 479.66 448.27 C 479.66 448.27 476.25 455.79 474.69 459.14 C 474.29 460.64 472.76 465.79 472.88 467.93 C 473.00 470.07 476.23 490.46 472.82 491.73 C 469.41 493.00 451.78 493.13 449.18 492.61 C 446.58 492.09 447.67 474.17 448.65 468.79 C 449.26 464.57 449.17 463.47 449.17 463.47 L 447.52 467.72 L 441.13 464.96 C 441.13 464.96 442.42 452.80 447.31 451.11 C 451.82 449.55 453.42 449.41 453.77 449.24 C 454.38 448.63 457.50 448.24 458.93 448.24 C 460.36 448.24 462.66 448.20 464.35 449.11 C 465.25 449.51 467.49 448.21 469.17 443.70 Z" fill="url(#SVGID_26_)" fill-rule="nonzero" group-id="6,46" node-id="433" stroke="none" target-height="49.429993" target-width="38.52997" target-x="441.13004" target-y="443.7"></path></g></g></svg>