<?xml version="1.0" standalone="no"?><!DOCTYPE svg PUBLIC "-//W3C//DTD SVG 1.1//EN" "http://www.w3.org/Graphics/SVG/1.1/DTD/svg11.dtd"><svg height="800" node-id="1" sillyvg="true" template-height="800" template-width="800" version="1.1" viewBox="0 0 800 800" width="800" xmlns="http://www.w3.org/2000/svg" xmlns:xlink="http://www.w3.org/1999/xlink"><defs node-id="173"><linearGradient gradientUnits="objectBoundingBox" id="SVGID_1_" node-id="14" spreadMethod="pad" x1="255.5862" x2="255.5862" y1="426.1587" y2="329.3705"><stop offset="0.0000005358273" stop-color="#ffffff"></stop><stop offset="1" stop-color="#dbe3ee"></stop></linearGradient><linearGradient gradientUnits="objectBoundingBox" id="SVGID_2_" node-id="18" spreadMethod="pad" x1="190.9693" x2="190.9693" y1="484.1506" y2="267.6616"><stop offset="0.0000005358273" stop-color="#ffffff"></stop><stop offset="1" stop-color="#dbe3ee"></stop></linearGradient><linearGradient gradientUnits="objectBoundingBox" id="SVGID_3_" node-id="22" spreadMethod="pad" x1="566.7509" x2="566.7509" y1="441.4717" y2="284.991"><stop offset="0.0000005358273" stop-color="#ffffff"></stop><stop offset="1" stop-color="#dbe3ee"></stop></linearGradient><linearGradient gradientUnits="objectBoundingBox" id="SVGID_4_" node-id="26" spreadMethod="pad" x1="629.2757" x2="629.2757" y1="464.1417" y2="294.4011"><stop offset="0.0000005358273" stop-color="#ffffff"></stop><stop offset="1" stop-color="#dbe3ee"></stop></linearGradient><linearGradient gradientUnits="objectBoundingBox" id="SVGID_5_" node-id="30" spreadMethod="pad" x1="120.5632" x2="120.5632" y1="506.2202" y2="355.7068"><stop offset="0.0000005358273" stop-color="#ffffff"></stop><stop offset="1" stop-color="#edf1f9"></stop></linearGradient><linearGradient gradientUnits="objectBoundingBox" id="SVGID_6_" node-id="34" spreadMethod="pad" x1="683.2363" x2="683.2363" y1="489.6148" y2="366.4826"><stop offset="0.0000005358273" stop-color="#ffffff"></stop><stop offset="1" stop-color="#edf1f9"></stop></linearGradient><linearGradient gradientUnits="objectBoundingBox" id="SVGID_7_" node-id="38" spreadMethod="pad" x1="126.5268" x2="126.5268" y1="233.9129" y2="169.3717"><stop offset="0.2332" stop-color="#ffffff"></stop><stop offset="1" stop-color="#d3dfee"></stop></linearGradient><linearGradient gradientUnits="objectBoundingBox" id="SVGID_8_" node-id="42" spreadMethod="pad" x1="643.5953" x2="643.5953" y1="197.0925" y2="132.5513"><stop offset="0.2332" stop-color="#ffffff"></stop><stop offset="1" stop-color="#d3dfee"></stop></linearGradient><linearGradient gradientUnits="objectBoundingBox" id="SVGID_9_" node-id="46" spreadMethod="pad" x1="513.8243" x2="513.8243" y1="240.266" y2="193.5488"><stop offset="0.2332" stop-color="#ffffff"></stop><stop offset="1" stop-color="#d3dfee"></stop></linearGradient><linearGradient gradientUnits="objectBoundingBox" id="SVGID_10_" node-id="50" spreadMethod="pad" x1="400.0416" x2="400.0416" y1="755.7908" y2="403.6619"><stop offset="0.4065" stop-color="#ffffff"></stop><stop offset="1" stop-color="#dae4ef"></stop></linearGradient><linearGradient gradientUnits="objectBoundingBox" id="SVGID_11_" node-id="56" spreadMethod="pad" x1="190.9712" x2="139.5349" y1="579.2466" y2="517.9473"><stop offset="0.4034" stop-color="#eff4f8"></stop><stop offset="1" stop-color="#d4dfec"></stop></linearGradient><linearGradient gradientUnits="objectBoundingBox" id="SVGID_12_" node-id="60" spreadMethod="pad" x1="111.9234" x2="176.1102" y1="458.9563" y2="458.9563"><stop offset="0.1022" stop-color="#f0f5f8"></stop><stop offset="1" stop-color="#b4c7dc"></stop></linearGradient><linearGradient gradientUnits="objectBoundingBox" id="SVGID_13_" node-id="66" spreadMethod="pad" x1="709.8333" x2="662.4678" y1="559.274" y2="502.8261"><stop offset="0.4034" stop-color="#eff4f8"></stop><stop offset="1" stop-color="#d4dfec"></stop></linearGradient><linearGradient gradientUnits="objectBoundingBox" id="SVGID_14_" node-id="70" spreadMethod="pad" x1="637.0415" x2="696.1484" y1="448.5038" y2="448.5038"><stop offset="0.1022" stop-color="#f0f5f8"></stop><stop offset="1" stop-color="#b4c7dc"></stop></linearGradient><linearGradient gradientUnits="objectBoundingBox" id="SVGID_15_" node-id="76" spreadMethod="pad" x1="251.1707" x2="225.7294" y1="460.1033" y2="429.7835"><stop offset="0.0000001438503" stop-color="#eaeff6"></stop><stop offset="1" stop-color="#cddae9"></stop></linearGradient><linearGradient gradientUnits="objectBoundingBox" id="SVGID_16_" node-id="80" spreadMethod="pad" x1="212.0722" x2="243.8202" y1="400.6055" y2="400.6055"><stop offset="0.1022" stop-color="#f0f5f8"></stop><stop offset="1" stop-color="#b4c7dc"></stop></linearGradient><linearGradient gradientUnits="objectBoundingBox" id="SVGID_17_" node-id="86" spreadMethod="pad" x1="527.9703" x2="455.895" y1="708.4512" y2="457.0948"><stop offset="0.1887" stop-color="#ffffff"></stop><stop offset="1" stop-color="#bbcbe0"></stop></linearGradient><linearGradient gradientUnits="objectBoundingBox" id="SVGID_18_" node-id="90" spreadMethod="pad" x1="264.8584" x2="560.6429" y1="412.6717" y2="412.6717"><stop offset="0" stop-color="#dde5f0"></stop><stop offset="1" stop-color="#9fb7ce"></stop></linearGradient><linearGradient gradientUnits="objectBoundingBox" id="SVGID_19_" node-id="94" spreadMethod="pad" x1="546.0043" x2="560.6429" y1="423.0945" y2="423.0945"><stop offset="0" stop-color="#eff3f9"></stop><stop offset="1" stop-color="#b6c9de"></stop></linearGradient><linearGradient gradientUnits="objectBoundingBox" id="SVGID_20_" node-id="98" spreadMethod="pad" x1="369.0192" x2="542.3521" y1="341.2912" y2="341.2912"><stop offset="0" stop-color="#eff3f9"></stop><stop offset="1" stop-color="#b6c9de"></stop></linearGradient><linearGradient gradientUnits="objectBoundingBox" id="SVGID_21_" node-id="102" spreadMethod="pad" x1="430.5006" x2="430.5006" y1="422.08" y2="245.6464"><stop offset="0" stop-color="#eff3f9"></stop><stop offset="1" stop-color="#b6c9de"></stop></linearGradient><linearGradient gradientUnits="objectBoundingBox" id="SVGID_22_" node-id="106" spreadMethod="pad" x1="409.2008" x2="476.6866" y1="296.4685" y2="296.4685"><stop offset="0" stop-color="#eff3f9"></stop><stop offset="1" stop-color="#b6c9de"></stop></linearGradient><linearGradient gradientUnits="objectBoundingBox" id="SVGID_23_" node-id="110" spreadMethod="pad" x1="264.8584" x2="546.0043" y1="419.7757" y2="419.7757"><stop offset="0" stop-color="#eff3f9"></stop><stop offset="1" stop-color="#b6c9de"></stop></linearGradient><linearGradient gradientUnits="objectBoundingBox" id="SVGID_24_" node-id="114" spreadMethod="pad" x1="434.4932" x2="546.0043" y1="427.3102" y2="427.3102"><stop offset="0" stop-color="#bdcde2"></stop><stop offset="1" stop-color="#9fb3cc"></stop></linearGradient><linearGradient gradientUnits="objectBoundingBox" id="SVGID_25_" node-id="118" spreadMethod="pad" x1="449.5622" x2="467.6451" y1="427.3102" y2="427.3102"><stop offset="0" stop-color="#eff3f9"></stop><stop offset="1" stop-color="#b6c9de"></stop></linearGradient><linearGradient gradientUnits="objectBoundingBox" id="SVGID_26_" node-id="129" spreadMethod="pad" x1="408.9443" x2="386.9762" y1="555.663" y2="495.3061"><stop offset="0" stop-color="#78c8ff"></stop><stop offset="0.6903" stop-color="#2a80e2"></stop></linearGradient><linearGradient gradientUnits="objectBoundingBox" id="SVGID_27_" node-id="135" spreadMethod="pad" x1="395.5743" x2="395.5743" y1="502.1913" y2="454.648"><stop offset="0" stop-color="#f2a319"></stop><stop offset="0.4796" stop-color="#ffc552"></stop></linearGradient></defs><g node-id="449"><g node-id="483"><path d="M 270.04 332.78 L 270.04 329.37 L 240.54 329.37 L 240.54 333.33 L 234.06 333.33 L 234.06 426.16 L 277.11 426.16 L 277.11 332.78 L 270.04 332.78 Z M 273.38 415.51 L 237.34 415.51 L 237.34 412.76 L 273.38 412.76 L 273.38 415.51 Z M 273.38 402.84 L 237.34 402.84 L 237.34 400.09 L 273.38 400.09 L 273.38 402.84 Z M 273.38 390.16 L 237.34 390.16 L 237.34 387.41 L 273.38 387.41 L 273.38 390.16 Z M 273.38 377.82 L 237.34 377.82 L 237.34 375.07 L 273.38 375.07 L 273.38 377.82 Z M 273.38 365.50 L 237.34 365.50 L 237.34 362.75 L 273.38 362.75 L 273.38 365.50 Z M 273.38 352.83 L 237.34 352.83 L 237.34 350.08 L 273.38 350.08 L 273.38 352.83 Z M 273.38 340.48 L 237.34 340.48 L 237.34 337.73 L 273.38 337.73 L 273.38 340.48 Z" fill="url(#SVGID_1_)" fill-rule="nonzero" group-id="9,43" node-id="348" stroke="none" target-height="96.79001" target-width="43.049988" target-x="234.06" target-y="329.37"></path><path d="M 212.06 384.59 L 212.06 276.40 L 179.31 276.40 L 179.31 267.66 L 165.45 267.66 L 165.45 320.99 L 161.72 320.99 L 161.72 484.15 L 220.23 484.15 L 220.23 384.59 L 212.06 384.59 Z M 187.56 416.40 L 179.30 416.40 L 179.30 408.39 L 187.56 408.39 L 187.56 416.40 Z M 187.56 403.87 L 179.30 403.87 L 179.30 395.86 L 187.56 395.86 L 187.56 403.87 Z M 187.56 391.39 L 179.30 391.39 L 179.30 383.38 L 187.56 383.38 L 187.56 391.39 Z M 187.56 378.96 L 179.30 378.96 L 179.30 370.95 L 187.56 370.95 L 187.56 378.96 Z M 187.56 366.42 L 179.30 366.42 L 179.30 358.41 L 187.56 358.41 L 187.56 366.42 Z M 187.56 341.42 L 179.30 341.42 L 179.30 333.41 L 187.56 333.41 L 187.56 341.42 Z M 187.56 328.89 L 179.30 328.89 L 179.30 320.88 L 187.56 320.88 L 187.56 328.89 Z M 187.56 316.42 L 179.30 316.42 L 179.30 308.41 L 187.56 308.41 L 187.56 316.42 Z M 187.56 303.98 L 179.30 303.98 L 179.30 295.97 L 187.56 295.97 L 187.56 303.98 Z M 187.56 291.45 L 179.30 291.45 L 179.30 283.44 L 187.56 283.44 L 187.56 291.45 Z M 199.91 416.40 L 191.65 416.40 L 191.65 408.39 L 199.91 408.39 L 199.91 416.40 Z M 199.91 403.87 L 191.65 403.87 L 191.65 395.86 L 199.91 395.86 L 199.91 403.87 Z M 199.91 391.39 L 191.65 391.39 L 191.65 383.38 L 199.91 383.38 L 199.91 391.39 Z M 199.91 378.96 L 191.65 378.96 L 191.65 370.95 L 199.91 370.95 L 199.91 378.96 Z M 199.91 366.42 L 191.65 366.42 L 191.65 358.41 L 199.91 358.41 L 199.91 366.42 Z M 199.91 341.42 L 191.65 341.42 L 191.65 333.41 L 199.91 333.41 L 199.91 341.42 Z M 199.91 328.89 L 191.65 328.89 L 191.65 320.88 L 199.91 320.88 L 199.91 328.89 Z M 199.91 316.42 L 191.65 316.42 L 191.65 308.41 L 199.91 308.41 L 199.91 316.42 Z M 199.91 303.98 L 191.65 303.98 L 191.65 295.97 L 199.91 295.97 L 199.91 303.98 Z M 199.91 291.45 L 191.65 291.45 L 191.65 283.44 L 199.91 283.44 L 199.91 291.45 Z" fill="url(#SVGID_2_)" fill-rule="nonzero" group-id="9,43" node-id="350" stroke="none" target-height="216.48999" target-width="58.509995" target-x="161.72" target-y="267.66"></path><path d="M 534.37 441.47 C 534.73 436.82 534.37 284.99 534.37 284.99 L 552.90 284.99 L 552.90 318.70 L 582.40 318.70 L 582.40 389.15 L 599.13 389.15 L 599.13 441.47 L 534.37 441.47 Z" fill="url(#SVGID_3_)" fill-rule="nonzero" group-id="9,43" node-id="352" stroke="none" target-height="156.48001" target-width="64.76001" target-x="534.37" target-y="284.99"></path><path d="M 655.58 373.33 L 655.58 368.48 L 650.58 368.48 L 650.58 326.15 L 638.38 326.15 L 638.38 321.45 L 630.15 321.45 L 630.15 314.54 L 625.86 314.54 L 625.86 294.40 L 622.77 294.40 L 622.77 314.68 L 618.83 314.68 L 618.83 321.59 L 606.63 321.59 L 606.63 332.91 L 599.58 332.91 L 599.58 464.14 L 658.96 464.14 L 658.96 373.32 L 655.58 373.32 Z M 610.07 426.11 L 606.05 426.11 L 606.05 410.87 L 610.07 410.87 L 610.07 426.11 Z M 610.07 407.46 L 606.05 407.46 L 606.05 392.22 L 610.07 392.22 L 610.07 407.46 Z M 610.07 388.81 L 606.05 388.81 L 606.05 373.57 L 610.07 373.57 L 610.07 388.81 Z M 610.07 369.82 L 606.05 369.82 L 606.05 354.58 L 610.07 354.58 L 610.07 369.82 Z M 610.07 350.84 L 606.05 350.84 L 606.05 335.60 L 610.07 335.60 L 610.07 350.84 Z M 618.35 426.11 L 614.33 426.11 L 614.33 410.87 L 618.35 410.87 L 618.35 426.11 Z M 618.35 407.46 L 614.33 407.46 L 614.33 392.22 L 618.35 392.22 L 618.35 407.46 Z M 618.35 388.81 L 614.33 388.81 L 614.33 373.57 L 618.35 373.57 L 618.35 388.81 Z M 618.35 369.82 L 614.33 369.82 L 614.33 354.58 L 618.35 354.58 L 618.35 369.82 Z M 618.35 350.84 L 614.33 350.84 L 614.33 335.60 L 618.35 335.60 L 618.35 350.84 Z M 626.63 426.11 L 622.61 426.11 L 622.61 410.87 L 626.63 410.87 L 626.63 426.11 Z M 626.63 407.46 L 622.61 407.46 L 622.61 392.22 L 626.63 392.22 L 626.63 407.46 Z M 626.63 388.81 L 622.61 388.81 L 622.61 373.57 L 626.63 373.57 L 626.63 388.81 Z M 626.63 369.82 L 622.61 369.82 L 622.61 354.58 L 626.63 354.58 L 626.63 369.82 Z M 626.63 350.84 L 622.61 350.84 L 622.61 335.60 L 626.63 335.60 L 626.63 350.84 Z M 634.91 426.11 L 630.89 426.11 L 630.89 410.87 L 634.91 410.87 L 634.91 426.11 Z M 634.91 407.46 L 630.89 407.46 L 630.89 392.22 L 634.91 392.22 L 634.91 407.46 Z M 634.91 388.81 L 630.89 388.81 L 630.89 373.57 L 634.91 373.57 L 634.91 388.81 Z M 634.91 369.82 L 630.89 369.82 L 630.89 354.58 L 634.91 354.58 L 634.91 369.82 Z M 634.91 350.84 L 630.89 350.84 L 630.89 335.60 L 634.91 335.60 L 634.91 350.84 Z M 643.19 426.11 L 639.17 426.11 L 639.17 410.87 L 643.19 410.87 L 643.19 426.11 Z M 643.19 407.46 L 639.17 407.46 L 639.17 392.22 L 643.19 392.22 L 643.19 407.46 Z M 643.19 388.81 L 639.17 388.81 L 639.17 373.57 L 643.19 373.57 L 643.19 388.81 Z M 643.19 369.82 L 639.17 369.82 L 639.17 354.58 L 643.19 354.58 L 643.19 369.82 Z M 643.19 350.84 L 639.17 350.84 L 639.17 335.60 L 643.19 335.60 L 643.19 350.84 Z" fill="url(#SVGID_4_)" fill-rule="nonzero" group-id="9,43" node-id="354" stroke="none" target-height="169.74002" target-width="59.380005" target-x="599.58" target-y="294.4"></path><path d="M 93.94 506.22 L 93.94 416.68 L 104.19 416.68 L 104.19 370.98 L 139.45 355.71 L 139.45 415.96 L 147.19 415.96 L 147.19 506.22 Z" fill="url(#SVGID_5_)" fill-rule="nonzero" group-id="9,43" node-id="356" stroke="none" target-height="150.51001" target-width="53.25" target-x="93.94" target-y="355.71"></path><path d="M 698.71 489.61 L 667.77 489.61 L 667.77 366.48 L 698.71 381.45 Z" fill="url(#SVGID_6_)" fill-rule="nonzero" group-id="9,43" node-id="358" stroke="none" target-height="123.129974" target-width="30.940002" target-x="667.77" target-y="366.48"></path><path d="M 88.76 192.80 C 88.76 192.80 98.10 167.32 121.06 177.32 C 126.36 171.94 132.92 168.03 141.79 169.79 C 150.66 171.55 156.38 178.20 158.32 182.62 C 161.10 182.49 183.36 183.23 183.36 206.32 C 183.36 229.41 156.42 228.97 154.47 227.14 C 152.07 229.28 140.53 240.89 126.53 227.64 C 123.50 230.23 113.60 241.20 97.95 226.06 C 90.70 229.09 73.47 231.42 70.13 213.63 C 66.79 195.84 83.92 190.83 88.76 192.80 Z" fill="url(#SVGID_7_)" fill-rule="nonzero" group-id="9,43" node-id="360" stroke="none" target-height="73.880005" target-width="116.57" target-x="66.79" target-y="167.32"></path><path d="M 605.82 155.98 C 605.82 155.98 615.16 130.50 638.12 140.50 C 643.42 135.12 649.98 131.21 658.85 132.97 C 667.72 134.74 673.44 141.38 675.38 145.80 C 678.16 145.67 700.42 146.41 700.42 169.50 C 700.42 192.59 673.48 192.15 671.53 190.32 C 669.13 192.46 657.59 204.07 643.59 190.82 C 640.56 193.41 630.66 204.38 615.01 189.24 C 607.76 192.27 590.53 194.60 587.19 176.81 C 583.85 159.03 600.99 154.01 605.82 155.98 Z" fill="url(#SVGID_8_)" fill-rule="nonzero" group-id="9,43" node-id="362" stroke="none" target-height="73.87999" target-width="116.57007" target-x="583.85" target-y="130.5"></path><path d="M 486.48 210.51 C 486.48 210.51 493.24 192.06 509.86 199.31 C 513.70 195.41 518.44 192.58 524.87 193.86 C 531.30 195.14 535.43 199.95 536.83 203.14 C 538.84 203.05 554.96 203.58 554.96 220.29 C 554.96 237.00 535.46 236.68 534.05 235.36 C 532.31 236.91 523.96 245.31 513.82 235.73 C 511.63 237.60 504.46 245.55 493.14 234.59 C 487.89 236.78 475.42 238.47 473.00 225.59 C 470.58 212.72 482.98 209.08 486.48 210.51 Z" fill="url(#SVGID_9_)" fill-rule="nonzero" group-id="9,43" node-id="364" stroke="none" target-height="53.48999" target-width="84.380035" target-x="470.58" target-y="192.06001"></path><path d="M 771.02 579.73 C 771.02 626.42 731.93 671.21 662.36 704.22 C 592.79 737.24 498.43 755.79 400.04 755.79 C 301.65 755.79 207.29 737.24 137.72 704.22 C 68.15 671.21 29.06 626.42 29.06 579.73 C 29.06 533.04 68.15 488.25 137.72 455.24 C 207.29 422.22 301.65 403.67 400.04 403.67 C 498.43 403.67 592.79 422.22 662.36 455.24 C 731.93 488.25 771.02 533.04 771.02 579.73 Z" fill="url(#SVGID_10_)" fill-rule="nonzero" group-id="9,43" node-id="366" stroke="none" target-height="352.12" target-width="741.95996" target-x="29.06" target-y="403.66998"></path></g><g node-id="484"><g node-id="487"><path d="M 145.99 558.19 C 145.99 558.19 142.46 563.20 148.36 570.66 C 153.62 577.30 161.93 576.01 164.69 573.88 C 165.54 579.66 172.63 591.84 183.85 584.95 C 194.40 578.48 189.32 568.64 185.95 564.77 C 192.54 562.91 197.45 547.12 182.33 541.67 C 184.57 535.15 184.97 532.20 181.69 526.34 C 178.53 520.70 173.34 519.80 165.06 523.23 L 153.08 528.28 L 145.45 514.04 L 141.37 516.40 L 150.17 530.00 L 138.51 535.85 C 138.51 535.85 128.54 539.75 132.84 550.45 C 136.83 560.37 145.99 558.19 145.99 558.19 Z" fill="url(#SVGID_11_)" fill-rule="nonzero" group-id="9,44,47" node-id="372" stroke="none" target-height="77.80005" target-width="68.91" target-x="128.54" target-y="514.04"></path><path d="M 125.69 497.48 L 161.75 497.48 C 161.75 497.48 173.40 497.81 175.72 484.50 C 178.27 469.89 167.64 467.88 167.64 467.88 C 167.64 467.88 174.04 464.94 172.65 453.89 C 171.25 442.85 161.53 441.45 157.48 441.96 C 158.14 435.41 159.52 420.58 144.12 420.43 C 129.25 420.28 129.34 435.25 130.45 441.15 C 125.15 441.21 109.14 449.16 120.40 466.60 C 114.27 471.85 111.68 474.88 111.95 482.45 C 112.22 490.02 116.86 497.48 125.69 497.48 Z" fill="url(#SVGID_12_)" fill-rule="nonzero" group-id="9,44,47" node-id="374" stroke="none" target-height="77.52997" target-width="69.130005" target-x="109.14" target-y="420.28"></path><path d="M 160.86 477.24 L 145.48 487.36 L 145.07 477.58 L 154.79 466.12 L 144.92 474.10 L 143.64 444.20 L 142.69 474.29 L 132.32 466.03 L 142.60 477.36 L 142.28 487.43 L 126.46 475.81 L 142.17 491.06 L 141.37 516.42 L 146.73 516.42 L 145.65 491.21 Z" fill="#c6d5e6" fill-rule="nonzero" group-id="9,44,47" node-id="376" stroke="none" target-height="72.21997" target-width="34.4" target-x="126.46" target-y="444.2"></path></g><g node-id="488"><path d="M 668.41 539.89 C 668.41 539.89 665.16 544.51 670.59 551.37 C 675.43 557.49 683.09 556.30 685.63 554.33 C 686.41 559.65 692.95 570.86 703.28 564.53 C 712.99 558.57 708.32 549.51 705.21 545.95 C 711.28 544.24 715.80 529.69 701.88 524.68 C 703.95 518.68 704.32 515.96 701.29 510.57 C 698.38 505.38 693.60 504.54 685.98 507.71 L 674.94 512.36 L 667.91 499.25 L 664.16 501.42 L 672.26 513.94 L 661.53 519.33 C 661.53 519.33 652.35 522.92 656.31 532.78 C 659.98 541.89 668.41 539.89 668.41 539.89 Z" fill="url(#SVGID_13_)" fill-rule="nonzero" group-id="9,44,48" node-id="381" stroke="none" target-height="71.609985" target-width="63.450012" target-x="652.35" target-y="499.25"></path><path d="M 649.72 483.98 L 682.92 483.98 C 682.92 483.98 693.65 484.29 695.78 472.03 C 698.12 458.58 688.34 456.73 688.34 456.73 C 688.34 456.73 694.24 454.02 692.95 443.85 C 691.66 433.68 682.71 432.39 678.98 432.87 C 679.59 426.84 680.86 413.18 666.68 413.04 C 652.99 412.90 653.07 426.68 654.09 432.12 C 649.21 432.17 634.46 439.49 644.84 455.56 C 639.20 460.39 636.81 463.19 637.06 470.15 C 637.31 477.11 641.58 483.98 649.72 483.98 Z" fill="url(#SVGID_14_)" fill-rule="nonzero" group-id="9,44,48" node-id="383" stroke="none" target-height="71.390045" target-width="63.660034" target-x="634.46" target-y="412.9"></path><path d="M 682.11 465.34 L 667.95 474.66 L 667.56 465.65 L 676.52 455.10 L 667.42 462.45 L 666.24 434.91 L 665.38 462.63 L 655.82 455.02 L 665.29 465.45 L 665.00 474.72 L 650.43 464.02 L 664.89 478.07 L 664.16 501.42 L 669.09 501.42 L 668.10 478.21 Z" fill="#c6d5e6" fill-rule="nonzero" group-id="9,44,48" node-id="385" stroke="none" target-height="66.51004" target-width="31.679993" target-x="650.43" target-y="434.91"></path></g><g node-id="489"><path d="M 228.92 449.69 C 228.92 449.69 227.17 452.17 230.09 455.86 C 232.69 459.15 236.80 458.51 238.17 457.45 C 238.59 460.31 242.10 466.33 247.65 462.93 C 252.87 459.73 250.36 454.86 248.69 452.95 C 251.95 452.03 254.38 444.22 246.90 441.53 C 248.01 438.31 248.21 436.85 246.58 433.95 C 245.02 431.16 242.45 430.71 238.36 432.41 L 232.43 434.91 L 228.66 427.87 L 226.64 429.04 L 230.99 435.76 L 225.22 438.65 C 225.22 438.65 220.29 440.58 222.42 445.87 C 224.39 450.77 228.92 449.69 228.92 449.69 Z" fill="url(#SVGID_15_)" fill-rule="nonzero" group-id="9,44,49" node-id="390" stroke="none" target-height="38.45996" target-width="34.09001" target-x="220.29" target-y="427.87"></path><path d="M 218.88 419.66 L 236.71 419.66 C 236.71 419.66 242.47 419.82 243.62 413.24 C 244.88 406.01 239.62 405.02 239.62 405.02 C 239.62 405.02 242.79 403.56 242.10 398.10 C 241.41 392.64 236.60 391.95 234.60 392.20 C 234.93 388.96 235.61 381.62 227.99 381.55 C 220.63 381.48 220.68 388.88 221.23 391.80 C 218.61 391.83 210.69 395.76 216.26 404.39 C 213.23 406.98 211.94 408.49 212.08 412.23 C 212.22 415.97 214.51 419.66 218.88 419.66 Z" fill="url(#SVGID_16_)" fill-rule="nonzero" group-id="9,44,49" node-id="392" stroke="none" target-height="38.339996" target-width="34.189987" target-x="210.69" target-y="381.48"></path><path d="M 236.28 409.65 L 228.67 414.66 L 228.46 409.82 L 233.27 404.15 L 228.39 408.09 L 227.76 393.30 L 227.29 408.19 L 222.16 404.11 L 227.24 409.71 L 227.09 414.69 L 219.26 408.94 L 227.03 416.49 L 226.64 429.03 L 229.29 429.03 L 228.75 416.56 Z" fill="#c6d5e6" fill-rule="nonzero" group-id="9,44,49" node-id="394" stroke="none" target-height="35.73004" target-width="17.02002" target-x="219.25998" target-y="393.29996"></path></g></g><g node-id="485"><path d="M 554.96 506.22 L 711.05 633.00 L 434.49 735.26 L 266.73 511.34 L 405.43 497.48 Z" fill="url(#SVGID_17_)" fill-rule="nonzero" group-id="9,45" node-id="400" stroke="none" target-height="237.78" target-width="444.31992" target-x="266.73" target-y="497.48"></path><path d="M 546.60 518.37 L 278.90 518.37 C 271.14 518.37 264.86 512.08 264.86 504.33 L 264.86 321.02 C 264.86 313.26 271.15 306.98 278.90 306.98 L 546.60 306.98 C 554.36 306.98 560.64 313.27 560.64 321.02 L 560.64 504.33 C 560.64 512.08 554.36 518.37 546.60 518.37 Z" fill="url(#SVGID_18_)" fill-rule="nonzero" group-id="9,45" node-id="402" stroke="none" target-height="211.38998" target-width="295.78003" target-x="264.86" target-y="306.98"></path><path d="M 560.64 441.91 L 546.00 450.34 L 546.00 404.28 L 560.64 395.84 Z" fill="url(#SVGID_19_)" fill-rule="nonzero" group-id="9,45" node-id="404" stroke="none" target-height="54.50003" target-width="14.640015" target-x="546" target-y="395.83997"></path><path d="M 542.35 363.02 L 436.79 429.51 L 370.64 324.48 C 367.54 319.56 369.02 313.06 373.94 309.96 L 461.69 254.70 C 466.61 251.60 473.11 253.08 476.21 258.00 L 542.35 363.02 Z" fill="url(#SVGID_20_)" fill-rule="nonzero" group-id="9,45" node-id="406" stroke="none" target-height="177.90999" target-width="174.80997" target-x="367.54" target-y="251.60002"></path><path d="M 517.17 355.59 L 411.61 422.08 L 345.46 317.05 C 342.36 312.13 343.84 305.63 348.76 302.53 L 436.51 247.27 C 441.43 244.17 447.93 245.65 451.03 250.57 L 517.17 355.59 Z" fill="url(#SVGID_21_)" fill-rule="nonzero" group-id="9,45" node-id="408" stroke="none" target-height="177.90999" target-width="174.81" target-x="342.36" target-y="244.17"></path><path d="M 409.20 264.46 L 455.70 339.30 L 476.69 334.53 L 426.38 253.64 Z" fill="url(#SVGID_22_)" fill-rule="nonzero" group-id="9,45" node-id="410" stroke="none" target-height="85.65997" target-width="67.49002" target-x="409.2" target-y="253.64001"></path><path d="M 531.96 518.37 L 278.90 518.37 C 271.14 518.37 264.86 512.08 264.86 504.33 L 264.86 335.23 C 264.86 327.47 271.15 321.19 278.90 321.19 L 531.96 321.19 C 539.72 321.19 546.00 327.48 546.00 335.23 L 546.00 504.33 C 546.00 512.08 539.72 518.37 531.96 518.37 Z" fill="url(#SVGID_23_)" fill-rule="nonzero" group-id="9,45" node-id="412" stroke="none" target-height="197.18" target-width="281.14" target-x="264.86" target-y="321.19"></path><path d="M 546.00 450.34 L 447.25 450.34 C 440.20 450.34 434.48 444.62 434.48 437.57 L 434.48 417.03 C 434.48 409.98 440.20 404.26 447.25 404.26 L 546.00 404.26 L 546.00 450.34 Z" fill="url(#SVGID_24_)" fill-rule="nonzero" group-id="9,45" node-id="414" stroke="none" target-height="46.079987" target-width="111.51999" target-x="434.48" target-y="404.26"></path><path d="M 467.64 427.31 C 467.64 429.71 466.69 432.01 464.99 433.70 C 463.30 435.40 461.00 436.35 458.60 436.35 C 456.20 436.35 453.90 435.40 452.21 433.70 C 450.51 432.01 449.56 429.71 449.56 427.31 C 449.56 424.91 450.51 422.61 452.21 420.92 C 453.90 419.22 456.20 418.27 458.60 418.27 C 461.00 418.27 463.30 419.22 464.99 420.92 C 466.69 422.61 467.64 424.91 467.64 427.31 Z" fill="url(#SVGID_25_)" fill-rule="nonzero" group-id="9,45" node-id="416" stroke="none" target-height="18.080017" target-width="18.080048" target-x="449.56" target-y="418.27"></path></g><g node-id="486"><path d="M 392.61 447.21 L 390.35 448.13 C 390.35 448.13 389.55 449.47 389.89 452.37 C 390.23 455.26 391.74 456.37 392.07 457.43 C 392.41 458.49 392.20 462.56 392.20 462.56 L 398.20 462.56 L 398.45 456.86 C 398.45 456.86 399.81 455.15 400.25 453.98 C 400.70 452.81 401.59 450.88 401.28 449.95 C 400.97 449.03 397.00 445.48 392.61 447.21 Z" fill="#ffbe92" fill-rule="nonzero" group-id="9,46" node-id="421" stroke="none" target-height="17.079987" target-width="12.040009" target-x="389.55" target-y="445.48"></path><path d="M 395.41 444.25 C 395.41 444.25 396.38 442.50 397.14 443.44 C 397.90 444.38 398.39 444.86 399.27 444.66 C 400.15 444.45 401.88 444.64 401.26 446.25 C 400.64 447.86 401.23 448.01 401.48 448.45 C 401.63 448.72 402.69 449.63 401.97 450.80 C 401.26 451.95 400.27 451.53 400.45 452.62 C 400.63 453.71 400.22 454.68 399.57 455.02 C 398.94 455.35 399.10 455.94 399.21 456.28 C 399.32 456.61 398.97 457.69 397.91 457.31 C 396.85 456.93 395.90 456.78 395.06 457.16 C 394.22 457.54 390.76 457.76 391.49 456.21 C 392.16 454.80 391.23 454.51 390.60 453.88 C 389.97 453.25 389.46 452.16 389.79 451.09 C 389.98 450.47 390.25 448.99 389.50 448.06 C 388.72 447.10 390.06 444.48 390.94 444.58 C 391.83 444.66 393.04 442.16 395.41 444.25 Z" fill="#171c61" fill-rule="nonzero" group-id="9,46" node-id="423" stroke="none" target-height="15.599976" target-width="13.970032" target-x="388.71997" target-y="442.16"></path><path d="M 403.59 546.41 C 403.59 546.41 399.60 545.23 399.53 548.82 C 400.25 552.06 400.89 553.17 400.86 554.68 C 400.83 556.19 402.26 558.62 405.37 559.04 C 408.48 559.46 409.86 557.02 408.79 553.60 C 407.72 550.19 407.35 547.06 403.59 546.41 Z" fill="#f8b62d" fill-rule="nonzero" group-id="9,46" node-id="425" stroke="none" target-height="14.2300415" target-width="10.329987" target-x="399.53" target-y="545.23"></path><path d="M 399.63 548.05 C 399.63 548.05 400.09 550.71 400.56 551.63 C 401.03 552.55 401.34 553.76 401.57 554.76 C 401.80 555.76 402.32 558.18 405.97 558.31 C 408.21 558.22 409.14 557.15 409.13 556.20 C 409.12 556.82 409.24 557.77 408.78 558.37 C 408.28 559.02 407.15 559.28 405.93 559.29 C 403.54 559.31 401.80 558.73 400.85 555.45 C 400.68 554.11 400.59 553.08 400.33 552.29 C 400.07 551.50 399.17 548.99 399.63 548.05 Z" fill="#e6e8e8" fill-rule="nonzero" group-id="9,46" node-id="427" stroke="none" target-height="11.26001" target-width="10.069977" target-x="399.17" target-y="548.05"></path><path d="M 390.52 546.57 C 390.52 546.57 385.68 545.51 385.68 548.95 C 385.90 552.00 386.41 553.36 386.38 554.87 C 386.35 556.38 387.78 558.81 390.89 559.23 C 394.00 559.65 395.38 557.21 394.31 553.79 C 393.24 550.37 394.27 547.22 390.52 546.57 Z" fill="#f8b62d" fill-rule="nonzero" group-id="9,46" node-id="429" stroke="none" target-height="14.140015" target-width="9.700043" target-x="385.67996" target-y="545.51"></path><path d="M 386.25 547.31 C 386.25 547.31 385.40 548.52 386.31 551.83 C 386.62 552.81 386.85 553.93 387.09 554.94 C 387.33 555.95 387.84 558.36 391.49 558.49 C 393.73 558.40 394.66 557.33 394.65 556.38 C 394.64 557.00 394.81 557.80 394.36 558.40 C 393.86 559.05 392.68 559.46 391.45 559.47 C 389.06 559.49 387.32 558.91 386.37 555.63 C 386.20 554.29 386.11 553.26 385.85 552.47 C 385.59 551.68 385.22 548.02 386.25 547.31 Z" fill="#e6e8e8" fill-rule="nonzero" group-id="9,46" node-id="431" stroke="none" target-height="12.179993" target-width="9.589996" target-x="385.22" target-y="547.31"></path><path d="M 386.99 495.30 C 386.99 495.30 384.47 501.37 385.14 511.92 C 385.81 522.47 388.90 556.19 388.90 556.19 L 393.69 556.19 L 397.38 509.81 L 403.03 556.19 L 407.47 556.19 C 407.47 556.19 411.63 499.83 406.94 495.30 C 398.90 495.30 386.99 495.30 386.99 495.30 Z" fill="url(#SVGID_26_)" fill-rule="nonzero" group-id="9,46" node-id="433" stroke="none" target-height="60.890015" target-width="27.160004" target-x="384.47" target-y="495.3"></path><path d="M 402.98 430.29 C 402.98 430.29 403.10 432.72 404.09 433.56 C 405.08 434.40 405.57 435.74 405.98 436.63 C 406.39 437.52 408.09 441.67 408.42 442.27 C 408.75 442.86 409.37 444.40 409.08 446.28 C 408.79 448.16 405.75 456.94 405.54 457.58 C 406.12 459.61 409.61 464.92 409.61 464.92 C 409.61 464.92 415.12 450.25 414.91 445.49 C 414.70 440.73 411.07 437.52 408.69 433.31 C 407.87 432.17 407.91 431.13 407.99 430.48 C 408.07 429.84 408.05 425.83 405.34 424.57 C 403.70 423.82 402.91 429.64 402.98 430.29 Z" fill="#ffbe92" fill-rule="nonzero" group-id="9,46" node-id="435" stroke="none" target-height="41.100006" target-width="12.210022" target-x="402.91" target-y="423.82"></path><path d="M 388.63 430.62 C 388.63 430.62 388.50 433.05 387.43 433.89 C 386.36 434.73 385.83 436.07 385.38 436.96 C 384.93 437.85 383.09 442.00 382.74 442.60 C 382.38 443.19 381.72 444.73 382.03 446.61 C 382.34 448.49 385.64 457.27 385.86 457.91 C 385.24 459.94 381.45 465.25 381.45 465.25 C 381.45 465.25 375.48 450.58 375.71 445.82 C 375.93 441.06 379.87 437.85 382.45 433.64 C 383.34 432.50 383.30 431.46 383.21 430.81 C 383.12 430.17 383.15 426.16 386.08 424.90 C 387.85 424.15 388.70 429.97 388.63 430.62 Z" fill="#ffbe92" fill-rule="nonzero" group-id="9,46" node-id="437" stroke="none" target-height="41.100067" target-width="13.220001" target-x="375.47998" target-y="424.14996"></path><path d="M 414.92 459.06 L 404.78 454.64 C 403.16 459.00 400.99 460.26 400.11 459.88 C 398.73 459.14 396.93 459.05 395.57 459.04 C 394.21 459.05 392.41 459.13 391.03 459.88 C 390.15 460.26 387.98 459.00 386.36 454.64 L 376.22 459.06 C 376.22 459.06 379.52 466.33 381.03 469.57 C 381.42 471.02 382.90 476.00 382.78 478.07 C 382.67 480.14 379.54 499.86 382.84 501.09 C 384.60 501.75 390.28 502.09 395.57 502.19 C 400.86 502.09 406.54 501.75 408.30 501.09 C 411.60 499.86 408.47 480.14 408.36 478.07 C 408.25 476.00 409.72 471.02 410.11 469.57 C 411.62 466.33 414.92 459.06 414.92 459.06 Z" fill="url(#SVGID_27_)" fill-rule="nonzero" group-id="9,46" node-id="439" stroke="none" target-height="47.549988" target-width="38.69998" target-x="376.22003" target-y="454.64"></path></g></g></svg>