<?xml version="1.0" standalone="no"?><!DOCTYPE svg PUBLIC "-//W3C//DTD SVG 1.1//EN" "http://www.w3.org/Graphics/SVG/1.1/DTD/svg11.dtd"><svg height="800" node-id="1" sillyvg="true" template-height="800" template-width="800" version="1.1" viewBox="0 0 800 800" width="800" xmlns="http://www.w3.org/2000/svg" xmlns:xlink="http://www.w3.org/1999/xlink"><defs node-id="183"><linearGradient gradientUnits="objectBoundingBox" id="SVGID_1_" node-id="8" spreadMethod="pad" x1="255.6121" x2="255.6121" y1="428.0135" y2="331.2253"><stop offset="0.0000005358273" stop-color="#ffffff"></stop><stop offset="1" stop-color="#dbe3ee"></stop></linearGradient><linearGradient gradientUnits="objectBoundingBox" id="SVGID_2_" node-id="12" spreadMethod="pad" x1="190.9951" x2="190.9951" y1="486.0054" y2="269.5164"><stop offset="0.0000005358273" stop-color="#ffffff"></stop><stop offset="1" stop-color="#dbe3ee"></stop></linearGradient><linearGradient gradientUnits="objectBoundingBox" id="SVGID_3_" node-id="16" spreadMethod="pad" x1="566.7767" x2="566.7767" y1="443.3265" y2="286.8458"><stop offset="0.0000005358273" stop-color="#ffffff"></stop><stop offset="1" stop-color="#dbe3ee"></stop></linearGradient><linearGradient gradientUnits="objectBoundingBox" id="SVGID_4_" node-id="20" spreadMethod="pad" x1="629.3016" x2="629.3016" y1="465.9966" y2="296.2559"><stop offset="0.0000005358273" stop-color="#ffffff"></stop><stop offset="1" stop-color="#dbe3ee"></stop></linearGradient><linearGradient gradientUnits="objectBoundingBox" id="SVGID_5_" node-id="24" spreadMethod="pad" x1="120.589" x2="120.589" y1="508.075" y2="357.5616"><stop offset="0.0000005358273" stop-color="#ffffff"></stop><stop offset="1" stop-color="#edf1f9"></stop></linearGradient><linearGradient gradientUnits="objectBoundingBox" id="SVGID_6_" node-id="28" spreadMethod="pad" x1="683.2622" x2="683.2622" y1="491.4696" y2="368.3374"><stop offset="0.0000005358273" stop-color="#ffffff"></stop><stop offset="1" stop-color="#edf1f9"></stop></linearGradient><linearGradient gradientUnits="objectBoundingBox" id="SVGID_7_" node-id="32" spreadMethod="pad" x1="126.5527" x2="126.5527" y1="235.7678" y2="171.2265"><stop offset="0.2332" stop-color="#ffffff"></stop><stop offset="1" stop-color="#d3dfee"></stop></linearGradient><linearGradient gradientUnits="objectBoundingBox" id="SVGID_8_" node-id="36" spreadMethod="pad" x1="643.6211" x2="643.6211" y1="198.9473" y2="134.4061"><stop offset="0.2332" stop-color="#ffffff"></stop><stop offset="1" stop-color="#d3dfee"></stop></linearGradient><linearGradient gradientUnits="objectBoundingBox" id="SVGID_9_" node-id="40" spreadMethod="pad" x1="513.8502" x2="513.8502" y1="242.1208" y2="195.4036"><stop offset="0.2332" stop-color="#ffffff"></stop><stop offset="1" stop-color="#d3dfee"></stop></linearGradient><linearGradient gradientUnits="objectBoundingBox" id="SVGID_10_" node-id="44" spreadMethod="pad" x1="400.0675" x2="400.0675" y1="757.6456" y2="405.5167"><stop offset="0.4065" stop-color="#ffffff"></stop><stop offset="1" stop-color="#dae4ef"></stop></linearGradient><linearGradient gradientUnits="objectBoundingBox" id="SVGID_11_" node-id="50" spreadMethod="pad" x1="190.997" x2="139.5608" y1="581.1014" y2="519.8021"><stop offset="0.4034" stop-color="#eff4f8"></stop><stop offset="1" stop-color="#d4dfec"></stop></linearGradient><linearGradient gradientUnits="objectBoundingBox" id="SVGID_12_" node-id="54" spreadMethod="pad" x1="111.9492" x2="176.136" y1="460.8111" y2="460.8111"><stop offset="0.1022" stop-color="#f0f5f8"></stop><stop offset="1" stop-color="#b4c7dc"></stop></linearGradient><linearGradient gradientUnits="objectBoundingBox" id="SVGID_13_" node-id="60" spreadMethod="pad" x1="709.8591" x2="662.4937" y1="561.1288" y2="504.6809"><stop offset="0.4034" stop-color="#eff4f8"></stop><stop offset="1" stop-color="#d4dfec"></stop></linearGradient><linearGradient gradientUnits="objectBoundingBox" id="SVGID_14_" node-id="64" spreadMethod="pad" x1="637.0674" x2="696.1743" y1="450.3586" y2="450.3586"><stop offset="0.1022" stop-color="#f0f5f8"></stop><stop offset="1" stop-color="#b4c7dc"></stop></linearGradient><linearGradient gradientUnits="objectBoundingBox" id="SVGID_15_" node-id="70" spreadMethod="pad" x1="251.1965" x2="225.7552" y1="461.9581" y2="431.6384"><stop offset="0.0000001438503" stop-color="#eaeff6"></stop><stop offset="1" stop-color="#cddae9"></stop></linearGradient><linearGradient gradientUnits="objectBoundingBox" id="SVGID_16_" node-id="74" spreadMethod="pad" x1="212.0981" x2="243.846" y1="402.4603" y2="402.4603"><stop offset="0.1022" stop-color="#f0f5f8"></stop><stop offset="1" stop-color="#b4c7dc"></stop></linearGradient><linearGradient gradientUnits="objectBoundingBox" id="SVGID_17_" node-id="80" spreadMethod="pad" x1="523.6899" x2="436.7546" y1="682.061" y2="414.5018"><stop offset="0.0938" stop-color="#ffffff"></stop><stop offset="0.9362" stop-color="#bbcbe0"></stop></linearGradient><linearGradient gradientUnits="objectBoundingBox" id="SVGID_18_" node-id="84" spreadMethod="pad" x1="253.681" x2="351.3006" y1="375.2699" y2="375.2699"><stop offset="0" stop-color="#becfe2"></stop><stop offset="1" stop-color="#e7edf5"></stop></linearGradient><linearGradient gradientUnits="objectBoundingBox" id="SVGID_19_" node-id="88" spreadMethod="pad" x1="13818.952" x2="13907.296" y1="375.2745" y2="375.2745"><stop offset="0" stop-color="#cfdbea"></stop><stop offset="1" stop-color="#aec3da"></stop></linearGradient><linearGradient gradientUnits="objectBoundingBox" id="SVGID_20_" node-id="92" spreadMethod="pad" x1="439.6442" x2="537.2638" y1="375.2699" y2="375.2699"><stop offset="0" stop-color="#becfe2"></stop><stop offset="0.7733" stop-color="#e7edf5"></stop></linearGradient><linearGradient gradientUnits="objectBoundingBox" id="SVGID_21_" node-id="96" spreadMethod="pad" x1="253.681" x2="351.3007" y1="397.2592" y2="397.2592"><stop offset="0.0000005358273" stop-color="#ffffff"></stop><stop offset="1" stop-color="#cedae8"></stop></linearGradient><linearGradient gradientUnits="objectBoundingBox" id="SVGID_22_" node-id="100" spreadMethod="pad" x1="351.3007" x2="439.6442" y1="400.7849" y2="400.7849"><stop offset="0.0000005358273" stop-color="#e7edf5"></stop><stop offset="1" stop-color="#b9cbde"></stop></linearGradient><linearGradient gradientUnits="objectBoundingBox" id="SVGID_23_" node-id="104" spreadMethod="pad" x1="537.2638" x2="439.6442" y1="397.9752" y2="397.9752"><stop offset="0.0000005358273" stop-color="#ffffff"></stop><stop offset="1" stop-color="#cbd9e8"></stop></linearGradient><linearGradient gradientUnits="objectBoundingBox" id="SVGID_24_" node-id="108" spreadMethod="pad" x1="441.5032" x2="322.154" y1="285.192" y2="274.7502"><stop offset="0" stop-color="#e7edf5"></stop><stop offset="0.5658" stop-color="#b3c7dd"></stop></linearGradient><linearGradient gradientUnits="objectBoundingBox" id="SVGID_25_" node-id="112" spreadMethod="pad" x1="316.4671" x2="436.1955" y1="279.9082" y2="279.9082"><stop offset="0.2139" stop-color="#e7edf5"></stop><stop offset="1" stop-color="#b4c7dc"></stop></linearGradient><linearGradient gradientUnits="objectBoundingBox" id="SVGID_26_" node-id="123" spreadMethod="pad" x1="478.6757" x2="478.6757" y1="530.8804" y2="477.2761"><stop offset="0" stop-color="#4ea2f4"></stop><stop offset="0.6903" stop-color="#1e77cf"></stop></linearGradient><linearGradient gradientUnits="objectBoundingBox" id="SVGID_27_" node-id="127" spreadMethod="pad" x1="491.2362" x2="491.2362" y1="529.2055" y2="474.4226"><stop offset="0" stop-color="#78c8ff"></stop><stop offset="0.6903" stop-color="#2a80e2"></stop></linearGradient><linearGradient gradientUnits="objectBoundingBox" id="SVGID_28_" node-id="133" spreadMethod="pad" x1="11591.696" x2="11591.696" y1="176.9684" y2="152.7643"><stop offset="0" stop-color="#f2a319"></stop><stop offset="0.4796" stop-color="#ffc552"></stop></linearGradient><linearGradient gradientUnits="objectBoundingBox" id="SVGID_29_" node-id="139" spreadMethod="pad" x1="11603.253" x2="11603.253" y1="170.4453" y2="158.8734"><stop offset="0" stop-color="#f2a319"></stop><stop offset="0.4796" stop-color="#ffc552"></stop></linearGradient></defs><g node-id="465"><g node-id="505"><path d="M 270.07 334.63 L 270.07 331.22 L 240.57 331.22 L 240.57 335.18 L 234.09 335.18 L 234.09 428.01 L 277.14 428.01 L 277.14 334.63 L 270.07 334.63 Z M 273.41 417.37 L 237.37 417.37 L 237.37 414.62 L 273.41 414.62 L 273.41 417.37 Z M 273.41 404.69 L 237.37 404.69 L 237.37 401.94 L 273.41 401.94 L 273.41 404.69 Z M 273.41 392.02 L 237.37 392.02 L 237.37 389.27 L 273.41 389.27 L 273.41 392.02 Z M 273.41 379.67 L 237.37 379.67 L 237.37 376.92 L 273.41 376.92 L 273.41 379.67 Z M 273.41 367.36 L 237.37 367.36 L 237.37 364.61 L 273.41 364.61 L 273.41 367.36 Z M 273.41 354.68 L 237.37 354.68 L 237.37 351.93 L 273.41 351.93 L 273.41 354.68 Z M 273.41 342.34 L 237.37 342.34 L 237.37 339.59 L 273.41 339.59 L 273.41 342.34 Z" fill="url(#SVGID_1_)" fill-rule="nonzero" group-id="3,43" node-id="364" stroke="none" target-height="96.79001" target-width="43.050003" target-x="234.09001" target-y="331.22"></path><path d="M 212.09 386.44 L 212.09 278.26 L 179.34 278.26 L 179.34 269.52 L 165.48 269.52 L 165.48 322.85 L 161.75 322.85 L 161.75 486.01 L 220.26 486.01 L 220.26 386.45 L 212.09 386.45 Z M 187.59 418.25 L 179.33 418.25 L 179.33 410.24 L 187.59 410.24 L 187.59 418.25 Z M 187.59 405.72 L 179.33 405.72 L 179.33 397.71 L 187.59 397.71 L 187.59 405.72 Z M 187.59 393.25 L 179.33 393.25 L 179.33 385.24 L 187.59 385.24 L 187.59 393.25 Z M 187.59 380.81 L 179.33 380.81 L 179.33 372.80 L 187.59 372.80 L 187.59 380.81 Z M 187.59 368.28 L 179.33 368.28 L 179.33 360.27 L 187.59 360.27 L 187.59 368.28 Z M 187.59 343.28 L 179.33 343.28 L 179.33 335.27 L 187.59 335.27 L 187.59 343.28 Z M 187.59 330.75 L 179.33 330.75 L 179.33 322.74 L 187.59 322.74 L 187.59 330.75 Z M 187.59 318.27 L 179.33 318.27 L 179.33 310.26 L 187.59 310.26 L 187.59 318.27 Z M 187.59 305.84 L 179.33 305.84 L 179.33 297.83 L 187.59 297.83 L 187.59 305.84 Z M 187.59 293.31 L 179.33 293.31 L 179.33 285.30 L 187.59 285.30 L 187.59 293.31 Z M 199.94 418.25 L 191.68 418.25 L 191.68 410.24 L 199.94 410.24 L 199.94 418.25 Z M 199.94 405.72 L 191.68 405.72 L 191.68 397.71 L 199.94 397.71 L 199.94 405.72 Z M 199.94 393.25 L 191.68 393.25 L 191.68 385.24 L 199.94 385.24 L 199.94 393.25 Z M 199.94 380.81 L 191.68 380.81 L 191.68 372.80 L 199.94 372.80 L 199.94 380.81 Z M 199.94 368.28 L 191.68 368.28 L 191.68 360.27 L 199.94 360.27 L 199.94 368.28 Z M 199.94 343.28 L 191.68 343.28 L 191.68 335.27 L 199.94 335.27 L 199.94 343.28 Z M 199.94 330.75 L 191.68 330.75 L 191.68 322.74 L 199.94 322.74 L 199.94 330.75 Z M 199.94 318.27 L 191.68 318.27 L 191.68 310.26 L 199.94 310.26 L 199.94 318.27 Z M 199.94 305.84 L 191.68 305.84 L 191.68 297.83 L 199.94 297.83 L 199.94 305.84 Z M 199.94 293.31 L 191.68 293.31 L 191.68 285.30 L 199.94 285.30 L 199.94 293.31 Z" fill="url(#SVGID_2_)" fill-rule="nonzero" group-id="3,43" node-id="366" stroke="none" target-height="216.49002" target-width="58.51001" target-x="161.75" target-y="269.52"></path><path d="M 534.39 443.33 C 534.75 438.68 534.39 286.85 534.39 286.85 L 552.92 286.85 L 552.92 320.56 L 582.42 320.56 L 582.42 391.01 L 599.15 391.01 L 599.15 443.33 L 534.39 443.33 Z" fill="url(#SVGID_3_)" fill-rule="nonzero" group-id="3,43" node-id="368" stroke="none" target-height="156.47998" target-width="64.76001" target-x="534.39" target-y="286.85"></path><path d="M 655.61 375.18 L 655.61 370.33 L 650.61 370.33 L 650.61 328.00 L 638.41 328.00 L 638.41 323.30 L 630.18 323.30 L 630.18 316.39 L 625.89 316.39 L 625.89 296.25 L 622.80 296.25 L 622.80 316.53 L 618.86 316.53 L 618.86 323.44 L 606.66 323.44 L 606.66 334.76 L 599.61 334.76 L 599.61 466.00 L 658.99 466.00 L 658.99 375.18 L 655.61 375.18 Z M 610.10 427.96 L 606.08 427.96 L 606.08 412.72 L 610.10 412.72 L 610.10 427.96 Z M 610.10 409.31 L 606.08 409.31 L 606.08 394.07 L 610.10 394.07 L 610.10 409.31 Z M 610.10 390.66 L 606.08 390.66 L 606.08 375.42 L 610.10 375.42 L 610.10 390.66 Z M 610.10 371.68 L 606.08 371.68 L 606.08 356.44 L 610.10 356.44 L 610.10 371.68 Z M 610.10 352.69 L 606.08 352.69 L 606.08 337.45 L 610.10 337.45 L 610.10 352.69 Z M 618.38 427.96 L 614.36 427.96 L 614.36 412.72 L 618.38 412.72 L 618.38 427.96 Z M 618.38 409.31 L 614.36 409.31 L 614.36 394.07 L 618.38 394.07 L 618.38 409.31 Z M 618.38 390.66 L 614.36 390.66 L 614.36 375.42 L 618.38 375.42 L 618.38 390.66 Z M 618.38 371.68 L 614.36 371.68 L 614.36 356.44 L 618.38 356.44 L 618.38 371.68 Z M 618.38 352.69 L 614.36 352.69 L 614.36 337.45 L 618.38 337.45 L 618.38 352.69 Z M 626.66 427.96 L 622.64 427.96 L 622.64 412.72 L 626.66 412.72 L 626.66 427.96 Z M 626.66 409.31 L 622.64 409.31 L 622.64 394.07 L 626.66 394.07 L 626.66 409.31 Z M 626.66 390.66 L 622.64 390.66 L 622.64 375.42 L 626.66 375.42 L 626.66 390.66 Z M 626.66 371.68 L 622.64 371.68 L 622.64 356.44 L 626.66 356.44 L 626.66 371.68 Z M 626.66 352.69 L 622.64 352.69 L 622.64 337.45 L 626.66 337.45 L 626.66 352.69 Z M 634.94 427.96 L 630.92 427.96 L 630.92 412.72 L 634.94 412.72 L 634.94 427.96 Z M 634.94 409.31 L 630.92 409.31 L 630.92 394.07 L 634.94 394.07 L 634.94 409.31 Z M 634.94 390.66 L 630.92 390.66 L 630.92 375.42 L 634.94 375.42 L 634.94 390.66 Z M 634.94 371.68 L 630.92 371.68 L 630.92 356.44 L 634.94 356.44 L 634.94 371.68 Z M 634.94 352.69 L 630.92 352.69 L 630.92 337.45 L 634.94 337.45 L 634.94 352.69 Z M 643.22 427.96 L 639.20 427.96 L 639.20 412.72 L 643.22 412.72 L 643.22 427.96 Z M 643.22 409.31 L 639.20 409.31 L 639.20 394.07 L 643.22 394.07 L 643.22 409.31 Z M 643.22 390.66 L 639.20 390.66 L 639.20 375.42 L 643.22 375.42 L 643.22 390.66 Z M 643.22 371.68 L 639.20 371.68 L 639.20 356.44 L 643.22 356.44 L 643.22 371.68 Z M 643.22 352.69 L 639.20 352.69 L 639.20 337.45 L 643.22 337.45 L 643.22 352.69 Z" fill="url(#SVGID_4_)" fill-rule="nonzero" group-id="3,43" node-id="370" stroke="none" target-height="169.75" target-width="59.380005" target-x="599.61" target-y="296.25"></path><path d="M 93.96 508.08 L 93.96 418.53 L 104.22 418.53 L 104.22 372.83 L 139.48 357.56 L 139.48 417.81 L 147.21 417.81 L 147.21 508.08 Z" fill="url(#SVGID_5_)" fill-rule="nonzero" group-id="3,43" node-id="372" stroke="none" target-height="150.52002" target-width="53.250008" target-x="93.96" target-y="357.56"></path><path d="M 698.73 491.47 L 667.79 491.47 L 667.79 368.34 L 698.73 383.31 Z" fill="url(#SVGID_6_)" fill-rule="nonzero" group-id="3,43" node-id="374" stroke="none" target-height="123.130005" target-width="30.940002" target-x="667.79" target-y="368.34"></path><path d="M 88.78 194.66 C 88.78 194.66 98.12 169.18 121.08 179.18 C 126.38 173.80 132.94 169.89 141.81 171.65 C 150.68 173.42 156.40 180.06 158.34 184.48 C 161.12 184.35 183.38 185.09 183.38 208.18 C 183.38 231.27 156.44 230.83 154.49 229.00 C 152.09 231.14 140.55 242.75 126.55 229.50 C 123.52 232.09 113.62 243.06 97.97 227.92 C 90.72 230.95 73.49 233.28 70.15 215.49 C 66.81 197.70 83.95 192.68 88.78 194.66 Z" fill="url(#SVGID_7_)" fill-rule="nonzero" group-id="3,43" node-id="376" stroke="none" target-height="73.880005" target-width="116.57001" target-x="66.81" target-y="169.18"></path><path d="M 605.85 157.84 C 605.85 157.84 615.19 132.36 638.15 142.36 C 643.45 136.98 650.01 133.07 658.88 134.83 C 667.75 136.60 673.47 143.24 675.41 147.66 C 678.19 147.53 700.45 148.27 700.45 171.36 C 700.45 194.45 673.51 194.01 671.56 192.18 C 669.16 194.32 657.62 205.93 643.62 192.68 C 640.59 195.27 630.69 206.24 615.04 191.10 C 607.79 194.13 590.56 196.46 587.22 178.67 C 583.88 160.89 601.01 155.86 605.85 157.84 Z" fill="url(#SVGID_8_)" fill-rule="nonzero" group-id="3,43" node-id="378" stroke="none" target-height="73.880005" target-width="116.57001" target-x="583.88" target-y="132.36"></path><path d="M 486.51 212.37 C 486.51 212.37 493.27 193.92 509.89 201.17 C 513.73 197.27 518.47 194.44 524.90 195.72 C 531.32 197.00 535.46 201.81 536.86 205.00 C 538.87 204.91 554.99 205.44 554.99 222.15 C 554.99 238.86 535.49 238.54 534.08 237.22 C 532.34 238.77 523.99 247.17 513.85 237.59 C 511.66 239.46 504.49 247.41 493.17 236.45 C 487.92 238.64 475.45 240.33 473.03 227.45 C 470.61 214.57 483.01 210.93 486.51 212.37 Z" fill="url(#SVGID_9_)" fill-rule="nonzero" group-id="3,43" node-id="380" stroke="none" target-height="53.49002" target-width="84.379974" target-x="470.61002" target-y="193.92"></path><path d="M 771.05 581.58 C 771.05 628.27 731.96 673.06 662.39 706.07 C 592.82 739.09 498.46 757.64 400.07 757.64 C 301.68 757.64 207.32 739.09 137.75 706.07 C 68.18 673.06 29.09 628.27 29.09 581.58 C 29.09 534.89 68.18 490.10 137.75 457.09 C 207.32 424.07 301.68 405.52 400.07 405.52 C 498.46 405.52 592.82 424.07 662.39 457.09 C 731.96 490.10 771.05 534.89 771.05 581.58 Z" fill="url(#SVGID_10_)" fill-rule="nonzero" group-id="3,43" node-id="382" stroke="none" target-height="352.12" target-width="741.9601" target-x="29.089996" target-y="405.52002"></path></g><g node-id="506"><g node-id="509"><path d="M 146.02 560.05 C 146.02 560.05 142.49 565.06 148.39 572.52 C 153.65 579.16 161.96 577.87 164.72 575.74 C 165.57 581.52 172.66 593.70 183.88 586.81 C 194.43 580.34 189.35 570.50 185.98 566.63 C 192.57 564.77 197.48 548.98 182.36 543.53 C 184.60 537.01 185.00 534.06 181.72 528.20 C 178.56 522.56 173.37 521.66 165.09 525.09 L 153.11 530.14 L 145.48 515.90 L 141.40 518.26 L 150.20 531.86 L 138.54 537.71 C 138.54 537.71 128.57 541.61 132.87 552.31 C 136.86 562.23 146.02 560.05 146.02 560.05 Z" fill="url(#SVGID_11_)" fill-rule="nonzero" group-id="3,44,47" node-id="388" stroke="none" target-height="77.79999" target-width="68.90999" target-x="128.57" target-y="515.9"></path><path d="M 125.72 499.33 L 161.78 499.33 C 161.78 499.33 173.43 499.66 175.75 486.35 C 178.30 471.74 167.67 469.73 167.67 469.73 C 167.67 469.73 174.07 466.79 172.68 455.74 C 171.28 444.70 161.56 443.30 157.51 443.81 C 158.17 437.26 159.55 422.43 144.15 422.28 C 129.28 422.13 129.37 437.10 130.48 443.00 C 125.18 443.06 109.17 451.01 120.43 468.45 C 114.30 473.70 111.71 476.73 111.98 484.30 C 112.25 491.88 116.88 499.33 125.72 499.33 Z" fill="url(#SVGID_12_)" fill-rule="nonzero" group-id="3,44,47" node-id="390" stroke="none" target-height="77.53003" target-width="69.130005" target-x="109.17" target-y="422.13"></path><path d="M 160.89 479.10 L 145.51 489.22 L 145.09 479.43 L 154.82 467.97 L 144.94 475.95 L 143.66 446.05 L 142.72 476.15 L 132.34 467.89 L 142.62 479.21 L 142.31 489.28 L 126.49 477.66 L 142.19 492.92 L 141.40 518.27 L 146.75 518.27 L 145.68 493.07 Z" fill="#c6d5e6" fill-rule="nonzero" group-id="3,44,47" node-id="392" stroke="none" target-height="72.22003" target-width="34.4" target-x="126.49" target-y="446.05"></path></g><g node-id="510"><path d="M 668.44 541.74 C 668.44 541.74 665.19 546.36 670.62 553.22 C 675.46 559.34 683.12 558.15 685.66 556.18 C 686.44 561.50 692.98 572.71 703.31 566.38 C 713.02 560.42 708.35 551.36 705.24 547.80 C 711.31 546.09 715.83 531.54 701.91 526.53 C 703.98 520.53 704.35 517.81 701.32 512.42 C 698.41 507.23 693.63 506.39 686.01 509.56 L 674.97 514.21 L 667.94 501.10 L 664.19 503.27 L 672.29 515.79 L 661.56 521.18 C 661.56 521.18 652.38 524.77 656.34 534.63 C 660.00 543.75 668.44 541.74 668.44 541.74 Z" fill="url(#SVGID_13_)" fill-rule="nonzero" group-id="3,44,48" node-id="397" stroke="none" target-height="71.610016" target-width="63.44995" target-x="652.38" target-y="501.1"></path><path d="M 649.75 485.83 L 682.95 485.83 C 682.95 485.83 693.68 486.14 695.81 473.88 C 698.15 460.43 688.37 458.58 688.37 458.58 C 688.37 458.58 694.27 455.87 692.98 445.70 C 691.69 435.53 682.74 434.24 679.01 434.72 C 679.62 428.69 680.89 415.03 666.71 414.89 C 653.02 414.75 653.10 428.53 654.12 433.97 C 649.24 434.02 634.49 441.34 644.87 457.41 C 639.23 462.24 636.84 465.04 637.09 472.00 C 637.34 478.97 641.61 485.83 649.75 485.83 Z" fill="url(#SVGID_14_)" fill-rule="nonzero" group-id="3,44,48" node-id="399" stroke="none" target-height="71.390045" target-width="63.660034" target-x="634.49" target-y="414.74997"></path><path d="M 682.13 467.20 L 667.97 476.52 L 667.59 467.51 L 676.54 456.95 L 667.45 464.30 L 666.27 436.77 L 665.40 464.48 L 655.85 456.88 L 665.31 467.31 L 665.02 476.58 L 650.46 465.87 L 664.92 479.92 L 664.19 503.27 L 669.12 503.27 L 668.12 480.06 Z" fill="#c6d5e6" fill-rule="nonzero" group-id="3,44,48" node-id="401" stroke="none" target-height="66.5" target-width="31.669983" target-x="650.46" target-y="436.77"></path></g><g node-id="511"><path d="M 228.95 451.54 C 228.95 451.54 227.20 454.02 230.12 457.71 C 232.72 461.00 236.83 460.36 238.20 459.30 C 238.62 462.16 242.13 468.18 247.68 464.78 C 252.90 461.58 250.39 456.71 248.72 454.80 C 251.98 453.88 254.41 446.07 246.93 443.38 C 248.04 440.16 248.24 438.70 246.61 435.80 C 245.05 433.01 242.48 432.56 238.39 434.26 L 232.46 436.76 L 228.69 429.72 L 226.67 430.89 L 231.02 437.61 L 225.25 440.50 C 225.25 440.50 220.32 442.43 222.45 447.72 C 224.42 452.62 228.95 451.54 228.95 451.54 Z" fill="url(#SVGID_15_)" fill-rule="nonzero" group-id="3,44,49" node-id="406" stroke="none" target-height="38.460022" target-width="34.08998" target-x="220.32" target-y="429.72"></path><path d="M 218.91 421.51 L 236.74 421.51 C 236.74 421.51 242.50 421.67 243.65 415.09 C 244.91 407.86 239.65 406.87 239.65 406.87 C 239.65 406.87 242.82 405.41 242.13 399.95 C 241.44 394.49 236.63 393.80 234.63 394.05 C 234.96 390.81 235.64 383.47 228.02 383.40 C 220.66 383.33 220.71 390.73 221.26 393.65 C 218.64 393.68 210.72 397.61 216.29 406.24 C 213.26 408.83 211.97 410.34 212.11 414.08 C 212.24 417.83 214.54 421.51 218.91 421.51 Z" fill="url(#SVGID_16_)" fill-rule="nonzero" group-id="3,44,49" node-id="408" stroke="none" target-height="38.340027" target-width="34.189987" target-x="210.72002" target-y="383.33"></path><path d="M 236.30 411.50 L 228.70 416.51 L 228.49 411.67 L 233.30 406.00 L 228.42 409.95 L 227.78 395.16 L 227.32 410.05 L 222.19 405.96 L 227.27 411.56 L 227.11 416.54 L 219.29 410.79 L 227.06 418.34 L 226.66 430.88 L 229.31 430.88 L 228.78 418.42 Z" fill="#c6d5e6" fill-rule="nonzero" group-id="3,44,49" node-id="410" stroke="none" target-height="35.72" target-width="17.01001" target-x="219.29" target-y="395.16"></path></g></g><g node-id="507"><path d="M 351.60 442.17 L 253.68 485.17 L 413.69 704.56 L 710.05 621.51 L 537.26 449.87 Z" fill="url(#SVGID_17_)" fill-rule="nonzero" group-id="3,45" node-id="415" stroke="none" target-height="262.38998" target-width="456.36993" target-x="253.67998" target-y="442.17"></path><path d="M 351.30 265.37 L 253.68 300.67 L 253.68 485.17 L 351.30 449.87 Z" fill="url(#SVGID_18_)" fill-rule="nonzero" group-id="3,45" node-id="417" stroke="none" target-height="219.80002" target-width="97.62001" target-x="253.67998" target-y="265.37"></path><path d="M 351.30 265.37 L 439.64 300.67 L 439.64 485.17 L 351.30 449.87 Z" fill="url(#SVGID_19_)" fill-rule="nonzero" group-id="3,45" node-id="419" stroke="none" target-height="219.80002" target-width="88.34003" target-x="351.3" target-y="265.37"></path><path d="M 537.26 265.37 L 439.64 300.67 L 439.64 485.17 L 537.26 449.87 Z" fill="url(#SVGID_20_)" fill-rule="nonzero" group-id="3,45" node-id="421" stroke="none" target-height="219.80002" target-width="97.619995" target-x="439.64" target-y="265.37"></path><path d="M 351.30 372.28 C 349.83 371.97 348.27 371.75 346.60 371.62 C 329.10 370.24 313.46 390.51 300.48 410.51 C 290.25 426.28 265.08 416.00 253.67 410.21 L 253.67 414.72 C 266.70 421.10 292.30 430.46 303.83 412.68 C 321.32 385.72 334.00 374.63 346.28 375.60 C 348.09 375.74 349.75 376.00 351.29 376.37 L 351.29 372.28 Z" fill="url(#SVGID_21_)" fill-rule="nonzero" group-id="3,45" node-id="423" stroke="none" target-height="60.22" target-width="97.630005" target-x="253.66998" target-y="370.24"></path><path d="M 439.64 415.74 C 428.90 424.10 419.22 426.37 404.18 424.85 C 386.27 423.04 380.21 414.48 374.73 398.26 C 370.03 384.35 364.27 374.98 351.30 372.28 L 351.30 376.37 C 361.95 378.90 366.62 386.74 370.95 399.54 C 375.74 413.71 381.85 426.61 403.78 428.83 C 406.75 429.13 409.53 429.29 412.17 429.29 C 422.80 429.29 431.10 426.72 439.64 420.70 L 439.64 415.74 Z" fill="url(#SVGID_22_)" fill-rule="nonzero" group-id="3,45" node-id="425" stroke="none" target-height="57.01001" target-width="88.34003" target-x="351.3" target-y="372.28"></path><path d="M 537.26 393.50 C 529.51 380.34 521.24 375.51 507.93 375.26 C 507.74 375.26 507.56 375.25 507.37 375.25 C 483.37 375.25 452.80 403.65 446.87 409.39 C 444.37 411.81 441.98 413.92 439.64 415.74 L 439.64 420.70 C 442.89 418.41 446.18 415.62 449.65 412.27 C 465.45 396.98 489.96 379.26 507.38 379.26 C 507.54 379.26 507.70 379.26 507.85 379.26 C 521.58 379.52 529.08 385.15 537.26 402.01 L 537.26 393.50 Z" fill="url(#SVGID_23_)" fill-rule="nonzero" group-id="3,45" node-id="427" stroke="none" target-height="45.44998" target-width="97.619995" target-x="439.64" target-y="375.25"></path><path d="M 383.64 198.79 C 350.58 198.79 323.78 225.71 323.78 258.91 C 323.78 300.26 359.79 350.03 376.22 361.02 C 380.16 361.54 382.16 361.14 383.65 361.03 C 394.26 359.24 443.51 308.99 443.51 258.92 C 443.50 225.71 416.70 198.79 383.64 198.79 Z M 383.85 299.25 C 361.66 299.25 343.67 281.26 343.67 259.07 C 343.67 236.88 361.66 218.89 383.85 218.89 C 406.04 218.89 424.03 236.88 424.03 259.07 C 424.03 281.26 406.04 299.25 383.85 299.25 Z" fill="url(#SVGID_24_)" fill-rule="nonzero" group-id="3,45" node-id="429" stroke="none" target-height="162.75002" target-width="119.73001" target-x="323.78" target-y="198.79"></path><path d="M 376.33 198.79 C 343.27 198.79 316.47 225.71 316.47 258.91 C 316.47 306.03 365.80 361.02 376.33 361.02 C 386.94 359.23 436.19 308.98 436.19 258.91 C 436.20 225.71 409.39 198.79 376.33 198.79 Z M 376.12 299.25 C 353.93 299.25 335.94 281.26 335.94 259.07 C 335.94 236.88 353.93 218.89 376.12 218.89 C 398.31 218.89 416.30 236.88 416.30 259.07 C 416.30 281.26 398.31 299.25 376.12 299.25 Z" fill="url(#SVGID_25_)" fill-rule="nonzero" group-id="3,45" node-id="431" stroke="none" target-height="162.23003" target-width="119.73001" target-x="316.47" target-y="198.79"></path></g><g node-id="508"><path d="M 465.18 525.94 C 465.18 525.94 465.23 527.22 461.31 529.07 C 463.44 531.91 467.88 533.26 467.88 533.26 L 471.16 527.99 L 465.18 525.94 Z" fill="#ffbe92" fill-rule="nonzero" group-id="3,46" node-id="435" stroke="none" target-height="7.3200073" target-width="9.850006" target-x="461.31" target-y="525.94"></path><path d="M 467.45 537.47 L 450.71 527.33 C 450.71 527.33 452.90 521.79 459.37 525.99 C 460.68 526.84 462.69 526.01 463.76 526.71 C 464.89 530.50 469.48 532.77 469.48 532.77 L 467.45 537.47 Z" fill="#f8b62d" fill-rule="nonzero" group-id="3,46" node-id="437" stroke="none" target-height="15.679993" target-width="18.77002" target-x="450.71" target-y="521.79"></path><path d="M 467.12 538.77 L 459.35 534.96 L 459.89 533.45 L 450.06 528.33 L 450.56 527.08 L 468.31 536.09 Z" fill="#e6e8e8" fill-rule="nonzero" group-id="3,46" node-id="439" stroke="none" target-height="11.690002" target-width="18.25003" target-x="450.06" target-y="527.08"></path><path d="M 500.40 527.83 C 500.40 527.83 502.31 528.43 501.27 532.66 C 504.81 532.79 507.75 530.35 507.75 530.35 L 505.75 524.46 L 500.40 527.83 Z" fill="#ffbe92" fill-rule="nonzero" group-id="3,46" node-id="441" stroke="none" target-height="8.329956" target-width="7.350006" target-x="500.4" target-y="524.46"></path><path d="M 510.73 533.34 L 492.35 540.00 C 492.35 540.00 489.46 534.80 496.78 532.40 C 498.26 531.92 498.89 529.82 500.11 529.43 C 503.75 530.94 508.40 528.79 508.40 528.79 L 510.73 533.34 Z" fill="#f8b62d" fill-rule="nonzero" group-id="3,46" node-id="443" stroke="none" target-height="11.210022" target-width="21.269989" target-x="489.46" target-y="528.79"></path><path d="M 511.53 534.41 L 503.69 538.07 L 502.86 536.69 L 492.71 541.13 L 492.06 539.95 L 510.22 531.80 Z" fill="#e6e8e8" fill-rule="nonzero" group-id="3,46" node-id="445" stroke="none" target-height="9.330017" target-width="19.46997" target-x="492.06003" target-y="531.8"></path><path d="M 476.05 477.61 C 476.05 477.61 472.94 492.52 471.79 500.86 C 470.63 509.20 464.46 526.60 464.46 526.60 L 469.58 530.89 C 469.58 530.89 480.53 510.86 481.21 508.43 C 481.89 506.00 487.21 500.09 487.21 500.09 L 492.90 477.29 L 476.05 477.61 Z" fill="url(#SVGID_26_)" fill-rule="nonzero" group-id="3,46" node-id="447" stroke="none" target-height="53.600006" target-width="28.440002" target-x="464.46" target-y="477.29"></path><path d="M 475.21 477.00 C 475.21 477.00 476.54 488.17 482.49 498.00 C 488.44 507.83 501.24 529.21 501.24 529.21 L 507.27 527.91 C 507.27 527.91 500.90 508.20 497.27 500.74 C 493.64 493.29 494.74 488.81 494.95 486.83 C 495.16 484.84 497.16 482.36 494.74 476.84 C 492.32 471.31 475.21 477.00 475.21 477.00 Z" fill="url(#SVGID_27_)" fill-rule="nonzero" group-id="3,46" node-id="449" stroke="none" target-height="57.900024" target-width="32.060028" target-x="475.20996" target-y="471.31"></path><path d="M 481.78 423.59 C 481.78 423.59 479.03 427.20 480.95 432.92 C 481.44 434.02 482.38 435.92 484.99 434.49 C 485.22 434.44 485.37 434.77 485.42 435.07 C 485.47 435.37 486.18 440.65 486.18 440.65 L 493.68 440.70 C 493.68 440.70 490.22 427.64 490.28 425.08 C 490.31 423.76 488.91 421.45 486.12 421.32 C 483.35 421.19 481.78 423.59 481.78 423.59 Z" fill="#ffbe92" fill-rule="nonzero" group-id="3,46" node-id="451" stroke="none" target-height="19.51001" target-width="14.649994" target-x="479.03" target-y="421.19"></path><path d="M 483.41 418.20 C 483.41 418.20 482.65 416.76 480.55 417.81 C 478.45 418.85 479.45 420.71 479.53 421.17 C 479.60 421.63 479.31 421.99 478.69 421.74 C 478.07 421.49 476.97 421.31 476.20 422.72 C 475.44 424.13 477.05 427.87 479.51 427.50 C 481.96 427.13 483.19 425.87 484.08 424.98 C 484.97 424.09 486.67 423.02 486.92 424.08 C 487.17 425.14 487.10 427.35 487.59 427.02 C 488.05 426.71 487.78 424.44 489.15 424.44 C 490.52 424.44 490.41 426.40 489.52 427.45 C 489.14 427.90 489.16 427.82 489.29 428.27 C 489.42 428.73 489.39 429.04 489.88 429.58 C 490.38 430.13 490.58 430.42 490.99 429.63 C 491.40 428.84 492.16 427.33 491.76 424.13 C 491.59 423.23 491.88 423.18 492.34 422.67 C 492.81 422.16 493.48 421.37 492.80 420.22 C 492.12 419.07 491.47 419.21 490.62 419.25 C 489.77 419.29 489.81 418.98 489.80 418.47 C 489.79 417.96 489.17 416.02 487.49 416.05 C 485.81 416.08 485.08 417.04 484.65 417.84 C 484.22 418.64 483.68 418.47 483.41 418.20 Z" fill="#171c61" fill-rule="nonzero" group-id="3,46" node-id="453" stroke="none" target-height="14.400024" target-width="18.040009" target-x="475.44" target-y="416.02"></path><path d="M 495.43 451.70 C 495.43 451.70 496.45 435.29 491.22 435.70 C 485.99 436.11 480.09 436.45 476.96 450.58 C 475.91 455.93 476.09 464.15 475.32 468.38 C 474.55 472.61 472.13 477.35 474.21 479.11 C 476.28 480.87 488.62 481.95 491.90 481.73 C 495.18 481.51 497.56 481.66 497.59 477.02 C 497.63 472.38 495.15 460.49 495.43 451.70 Z" fill="url(#SVGID_28_)" fill-rule="nonzero" group-id="3,46" node-id="455" stroke="none" target-height="46.660034" target-width="25.50003" target-x="472.12997" target-y="435.28998"></path><path d="M 465.17 442.20 C 465.08 441.97 462.95 434.35 462.58 433.03 C 462.55 432.92 462.61 432.81 462.71 432.77 C 463.03 432.66 463.67 432.44 463.98 432.34 C 464.08 432.31 464.18 432.37 464.21 432.48 L 466.74 441.54 L 466.85 442.57 L 465.17 442.20 Z" fill="#171c61" fill-rule="nonzero" group-id="3,46" node-id="457" stroke="none" target-height="10.26001" target-width="4.3000183" target-x="462.55" target-y="432.31"></path><path d="M 481.46 445.40 C 481.46 445.40 478.23 449.68 477.50 450.91 C 476.77 452.15 475.72 451.64 475.16 451.04 C 474.40 450.21 469.84 445.91 469.29 445.37 C 468.74 444.83 468.68 444.78 468.61 444.03 C 468.53 443.28 467.78 441.12 467.20 439.95 C 466.62 438.77 466.62 437.74 466.14 438.50 C 465.65 439.26 466.14 440.65 466.12 441.04 C 466.10 441.44 465.13 441.41 464.80 440.61 C 464.47 439.81 464.47 439.88 464.51 439.10 C 464.56 438.32 464.21 437.38 463.48 438.11 C 462.75 438.84 462.15 442.31 462.87 443.82 C 463.59 445.33 464.34 445.68 465.11 446.03 C 465.88 446.38 466.28 447.16 466.99 448.38 C 467.70 449.60 472.84 457.19 473.50 457.95 C 474.24 458.80 475.01 459.15 476.96 458.35 C 478.72 457.62 482.63 455.50 486.15 451.06 C 484.31 448.51 481.46 445.40 481.46 445.40 Z" fill="#ffbe92" fill-rule="nonzero" group-id="3,46" node-id="459" stroke="none" target-height="21.769989" target-width="24" target-x="462.15" target-y="437.38"></path><path d="M 479.50 446.41 L 485.35 454.11 C 485.35 454.11 494.52 446.84 489.65 441.71 C 484.78 436.58 479.50 446.41 479.50 446.41 Z" fill="url(#SVGID_29_)" fill-rule="nonzero" group-id="3,46" node-id="461" stroke="none" target-height="17.53003" target-width="15.019989" target-x="479.5" target-y="436.58"></path></g></g></svg>