<?xml version="1.0" standalone="no"?><!DOCTYPE svg PUBLIC "-//W3C//DTD SVG 1.1//EN" "http://www.w3.org/Graphics/SVG/1.1/DTD/svg11.dtd"><svg height="800" node-id="1" sillyvg="true" template-height="800" template-width="800" version="1.1" viewBox="0 0 800 800" width="800" xmlns="http://www.w3.org/2000/svg" xmlns:xlink="http://www.w3.org/1999/xlink"><defs node-id="207"><linearGradient gradientUnits="objectBoundingBox" id="SVGID_1_" node-id="20" spreadMethod="pad" x1="254.5302" x2="254.5302" y1="418.4932" y2="321.705"><stop offset="0.0000005358273" stop-color="#ffffff"></stop><stop offset="1" stop-color="#dbe3ee"></stop></linearGradient><linearGradient gradientUnits="objectBoundingBox" id="SVGID_2_" node-id="24" spreadMethod="pad" x1="189.9132" x2="189.9132" y1="476.4851" y2="259.9961"><stop offset="0.0000005358273" stop-color="#ffffff"></stop><stop offset="1" stop-color="#dbe3ee"></stop></linearGradient><linearGradient gradientUnits="objectBoundingBox" id="SVGID_3_" node-id="28" spreadMethod="pad" x1="565.6948" x2="565.6948" y1="433.8062" y2="277.3255"><stop offset="0.0000005358273" stop-color="#ffffff"></stop><stop offset="1" stop-color="#dbe3ee"></stop></linearGradient><linearGradient gradientUnits="objectBoundingBox" id="SVGID_4_" node-id="32" spreadMethod="pad" x1="628.2197" x2="628.2197" y1="456.4763" y2="286.7356"><stop offset="0.0000005358273" stop-color="#ffffff"></stop><stop offset="1" stop-color="#dbe3ee"></stop></linearGradient><linearGradient gradientUnits="objectBoundingBox" id="SVGID_5_" node-id="36" spreadMethod="pad" x1="119.5071" x2="119.5071" y1="498.5547" y2="348.0414"><stop offset="0.0000005358273" stop-color="#ffffff"></stop><stop offset="1" stop-color="#edf1f9"></stop></linearGradient><linearGradient gradientUnits="objectBoundingBox" id="SVGID_6_" node-id="40" spreadMethod="pad" x1="682.1803" x2="682.1803" y1="481.9493" y2="358.8171"><stop offset="0.0000005358273" stop-color="#ffffff"></stop><stop offset="1" stop-color="#edf1f9"></stop></linearGradient><linearGradient gradientUnits="objectBoundingBox" id="SVGID_7_" node-id="44" spreadMethod="pad" x1="125.4708" x2="125.4708" y1="226.2475" y2="161.7062"><stop offset="0.2332" stop-color="#ffffff"></stop><stop offset="1" stop-color="#d3dfee"></stop></linearGradient><linearGradient gradientUnits="objectBoundingBox" id="SVGID_8_" node-id="48" spreadMethod="pad" x1="642.5392" x2="642.5392" y1="189.427" y2="124.8858"><stop offset="0.2332" stop-color="#ffffff"></stop><stop offset="1" stop-color="#d3dfee"></stop></linearGradient><linearGradient gradientUnits="objectBoundingBox" id="SVGID_9_" node-id="52" spreadMethod="pad" x1="512.7682" x2="512.7682" y1="232.6005" y2="185.8833"><stop offset="0.2332" stop-color="#ffffff"></stop><stop offset="1" stop-color="#d3dfee"></stop></linearGradient><linearGradient gradientUnits="objectBoundingBox" id="SVGID_10_" node-id="56" spreadMethod="pad" x1="398.9856" x2="398.9856" y1="748.1253" y2="395.9964"><stop offset="0.4065" stop-color="#ffffff"></stop><stop offset="1" stop-color="#dae4ef"></stop></linearGradient><linearGradient gradientUnits="objectBoundingBox" id="SVGID_11_" node-id="62" spreadMethod="pad" x1="189.9151" x2="138.4789" y1="571.5811" y2="510.2818"><stop offset="0.4034" stop-color="#eff4f8"></stop><stop offset="1" stop-color="#d4dfec"></stop></linearGradient><linearGradient gradientUnits="objectBoundingBox" id="SVGID_12_" node-id="66" spreadMethod="pad" x1="110.8673" x2="175.0541" y1="451.2908" y2="451.2908"><stop offset="0.1022" stop-color="#f0f5f8"></stop><stop offset="1" stop-color="#b4c7dc"></stop></linearGradient><linearGradient gradientUnits="objectBoundingBox" id="SVGID_13_" node-id="72" spreadMethod="pad" x1="708.7772" x2="661.4118" y1="551.6085" y2="495.1606"><stop offset="0.4034" stop-color="#eff4f8"></stop><stop offset="1" stop-color="#d4dfec"></stop></linearGradient><linearGradient gradientUnits="objectBoundingBox" id="SVGID_14_" node-id="76" spreadMethod="pad" x1="635.9855" x2="695.0924" y1="440.8383" y2="440.8383"><stop offset="0.1022" stop-color="#f0f5f8"></stop><stop offset="1" stop-color="#b4c7dc"></stop></linearGradient><linearGradient gradientUnits="objectBoundingBox" id="SVGID_15_" node-id="82" spreadMethod="pad" x1="250.1146" x2="224.6733" y1="452.4378" y2="422.1181"><stop offset="0.0000001438503" stop-color="#eaeff6"></stop><stop offset="1" stop-color="#cddae9"></stop></linearGradient><linearGradient gradientUnits="objectBoundingBox" id="SVGID_16_" node-id="86" spreadMethod="pad" x1="211.0161" x2="242.7641" y1="392.94" y2="392.94"><stop offset="0.1022" stop-color="#f0f5f8"></stop><stop offset="1" stop-color="#b4c7dc"></stop></linearGradient><linearGradient gradientUnits="objectBoundingBox" id="SVGID_17_" node-id="92" spreadMethod="pad" x1="561.6849" x2="485.4498" y1="701.7949" y2="435.9316"><stop offset="0.1648" stop-color="#ffffff"></stop><stop offset="0.9362" stop-color="#bbcbe0"></stop></linearGradient><linearGradient gradientUnits="objectBoundingBox" id="SVGID_18_" node-id="96" spreadMethod="pad" x1="245.9272" x2="318.1417" y1="251.8184" y2="251.8184"><stop offset="0" stop-color="#eff3f9"></stop><stop offset="1" stop-color="#b6c9de"></stop></linearGradient><linearGradient gradientUnits="objectBoundingBox" id="SVGID_19_" node-id="100" spreadMethod="pad" x1="285.3886" x2="461.2407" y1="359.5953" y2="359.5953"><stop offset="0" stop-color="#eff3f9"></stop><stop offset="1" stop-color="#b6c9de"></stop></linearGradient><linearGradient gradientUnits="objectBoundingBox" id="SVGID_20_" node-id="104" spreadMethod="pad" x1="350.5733" x2="475.0167" y1="433.4219" y2="433.4219"><stop offset="0" stop-color="#eff3f9"></stop><stop offset="1" stop-color="#b6c9de"></stop></linearGradient><linearGradient gradientUnits="objectBoundingBox" id="SVGID_21_" node-id="108" spreadMethod="pad" x1="409.8321" x2="566.8679" y1="448.2352" y2="448.2352"><stop offset="0" stop-color="#eff3f9"></stop><stop offset="1" stop-color="#b6c9de"></stop></linearGradient><linearGradient gradientUnits="objectBoundingBox" id="SVGID_22_" node-id="112" spreadMethod="pad" x1="333.0426" x2="443.659" y1="274.4109" y2="274.4109"><stop offset="0.1453" stop-color="#ffffff"></stop><stop offset="1" stop-color="#d8e3ef"></stop></linearGradient><linearGradient gradientUnits="objectBoundingBox" id="SVGID_23_" node-id="116" spreadMethod="pad" x1="333.0426" x2="443.659" y1="304.5341" y2="304.5341"><stop offset="0.1453" stop-color="#ffffff"></stop><stop offset="1" stop-color="#d8e3ef"></stop></linearGradient><linearGradient gradientUnits="objectBoundingBox" id="SVGID_24_" node-id="120" spreadMethod="pad" x1="333.0426" x2="443.659" y1="334.6573" y2="334.6573"><stop offset="0.1453" stop-color="#ffffff"></stop><stop offset="1" stop-color="#d8e3ef"></stop></linearGradient><linearGradient gradientUnits="objectBoundingBox" id="SVGID_25_" node-id="124" spreadMethod="pad" x1="469.8316" x2="554.5223" y1="414.1628" y2="414.1628"><stop offset="0.1453" stop-color="#ffffff"></stop><stop offset="1" stop-color="#d8e3ef"></stop></linearGradient><linearGradient gradientUnits="objectBoundingBox" id="SVGID_26_" node-id="128" spreadMethod="pad" x1="469.8316" x2="554.5223" y1="444.286" y2="444.286"><stop offset="0.1453" stop-color="#ffffff"></stop><stop offset="1" stop-color="#d8e3ef"></stop></linearGradient><linearGradient gradientUnits="objectBoundingBox" id="SVGID_27_" node-id="132" spreadMethod="pad" x1="469.8316" x2="554.5223" y1="474.4092" y2="474.4092"><stop offset="0.1453" stop-color="#ffffff"></stop><stop offset="1" stop-color="#d8e3ef"></stop></linearGradient><linearGradient gradientUnits="objectBoundingBox" id="SVGID_28_" node-id="143" spreadMethod="pad" x1="387.6124" x2="415.4189" y1="371.2961" y2="371.2961"><stop offset="0" stop-color="#4ea2f4"></stop><stop offset="0.6903" stop-color="#1e77cf"></stop></linearGradient><linearGradient gradientUnits="objectBoundingBox" id="SVGID_29_" node-id="147" spreadMethod="pad" x1="394.7558" x2="423.213" y1="397.7325" y2="348.4432"><stop offset="0" stop-color="#78c8ff"></stop><stop offset="0.6903" stop-color="#2a80e2"></stop></linearGradient><linearGradient gradientUnits="objectBoundingBox" id="SVGID_30_" node-id="154" spreadMethod="pad" x1="419.3592" x2="419.3592" y1="343.023" y2="324.097"><stop offset="0" stop-color="#f2a319"></stop><stop offset="0.4796" stop-color="#ffc552"></stop></linearGradient><linearGradient gradientUnits="objectBoundingBox" id="SVGID_31_" node-id="158" spreadMethod="pad" x1="428.6318" x2="428.6318" y1="363.9151" y2="319.7108"><stop offset="0" stop-color="#f2a319"></stop><stop offset="0.4796" stop-color="#ffc552"></stop></linearGradient><linearGradient gradientUnits="objectBoundingBox" id="SVGID_32_" node-id="162" spreadMethod="pad" x1="421.3716" x2="393.861" y1="352.5286" y2="352.5286"><stop offset="0" stop-color="#171c61"></stop><stop offset="0.7869" stop-color="#272f7c"></stop></linearGradient><linearGradient gradientUnits="objectBoundingBox" id="SVGID_33_" node-id="166" spreadMethod="pad" x1="406.6907" x2="421.5471" y1="352.744" y2="352.744"><stop offset="0" stop-color="#171c61"></stop><stop offset="0.7869" stop-color="#272f7c"></stop></linearGradient><linearGradient gradientUnits="objectBoundingBox" id="SVGID_34_" node-id="171" spreadMethod="pad" x1="438.1213" x2="438.1213" y1="342.7307" y2="323.8046"><stop offset="0" stop-color="#f2a319"></stop><stop offset="0.4796" stop-color="#ffc552"></stop></linearGradient><linearGradient gradientUnits="objectBoundingBox" id="SVGID_35_" node-id="175" spreadMethod="pad" x1="407.2742" x2="385.0692" y1="345.3401" y2="345.3401"><stop offset="0" stop-color="#171c61"></stop><stop offset="0.7869" stop-color="#272f7c"></stop></linearGradient></defs><g node-id="563"><g node-id="591"><path d="M 268.99 325.11 L 268.99 321.70 L 239.49 321.70 L 239.49 325.66 L 233.01 325.66 L 233.01 418.49 L 276.06 418.49 L 276.06 325.11 L 268.99 325.11 Z M 272.33 407.85 L 236.29 407.85 L 236.29 405.10 L 272.33 405.10 L 272.33 407.85 Z M 272.33 395.17 L 236.29 395.17 L 236.29 392.42 L 272.33 392.42 L 272.33 395.17 Z M 272.33 382.49 L 236.29 382.49 L 236.29 379.74 L 272.33 379.74 L 272.33 382.49 Z M 272.33 370.15 L 236.29 370.15 L 236.29 367.40 L 272.33 367.40 L 272.33 370.15 Z M 272.33 357.84 L 236.29 357.84 L 236.29 355.09 L 272.33 355.09 L 272.33 357.84 Z M 272.33 345.16 L 236.29 345.16 L 236.29 342.41 L 272.33 342.41 L 272.33 345.16 Z M 272.33 332.82 L 236.29 332.82 L 236.29 330.07 L 272.33 330.07 L 272.33 332.82 Z" fill="url(#SVGID_1_)" fill-rule="nonzero" group-id="15,43" node-id="436" stroke="none" target-height="96.78998" target-width="43.050003" target-x="233.01" target-y="321.7"></path><path d="M 211.00 376.92 L 211.00 268.74 L 178.25 268.74 L 178.25 260.00 L 164.39 260.00 L 164.39 313.33 L 160.66 313.33 L 160.66 476.49 L 219.17 476.49 L 219.17 376.93 L 211.00 376.93 Z M 186.51 408.73 L 178.25 408.73 L 178.25 400.72 L 186.51 400.72 L 186.51 408.73 Z M 186.51 396.20 L 178.25 396.20 L 178.25 388.19 L 186.51 388.19 L 186.51 396.20 Z M 186.51 383.73 L 178.25 383.73 L 178.25 375.72 L 186.51 375.72 L 186.51 383.73 Z M 186.51 371.29 L 178.25 371.29 L 178.25 363.28 L 186.51 363.28 L 186.51 371.29 Z M 186.51 358.76 L 178.25 358.76 L 178.25 350.75 L 186.51 350.75 L 186.51 358.76 Z M 186.51 333.76 L 178.25 333.76 L 178.25 325.75 L 186.51 325.75 L 186.51 333.76 Z M 186.51 321.23 L 178.25 321.23 L 178.25 313.22 L 186.51 313.22 L 186.51 321.23 Z M 186.51 308.75 L 178.25 308.75 L 178.25 300.74 L 186.51 300.74 L 186.51 308.75 Z M 186.51 296.32 L 178.25 296.32 L 178.25 288.31 L 186.51 288.31 L 186.51 296.32 Z M 186.51 283.79 L 178.25 283.79 L 178.25 275.78 L 186.51 275.78 L 186.51 283.79 Z M 198.86 408.73 L 190.60 408.73 L 190.60 400.72 L 198.86 400.72 L 198.86 408.73 Z M 198.86 396.20 L 190.60 396.20 L 190.60 388.19 L 198.86 388.19 L 198.86 396.20 Z M 198.86 383.73 L 190.60 383.73 L 190.60 375.72 L 198.86 375.72 L 198.86 383.73 Z M 198.86 371.29 L 190.60 371.29 L 190.60 363.28 L 198.86 363.28 L 198.86 371.29 Z M 198.86 358.76 L 190.60 358.76 L 190.60 350.75 L 198.86 350.75 L 198.86 358.76 Z M 198.86 333.76 L 190.60 333.76 L 190.60 325.75 L 198.86 325.75 L 198.86 333.76 Z M 198.86 321.23 L 190.60 321.23 L 190.60 313.22 L 198.86 313.22 L 198.86 321.23 Z M 198.86 308.75 L 190.60 308.75 L 190.60 300.74 L 198.86 300.74 L 198.86 308.75 Z M 198.86 296.32 L 190.60 296.32 L 190.60 288.31 L 198.86 288.31 L 198.86 296.32 Z M 198.86 283.79 L 190.60 283.79 L 190.60 275.78 L 198.86 275.78 L 198.86 283.79 Z" fill="url(#SVGID_2_)" fill-rule="nonzero" group-id="15,43" node-id="438" stroke="none" target-height="216.48996" target-width="58.509995" target-x="160.66" target-y="260"></path><path d="M 533.31 433.81 C 533.67 429.16 533.31 277.33 533.31 277.33 L 551.84 277.33 L 551.84 311.04 L 581.34 311.04 L 581.34 381.49 L 598.07 381.49 L 598.07 433.81 L 533.31 433.81 Z" fill="url(#SVGID_3_)" fill-rule="nonzero" group-id="15,43" node-id="440" stroke="none" target-height="156.47998" target-width="64.76001" target-x="533.31" target-y="277.33"></path><path d="M 654.53 365.66 L 654.53 360.81 L 649.53 360.81 L 649.53 318.48 L 637.33 318.48 L 637.33 313.78 L 629.10 313.78 L 629.10 306.87 L 624.81 306.87 L 624.81 286.73 L 621.72 286.73 L 621.72 307.01 L 617.78 307.01 L 617.78 313.92 L 605.58 313.92 L 605.58 325.24 L 598.53 325.24 L 598.53 456.47 L 657.91 456.47 L 657.91 365.65 L 654.53 365.65 Z M 609.02 418.44 L 605.00 418.44 L 605.00 403.20 L 609.02 403.20 L 609.02 418.44 Z M 609.02 399.79 L 605.00 399.79 L 605.00 384.55 L 609.02 384.55 L 609.02 399.79 Z M 609.02 381.14 L 605.00 381.14 L 605.00 365.90 L 609.02 365.90 L 609.02 381.14 Z M 609.02 362.16 L 605.00 362.16 L 605.00 346.92 L 609.02 346.92 L 609.02 362.16 Z M 609.02 343.17 L 605.00 343.17 L 605.00 327.93 L 609.02 327.93 L 609.02 343.17 Z M 617.29 418.44 L 613.27 418.44 L 613.27 403.20 L 617.29 403.20 L 617.29 418.44 Z M 617.29 399.79 L 613.27 399.79 L 613.27 384.55 L 617.29 384.55 L 617.29 399.79 Z M 617.29 381.14 L 613.27 381.14 L 613.27 365.90 L 617.29 365.90 L 617.29 381.14 Z M 617.29 362.16 L 613.27 362.16 L 613.27 346.92 L 617.29 346.92 L 617.29 362.16 Z M 617.29 343.17 L 613.27 343.17 L 613.27 327.93 L 617.29 327.93 L 617.29 343.17 Z M 625.57 418.44 L 621.55 418.44 L 621.55 403.20 L 625.57 403.20 L 625.57 418.44 Z M 625.57 399.79 L 621.55 399.79 L 621.55 384.55 L 625.57 384.55 L 625.57 399.79 Z M 625.57 381.14 L 621.55 381.14 L 621.55 365.90 L 625.57 365.90 L 625.57 381.14 Z M 625.57 362.16 L 621.55 362.16 L 621.55 346.92 L 625.57 346.92 L 625.57 362.16 Z M 625.57 343.17 L 621.55 343.17 L 621.55 327.93 L 625.57 327.93 L 625.57 343.17 Z M 633.85 418.44 L 629.83 418.44 L 629.83 403.20 L 633.85 403.20 L 633.85 418.44 Z M 633.85 399.79 L 629.83 399.79 L 629.83 384.55 L 633.85 384.55 L 633.85 399.79 Z M 633.85 381.14 L 629.83 381.14 L 629.83 365.90 L 633.85 365.90 L 633.85 381.14 Z M 633.85 362.16 L 629.83 362.16 L 629.83 346.92 L 633.85 346.92 L 633.85 362.16 Z M 633.85 343.17 L 629.83 343.17 L 629.83 327.93 L 633.85 327.93 L 633.85 343.17 Z M 642.13 418.44 L 638.11 418.44 L 638.11 403.20 L 642.13 403.20 L 642.13 418.44 Z M 642.13 399.79 L 638.11 399.79 L 638.11 384.55 L 642.13 384.55 L 642.13 399.79 Z M 642.13 381.14 L 638.11 381.14 L 638.11 365.90 L 642.13 365.90 L 642.13 381.14 Z M 642.13 362.16 L 638.11 362.16 L 638.11 346.92 L 642.13 346.92 L 642.13 362.16 Z M 642.13 343.17 L 638.11 343.17 L 638.11 327.93 L 642.13 327.93 L 642.13 343.17 Z" fill="url(#SVGID_4_)" fill-rule="nonzero" group-id="15,43" node-id="442" stroke="none" target-height="169.73999" target-width="59.379944" target-x="598.53" target-y="286.73"></path><path d="M 92.88 498.55 L 92.88 409.01 L 103.14 409.01 L 103.14 363.31 L 138.40 348.04 L 138.40 408.29 L 146.13 408.29 L 146.13 498.55 Z" fill="url(#SVGID_5_)" fill-rule="nonzero" group-id="15,43" node-id="444" stroke="none" target-height="150.50998" target-width="53.250008" target-x="92.88" target-y="348.04004"></path><path d="M 697.65 481.95 L 666.71 481.95 L 666.71 358.82 L 697.65 373.79 Z" fill="url(#SVGID_6_)" fill-rule="nonzero" group-id="15,43" node-id="446" stroke="none" target-height="123.130005" target-width="30.940002" target-x="666.71" target-y="358.82"></path><path d="M 87.70 185.14 C 87.70 185.14 97.04 159.66 120.00 169.66 C 125.30 164.28 131.86 160.37 140.73 162.13 C 149.60 163.90 155.32 170.54 157.26 174.96 C 160.04 174.83 182.30 175.57 182.30 198.66 C 182.30 221.75 155.36 221.31 153.41 219.48 C 151.01 221.62 139.47 233.23 125.47 219.98 C 122.44 222.57 112.54 233.54 96.89 218.40 C 89.64 221.43 72.41 223.76 69.07 205.97 C 65.73 188.19 82.86 183.16 87.70 185.14 Z" fill="url(#SVGID_7_)" fill-rule="nonzero" group-id="15,43" node-id="448" stroke="none" target-height="73.87999" target-width="116.57" target-x="65.73" target-y="159.66"></path><path d="M 604.77 148.32 C 604.77 148.32 614.11 122.84 637.07 132.84 C 642.37 127.46 648.93 123.55 657.80 125.31 C 666.67 127.08 672.39 133.72 674.33 138.14 C 677.11 138.01 699.37 138.75 699.37 161.84 C 699.37 184.93 672.43 184.49 670.48 182.66 C 668.08 184.80 656.54 196.41 642.54 183.16 C 639.51 185.75 629.61 196.72 613.96 181.58 C 606.71 184.61 589.48 186.94 586.14 169.15 C 582.80 151.37 599.93 146.34 604.77 148.32 Z" fill="url(#SVGID_8_)" fill-rule="nonzero" group-id="15,43" node-id="450" stroke="none" target-height="73.88001" target-width="116.56995" target-x="582.8" target-y="122.83999"></path><path d="M 485.43 202.84 C 485.43 202.84 492.19 184.39 508.81 191.64 C 512.65 187.74 517.39 184.91 523.82 186.19 C 530.24 187.47 534.38 192.28 535.78 195.47 C 537.79 195.38 553.91 195.91 553.91 212.62 C 553.91 229.33 534.41 229.01 533.00 227.69 C 531.26 229.24 522.91 237.64 512.77 228.06 C 510.58 229.93 503.41 237.88 492.09 226.92 C 486.84 229.11 474.37 230.80 471.95 217.92 C 469.52 205.05 481.93 201.41 485.43 202.84 Z" fill="url(#SVGID_9_)" fill-rule="nonzero" group-id="15,43" node-id="452" stroke="none" target-height="53.49002" target-width="84.389984" target-x="469.52" target-y="184.39"></path><path d="M 769.97 572.06 C 769.97 618.75 730.88 663.54 661.31 696.55 C 591.74 729.57 497.38 748.12 398.99 748.12 C 300.60 748.12 206.24 729.57 136.67 696.55 C 67.10 663.54 28.01 618.75 28.01 572.06 C 28.01 525.37 67.10 480.58 136.67 447.57 C 206.24 414.55 300.60 396.00 398.99 396.00 C 497.38 396.00 591.74 414.55 661.31 447.57 C 730.88 480.58 769.97 525.37 769.97 572.06 Z" fill="url(#SVGID_10_)" fill-rule="nonzero" group-id="15,43" node-id="454" stroke="none" target-height="352.12" target-width="741.95996" target-x="28.00998" target-y="396"></path></g><g node-id="592"><g node-id="595"><path d="M 144.93 550.53 C 144.93 550.53 141.40 555.54 147.30 563.00 C 152.56 569.64 160.87 568.35 163.63 566.22 C 164.48 572.00 171.57 584.18 182.79 577.29 C 193.34 570.82 188.26 560.98 184.89 557.11 C 191.48 555.25 196.39 539.46 181.27 534.01 C 183.51 527.49 183.91 524.54 180.63 518.68 C 177.47 513.04 172.28 512.14 164.00 515.57 L 152.02 520.62 L 144.39 506.38 L 140.31 508.74 L 149.11 522.34 L 137.45 528.19 C 137.45 528.19 127.48 532.09 131.78 542.79 C 135.77 552.71 144.93 550.53 144.93 550.53 Z" fill="url(#SVGID_11_)" fill-rule="nonzero" group-id="15,44,47" node-id="460" stroke="none" target-height="77.79999" target-width="68.90998" target-x="127.48" target-y="506.38"></path><path d="M 124.64 489.81 L 160.70 489.81 C 160.70 489.81 172.35 490.14 174.67 476.83 C 177.22 462.22 166.59 460.21 166.59 460.21 C 166.59 460.21 172.99 457.27 171.60 446.22 C 170.20 435.18 160.48 433.78 156.43 434.29 C 157.09 427.74 158.47 412.91 143.07 412.76 C 128.20 412.61 128.29 427.58 129.40 433.48 C 124.10 433.54 108.09 441.49 119.35 458.93 C 113.22 464.18 110.63 467.21 110.90 474.78 C 111.16 482.36 115.80 489.81 124.64 489.81 Z" fill="url(#SVGID_12_)" fill-rule="nonzero" group-id="15,44,47" node-id="462" stroke="none" target-height="77.53003" target-width="69.130005" target-x="108.09" target-y="412.61"></path><path d="M 159.81 469.58 L 144.43 479.70 L 144.01 469.91 L 153.73 458.45 L 143.86 466.43 L 142.58 436.53 L 141.64 466.63 L 131.26 458.37 L 141.54 469.69 L 141.23 479.76 L 125.41 468.14 L 141.11 483.40 L 140.32 508.75 L 145.67 508.75 L 144.59 483.55 Z" fill="#c6d5e6" fill-rule="nonzero" group-id="15,44,47" node-id="464" stroke="none" target-height="72.22" target-width="34.399994" target-x="125.41" target-y="436.53"></path></g><g node-id="596"><path d="M 667.36 532.22 C 667.36 532.22 664.11 536.84 669.54 543.70 C 674.38 549.82 682.04 548.63 684.58 546.66 C 685.36 551.98 691.90 563.19 702.23 556.86 C 711.94 550.90 707.27 541.84 704.16 538.28 C 710.23 536.57 714.75 522.02 700.83 517.01 C 702.90 511.01 703.27 508.29 700.24 502.90 C 697.33 497.71 692.55 496.87 684.93 500.04 L 673.89 504.69 L 666.86 491.58 L 663.11 493.75 L 671.21 506.27 L 660.48 511.66 C 660.48 511.66 651.30 515.25 655.26 525.11 C 658.92 534.23 667.36 532.22 667.36 532.22 Z" fill="url(#SVGID_13_)" fill-rule="nonzero" group-id="15,44,48" node-id="469" stroke="none" target-height="71.609985" target-width="63.450073" target-x="651.3" target-y="491.58002"></path><path d="M 648.66 476.31 L 681.86 476.31 C 681.86 476.31 692.59 476.62 694.72 464.36 C 697.06 450.91 687.28 449.06 687.28 449.06 C 687.28 449.06 693.18 446.35 691.89 436.18 C 690.60 426.01 681.65 424.72 677.92 425.20 C 678.53 419.17 679.80 405.51 665.62 405.37 C 651.93 405.23 652.01 419.01 653.03 424.45 C 648.15 424.50 633.40 431.82 643.78 447.89 C 638.14 452.72 635.75 455.52 636.00 462.48 C 636.26 469.45 640.53 476.31 648.66 476.31 Z" fill="url(#SVGID_14_)" fill-rule="nonzero" group-id="15,44,48" node-id="471" stroke="none" target-height="71.389984" target-width="63.659973" target-x="633.4" target-y="405.23"></path><path d="M 681.05 457.68 L 666.89 467.00 L 666.50 457.99 L 675.46 447.43 L 666.37 454.78 L 665.19 427.25 L 664.32 454.96 L 654.77 447.36 L 664.23 457.79 L 663.94 467.06 L 649.38 456.35 L 663.84 470.40 L 663.10 493.75 L 668.04 493.75 L 667.04 470.54 Z" fill="#c6d5e6" fill-rule="nonzero" group-id="15,44,48" node-id="473" stroke="none" target-height="66.5" target-width="31.669983" target-x="649.38" target-y="427.25"></path></g><g node-id="597"><path d="M 227.87 442.02 C 227.87 442.02 226.12 444.50 229.04 448.19 C 231.64 451.48 235.75 450.84 237.12 449.78 C 237.54 452.64 241.05 458.66 246.60 455.26 C 251.82 452.06 249.31 447.19 247.64 445.28 C 250.90 444.36 253.33 436.55 245.85 433.86 C 246.96 430.64 247.16 429.18 245.53 426.28 C 243.97 423.49 241.40 423.04 237.31 424.74 L 231.38 427.24 L 227.61 420.20 L 225.59 421.37 L 229.94 428.09 L 224.17 430.98 C 224.17 430.98 219.24 432.91 221.37 438.20 C 223.34 443.10 227.87 442.02 227.87 442.02 Z" fill="url(#SVGID_15_)" fill-rule="nonzero" group-id="15,44,49" node-id="478" stroke="none" target-height="38.45999" target-width="34.09001" target-x="219.23999" target-y="420.2"></path><path d="M 217.83 411.99 L 235.66 411.99 C 235.66 411.99 241.42 412.15 242.57 405.57 C 243.83 398.34 238.57 397.35 238.57 397.35 C 238.57 397.35 241.74 395.89 241.05 390.43 C 240.36 384.97 235.55 384.28 233.55 384.53 C 233.88 381.29 234.56 373.95 226.94 373.88 C 219.58 373.81 219.63 381.21 220.18 384.13 C 217.56 384.16 209.64 388.09 215.21 396.72 C 212.18 399.31 210.89 400.82 211.03 404.56 C 211.16 408.31 213.46 411.99 217.83 411.99 Z" fill="url(#SVGID_16_)" fill-rule="nonzero" group-id="15,44,49" node-id="480" stroke="none" target-height="38.339996" target-width="34.190002" target-x="209.64" target-y="373.81"></path><path d="M 235.22 401.98 L 227.62 406.99 L 227.41 402.15 L 232.22 396.48 L 227.34 400.43 L 226.70 385.64 L 226.24 400.53 L 221.10 396.44 L 226.19 402.04 L 226.03 407.02 L 218.21 401.27 L 225.98 408.82 L 225.58 421.36 L 228.23 421.36 L 227.70 408.90 Z" fill="#c6d5e6" fill-rule="nonzero" group-id="15,44,49" node-id="482" stroke="none" target-height="35.72" target-width="17.010025" target-x="218.20999" target-y="385.63998"></path></g></g><g node-id="593"><path d="M 566.87 528.73 L 729.29 643.72 L 443.66 735.64 L 315.19 484.75 L 504.48 491.57 Z" fill="url(#SVGID_17_)" fill-rule="nonzero" group-id="15,45" node-id="488" stroke="none" target-height="250.89001" target-width="414.10004" target-x="315.19" target-y="484.75"></path><path d="M 316.50 283.55 L 245.94 283.55 L 245.94 251.20 C 245.94 251.20 244.16 220.09 287.12 220.09 C 328.60 220.09 316.50 283.55 316.50 283.55 Z" fill="url(#SVGID_18_)" fill-rule="nonzero" group-id="15,45" node-id="490" stroke="none" target-height="63.45999" target-width="84.44" target-x="244.16" target-y="220.09"></path><path d="M 285.39 220.09 C 285.39 220.09 312.30 223.55 312.30 260.09 C 312.30 296.63 312.30 471.78 312.30 471.78 C 312.30 471.78 311.72 499.10 339.71 499.10 C 367.69 499.10 420.37 499.10 420.37 499.10 L 461.19 372.35 L 461.19 268.97 C 461.19 268.97 464.28 220.10 422.42 220.10 C 384.89 220.09 285.39 220.09 285.39 220.09 Z" fill="url(#SVGID_19_)" fill-rule="nonzero" group-id="15,45" node-id="492" stroke="none" target-height="279.01" target-width="178.88998" target-x="285.39" target-y="220.09"></path><path d="M 350.57 499.10 L 475.01 499.10 L 461.23 393.42 C 461.23 393.42 443.90 367.74 409.82 367.74 C 371.43 367.74 373.30 406.01 373.30 407.99 C 373.30 409.97 373.30 473.92 373.30 473.92 C 373.30 473.92 373.04 499.10 350.57 499.10 Z" fill="url(#SVGID_20_)" fill-rule="nonzero" group-id="15,45" node-id="494" stroke="none" target-height="131.36002" target-width="124.44" target-x="350.57" target-y="367.74"></path><path d="M 566.87 528.73 L 452.30 528.73 L 452.30 409.88 C 452.30 409.88 455.10 367.74 409.83 367.74 C 461.19 367.74 516.83 367.74 516.83 367.74 C 516.83 367.74 566.87 366.42 566.87 420.41 C 566.87 474.40 566.87 528.73 566.87 528.73 Z" fill="url(#SVGID_21_)" fill-rule="nonzero" group-id="15,45" node-id="496" stroke="none" target-height="162.30997" target-width="157.04001" target-x="409.83" target-y="366.42"></path><path d="M 436.75 281.32 L 339.96 281.32 C 336.14 281.32 333.05 278.22 333.05 274.41 L 333.05 274.41 C 333.05 270.59 336.15 267.50 339.96 267.50 L 436.75 267.50 C 440.57 267.50 443.66 270.60 443.66 274.41 L 443.66 274.41 C 443.66 278.23 440.56 281.32 436.75 281.32 Z" fill="url(#SVGID_22_)" fill-rule="nonzero" group-id="15,45" node-id="498" stroke="none" target-height="13.820007" target-width="110.610016" target-x="333.05" target-y="267.5"></path><path d="M 436.75 311.45 L 339.96 311.45 C 336.14 311.45 333.05 308.35 333.05 304.54 L 333.05 304.54 C 333.05 300.72 336.15 297.63 339.96 297.63 L 436.75 297.63 C 440.57 297.63 443.66 300.73 443.66 304.54 L 443.66 304.54 C 443.66 308.35 440.56 311.45 436.75 311.45 Z" fill="url(#SVGID_23_)" fill-rule="nonzero" group-id="15,45" node-id="500" stroke="none" target-height="13.820007" target-width="110.610016" target-x="333.05" target-y="297.63"></path><path d="M 436.75 341.57 L 339.96 341.57 C 336.14 341.57 333.05 338.47 333.05 334.66 L 333.05 334.66 C 333.05 330.84 336.15 327.75 339.96 327.75 L 436.75 327.75 C 440.57 327.75 443.66 330.85 443.66 334.66 L 443.66 334.66 C 443.66 338.48 440.56 341.57 436.75 341.57 Z" fill="url(#SVGID_24_)" fill-rule="nonzero" group-id="15,45" node-id="502" stroke="none" target-height="13.820007" target-width="110.610016" target-x="333.05" target-y="327.75"></path><path d="M 547.61 421.08 L 476.75 421.08 C 472.93 421.08 469.84 417.98 469.84 414.17 L 469.84 414.17 C 469.84 410.35 472.94 407.26 476.75 407.26 L 547.61 407.26 C 551.43 407.26 554.52 410.36 554.52 414.17 L 554.52 414.17 C 554.52 417.98 551.43 421.08 547.61 421.08 Z" fill="url(#SVGID_25_)" fill-rule="nonzero" group-id="15,45" node-id="504" stroke="none" target-height="13.819977" target-width="84.68002" target-x="469.84" target-y="407.26"></path><path d="M 547.61 451.20 L 476.75 451.20 C 472.93 451.20 469.84 448.10 469.84 444.29 L 469.84 444.29 C 469.84 440.47 472.94 437.38 476.75 437.38 L 547.61 437.38 C 551.43 437.38 554.52 440.48 554.52 444.29 L 554.52 444.29 C 554.52 448.10 551.43 451.20 547.61 451.20 Z" fill="url(#SVGID_26_)" fill-rule="nonzero" group-id="15,45" node-id="506" stroke="none" target-height="13.820007" target-width="84.68002" target-x="469.84" target-y="437.38"></path><path d="M 547.61 481.32 L 476.75 481.32 C 472.93 481.32 469.84 478.22 469.84 474.41 L 469.84 474.41 C 469.84 470.59 472.94 467.50 476.75 467.50 L 547.61 467.50 C 551.43 467.50 554.52 470.60 554.52 474.41 L 554.52 474.41 C 554.52 478.23 551.43 481.32 547.61 481.32 Z" fill="url(#SVGID_27_)" fill-rule="nonzero" group-id="15,45" node-id="508" stroke="none" target-height="13.820007" target-width="84.68002" target-x="469.84" target-y="467.5"></path></g><g node-id="594"><path d="M 503.15 388.98 C 503.15 388.98 502.39 390.01 504.60 393.74 C 501.24 394.90 496.81 393.52 496.81 393.52 L 497.05 387.31 L 503.15 388.98 Z" fill="#ffbe92" fill-rule="nonzero" group-id="15,46" node-id="513" stroke="none" target-height="7.590027" target-width="7.7900085" target-x="496.81" target-y="387.30997"></path><path d="M 494.81 397.25 L 514.35 398.25 C 514.35 398.25 515.64 392.44 507.94 392.28 C 506.38 392.25 505.18 390.43 503.90 390.42 C 500.83 392.92 495.76 392.23 495.76 392.23 L 494.81 397.25 Z" fill="#f8b62d" fill-rule="nonzero" group-id="15,46" node-id="515" stroke="none" target-height="7.8299255" target-width="20.830017" target-x="494.81" target-y="390.42004"></path><path d="M 494.35 398.51 L 502.91 399.72 L 503.31 398.16 L 514.32 399.44 L 514.61 398.12 L 494.86 395.63 Z" fill="#e6e8e8" fill-rule="nonzero" group-id="15,46" node-id="517" stroke="none" target-height="4.0899963" target-width="20.25998" target-x="494.35" target-y="395.63"></path><path d="M 512.95 391.81 C 512.95 391.81 511.64 393.33 514.75 396.38 C 511.81 398.35 508.02 397.82 508.02 397.82 L 506.63 391.76 L 512.95 391.81 Z" fill="#ffbe92" fill-rule="nonzero" group-id="15,46" node-id="519" stroke="none" target-height="6.5899963" target-width="8.119965" target-x="506.63004" target-y="391.76"></path><path d="M 506.16 402.00 L 525.71 401.54 C 525.71 401.54 526.52 395.64 518.83 396.07 C 517.28 396.16 515.93 394.43 514.65 394.51 C 511.80 397.24 506.69 396.92 506.69 396.92 L 506.16 402.00 Z" fill="#f8b62d" fill-rule="nonzero" group-id="15,46" node-id="521" stroke="none" target-height="7.570038" target-width="20.360016" target-x="506.16" target-y="394.42996"></path><path d="M 505.81 403.29 L 514.44 403.85 L 514.71 402.27 L 525.78 402.72 L 525.97 401.39 L 506.09 400.38 Z" fill="#e6e8e8" fill-rule="nonzero" group-id="15,46" node-id="523" stroke="none" target-height="3.4700317" target-width="20.159973" target-x="505.81" target-y="400.37997"></path><path d="M 485.54 355.85 C 485.54 355.85 510.35 349.15 512.71 354.89 C 515.07 360.63 510.22 369.90 507.81 376.85 C 505.40 383.80 503.58 390.02 503.58 390.02 L 495.83 389.30 L 498.70 365.03 C 498.70 365.03 497.03 360.72 491.21 360.24 C 485.40 359.77 485.54 355.85 485.54 355.85 Z" fill="url(#SVGID_28_)" fill-rule="nonzero" group-id="15,46" node-id="525" stroke="none" target-height="40.869965" target-width="29.670013" target-x="485.4" target-y="349.15"></path><path d="M 476.59 352.40 C 476.59 352.40 501.84 349.11 504.79 353.21 C 507.74 357.31 513.58 393.47 513.58 393.47 L 507.09 396.06 C 507.09 396.06 497.14 369.07 494.79 367.83 C 492.78 366.77 486.89 367.91 481.30 369.57 C 475.71 371.23 466.18 373.20 461.86 362.66 C 463.82 351.32 476.59 352.40 476.59 352.40 Z" fill="url(#SVGID_29_)" fill-rule="nonzero" group-id="15,46" node-id="527" stroke="none" target-height="46.950043" target-width="51.72" target-x="461.86002" target-y="349.11"></path><path d="M 480.19 306.58 C 480.19 306.58 483.50 310.93 481.18 317.82 C 480.59 319.14 479.45 321.43 476.31 319.70 C 476.04 319.64 475.86 320.03 475.79 320.40 C 475.72 320.77 474.87 327.12 474.87 327.12 L 465.83 327.17 C 465.83 327.17 470.02 311.44 469.94 308.35 C 469.91 306.76 471.60 303.98 474.95 303.83 C 478.30 303.68 480.19 306.58 480.19 306.58 Z" fill="#ffbe92" fill-rule="nonzero" group-id="15,46" node-id="529" stroke="none" target-height="23.49002" target-width="17.670044" target-x="465.82996" target-y="303.68"></path><path d="M 477.75 300.75 C 477.75 300.75 478.67 299.02 481.20 300.28 C 483.73 301.54 482.52 303.77 482.43 304.33 C 482.34 304.89 482.69 305.32 483.44 305.02 C 484.19 304.71 485.52 304.50 486.44 306.20 C 487.36 307.90 485.41 312.41 482.45 311.96 C 479.50 311.52 478.01 310.00 476.95 308.92 C 475.88 307.84 473.83 306.56 473.53 307.83 C 473.23 309.10 473.31 311.77 472.72 311.38 C 472.17 311.01 472.49 308.28 470.85 308.27 C 469.21 308.26 469.33 310.63 470.41 311.90 C 470.87 312.44 470.84 312.34 470.68 312.89 C 470.52 313.44 470.56 313.82 469.97 314.47 C 469.37 315.13 469.13 315.48 468.64 314.53 C 468.15 313.57 467.23 311.76 467.72 307.91 C 467.92 306.83 467.58 306.76 467.02 306.15 C 466.46 305.54 465.65 304.58 466.47 303.20 C 467.29 301.81 468.08 301.99 469.10 302.03 C 470.13 302.08 470.08 301.70 470.09 301.09 C 470.10 300.48 470.85 298.13 472.88 298.18 C 474.91 298.22 475.78 299.37 476.30 300.34 C 476.82 301.31 477.42 301.07 477.75 300.75 Z" fill="#171c61" fill-rule="nonzero" group-id="15,46" node-id="531" stroke="none" target-height="17.350006" target-width="21.709991" target-x="465.65" target-y="298.13"></path><path d="M 485.91 336.83 C 485.91 336.83 486.25 340.60 487.17 341.49 C 488.09 342.38 494.66 347.87 498.17 349.53 C 497.47 351.57 497.02 351.83 497.02 351.83 C 497.02 351.83 487.38 349.15 484.25 346.02 C 483.16 344.81 481.17 342.16 480.61 338.23 C 483.10 335.72 485.91 336.83 485.91 336.83 Z" fill="#ffbe92" fill-rule="nonzero" group-id="15,46" node-id="533" stroke="none" target-height="16.109985" target-width="17.560028" target-x="480.61" target-y="335.72"></path><path d="M 487.16 338.52 L 479.26 343.02 C 479.26 343.02 473.04 328.90 477.87 324.49 C 479.40 323.20 483.57 325.06 485.10 329.76 C 486.64 334.45 487.16 338.52 487.16 338.52 Z" fill="url(#SVGID_30_)" fill-rule="nonzero" group-id="15,46" node-id="535" stroke="none" target-height="19.819977" target-width="14.119995" target-x="473.04" target-y="323.2"></path><path d="M 459.11 325.78 C 459.11 325.78 462.48 319.31 467.71 319.73 C 468.43 323.37 472.57 323.53 475.48 322.54 C 477.61 322.83 478.81 322.97 480.27 325.12 C 481.73 327.27 481.58 327.78 482.58 332.31 C 483.30 336.93 481.49 340.85 482.27 345.07 C 483.04 349.30 487.02 349.95 484.95 351.71 C 482.88 353.47 469.89 354.45 463.92 363.26 C 462.08 365.98 460.63 359.83 460.60 355.19 C 460.57 350.54 462.99 338.55 459.11 325.78 Z" fill="url(#SVGID_31_)" fill-rule="nonzero" group-id="15,46" node-id="537" stroke="none" target-height="46.670013" target-width="27.909973" target-x="459.11" target-y="319.31"></path><path d="M 507.10 351.12 L 497.78 350.87 L 479.59 352.08 L 494.27 354.19 Z" fill="url(#SVGID_32_)" fill-rule="nonzero" group-id="15,46" node-id="539" stroke="none" target-height="3.3200073" target-width="27.51001" target-x="479.59" target-y="350.87"></path><path d="M 479.41 351.30 L 494.27 353.36 L 494.27 354.19 L 479.41 352.13 Z" fill="url(#SVGID_33_)" fill-rule="nonzero" group-id="15,46" node-id="541" stroke="none" target-height="2.8900146" target-width="14.859955" target-x="479.41" target-y="351.3"></path><path d="M 466.10 336.95 C 466.10 336.95 468.29 343.98 468.93 344.20 C 469.57 344.42 480.05 348.82 481.29 348.88 C 482.53 348.94 488.02 346.33 490.12 351.82 C 490.25 352.39 490.38 352.78 488.84 352.65 C 487.31 352.52 484.97 351.94 483.35 352.45 C 481.73 352.96 481.05 352.07 479.58 352.07 C 478.11 352.07 466.37 351.05 464.84 349.58 C 463.31 348.11 461.46 345.49 460.50 339.88 C 464.40 337.40 466.10 336.95 466.10 336.95 Z" fill="#ffbe92" fill-rule="nonzero" group-id="15,46" node-id="543" stroke="none" target-height="16.00998" target-width="29.880005" target-x="460.5" target-y="336.95"></path><path d="M 468.40 338.23 L 460.50 342.73 C 460.50 342.73 454.28 328.61 459.11 324.20 C 460.64 322.91 464.81 324.77 466.34 329.47 C 467.87 334.16 468.40 338.23 468.40 338.23 Z" fill="url(#SVGID_34_)" fill-rule="nonzero" group-id="15,46" node-id="545" stroke="none" target-height="19.820007" target-width="14.119995" target-x="454.28" target-y="322.91"></path><path d="M 514.83 336.61 L 498.69 336.93 C 498.23 336.94 497.83 337.25 497.71 337.70 L 493.72 352.75 C 493.54 353.44 494.10 354.11 494.81 354.05 L 510.37 352.73 C 510.79 352.69 511.14 352.41 511.27 352.02 L 515.84 337.97 C 516.06 337.29 515.54 336.60 514.83 336.61 Z" fill="url(#SVGID_35_)" fill-rule="nonzero" group-id="15,46" node-id="547" stroke="none" target-height="17.50998" target-width="22.519958" target-x="493.54004" target-y="336.6"></path></g></g></svg>