<?xml version="1.0" standalone="no"?><!DOCTYPE svg PUBLIC "-//W3C//DTD SVG 1.1//EN" "http://www.w3.org/Graphics/SVG/1.1/DTD/svg11.dtd"><svg height="800" node-id="1" sillyvg="true" template-height="800" template-width="800" version="1.1" viewBox="0 0 800 800" width="800" xmlns="http://www.w3.org/2000/svg" xmlns:xlink="http://www.w3.org/1999/xlink"><defs node-id="168"><linearGradient gradientUnits="objectBoundingBox" id="SVGID_1_" node-id="40" spreadMethod="pad" x1="254.2285" x2="254.2285" y1="423.3921" y2="326.6038"><stop offset="0.0000005358273" stop-color="#ffffff"></stop><stop offset="1" stop-color="#dbe3ee"></stop></linearGradient><linearGradient gradientUnits="objectBoundingBox" id="SVGID_2_" node-id="44" spreadMethod="pad" x1="189.6115" x2="189.6115" y1="481.384" y2="264.895"><stop offset="0.0000005358273" stop-color="#ffffff"></stop><stop offset="1" stop-color="#dbe3ee"></stop></linearGradient><linearGradient gradientUnits="objectBoundingBox" id="SVGID_3_" node-id="48" spreadMethod="pad" x1="565.3931" x2="565.3931" y1="438.7051" y2="282.2243"><stop offset="0.0000005358273" stop-color="#ffffff"></stop><stop offset="1" stop-color="#dbe3ee"></stop></linearGradient><linearGradient gradientUnits="objectBoundingBox" id="SVGID_4_" node-id="52" spreadMethod="pad" x1="627.9179" x2="627.9179" y1="461.3751" y2="291.6344"><stop offset="0.0000005358273" stop-color="#ffffff"></stop><stop offset="1" stop-color="#dbe3ee"></stop></linearGradient><linearGradient gradientUnits="objectBoundingBox" id="SVGID_5_" node-id="56" spreadMethod="pad" x1="119.2054" x2="119.2054" y1="503.4536" y2="352.9402"><stop offset="0.0000005358273" stop-color="#ffffff"></stop><stop offset="1" stop-color="#edf1f9"></stop></linearGradient><linearGradient gradientUnits="objectBoundingBox" id="SVGID_6_" node-id="60" spreadMethod="pad" x1="681.8785" x2="681.8785" y1="486.8482" y2="363.7159"><stop offset="0.0000005358273" stop-color="#ffffff"></stop><stop offset="1" stop-color="#edf1f9"></stop></linearGradient><linearGradient gradientUnits="objectBoundingBox" id="SVGID_7_" node-id="64" spreadMethod="pad" x1="125.169" x2="125.169" y1="231.1463" y2="166.605"><stop offset="0.2332" stop-color="#ffffff"></stop><stop offset="1" stop-color="#d3dfee"></stop></linearGradient><linearGradient gradientUnits="objectBoundingBox" id="SVGID_8_" node-id="68" spreadMethod="pad" x1="642.2375" x2="642.2375" y1="194.3259" y2="129.7846"><stop offset="0.2332" stop-color="#ffffff"></stop><stop offset="1" stop-color="#d3dfee"></stop></linearGradient><linearGradient gradientUnits="objectBoundingBox" id="SVGID_9_" node-id="72" spreadMethod="pad" x1="512.4666" x2="512.4666" y1="237.4993" y2="190.7821"><stop offset="0.2332" stop-color="#ffffff"></stop><stop offset="1" stop-color="#d3dfee"></stop></linearGradient><linearGradient gradientUnits="objectBoundingBox" id="SVGID_10_" node-id="76" spreadMethod="pad" x1="398.6839" x2="398.6839" y1="753.0242" y2="400.8953"><stop offset="0.4065" stop-color="#ffffff"></stop><stop offset="1" stop-color="#dae4ef"></stop></linearGradient><linearGradient gradientUnits="objectBoundingBox" id="SVGID_11_" node-id="82" spreadMethod="pad" x1="189.6134" x2="138.1772" y1="576.48" y2="515.1807"><stop offset="0.4034" stop-color="#eff4f8"></stop><stop offset="1" stop-color="#d4dfec"></stop></linearGradient><linearGradient gradientUnits="objectBoundingBox" id="SVGID_12_" node-id="86" spreadMethod="pad" x1="110.5656" x2="174.7524" y1="456.1896" y2="456.1896"><stop offset="0.1022" stop-color="#f0f5f8"></stop><stop offset="1" stop-color="#b4c7dc"></stop></linearGradient><linearGradient gradientUnits="objectBoundingBox" id="SVGID_13_" node-id="92" spreadMethod="pad" x1="708.4755" x2="661.1101" y1="556.5074" y2="500.0595"><stop offset="0.4034" stop-color="#eff4f8"></stop><stop offset="1" stop-color="#d4dfec"></stop></linearGradient><linearGradient gradientUnits="objectBoundingBox" id="SVGID_14_" node-id="96" spreadMethod="pad" x1="635.6838" x2="694.7906" y1="445.7372" y2="445.7372"><stop offset="0.1022" stop-color="#f0f5f8"></stop><stop offset="1" stop-color="#b4c7dc"></stop></linearGradient><linearGradient gradientUnits="objectBoundingBox" id="SVGID_15_" node-id="102" spreadMethod="pad" x1="249.8129" x2="224.3716" y1="457.3366" y2="427.0169"><stop offset="0.0000001438503" stop-color="#eaeff6"></stop><stop offset="1" stop-color="#cddae9"></stop></linearGradient><linearGradient gradientUnits="objectBoundingBox" id="SVGID_16_" node-id="106" spreadMethod="pad" x1="210.7144" x2="242.4624" y1="397.8389" y2="397.8389"><stop offset="0.1022" stop-color="#f0f5f8"></stop><stop offset="1" stop-color="#b4c7dc"></stop></linearGradient><linearGradient gradientUnits="objectBoundingBox" id="SVGID_17_" node-id="112" spreadMethod="pad" x1="572.7738" x2="495.6428" y1="669.0638" y2="457.1481"><stop offset="0.1895" stop-color="#ffffff"></stop><stop offset="0.9362" stop-color="#d4deeb"></stop></linearGradient><linearGradient gradientUnits="objectBoundingBox" id="SVGID_18_" node-id="116" spreadMethod="pad" x1="510.3682" x2="510.3682" y1="403.3711" y2="209.3958"><stop offset="0" stop-color="#dfe8f3"></stop><stop offset="1" stop-color="#80a1b7"></stop></linearGradient><linearGradient gradientUnits="objectBoundingBox" id="SVGID_19_" node-id="120" spreadMethod="pad" x1="347.2382" x2="673.4982" y1="295.3738" y2="295.3738"><stop offset="0.0000002877006" stop-color="#e0e8f2"></stop><stop offset="1" stop-color="#b6c9de"></stop></linearGradient><linearGradient gradientUnits="objectBoundingBox" id="SVGID_20_" node-id="124" spreadMethod="pad" x1="267.7328" x2="673.4982" y1="246.7374" y2="246.7374"><stop offset="0.0000002877006" stop-color="#e0e8f2"></stop><stop offset="1" stop-color="#b6c9de"></stop></linearGradient><linearGradient gradientUnits="objectBoundingBox" id="SVGID_21_" node-id="128" spreadMethod="pad" x1="420.5255" x2="420.5255" y1="494.3586" y2="305.7238"><stop offset="0" stop-color="#d5e0ee"></stop><stop offset="1" stop-color="#f5f9fa"></stop></linearGradient><linearGradient gradientUnits="objectBoundingBox" id="SVGID_22_" node-id="133" spreadMethod="pad" x1="299.746" x2="364.394" y1="373.804" y2="373.804"><stop offset="0.2247" stop-color="#d0ddea"></stop><stop offset="1" stop-color="#a0b8cf"></stop></linearGradient><linearGradient gradientUnits="objectBoundingBox" id="SVGID_23_" node-id="143" spreadMethod="pad" x1="45.7296" x2="95.1154" y1="176.6602" y2="176.6602"><stop offset="0" stop-color="#4ea2f4"></stop><stop offset="0.6903" stop-color="#1e77cf"></stop></linearGradient><linearGradient gradientUnits="objectBoundingBox" id="SVGID_24_" node-id="149" spreadMethod="pad" x1="329.5606" x2="353.9365" y1="398.6796" y2="356.4592"><stop offset="0" stop-color="#78c8ff"></stop><stop offset="0.6903" stop-color="#2a80e2"></stop></linearGradient><linearGradient gradientUnits="objectBoundingBox" id="SVGID_25_" node-id="153" spreadMethod="pad" x1="368.9024" x2="338.2419" y1="343.8551" y2="347.1584"><stop offset="0" stop-color="#f2a319"></stop><stop offset="0.4796" stop-color="#ffc552"></stop></linearGradient></defs><g node-id="486"><g node-id="494"><path d="M 268.69 330.01 L 268.69 326.60 L 239.19 326.60 L 239.19 330.56 L 232.71 330.56 L 232.71 423.39 L 275.76 423.39 L 275.76 330.01 L 268.69 330.01 Z M 272.03 412.75 L 235.99 412.75 L 235.99 410.00 L 272.03 410.00 L 272.03 412.75 Z M 272.03 400.07 L 235.99 400.07 L 235.99 397.32 L 272.03 397.32 L 272.03 400.07 Z M 272.03 387.39 L 235.99 387.39 L 235.99 384.64 L 272.03 384.64 L 272.03 387.39 Z M 272.03 375.05 L 235.99 375.05 L 235.99 372.30 L 272.03 372.30 L 272.03 375.05 Z M 272.03 362.74 L 235.99 362.74 L 235.99 359.99 L 272.03 359.99 L 272.03 362.74 Z M 272.03 350.06 L 235.99 350.06 L 235.99 347.31 L 272.03 347.31 L 272.03 350.06 Z M 272.03 337.72 L 235.99 337.72 L 235.99 334.97 L 272.03 334.97 L 272.03 337.72 Z" fill="url(#SVGID_1_)" fill-rule="nonzero" group-id="35,43" node-id="357" stroke="none" target-height="96.79001" target-width="43.050003" target-x="232.71" target-y="326.6"></path><path d="M 210.70 381.82 L 210.70 273.64 L 177.95 273.64 L 177.95 264.90 L 164.09 264.90 L 164.09 318.23 L 160.36 318.23 L 160.36 481.39 L 218.87 481.39 L 218.87 381.83 L 210.70 381.83 Z M 186.20 413.63 L 177.94 413.63 L 177.94 405.62 L 186.20 405.62 L 186.20 413.63 Z M 186.20 401.10 L 177.94 401.10 L 177.94 393.09 L 186.20 393.09 L 186.20 401.10 Z M 186.20 388.63 L 177.94 388.63 L 177.94 380.62 L 186.20 380.62 L 186.20 388.63 Z M 186.20 376.19 L 177.94 376.19 L 177.94 368.18 L 186.20 368.18 L 186.20 376.19 Z M 186.20 363.66 L 177.94 363.66 L 177.94 355.65 L 186.20 355.65 L 186.20 363.66 Z M 186.20 338.66 L 177.94 338.66 L 177.94 330.65 L 186.20 330.65 L 186.20 338.66 Z M 186.20 326.13 L 177.94 326.13 L 177.94 318.12 L 186.20 318.12 L 186.20 326.13 Z M 186.20 313.65 L 177.94 313.65 L 177.94 305.64 L 186.20 305.64 L 186.20 313.65 Z M 186.20 301.22 L 177.94 301.22 L 177.94 293.21 L 186.20 293.21 L 186.20 301.22 Z M 186.20 288.69 L 177.94 288.69 L 177.94 280.68 L 186.20 280.68 L 186.20 288.69 Z M 198.56 413.63 L 190.30 413.63 L 190.30 405.62 L 198.56 405.62 L 198.56 413.63 Z M 198.56 401.10 L 190.30 401.10 L 190.30 393.09 L 198.56 393.09 L 198.56 401.10 Z M 198.56 388.63 L 190.30 388.63 L 190.30 380.62 L 198.56 380.62 L 198.56 388.63 Z M 198.56 376.19 L 190.30 376.19 L 190.30 368.18 L 198.56 368.18 L 198.56 376.19 Z M 198.56 363.66 L 190.30 363.66 L 190.30 355.65 L 198.56 355.65 L 198.56 363.66 Z M 198.56 338.66 L 190.30 338.66 L 190.30 330.65 L 198.56 330.65 L 198.56 338.66 Z M 198.56 326.13 L 190.30 326.13 L 190.30 318.12 L 198.56 318.12 L 198.56 326.13 Z M 198.56 313.65 L 190.30 313.65 L 190.30 305.64 L 198.56 305.64 L 198.56 313.65 Z M 198.56 301.22 L 190.30 301.22 L 190.30 293.21 L 198.56 293.21 L 198.56 301.22 Z M 198.56 288.69 L 190.30 288.69 L 190.30 280.68 L 198.56 280.68 L 198.56 288.69 Z" fill="url(#SVGID_2_)" fill-rule="nonzero" group-id="35,43" node-id="359" stroke="none" target-height="216.49002" target-width="58.50998" target-x="160.36" target-y="264.9"></path><path d="M 533.01 438.71 C 533.37 434.06 533.01 282.23 533.01 282.23 L 551.54 282.23 L 551.54 315.94 L 581.04 315.94 L 581.04 386.39 L 597.77 386.39 L 597.77 438.71 L 533.01 438.71 Z" fill="url(#SVGID_3_)" fill-rule="nonzero" group-id="35,43" node-id="361" stroke="none" target-height="156.47998" target-width="64.76001" target-x="533.01" target-y="282.23"></path><path d="M 654.23 370.56 L 654.23 365.71 L 649.23 365.71 L 649.23 323.38 L 637.03 323.38 L 637.03 318.68 L 628.80 318.68 L 628.80 311.77 L 624.51 311.77 L 624.51 291.63 L 621.42 291.63 L 621.42 311.91 L 617.48 311.91 L 617.48 318.82 L 605.28 318.82 L 605.28 330.14 L 598.23 330.14 L 598.23 461.37 L 657.61 461.37 L 657.61 370.55 L 654.23 370.55 Z M 608.71 423.34 L 604.69 423.34 L 604.69 408.10 L 608.71 408.10 L 608.71 423.34 Z M 608.71 404.69 L 604.69 404.69 L 604.69 389.45 L 608.71 389.45 L 608.71 404.69 Z M 608.71 386.04 L 604.69 386.04 L 604.69 370.80 L 608.71 370.80 L 608.71 386.04 Z M 608.71 367.06 L 604.69 367.06 L 604.69 351.82 L 608.71 351.82 L 608.71 367.06 Z M 608.71 348.07 L 604.69 348.07 L 604.69 332.83 L 608.71 332.83 L 608.71 348.07 Z M 616.99 423.34 L 612.97 423.34 L 612.97 408.10 L 616.99 408.10 L 616.99 423.34 Z M 616.99 404.69 L 612.97 404.69 L 612.97 389.45 L 616.99 389.45 L 616.99 404.69 Z M 616.99 386.04 L 612.97 386.04 L 612.97 370.80 L 616.99 370.80 L 616.99 386.04 Z M 616.99 367.06 L 612.97 367.06 L 612.97 351.82 L 616.99 351.82 L 616.99 367.06 Z M 616.99 348.07 L 612.97 348.07 L 612.97 332.83 L 616.99 332.83 L 616.99 348.07 Z M 625.27 423.34 L 621.25 423.34 L 621.25 408.10 L 625.27 408.10 L 625.27 423.34 Z M 625.27 404.69 L 621.25 404.69 L 621.25 389.45 L 625.27 389.45 L 625.27 404.69 Z M 625.27 386.04 L 621.25 386.04 L 621.25 370.80 L 625.27 370.80 L 625.27 386.04 Z M 625.27 367.06 L 621.25 367.06 L 621.25 351.82 L 625.27 351.82 L 625.27 367.06 Z M 625.27 348.07 L 621.25 348.07 L 621.25 332.83 L 625.27 332.83 L 625.27 348.07 Z M 633.55 423.34 L 629.53 423.34 L 629.53 408.10 L 633.55 408.10 L 633.55 423.34 Z M 633.55 404.69 L 629.53 404.69 L 629.53 389.45 L 633.55 389.45 L 633.55 404.69 Z M 633.55 386.04 L 629.53 386.04 L 629.53 370.80 L 633.55 370.80 L 633.55 386.04 Z M 633.55 367.06 L 629.53 367.06 L 629.53 351.82 L 633.55 351.82 L 633.55 367.06 Z M 633.55 348.07 L 629.53 348.07 L 629.53 332.83 L 633.55 332.83 L 633.55 348.07 Z M 641.83 423.34 L 637.81 423.34 L 637.81 408.10 L 641.83 408.10 L 641.83 423.34 Z M 641.83 404.69 L 637.81 404.69 L 637.81 389.45 L 641.83 389.45 L 641.83 404.69 Z M 641.83 386.04 L 637.81 386.04 L 637.81 370.80 L 641.83 370.80 L 641.83 386.04 Z M 641.83 367.06 L 637.81 367.06 L 637.81 351.82 L 641.83 351.82 L 641.83 367.06 Z M 641.83 348.07 L 637.81 348.07 L 637.81 332.83 L 641.83 332.83 L 641.83 348.07 Z" fill="url(#SVGID_4_)" fill-rule="nonzero" group-id="35,43" node-id="363" stroke="none" target-height="169.73999" target-width="59.380005" target-x="598.23" target-y="291.63"></path><path d="M 92.58 503.45 L 92.58 413.91 L 102.83 413.91 L 102.83 368.21 L 138.10 352.94 L 138.10 413.19 L 145.83 413.19 L 145.83 503.45 Z" fill="url(#SVGID_5_)" fill-rule="nonzero" group-id="35,43" node-id="365" stroke="none" target-height="150.51001" target-width="53.25" target-x="92.58" target-y="352.94"></path><path d="M 697.35 486.85 L 666.41 486.85 L 666.41 363.72 L 697.35 378.69 Z" fill="url(#SVGID_6_)" fill-rule="nonzero" group-id="35,43" node-id="367" stroke="none" target-height="123.129974" target-width="30.940002" target-x="666.41" target-y="363.72"></path><path d="M 87.40 190.04 C 87.40 190.04 96.74 164.56 119.70 174.56 C 125.00 169.18 131.56 165.27 140.43 167.03 C 149.30 168.79 155.02 175.44 156.96 179.86 C 159.74 179.73 182.00 180.47 182.00 203.56 C 182.00 226.65 155.06 226.21 153.11 224.38 C 150.71 226.52 139.17 238.13 125.17 224.88 C 122.14 227.47 112.24 238.44 96.59 223.30 C 89.34 226.33 72.11 228.66 68.77 210.87 C 65.43 193.09 82.56 188.06 87.40 190.04 Z" fill="url(#SVGID_7_)" fill-rule="nonzero" group-id="35,43" node-id="369" stroke="none" target-height="73.880005" target-width="116.57" target-x="65.43" target-y="164.56"></path><path d="M 604.47 153.22 C 604.47 153.22 613.81 127.74 636.77 137.74 C 642.07 132.36 648.63 128.45 657.50 130.21 C 666.37 131.97 672.09 138.62 674.03 143.04 C 676.81 142.91 699.07 143.65 699.07 166.74 C 699.07 189.83 672.13 189.39 670.18 187.56 C 667.78 189.70 656.24 201.31 642.24 188.06 C 639.21 190.65 629.31 201.62 613.66 186.48 C 606.41 189.51 589.18 191.84 585.84 174.05 C 582.49 156.27 599.63 151.24 604.47 153.22 Z" fill="url(#SVGID_8_)" fill-rule="nonzero" group-id="35,43" node-id="371" stroke="none" target-height="73.88" target-width="116.579956" target-x="582.49" target-y="127.74"></path><path d="M 485.13 207.74 C 485.13 207.74 491.89 189.29 508.51 196.54 C 512.35 192.64 517.09 189.81 523.52 191.09 C 529.94 192.37 534.08 197.18 535.48 200.37 C 537.49 200.28 553.61 200.81 553.61 217.52 C 553.61 234.23 534.11 233.91 532.70 232.59 C 530.96 234.14 522.61 242.54 512.47 232.96 C 510.28 234.83 503.11 242.78 491.79 231.82 C 486.54 234.01 474.07 235.70 471.65 222.82 C 469.22 209.95 481.63 206.31 485.13 207.74 Z" fill="url(#SVGID_9_)" fill-rule="nonzero" group-id="35,43" node-id="373" stroke="none" target-height="53.49002" target-width="84.390015" target-x="469.21997" target-y="189.28998"></path><path d="M 769.66 576.96 C 769.66 623.65 730.57 668.44 661.00 701.45 C 591.43 734.47 497.07 753.02 398.68 753.02 C 300.29 753.02 205.93 734.47 136.36 701.45 C 66.79 668.44 27.70 623.65 27.70 576.96 C 27.70 530.27 66.79 485.48 136.36 452.47 C 205.93 419.45 300.29 400.90 398.68 400.90 C 497.07 400.90 591.43 419.45 661.00 452.47 C 730.57 485.48 769.66 530.27 769.66 576.96 Z" fill="url(#SVGID_10_)" fill-rule="nonzero" group-id="35,43" node-id="375" stroke="none" target-height="352.12" target-width="741.9601" target-x="27.699982" target-y="400.90002"></path></g><g node-id="495"><g node-id="498"><path d="M 144.63 555.43 C 144.63 555.43 141.10 560.44 147.00 567.90 C 152.26 574.54 160.57 573.25 163.33 571.12 C 164.18 576.90 171.27 589.08 182.49 582.19 C 193.04 575.72 187.96 565.88 184.59 562.01 C 191.18 560.15 196.09 544.36 180.97 538.91 C 183.21 532.39 183.61 529.44 180.33 523.58 C 177.17 517.94 171.98 517.04 163.70 520.47 L 151.72 525.52 L 144.09 511.28 L 140.01 513.64 L 148.81 527.24 L 137.15 533.09 C 137.15 533.09 127.18 536.99 131.48 547.69 C 135.47 557.60 144.63 555.43 144.63 555.43 Z" fill="url(#SVGID_11_)" fill-rule="nonzero" group-id="35,44,47" node-id="381" stroke="none" target-height="77.80002" target-width="68.909996" target-x="127.18" target-y="511.28"></path><path d="M 124.33 494.71 L 160.39 494.71 C 160.39 494.71 172.04 495.04 174.36 481.73 C 176.91 467.12 166.28 465.11 166.28 465.11 C 166.28 465.11 172.68 462.17 171.29 451.12 C 169.90 440.07 160.17 438.68 156.12 439.19 C 156.78 432.64 158.16 417.81 142.76 417.66 C 127.89 417.51 127.98 432.48 129.09 438.38 C 123.79 438.44 107.78 446.39 119.04 463.83 C 112.91 469.08 110.32 472.11 110.59 479.68 C 110.86 487.26 115.50 494.71 124.33 494.71 Z" fill="url(#SVGID_12_)" fill-rule="nonzero" group-id="35,44,47" node-id="383" stroke="none" target-height="77.53003" target-width="69.13" target-x="107.78001" target-y="417.50998"></path><path d="M 159.51 474.48 L 144.13 484.60 L 143.71 474.81 L 153.43 463.35 L 143.56 471.33 L 142.28 441.43 L 141.34 471.53 L 130.96 463.27 L 141.24 474.59 L 140.92 484.66 L 125.11 473.04 L 140.81 488.30 L 140.01 513.65 L 145.37 513.65 L 144.29 488.45 Z" fill="#c6d5e6" fill-rule="nonzero" group-id="35,44,47" node-id="385" stroke="none" target-height="72.22006" target-width="34.4" target-x="125.10999" target-y="441.42996"></path></g><g node-id="499"><path d="M 667.05 537.12 C 667.05 537.12 663.80 541.74 669.23 548.60 C 674.07 554.72 681.73 553.53 684.27 551.56 C 685.05 556.88 691.59 568.09 701.92 561.76 C 711.63 555.80 706.96 546.74 703.85 543.18 C 709.92 541.47 714.44 526.92 700.52 521.91 C 702.59 515.91 702.96 513.19 699.93 507.80 C 697.02 502.61 692.24 501.77 684.62 504.94 L 673.58 509.59 L 666.55 496.48 L 662.80 498.65 L 670.90 511.17 L 660.17 516.56 C 660.17 516.56 650.99 520.15 654.95 530.01 C 658.62 539.13 667.05 537.12 667.05 537.12 Z" fill="url(#SVGID_13_)" fill-rule="nonzero" group-id="35,44,48" node-id="390" stroke="none" target-height="71.610016" target-width="63.44995" target-x="650.99" target-y="496.48"></path><path d="M 648.36 481.21 L 681.56 481.21 C 681.56 481.21 692.29 481.52 694.42 469.26 C 696.76 455.81 686.98 453.96 686.98 453.96 C 686.98 453.96 692.88 451.25 691.59 441.08 C 690.30 430.91 681.35 429.62 677.62 430.10 C 678.23 424.07 679.50 410.41 665.32 410.27 C 651.63 410.13 651.71 423.91 652.73 429.35 C 647.85 429.40 633.10 436.72 643.48 452.79 C 637.84 457.62 635.45 460.42 635.70 467.38 C 635.96 474.35 640.23 481.21 648.36 481.21 Z" fill="url(#SVGID_14_)" fill-rule="nonzero" group-id="35,44,48" node-id="392" stroke="none" target-height="71.38995" target-width="63.660034" target-x="633.1" target-y="410.13004"></path><path d="M 680.75 462.58 L 666.59 471.89 L 666.20 462.88 L 675.16 452.33 L 666.07 459.68 L 664.89 432.14 L 664.02 459.86 L 654.46 452.25 L 663.93 462.68 L 663.64 471.96 L 649.07 461.25 L 663.53 475.30 L 662.80 498.65 L 667.73 498.65 L 666.74 475.44 Z" fill="#c6d5e6" fill-rule="nonzero" group-id="35,44,48" node-id="394" stroke="none" target-height="66.50998" target-width="31.679993" target-x="649.07" target-y="432.14"></path></g><g node-id="500"><path d="M 227.56 446.92 C 227.56 446.92 225.81 449.40 228.73 453.09 C 231.33 456.38 235.44 455.74 236.81 454.68 C 237.23 457.54 240.74 463.56 246.29 460.16 C 251.51 456.96 249.00 452.09 247.33 450.18 C 250.59 449.26 253.02 441.45 245.54 438.76 C 246.65 435.54 246.85 434.08 245.22 431.18 C 243.66 428.39 241.09 427.94 237.00 429.64 L 231.07 432.14 L 227.30 425.10 L 225.28 426.27 L 229.63 432.99 L 223.86 435.88 C 223.86 435.88 218.93 437.81 221.06 443.10 C 223.03 448.00 227.56 446.92 227.56 446.92 Z" fill="url(#SVGID_15_)" fill-rule="nonzero" group-id="35,44,49" node-id="399" stroke="none" target-height="38.45999" target-width="34.089996" target-x="218.93" target-y="425.1"></path><path d="M 217.52 416.89 L 235.35 416.89 C 235.35 416.89 241.11 417.05 242.26 410.47 C 243.52 403.24 238.26 402.25 238.26 402.25 C 238.26 402.25 241.43 400.79 240.74 395.33 C 240.05 389.87 235.24 389.18 233.24 389.43 C 233.57 386.19 234.25 378.85 226.63 378.78 C 219.27 378.71 219.32 386.11 219.87 389.03 C 217.25 389.06 209.33 392.99 214.90 401.62 C 211.87 404.21 210.58 405.72 210.72 409.46 C 210.86 413.20 213.15 416.89 217.52 416.89 Z" fill="url(#SVGID_16_)" fill-rule="nonzero" group-id="35,44,49" node-id="401" stroke="none" target-height="38.339996" target-width="34.190018" target-x="209.32999" target-y="378.70996"></path><path d="M 234.92 406.88 L 227.31 411.89 L 227.11 407.05 L 231.92 401.38 L 227.03 405.33 L 226.40 390.54 L 225.93 405.42 L 220.80 401.34 L 225.89 406.94 L 225.73 411.92 L 217.91 406.17 L 225.67 413.72 L 225.28 426.26 L 227.93 426.26 L 227.40 413.79 Z" fill="#c6d5e6" fill-rule="nonzero" group-id="35,44,49" node-id="403" stroke="none" target-height="35.72003" target-width="17.009995" target-x="217.91" target-y="390.54"></path></g></g><g node-id="496"><path d="M 507.80 452.72 C 511.46 456.93 693.76 588.99 693.76 588.99 L 495.43 697.21 L 372.19 530.47 L 507.80 452.72 Z" fill="url(#SVGID_17_)" fill-rule="nonzero" group-id="35,45" node-id="409" stroke="none" target-height="244.49011" target-width="321.57" target-x="372.19" target-y="452.71997"></path><path d="M 319.54 384.76 L 343.39 499.77 L 625.14 247.26 Z" fill="url(#SVGID_18_)" fill-rule="nonzero" group-id="35,45" node-id="411" stroke="none" target-height="252.51" target-width="305.6" target-x="319.54" target-y="247.26"></path><path d="M 448.86 454.99 L 319.54 384.76 L 625.15 247.26 L 458.79 452.80 C 456.25 455.94 452.23 456.82 448.86 454.99 Z" fill="url(#SVGID_19_)" fill-rule="nonzero" group-id="35,45" node-id="413" stroke="none" target-height="209.56001" target-width="305.61002" target-x="319.54" target-y="247.26"></path><path d="M 230.42 322.27 L 625.14 247.26 L 319.53 384.76 L 229.28 330.29 C 226.11 328.38 226.88 322.94 230.42 322.27 Z" fill="url(#SVGID_20_)" fill-rule="nonzero" group-id="35,45" node-id="415" stroke="none" target-height="137.50002" target-width="399.03003" target-x="226.10999" target-y="247.26"></path><path d="M 296.46 370.90 L 521.69 293.70 L 338.36 395.12 L 343.39 499.77 Z" fill="url(#SVGID_21_)" fill-rule="nonzero" group-id="35,45" node-id="417" stroke="none" target-height="206.06998" target-width="225.23001" target-x="296.46" target-y="293.7"></path></g><g node-id="497"><path d="M 299.75 378.75 C 299.75 378.75 330.60 357.62 350.84 361.74 C 362.25 362.55 363.65 365.35 363.65 365.35 C 363.65 365.35 366.52 372.05 361.00 374.85 C 355.48 377.65 346.28 378.16 346.28 378.16 L 347.16 380.15 L 333.76 384.79 C 333.76 384.79 328.53 377.72 320.95 379.56 C 313.37 381.40 302.93 386.39 302.93 386.39 L 299.75 378.75 Z" fill="url(#SVGID_22_)" fill-rule="nonzero" group-id="35,46" node-id="422" stroke="none" target-height="28.77002" target-width="66.76999" target-x="299.75" target-y="357.62"></path><path d="M 300.62 374.29 C 300.62 374.29 300.71 375.44 297.24 377.25 C 299.26 379.74 303.31 380.80 303.31 380.80 L 306.09 375.93 L 300.62 374.29 Z" fill="#ffbe92" fill-rule="nonzero" group-id="35,46" node-id="424" stroke="none" target-height="6.5099792" target-width="8.850006" target-x="297.24" target-y="374.29"></path><path d="M 342.71 404.72 C 342.71 404.72 343.73 405.25 343.44 409.16 C 346.62 408.76 349.66 405.88 349.66 405.88 L 346.99 400.95 L 342.71 404.72 Z" fill="#ffbe92" fill-rule="nonzero" group-id="35,46" node-id="426" stroke="none" target-height="8.209991" target-width="6.950012" target-x="342.71" target-y="400.95"></path><path d="M 303.18 385.21 L 287.73 376.64 C 287.73 376.64 289.51 371.57 295.49 375.13 C 296.70 375.85 298.48 375.03 299.47 375.63 C 300.62 379.01 304.84 380.90 304.84 380.90 L 303.18 385.21 Z" fill="#f8b62d" fill-rule="nonzero" group-id="35,46" node-id="428" stroke="none" target-height="13.640015" target-width="17.109985" target-x="287.73" target-y="371.56998"></path><path d="M 302.93 386.39 L 295.80 383.22 L 296.23 381.84 L 287.19 377.56 L 287.59 376.41 L 303.92 383.94 Z" fill="#e6e8e8" fill-rule="nonzero" group-id="35,46" node-id="430" stroke="none" target-height="9.980011" target-width="16.730011" target-x="287.19" target-y="376.41"></path><path d="M 349.79 313.71 C 349.79 313.71 346.66 316.35 347.23 321.77 C 347.45 322.83 347.91 324.69 350.49 323.94 C 350.70 323.94 350.77 324.26 350.76 324.54 C 350.75 324.82 350.33 329.60 350.33 329.60 L 356.93 331.11 C 356.93 331.11 356.44 318.92 357.00 316.68 C 357.28 315.52 356.50 313.21 354.07 312.55 C 351.64 311.89 349.79 313.71 349.79 313.71 Z" fill="#ffbe92" fill-rule="nonzero" group-id="35,46" node-id="432" stroke="none" target-height="19.21997" target-width="10.619995" target-x="346.66" target-y="311.89"></path><path d="M 352.29 309.28 C 352.29 309.28 351.90 307.87 349.84 308.37 C 347.78 308.88 348.30 310.71 348.28 311.13 C 348.25 311.55 347.93 311.81 347.43 311.47 C 346.93 311.13 346.00 310.75 345.05 311.85 C 344.10 312.95 344.79 316.56 347.03 316.72 C 349.26 316.88 350.59 316.01 351.55 315.40 C 352.51 314.79 354.22 314.18 354.23 315.16 C 354.24 316.14 353.75 318.08 354.24 317.89 C 354.70 317.71 354.92 315.66 356.12 315.92 C 357.32 316.18 356.85 317.89 355.85 318.65 C 355.43 318.97 355.46 318.90 355.49 319.33 C 355.52 319.76 355.42 320.03 355.75 320.60 C 356.08 321.18 356.20 321.48 356.71 320.86 C 357.22 320.24 358.19 319.07 358.46 316.17 C 358.49 315.35 358.75 315.35 359.26 315.00 C 359.77 314.65 360.52 314.08 360.15 312.93 C 359.78 311.78 359.17 311.78 358.42 311.65 C 357.67 311.52 357.76 311.25 357.85 310.80 C 357.94 310.35 357.78 308.51 356.29 308.21 C 354.80 307.91 353.97 308.61 353.44 309.23 C 352.91 309.85 352.47 309.56 352.29 309.28 Z" fill="#171c61" fill-rule="nonzero" group-id="35,46" node-id="434" stroke="none" target-height="13.610016" target-width="16.420013" target-x="344.1" target-y="307.87"></path><path d="M 352.49 355.75 C 351.98 355.27 324.91 334.30 318.98 337.29 C 313.05 340.28 299.81 375.06 299.81 375.06 L 305.04 379.07 C 305.04 379.07 319.67 362.58 323.31 351.96 C 326.43 356.41 339.26 363.59 339.26 363.59 L 352.49 355.75 Z" fill="url(#SVGID_23_)" fill-rule="nonzero" group-id="35,46" node-id="436" stroke="none" target-height="44.77002" target-width="52.679993" target-x="299.81" target-y="334.3"></path><path d="M 353.00 407.78 L 339.49 416.67 C 339.49 416.67 338.14 416.31 337.36 415.53 C 336.52 414.69 336.29 413.41 337.48 412.88 C 338.68 412.35 340.42 412.95 341.31 410.14 C 341.74 408.80 342.03 407.41 342.82 406.74 C 346.34 407.25 349.93 404.33 349.93 404.33 L 353.00 407.78 Z" fill="#f8b62d" fill-rule="nonzero" group-id="35,46" node-id="438" stroke="none" target-height="12.339996" target-width="16.709991" target-x="336.29" target-y="404.33002"></path><path d="M 353.94 408.55 L 347.90 413.49 L 346.87 412.47 C 346.87 412.47 341.95 416.28 341.26 416.65 C 340.57 417.02 338.34 416.69 337.99 416.50 C 337.64 416.31 337.19 415.32 337.19 415.32 C 337.19 415.32 340.44 415.87 340.98 415.43 C 341.52 414.99 352.21 406.54 352.21 406.54 L 353.94 408.55 Z" fill="#e6e8e8" fill-rule="nonzero" group-id="35,46" node-id="440" stroke="none" target-height="10.47998" target-width="16.75" target-x="337.19" target-y="406.54"></path><path d="M 349.43 359.06 C 349.43 359.06 325.75 361.70 324.15 369.33 C 322.55 376.96 342.35 406.07 342.35 406.07 L 349.45 403.35 C 349.45 403.35 342.99 379.64 338.96 375.06 C 350.43 375.46 366.88 373.36 363.14 362.15 C 362.05 359.90 353.02 358.71 349.43 359.06 Z" fill="url(#SVGID_24_)" fill-rule="nonzero" group-id="35,46" node-id="442" stroke="none" target-height="47.360046" target-width="44.330017" target-x="322.55" target-y="358.71"></path><path d="M 363.83 329.36 C 363.83 329.36 361.40 327.93 356.95 326.63 C 355.09 327.79 353.18 329.04 350.59 326.10 C 349.07 326.63 345.38 326.35 344.21 327.10 C 342.34 328.15 337.65 330.91 336.66 332.36 C 337.28 333.56 339.25 339.49 339.68 341.26 C 340.75 340.36 343.61 338.06 343.40 339.70 C 342.97 344.60 343.33 348.72 341.37 352.06 C 338.84 356.38 338.79 356.78 341.77 359.06 C 344.11 360.85 351.48 363.92 354.43 364.16 C 357.89 364.45 363.64 365.69 363.67 361.50 C 363.69 358.92 363.94 350.86 361.98 342.58 C 363.30 342.16 366.77 340.98 368.54 340.49 C 368.25 335.87 364.24 329.79 363.83 329.36 Z" fill="url(#SVGID_25_)" fill-rule="nonzero" group-id="35,46" node-id="444" stroke="none" target-height="39.590027" target-width="31.880005" target-x="336.66" target-y="326.1"></path><path d="M 339.38 338.82 L 342.86 347.63 C 342.98 347.94 343.27 348.16 343.60 348.19 L 348.01 348.59 C 348.66 348.65 349.15 348.01 348.92 347.40 L 345.56 338.42 C 345.44 338.09 345.13 337.86 344.78 337.85 L 340.25 337.62 C 339.60 337.58 339.14 338.22 339.38 338.82 Z" fill="#171c61" fill-rule="nonzero" group-id="35,46" node-id="446" stroke="none" target-height="11.070007" target-width="10.009979" target-x="339.14" target-y="337.58"></path><path d="M 337.13 333.32 C 335.54 334.95 333.12 337.05 331.78 336.49 C 329.62 335.59 322.30 333.31 319.82 332.59 C 317.34 331.87 315.73 332.42 313.63 333.64 C 312.16 334.55 310.57 338.30 311.47 339.02 C 312.37 339.74 313.28 337.01 314.81 336.88 C 316.24 336.76 317.22 335.40 317.98 335.82 C 318.74 336.24 323.34 338.64 324.34 339.08 C 325.34 339.52 332.92 343.93 335.06 342.62 C 336.01 342.04 337.71 340.95 339.31 339.92 L 337.13 333.32 Z" fill="#ffbe92" fill-rule="nonzero" group-id="35,46" node-id="448" stroke="none" target-height="12.059998" target-width="28.73999" target-x="310.57" target-y="331.87"></path><path d="M 368.41 340.52 L 361.25 342.75 C 361.96 345.56 362.71 348.41 362.85 348.60 C 361.27 348.26 350.43 345.94 349.72 345.63 C 349.01 345.32 348.52 342.39 346.29 342.54 C 345.53 342.61 345.25 343.27 345.24 343.38 C 345.22 343.50 345.16 343.97 344.86 344.42 C 344.56 344.88 344.47 345.32 344.68 345.84 C 344.89 346.37 344.72 346.69 345.00 347.08 C 345.29 347.47 346.28 348.19 347.09 348.28 C 347.90 348.37 348.23 348.44 349.70 349.12 C 351.17 349.80 358.86 354.63 364.72 355.42 C 366.20 355.51 369.59 356.37 369.38 350.90 C 369.25 347.50 369.03 343.68 368.41 340.52 Z" fill="#ffbe92" fill-rule="nonzero" group-id="35,46" node-id="450" stroke="none" target-height="15.850006" target-width="25.119995" target-x="344.47" target-y="340.52"></path></g></g></svg>