<?xml version="1.0" standalone="no"?><!DOCTYPE svg PUBLIC "-//W3C//DTD SVG 1.1//EN" "http://www.w3.org/Graphics/SVG/1.1/DTD/svg11.dtd"><svg height="800" node-id="1" sillyvg="true" template-height="800" template-width="800" version="1.1" viewBox="0 0 800 800" width="800" xmlns="http://www.w3.org/2000/svg" xmlns:xlink="http://www.w3.org/1999/xlink"><defs node-id="199"><linearGradient gradientUnits="objectBoundingBox" id="SVGID_1_" node-id="6" spreadMethod="pad" x1="256.1428" x2="256.1428" y1="427.0489" y2="330.2607"><stop offset="0.0000005358273" stop-color="#ffffff"></stop><stop offset="1" stop-color="#dbe3ee"></stop></linearGradient><linearGradient gradientUnits="objectBoundingBox" id="SVGID_2_" node-id="10" spreadMethod="pad" x1="191.5258" x2="191.5258" y1="485.0408" y2="268.5518"><stop offset="0.0000005358273" stop-color="#ffffff"></stop><stop offset="1" stop-color="#dbe3ee"></stop></linearGradient><linearGradient gradientUnits="objectBoundingBox" id="SVGID_3_" node-id="14" spreadMethod="pad" x1="567.3074" x2="567.3074" y1="442.3619" y2="285.8811"><stop offset="0.0000005358273" stop-color="#ffffff"></stop><stop offset="1" stop-color="#dbe3ee"></stop></linearGradient><linearGradient gradientUnits="objectBoundingBox" id="SVGID_4_" node-id="18" spreadMethod="pad" x1="629.8322" x2="629.8322" y1="465.0319" y2="295.2913"><stop offset="0.0000005358273" stop-color="#ffffff"></stop><stop offset="1" stop-color="#dbe3ee"></stop></linearGradient><linearGradient gradientUnits="objectBoundingBox" id="SVGID_5_" node-id="22" spreadMethod="pad" x1="121.1197" x2="121.1197" y1="507.1104" y2="356.597"><stop offset="0.0000005358273" stop-color="#ffffff"></stop><stop offset="1" stop-color="#edf1f9"></stop></linearGradient><linearGradient gradientUnits="objectBoundingBox" id="SVGID_6_" node-id="26" spreadMethod="pad" x1="683.7928" x2="683.7928" y1="490.505" y2="367.3728"><stop offset="0.0000005358273" stop-color="#ffffff"></stop><stop offset="1" stop-color="#edf1f9"></stop></linearGradient><linearGradient gradientUnits="objectBoundingBox" id="SVGID_7_" node-id="30" spreadMethod="pad" x1="127.0833" x2="127.0833" y1="234.8031" y2="170.2619"><stop offset="0.2332" stop-color="#ffffff"></stop><stop offset="1" stop-color="#d3dfee"></stop></linearGradient><linearGradient gradientUnits="objectBoundingBox" id="SVGID_8_" node-id="34" spreadMethod="pad" x1="644.1518" x2="644.1518" y1="197.9827" y2="133.4415"><stop offset="0.2332" stop-color="#ffffff"></stop><stop offset="1" stop-color="#d3dfee"></stop></linearGradient><linearGradient gradientUnits="objectBoundingBox" id="SVGID_9_" node-id="38" spreadMethod="pad" x1="514.3809" x2="514.3809" y1="241.1562" y2="194.4389"><stop offset="0.2332" stop-color="#ffffff"></stop><stop offset="1" stop-color="#d3dfee"></stop></linearGradient><linearGradient gradientUnits="objectBoundingBox" id="SVGID_10_" node-id="42" spreadMethod="pad" x1="400.5981" x2="400.5981" y1="756.681" y2="404.5521"><stop offset="0.4065" stop-color="#ffffff"></stop><stop offset="1" stop-color="#dae4ef"></stop></linearGradient><linearGradient gradientUnits="objectBoundingBox" id="SVGID_11_" node-id="47" spreadMethod="pad" x1="514.17" x2="476.6381" y1="646.2693" y2="409.3021"><stop offset="0.1468" stop-color="#ffffff"></stop><stop offset="1" stop-color="#bbcbe0"></stop></linearGradient><linearGradient gradientUnits="objectBoundingBox" id="SVGID_12_" node-id="51" spreadMethod="pad" x1="273.527" x2="387.3339" y1="358.7491" y2="358.7491"><stop offset="0.0000005309115" stop-color="#e5ecf3"></stop><stop offset="1" stop-color="#becfe0"></stop></linearGradient><linearGradient gradientUnits="objectBoundingBox" id="SVGID_13_" node-id="55" spreadMethod="pad" x1="387.3339" x2="524.6158" y1="333.3335" y2="333.3335"><stop offset="0" stop-color="#d9e3ed"></stop><stop offset="1" stop-color="#acc2db"></stop></linearGradient><linearGradient gradientUnits="objectBoundingBox" id="SVGID_14_" node-id="59" spreadMethod="pad" x1="253.7835" x2="253.7835" y1="377.7169" y2="313.0197"><stop offset="0" stop-color="#eff3f9"></stop><stop offset="0.9705" stop-color="#9cb6d2"></stop></linearGradient><linearGradient gradientUnits="objectBoundingBox" id="SVGID_15_" node-id="63" spreadMethod="pad" x1="273.527" x2="407.8041" y1="404.4785" y2="404.4785"><stop offset="0" stop-color="#eff3f9"></stop><stop offset="1" stop-color="#b4c7dc"></stop></linearGradient><linearGradient gradientUnits="objectBoundingBox" id="SVGID_16_" node-id="67" spreadMethod="pad" x1="381.4455" x2="539.3229" y1="464.5241" y2="332.0493"><stop offset="0" stop-color="#eff3f9"></stop><stop offset="0.9705" stop-color="#9cb6d2"></stop></linearGradient><linearGradient gradientUnits="objectBoundingBox" id="SVGID_17_" node-id="71" spreadMethod="pad" x1="407.8041" x2="564.1791" y1="363.7258" y2="363.7258"><stop offset="0" stop-color="#d5e0ee"></stop><stop offset="1" stop-color="#f5f9fa"></stop></linearGradient><linearGradient gradientUnits="objectBoundingBox" id="SVGID_18_" node-id="75" spreadMethod="pad" x1="238.0327" x2="407.8041" y1="365.6977" y2="365.6977"><stop offset="0.0000004424263" stop-color="#f7fafb"></stop><stop offset="1" stop-color="#d5e0ee"></stop></linearGradient><linearGradient gradientUnits="objectBoundingBox" id="SVGID_19_" node-id="81" spreadMethod="pad" x1="191.5277" x2="140.0915" y1="580.1368" y2="518.8375"><stop offset="0.4034" stop-color="#eff4f8"></stop><stop offset="1" stop-color="#d4dfec"></stop></linearGradient><linearGradient gradientUnits="objectBoundingBox" id="SVGID_20_" node-id="85" spreadMethod="pad" x1="112.4799" x2="176.6667" y1="459.8465" y2="459.8465"><stop offset="0.1022" stop-color="#f0f5f8"></stop><stop offset="1" stop-color="#b4c7dc"></stop></linearGradient><linearGradient gradientUnits="objectBoundingBox" id="SVGID_21_" node-id="91" spreadMethod="pad" x1="710.3898" x2="663.0244" y1="560.1642" y2="503.7163"><stop offset="0.4034" stop-color="#eff4f8"></stop><stop offset="1" stop-color="#d4dfec"></stop></linearGradient><linearGradient gradientUnits="objectBoundingBox" id="SVGID_22_" node-id="95" spreadMethod="pad" x1="637.5981" x2="696.705" y1="449.394" y2="449.394"><stop offset="0.1022" stop-color="#f0f5f8"></stop><stop offset="1" stop-color="#b4c7dc"></stop></linearGradient><linearGradient gradientUnits="objectBoundingBox" id="SVGID_23_" node-id="101" spreadMethod="pad" x1="251.7272" x2="226.2859" y1="460.9935" y2="430.6737"><stop offset="0.0000001438503" stop-color="#eaeff6"></stop><stop offset="1" stop-color="#cddae9"></stop></linearGradient><linearGradient gradientUnits="objectBoundingBox" id="SVGID_24_" node-id="105" spreadMethod="pad" x1="212.6287" x2="244.3767" y1="401.4957" y2="401.4957"><stop offset="0.1022" stop-color="#f0f5f8"></stop><stop offset="1" stop-color="#b4c7dc"></stop></linearGradient><linearGradient gradientUnits="objectBoundingBox" id="SVGID_25_" node-id="113" spreadMethod="pad" x1="478.348" x2="478.348" y1="344.3563" y2="156.6276"><stop offset="0.0000005358273" stop-color="#f3f6f9"></stop><stop offset="1" stop-color="#d0dae8"></stop></linearGradient><linearGradient gradientUnits="objectBoundingBox" id="SVGID_26_" node-id="118" spreadMethod="pad" x1="422.0042" x2="422.0042" y1="342.4409" y2="156.652"><stop offset="0.0000005358273" stop-color="#f3f6f9"></stop><stop offset="1" stop-color="#d0dae8"></stop></linearGradient><linearGradient gradientUnits="objectBoundingBox" id="SVGID_27_" node-id="123" spreadMethod="pad" x1="410.8723" x2="410.8723" y1="344.3387" y2="156.6483"><stop offset="0.0000005358273" stop-color="#f3f6f9"></stop><stop offset="1" stop-color="#d0dae8"></stop></linearGradient><linearGradient gradientUnits="objectBoundingBox" id="SVGID_28_" node-id="127" spreadMethod="pad" x1="464.4846" x2="540.3865" y1="141.2945" y2="141.2945"><stop offset="0" stop-color="#f3f6f9"></stop><stop offset="1" stop-color="#b5c6d8"></stop></linearGradient><linearGradient gradientUnits="objectBoundingBox" id="SVGID_29_" node-id="131" spreadMethod="pad" x1="503.1624" x2="503.1624" y1="163.6749" y2="129.7113"><stop offset="0" stop-color="#d5e0ee"></stop><stop offset="1" stop-color="#f5f9fa"></stop></linearGradient><linearGradient gradientUnits="objectBoundingBox" id="SVGID_30_" node-id="137" spreadMethod="pad" x1="276.1667" x2="351.9331" y1="326.6254" y2="360.3588"><stop offset="0.2247" stop-color="#f1f5f9"></stop><stop offset="1" stop-color="#bbcde1"></stop></linearGradient><linearGradient gradientUnits="objectBoundingBox" id="SVGID_31_" node-id="141" spreadMethod="pad" x1="275.2982" x2="330.1212" y1="332.6706" y2="332.6706"><stop offset="0" stop-color="#61aaf3"></stop><stop offset="0.6903" stop-color="#448be0"></stop></linearGradient><linearGradient gradientUnits="objectBoundingBox" id="SVGID_32_" node-id="147" spreadMethod="pad" x1="282.4514" x2="335.0777" y1="347.1733" y2="326.972"><stop offset="0" stop-color="#78c8ff"></stop><stop offset="0.6903" stop-color="#4d8fe9"></stop></linearGradient><linearGradient gradientUnits="objectBoundingBox" id="SVGID_33_" node-id="153" spreadMethod="pad" x1="338.3401" x2="338.3401" y1="336.3351" y2="311.2137"><stop offset="0" stop-color="#f2a319"></stop><stop offset="0.4796" stop-color="#ffc552"></stop></linearGradient></defs><g node-id="513"><g node-id="555"><path d="M 270.60 333.67 L 270.60 330.26 L 241.10 330.26 L 241.10 334.22 L 234.62 334.22 L 234.62 427.05 L 277.67 427.05 L 277.67 333.67 L 270.60 333.67 Z M 273.94 416.40 L 237.90 416.40 L 237.90 413.65 L 273.94 413.65 L 273.94 416.40 Z M 273.94 403.73 L 237.90 403.73 L 237.90 400.98 L 273.94 400.98 L 273.94 403.73 Z M 273.94 391.05 L 237.90 391.05 L 237.90 388.30 L 273.94 388.30 L 273.94 391.05 Z M 273.94 378.71 L 237.90 378.71 L 237.90 375.96 L 273.94 375.96 L 273.94 378.71 Z M 273.94 366.39 L 237.90 366.39 L 237.90 363.64 L 273.94 363.64 L 273.94 366.39 Z M 273.94 353.72 L 237.90 353.72 L 237.90 350.97 L 273.94 350.97 L 273.94 353.72 Z M 273.94 341.38 L 237.90 341.38 L 237.90 338.63 L 273.94 338.63 L 273.94 341.38 Z" fill="url(#SVGID_1_)" fill-rule="nonzero" group-id="1,43" node-id="402" stroke="none" target-height="96.78998" target-width="43.050034" target-x="234.61998" target-y="330.26"></path><path d="M 212.62 385.48 L 212.62 277.29 L 179.87 277.29 L 179.87 268.55 L 166.00 268.55 L 166.00 321.88 L 162.27 321.88 L 162.27 485.04 L 220.78 485.04 L 220.78 385.48 L 212.62 385.48 Z M 188.12 417.29 L 179.86 417.29 L 179.86 409.28 L 188.12 409.28 L 188.12 417.29 Z M 188.12 404.76 L 179.86 404.76 L 179.86 396.75 L 188.12 396.75 L 188.12 404.76 Z M 188.12 392.28 L 179.86 392.28 L 179.86 384.27 L 188.12 384.27 L 188.12 392.28 Z M 188.12 379.85 L 179.86 379.85 L 179.86 371.84 L 188.12 371.84 L 188.12 379.85 Z M 188.12 367.31 L 179.86 367.31 L 179.86 359.30 L 188.12 359.30 L 188.12 367.31 Z M 188.12 342.31 L 179.86 342.31 L 179.86 334.30 L 188.12 334.30 L 188.12 342.31 Z M 188.12 329.78 L 179.86 329.78 L 179.86 321.77 L 188.12 321.77 L 188.12 329.78 Z M 188.12 317.31 L 179.86 317.31 L 179.86 309.30 L 188.12 309.30 L 188.12 317.31 Z M 188.12 304.87 L 179.86 304.87 L 179.86 296.86 L 188.12 296.86 L 188.12 304.87 Z M 188.12 292.34 L 179.86 292.34 L 179.86 284.33 L 188.12 284.33 L 188.12 292.34 Z M 200.47 417.29 L 192.21 417.29 L 192.21 409.28 L 200.47 409.28 L 200.47 417.29 Z M 200.47 404.76 L 192.21 404.76 L 192.21 396.75 L 200.47 396.75 L 200.47 404.76 Z M 200.47 392.28 L 192.21 392.28 L 192.21 384.27 L 200.47 384.27 L 200.47 392.28 Z M 200.47 379.85 L 192.21 379.85 L 192.21 371.84 L 200.47 371.84 L 200.47 379.85 Z M 200.47 367.31 L 192.21 367.31 L 192.21 359.30 L 200.47 359.30 L 200.47 367.31 Z M 200.47 342.31 L 192.21 342.31 L 192.21 334.30 L 200.47 334.30 L 200.47 342.31 Z M 200.47 329.78 L 192.21 329.78 L 192.21 321.77 L 200.47 321.77 L 200.47 329.78 Z M 200.47 317.31 L 192.21 317.31 L 192.21 309.30 L 200.47 309.30 L 200.47 317.31 Z M 200.47 304.87 L 192.21 304.87 L 192.21 296.86 L 200.47 296.86 L 200.47 304.87 Z M 200.47 292.34 L 192.21 292.34 L 192.21 284.33 L 200.47 284.33 L 200.47 292.34 Z" fill="url(#SVGID_2_)" fill-rule="nonzero" group-id="1,43" node-id="404" stroke="none" target-height="216.49002" target-width="58.50998" target-x="162.27" target-y="268.55"></path><path d="M 534.92 442.36 C 535.28 437.71 534.92 285.88 534.92 285.88 L 553.45 285.88 L 553.45 319.59 L 582.95 319.59 L 582.95 390.04 L 599.68 390.04 L 599.68 442.36 L 534.92 442.36 Z" fill="url(#SVGID_3_)" fill-rule="nonzero" group-id="1,43" node-id="406" stroke="none" target-height="156.47998" target-width="64.76001" target-x="534.92" target-y="285.88"></path><path d="M 656.14 374.22 L 656.14 369.37 L 651.14 369.37 L 651.14 327.04 L 638.94 327.04 L 638.94 322.34 L 630.71 322.34 L 630.71 315.43 L 626.42 315.43 L 626.42 295.29 L 623.33 295.29 L 623.33 315.57 L 619.39 315.57 L 619.39 322.48 L 607.19 322.48 L 607.19 333.80 L 600.14 333.80 L 600.14 465.03 L 659.52 465.03 L 659.52 374.21 L 656.14 374.21 Z M 610.63 427.00 L 606.61 427.00 L 606.61 411.76 L 610.63 411.76 L 610.63 427.00 Z M 610.63 408.35 L 606.61 408.35 L 606.61 393.11 L 610.63 393.11 L 610.63 408.35 Z M 610.63 389.70 L 606.61 389.70 L 606.61 374.46 L 610.63 374.46 L 610.63 389.70 Z M 610.63 370.71 L 606.61 370.71 L 606.61 355.47 L 610.63 355.47 L 610.63 370.71 Z M 610.63 351.73 L 606.61 351.73 L 606.61 336.49 L 610.63 336.49 L 610.63 351.73 Z M 618.91 427.00 L 614.89 427.00 L 614.89 411.76 L 618.91 411.76 L 618.91 427.00 Z M 618.91 408.35 L 614.89 408.35 L 614.89 393.11 L 618.91 393.11 L 618.91 408.35 Z M 618.91 389.70 L 614.89 389.70 L 614.89 374.46 L 618.91 374.46 L 618.91 389.70 Z M 618.91 370.71 L 614.89 370.71 L 614.89 355.47 L 618.91 355.47 L 618.91 370.71 Z M 618.91 351.73 L 614.89 351.73 L 614.89 336.49 L 618.91 336.49 L 618.91 351.73 Z M 627.19 427.00 L 623.17 427.00 L 623.17 411.76 L 627.19 411.76 L 627.19 427.00 Z M 627.19 408.35 L 623.17 408.35 L 623.17 393.11 L 627.19 393.11 L 627.19 408.35 Z M 627.19 389.70 L 623.17 389.70 L 623.17 374.46 L 627.19 374.46 L 627.19 389.70 Z M 627.19 370.71 L 623.17 370.71 L 623.17 355.47 L 627.19 355.47 L 627.19 370.71 Z M 627.19 351.73 L 623.17 351.73 L 623.17 336.49 L 627.19 336.49 L 627.19 351.73 Z M 635.47 427.00 L 631.45 427.00 L 631.45 411.76 L 635.47 411.76 L 635.47 427.00 Z M 635.47 408.35 L 631.45 408.35 L 631.45 393.11 L 635.47 393.11 L 635.47 408.35 Z M 635.47 389.70 L 631.45 389.70 L 631.45 374.46 L 635.47 374.46 L 635.47 389.70 Z M 635.47 370.71 L 631.45 370.71 L 631.45 355.47 L 635.47 355.47 L 635.47 370.71 Z M 635.47 351.73 L 631.45 351.73 L 631.45 336.49 L 635.47 336.49 L 635.47 351.73 Z M 643.75 427.00 L 639.73 427.00 L 639.73 411.76 L 643.75 411.76 L 643.75 427.00 Z M 643.75 408.35 L 639.73 408.35 L 639.73 393.11 L 643.75 393.11 L 643.75 408.35 Z M 643.75 389.70 L 639.73 389.70 L 639.73 374.46 L 643.75 374.46 L 643.75 389.70 Z M 643.75 370.71 L 639.73 370.71 L 639.73 355.47 L 643.75 355.47 L 643.75 370.71 Z M 643.75 351.73 L 639.73 351.73 L 639.73 336.49 L 643.75 336.49 L 643.75 351.73 Z" fill="url(#SVGID_4_)" fill-rule="nonzero" group-id="1,43" node-id="408" stroke="none" target-height="169.73996" target-width="59.380005" target-x="600.14" target-y="295.29"></path><path d="M 94.49 507.11 L 94.49 417.57 L 104.75 417.57 L 104.75 371.87 L 140.01 356.60 L 140.01 416.85 L 147.75 416.85 L 147.75 507.11 Z" fill="url(#SVGID_5_)" fill-rule="nonzero" group-id="1,43" node-id="410" stroke="none" target-height="150.50998" target-width="53.260002" target-x="94.49" target-y="356.6"></path><path d="M 699.26 490.51 L 668.32 490.51 L 668.32 367.37 L 699.26 382.34 Z" fill="url(#SVGID_6_)" fill-rule="nonzero" group-id="1,43" node-id="412" stroke="none" target-height="123.140015" target-width="30.940002" target-x="668.32" target-y="367.37"></path><path d="M 89.31 193.69 C 89.31 193.69 98.65 168.21 121.61 178.21 C 126.91 172.83 133.47 168.92 142.34 170.68 C 151.21 172.45 156.93 179.09 158.87 183.51 C 161.65 183.38 183.91 184.12 183.91 207.21 C 183.91 230.30 156.97 229.86 155.02 228.03 C 152.62 230.17 141.08 241.78 127.08 228.53 C 124.05 231.12 114.15 242.09 98.50 226.95 C 91.25 229.98 74.02 232.31 70.68 214.52 C 67.34 196.73 84.48 191.72 89.31 193.69 Z" fill="url(#SVGID_7_)" fill-rule="nonzero" group-id="1,43" node-id="414" stroke="none" target-height="73.880005" target-width="116.57001" target-x="67.34" target-y="168.21"></path><path d="M 606.38 156.87 C 606.38 156.87 615.72 131.39 638.68 141.39 C 643.98 136.01 650.54 132.10 659.41 133.86 C 668.28 135.63 674.00 142.27 675.94 146.69 C 678.72 146.56 700.98 147.30 700.98 170.39 C 700.98 193.48 674.04 193.04 672.09 191.21 C 669.69 193.35 658.15 204.96 644.15 191.71 C 641.12 194.30 631.22 205.27 615.57 190.13 C 608.32 193.16 591.09 195.49 587.75 177.70 C 584.41 159.92 601.54 154.90 606.38 156.87 Z" fill="url(#SVGID_8_)" fill-rule="nonzero" group-id="1,43" node-id="416" stroke="none" target-height="73.87999" target-width="116.57007" target-x="584.41" target-y="131.39"></path><path d="M 487.04 211.40 C 487.04 211.40 493.80 192.95 510.42 200.20 C 514.26 196.30 519.00 193.47 525.43 194.75 C 531.85 196.03 535.99 200.84 537.39 204.03 C 539.40 203.94 555.52 204.47 555.52 221.18 C 555.52 237.89 536.02 237.57 534.61 236.25 C 532.87 237.80 524.52 246.20 514.38 236.62 C 512.19 238.49 505.02 246.44 493.70 235.48 C 488.45 237.67 475.98 239.36 473.56 226.48 C 471.14 213.61 483.54 209.97 487.04 211.40 Z" fill="url(#SVGID_9_)" fill-rule="nonzero" group-id="1,43" node-id="418" stroke="none" target-height="53.48999" target-width="84.380005" target-x="471.14" target-y="192.95001"></path><path d="M 771.58 580.62 C 771.58 627.31 732.49 672.10 662.92 705.11 C 593.35 738.13 498.99 756.68 400.60 756.68 C 302.21 756.68 207.85 738.13 138.28 705.11 C 68.71 672.10 29.62 627.31 29.62 580.62 C 29.62 533.93 68.71 489.14 138.28 456.13 C 207.85 423.11 302.21 404.56 400.60 404.56 C 498.99 404.56 593.35 423.11 662.92 456.13 C 732.49 489.14 771.58 533.93 771.58 580.62 Z" fill="url(#SVGID_10_)" fill-rule="nonzero" group-id="1,43" node-id="420" stroke="none" target-height="352.12" target-width="741.95996" target-x="29.619997" target-y="404.56"></path></g><g node-id="556"><path d="M 273.53 441.47 L 405.52 663.48 L 713.83 592.36 L 524.51 439.38 Z" fill="url(#SVGID_11_)" fill-rule="nonzero" group-id="1,44" node-id="424" stroke="none" target-height="224.09998" target-width="440.30002" target-x="273.53" target-y="439.38"></path><path d="M 273.53 434.34 L 387.33 434.34 L 387.33 283.16 L 273.53 313.02 Z" fill="url(#SVGID_12_)" fill-rule="nonzero" group-id="1,44" node-id="426" stroke="none" target-height="151.18" target-width="113.80002" target-x="273.53" target-y="283.16"></path><path d="M 524.62 383.51 L 387.33 383.51 L 387.33 283.16 L 524.62 314.52 Z" fill="url(#SVGID_13_)" fill-rule="nonzero" group-id="1,44" node-id="428" stroke="none" target-height="100.350006" target-width="137.28998" target-x="387.33002" target-y="283.16"></path><path d="M 273.53 313.02 L 234.04 360.07 L 273.53 377.72 Z" fill="url(#SVGID_14_)" fill-rule="nonzero" group-id="1,44" node-id="430" stroke="none" target-height="64.70001" target-width="39.490005" target-x="234.04" target-y="313.02"></path><path d="M 407.80 495.94 L 273.53 441.48 L 273.53 313.02 L 407.80 347.20 Z" fill="url(#SVGID_15_)" fill-rule="nonzero" group-id="1,44" node-id="432" stroke="none" target-height="182.92001" target-width="134.26996" target-x="273.53" target-y="313.02"></path><path d="M 407.80 495.94 L 524.62 439.60 L 524.62 314.52 L 407.80 347.20 Z" fill="url(#SVGID_16_)" fill-rule="nonzero" group-id="1,44" node-id="434" stroke="none" target-height="181.42001" target-width="116.82004" target-x="407.79996" target-y="314.52"></path><path d="M 524.62 314.52 L 564.18 367.48 L 449.62 412.93 L 407.80 347.20 Z" fill="url(#SVGID_17_)" fill-rule="nonzero" group-id="1,44" node-id="436" stroke="none" target-height="98.41" target-width="156.38004" target-x="407.79996" target-y="314.52"></path><path d="M 273.53 313.02 L 238.03 372.36 L 377.38 418.38 L 407.80 347.20 Z" fill="url(#SVGID_18_)" fill-rule="nonzero" group-id="1,44" node-id="438" stroke="none" target-height="105.36005" target-width="169.76994" target-x="238.03001" target-y="313.02"></path></g><g node-id="557"><g node-id="560"><path d="M 146.55 559.08 C 146.55 559.08 143.02 564.09 148.92 571.55 C 154.18 578.19 162.49 576.90 165.25 574.77 C 166.10 580.55 173.19 592.73 184.41 585.84 C 194.96 579.37 189.88 569.53 186.51 565.66 C 193.10 563.80 198.01 548.01 182.89 542.56 C 185.13 536.04 185.53 533.09 182.25 527.23 C 179.09 521.59 173.90 520.69 165.62 524.12 L 153.64 529.17 L 146.01 514.93 L 141.93 517.29 L 150.73 530.89 L 139.07 536.74 C 139.07 536.74 129.10 540.64 133.40 551.34 C 137.39 561.26 146.55 559.08 146.55 559.08 Z" fill="url(#SVGID_19_)" fill-rule="nonzero" group-id="1,45,48" node-id="444" stroke="none" target-height="77.79999" target-width="68.90999" target-x="129.1" target-y="514.93"></path><path d="M 126.25 498.37 L 162.31 498.37 C 162.31 498.37 173.96 498.70 176.28 485.39 C 178.83 470.78 168.20 468.77 168.20 468.77 C 168.20 468.77 174.60 465.83 173.21 454.78 C 171.82 443.73 162.09 442.34 158.04 442.85 C 158.70 436.30 160.08 421.47 144.68 421.32 C 129.81 421.17 129.90 436.14 131.01 442.04 C 125.71 442.10 109.70 450.05 120.96 467.49 C 114.83 472.74 112.24 475.77 112.51 483.34 C 112.78 490.91 117.41 498.37 126.25 498.37 Z" fill="url(#SVGID_20_)" fill-rule="nonzero" group-id="1,45,48" node-id="446" stroke="none" target-height="77.53" target-width="69.130005" target-x="109.7" target-y="421.17"></path><path d="M 161.42 478.13 L 146.04 488.25 L 145.62 478.47 L 155.35 467.01 L 145.47 474.99 L 144.19 445.09 L 143.25 475.18 L 132.87 466.92 L 143.15 478.25 L 142.84 488.32 L 127.02 476.70 L 142.72 491.95 L 141.93 517.31 L 147.29 517.31 L 146.21 492.10 Z" fill="#c6d5e6" fill-rule="nonzero" group-id="1,45,48" node-id="448" stroke="none" target-height="72.22" target-width="34.399994" target-x="127.020004" target-y="445.09"></path></g><g node-id="561"><path d="M 668.97 540.78 C 668.97 540.78 665.72 545.40 671.15 552.26 C 675.99 558.38 683.65 557.19 686.19 555.22 C 686.97 560.54 693.51 571.75 703.84 565.42 C 713.55 559.46 708.88 550.40 705.77 546.84 C 711.84 545.13 716.36 530.58 702.44 525.57 C 704.51 519.57 704.88 516.85 701.85 511.46 C 698.94 506.27 694.16 505.43 686.54 508.60 L 675.50 513.25 L 668.47 500.14 L 664.72 502.31 L 672.82 514.83 L 662.09 520.22 C 662.09 520.22 652.91 523.81 656.87 533.67 C 660.53 542.78 668.97 540.78 668.97 540.78 Z" fill="url(#SVGID_21_)" fill-rule="nonzero" group-id="1,45,49" node-id="453" stroke="none" target-height="71.609955" target-width="63.450012" target-x="652.91" target-y="500.14005"></path><path d="M 650.28 484.87 L 683.48 484.87 C 683.48 484.87 694.21 485.18 696.34 472.92 C 698.68 459.47 688.90 457.62 688.90 457.62 C 688.90 457.62 694.80 454.91 693.51 444.74 C 692.22 434.57 683.27 433.28 679.54 433.76 C 680.15 427.73 681.42 414.07 667.24 413.93 C 653.55 413.79 653.63 427.57 654.65 433.01 C 649.77 433.06 635.02 440.38 645.40 456.45 C 639.76 461.28 637.37 464.08 637.62 471.04 C 637.87 478.00 642.14 484.87 650.28 484.87 Z" fill="url(#SVGID_22_)" fill-rule="nonzero" group-id="1,45,49" node-id="455" stroke="none" target-height="71.389984" target-width="63.660034" target-x="635.02" target-y="413.79"></path><path d="M 682.66 466.23 L 668.50 475.55 L 668.12 466.54 L 677.07 455.99 L 667.98 463.34 L 666.80 435.80 L 665.93 463.52 L 656.38 455.91 L 665.84 466.34 L 665.55 475.61 L 650.99 464.91 L 665.45 478.96 L 664.72 502.31 L 669.65 502.31 L 668.66 479.10 Z" fill="#c6d5e6" fill-rule="nonzero" group-id="1,45,49" node-id="457" stroke="none" target-height="66.51001" target-width="31.669983" target-x="650.99" target-y="435.8"></path></g><g node-id="562"><path d="M 229.48 450.58 C 229.48 450.58 227.73 453.06 230.65 456.75 C 233.25 460.04 237.36 459.40 238.73 458.34 C 239.15 461.20 242.66 467.22 248.21 463.82 C 253.43 460.62 250.92 455.75 249.25 453.84 C 252.51 452.92 254.94 445.11 247.46 442.42 C 248.57 439.20 248.77 437.74 247.14 434.84 C 245.58 432.05 243.01 431.60 238.92 433.30 L 232.99 435.80 L 229.22 428.76 L 227.20 429.93 L 231.55 436.65 L 225.78 439.54 C 225.78 439.54 220.85 441.47 222.98 446.76 C 224.95 451.66 229.48 450.58 229.48 450.58 Z" fill="url(#SVGID_23_)" fill-rule="nonzero" group-id="1,45,50" node-id="462" stroke="none" target-height="38.45999" target-width="34.089996" target-x="220.85" target-y="428.76"></path><path d="M 219.44 420.55 L 237.27 420.55 C 237.27 420.55 243.03 420.71 244.18 414.13 C 245.44 406.90 240.18 405.91 240.18 405.91 C 240.18 405.91 243.35 404.45 242.66 398.99 C 241.97 393.53 237.16 392.84 235.16 393.09 C 235.49 389.85 236.17 382.51 228.55 382.44 C 221.19 382.37 221.24 389.77 221.79 392.69 C 219.17 392.72 211.25 396.65 216.82 405.28 C 213.79 407.87 212.50 409.38 212.64 413.12 C 212.78 416.86 215.07 420.55 219.44 420.55 Z" fill="url(#SVGID_24_)" fill-rule="nonzero" group-id="1,45,50" node-id="464" stroke="none" target-height="38.339996" target-width="34.190018" target-x="211.24998" target-y="382.37"></path><path d="M 236.84 410.54 L 229.23 415.55 L 229.02 410.71 L 233.83 405.04 L 228.95 408.99 L 228.31 394.19 L 227.85 409.08 L 222.72 405.00 L 227.80 410.60 L 227.64 415.58 L 219.82 409.83 L 227.59 417.38 L 227.19 429.92 L 229.84 429.92 L 229.31 417.45 Z" fill="#c6d5e6" fill-rule="nonzero" group-id="1,45,50" node-id="466" stroke="none" target-height="35.73001" target-width="17.019989" target-x="219.82" target-y="394.19"></path></g></g><g node-id="558"><g node-id="563"><g node-id="564"><path d="M 477.43 159.39 C 477.04 159.39 476.67 159.16 476.51 158.78 C 476.29 158.27 476.53 157.68 477.03 157.47 C 478.25 156.95 478.91 156.69 478.91 156.69 C 479.43 156.49 480.00 156.74 480.20 157.26 C 480.40 157.77 480.15 158.35 479.63 158.55 C 479.62 158.55 478.99 158.80 477.82 159.30 C 477.69 159.37 477.56 159.39 477.43 159.39 Z" fill="url(#SVGID_25_)" fill-rule="nonzero" group-id="1,46,51,52" node-id="475" stroke="none" target-height="2.899994" target-width="4.109955" target-x="476.29" target-y="156.49"></path></g><g node-id="565"><path d="M 408.55 339.08 C 408.15 339.08 407.76 338.83 407.61 338.43 C 407.13 337.14 406.75 335.79 406.48 334.42 C 406.38 333.88 406.73 333.35 407.27 333.25 C 407.81 333.14 408.34 333.50 408.44 334.04 C 408.68 335.30 409.03 336.54 409.48 337.72 C 409.67 338.24 409.41 338.81 408.90 339.01 C 408.79 339.06 408.67 339.08 408.55 339.08 Z M 421.97 331.39 C 421.96 331.39 421.95 331.39 421.95 331.39 C 420.58 331.36 419.21 331.27 417.88 331.13 C 417.33 331.07 416.93 330.58 416.99 330.03 C 417.05 329.48 417.54 329.08 418.09 329.14 C 419.37 329.28 420.68 329.36 422.00 329.39 C 422.55 329.40 422.99 329.86 422.98 330.41 C 422.96 330.96 422.51 331.39 421.97 331.39 Z M 425.97 331.33 C 425.44 331.33 425.00 330.92 424.97 330.38 C 424.94 329.83 425.36 329.36 425.91 329.33 C 427.20 329.26 428.51 329.14 429.82 328.97 C 430.37 328.90 430.87 329.29 430.94 329.84 C 431.01 330.39 430.62 330.89 430.07 330.96 C 428.71 331.13 427.35 331.26 426.01 331.33 C 426.01 331.33 425.99 331.33 425.97 331.33 Z M 407.04 331.26 C 406.50 331.26 406.06 330.83 406.04 330.29 C 406.03 330.06 406.03 329.82 406.03 329.58 C 406.03 329.14 406.04 328.70 406.06 328.26 C 406.04 328.25 406.03 328.25 406.01 328.24 C 404.73 327.77 403.47 327.25 402.25 326.71 C 401.75 326.48 401.52 325.89 401.74 325.39 C 401.97 324.89 402.56 324.66 403.06 324.88 C 404.09 325.34 405.16 325.78 406.24 326.19 C 406.24 326.17 406.24 326.16 406.25 326.14 C 406.32 325.59 406.82 325.21 407.37 325.27 C 407.92 325.34 408.31 325.84 408.24 326.39 C 408.10 327.46 408.04 328.53 408.04 329.58 C 408.04 329.80 408.04 330.02 408.05 330.23 C 408.06 330.78 407.63 331.24 407.08 331.26 C 407.06 331.26 407.05 331.26 407.04 331.26 Z M 414.03 330.53 C 413.96 330.53 413.90 330.52 413.83 330.51 C 412.73 330.29 411.64 330.03 410.59 329.73 L 409.86 329.52 C 409.33 329.36 409.03 328.81 409.19 328.28 C 409.35 327.75 409.90 327.45 410.43 327.61 L 411.13 327.82 C 412.13 328.11 413.17 328.36 414.22 328.57 C 414.76 328.68 415.11 329.21 415.00 329.75 C 414.91 330.21 414.50 330.53 414.03 330.53 Z M 433.91 330.32 C 433.44 330.32 433.02 329.99 432.93 329.51 C 432.82 328.97 433.17 328.44 433.72 328.33 C 435.00 328.08 436.28 327.78 437.55 327.44 C 438.08 327.30 438.63 327.61 438.78 328.15 C 438.93 328.69 438.61 329.23 438.07 329.38 C 436.76 329.73 435.43 330.04 434.11 330.30 C 434.04 330.31 433.97 330.32 433.91 330.32 Z M 441.63 328.25 C 441.21 328.25 440.82 327.99 440.68 327.57 C 440.50 327.05 440.78 326.48 441.30 326.30 C 442.54 325.88 443.78 325.41 444.98 324.91 C 445.49 324.70 446.08 324.94 446.29 325.45 C 446.50 325.96 446.26 326.55 445.75 326.76 C 444.51 327.28 443.23 327.76 441.95 328.20 C 441.85 328.23 441.74 328.25 441.63 328.25 Z M 449.01 325.17 C 448.64 325.17 448.29 324.97 448.12 324.62 C 447.87 324.13 448.07 323.53 448.56 323.28 C 449.75 322.68 450.90 322.04 451.99 321.38 C 452.46 321.09 453.08 321.25 453.36 321.72 C 453.64 322.19 453.49 322.81 453.02 323.09 C 451.88 323.78 450.68 324.44 449.45 325.06 C 449.31 325.13 449.16 325.17 449.01 325.17 Z M 399.07 325.04 C 398.91 325.04 398.75 325.00 398.60 324.92 C 397.40 324.28 396.22 323.59 395.08 322.87 C 394.61 322.58 394.47 321.96 394.77 321.49 C 395.06 321.02 395.68 320.88 396.15 321.18 C 397.24 321.87 398.39 322.54 399.54 323.15 C 400.03 323.41 400.21 324.02 399.95 324.50 C 399.77 324.85 399.42 325.04 399.07 325.04 Z M 408.02 323.35 C 407.93 323.35 407.85 323.34 407.76 323.32 C 407.23 323.18 406.91 322.63 407.05 322.09 C 407.40 320.80 407.84 319.49 408.37 318.19 C 408.58 317.68 409.16 317.43 409.67 317.64 C 410.18 317.85 410.43 318.43 410.22 318.94 C 409.73 320.16 409.31 321.40 408.98 322.61 C 408.87 323.05 408.46 323.35 408.02 323.35 Z M 455.84 321.01 C 455.53 321.01 455.23 320.87 455.04 320.60 C 454.71 320.16 454.81 319.53 455.25 319.20 C 456.34 318.40 457.34 317.56 458.24 316.72 C 458.64 316.34 459.28 316.36 459.65 316.76 C 460.03 317.16 460.01 317.80 459.61 318.17 C 458.66 319.06 457.59 319.95 456.44 320.80 C 456.25 320.95 456.04 321.01 455.84 321.01 Z M 392.31 320.77 C 392.10 320.77 391.89 320.71 391.72 320.57 C 390.63 319.76 389.56 318.91 388.54 318.02 C 388.12 317.66 388.08 317.03 388.44 316.61 C 388.80 316.19 389.43 316.15 389.85 316.51 C 390.83 317.36 391.86 318.19 392.91 318.96 C 393.35 319.29 393.45 319.92 393.12 320.36 C 392.92 320.63 392.62 320.77 392.31 320.77 Z M 410.99 315.94 C 410.83 315.94 410.67 315.90 410.52 315.82 C 410.03 315.56 409.85 314.96 410.11 314.47 C 410.74 313.29 411.46 312.11 412.26 310.96 C 412.57 310.51 413.20 310.39 413.65 310.71 C 414.10 311.02 414.22 311.65 413.90 312.10 C 413.15 313.18 412.47 314.30 411.88 315.41 C 411.69 315.75 411.35 315.94 410.99 315.94 Z M 386.28 315.54 C 386.02 315.54 385.77 315.44 385.57 315.24 C 384.62 314.28 383.69 313.27 382.81 312.24 C 382.45 311.82 382.50 311.19 382.92 310.83 C 383.34 310.47 383.97 310.52 384.33 310.94 C 385.18 311.93 386.07 312.90 386.98 313.83 C 387.37 314.22 387.37 314.86 386.97 315.24 C 386.79 315.44 386.53 315.54 386.28 315.54 Z M 461.60 315.50 C 461.39 315.50 461.18 315.43 460.99 315.30 C 460.55 314.97 460.47 314.34 460.80 313.90 C 460.92 313.74 461.04 313.58 461.16 313.41 C 461.81 312.49 462.40 311.57 462.91 310.66 C 463.18 310.18 463.79 310.01 464.27 310.28 C 464.75 310.55 464.92 311.16 464.65 311.64 C 464.11 312.61 463.48 313.59 462.79 314.57 C 462.66 314.75 462.53 314.93 462.39 315.11 C 462.20 315.37 461.90 315.50 461.60 315.50 Z M 381.10 309.46 C 380.79 309.46 380.49 309.32 380.29 309.05 C 379.50 307.96 378.73 306.83 378.01 305.68 C 377.72 305.21 377.86 304.59 378.33 304.30 C 378.80 304.01 379.42 304.15 379.71 304.62 C 380.40 305.73 381.14 306.82 381.91 307.87 C 382.24 308.32 382.14 308.94 381.69 309.27 C 381.51 309.40 381.30 309.46 381.10 309.46 Z M 415.52 309.37 C 415.29 309.37 415.06 309.29 414.87 309.13 C 414.45 308.77 414.40 308.14 414.76 307.72 C 415.63 306.71 416.57 305.71 417.57 304.74 C 417.97 304.36 418.60 304.36 418.98 304.76 C 419.36 305.16 419.36 305.79 418.96 306.17 C 418.01 307.09 417.11 308.05 416.28 309.01 C 416.09 309.25 415.81 309.37 415.52 309.37 Z M 465.45 308.52 C 465.34 308.52 465.23 308.50 465.12 308.46 C 464.60 308.28 464.33 307.70 464.51 307.18 C 464.96 305.92 465.24 304.70 465.36 303.53 C 465.41 302.98 465.90 302.58 466.45 302.63 C 467.00 302.68 467.40 303.17 467.35 303.72 C 467.22 305.05 466.90 306.43 466.40 307.84 C 466.25 308.27 465.86 308.52 465.45 308.52 Z M 421.25 303.79 C 420.96 303.79 420.68 303.67 420.48 303.43 C 420.13 303.00 420.19 302.37 420.61 302.02 C 421.64 301.17 422.73 300.34 423.85 299.54 C 424.30 299.22 424.92 299.33 425.24 299.78 C 425.56 300.23 425.45 300.85 425.00 301.17 C 423.92 301.94 422.87 302.74 421.88 303.56 C 421.70 303.72 421.47 303.79 421.25 303.79 Z M 376.87 302.68 C 376.51 302.68 376.16 302.49 375.98 302.15 C 375.35 300.96 374.76 299.72 374.21 298.49 C 373.99 297.98 374.22 297.39 374.72 297.17 C 375.23 296.95 375.82 297.18 376.04 297.68 C 376.57 298.88 377.14 300.07 377.75 301.22 C 378.01 301.71 377.82 302.31 377.33 302.57 C 377.18 302.64 377.02 302.68 376.87 302.68 Z M 466.11 300.66 C 465.66 300.66 465.25 300.35 465.14 299.89 C 464.86 298.71 464.35 297.61 463.65 296.63 C 463.33 296.18 463.43 295.56 463.88 295.23 C 464.33 294.91 464.95 295.01 465.28 295.46 C 466.14 296.66 466.75 297.99 467.09 299.42 C 467.22 299.96 466.89 300.50 466.35 300.63 C 466.26 300.65 466.18 300.66 466.11 300.66 Z M 427.77 299.16 C 427.43 299.16 427.10 298.99 426.92 298.68 C 426.63 298.21 426.78 297.59 427.25 297.31 C 428.40 296.61 429.59 295.93 430.79 295.30 C 431.28 295.04 431.88 295.23 432.14 295.72 C 432.40 296.21 432.21 296.81 431.72 297.07 C 430.56 297.68 429.41 298.33 428.30 299.01 C 428.13 299.11 427.95 299.16 427.77 299.16 Z M 434.85 295.44 C 434.47 295.44 434.10 295.22 433.94 294.85 C 433.72 294.35 433.94 293.75 434.45 293.53 C 435.70 292.98 436.97 292.46 438.22 292.01 C 438.74 291.82 439.31 292.09 439.50 292.61 C 439.69 293.13 439.42 293.70 438.90 293.89 C 437.69 294.33 436.46 294.83 435.25 295.36 C 435.12 295.41 434.99 295.44 434.85 295.44 Z M 373.64 295.36 C 373.23 295.36 372.85 295.11 372.70 294.70 C 372.24 293.43 371.82 292.13 371.45 290.83 C 371.30 290.30 371.61 289.75 372.14 289.59 C 372.67 289.44 373.22 289.75 373.38 290.28 C 373.74 291.54 374.14 292.80 374.58 294.02 C 374.77 294.54 374.50 295.11 373.98 295.30 C 373.87 295.35 373.75 295.36 373.64 295.36 Z M 461.60 294.27 C 461.40 294.27 461.20 294.21 461.02 294.09 C 460.06 293.41 458.95 292.82 457.71 292.33 C 457.20 292.13 456.94 291.55 457.15 291.03 C 457.35 290.52 457.93 290.26 458.45 290.47 C 459.84 291.02 461.10 291.68 462.18 292.45 C 462.63 292.77 462.74 293.39 462.42 293.84 C 462.23 294.12 461.92 294.27 461.60 294.27 Z M 442.37 292.71 C 441.93 292.71 441.53 292.42 441.41 291.98 C 441.26 291.45 441.57 290.90 442.10 290.75 C 443.46 290.37 444.80 290.06 446.08 289.82 C 446.62 289.72 447.14 290.08 447.25 290.62 C 447.35 291.16 446.99 291.68 446.45 291.79 C 445.22 292.02 443.94 292.32 442.64 292.68 C 442.55 292.70 442.46 292.71 442.37 292.71 Z M 454.23 291.38 C 454.19 291.38 454.15 291.38 454.11 291.37 C 453.40 291.28 452.64 291.24 451.84 291.24 C 451.36 291.22 450.83 291.26 450.30 291.29 C 449.75 291.32 449.27 290.91 449.24 290.35 C 449.21 289.80 449.62 289.32 450.18 289.29 C 450.75 289.25 451.30 289.24 451.84 289.24 C 451.84 289.24 451.84 289.24 451.85 289.24 C 452.73 289.24 453.57 289.29 454.36 289.39 C 454.91 289.46 455.30 289.96 455.23 290.50 C 455.16 291.01 454.72 291.38 454.23 291.38 Z M 371.45 287.67 C 370.99 287.67 370.57 287.35 370.47 286.88 C 370.19 285.55 369.95 284.21 369.77 282.87 C 369.69 282.32 370.07 281.82 370.62 281.74 C 371.17 281.66 371.67 282.04 371.75 282.59 C 371.93 283.88 372.16 285.18 372.43 286.46 C 372.54 287.00 372.20 287.53 371.66 287.65 C 371.59 287.67 371.52 287.67 371.45 287.67 Z M 370.35 279.75 C 369.83 279.75 369.39 279.35 369.35 278.82 C 369.27 277.60 369.23 276.38 369.23 275.18 L 369.23 274.74 C 369.23 274.19 369.69 273.72 370.24 273.75 C 370.79 273.75 371.24 274.21 371.23 274.76 L 371.23 275.18 C 371.23 276.33 371.27 277.51 371.35 278.68 C 371.39 279.23 370.97 279.71 370.42 279.75 C 370.39 279.75 370.37 279.75 370.35 279.75 Z M 370.43 271.76 C 370.40 271.76 370.37 271.76 370.34 271.76 C 369.79 271.71 369.38 271.22 369.43 270.67 C 369.54 269.42 369.71 268.18 369.92 267.00 L 369.96 266.84 L 370.09 266.48 C 370.27 265.96 370.84 265.69 371.36 265.87 C 371.88 266.05 372.16 266.62 371.97 267.14 L 371.87 267.42 C 371.69 268.47 371.53 269.65 371.42 270.84 C 371.37 271.37 370.94 271.76 370.43 271.76 Z M 372.40 264.06 C 372.28 264.06 372.16 264.04 372.04 263.99 C 371.52 263.79 371.26 263.22 371.46 262.70 C 371.94 261.44 372.43 260.19 372.94 258.96 C 373.15 258.45 373.73 258.20 374.24 258.41 C 374.75 258.62 375.00 259.20 374.79 259.71 C 374.29 260.93 373.80 262.16 373.33 263.41 C 373.18 263.81 372.80 264.06 372.40 264.06 Z M 375.43 256.66 C 375.30 256.66 375.16 256.63 375.03 256.58 C 374.52 256.36 374.30 255.77 374.52 255.26 C 375.06 254.03 375.62 252.81 376.19 251.60 C 376.43 251.10 377.02 250.89 377.52 251.12 C 378.02 251.36 378.23 251.95 378.00 252.45 C 377.44 253.64 376.89 254.85 376.35 256.07 C 376.18 256.44 375.82 256.66 375.43 256.66 Z M 378.84 249.43 C 378.69 249.43 378.54 249.40 378.39 249.32 C 377.90 249.07 377.70 248.47 377.95 247.98 C 378.55 246.78 379.17 245.59 379.80 244.41 C 380.06 243.92 380.67 243.74 381.15 244.00 C 381.64 244.26 381.82 244.87 381.56 245.35 C 380.94 246.51 380.33 247.69 379.73 248.88 C 379.56 249.22 379.21 249.43 378.84 249.43 Z M 382.61 242.37 C 382.44 242.37 382.27 242.33 382.12 242.24 C 381.64 241.97 381.47 241.36 381.74 240.88 C 382.40 239.71 383.08 238.55 383.77 237.40 C 384.05 236.93 384.67 236.77 385.14 237.06 C 385.61 237.34 385.77 237.96 385.48 238.43 C 384.80 239.56 384.13 240.71 383.48 241.86 C 383.30 242.19 382.96 242.37 382.61 242.37 Z M 386.72 235.51 C 386.54 235.51 386.35 235.46 386.19 235.35 C 385.72 235.05 385.58 234.44 385.88 233.97 C 386.60 232.83 387.33 231.71 388.07 230.60 C 388.38 230.14 389.00 230.02 389.46 230.32 C 389.92 230.63 390.04 231.25 389.74 231.71 C 389.01 232.81 388.29 233.92 387.57 235.04 C 387.38 235.35 387.05 235.51 386.72 235.51 Z M 391.16 228.86 C 390.96 228.86 390.76 228.80 390.59 228.68 C 390.14 228.36 390.03 227.74 390.35 227.29 C 391.12 226.19 391.91 225.10 392.70 224.02 C 393.03 223.57 393.65 223.48 394.10 223.81 C 394.54 224.14 394.64 224.76 394.31 225.21 C 393.53 226.27 392.75 227.35 391.99 228.44 C 391.78 228.71 391.47 228.86 391.16 228.86 Z M 395.90 222.41 C 395.69 222.41 395.47 222.34 395.29 222.20 C 394.85 221.86 394.77 221.23 395.11 220.80 C 395.93 219.73 396.76 218.68 397.60 217.64 C 397.95 217.21 398.58 217.14 399.01 217.49 C 399.44 217.84 399.51 218.47 399.16 218.90 C 398.33 219.93 397.51 220.97 396.69 222.02 C 396.50 222.28 396.20 222.41 395.90 222.41 Z M 400.93 216.19 C 400.70 216.19 400.47 216.11 400.29 215.95 C 399.87 215.59 399.81 214.96 400.17 214.54 C 401.04 213.51 401.92 212.50 402.80 211.50 C 403.16 211.09 403.80 211.05 404.21 211.41 C 404.62 211.78 404.66 212.41 404.30 212.82 C 403.43 213.81 402.56 214.81 401.70 215.83 C 401.49 216.07 401.21 216.19 400.93 216.19 Z M 406.22 210.19 C 405.98 210.19 405.74 210.10 405.54 209.93 C 405.13 209.56 405.11 208.92 405.48 208.52 C 406.39 207.53 407.31 206.55 408.23 205.59 C 408.61 205.19 409.25 205.18 409.64 205.56 C 410.04 205.94 410.05 206.58 409.67 206.97 C 408.76 207.92 407.85 208.89 406.94 209.87 C 406.76 210.08 406.49 210.19 406.22 210.19 Z M 411.76 204.42 C 411.50 204.42 411.25 204.32 411.05 204.13 C 410.66 203.74 410.66 203.11 411.05 202.72 C 412.00 201.77 412.96 200.83 413.92 199.90 C 414.32 199.52 414.95 199.53 415.33 199.93 C 415.71 200.33 415.70 200.96 415.30 201.34 C 414.35 202.25 413.40 203.18 412.46 204.13 C 412.27 204.32 412.02 204.42 411.76 204.42 Z M 417.53 198.87 C 417.26 198.87 416.99 198.76 416.80 198.55 C 416.43 198.14 416.45 197.51 416.86 197.14 C 417.85 196.22 418.84 195.32 419.84 194.44 C 420.25 194.07 420.88 194.11 421.25 194.52 C 421.62 194.93 421.58 195.56 421.17 195.93 C 420.19 196.81 419.20 197.70 418.22 198.61 C 418.01 198.78 417.77 198.87 417.53 198.87 Z M 423.51 193.55 C 423.23 193.55 422.95 193.43 422.75 193.20 C 422.39 192.78 422.44 192.15 422.86 191.79 C 423.89 190.91 424.91 190.05 425.94 189.20 C 426.37 188.85 427.00 188.91 427.35 189.34 C 427.70 189.77 427.64 190.40 427.21 190.75 C 426.20 191.59 425.18 192.44 424.16 193.31 C 423.97 193.47 423.74 193.55 423.51 193.55 Z M 429.68 188.46 C 429.39 188.46 429.09 188.33 428.90 188.08 C 428.56 187.65 428.63 187.02 429.06 186.67 C 430.12 185.83 431.18 185.00 432.23 184.20 C 432.67 183.86 433.30 183.95 433.63 184.39 C 433.97 184.83 433.88 185.46 433.44 185.79 C 432.40 186.59 431.35 187.40 430.30 188.24 C 430.12 188.39 429.90 188.46 429.68 188.46 Z M 436.04 183.59 C 435.73 183.59 435.43 183.45 435.23 183.18 C 434.90 182.74 435.00 182.11 435.44 181.78 C 436.53 180.97 437.62 180.19 438.70 179.42 C 439.15 179.10 439.77 179.21 440.09 179.66 C 440.41 180.11 440.30 180.73 439.85 181.05 C 438.78 181.81 437.71 182.59 436.62 183.39 C 436.45 183.53 436.24 183.59 436.04 183.59 Z M 442.56 178.96 C 442.24 178.96 441.93 178.81 441.73 178.53 C 441.42 178.07 441.53 177.45 441.99 177.14 C 443.12 176.37 444.23 175.62 445.33 174.90 C 445.79 174.60 446.41 174.72 446.72 175.18 C 447.02 175.64 446.90 176.26 446.44 176.57 C 445.35 177.29 444.25 178.03 443.13 178.79 C 442.95 178.90 442.75 178.96 442.56 178.96 Z M 449.24 174.55 C 448.91 174.55 448.59 174.39 448.40 174.09 C 448.10 173.62 448.24 173.01 448.71 172.71 C 449.87 171.97 451.01 171.27 452.12 170.58 C 452.59 170.29 453.21 170.44 453.49 170.91 C 453.78 171.38 453.63 172.00 453.16 172.28 C 452.05 172.96 450.93 173.66 449.78 174.39 C 449.61 174.50 449.42 174.55 449.24 174.55 Z M 456.07 170.37 C 455.73 170.37 455.39 170.19 455.21 169.88 C 454.93 169.40 455.09 168.79 455.56 168.51 C 456.75 167.81 457.92 167.14 459.04 166.50 C 459.52 166.23 460.13 166.40 460.40 166.88 C 460.67 167.36 460.50 167.97 460.02 168.24 C 458.90 168.87 457.75 169.53 456.57 170.23 C 456.42 170.32 456.24 170.37 456.07 170.37 Z M 463.05 166.43 C 462.69 166.43 462.35 166.24 462.17 165.91 C 461.91 165.42 462.09 164.82 462.57 164.55 C 463.81 163.88 465.00 163.25 466.13 162.67 C 466.62 162.42 467.22 162.61 467.48 163.10 C 467.73 163.59 467.54 164.19 467.05 164.45 C 465.93 165.03 464.76 165.65 463.53 166.31 C 463.37 166.39 463.21 166.43 463.05 166.43 Z M 470.16 162.75 C 469.79 162.75 469.44 162.54 469.26 162.19 C 469.02 161.69 469.22 161.10 469.72 160.85 C 471.06 160.19 472.28 159.61 473.36 159.11 C 473.86 158.88 474.46 159.10 474.69 159.60 C 474.92 160.10 474.70 160.70 474.20 160.93 C 473.14 161.42 471.93 162.00 470.60 162.65 C 470.46 162.72 470.31 162.75 470.16 162.75 Z" fill="url(#SVGID_26_)" fill-rule="nonzero" group-id="1,46,51,53" node-id="480" stroke="none" target-height="180.19998" target-width="105.68997" target-x="369.23004" target-y="158.88"></path></g><path d="M 411.44 344.34 C 411.16 344.34 410.88 344.22 410.68 343.99 C 410.66 343.96 410.13 343.35 409.44 342.22 C 409.15 341.75 409.30 341.13 409.77 340.85 C 410.24 340.56 410.86 340.71 411.14 341.18 C 411.73 342.15 412.18 342.68 412.18 342.68 C 412.54 343.10 412.49 343.73 412.07 344.09 C 411.91 344.26 411.67 344.34 411.44 344.34 Z" fill="url(#SVGID_27_)" fill-rule="nonzero" group-id="1,46,51,54" node-id="485" stroke="none" target-height="3.7799988" target-width="3.3900146" target-x="409.15002" target-y="340.56"></path></g><path d="M 464.48 131.58 L 540.39 118.91 L 516.68 163.67 Z" fill="url(#SVGID_28_)" fill-rule="nonzero" group-id="1,46" node-id="489" stroke="none" target-height="44.759995" target-width="75.91" target-x="464.48" target-y="118.91"></path><path d="M 522.01 129.71 L 493.42 148.68 L 489.72 163.67 L 484.32 143.77 Z" fill="url(#SVGID_29_)" fill-rule="nonzero" group-id="1,46" node-id="491" stroke="none" target-height="33.95999" target-width="37.690002" target-x="484.32" target-y="129.71"></path><path d="M 503.49 155.56 L 489.72 163.67 L 493.20 148.51 Z" fill="#b4c6d9" fill-rule="nonzero" group-id="1,46" node-id="493" stroke="none" target-height="15.160004" target-width="13.769989" target-x="489.72" target-y="148.51"></path></g><g node-id="559"><path d="M 351.95 330.02 L 362.88 335.76 C 362.88 335.76 340.57 336.09 330.97 344.26 C 321.37 352.43 312.97 370.21 282.16 359.61 C 251.35 349.01 274.76 337.63 286.58 339.62 C 298.40 341.61 314.52 337.41 322.58 329.02 C 330.64 320.63 349.19 327.81 351.95 330.02 Z" fill="url(#SVGID_30_)" fill-rule="nonzero" group-id="1,47" node-id="497" stroke="none" target-height="49.579987" target-width="111.52998" target-x="251.35002" target-y="320.63"></path><path d="M 320.13 318.58 C 320.13 318.58 310.36 318.75 303.73 327.75 C 301.85 330.40 300.75 332.11 299.86 333.49 C 298.97 334.87 296.49 337.30 292.85 334.32 C 289.21 331.34 280.10 323.66 280.10 323.66 L 275.30 330.13 C 275.30 330.13 291.14 347.56 297.60 346.74 C 304.06 345.91 311.29 346.57 319.63 336.25 C 327.97 325.92 330.12 323.44 330.12 323.44 L 320.13 318.58 Z" fill="url(#SVGID_31_)" fill-rule="nonzero" group-id="1,47" node-id="499" stroke="none" target-height="28.980042" target-width="54.820007" target-x="275.3" target-y="318.58"></path><path d="M 277.75 318.91 L 266.04 334.67 C 266.04 334.67 270.18 338.95 274.60 332.60 C 279.02 326.25 281.42 322.47 281.42 322.47 L 277.75 318.91 Z" fill="#f8b62d" fill-rule="nonzero" group-id="1,47" node-id="501" stroke="none" target-height="20.040009" target-width="15.380005" target-x="266.04" target-y="318.91"></path><path d="M 276.95 317.83 L 271.18 324.32 L 272.26 325.51 L 265.06 334.00 L 266.00 334.96 L 279.08 319.85 Z" fill="#e6e8e8" fill-rule="nonzero" group-id="1,47" node-id="503" stroke="none" target-height="17.130005" target-width="14.019989" target-x="265.06" target-y="317.83"></path><path d="M 320.59 319.09 C 320.59 319.09 313.12 321.30 308.55 330.35 C 303.99 339.41 303.29 342.79 298.24 340.29 C 293.20 337.79 283.92 333.15 283.92 333.15 L 279.83 340.36 C 279.83 340.36 298.09 355.12 305.19 351.88 C 312.29 348.64 334.20 333.84 334.20 333.84 C 334.20 333.84 335.75 328.32 335.49 328.06 C 335.24 327.82 320.59 319.09 320.59 319.09 Z" fill="url(#SVGID_32_)" fill-rule="nonzero" group-id="1,47" node-id="505" stroke="none" target-height="36.03" target-width="55.920013" target-x="279.83" target-y="319.09"></path><path d="M 281.04 329.49 L 269.33 345.25 C 269.33 345.25 273.47 349.53 277.89 343.18 C 282.31 336.83 284.71 333.05 284.71 333.05 L 281.04 329.49 Z" fill="#f8b62d" fill-rule="nonzero" group-id="1,47" node-id="507" stroke="none" target-height="20.040009" target-width="15.380005" target-x="269.33" target-y="329.49"></path><path d="M 280.24 328.41 L 274.47 334.90 L 275.55 336.09 L 268.36 344.58 L 269.30 345.54 L 282.37 330.43 Z" fill="#e6e8e8" fill-rule="nonzero" group-id="1,47" node-id="509" stroke="none" target-height="17.130005" target-width="14.01001" target-x="268.36" target-y="328.41"></path><path d="M 362.89 335.76 C 362.89 335.76 356.69 314.06 338.99 311.74 C 321.28 309.42 314.24 315.26 313.82 317.51 C 313.53 319.03 315.29 319.55 315.29 319.55 C 315.29 319.55 329.57 325.03 331.85 335.27 C 332.22 336.96 333.47 336.45 337.00 335.05 C 340.53 333.65 345.88 331.97 352.76 333.18 C 357.15 334.43 362.89 335.76 362.89 335.76 Z" fill="url(#SVGID_33_)" fill-rule="nonzero" group-id="1,47" node-id="511" stroke="none" target-height="27.539978" target-width="49.359985" target-x="313.53" target-y="309.42"></path></g></g></svg>