<?xml version="1.0" standalone="no"?><!DOCTYPE svg PUBLIC "-//W3C//DTD SVG 1.1//EN" "http://www.w3.org/Graphics/SVG/1.1/DTD/svg11.dtd"><svg height="800" node-id="1" sillyvg="true" template-height="800" template-width="800" version="1.1" viewBox="0 0 800 800" width="800" xmlns="http://www.w3.org/2000/svg" xmlns:xlink="http://www.w3.org/1999/xlink"><defs node-id="178"><linearGradient gradientUnits="objectBoundingBox" id="SVGID_1_" node-id="34" spreadMethod="pad" x1="256.5731" x2="256.5731" y1="422.0669" y2="325.2787"><stop offset="0.0000005358273" stop-color="#ffffff"></stop><stop offset="1" stop-color="#dbe3ee"></stop></linearGradient><linearGradient gradientUnits="objectBoundingBox" id="SVGID_2_" node-id="38" spreadMethod="pad" x1="191.9562" x2="191.9562" y1="480.0588" y2="263.5698"><stop offset="0.0000005358273" stop-color="#ffffff"></stop><stop offset="1" stop-color="#dbe3ee"></stop></linearGradient><linearGradient gradientUnits="objectBoundingBox" id="SVGID_3_" node-id="42" spreadMethod="pad" x1="567.7377" x2="567.7377" y1="437.3799" y2="280.8992"><stop offset="0.0000005358273" stop-color="#ffffff"></stop><stop offset="1" stop-color="#dbe3ee"></stop></linearGradient><linearGradient gradientUnits="objectBoundingBox" id="SVGID_4_" node-id="46" spreadMethod="pad" x1="630.2626" x2="630.2626" y1="460.0499" y2="290.3093"><stop offset="0.0000005358273" stop-color="#ffffff"></stop><stop offset="1" stop-color="#dbe3ee"></stop></linearGradient><linearGradient gradientUnits="objectBoundingBox" id="SVGID_5_" node-id="50" spreadMethod="pad" x1="121.55" x2="121.55" y1="502.1284" y2="351.6151"><stop offset="0.0000005358273" stop-color="#ffffff"></stop><stop offset="1" stop-color="#edf1f9"></stop></linearGradient><linearGradient gradientUnits="objectBoundingBox" id="SVGID_6_" node-id="54" spreadMethod="pad" x1="684.2232" x2="684.2232" y1="485.523" y2="362.3908"><stop offset="0.0000005358273" stop-color="#ffffff"></stop><stop offset="1" stop-color="#edf1f9"></stop></linearGradient><linearGradient gradientUnits="objectBoundingBox" id="SVGID_7_" node-id="58" spreadMethod="pad" x1="127.5137" x2="127.5137" y1="229.8212" y2="165.2799"><stop offset="0.2332" stop-color="#ffffff"></stop><stop offset="1" stop-color="#d3dfee"></stop></linearGradient><linearGradient gradientUnits="objectBoundingBox" id="SVGID_8_" node-id="62" spreadMethod="pad" x1="644.5822" x2="644.5822" y1="193.0007" y2="128.4595"><stop offset="0.2332" stop-color="#ffffff"></stop><stop offset="1" stop-color="#d3dfee"></stop></linearGradient><linearGradient gradientUnits="objectBoundingBox" id="SVGID_9_" node-id="66" spreadMethod="pad" x1="514.8112" x2="514.8112" y1="236.1742" y2="189.457"><stop offset="0.2332" stop-color="#ffffff"></stop><stop offset="1" stop-color="#d3dfee"></stop></linearGradient><linearGradient gradientUnits="objectBoundingBox" id="SVGID_10_" node-id="70" spreadMethod="pad" x1="401.0285" x2="401.0285" y1="751.699" y2="399.5701"><stop offset="0.4065" stop-color="#ffffff"></stop><stop offset="1" stop-color="#dae4ef"></stop></linearGradient><linearGradient gradientUnits="objectBoundingBox" id="SVGID_11_" node-id="76" spreadMethod="pad" x1="191.9581" x2="140.5218" y1="575.1548" y2="513.8555"><stop offset="0.4034" stop-color="#eff4f8"></stop><stop offset="1" stop-color="#d4dfec"></stop></linearGradient><linearGradient gradientUnits="objectBoundingBox" id="SVGID_12_" node-id="80" spreadMethod="pad" x1="112.9103" x2="177.0971" y1="454.8645" y2="454.8645"><stop offset="0.1022" stop-color="#f0f5f8"></stop><stop offset="1" stop-color="#b4c7dc"></stop></linearGradient><linearGradient gradientUnits="objectBoundingBox" id="SVGID_13_" node-id="86" spreadMethod="pad" x1="710.8202" x2="663.4548" y1="555.1823" y2="498.7343"><stop offset="0.4034" stop-color="#eff4f8"></stop><stop offset="1" stop-color="#d4dfec"></stop></linearGradient><linearGradient gradientUnits="objectBoundingBox" id="SVGID_14_" node-id="90" spreadMethod="pad" x1="638.0284" x2="697.1353" y1="444.412" y2="444.412"><stop offset="0.1022" stop-color="#f0f5f8"></stop><stop offset="1" stop-color="#b4c7dc"></stop></linearGradient><linearGradient gradientUnits="objectBoundingBox" id="SVGID_15_" node-id="96" spreadMethod="pad" x1="252.1576" x2="226.7163" y1="456.0115" y2="425.6917"><stop offset="0.0000001438503" stop-color="#eaeff6"></stop><stop offset="1" stop-color="#cddae9"></stop></linearGradient><linearGradient gradientUnits="objectBoundingBox" id="SVGID_16_" node-id="100" spreadMethod="pad" x1="213.0591" x2="244.8071" y1="396.5137" y2="396.5137"><stop offset="0.1022" stop-color="#f0f5f8"></stop><stop offset="1" stop-color="#b4c7dc"></stop></linearGradient><linearGradient gradientUnits="objectBoundingBox" id="SVGID_17_" node-id="106" spreadMethod="pad" x1="543.5555" x2="466.929" y1="668.9153" y2="401.6869"><stop offset="0.0698" stop-color="#ffffff"></stop><stop offset="0.7853" stop-color="#bbcbe0"></stop><stop offset="1" stop-color="#bbcbe0"></stop></linearGradient><linearGradient gradientUnits="objectBoundingBox" id="SVGID_18_" node-id="111" spreadMethod="pad" x1="271.9955" x2="537.1343" y1="375.4053" y2="375.4053"><stop offset="0" stop-color="#eff3f9"></stop><stop offset="1" stop-color="#b6c9de"></stop></linearGradient><linearGradient gradientUnits="objectBoundingBox" id="SVGID_19_" node-id="115" spreadMethod="pad" x1="294.7747" x2="514.3551" y1="375.4053" y2="375.4053"><stop offset="0" stop-color="#dde5f0"></stop><stop offset="1" stop-color="#9fb7ce"></stop></linearGradient><linearGradient gradientUnits="objectBoundingBox" id="SVGID_20_" node-id="119" spreadMethod="pad" x1="362.7817" x2="446.3481" y1="386.9847" y2="386.9847"><stop offset="0.1453" stop-color="#ffffff"></stop><stop offset="1" stop-color="#d8e3ef"></stop></linearGradient><linearGradient gradientUnits="objectBoundingBox" id="SVGID_21_" node-id="124" spreadMethod="pad" x1="370.2766" x2="438.8532" y1="324.3209" y2="324.3209"><stop offset="0.1453" stop-color="#ffffff"></stop><stop offset="1" stop-color="#d8e3ef"></stop></linearGradient><linearGradient gradientUnits="objectBoundingBox" id="SVGID_22_" node-id="129" spreadMethod="pad" x1="334.0785" x2="301.6467" y1="660.1761" y2="547.0731"><stop offset="0.1022" stop-color="#ffffff"></stop><stop offset="1" stop-color="#c9d5e6"></stop></linearGradient><linearGradient gradientUnits="objectBoundingBox" id="SVGID_23_" node-id="133" spreadMethod="pad" x1="271.9239" x2="319.1141" y1="547.9866" y2="547.9866"><stop offset="0" stop-color="#dde5f0"></stop><stop offset="1" stop-color="#9fb7ce"></stop></linearGradient><linearGradient gradientUnits="objectBoundingBox" id="SVGID_24_" node-id="141" spreadMethod="pad" x1="296.1982" x2="296.1982" y1="526.4368" y2="492.7718"><stop offset="0" stop-color="#f2a319"></stop><stop offset="0.4796" stop-color="#ffc552"></stop></linearGradient><linearGradient gradientUnits="objectBoundingBox" id="SVGID_25_" node-id="146" spreadMethod="pad" x1="279.6842" x2="295.2736" y1="552.0047" y2="525.003"><stop offset="0" stop-color="#78c8ff"></stop><stop offset="0.6903" stop-color="#2a80e2"></stop></linearGradient><linearGradient gradientUnits="objectBoundingBox" id="SVGID_26_" node-id="150" spreadMethod="pad" x1="294.6454" x2="311.9366" y1="553.3703" y2="523.4212"><stop offset="0" stop-color="#78c8ff"></stop><stop offset="0.6903" stop-color="#2a80e2"></stop></linearGradient><linearGradient gradientUnits="objectBoundingBox" id="SVGID_27_" node-id="154" spreadMethod="pad" x1="298.503" x2="286.103" y1="526.9892" y2="505.5117"><stop offset="0.3408" stop-color="#ef9a60"></stop><stop offset="1" stop-color="#ffbe92"></stop></linearGradient><linearGradient gradientUnits="objectBoundingBox" id="SVGID_28_" node-id="158" spreadMethod="pad" x1="280.0269" x2="317.0527" y1="518.8278" y2="518.8278"><stop offset="0.3408" stop-color="#f4ae7f"></stop><stop offset="1" stop-color="#ffbe92"></stop></linearGradient></defs><g node-id="505"><g node-id="519"><path d="M 271.03 328.68 L 271.03 325.27 L 241.53 325.27 L 241.53 329.23 L 235.05 329.23 L 235.05 422.06 L 278.10 422.06 L 278.10 328.68 L 271.03 328.68 Z M 274.37 411.42 L 238.33 411.42 L 238.33 408.67 L 274.37 408.67 L 274.37 411.42 Z M 274.37 398.75 L 238.33 398.75 L 238.33 396.00 L 274.37 396.00 L 274.37 398.75 Z M 274.37 386.07 L 238.33 386.07 L 238.33 383.32 L 274.37 383.32 L 274.37 386.07 Z M 274.37 373.73 L 238.33 373.73 L 238.33 370.98 L 274.37 370.98 L 274.37 373.73 Z M 274.37 361.41 L 238.33 361.41 L 238.33 358.66 L 274.37 358.66 L 274.37 361.41 Z M 274.37 348.74 L 238.33 348.74 L 238.33 345.99 L 274.37 345.99 L 274.37 348.74 Z M 274.37 336.39 L 238.33 336.39 L 238.33 333.64 L 274.37 333.64 L 274.37 336.39 Z" fill="url(#SVGID_1_)" fill-rule="nonzero" group-id="29,43" node-id="381" stroke="none" target-height="96.79001" target-width="43.050003" target-x="235.05" target-y="325.27"></path><path d="M 213.05 380.50 L 213.05 272.31 L 180.30 272.31 L 180.30 263.57 L 166.44 263.57 L 166.44 316.90 L 162.71 316.90 L 162.71 480.06 L 221.22 480.06 L 221.22 380.50 L 213.05 380.50 Z M 188.55 412.30 L 180.29 412.30 L 180.29 404.29 L 188.55 404.29 L 188.55 412.30 Z M 188.55 399.78 L 180.29 399.78 L 180.29 391.77 L 188.55 391.77 L 188.55 399.78 Z M 188.55 387.30 L 180.29 387.30 L 180.29 379.29 L 188.55 379.29 L 188.55 387.30 Z M 188.55 374.86 L 180.29 374.86 L 180.29 366.85 L 188.55 366.85 L 188.55 374.86 Z M 188.55 362.33 L 180.29 362.33 L 180.29 354.32 L 188.55 354.32 L 188.55 362.33 Z M 188.55 337.33 L 180.29 337.33 L 180.29 329.32 L 188.55 329.32 L 188.55 337.33 Z M 188.55 324.80 L 180.29 324.80 L 180.29 316.79 L 188.55 316.79 L 188.55 324.80 Z M 188.55 312.33 L 180.29 312.33 L 180.29 304.32 L 188.55 304.32 L 188.55 312.33 Z M 188.55 299.89 L 180.29 299.89 L 180.29 291.88 L 188.55 291.88 L 188.55 299.89 Z M 188.55 287.36 L 180.29 287.36 L 180.29 279.35 L 188.55 279.35 L 188.55 287.36 Z M 200.90 412.30 L 192.64 412.30 L 192.64 404.29 L 200.90 404.29 L 200.90 412.30 Z M 200.90 399.78 L 192.64 399.78 L 192.64 391.77 L 200.90 391.77 L 200.90 399.78 Z M 200.90 387.30 L 192.64 387.30 L 192.64 379.29 L 200.90 379.29 L 200.90 387.30 Z M 200.90 374.86 L 192.64 374.86 L 192.64 366.85 L 200.90 366.85 L 200.90 374.86 Z M 200.90 362.33 L 192.64 362.33 L 192.64 354.32 L 200.90 354.32 L 200.90 362.33 Z M 200.90 337.33 L 192.64 337.33 L 192.64 329.32 L 200.90 329.32 L 200.90 337.33 Z M 200.90 324.80 L 192.64 324.80 L 192.64 316.79 L 200.90 316.79 L 200.90 324.80 Z M 200.90 312.33 L 192.64 312.33 L 192.64 304.32 L 200.90 304.32 L 200.90 312.33 Z M 200.90 299.89 L 192.64 299.89 L 192.64 291.88 L 200.90 291.88 L 200.90 299.89 Z M 200.90 287.36 L 192.64 287.36 L 192.64 279.35 L 200.90 279.35 L 200.90 287.36 Z" fill="url(#SVGID_2_)" fill-rule="nonzero" group-id="29,43" node-id="383" stroke="none" target-height="216.48999" target-width="58.509995" target-x="162.71" target-y="263.57"></path><path d="M 535.36 437.38 C 535.72 432.73 535.36 280.90 535.36 280.90 L 553.89 280.90 L 553.89 314.61 L 583.39 314.61 L 583.39 385.06 L 600.12 385.06 L 600.12 437.38 L 535.36 437.38 Z" fill="url(#SVGID_3_)" fill-rule="nonzero" group-id="29,43" node-id="385" stroke="none" target-height="156.48001" target-width="64.76001" target-x="535.36" target-y="280.9"></path><path d="M 656.57 369.23 L 656.57 364.38 L 651.57 364.38 L 651.57 322.05 L 639.37 322.05 L 639.37 317.35 L 631.14 317.35 L 631.14 310.44 L 626.85 310.44 L 626.85 290.30 L 623.76 290.30 L 623.76 310.58 L 619.82 310.58 L 619.82 317.49 L 607.62 317.49 L 607.62 328.81 L 600.57 328.81 L 600.57 460.04 L 659.95 460.04 L 659.95 369.22 L 656.57 369.22 Z M 611.06 422.02 L 607.04 422.02 L 607.04 406.78 L 611.06 406.78 L 611.06 422.02 Z M 611.06 403.37 L 607.04 403.37 L 607.04 388.13 L 611.06 388.13 L 611.06 403.37 Z M 611.06 384.72 L 607.04 384.72 L 607.04 369.48 L 611.06 369.48 L 611.06 384.72 Z M 611.06 365.73 L 607.04 365.73 L 607.04 350.50 L 611.06 350.50 L 611.06 365.73 Z M 611.06 346.75 L 607.04 346.75 L 607.04 331.51 L 611.06 331.51 L 611.06 346.75 Z M 619.34 422.02 L 615.32 422.02 L 615.32 406.78 L 619.34 406.78 L 619.34 422.02 Z M 619.34 403.37 L 615.32 403.37 L 615.32 388.13 L 619.34 388.13 L 619.34 403.37 Z M 619.34 384.72 L 615.32 384.72 L 615.32 369.48 L 619.34 369.48 L 619.34 384.72 Z M 619.34 365.73 L 615.32 365.73 L 615.32 350.50 L 619.34 350.50 L 619.34 365.73 Z M 619.34 346.75 L 615.32 346.75 L 615.32 331.51 L 619.34 331.51 L 619.34 346.75 Z M 627.62 422.02 L 623.60 422.02 L 623.60 406.78 L 627.62 406.78 L 627.62 422.02 Z M 627.62 403.37 L 623.60 403.37 L 623.60 388.13 L 627.62 388.13 L 627.62 403.37 Z M 627.62 384.72 L 623.60 384.72 L 623.60 369.48 L 627.62 369.48 L 627.62 384.72 Z M 627.62 365.73 L 623.60 365.73 L 623.60 350.50 L 627.62 350.50 L 627.62 365.73 Z M 627.62 346.75 L 623.60 346.75 L 623.60 331.51 L 627.62 331.51 L 627.62 346.75 Z M 635.90 422.02 L 631.88 422.02 L 631.88 406.78 L 635.90 406.78 L 635.90 422.02 Z M 635.90 403.37 L 631.88 403.37 L 631.88 388.13 L 635.90 388.13 L 635.90 403.37 Z M 635.90 384.72 L 631.88 384.72 L 631.88 369.48 L 635.90 369.48 L 635.90 384.72 Z M 635.90 365.73 L 631.88 365.73 L 631.88 350.50 L 635.90 350.50 L 635.90 365.73 Z M 635.90 346.75 L 631.88 346.75 L 631.88 331.51 L 635.90 331.51 L 635.90 346.75 Z M 644.18 422.02 L 640.16 422.02 L 640.16 406.78 L 644.18 406.78 L 644.18 422.02 Z M 644.18 403.37 L 640.16 403.37 L 640.16 388.13 L 644.18 388.13 L 644.18 403.37 Z M 644.18 384.72 L 640.16 384.72 L 640.16 369.48 L 644.18 369.48 L 644.18 384.72 Z M 644.18 365.73 L 640.16 365.73 L 640.16 350.50 L 644.18 350.50 L 644.18 365.73 Z M 644.18 346.75 L 640.16 346.75 L 640.16 331.51 L 644.18 331.51 L 644.18 346.75 Z" fill="url(#SVGID_4_)" fill-rule="nonzero" group-id="29,43" node-id="387" stroke="none" target-height="169.74005" target-width="59.380005" target-x="600.57" target-y="290.3"></path><path d="M 94.92 502.13 L 94.92 412.58 L 105.18 412.58 L 105.18 366.89 L 140.44 351.62 L 140.44 411.86 L 148.18 411.86 L 148.18 502.13 Z" fill="url(#SVGID_5_)" fill-rule="nonzero" group-id="29,43" node-id="389" stroke="none" target-height="150.50998" target-width="53.259995" target-x="94.92" target-y="351.62003"></path><path d="M 699.69 485.52 L 668.75 485.52 L 668.75 362.39 L 699.69 377.36 Z" fill="url(#SVGID_6_)" fill-rule="nonzero" group-id="29,43" node-id="391" stroke="none" target-height="123.130005" target-width="30.940002" target-x="668.75" target-y="362.38998"></path><path d="M 89.74 188.71 C 89.74 188.71 99.08 163.23 122.04 173.23 C 127.34 167.85 133.90 163.94 142.77 165.70 C 151.64 167.47 157.36 174.11 159.30 178.53 C 162.08 178.40 184.34 179.14 184.34 202.23 C 184.34 225.32 157.40 224.88 155.45 223.05 C 153.05 225.19 141.51 236.80 127.51 223.55 C 124.48 226.14 114.58 237.11 98.93 221.97 C 91.68 225.00 74.45 227.33 71.11 209.54 C 67.77 191.75 84.91 186.74 89.74 188.71 Z" fill="url(#SVGID_7_)" fill-rule="nonzero" group-id="29,43" node-id="393" stroke="none" target-height="73.880005" target-width="116.569984" target-x="67.77" target-y="163.23"></path><path d="M 606.81 151.89 C 606.81 151.89 616.15 126.41 639.11 136.41 C 644.41 131.03 650.97 127.12 659.84 128.88 C 668.71 130.64 674.43 137.29 676.37 141.71 C 679.15 141.58 701.41 142.32 701.41 165.41 C 701.41 188.50 674.47 188.06 672.52 186.23 C 670.12 188.37 658.58 199.98 644.58 186.73 C 641.55 189.32 631.65 200.29 616.00 185.15 C 608.75 188.18 591.52 190.51 588.18 172.72 C 584.84 154.94 601.98 149.92 606.81 151.89 Z" fill="url(#SVGID_8_)" fill-rule="nonzero" group-id="29,43" node-id="395" stroke="none" target-height="73.87999" target-width="116.569885" target-x="584.84" target-y="126.41"></path><path d="M 487.47 206.42 C 487.47 206.42 494.23 187.97 510.85 195.22 C 514.69 191.32 519.43 188.49 525.86 189.77 C 532.28 191.05 536.42 195.86 537.82 199.05 C 539.83 198.96 555.95 199.49 555.95 216.20 C 555.95 232.91 536.45 232.59 535.04 231.27 C 533.30 232.82 524.95 241.22 514.81 231.64 C 512.62 233.51 505.45 241.46 494.13 230.50 C 488.88 232.69 476.41 234.38 473.99 221.50 C 471.57 208.63 483.97 204.99 487.47 206.42 Z" fill="url(#SVGID_9_)" fill-rule="nonzero" group-id="29,43" node-id="397" stroke="none" target-height="53.48999" target-width="84.380005" target-x="471.57" target-y="187.97"></path><path d="M 772.01 575.63 C 772.01 622.32 732.92 667.11 663.35 700.12 C 593.78 733.14 499.42 751.69 401.03 751.69 C 302.64 751.69 208.28 733.14 138.71 700.12 C 69.14 667.11 30.05 622.32 30.05 575.63 C 30.05 528.94 69.14 484.15 138.71 451.14 C 208.28 418.12 302.64 399.57 401.03 399.57 C 499.42 399.57 593.78 418.12 663.35 451.14 C 732.92 484.15 772.01 528.94 772.01 575.63 Z" fill="url(#SVGID_10_)" fill-rule="nonzero" group-id="29,43" node-id="399" stroke="none" target-height="352.12" target-width="741.96" target-x="30.049986" target-y="399.57"></path></g><g node-id="520"><g node-id="523"><path d="M 146.98 554.10 C 146.98 554.10 143.45 559.11 149.35 566.57 C 154.61 573.21 162.92 571.92 165.68 569.79 C 166.53 575.57 173.62 587.75 184.84 580.86 C 195.39 574.39 190.31 564.55 186.94 560.68 C 193.53 558.82 198.44 543.03 183.32 537.58 C 185.56 531.06 185.96 528.11 182.68 522.25 C 179.52 516.61 174.33 515.71 166.05 519.14 L 154.07 524.19 L 146.44 509.95 L 142.36 512.31 L 151.16 525.91 L 139.50 531.76 C 139.50 531.76 129.53 535.66 133.83 546.36 C 137.82 556.28 146.98 554.10 146.98 554.10 Z" fill="url(#SVGID_11_)" fill-rule="nonzero" group-id="29,44,47" node-id="405" stroke="none" target-height="77.80002" target-width="68.91" target-x="129.53" target-y="509.94998"></path><path d="M 126.68 493.39 L 162.74 493.39 C 162.74 493.39 174.39 493.72 176.71 480.41 C 179.26 465.80 168.63 463.79 168.63 463.79 C 168.63 463.79 175.03 460.85 173.64 449.80 C 172.25 438.75 162.52 437.36 158.47 437.87 C 159.13 431.32 160.51 416.49 145.11 416.34 C 130.24 416.19 130.33 431.16 131.44 437.06 C 126.14 437.12 110.13 445.07 121.39 462.51 C 115.26 467.76 112.67 470.79 112.94 478.36 C 113.21 485.93 117.84 493.39 126.68 493.39 Z" fill="url(#SVGID_12_)" fill-rule="nonzero" group-id="29,44,47" node-id="407" stroke="none" target-height="77.53" target-width="69.129974" target-x="110.130005" target-y="416.19"></path><path d="M 161.85 473.15 L 146.47 483.27 L 146.05 473.48 L 155.78 462.02 L 145.90 470.01 L 144.62 440.10 L 143.68 470.20 L 133.30 461.94 L 143.58 473.27 L 143.27 483.34 L 127.45 471.71 L 143.15 486.97 L 142.36 512.32 L 147.72 512.32 L 146.64 487.12 Z" fill="#c6d5e6" fill-rule="nonzero" group-id="29,44,47" node-id="409" stroke="none" target-height="72.22" target-width="34.40001" target-x="127.45" target-y="440.1"></path></g><g node-id="524"><path d="M 669.40 535.80 C 669.40 535.80 666.15 540.42 671.58 547.28 C 676.42 553.40 684.08 552.21 686.62 550.24 C 687.40 555.56 693.94 566.77 704.27 560.44 C 713.98 554.48 709.31 545.42 706.20 541.86 C 712.27 540.15 716.79 525.60 702.87 520.59 C 704.94 514.59 705.31 511.87 702.28 506.48 C 699.37 501.29 694.59 500.45 686.97 503.62 L 675.93 508.27 L 668.90 495.16 L 665.15 497.33 L 673.25 509.85 L 662.52 515.24 C 662.52 515.24 653.34 518.83 657.30 528.69 C 660.96 537.80 669.40 535.80 669.40 535.80 Z" fill="url(#SVGID_13_)" fill-rule="nonzero" group-id="29,44,48" node-id="414" stroke="none" target-height="71.610016" target-width="63.44995" target-x="653.34" target-y="495.16"></path><path d="M 650.71 479.88 L 683.91 479.88 C 683.91 479.88 694.64 480.19 696.77 467.93 C 699.11 454.48 689.33 452.63 689.33 452.63 C 689.33 452.63 695.23 449.92 693.94 439.75 C 692.65 429.58 683.70 428.29 679.97 428.77 C 680.58 422.74 681.85 409.08 667.67 408.94 C 653.98 408.80 654.06 422.58 655.08 428.02 C 650.20 428.07 635.45 435.39 645.83 451.46 C 640.19 456.29 637.80 459.09 638.05 466.05 C 638.30 473.01 642.57 479.88 650.71 479.88 Z" fill="url(#SVGID_14_)" fill-rule="nonzero" group-id="29,44,48" node-id="416" stroke="none" target-height="71.390045" target-width="63.659912" target-x="635.45" target-y="408.79996"></path><path d="M 683.10 461.25 L 668.93 470.57 L 668.55 461.56 L 677.50 451.00 L 668.41 458.36 L 667.23 430.82 L 666.36 458.54 L 656.81 450.93 L 666.27 461.36 L 665.98 470.63 L 651.42 459.93 L 665.88 473.98 L 665.15 497.32 L 670.08 497.32 L 669.09 474.12 Z" fill="#c6d5e6" fill-rule="nonzero" group-id="29,44,48" node-id="418" stroke="none" target-height="66.49997" target-width="31.679993" target-x="651.42" target-y="430.82004"></path></g><g node-id="525"><path d="M 229.91 445.60 C 229.91 445.60 228.16 448.08 231.08 451.77 C 233.68 455.06 237.79 454.42 239.16 453.36 C 239.58 456.22 243.09 462.24 248.64 458.84 C 253.86 455.64 251.35 450.77 249.68 448.86 C 252.94 447.94 255.37 440.13 247.89 437.44 C 249.00 434.22 249.20 432.76 247.57 429.86 C 246.01 427.07 243.44 426.62 239.35 428.32 L 233.42 430.82 L 229.65 423.78 L 227.63 424.95 L 231.98 431.67 L 226.21 434.56 C 226.21 434.56 221.28 436.49 223.41 441.78 C 225.38 446.68 229.91 445.60 229.91 445.60 Z" fill="url(#SVGID_15_)" fill-rule="nonzero" group-id="29,44,49" node-id="423" stroke="none" target-height="38.460022" target-width="34.09001" target-x="221.27998" target-y="423.77997"></path><path d="M 219.87 415.57 L 237.70 415.57 C 237.70 415.57 243.46 415.73 244.61 409.15 C 245.87 401.92 240.61 400.93 240.61 400.93 C 240.61 400.93 243.78 399.47 243.09 394.01 C 242.40 388.55 237.59 387.86 235.59 388.11 C 235.92 384.87 236.60 377.53 228.98 377.46 C 221.62 377.39 221.67 384.79 222.22 387.71 C 219.60 387.74 211.68 391.67 217.25 400.30 C 214.22 402.89 212.93 404.40 213.07 408.14 C 213.21 411.88 215.50 415.57 219.87 415.57 Z" fill="url(#SVGID_16_)" fill-rule="nonzero" group-id="29,44,49" node-id="425" stroke="none" target-height="38.339996" target-width="34.190002" target-x="211.68" target-y="377.38998"></path><path d="M 237.27 405.56 L 229.66 410.56 L 229.45 405.72 L 234.26 400.05 L 229.38 404.00 L 228.74 389.21 L 228.28 404.10 L 223.15 400.01 L 228.23 405.62 L 228.07 410.60 L 220.25 404.85 L 228.02 412.39 L 227.63 424.93 L 230.27 424.93 L 229.74 412.47 Z" fill="#c6d5e6" fill-rule="nonzero" group-id="29,44,49" node-id="427" stroke="none" target-height="35.71997" target-width="17.019974" target-x="220.25002" target-y="389.21"></path></g></g><g node-id="521"><path d="M 501.79 460.55 L 707.80 598.10 L 430.21 701.42 L 296.39 450.59 Z" fill="url(#SVGID_17_)" fill-rule="nonzero" group-id="29,45" node-id="433" stroke="none" target-height="250.82999" target-width="411.41003" target-x="296.39" target-y="450.59"></path><path d="M 529.82 280.63 C 494.70 276.20 482.72 246.88 480.45 232.03 C 479.95 228.76 477.45 226.17 474.21 225.52 C 445.05 219.70 408.77 220.42 404.56 220.53 C 400.36 220.42 364.07 219.70 334.91 225.52 C 331.67 226.17 329.17 228.76 328.67 232.03 C 326.40 246.88 314.42 276.20 279.30 280.63 C 275.36 281.13 272.38 284.44 272.37 288.42 C 272.33 325.14 271.98 313.34 271.98 343.94 C 271.98 376.40 281.76 442.50 308.74 468.32 C 334.86 493.31 363.30 511.94 402.58 529.90 L 402.58 529.90 C 403.79 530.52 405.22 530.53 406.44 529.94 L 406.51 529.90 C 445.78 511.94 474.23 493.31 500.35 468.32 C 527.34 442.51 537.11 376.41 537.11 343.94 C 537.11 313.34 536.76 325.14 536.72 288.42 C 536.74 284.45 533.76 281.13 529.82 280.63 Z" fill="url(#SVGID_18_)" fill-rule="nonzero" group-id="29,45" node-id="435" stroke="none" target-height="310.83002" target-width="265.12997" target-x="271.98" target-y="219.7"></path><path d="M 508.30 296.92 C 479.22 293.25 469.29 268.97 467.41 256.67 C 467.00 253.96 464.93 251.82 462.24 251.28 C 438.09 246.46 408.04 247.06 404.56 247.15 C 401.08 247.06 371.03 246.46 346.88 251.28 C 344.19 251.82 342.13 253.96 341.71 256.67 C 339.83 268.97 329.91 293.25 300.82 296.92 C 297.55 297.33 295.09 300.08 295.08 303.37 C 295.05 333.78 294.76 324.01 294.76 349.35 C 294.76 376.23 302.86 430.98 325.21 452.35 C 346.84 473.04 370.40 488.47 402.92 503.35 L 402.92 503.35 C 403.92 503.86 405.10 503.87 406.11 503.38 L 406.17 503.35 C 438.70 488.48 462.25 473.05 483.88 452.35 C 506.23 430.97 514.33 376.23 514.33 349.35 C 514.33 324.01 514.04 333.78 514.01 303.37 C 514.03 300.08 511.56 297.33 508.30 296.92 Z" fill="url(#SVGID_19_)" fill-rule="nonzero" group-id="29,45" node-id="437" stroke="none" target-height="257.41003" target-width="219.57" target-x="294.76" target-y="246.46"></path><path d="M 439.87 352.95 L 369.26 352.95 C 365.68 352.95 362.78 355.85 362.78 359.43 L 362.78 414.54 C 362.78 418.12 365.68 421.02 369.26 421.02 L 439.87 421.02 C 443.45 421.02 446.35 418.12 446.35 414.54 L 446.35 359.43 C 446.35 355.85 443.45 352.95 439.87 352.95 Z M 408.54 386.25 L 409.40 405.51 L 399.42 405.51 L 400.25 386.17 C 397.91 384.74 396.34 382.18 396.34 379.23 C 396.34 374.74 399.98 371.11 404.46 371.11 C 408.95 371.11 412.58 374.75 412.58 379.23 C 412.58 382.23 410.95 384.84 408.54 386.25 Z" fill="url(#SVGID_20_)" fill-rule="nonzero" group-id="29,45" node-id="439" stroke="none" target-height="68.06998" target-width="83.56998" target-x="362.78003" target-y="352.95"></path><g node-id="526"><path d="M 438.85 345.13 L 424.43 345.13 L 424.43 337.80 C 424.43 326.85 415.52 317.93 404.56 317.93 C 393.61 317.93 384.70 326.84 384.70 337.80 L 384.70 345.13 L 370.28 345.13 L 370.28 337.80 C 370.28 318.89 385.66 303.51 404.57 303.51 C 423.48 303.51 438.86 318.89 438.86 337.80 L 438.86 345.13 Z" fill="url(#SVGID_21_)" fill-rule="nonzero" group-id="29,45,50" node-id="443" stroke="none" target-height="41.620026" target-width="68.57999" target-x="370.28" target-y="303.51"></path></g></g><g node-id="522"><path d="M 316.32 553.66 L 363.58 651.72 L 306.82 662.76 L 272.14 555.53 Z" fill="url(#SVGID_22_)" fill-rule="nonzero" group-id="29,46" node-id="449" stroke="none" target-height="109.10004" target-width="91.44" target-x="272.14" target-y="553.66"></path><path d="M 315.36 558.00 L 275.68 558.00 C 273.61 558.00 271.93 556.32 271.93 554.25 L 271.93 541.73 C 271.93 539.66 273.61 537.98 275.68 537.98 L 315.36 537.98 C 317.43 537.98 319.11 539.66 319.11 541.73 L 319.11 554.25 C 319.11 556.32 317.43 558.00 315.36 558.00 Z" fill="url(#SVGID_23_)" fill-rule="nonzero" group-id="29,46" node-id="451" stroke="none" target-height="20.02002" target-width="47.179993" target-x="271.93" target-y="537.98"></path><path d="M 303.94 555.61 C 303.87 555.81 303.72 555.99 303.52 556.11 C 303.09 556.36 302.85 556.77 301.89 556.53 C 300.43 556.17 300.19 555.75 299.95 554.97 C 299.21 555.96 299.92 557.19 299.47 558.69 C 299.01 560.19 298.08 562.57 300.70 564.15 C 303.32 565.73 305.77 563.39 305.90 561.33 C 306.03 559.27 304.18 556.61 304.48 555.77 C 304.60 555.16 304.32 554.63 304.32 554.63 C 304.32 554.63 304.07 555.23 303.94 555.61 Z" fill="#f8b62d" fill-rule="nonzero" group-id="29,46" node-id="453" stroke="none" target-height="11.099976" target-width="7.950012" target-x="298.08" target-y="554.63"></path><path d="M 305.68 559.73 C 305.68 559.73 306.13 562.81 304.14 563.74 C 303.60 564.03 300.87 564.73 299.13 562.44 C 299.26 562.85 299.84 564.26 301.52 564.82 C 302.29 564.98 303.87 565.21 305.25 563.80 C 306.63 562.39 305.68 559.73 305.68 559.73 Z" fill="#e6e8e8" fill-rule="nonzero" group-id="29,46" node-id="455" stroke="none" target-height="5.4800415" target-width="7.5" target-x="299.13" target-y="559.73"></path><path d="M 287.83 555.43 C 287.90 555.64 288.04 555.82 288.24 555.94 C 288.66 556.20 288.89 556.61 289.86 556.40 C 291.32 556.07 291.58 555.66 291.82 554.88 C 292.55 555.89 292.68 557.00 293.11 558.51 C 293.54 560.02 295.30 562.32 292.65 563.84 C 290.00 565.36 287.23 562.78 287.14 560.72 C 287.05 558.65 287.57 556.43 287.29 555.58 C 287.18 554.97 287.47 554.44 287.47 554.44 C 287.47 554.44 287.70 555.04 287.83 555.43 Z" fill="#f8b62d" fill-rule="nonzero" group-id="29,46" node-id="457" stroke="none" target-height="10.919983" target-width="8.25" target-x="287.05" target-y="554.44"></path><path d="M 287.15 559.37 C 287.15 559.37 287.36 562.43 289.21 563.35 C 289.75 563.65 292.19 564.67 293.97 562.41 C 293.81 562.77 293.51 563.96 291.82 564.48 C 291.05 564.62 289.47 564.82 288.11 563.38 C 286.75 561.93 287.15 559.37 287.15 559.37 Z" fill="#e6e8e8" fill-rule="nonzero" group-id="29,46" node-id="459" stroke="none" target-height="5.450012" target-width="7.220001" target-x="286.75" target-y="559.37"></path><path d="M 275.39 510.26 C 275.92 510.34 284.24 511.70 284.24 511.70 C 284.24 511.70 284.92 521.20 286.01 523.22 C 287.10 525.24 290.13 526.27 290.13 526.27 L 307.62 526.44 C 307.62 526.44 308.93 519.10 308.24 511.97 C 311.16 511.76 317.01 510.56 317.01 510.56 C 317.01 510.56 314.65 492.78 295.39 492.78 C 276.13 492.78 275.39 510.26 275.39 510.26 Z" fill="url(#SVGID_24_)" fill-rule="nonzero" group-id="29,46" node-id="461" stroke="none" target-height="33.660004" target-width="41.619995" target-x="275.39" target-y="492.78"></path><path d="M 313.05 522.20 C 313.05 522.20 314.67 538.49 302.79 539.81 C 301.98 539.87 297.73 539.59 296.42 538.15 C 295.21 538.81 291.92 541.20 286.06 538.09 C 282.72 532.05 282.42 524.19 283.94 522.52 C 285.45 520.87 313.05 522.20 313.05 522.20 Z" fill="#036eb8" fill-rule="nonzero" group-id="29,46" node-id="463" stroke="none" target-height="20.330017" target-width="32.25" target-x="282.42" target-y="520.87"></path><path d="M 281.86 522.42 C 281.86 522.42 280.09 523.97 280.65 528.46 C 281.21 532.95 287.93 556.77 287.93 556.77 L 292.18 556.38 C 292.18 556.38 292.53 525.69 291.37 523.20 C 290.20 520.70 283.64 521.06 281.86 522.42 Z" fill="url(#SVGID_25_)" fill-rule="nonzero" group-id="29,46" node-id="465" stroke="none" target-height="36.070007" target-width="12.440002" target-x="280.09" target-y="520.7"></path><path d="M 310.17 522.42 C 310.17 522.42 311.94 523.97 311.38 528.46 C 310.82 532.95 304.10 556.77 304.10 556.77 L 299.85 556.38 C 299.85 556.38 299.50 525.69 300.66 523.20 C 301.82 520.70 308.38 521.06 310.17 522.42 Z" fill="url(#SVGID_26_)" fill-rule="nonzero" group-id="29,46" node-id="467" stroke="none" target-height="36.070007" target-width="12.440002" target-x="299.5" target-y="520.7"></path><path d="M 277.46 510.50 C 277.46 510.50 279.85 510.79 283.95 511.56 C 283.88 512.16 282.93 516.08 283.61 516.21 C 289.34 516.27 299.89 514.84 300.82 514.96 C 302.53 515.18 306.64 511.87 310.23 515.50 C 313.34 518.52 310.33 520.15 310.33 520.15 L 293.77 520.45 C 293.77 520.45 278.15 526.61 276.39 520.79 C 275.76 518.70 277.46 510.50 277.46 510.50 Z" fill="url(#SVGID_27_)" fill-rule="nonzero" group-id="29,46" node-id="469" stroke="none" target-height="16.109985" target-width="37.579987" target-x="275.76" target-y="510.5"></path><path d="M 316.14 510.61 C 316.14 510.61 319.51 522.49 313.30 523.86 C 307.08 525.23 291.88 524.40 290.51 524.15 C 289.14 523.90 288.23 523.69 287.12 524.36 C 286.01 525.02 284.10 524.94 283.78 525.04 C 283.46 525.14 282.20 527.01 281.85 527.05 C 281.50 527.09 279.70 526.05 280.08 523.78 C 280.46 521.51 282.03 519.94 284.01 519.76 C 285.99 519.58 286.08 519.95 287.45 519.43 C 288.82 518.90 308.36 515.56 308.78 515.47 C 309.21 515.39 309.66 515.00 309.46 514.20 C 309.26 513.40 308.63 511.76 308.63 511.76 L 316.14 510.61 Z" fill="url(#SVGID_28_)" fill-rule="nonzero" group-id="29,46" node-id="471" stroke="none" target-height="16.480042" target-width="39.809998" target-x="279.7" target-y="510.61"></path><path d="M 291.52 505.08 C 291.52 505.08 292.56 510.18 296.10 510.18 C 299.64 510.18 300.68 505.67 300.55 505.33 C 300.42 505.00 297.97 503.97 296.03 503.97 C 294.07 503.98 291.52 505.08 291.52 505.08 Z" fill="#ffbe92" fill-rule="nonzero" group-id="29,46" node-id="473" stroke="none" target-height="6.2099915" target-width="9.160004" target-x="291.52" target-y="503.97"></path><path d="M 296.23 506.50 C 296.23 506.50 297.03 507.51 298.18 507.39 C 299.41 507.26 299.10 506.49 299.95 506.31 C 300.80 506.13 301.33 506.18 301.12 504.60 C 301.00 503.72 301.10 503.73 301.34 503.31 C 301.49 503.06 302.52 502.21 301.83 501.13 C 301.16 500.07 300.96 500.47 301.14 499.45 C 301.32 498.44 300.93 497.54 300.31 497.24 C 299.71 496.94 299.86 496.40 299.98 496.08 C 300.09 495.77 299.76 494.77 298.73 495.14 C 297.70 495.51 296.75 495.22 295.95 494.86 C 294.19 494.07 292.16 494.89 292.35 496.49 C 292.54 498.12 291.59 497.79 290.97 498.38 C 290.36 498.97 290.54 499.98 290.85 500.98 C 291.03 501.55 291.28 502.17 290.55 503.04 C 289.79 503.94 291.06 506.35 291.91 506.26 C 292.78 506.15 293.93 508.46 296.23 506.50 Z" fill="#171c61" fill-rule="nonzero" group-id="29,46" node-id="475" stroke="none" target-height="14.389984" target-width="12.72998" target-x="289.79" target-y="494.07"></path></g></g></svg>