<?xml version="1.0" standalone="no"?><!DOCTYPE svg PUBLIC "-//W3C//DTD SVG 1.1//EN" "http://www.w3.org/Graphics/SVG/1.1/DTD/svg11.dtd"><svg height="800" node-id="1" sillyvg="true" template-height="800" template-width="800" version="1.1" viewBox="0 0 800 800" width="800" xmlns="http://www.w3.org/2000/svg" xmlns:xlink="http://www.w3.org/1999/xlink"><defs node-id="237"><linearGradient gradientUnits="objectBoundingBox" id="SVGID_1_" node-id="41" spreadMethod="pad" x1="256.5107" x2="256.5107" y1="422.0669" y2="325.2787"><stop offset="0.0000005358273" stop-color="#ffffff"></stop><stop offset="1" stop-color="#dbe3ee"></stop></linearGradient><linearGradient gradientUnits="objectBoundingBox" id="SVGID_2_" node-id="45" spreadMethod="pad" x1="191.8937" x2="191.8937" y1="480.0588" y2="263.5698"><stop offset="0.0000005358273" stop-color="#ffffff"></stop><stop offset="1" stop-color="#dbe3ee"></stop></linearGradient><linearGradient gradientUnits="objectBoundingBox" id="SVGID_3_" node-id="49" spreadMethod="pad" x1="567.6753" x2="567.6753" y1="437.3799" y2="280.8992"><stop offset="0.0000005358273" stop-color="#ffffff"></stop><stop offset="1" stop-color="#dbe3ee"></stop></linearGradient><linearGradient gradientUnits="objectBoundingBox" id="SVGID_4_" node-id="53" spreadMethod="pad" x1="630.2001" x2="630.2001" y1="460.0499" y2="290.3093"><stop offset="0.0000005358273" stop-color="#ffffff"></stop><stop offset="1" stop-color="#dbe3ee"></stop></linearGradient><linearGradient gradientUnits="objectBoundingBox" id="SVGID_5_" node-id="57" spreadMethod="pad" x1="121.4876" x2="121.4876" y1="502.1284" y2="351.6151"><stop offset="0.0000005358273" stop-color="#ffffff"></stop><stop offset="1" stop-color="#edf1f9"></stop></linearGradient><linearGradient gradientUnits="objectBoundingBox" id="SVGID_6_" node-id="61" spreadMethod="pad" x1="684.1608" x2="684.1608" y1="485.523" y2="362.3908"><stop offset="0.0000005358273" stop-color="#ffffff"></stop><stop offset="1" stop-color="#edf1f9"></stop></linearGradient><linearGradient gradientUnits="objectBoundingBox" id="SVGID_7_" node-id="65" spreadMethod="pad" x1="127.4512" x2="127.4512" y1="229.8212" y2="165.2799"><stop offset="0.2332" stop-color="#ffffff"></stop><stop offset="1" stop-color="#d3dfee"></stop></linearGradient><linearGradient gradientUnits="objectBoundingBox" id="SVGID_8_" node-id="69" spreadMethod="pad" x1="644.5197" x2="644.5197" y1="193.0007" y2="128.4595"><stop offset="0.2332" stop-color="#ffffff"></stop><stop offset="1" stop-color="#d3dfee"></stop></linearGradient><linearGradient gradientUnits="objectBoundingBox" id="SVGID_9_" node-id="73" spreadMethod="pad" x1="514.7488" x2="514.7488" y1="236.1742" y2="189.457"><stop offset="0.2332" stop-color="#ffffff"></stop><stop offset="1" stop-color="#d3dfee"></stop></linearGradient><linearGradient gradientUnits="objectBoundingBox" id="SVGID_10_" node-id="77" spreadMethod="pad" x1="400.9661" x2="400.9661" y1="751.699" y2="399.5701"><stop offset="0.4065" stop-color="#ffffff"></stop><stop offset="1" stop-color="#dae4ef"></stop></linearGradient><linearGradient gradientUnits="objectBoundingBox" id="SVGID_11_" node-id="83" spreadMethod="pad" x1="191.8956" x2="140.4594" y1="575.1548" y2="513.8555"><stop offset="0.4034" stop-color="#eff4f8"></stop><stop offset="1" stop-color="#d4dfec"></stop></linearGradient><linearGradient gradientUnits="objectBoundingBox" id="SVGID_12_" node-id="87" spreadMethod="pad" x1="112.8478" x2="177.0346" y1="454.8645" y2="454.8645"><stop offset="0.1022" stop-color="#f0f5f8"></stop><stop offset="1" stop-color="#b4c7dc"></stop></linearGradient><linearGradient gradientUnits="objectBoundingBox" id="SVGID_13_" node-id="93" spreadMethod="pad" x1="710.7578" x2="663.3923" y1="555.1823" y2="498.7343"><stop offset="0.4034" stop-color="#eff4f8"></stop><stop offset="1" stop-color="#d4dfec"></stop></linearGradient><linearGradient gradientUnits="objectBoundingBox" id="SVGID_14_" node-id="97" spreadMethod="pad" x1="637.9659" x2="697.0729" y1="444.412" y2="444.412"><stop offset="0.1022" stop-color="#f0f5f8"></stop><stop offset="1" stop-color="#b4c7dc"></stop></linearGradient><linearGradient gradientUnits="objectBoundingBox" id="SVGID_15_" node-id="103" spreadMethod="pad" x1="252.0951" x2="226.6538" y1="456.0115" y2="425.6917"><stop offset="0.0000001438503" stop-color="#eaeff6"></stop><stop offset="1" stop-color="#cddae9"></stop></linearGradient><linearGradient gradientUnits="objectBoundingBox" id="SVGID_16_" node-id="107" spreadMethod="pad" x1="212.9966" x2="244.7446" y1="396.5137" y2="396.5137"><stop offset="0.1022" stop-color="#f0f5f8"></stop><stop offset="1" stop-color="#b4c7dc"></stop></linearGradient><linearGradient gradientUnits="objectBoundingBox" id="SVGID_17_" node-id="113" spreadMethod="pad" x1="514.0807" x2="447.1352" y1="688.3334" y2="454.8667"><stop offset="0.0938" stop-color="#ffffff"></stop><stop offset="0.9362" stop-color="#bbcbe0"></stop></linearGradient><linearGradient gradientUnits="objectBoundingBox" id="SVGID_18_" node-id="117" spreadMethod="pad" x1="258.384" x2="550.8012" y1="387.1277" y2="387.1277"><stop offset="0" stop-color="#eff3f9"></stop><stop offset="1" stop-color="#b6c9de"></stop></linearGradient><linearGradient gradientUnits="objectBoundingBox" id="SVGID_19_" node-id="121" spreadMethod="pad" x1="269.8687" x2="539.5374" y1="217.0295" y2="217.0295"><stop offset="0" stop-color="#dfe8f3"></stop><stop offset="1" stop-color="#9fb7ce"></stop></linearGradient><linearGradient gradientUnits="objectBoundingBox" id="SVGID_20_" node-id="125" spreadMethod="pad" x1="252.3104" x2="557.7582" y1="261.735" y2="261.735"><stop offset="0" stop-color="#dfe8f3"></stop><stop offset="1" stop-color="#9fb7ce"></stop></linearGradient><linearGradient gradientUnits="objectBoundingBox" id="SVGID_21_" node-id="129" spreadMethod="pad" x1="248.3349" x2="561.0712" y1="249.8086" y2="249.8086"><stop offset="0" stop-color="#eff3f9"></stop><stop offset="1" stop-color="#b6c9de"></stop></linearGradient><linearGradient gradientUnits="objectBoundingBox" id="SVGID_22_" node-id="134" spreadMethod="pad" x1="286.8503" x2="378.3595" y1="398.2074" y2="398.2074"><stop offset="0" stop-color="#eff3f9"></stop><stop offset="1" stop-color="#b6c9de"></stop></linearGradient><linearGradient gradientUnits="objectBoundingBox" id="SVGID_23_" node-id="140" spreadMethod="pad" x1="250.5803" x2="559.3411" y1="505.508" y2="505.508"><stop offset="0" stop-color="#dfe8f3"></stop><stop offset="1" stop-color="#9fb7ce"></stop></linearGradient><linearGradient gradientUnits="objectBoundingBox" id="SVGID_24_" node-id="144" spreadMethod="pad" x1="430.3595" x2="524.1509" y1="456.7718" y2="456.7718"><stop offset="0" stop-color="#eff3f9"></stop><stop offset="1" stop-color="#b6c9de"></stop></linearGradient><linearGradient gradientUnits="objectBoundingBox" id="SVGID_25_" node-id="148" spreadMethod="pad" x1="430.3595" x2="524.1509" y1="387.2013" y2="387.2013"><stop offset="0" stop-color="#eff3f9"></stop><stop offset="1" stop-color="#b6c9de"></stop></linearGradient><linearGradient gradientUnits="objectBoundingBox" id="SVGID_26_" node-id="158" spreadMethod="pad" x1="277.476" x2="328.7153" y1="363.7169" y2="363.7169"><stop offset="0" stop-color="#dfe8f3"></stop><stop offset="1" stop-color="#9fb7ce"></stop></linearGradient><linearGradient gradientUnits="objectBoundingBox" id="SVGID_27_" node-id="162" spreadMethod="pad" x1="226.384" x2="277.6233" y1="363.7169" y2="363.7169"><stop offset="0" stop-color="#dfe8f3"></stop><stop offset="1" stop-color="#9fb7ce"></stop></linearGradient><linearGradient gradientUnits="objectBoundingBox" id="SVGID_28_" node-id="166" spreadMethod="pad" x1="379.7337" x2="430.973" y1="363.7169" y2="363.7169"><stop offset="0" stop-color="#dfe8f3"></stop><stop offset="1" stop-color="#9fb7ce"></stop></linearGradient><linearGradient gradientUnits="objectBoundingBox" id="SVGID_29_" node-id="170" spreadMethod="pad" x1="328.6417" x2="379.881" y1="363.7169" y2="363.7169"><stop offset="0" stop-color="#dfe8f3"></stop><stop offset="1" stop-color="#9fb7ce"></stop></linearGradient><linearGradient gradientUnits="objectBoundingBox" id="SVGID_30_" node-id="174" spreadMethod="pad" x1="481.9178" x2="533.157" y1="363.7169" y2="363.7169"><stop offset="0" stop-color="#dfe8f3"></stop><stop offset="1" stop-color="#9fb7ce"></stop></linearGradient><linearGradient gradientUnits="objectBoundingBox" id="SVGID_31_" node-id="178" spreadMethod="pad" x1="532.7153" x2="583.9546" y1="363.7169" y2="363.7169"><stop offset="0" stop-color="#dfe8f3"></stop><stop offset="1" stop-color="#9fb7ce"></stop></linearGradient><linearGradient gradientUnits="objectBoundingBox" id="SVGID_32_" node-id="182" spreadMethod="pad" x1="430.8257" x2="482.065" y1="363.7169" y2="363.7169"><stop offset="0" stop-color="#dfe8f3"></stop><stop offset="1" stop-color="#9fb7ce"></stop></linearGradient><linearGradient gradientUnits="objectBoundingBox" id="SVGID_33_" node-id="186" spreadMethod="pad" x1="226.384" x2="310.9484" y1="315.2752" y2="315.2752"><stop offset="0" stop-color="#eff3f9"></stop><stop offset="1" stop-color="#b6c9de"></stop></linearGradient><linearGradient gradientUnits="objectBoundingBox" id="SVGID_34_" node-id="190" spreadMethod="pad" x1="277.6233" x2="348.4944" y1="315.2752" y2="315.2752"><stop offset="0" stop-color="#eff3f9"></stop><stop offset="1" stop-color="#b6c9de"></stop></linearGradient><linearGradient gradientUnits="objectBoundingBox" id="SVGID_35_" node-id="194" spreadMethod="pad" x1="328.6417" x2="385.7092" y1="315.2752" y2="315.2752"><stop offset="0" stop-color="#eff3f9"></stop><stop offset="1" stop-color="#b6c9de"></stop></linearGradient><linearGradient gradientUnits="objectBoundingBox" id="SVGID_36_" node-id="198" spreadMethod="pad" x1="379.881" x2="430.8257" y1="315.2752" y2="315.2752"><stop offset="0" stop-color="#eff3f9"></stop><stop offset="1" stop-color="#b6c9de"></stop></linearGradient><linearGradient gradientUnits="objectBoundingBox" id="SVGID_37_" node-id="202" spreadMethod="pad" x1="424.3595" x2="482.065" y1="315.2752" y2="315.2752"><stop offset="0" stop-color="#eff3f9"></stop><stop offset="1" stop-color="#b6c9de"></stop></linearGradient><linearGradient gradientUnits="objectBoundingBox" id="SVGID_38_" node-id="206" spreadMethod="pad" x1="460.9116" x2="533.157" y1="315.2871" y2="315.2871"><stop offset="0" stop-color="#eff3f9"></stop><stop offset="1" stop-color="#b6c9de"></stop></linearGradient><linearGradient gradientUnits="objectBoundingBox" id="SVGID_39_" node-id="210" spreadMethod="pad" x1="499.6724" x2="583.9546" y1="315.3705" y2="315.3705"><stop offset="0" stop-color="#eff3f9"></stop><stop offset="1" stop-color="#b6c9de"></stop></linearGradient><linearGradient gradientUnits="objectBoundingBox" id="SVGID_40_" node-id="216" spreadMethod="pad" x1="331.4756" x2="331.4756" y1="392.8622" y2="376.8446"><stop offset="0.3408" stop-color="#f4ae7f"></stop><stop offset="1" stop-color="#ffbe92"></stop></linearGradient><linearGradient gradientUnits="objectBoundingBox" id="SVGID_41_" node-id="222" spreadMethod="pad" x1="333.4719" x2="333.4719" y1="441.5694" y2="425.4388"><stop offset="0" stop-color="#53a6f1"></stop><stop offset="0.6903" stop-color="#2a80e2"></stop></linearGradient><linearGradient gradientUnits="objectBoundingBox" id="SVGID_42_" node-id="226" spreadMethod="pad" x1="332.4627" x2="332.4627" y1="432.3365" y2="390.4594"><stop offset="0" stop-color="#f2a319"></stop><stop offset="0.4796" stop-color="#ffc552"></stop></linearGradient></defs><g node-id="696"><g node-id="703"><path d="M 270.97 328.68 L 270.97 325.27 L 241.47 325.27 L 241.47 329.23 L 234.99 329.23 L 234.99 422.06 L 278.04 422.06 L 278.04 328.68 L 270.97 328.68 Z M 274.31 411.42 L 238.27 411.42 L 238.27 408.67 L 274.31 408.67 L 274.31 411.42 Z M 274.31 398.75 L 238.27 398.75 L 238.27 396.00 L 274.31 396.00 L 274.31 398.75 Z M 274.31 386.07 L 238.27 386.07 L 238.27 383.32 L 274.31 383.32 L 274.31 386.07 Z M 274.31 373.73 L 238.27 373.73 L 238.27 370.98 L 274.31 370.98 L 274.31 373.73 Z M 274.31 361.41 L 238.27 361.41 L 238.27 358.66 L 274.31 358.66 L 274.31 361.41 Z M 274.31 348.74 L 238.27 348.74 L 238.27 345.99 L 274.31 345.99 L 274.31 348.74 Z M 274.31 336.39 L 238.27 336.39 L 238.27 333.64 L 274.31 333.64 L 274.31 336.39 Z" fill="url(#SVGID_1_)" fill-rule="nonzero" group-id="36,43" node-id="529" stroke="none" target-height="96.79001" target-width="43.050003" target-x="234.99" target-y="325.27"></path><path d="M 212.98 380.50 L 212.98 272.31 L 180.23 272.31 L 180.23 263.57 L 166.37 263.57 L 166.37 316.90 L 162.64 316.90 L 162.64 480.06 L 221.15 480.06 L 221.15 380.50 L 212.98 380.50 Z M 188.49 412.30 L 180.23 412.30 L 180.23 404.29 L 188.49 404.29 L 188.49 412.30 Z M 188.49 399.78 L 180.23 399.78 L 180.23 391.77 L 188.49 391.77 L 188.49 399.78 Z M 188.49 387.30 L 180.23 387.30 L 180.23 379.29 L 188.49 379.29 L 188.49 387.30 Z M 188.49 374.86 L 180.23 374.86 L 180.23 366.85 L 188.49 366.85 L 188.49 374.86 Z M 188.49 362.33 L 180.23 362.33 L 180.23 354.32 L 188.49 354.32 L 188.49 362.33 Z M 188.49 337.33 L 180.23 337.33 L 180.23 329.32 L 188.49 329.32 L 188.49 337.33 Z M 188.49 324.80 L 180.23 324.80 L 180.23 316.79 L 188.49 316.79 L 188.49 324.80 Z M 188.49 312.33 L 180.23 312.33 L 180.23 304.32 L 188.49 304.32 L 188.49 312.33 Z M 188.49 299.89 L 180.23 299.89 L 180.23 291.88 L 188.49 291.88 L 188.49 299.89 Z M 188.49 287.36 L 180.23 287.36 L 180.23 279.35 L 188.49 279.35 L 188.49 287.36 Z M 200.84 412.30 L 192.58 412.30 L 192.58 404.29 L 200.84 404.29 L 200.84 412.30 Z M 200.84 399.78 L 192.58 399.78 L 192.58 391.77 L 200.84 391.77 L 200.84 399.78 Z M 200.84 387.30 L 192.58 387.30 L 192.58 379.29 L 200.84 379.29 L 200.84 387.30 Z M 200.84 374.86 L 192.58 374.86 L 192.58 366.85 L 200.84 366.85 L 200.84 374.86 Z M 200.84 362.33 L 192.58 362.33 L 192.58 354.32 L 200.84 354.32 L 200.84 362.33 Z M 200.84 337.33 L 192.58 337.33 L 192.58 329.32 L 200.84 329.32 L 200.84 337.33 Z M 200.84 324.80 L 192.58 324.80 L 192.58 316.79 L 200.84 316.79 L 200.84 324.80 Z M 200.84 312.33 L 192.58 312.33 L 192.58 304.32 L 200.84 304.32 L 200.84 312.33 Z M 200.84 299.89 L 192.58 299.89 L 192.58 291.88 L 200.84 291.88 L 200.84 299.89 Z M 200.84 287.36 L 192.58 287.36 L 192.58 279.35 L 200.84 279.35 L 200.84 287.36 Z" fill="url(#SVGID_2_)" fill-rule="nonzero" group-id="36,43" node-id="531" stroke="none" target-height="216.48999" target-width="58.51001" target-x="162.64" target-y="263.57"></path><path d="M 535.29 437.38 C 535.65 432.73 535.29 280.90 535.29 280.90 L 553.82 280.90 L 553.82 314.61 L 583.32 314.61 L 583.32 385.06 L 600.05 385.06 L 600.05 437.38 L 535.29 437.38 Z" fill="url(#SVGID_3_)" fill-rule="nonzero" group-id="36,43" node-id="533" stroke="none" target-height="156.48001" target-width="64.76001" target-x="535.29" target-y="280.9"></path><path d="M 656.51 369.23 L 656.51 364.38 L 651.51 364.38 L 651.51 322.05 L 639.31 322.05 L 639.31 317.35 L 631.08 317.35 L 631.08 310.44 L 626.79 310.44 L 626.79 290.30 L 623.70 290.30 L 623.70 310.58 L 619.76 310.58 L 619.76 317.49 L 607.56 317.49 L 607.56 328.81 L 600.51 328.81 L 600.51 460.04 L 659.89 460.04 L 659.89 369.22 L 656.51 369.22 Z M 611.00 422.02 L 606.98 422.02 L 606.98 406.78 L 611.00 406.78 L 611.00 422.02 Z M 611.00 403.37 L 606.98 403.37 L 606.98 388.13 L 611.00 388.13 L 611.00 403.37 Z M 611.00 384.72 L 606.98 384.72 L 606.98 369.48 L 611.00 369.48 L 611.00 384.72 Z M 611.00 365.73 L 606.98 365.73 L 606.98 350.50 L 611.00 350.50 L 611.00 365.73 Z M 611.00 346.75 L 606.98 346.75 L 606.98 331.51 L 611.00 331.51 L 611.00 346.75 Z M 619.28 422.02 L 615.26 422.02 L 615.26 406.78 L 619.28 406.78 L 619.28 422.02 Z M 619.28 403.37 L 615.26 403.37 L 615.26 388.13 L 619.28 388.13 L 619.28 403.37 Z M 619.28 384.72 L 615.26 384.72 L 615.26 369.48 L 619.28 369.48 L 619.28 384.72 Z M 619.28 365.73 L 615.26 365.73 L 615.26 350.50 L 619.28 350.50 L 619.28 365.73 Z M 619.28 346.75 L 615.26 346.75 L 615.26 331.51 L 619.28 331.51 L 619.28 346.75 Z M 627.55 422.02 L 623.53 422.02 L 623.53 406.78 L 627.55 406.78 L 627.55 422.02 Z M 627.55 403.37 L 623.53 403.37 L 623.53 388.13 L 627.55 388.13 L 627.55 403.37 Z M 627.55 384.72 L 623.53 384.72 L 623.53 369.48 L 627.55 369.48 L 627.55 384.72 Z M 627.55 365.73 L 623.53 365.73 L 623.53 350.50 L 627.55 350.50 L 627.55 365.73 Z M 627.55 346.75 L 623.53 346.75 L 623.53 331.51 L 627.55 331.51 L 627.55 346.75 Z M 635.83 422.02 L 631.81 422.02 L 631.81 406.78 L 635.83 406.78 L 635.83 422.02 Z M 635.83 403.37 L 631.81 403.37 L 631.81 388.13 L 635.83 388.13 L 635.83 403.37 Z M 635.83 384.72 L 631.81 384.72 L 631.81 369.48 L 635.83 369.48 L 635.83 384.72 Z M 635.83 365.73 L 631.81 365.73 L 631.81 350.50 L 635.83 350.50 L 635.83 365.73 Z M 635.83 346.75 L 631.81 346.75 L 631.81 331.51 L 635.83 331.51 L 635.83 346.75 Z M 644.11 422.02 L 640.09 422.02 L 640.09 406.78 L 644.11 406.78 L 644.11 422.02 Z M 644.11 403.37 L 640.09 403.37 L 640.09 388.13 L 644.11 388.13 L 644.11 403.37 Z M 644.11 384.72 L 640.09 384.72 L 640.09 369.48 L 644.11 369.48 L 644.11 384.72 Z M 644.11 365.73 L 640.09 365.73 L 640.09 350.50 L 644.11 350.50 L 644.11 365.73 Z M 644.11 346.75 L 640.09 346.75 L 640.09 331.51 L 644.11 331.51 L 644.11 346.75 Z" fill="url(#SVGID_4_)" fill-rule="nonzero" group-id="36,43" node-id="535" stroke="none" target-height="169.74005" target-width="59.380005" target-x="600.51" target-y="290.3"></path><path d="M 94.86 502.13 L 94.86 412.58 L 105.12 412.58 L 105.12 366.89 L 140.38 351.62 L 140.38 411.86 L 148.11 411.86 L 148.11 502.13 Z" fill="url(#SVGID_5_)" fill-rule="nonzero" group-id="36,43" node-id="537" stroke="none" target-height="150.50998" target-width="53.25" target-x="94.86" target-y="351.62003"></path><path d="M 699.63 485.52 L 668.69 485.52 L 668.69 362.39 L 699.63 377.36 Z" fill="url(#SVGID_6_)" fill-rule="nonzero" group-id="36,43" node-id="539" stroke="none" target-height="123.130005" target-width="30.940002" target-x="668.69" target-y="362.38998"></path><path d="M 89.68 188.71 C 89.68 188.71 99.02 163.23 121.98 173.23 C 127.28 167.85 133.84 163.94 142.71 165.70 C 151.58 167.47 157.30 174.11 159.24 178.53 C 162.02 178.40 184.28 179.14 184.28 202.23 C 184.28 225.32 157.34 224.88 155.39 223.05 C 152.99 225.19 141.45 236.80 127.45 223.55 C 124.42 226.14 114.52 237.11 98.87 221.97 C 91.62 225.00 74.39 227.33 71.05 209.54 C 67.71 191.75 84.84 186.74 89.68 188.71 Z" fill="url(#SVGID_7_)" fill-rule="nonzero" group-id="36,43" node-id="541" stroke="none" target-height="73.880005" target-width="116.57" target-x="67.71" target-y="163.23"></path><path d="M 606.75 151.89 C 606.75 151.89 616.09 126.41 639.05 136.41 C 644.35 131.03 650.91 127.12 659.78 128.88 C 668.65 130.65 674.37 137.29 676.31 141.71 C 679.09 141.58 701.35 142.32 701.35 165.41 C 701.35 188.50 674.41 188.06 672.46 186.23 C 670.06 188.37 658.52 199.98 644.52 186.73 C 641.49 189.32 631.59 200.29 615.94 185.15 C 608.69 188.18 591.46 190.51 588.12 172.72 C 584.78 154.94 601.91 149.92 606.75 151.89 Z" fill="url(#SVGID_8_)" fill-rule="nonzero" group-id="36,43" node-id="543" stroke="none" target-height="73.87999" target-width="116.56995" target-x="584.78" target-y="126.41"></path><path d="M 487.41 206.42 C 487.41 206.42 494.17 187.97 510.79 195.22 C 514.63 191.32 519.37 188.49 525.80 189.77 C 532.22 191.05 536.36 195.86 537.76 199.05 C 539.77 198.96 555.89 199.49 555.89 216.20 C 555.89 232.91 536.39 232.59 534.98 231.27 C 533.24 232.82 524.89 241.22 514.75 231.64 C 512.56 233.51 505.39 241.46 494.07 230.50 C 488.82 232.69 476.35 234.38 473.93 221.50 C 471.50 208.63 483.91 204.99 487.41 206.42 Z" fill="url(#SVGID_9_)" fill-rule="nonzero" group-id="36,43" node-id="545" stroke="none" target-height="53.48999" target-width="84.390045" target-x="471.49997" target-y="187.97"></path><path d="M 771.95 575.63 C 771.95 622.32 732.86 667.11 663.29 700.12 C 593.72 733.14 499.36 751.69 400.97 751.69 C 302.58 751.69 208.22 733.14 138.65 700.12 C 69.08 667.11 29.99 622.32 29.99 575.63 C 29.99 528.94 69.08 484.15 138.65 451.14 C 208.22 418.12 302.58 399.57 400.97 399.57 C 499.36 399.57 593.72 418.12 663.29 451.14 C 732.86 484.15 771.95 528.94 771.95 575.63 Z" fill="url(#SVGID_10_)" fill-rule="nonzero" group-id="36,43" node-id="547" stroke="none" target-height="352.12" target-width="741.96" target-x="29.98999" target-y="399.57"></path></g><g node-id="704"><g node-id="707"><path d="M 146.91 554.10 C 146.91 554.10 143.38 559.11 149.28 566.57 C 154.54 573.21 162.85 571.92 165.61 569.79 C 166.46 575.57 173.55 587.75 184.77 580.86 C 195.32 574.39 190.24 564.55 186.87 560.68 C 193.46 558.82 198.37 543.03 183.25 537.58 C 185.49 531.06 185.89 528.11 182.61 522.25 C 179.45 516.61 174.26 515.71 165.98 519.14 L 154.00 524.19 L 146.37 509.95 L 142.29 512.31 L 151.09 525.91 L 139.43 531.76 C 139.43 531.76 129.46 535.66 133.76 546.36 C 137.75 556.28 146.91 554.10 146.91 554.10 Z" fill="url(#SVGID_11_)" fill-rule="nonzero" group-id="36,44,47" node-id="553" stroke="none" target-height="77.80002" target-width="68.90999" target-x="129.46" target-y="509.94998"></path><path d="M 126.62 493.39 L 162.68 493.39 C 162.68 493.39 174.33 493.72 176.65 480.41 C 179.20 465.80 168.57 463.79 168.57 463.79 C 168.57 463.79 174.97 460.85 173.58 449.80 C 172.19 438.75 162.46 437.36 158.41 437.87 C 159.07 431.32 160.45 416.49 145.05 416.34 C 130.18 416.19 130.27 431.16 131.38 437.06 C 126.08 437.12 110.07 445.07 121.33 462.51 C 115.20 467.76 112.61 470.79 112.88 478.36 C 113.14 485.93 117.78 493.39 126.62 493.39 Z" fill="url(#SVGID_12_)" fill-rule="nonzero" group-id="36,44,47" node-id="555" stroke="none" target-height="77.53" target-width="69.130005" target-x="110.06999" target-y="416.19"></path><path d="M 161.79 473.15 L 146.41 483.27 L 145.99 473.48 L 155.71 462.02 L 145.84 470.01 L 144.56 440.10 L 143.62 470.20 L 133.24 461.94 L 143.52 473.27 L 143.21 483.34 L 127.39 471.71 L 143.09 486.97 L 142.30 512.32 L 147.65 512.32 L 146.57 487.12 Z" fill="#c6d5e6" fill-rule="nonzero" group-id="36,44,47" node-id="557" stroke="none" target-height="72.22" target-width="34.399994" target-x="127.39" target-y="440.1"></path></g><g node-id="708"><path d="M 669.34 535.80 C 669.34 535.80 666.09 540.42 671.52 547.28 C 676.36 553.40 684.02 552.21 686.56 550.24 C 687.34 555.56 693.88 566.77 704.21 560.44 C 713.92 554.48 709.25 545.42 706.14 541.86 C 712.21 540.15 716.73 525.60 702.81 520.59 C 704.88 514.59 705.25 511.87 702.22 506.48 C 699.31 501.29 694.53 500.45 686.91 503.62 L 675.87 508.27 L 668.84 495.16 L 665.09 497.33 L 673.19 509.85 L 662.46 515.24 C 662.46 515.24 653.28 518.83 657.24 528.69 C 660.90 537.80 669.34 535.80 669.34 535.80 Z" fill="url(#SVGID_13_)" fill-rule="nonzero" group-id="36,44,48" node-id="562" stroke="none" target-height="71.610016" target-width="63.44995" target-x="653.28" target-y="495.16"></path><path d="M 650.64 479.88 L 683.84 479.88 C 683.84 479.88 694.57 480.19 696.70 467.93 C 699.04 454.48 689.26 452.63 689.26 452.63 C 689.26 452.63 695.16 449.92 693.87 439.75 C 692.58 429.58 683.63 428.29 679.90 428.77 C 680.51 422.74 681.78 409.08 667.60 408.94 C 653.91 408.80 653.99 422.58 655.01 428.02 C 650.13 428.07 635.38 435.39 645.76 451.46 C 640.12 456.29 637.73 459.09 637.98 466.05 C 638.24 473.02 642.51 479.88 650.64 479.88 Z" fill="url(#SVGID_14_)" fill-rule="nonzero" group-id="36,44,48" node-id="564" stroke="none" target-height="71.390045" target-width="63.659973" target-x="635.38" target-y="408.79996"></path><path d="M 683.03 461.25 L 668.87 470.57 L 668.49 461.56 L 677.44 451.00 L 668.35 458.36 L 667.17 430.82 L 666.30 458.54 L 656.75 450.93 L 666.21 461.36 L 665.92 470.63 L 651.36 459.93 L 665.82 473.98 L 665.08 497.32 L 670.02 497.32 L 669.02 474.12 Z" fill="#c6d5e6" fill-rule="nonzero" group-id="36,44,48" node-id="566" stroke="none" target-height="66.49997" target-width="31.670044" target-x="651.36" target-y="430.82004"></path></g><g node-id="709"><path d="M 229.85 445.60 C 229.85 445.60 228.10 448.08 231.02 451.77 C 233.62 455.06 237.73 454.42 239.10 453.36 C 239.52 456.22 243.03 462.24 248.58 458.84 C 253.80 455.64 251.29 450.77 249.62 448.86 C 252.88 447.94 255.31 440.13 247.83 437.44 C 248.94 434.22 249.14 432.76 247.51 429.86 C 245.95 427.07 243.38 426.62 239.29 428.32 L 233.36 430.82 L 229.59 423.78 L 227.57 424.95 L 231.92 431.67 L 226.15 434.56 C 226.15 434.56 221.22 436.49 223.35 441.78 C 225.32 446.68 229.85 445.60 229.85 445.60 Z" fill="url(#SVGID_15_)" fill-rule="nonzero" group-id="36,44,49" node-id="571" stroke="none" target-height="38.460022" target-width="34.08998" target-x="221.22" target-y="423.77997"></path><path d="M 219.81 415.57 L 237.64 415.57 C 237.64 415.57 243.40 415.73 244.55 409.15 C 245.81 401.92 240.55 400.93 240.55 400.93 C 240.55 400.93 243.72 399.47 243.03 394.01 C 242.34 388.55 237.53 387.86 235.53 388.11 C 235.86 384.87 236.54 377.53 228.92 377.46 C 221.56 377.39 221.61 384.79 222.16 387.71 C 219.54 387.74 211.62 391.67 217.19 400.30 C 214.16 402.89 212.87 404.40 213.01 408.14 C 213.14 411.88 215.44 415.57 219.81 415.57 Z" fill="url(#SVGID_16_)" fill-rule="nonzero" group-id="36,44,49" node-id="573" stroke="none" target-height="38.339996" target-width="34.189987" target-x="211.62001" target-y="377.38998"></path><path d="M 237.20 405.56 L 229.60 410.56 L 229.39 405.72 L 234.20 400.05 L 229.32 404.00 L 228.68 389.21 L 228.22 404.10 L 223.08 400.01 L 228.17 405.62 L 228.01 410.60 L 220.19 404.85 L 227.96 412.39 L 227.56 424.93 L 230.21 424.93 L 229.68 412.47 Z" fill="#c6d5e6" fill-rule="nonzero" group-id="36,44,49" node-id="575" stroke="none" target-height="35.71997" target-width="17.009995" target-x="220.19" target-y="389.21"></path></g></g><g node-id="705"><path d="M 542.48 504.99 L 559.11 510.74 L 710.33 632.06 L 385.00 718.86 L 250.89 511.14 Z" fill="url(#SVGID_17_)" fill-rule="nonzero" group-id="36,45" node-id="581" stroke="none" target-height="213.87" target-width="459.44" target-x="250.89" target-y="504.99"></path><path d="M 258.38 268.08 L 550.80 268.08 L 550.80 506.17 L 258.38 506.17 Z" fill="url(#SVGID_18_)" fill-rule="nonzero" group-id="36,45" node-id="583" stroke="none" target-height="238.09003" target-width="292.42004" target-x="258.38" target-y="268.08"></path><path d="M 269.87 190.05 L 539.54 190.05 L 539.54 244.01 L 269.87 244.01 Z" fill="url(#SVGID_19_)" fill-rule="nonzero" group-id="36,45" node-id="585" stroke="none" target-height="53.960007" target-width="269.67004" target-x="269.87" target-y="190.05"></path><path d="M 555.16 276.37 L 254.91 276.37 C 253.48 276.37 252.31 275.21 252.31 273.77 L 252.31 249.70 C 252.31 248.27 253.47 247.10 254.91 247.10 L 555.17 247.10 C 556.60 247.10 557.77 248.26 557.77 249.70 L 557.77 273.77 C 557.76 275.21 556.60 276.37 555.16 276.37 Z" fill="url(#SVGID_20_)" fill-rule="nonzero" group-id="36,45" node-id="587" stroke="none" target-height="29.269989" target-width="305.46002" target-x="252.31" target-y="247.1"></path><path d="M 248.33 242.80 L 561.07 242.80 L 561.07 256.82 L 248.33 256.82 Z" fill="url(#SVGID_21_)" fill-rule="nonzero" group-id="36,45" node-id="589" stroke="none" target-height="14.020004" target-width="312.74" target-x="248.33" target-y="242.8"></path><path d="M 274.81 342.00 L 390.39 342.00 L 390.39 452.06 L 274.81 452.06 Z" fill="#a3b9d1" fill-rule="nonzero" group-id="36,45" node-id="591" stroke="none" target-height="110.06" target-width="115.58002" target-x="274.81" target-y="342"></path><path d="M 286.85 352.75 L 378.36 352.75 L 378.36 443.67 L 286.85 443.67 Z" fill="url(#SVGID_22_)" fill-rule="nonzero" group-id="36,45" node-id="593" stroke="none" target-height="90.91995" target-width="91.51001" target-x="286.85" target-y="352.75003"></path><path d="M 394.06 463.32 L 271.15 463.32 C 270.27 463.32 269.55 462.60 269.55 461.72 L 269.55 443.17 C 269.55 442.29 270.27 441.57 271.15 441.57 L 394.06 441.57 C 394.94 441.57 395.66 442.29 395.66 443.17 L 395.66 461.72 C 395.66 462.61 394.94 463.32 394.06 463.32 Z" fill="#a3b9d1" fill-rule="nonzero" group-id="36,45" node-id="595" stroke="none" target-height="21.75003" target-width="126.110016" target-x="269.55" target-y="441.57"></path><path d="M 418.51 335.89 L 535.57 335.89 L 535.57 499.10 L 418.51 499.10 Z" fill="#a3b9d1" fill-rule="nonzero" group-id="36,45" node-id="597" stroke="none" target-height="163.20999" target-width="117.05997" target-x="418.51004" target-y="335.89"></path><path d="M 556.40 512.80 L 253.53 512.80 C 251.90 512.80 250.59 511.48 250.59 509.86 L 250.59 501.17 C 250.59 499.54 251.91 498.23 253.53 498.23 L 556.40 498.23 C 558.03 498.23 559.34 499.55 559.34 501.17 L 559.34 509.86 C 559.34 511.48 558.02 512.80 556.40 512.80 Z" fill="url(#SVGID_23_)" fill-rule="nonzero" group-id="36,45" node-id="599" stroke="none" target-height="14.569977" target-width="308.75003" target-x="250.59" target-y="498.23"></path><path d="M 430.36 430.78 L 524.15 430.78 L 524.15 482.76 L 430.36 482.76 Z" fill="url(#SVGID_24_)" fill-rule="nonzero" group-id="36,45" node-id="601" stroke="none" target-height="51.98001" target-width="93.78995" target-x="430.36002" target-y="430.78"></path><path d="M 430.36 359.23 L 524.15 359.23 L 524.15 415.18 L 430.36 415.18 Z" fill="url(#SVGID_25_)" fill-rule="nonzero" group-id="36,45" node-id="603" stroke="none" target-height="55.950012" target-width="93.78995" target-x="430.36002" target-y="359.23"></path><g node-id="710"><path d="M 344.54 226.66 L 347.81 222.74 C 349.85 224.62 352.54 225.89 355.04 225.89 C 358.00 225.89 359.58 224.62 359.58 222.62 C 359.58 220.51 357.85 219.85 355.31 218.77 L 351.50 217.16 C 348.62 215.97 345.73 213.66 345.73 209.51 C 345.73 204.86 349.81 201.28 355.57 201.28 C 358.88 201.28 362.18 202.59 364.49 204.93 L 361.61 208.51 C 359.80 207.01 357.92 206.16 355.57 206.16 C 353.07 206.16 351.46 207.28 351.46 209.16 C 351.46 211.20 353.50 211.93 355.92 212.89 L 359.65 214.47 C 363.11 215.89 365.38 218.08 365.38 222.20 C 365.38 226.85 361.50 230.81 354.92 230.81 C 351.11 230.82 347.30 229.32 344.54 226.66 Z" fill="#ffffff" fill-rule="nonzero" group-id="36,45,50" node-id="607" stroke="none" target-height="29.540009" target-width="20.839996" target-x="344.54" target-y="201.28"></path><path d="M 375.14 206.55 L 367.14 206.55 L 367.14 201.82 L 388.90 201.82 L 388.90 206.55 L 380.83 206.55 L 380.83 230.27 L 375.14 230.27 L 375.14 206.55 Z" fill="#ffffff" fill-rule="nonzero" group-id="36,45,50" node-id="609" stroke="none" target-height="28.449997" target-width="21.75998" target-x="367.14" target-y="201.82002"></path><path d="M 390.87 215.94 C 390.87 206.67 396.06 201.29 403.60 201.29 C 411.14 201.29 416.33 206.71 416.33 215.94 C 416.33 225.17 411.14 230.82 403.60 230.82 C 396.06 230.82 390.87 225.16 390.87 215.94 Z M 410.52 215.94 C 410.52 209.83 407.83 206.17 403.60 206.17 C 399.37 206.17 396.68 209.82 396.68 215.94 C 396.68 222.01 399.37 225.90 403.60 225.90 C 407.83 225.90 410.52 222.01 410.52 215.94 Z" fill="#ffffff" fill-rule="nonzero" group-id="36,45,50" node-id="611" stroke="none" target-height="29.530014" target-width="25.460022" target-x="390.86996" target-y="201.29"></path><path d="M 437.35 230.28 L 431.51 219.51 L 427.55 219.51 L 427.55 230.28 L 421.86 230.28 L 421.86 201.83 L 431.78 201.83 C 437.74 201.83 442.47 203.91 442.47 210.44 C 442.47 214.71 440.32 217.36 437.05 218.63 L 443.70 230.28 L 437.35 230.28 Z M 427.55 215.01 L 431.24 215.01 C 434.89 215.01 436.89 213.47 436.89 210.43 C 436.89 207.35 434.89 206.32 431.24 206.32 L 427.55 206.32 L 427.55 215.01 Z" fill="#ffffff" fill-rule="nonzero" group-id="36,45,50" node-id="613" stroke="none" target-height="28.449997" target-width="21.840027" target-x="421.86" target-y="201.83002"></path><path d="M 448.04 201.83 L 465.50 201.83 L 465.50 206.56 L 453.73 206.56 L 453.73 213.14 L 463.73 213.14 L 463.73 217.91 L 453.73 217.91 L 453.73 225.52 L 465.92 225.52 L 465.92 230.29 L 448.04 230.29 L 448.04 201.83 Z" fill="#ffffff" fill-rule="nonzero" group-id="36,45,50" node-id="615" stroke="none" target-height="28.459991" target-width="17.880005" target-x="448.04" target-y="201.83002"></path></g><path d="M 277.48 354.07 L 328.72 354.07 C 328.72 354.07 326.70 373.36 302.40 373.36 C 278.10 373.36 277.48 354.07 277.48 354.07 Z" fill="url(#SVGID_26_)" fill-rule="nonzero" group-id="36,45" node-id="618" stroke="none" target-height="19.289978" target-width="51.23999" target-x="277.48" target-y="354.07"></path><path d="M 226.38 354.07 L 277.62 354.07 C 277.62 354.07 275.60 373.36 251.30 373.36 C 227.00 373.36 226.38 354.07 226.38 354.07 Z" fill="url(#SVGID_27_)" fill-rule="nonzero" group-id="36,45" node-id="620" stroke="none" target-height="19.289978" target-width="51.23999" target-x="226.38" target-y="354.07"></path><path d="M 379.73 354.07 L 430.97 354.07 C 430.97 354.07 428.95 373.36 404.65 373.36 C 380.35 373.36 379.73 354.07 379.73 354.07 Z" fill="url(#SVGID_28_)" fill-rule="nonzero" group-id="36,45" node-id="622" stroke="none" target-height="19.289978" target-width="51.24002" target-x="379.73" target-y="354.07"></path><path d="M 328.64 354.07 L 379.88 354.07 C 379.88 354.07 377.86 373.36 353.56 373.36 C 329.27 373.36 328.64 354.07 328.64 354.07 Z" fill="url(#SVGID_29_)" fill-rule="nonzero" group-id="36,45" node-id="624" stroke="none" target-height="19.289978" target-width="51.23999" target-x="328.64" target-y="354.07"></path><path d="M 481.92 354.07 L 533.16 354.07 C 533.16 354.07 531.14 373.36 506.84 373.36 C 482.54 373.36 481.92 354.07 481.92 354.07 Z" fill="url(#SVGID_30_)" fill-rule="nonzero" group-id="36,45" node-id="626" stroke="none" target-height="19.289978" target-width="51.23996" target-x="481.92" target-y="354.07"></path><path d="M 532.72 354.07 L 583.96 354.07 C 583.96 354.07 581.94 373.36 557.64 373.36 C 533.34 373.36 532.72 354.07 532.72 354.07 Z" fill="url(#SVGID_31_)" fill-rule="nonzero" group-id="36,45" node-id="628" stroke="none" target-height="19.289978" target-width="51.24005" target-x="532.72" target-y="354.07"></path><path d="M 430.83 354.07 L 482.07 354.07 C 482.07 354.07 480.05 373.36 455.75 373.36 C 431.45 373.36 430.83 354.07 430.83 354.07 Z" fill="url(#SVGID_32_)" fill-rule="nonzero" group-id="36,45" node-id="630" stroke="none" target-height="19.289978" target-width="51.24002" target-x="430.83" target-y="354.07"></path><path d="M 273.07 276.48 L 226.38 354.07 L 277.62 354.07 L 310.95 276.57 Z" fill="url(#SVGID_33_)" fill-rule="nonzero" group-id="36,45" node-id="632" stroke="none" target-height="77.59" target-width="84.57001" target-x="226.38" target-y="276.48"></path><path d="M 348.49 276.48 L 328.64 354.07 L 277.62 354.07 L 310.95 276.57 Z" fill="url(#SVGID_34_)" fill-rule="nonzero" group-id="36,45" node-id="634" stroke="none" target-height="77.59" target-width="70.869965" target-x="277.62" target-y="276.48"></path><path d="M 385.71 276.57 L 379.88 354.07 L 328.64 354.07 L 348.49 276.48 Z" fill="url(#SVGID_35_)" fill-rule="nonzero" group-id="36,45" node-id="636" stroke="none" target-height="77.59" target-width="57.069977" target-x="328.64" target-y="276.48"></path><path d="M 424.36 276.48 L 430.83 354.07 L 379.88 354.07 L 385.71 276.57 Z" fill="url(#SVGID_36_)" fill-rule="nonzero" group-id="36,45" node-id="638" stroke="none" target-height="77.59" target-width="50.94998" target-x="379.88" target-y="276.48"></path><path d="M 460.91 276.50 L 482.07 354.07 L 430.83 354.07 L 424.36 276.48 Z" fill="url(#SVGID_37_)" fill-rule="nonzero" group-id="36,45" node-id="640" stroke="none" target-height="77.59" target-width="57.710022" target-x="424.36" target-y="276.48"></path><path d="M 499.67 276.76 L 533.16 354.07 L 482.07 354.07 L 460.91 276.50 Z" fill="url(#SVGID_38_)" fill-rule="nonzero" group-id="36,45" node-id="642" stroke="none" target-height="77.57001" target-width="72.24997" target-x="460.91" target-y="276.5"></path><path d="M 537.00 276.67 L 583.95 354.07 L 533.16 354.07 L 499.67 276.76 Z" fill="url(#SVGID_39_)" fill-rule="nonzero" group-id="36,45" node-id="644" stroke="none" target-height="77.399994" target-width="84.28" target-x="499.67" target-y="276.67"></path></g><g node-id="706"><path d="M 331.48 373.06 C 331.48 373.06 332.50 371.76 333.95 371.90 C 335.50 372.06 335.10 373.04 336.16 373.26 C 337.23 373.48 337.90 373.41 337.61 375.44 C 337.45 376.56 337.58 376.56 337.88 377.08 C 338.06 377.40 339.35 378.48 338.48 379.87 C 337.63 381.23 337.38 380.73 337.60 382.03 C 337.82 383.33 337.32 384.48 336.54 384.88 C 335.78 385.27 335.97 385.97 336.11 386.38 C 336.25 386.77 335.82 388.06 334.53 387.60 C 333.24 387.14 332.10 386.97 331.08 387.42 C 330.06 387.87 325.87 388.12 326.76 386.29 C 327.57 384.61 326.44 384.27 325.68 383.52 C 324.92 382.77 324.30 381.48 324.70 380.20 C 324.93 379.46 325.26 378.67 324.35 377.56 C 323.41 376.42 325.03 373.31 326.09 373.42 C 327.14 373.54 328.60 370.57 331.48 373.06 Z" fill="#171c61" fill-rule="nonzero" group-id="36,46" node-id="649" stroke="none" target-height="17.549988" target-width="15.940002" target-x="323.41" target-y="370.57"></path><path d="M 328.19 378.28 C 327.24 379.27 327.32 379.04 327.10 379.65 C 325.62 378.86 325.56 383.06 326.79 383.16 C 327.13 385.37 328.08 385.99 328.63 386.52 C 328.98 387.74 328.14 392.86 328.14 392.86 L 334.48 392.86 L 334.13 386.38 C 334.13 386.38 335.56 385.93 335.85 383.36 C 337.03 383.49 337.69 378.90 336.08 380.02 C 336.13 378.81 334.28 378.50 334.04 377.09 C 334.01 376.92 333.86 376.80 333.71 376.87 C 333.05 377.16 331.95 377.93 330.84 377.90 C 329.92 377.87 328.84 377.60 328.19 378.28 Z" fill="url(#SVGID_40_)" fill-rule="nonzero" group-id="36,46" node-id="651" stroke="none" target-height="16.060028" target-width="12.130005" target-x="325.56" target-y="376.79996"></path><path d="M 366.76 393.20 C 366.76 393.20 364.70 394.12 364.53 395.41 C 364.13 398.38 357.78 404.31 356.12 404.66 C 354.46 405.01 348.37 396.80 347.76 396.81 C 346.33 398.07 344.15 402.12 344.15 402.12 C 344.15 402.12 352.71 412.73 356.53 410.91 C 360.35 409.09 364.13 403.66 366.62 399.88 C 367.22 398.68 368.09 398.37 368.65 398.23 C 369.21 398.09 372.49 396.72 372.42 393.60 C 372.38 391.72 369.52 393.87 369.17 394.30 C 368.82 394.73 366.95 396.08 367.22 394.06 C 367.42 393.31 367.27 392.91 366.76 393.20 Z" fill="#ffbe92" fill-rule="nonzero" group-id="36,46" node-id="653" stroke="none" target-height="21.00998" target-width="28.340027" target-x="344.14996" target-y="391.72003"></path><path d="M 298.58 395.30 C 298.58 395.30 300.64 396.22 300.81 397.51 C 301.21 400.48 307.56 406.41 309.22 406.76 C 310.88 407.11 316.10 398.41 316.71 398.42 C 318.14 399.68 321.19 404.22 321.19 404.22 C 321.19 404.22 312.35 414.75 308.53 412.94 C 304.71 411.12 301.21 405.77 298.72 401.98 C 298.12 400.78 297.25 400.47 296.69 400.33 C 296.13 400.19 292.85 398.82 292.92 395.70 C 292.96 393.82 295.82 395.97 296.17 396.40 C 296.52 396.83 298.39 398.18 298.12 396.16 C 297.92 395.41 298.08 395.02 298.58 395.30 Z" fill="#ffbe92" fill-rule="nonzero" group-id="36,46" node-id="655" stroke="none" target-height="20.929962" target-width="28.339996" target-x="292.85" target-y="393.82"></path><path d="M 346.02 441.57 C 345.74 436.29 344.79 426.54 343.65 425.44 L 323.75 425.44 C 323.75 425.44 321.28 434.93 320.92 441.53 L 346.02 441.57 Z" fill="url(#SVGID_41_)" fill-rule="nonzero" group-id="36,46" node-id="657" stroke="none" target-height="16.130005" target-width="25.099976" target-x="320.92" target-y="425.44"></path><path d="M 352.42 400.02 L 347.85 407.59 C 347.85 407.59 346.26 405.89 344.89 404.23 C 344.74 406.21 344.94 406.21 345.05 408.27 C 345.16 410.33 348.28 429.99 344.99 431.21 C 341.70 432.44 324.71 432.56 322.20 432.06 C 319.69 431.56 320.18 413.89 321.12 408.71 C 321.57 406.14 321.40 404.60 321.40 404.60 L 318.58 407.69 L 312.49 402.01 C 312.49 402.01 315.68 393.70 320.40 392.07 C 324.75 390.57 328.12 390.73 328.45 390.56 C 328.67 391.35 329.26 392.80 331.39 392.86 C 332.77 392.90 334.10 392.04 334.33 390.46 C 334.86 390.69 338.15 390.54 342.80 391.72 C 347.30 392.86 349.22 397.01 352.42 400.02 Z" fill="url(#SVGID_42_)" fill-rule="nonzero" group-id="36,46" node-id="659" stroke="none" target-height="42.100006" target-width="39.930023" target-x="312.49" target-y="390.46"></path></g></g></svg>