<?xml version="1.0" standalone="no"?><!DOCTYPE svg PUBLIC "-//W3C//DTD SVG 1.1//EN" "http://www.w3.org/Graphics/SVG/1.1/DTD/svg11.dtd"><svg height="800" node-id="1" sillyvg="true" template-height="800" template-width="800" version="1.1" viewBox="0 0 800 800" width="800" xmlns="http://www.w3.org/2000/svg" xmlns:xlink="http://www.w3.org/1999/xlink"><defs node-id="187"><linearGradient gradientUnits="objectBoundingBox" id="SVGID_1_" node-id="15" spreadMethod="pad" x1="256.9322" x2="256.9322" y1="424.1624" y2="327.3742"><stop offset="0.0000005358273" stop-color="#ffffff"></stop><stop offset="1" stop-color="#dbe3ee"></stop></linearGradient><linearGradient gradientUnits="objectBoundingBox" id="SVGID_2_" node-id="19" spreadMethod="pad" x1="192.3152" x2="192.3152" y1="482.1544" y2="265.6653"><stop offset="0.0000005358273" stop-color="#ffffff"></stop><stop offset="1" stop-color="#dbe3ee"></stop></linearGradient><linearGradient gradientUnits="objectBoundingBox" id="SVGID_3_" node-id="23" spreadMethod="pad" x1="568.0968" x2="568.0968" y1="439.4755" y2="282.9947"><stop offset="0.0000005358273" stop-color="#ffffff"></stop><stop offset="1" stop-color="#dbe3ee"></stop></linearGradient><linearGradient gradientUnits="objectBoundingBox" id="SVGID_4_" node-id="27" spreadMethod="pad" x1="630.6216" x2="630.6216" y1="462.1455" y2="292.4048"><stop offset="0.0000005358273" stop-color="#ffffff"></stop><stop offset="1" stop-color="#dbe3ee"></stop></linearGradient><linearGradient gradientUnits="objectBoundingBox" id="SVGID_5_" node-id="31" spreadMethod="pad" x1="121.9091" x2="121.9091" y1="504.224" y2="353.7106"><stop offset="0.0000005358273" stop-color="#ffffff"></stop><stop offset="1" stop-color="#edf1f9"></stop></linearGradient><linearGradient gradientUnits="objectBoundingBox" id="SVGID_6_" node-id="35" spreadMethod="pad" x1="684.5823" x2="684.5823" y1="487.6186" y2="364.4864"><stop offset="0.0000005358273" stop-color="#ffffff"></stop><stop offset="1" stop-color="#edf1f9"></stop></linearGradient><linearGradient gradientUnits="objectBoundingBox" id="SVGID_7_" node-id="39" spreadMethod="pad" x1="127.8727" x2="127.8727" y1="231.9167" y2="167.3754"><stop offset="0.2332" stop-color="#ffffff"></stop><stop offset="1" stop-color="#d3dfee"></stop></linearGradient><linearGradient gradientUnits="objectBoundingBox" id="SVGID_8_" node-id="43" spreadMethod="pad" x1="644.9412" x2="644.9412" y1="195.0963" y2="130.555"><stop offset="0.2332" stop-color="#ffffff"></stop><stop offset="1" stop-color="#d3dfee"></stop></linearGradient><linearGradient gradientUnits="objectBoundingBox" id="SVGID_9_" node-id="47" spreadMethod="pad" x1="515.1702" x2="515.1702" y1="238.2697" y2="191.5525"><stop offset="0.2332" stop-color="#ffffff"></stop><stop offset="1" stop-color="#d3dfee"></stop></linearGradient><linearGradient gradientUnits="objectBoundingBox" id="SVGID_10_" node-id="51" spreadMethod="pad" x1="401.3875" x2="401.3875" y1="753.7946" y2="401.6656"><stop offset="0.4065" stop-color="#ffffff"></stop><stop offset="1" stop-color="#dae4ef"></stop></linearGradient><linearGradient gradientUnits="objectBoundingBox" id="SVGID_11_" node-id="57" spreadMethod="pad" x1="192.3171" x2="140.8809" y1="577.2504" y2="515.951"><stop offset="0.4034" stop-color="#eff4f8"></stop><stop offset="1" stop-color="#d4dfec"></stop></linearGradient><linearGradient gradientUnits="objectBoundingBox" id="SVGID_12_" node-id="61" spreadMethod="pad" x1="113.2693" x2="177.4561" y1="456.96" y2="456.96"><stop offset="0.1022" stop-color="#f0f5f8"></stop><stop offset="1" stop-color="#b4c7dc"></stop></linearGradient><linearGradient gradientUnits="objectBoundingBox" id="SVGID_13_" node-id="67" spreadMethod="pad" x1="711.1792" x2="663.8138" y1="557.2778" y2="500.8299"><stop offset="0.4034" stop-color="#eff4f8"></stop><stop offset="1" stop-color="#d4dfec"></stop></linearGradient><linearGradient gradientUnits="objectBoundingBox" id="SVGID_14_" node-id="71" spreadMethod="pad" x1="638.3875" x2="697.4944" y1="446.5075" y2="446.5075"><stop offset="0.1022" stop-color="#f0f5f8"></stop><stop offset="1" stop-color="#b4c7dc"></stop></linearGradient><linearGradient gradientUnits="objectBoundingBox" id="SVGID_15_" node-id="77" spreadMethod="pad" x1="252.5166" x2="227.0753" y1="458.107" y2="427.7873"><stop offset="0.0000001438503" stop-color="#eaeff6"></stop><stop offset="1" stop-color="#cddae9"></stop></linearGradient><linearGradient gradientUnits="objectBoundingBox" id="SVGID_16_" node-id="81" spreadMethod="pad" x1="213.4181" x2="245.1661" y1="398.6093" y2="398.6093"><stop offset="0.1022" stop-color="#f0f5f8"></stop><stop offset="1" stop-color="#b4c7dc"></stop></linearGradient><linearGradient gradientUnits="objectBoundingBox" id="SVGID_17_" node-id="87" spreadMethod="pad" x1="548.1365" x2="482.0446" y1="707.0806" y2="460.4221"><stop offset="0.1887" stop-color="#ffffff"></stop><stop offset="1" stop-color="#bbcbe0"></stop></linearGradient><linearGradient gradientUnits="objectBoundingBox" id="SVGID_18_" node-id="91" spreadMethod="pad" x1="283.3438" x2="529.4313" y1="312.3871" y2="312.3871"><stop offset="0" stop-color="#dde5f0"></stop><stop offset="1" stop-color="#9fb7ce"></stop></linearGradient><linearGradient gradientUnits="objectBoundingBox" id="SVGID_19_" node-id="95" spreadMethod="pad" x1="283.3438" x2="525.6797" y1="309.886" y2="309.886"><stop offset="0" stop-color="#eff3f9"></stop><stop offset="1" stop-color="#b6c9de"></stop></linearGradient><linearGradient gradientUnits="objectBoundingBox" id="SVGID_20_" node-id="99" spreadMethod="pad" x1="297.2326" x2="511.7909" y1="307.6511" y2="307.6511"><stop offset="0" stop-color="#b5c7de"></stop><stop offset="1" stop-color="#8dabc6"></stop></linearGradient><linearGradient gradientUnits="objectBoundingBox" id="SVGID_21_" node-id="103" spreadMethod="pad" x1="404.5117" x2="404.5117" y1="529.1269" y2="307.6508"><stop offset="0" stop-color="#a7bed3"></stop><stop offset="0.8156" stop-color="#edf1f8"></stop></linearGradient><linearGradient gradientUnits="objectBoundingBox" id="SVGID_22_" node-id="115" spreadMethod="pad" x1="554.8403" x2="554.8403" y1="468.7226" y2="453.7133"><stop offset="0" stop-color="#f2a319"></stop><stop offset="0.4796" stop-color="#ffc552"></stop></linearGradient><linearGradient gradientUnits="objectBoundingBox" id="SVGID_23_" node-id="119" spreadMethod="pad" x1="571.7307" x2="576.4164" y1="564.766" y2="469.7379"><stop offset="0" stop-color="#eff3f9"></stop><stop offset="1" stop-color="#b6c9de"></stop></linearGradient><linearGradient gradientUnits="objectBoundingBox" id="SVGID_24_" node-id="133" spreadMethod="pad" x1="568.832" x2="568.832" y1="549.6045" y2="495.9055"><stop offset="0" stop-color="#4ea2f4"></stop><stop offset="0.6903" stop-color="#1e77cf"></stop></linearGradient><linearGradient gradientUnits="objectBoundingBox" id="SVGID_25_" node-id="137" spreadMethod="pad" x1="581.9956" x2="581.9956" y1="547.835" y2="493.0521"><stop offset="0" stop-color="#78c8ff"></stop><stop offset="0.6903" stop-color="#2a80e2"></stop></linearGradient><linearGradient gradientUnits="objectBoundingBox" id="SVGID_26_" node-id="143" spreadMethod="pad" x1="5468.224" x2="5514.0283" y1="6329.1772" y2="6336.202"><stop offset="0" stop-color="#f2a319"></stop><stop offset="0.4796" stop-color="#ffc552"></stop></linearGradient><linearGradient gradientUnits="objectBoundingBox" id="SVGID_27_" node-id="148" spreadMethod="pad" x1="5495.8164" x2="5509.6055" y1="6328.6367" y2="6330.7515"><stop offset="0" stop-color="#f2a319"></stop><stop offset="0.4796" stop-color="#ffc552"></stop></linearGradient></defs><g node-id="491"><g node-id="524"><path d="M 271.39 330.78 L 271.39 327.37 L 241.89 327.37 L 241.89 331.33 L 235.41 331.33 L 235.41 424.16 L 278.46 424.16 L 278.46 330.78 L 271.39 330.78 Z M 274.73 413.52 L 238.69 413.52 L 238.69 410.77 L 274.73 410.77 L 274.73 413.52 Z M 274.73 400.84 L 238.69 400.84 L 238.69 398.09 L 274.73 398.09 L 274.73 400.84 Z M 274.73 388.16 L 238.69 388.16 L 238.69 385.41 L 274.73 385.41 L 274.73 388.16 Z M 274.73 375.82 L 238.69 375.82 L 238.69 373.07 L 274.73 373.07 L 274.73 375.82 Z M 274.73 363.51 L 238.69 363.51 L 238.69 360.76 L 274.73 360.76 L 274.73 363.51 Z M 274.73 350.83 L 238.69 350.83 L 238.69 348.08 L 274.73 348.08 L 274.73 350.83 Z M 274.73 338.49 L 238.69 338.49 L 238.69 335.74 L 274.73 335.74 L 274.73 338.49 Z" fill="url(#SVGID_1_)" fill-rule="nonzero" group-id="10,43" node-id="363" stroke="none" target-height="96.79001" target-width="43.049988" target-x="235.41" target-y="327.37"></path><path d="M 213.41 382.59 L 213.41 274.41 L 180.66 274.41 L 180.66 265.67 L 166.80 265.67 L 166.80 319.00 L 163.07 319.00 L 163.07 482.16 L 221.58 482.16 L 221.58 382.60 L 213.41 382.60 Z M 188.91 414.40 L 180.65 414.40 L 180.65 406.39 L 188.91 406.39 L 188.91 414.40 Z M 188.91 401.87 L 180.65 401.87 L 180.65 393.86 L 188.91 393.86 L 188.91 401.87 Z M 188.91 389.40 L 180.65 389.40 L 180.65 381.39 L 188.91 381.39 L 188.91 389.40 Z M 188.91 376.96 L 180.65 376.96 L 180.65 368.95 L 188.91 368.95 L 188.91 376.96 Z M 188.91 364.43 L 180.65 364.43 L 180.65 356.42 L 188.91 356.42 L 188.91 364.43 Z M 188.91 339.43 L 180.65 339.43 L 180.65 331.42 L 188.91 331.42 L 188.91 339.43 Z M 188.91 326.90 L 180.65 326.90 L 180.65 318.89 L 188.91 318.89 L 188.91 326.90 Z M 188.91 314.42 L 180.65 314.42 L 180.65 306.41 L 188.91 306.41 L 188.91 314.42 Z M 188.91 301.99 L 180.65 301.99 L 180.65 293.98 L 188.91 293.98 L 188.91 301.99 Z M 188.91 289.46 L 180.65 289.46 L 180.65 281.45 L 188.91 281.45 L 188.91 289.46 Z M 201.26 414.40 L 193.00 414.40 L 193.00 406.39 L 201.26 406.39 L 201.26 414.40 Z M 201.26 401.87 L 193.00 401.87 L 193.00 393.86 L 201.26 393.86 L 201.26 401.87 Z M 201.26 389.40 L 193.00 389.40 L 193.00 381.39 L 201.26 381.39 L 201.26 389.40 Z M 201.26 376.96 L 193.00 376.96 L 193.00 368.95 L 201.26 368.95 L 201.26 376.96 Z M 201.26 364.43 L 193.00 364.43 L 193.00 356.42 L 201.26 356.42 L 201.26 364.43 Z M 201.26 339.43 L 193.00 339.43 L 193.00 331.42 L 201.26 331.42 L 201.26 339.43 Z M 201.26 326.90 L 193.00 326.90 L 193.00 318.89 L 201.26 318.89 L 201.26 326.90 Z M 201.26 314.42 L 193.00 314.42 L 193.00 306.41 L 201.26 306.41 L 201.26 314.42 Z M 201.26 301.99 L 193.00 301.99 L 193.00 293.98 L 201.26 293.98 L 201.26 301.99 Z M 201.26 289.46 L 193.00 289.46 L 193.00 281.45 L 201.26 281.45 L 201.26 289.46 Z" fill="url(#SVGID_2_)" fill-rule="nonzero" group-id="10,43" node-id="365" stroke="none" target-height="216.48996" target-width="58.509995" target-x="163.07" target-y="265.67"></path><path d="M 535.71 439.48 C 536.07 434.83 535.71 283.00 535.71 283.00 L 554.24 283.00 L 554.24 316.71 L 583.74 316.71 L 583.74 387.16 L 600.47 387.16 L 600.47 439.48 L 535.71 439.48 Z" fill="url(#SVGID_3_)" fill-rule="nonzero" group-id="10,43" node-id="367" stroke="none" target-height="156.47998" target-width="64.75995" target-x="535.71" target-y="283"></path><path d="M 656.93 371.33 L 656.93 366.48 L 651.93 366.48 L 651.93 324.15 L 639.73 324.15 L 639.73 319.45 L 631.50 319.45 L 631.50 312.54 L 627.21 312.54 L 627.21 292.40 L 624.12 292.40 L 624.12 312.68 L 620.18 312.68 L 620.18 319.59 L 607.98 319.59 L 607.98 330.91 L 600.93 330.91 L 600.93 462.14 L 660.31 462.14 L 660.31 371.32 L 656.93 371.32 Z M 611.42 424.11 L 607.40 424.11 L 607.40 408.87 L 611.42 408.87 L 611.42 424.11 Z M 611.42 405.46 L 607.40 405.46 L 607.40 390.22 L 611.42 390.22 L 611.42 405.46 Z M 611.42 386.81 L 607.40 386.81 L 607.40 371.57 L 611.42 371.57 L 611.42 386.81 Z M 611.42 367.83 L 607.40 367.83 L 607.40 352.59 L 611.42 352.59 L 611.42 367.83 Z M 611.42 348.84 L 607.40 348.84 L 607.40 333.60 L 611.42 333.60 L 611.42 348.84 Z M 619.70 424.11 L 615.68 424.11 L 615.68 408.87 L 619.70 408.87 L 619.70 424.11 Z M 619.70 405.46 L 615.68 405.46 L 615.68 390.22 L 619.70 390.22 L 619.70 405.46 Z M 619.70 386.81 L 615.68 386.81 L 615.68 371.57 L 619.70 371.57 L 619.70 386.81 Z M 619.70 367.83 L 615.68 367.83 L 615.68 352.59 L 619.70 352.59 L 619.70 367.83 Z M 619.70 348.84 L 615.68 348.84 L 615.68 333.60 L 619.70 333.60 L 619.70 348.84 Z M 627.98 424.11 L 623.96 424.11 L 623.96 408.87 L 627.98 408.87 L 627.98 424.11 Z M 627.98 405.46 L 623.96 405.46 L 623.96 390.22 L 627.98 390.22 L 627.98 405.46 Z M 627.98 386.81 L 623.96 386.81 L 623.96 371.57 L 627.98 371.57 L 627.98 386.81 Z M 627.98 367.83 L 623.96 367.83 L 623.96 352.59 L 627.98 352.59 L 627.98 367.83 Z M 627.98 348.84 L 623.96 348.84 L 623.96 333.60 L 627.98 333.60 L 627.98 348.84 Z M 636.26 424.11 L 632.24 424.11 L 632.24 408.87 L 636.26 408.87 L 636.26 424.11 Z M 636.26 405.46 L 632.24 405.46 L 632.24 390.22 L 636.26 390.22 L 636.26 405.46 Z M 636.26 386.81 L 632.24 386.81 L 632.24 371.57 L 636.26 371.57 L 636.26 386.81 Z M 636.26 367.83 L 632.24 367.83 L 632.24 352.59 L 636.26 352.59 L 636.26 367.83 Z M 636.26 348.84 L 632.24 348.84 L 632.24 333.60 L 636.26 333.60 L 636.26 348.84 Z M 644.54 424.11 L 640.52 424.11 L 640.52 408.87 L 644.54 408.87 L 644.54 424.11 Z M 644.54 405.46 L 640.52 405.46 L 640.52 390.22 L 644.54 390.22 L 644.54 405.46 Z M 644.54 386.81 L 640.52 386.81 L 640.52 371.57 L 644.54 371.57 L 644.54 386.81 Z M 644.54 367.83 L 640.52 367.83 L 640.52 352.59 L 644.54 352.59 L 644.54 367.83 Z M 644.54 348.84 L 640.52 348.84 L 640.52 333.60 L 644.54 333.60 L 644.54 348.84 Z" fill="url(#SVGID_4_)" fill-rule="nonzero" group-id="10,43" node-id="369" stroke="none" target-height="169.74002" target-width="59.380005" target-x="600.93" target-y="292.4"></path><path d="M 95.28 504.22 L 95.28 414.68 L 105.54 414.68 L 105.54 368.98 L 140.80 353.71 L 140.80 413.96 L 148.53 413.96 L 148.53 504.22 Z" fill="url(#SVGID_5_)" fill-rule="nonzero" group-id="10,43" node-id="371" stroke="none" target-height="150.51004" target-width="53.250008" target-x="95.27999" target-y="353.71"></path><path d="M 700.05 487.62 L 669.11 487.62 L 669.11 364.49 L 700.05 379.46 Z" fill="url(#SVGID_6_)" fill-rule="nonzero" group-id="10,43" node-id="373" stroke="none" target-height="123.130035" target-width="30.940002" target-x="669.11" target-y="364.48996"></path><path d="M 90.10 190.81 C 90.10 190.81 99.44 165.33 122.40 175.33 C 127.70 169.95 134.26 166.04 143.13 167.80 C 152.00 169.56 157.72 176.21 159.66 180.63 C 162.44 180.50 184.70 181.24 184.70 204.33 C 184.70 227.42 157.76 226.98 155.81 225.15 C 153.41 227.29 141.87 238.90 127.87 225.65 C 124.84 228.24 114.94 239.21 99.29 224.07 C 92.04 227.10 74.81 229.43 71.47 211.64 C 68.13 193.86 85.27 188.83 90.10 190.81 Z" fill="url(#SVGID_7_)" fill-rule="nonzero" group-id="10,43" node-id="375" stroke="none" target-height="73.880005" target-width="116.570015" target-x="68.13" target-y="165.33"></path><path d="M 607.17 153.99 C 607.17 153.99 616.51 128.51 639.47 138.51 C 644.77 133.13 651.33 129.22 660.20 130.98 C 669.07 132.75 674.79 139.39 676.73 143.81 C 679.51 143.68 701.77 144.42 701.77 167.51 C 701.77 190.60 674.83 190.16 672.88 188.33 C 670.48 190.47 658.94 202.08 644.94 188.83 C 641.91 191.42 632.01 202.39 616.36 187.25 C 609.11 190.28 591.88 192.61 588.54 174.82 C 585.20 157.04 602.33 152.01 607.17 153.99 Z" fill="url(#SVGID_8_)" fill-rule="nonzero" group-id="10,43" node-id="377" stroke="none" target-height="73.880005" target-width="116.57007" target-x="585.2" target-y="128.51"></path><path d="M 487.83 208.51 C 487.83 208.51 494.59 190.06 511.21 197.31 C 515.05 193.41 519.79 190.58 526.22 191.86 C 532.64 193.14 536.78 197.95 538.18 201.14 C 540.19 201.05 556.31 201.58 556.31 218.29 C 556.31 235.00 536.81 234.68 535.40 233.36 C 533.66 234.91 525.31 243.31 515.17 233.73 C 512.98 235.60 505.81 243.55 494.49 232.59 C 489.24 234.78 476.77 236.47 474.35 223.59 C 471.93 210.72 484.33 207.08 487.83 208.51 Z" fill="url(#SVGID_9_)" fill-rule="nonzero" group-id="10,43" node-id="379" stroke="none" target-height="53.490005" target-width="84.380005" target-x="471.93" target-y="190.06"></path><path d="M 772.37 577.73 C 772.37 624.42 733.28 669.21 663.71 702.22 C 594.14 735.24 499.78 753.79 401.39 753.79 C 303.00 753.79 208.64 735.24 139.07 702.22 C 69.50 669.21 30.41 624.42 30.41 577.73 C 30.41 531.04 69.50 486.25 139.07 453.24 C 208.64 420.22 303.00 401.67 401.39 401.67 C 499.78 401.67 594.14 420.22 663.71 453.24 C 733.28 486.25 772.37 531.04 772.37 577.73 Z" fill="url(#SVGID_10_)" fill-rule="nonzero" group-id="10,43" node-id="381" stroke="none" target-height="352.12" target-width="741.95996" target-x="30.410004" target-y="401.66998"></path></g><g node-id="525"><g node-id="528"><path d="M 147.34 556.20 C 147.34 556.20 143.81 561.21 149.71 568.67 C 154.97 575.31 163.28 574.02 166.04 571.89 C 166.89 577.67 173.98 589.85 185.20 582.96 C 195.75 576.49 190.67 566.65 187.30 562.78 C 193.89 560.92 198.80 545.13 183.68 539.68 C 185.92 533.16 186.32 530.21 183.04 524.35 C 179.88 518.71 174.69 517.81 166.41 521.24 L 154.43 526.29 L 146.80 512.05 L 142.72 514.41 L 151.52 528.01 L 139.86 533.86 C 139.86 533.86 129.89 537.76 134.19 548.46 C 138.18 558.37 147.34 556.20 147.34 556.20 Z" fill="url(#SVGID_11_)" fill-rule="nonzero" group-id="10,44,47" node-id="387" stroke="none" target-height="77.79999" target-width="68.90999" target-x="129.89" target-y="512.05"></path><path d="M 127.04 495.48 L 163.10 495.48 C 163.10 495.48 174.75 495.81 177.07 482.50 C 179.62 467.89 168.99 465.88 168.99 465.88 C 168.99 465.88 175.39 462.94 174.00 451.89 C 172.61 440.84 162.88 439.45 158.83 439.96 C 159.49 433.41 160.87 418.58 145.47 418.43 C 130.60 418.28 130.69 433.25 131.80 439.15 C 126.50 439.21 110.49 447.16 121.75 464.60 C 115.62 469.85 113.03 472.88 113.30 480.45 C 113.57 488.03 118.20 495.48 127.04 495.48 Z" fill="url(#SVGID_12_)" fill-rule="nonzero" group-id="10,44,47" node-id="389" stroke="none" target-height="77.53" target-width="69.13001" target-x="110.49" target-y="418.28"></path><path d="M 162.21 475.25 L 146.83 485.37 L 146.41 475.58 L 156.14 464.12 L 146.26 472.10 L 144.98 442.20 L 144.04 472.30 L 133.66 464.04 L 143.94 475.36 L 143.63 485.43 L 127.81 473.81 L 143.51 489.07 L 142.72 514.42 L 148.07 514.42 L 147.00 489.22 Z" fill="#c6d5e6" fill-rule="nonzero" group-id="10,44,47" node-id="391" stroke="none" target-height="72.21997" target-width="34.40001" target-x="127.81" target-y="442.2"></path></g><g node-id="529"><path d="M 669.76 537.89 C 669.76 537.89 666.51 542.51 671.94 549.37 C 676.78 555.49 684.44 554.30 686.98 552.33 C 687.76 557.65 694.30 568.86 704.63 562.53 C 714.34 556.57 709.67 547.51 706.56 543.95 C 712.63 542.24 717.15 527.69 703.23 522.68 C 705.30 516.68 705.67 513.96 702.64 508.57 C 699.73 503.38 694.95 502.54 687.33 505.71 L 676.29 510.36 L 669.26 497.25 L 665.51 499.42 L 673.61 511.94 L 662.88 517.33 C 662.88 517.33 653.70 520.92 657.66 530.78 C 661.32 539.90 669.76 537.89 669.76 537.89 Z" fill="url(#SVGID_13_)" fill-rule="nonzero" group-id="10,44,48" node-id="396" stroke="none" target-height="71.609955" target-width="63.450012" target-x="653.7" target-y="497.25003"></path><path d="M 651.07 481.98 L 684.27 481.98 C 684.27 481.98 695.00 482.29 697.13 470.03 C 699.47 456.58 689.69 454.73 689.69 454.73 C 689.69 454.73 695.59 452.02 694.30 441.85 C 693.01 431.68 684.06 430.39 680.33 430.87 C 680.94 424.84 682.21 411.18 668.03 411.04 C 654.34 410.90 654.42 424.68 655.44 430.12 C 650.56 430.17 635.81 437.49 646.19 453.56 C 640.55 458.39 638.16 461.19 638.41 468.15 C 638.66 475.12 642.93 481.98 651.07 481.98 Z" fill="url(#SVGID_14_)" fill-rule="nonzero" group-id="10,44,48" node-id="398" stroke="none" target-height="71.389984" target-width="63.659973" target-x="635.81" target-y="410.9"></path><path d="M 683.45 463.35 L 669.29 472.67 L 668.91 463.65 L 677.86 453.10 L 668.77 460.45 L 667.59 432.92 L 666.72 460.63 L 657.17 453.02 L 666.63 463.45 L 666.34 472.73 L 651.78 462.02 L 666.24 476.07 L 665.51 499.42 L 670.44 499.42 L 669.44 476.21 Z" fill="#c6d5e6" fill-rule="nonzero" group-id="10,44,48" node-id="400" stroke="none" target-height="66.49997" target-width="31.669983" target-x="651.78" target-y="432.92"></path></g><g node-id="530"><path d="M 230.27 447.69 C 230.27 447.69 228.52 450.17 231.44 453.86 C 234.04 457.15 238.15 456.51 239.52 455.45 C 239.94 458.31 243.45 464.33 249.00 460.93 C 254.22 457.73 251.71 452.86 250.04 450.95 C 253.30 450.03 255.73 442.22 248.25 439.53 C 249.36 436.31 249.56 434.85 247.93 431.95 C 246.37 429.16 243.80 428.71 239.71 430.41 L 233.78 432.91 L 230.01 425.87 L 227.99 427.04 L 232.34 433.76 L 226.57 436.65 C 226.57 436.65 221.64 438.58 223.77 443.87 C 225.74 448.77 230.27 447.69 230.27 447.69 Z" fill="url(#SVGID_15_)" fill-rule="nonzero" group-id="10,44,49" node-id="405" stroke="none" target-height="38.45999" target-width="34.08998" target-x="221.64001" target-y="425.87"></path><path d="M 220.23 417.66 L 238.06 417.66 C 238.06 417.66 243.82 417.82 244.97 411.24 C 246.23 404.01 240.97 403.02 240.97 403.02 C 240.97 403.02 244.14 401.56 243.45 396.10 C 242.76 390.64 237.95 389.95 235.95 390.20 C 236.28 386.96 236.96 379.62 229.34 379.55 C 221.98 379.48 222.03 386.88 222.58 389.80 C 219.96 389.83 212.04 393.76 217.61 402.39 C 214.58 404.98 213.29 406.49 213.43 410.23 C 213.56 413.98 215.86 417.66 220.23 417.66 Z" fill="url(#SVGID_16_)" fill-rule="nonzero" group-id="10,44,49" node-id="407" stroke="none" target-height="38.339996" target-width="34.190002" target-x="212.04" target-y="379.48"></path><path d="M 237.62 407.65 L 230.02 412.66 L 229.81 407.82 L 234.62 402.15 L 229.74 406.10 L 229.10 391.31 L 228.64 406.20 L 223.51 402.11 L 228.59 407.71 L 228.43 412.69 L 220.61 406.94 L 228.38 414.49 L 227.98 427.03 L 230.63 427.03 L 230.10 414.56 Z" fill="#c6d5e6" fill-rule="nonzero" group-id="10,44,49" node-id="409" stroke="none" target-height="35.72" target-width="17.009995" target-x="220.61" target-y="391.31"></path></g></g><g node-id="526"><path d="M 321.66 503.40 L 306.57 528.65 L 468.31 728.47 L 725.32 645.26 L 593.89 555.78 L 575.13 554.36 L 573.91 556.82 L 607.37 583.72 L 544.16 551.29 L 502.45 526.25 L 483.28 499.89 Z" fill="url(#SVGID_17_)" fill-rule="nonzero" group-id="10,45" node-id="414" stroke="none" target-height="228.57996" target-width="418.75" target-x="306.57" target-y="499.89"></path><path d="M 519.41 359.11 L 290.62 359.11 C 286.60 359.11 283.34 355.85 283.34 351.83 L 283.34 272.94 C 283.34 268.92 286.60 265.66 290.62 265.66 L 522.15 265.66 C 526.17 265.66 529.43 268.92 529.43 272.94 L 529.43 349.08 C 529.43 354.62 524.94 359.11 519.41 359.11 Z" fill="url(#SVGID_18_)" fill-rule="nonzero" group-id="10,45" node-id="416" stroke="none" target-height="93.45001" target-width="246.09" target-x="283.34" target-y="265.66"></path><path d="M 518.40 354.11 L 290.62 354.11 C 286.60 354.11 283.34 350.85 283.34 346.83 L 283.34 272.94 C 283.34 268.92 286.60 265.66 290.62 265.66 L 518.40 265.66 C 522.42 265.66 525.68 268.92 525.68 272.94 L 525.68 346.83 C 525.68 350.85 522.42 354.11 518.40 354.11 Z" fill="url(#SVGID_19_)" fill-rule="nonzero" group-id="10,45" node-id="418" stroke="none" target-height="88.44998" target-width="242.34" target-x="283.34" target-y="265.66"></path><path d="M 507.32 313.24 L 301.70 313.24 C 299.23 313.24 297.23 311.24 297.23 308.77 L 297.23 306.53 C 297.23 304.06 299.23 302.06 301.70 302.06 L 507.32 302.06 C 509.79 302.06 511.79 304.06 511.79 306.53 L 511.79 308.77 C 511.79 311.24 509.79 313.24 507.32 313.24 Z" fill="url(#SVGID_20_)" fill-rule="nonzero" group-id="10,45" node-id="420" stroke="none" target-height="11.179993" target-width="214.56" target-x="297.23" target-y="302.06"></path><path d="M 306.57 307.65 L 306.57 424.03 L 306.57 476.85 L 306.57 528.64 C 307.37 528.95 309.50 529.12 310.48 529.12 C 314.99 529.12 317.36 525.58 320.10 521.48 C 323.19 516.86 326.69 511.62 333.88 511.62 C 341.06 511.62 344.57 516.86 347.65 521.49 C 350.39 525.59 352.75 529.13 357.26 529.13 C 361.77 529.13 364.14 525.59 366.88 521.49 C 369.97 516.87 373.47 511.63 380.66 511.63 C 387.85 511.63 391.35 516.87 394.44 521.50 C 397.18 525.60 399.54 529.14 404.06 529.14 C 408.57 529.14 410.94 525.60 413.68 521.50 C 416.77 516.88 420.27 511.63 427.46 511.63 C 434.64 511.63 438.15 516.87 441.23 521.50 C 443.97 525.60 446.33 529.14 450.84 529.14 C 455.35 529.14 457.72 525.60 460.46 521.50 C 463.55 516.88 467.05 511.64 474.24 511.64 C 481.43 511.64 484.93 516.88 488.02 521.50 C 490.76 525.60 493.13 529.14 497.64 529.14 C 500.20 529.14 500.82 528.00 502.46 526.26 L 502.46 476.86 L 502.46 424.04 L 502.46 307.65 L 306.57 307.65 Z" fill="url(#SVGID_21_)" fill-rule="nonzero" group-id="10,45" node-id="422" stroke="none" target-height="221.49002" target-width="195.88998" target-x="306.57" target-y="307.65"></path><path d="M 334.62 334.13 L 349.31 334.13 L 349.31 347.70 L 334.62 347.70 Z" fill="#ffffff" fill-rule="nonzero" group-id="10,45" node-id="424" stroke="none" target-height="13.570007" target-width="14.690002" target-x="334.62" target-y="334.13"></path><path d="M 364.07 334.13 L 475.42 334.13 L 475.42 347.70 L 364.07 347.70 Z" fill="#ffffff" fill-rule="nonzero" group-id="10,45" node-id="426" stroke="none" target-height="13.570007" target-width="111.350006" target-x="364.07" target-y="334.13"></path><path d="M 334.62 371.94 L 349.31 371.94 L 349.31 385.51 L 334.62 385.51 Z" fill="#ffffff" fill-rule="nonzero" group-id="10,45" node-id="428" stroke="none" target-height="13.570007" target-width="14.690002" target-x="334.62" target-y="371.93997"></path><path d="M 364.07 371.94 L 475.42 371.94 L 475.42 385.51 L 364.07 385.51 Z" fill="#ffffff" fill-rule="nonzero" group-id="10,45" node-id="430" stroke="none" target-height="13.570007" target-width="111.350006" target-x="364.07" target-y="371.93997"></path><path d="M 334.62 409.80 L 349.31 409.80 L 349.31 423.37 L 334.62 423.37 Z" fill="#ffffff" fill-rule="nonzero" group-id="10,45" node-id="432" stroke="none" target-height="13.570007" target-width="14.690002" target-x="334.62" target-y="409.80002"></path><path d="M 364.07 409.80 L 475.42 409.80 L 475.42 423.37 L 364.07 423.37 Z" fill="#ffffff" fill-rule="nonzero" group-id="10,45" node-id="434" stroke="none" target-height="13.570007" target-width="111.350006" target-x="364.07" target-y="409.80002"></path></g><g node-id="527"><path d="M 557.10 456.02 C 557.10 456.02 544.63 467.14 543.67 469.25 C 542.63 471.55 544.78 486.12 545.80 487.27 C 546.82 488.42 548.44 485.16 548.44 485.16 C 548.44 485.16 548.72 479.37 548.64 474.19 C 548.62 472.72 548.53 471.34 549.21 470.90 C 551.94 469.16 559.03 464.01 559.03 464.01 C 559.03 464.01 561.18 454.74 557.10 456.02 Z" fill="#ffbe92" fill-rule="nonzero" group-id="10,46" node-id="438" stroke="none" target-height="33.679993" target-width="18.549988" target-x="542.63" target-y="454.74002"></path><path d="M 550.33 459.64 C 550.33 459.64 557.67 453.81 559.02 453.71 C 560.16 459.70 557.96 467.65 557.96 467.65 L 553.29 468.72 L 550.33 459.64 Z" fill="url(#SVGID_22_)" fill-rule="nonzero" group-id="10,46" node-id="440" stroke="none" target-height="15.009979" target-width="9.829956" target-x="550.33" target-y="453.71"></path><path d="M 627.62 525.46 L 597.63 549.40 C 594.30 552.05 589.46 551.51 586.80 548.18 L 544.03 494.59 C 541.38 491.26 541.92 486.42 545.25 483.76 L 575.24 459.82 C 578.57 457.17 583.41 457.71 586.07 461.04 L 628.84 514.63 C 631.49 517.96 630.94 522.80 627.62 525.46 Z" fill="url(#SVGID_23_)" fill-rule="nonzero" group-id="10,46" node-id="442" stroke="none" target-height="94.879974" target-width="90.109985" target-x="541.38" target-y="457.17"></path><path d="M 577.48 515.87 L 567.51 503.48 C 566.85 502.66 566.98 501.45 567.80 500.79 L 567.80 500.79 C 568.62 500.13 569.83 500.26 570.49 501.08 L 580.46 513.47 C 581.12 514.29 580.99 515.50 580.17 516.16 L 580.17 516.16 C 579.35 516.82 578.14 516.69 577.48 515.87 Z" fill="#f7f8f8" fill-rule="nonzero" group-id="10,46" node-id="444" stroke="none" target-height="16.690002" target-width="14.27002" target-x="566.85" target-y="500.13"></path><path d="M 582.65 489.56 L 573.00 477.57 C 571.78 476.05 572.02 473.84 573.54 472.62 L 577.09 469.76 C 578.61 468.54 580.82 468.78 582.04 470.30 L 591.69 482.29 C 592.91 483.81 592.67 486.02 591.15 487.24 L 587.60 490.10 C 586.09 491.32 583.87 491.08 582.65 489.56 Z" fill="#aec1d6" fill-rule="nonzero" group-id="10,46" node-id="446" stroke="none" target-height="22.779999" target-width="21.129944" target-x="571.78" target-y="468.54"></path><path d="M 582.50 488.19 L 572.85 476.20 C 571.63 474.68 571.87 472.47 573.39 471.25 L 576.94 468.39 C 578.46 467.17 580.67 467.41 581.89 468.93 L 591.54 480.92 C 592.76 482.44 592.52 484.65 591.00 485.87 L 587.45 488.73 C 585.93 489.95 583.72 489.71 582.50 488.19 Z" fill="#f7f8f8" fill-rule="nonzero" group-id="10,46" node-id="448" stroke="none" target-height="22.779999" target-width="21.130005" target-x="571.63" target-y="467.17"></path><path d="M 592.75 534.84 L 582.78 522.45 C 582.12 521.63 582.25 520.42 583.07 519.76 L 583.07 519.76 C 583.89 519.10 585.10 519.23 585.76 520.05 L 595.73 532.44 C 596.39 533.26 596.26 534.47 595.44 535.13 L 595.44 535.13 C 594.62 535.80 593.42 535.67 592.75 534.84 Z" fill="#f7f8f8" fill-rule="nonzero" group-id="10,46" node-id="450" stroke="none" target-height="16.700012" target-width="14.27002" target-x="582.12" target-y="519.1"></path><path d="M 581.74 546.46 C 581.74 546.46 581.09 547.56 583.65 551.06 C 580.42 552.54 575.88 551.61 575.88 551.61 L 575.51 545.41 L 581.74 546.46 Z" fill="#ffbe92" fill-rule="nonzero" group-id="10,46" node-id="452" stroke="none" target-height="7.130005" target-width="8.140015" target-x="575.51" target-y="545.41"></path><path d="M 574.25 555.52 L 593.80 554.59 C 593.80 554.59 594.52 548.68 586.83 549.28 C 585.28 549.40 583.91 547.71 582.63 547.82 C 579.82 550.61 574.71 550.42 574.71 550.42 L 574.25 555.52 Z" fill="#f8b62d" fill-rule="nonzero" group-id="10,46" node-id="454" stroke="none" target-height="7.8099976" target-width="20.27002" target-x="574.25" target-y="547.71"></path><path d="M 573.91 556.82 L 582.56 557.17 L 582.80 555.59 L 593.89 555.78 L 594.05 554.44 L 574.14 553.90 Z" fill="#e6e8e8" fill-rule="nonzero" group-id="10,46" node-id="456" stroke="none" target-height="3.2699585" target-width="20.140015" target-x="573.91" target-y="553.9"></path><path d="M 545.03 546.46 C 545.03 546.46 543.12 547.06 544.16 551.29 C 540.62 551.42 537.68 548.98 537.68 548.98 L 539.68 543.09 L 545.03 546.46 Z" fill="#ffbe92" fill-rule="nonzero" group-id="10,46" node-id="458" stroke="none" target-height="8.329956" target-width="7.3500366" target-x="537.68" target-y="543.09"></path><path d="M 534.70 551.96 L 553.09 558.62 C 553.09 558.62 555.98 553.42 548.66 551.02 C 547.18 550.54 546.55 548.44 545.33 548.05 C 541.69 549.56 537.04 547.41 537.04 547.41 L 534.70 551.96 Z" fill="#f8b62d" fill-rule="nonzero" group-id="10,46" node-id="460" stroke="none" target-height="11.210022" target-width="21.279968" target-x="534.7" target-y="547.41"></path><path d="M 533.91 553.04 L 541.75 556.70 L 542.57 555.32 L 552.72 559.76 L 553.38 558.58 L 535.22 550.42 Z" fill="#e6e8e8" fill-rule="nonzero" group-id="10,46" node-id="462" stroke="none" target-height="9.340027" target-width="19.470032" target-x="533.91" target-y="550.42"></path><path d="M 569.38 496.24 C 569.38 496.24 577.05 510.99 578.21 519.33 C 579.37 527.67 582.18 547.83 582.18 547.83 L 575.50 549.61 C 575.50 549.61 569.89 526.16 569.20 523.73 C 568.52 521.30 562.02 512.72 562.02 512.72 L 552.53 495.91 L 569.38 496.24 Z" fill="url(#SVGID_24_)" fill-rule="nonzero" group-id="10,46" node-id="464" stroke="none" target-height="53.69998" target-width="29.649963" target-x="552.53" target-y="495.91"></path><path d="M 570.23 495.63 C 570.23 495.63 568.90 506.80 562.95 516.63 C 557.00 526.46 544.20 547.84 544.20 547.84 L 538.17 546.54 C 538.17 546.54 544.54 526.83 548.17 519.37 C 551.80 511.92 550.70 507.44 550.49 505.46 C 550.28 503.48 548.28 500.99 550.70 495.47 C 553.12 489.94 570.23 495.63 570.23 495.63 Z" fill="url(#SVGID_25_)" fill-rule="nonzero" group-id="10,46" node-id="466" stroke="none" target-height="57.900024" target-width="32.059998" target-x="538.17" target-y="489.94"></path><path d="M 573.68 443.24 C 573.68 443.24 575.67 447.31 572.67 452.55 C 571.97 453.53 570.68 455.21 568.40 453.30 C 568.19 453.21 567.98 453.50 567.86 453.79 C 567.74 454.08 566.03 459.11 566.03 459.11 L 558.66 457.69 C 558.66 457.69 564.60 445.56 565.04 443.03 C 565.27 441.73 567.10 439.74 569.85 440.16 C 572.62 440.58 573.68 443.24 573.68 443.24 Z" fill="#ffbe92" fill-rule="nonzero" group-id="10,46" node-id="468" stroke="none" target-height="19.369965" target-width="17.01001" target-x="558.66" target-y="439.74002"></path><path d="M 573.14 437.64 C 573.14 437.64 574.16 436.38 576.02 437.81 C 577.88 439.24 576.53 440.87 576.37 441.31 C 576.21 441.75 576.42 442.16 577.08 442.03 C 577.74 441.90 578.86 441.94 579.33 443.48 C 579.80 445.02 577.49 448.37 575.15 447.53 C 572.82 446.69 571.85 445.22 571.16 444.17 C 570.47 443.12 569.00 441.74 568.55 442.73 C 568.10 443.72 567.73 445.90 567.32 445.49 C 566.93 445.10 567.63 442.93 566.29 442.66 C 564.95 442.39 564.67 444.33 565.34 445.55 C 565.63 446.06 565.62 445.98 565.40 446.40 C 565.18 446.82 565.16 447.14 564.57 447.57 C 563.97 448.01 563.72 448.26 563.48 447.40 C 563.24 446.54 562.78 444.92 563.80 441.86 C 564.14 441.01 563.87 440.90 563.51 440.32 C 563.15 439.73 562.65 438.82 563.54 437.83 C 564.43 436.83 565.04 437.10 565.87 437.30 C 566.70 437.50 566.72 437.19 566.83 436.70 C 566.94 436.20 567.92 434.42 569.57 434.78 C 571.22 435.14 571.74 436.22 572.00 437.09 C 572.26 437.95 572.82 437.84 573.14 437.64 Z" fill="#171c61" fill-rule="nonzero" group-id="10,46" node-id="470" stroke="none" target-height="13.949982" target-width="17.149963" target-x="562.65" target-y="434.42"></path><path d="M 553.78 468.80 C 553.78 468.80 555.26 452.42 560.36 453.62 C 565.46 454.82 571.25 456.05 572.20 470.49 C 572.43 475.93 571.00 484.04 571.12 488.33 C 571.24 492.62 572.91 497.68 570.59 499.11 C 568.28 500.53 555.91 499.73 552.71 499.02 C 549.50 498.30 547.13 498.09 547.80 493.50 C 548.47 488.91 552.72 477.52 553.78 468.80 Z" fill="url(#SVGID_26_)" fill-rule="nonzero" group-id="10,46" node-id="472" stroke="none" target-height="48.110016" target-width="25.779968" target-x="547.13" target-y="452.41998"></path><path d="M 567.93 466.53 C 567.93 466.53 575.27 473.57 578.00 476.83 C 578.46 477.38 579.13 477.69 579.84 477.68 C 583.58 477.63 592.71 477.86 594.34 477.95 C 596.07 477.00 596.55 475.13 597.63 475.31 C 598.71 475.48 599.71 475.28 600.46 476.36 C 601.22 477.44 601.67 479.03 601.36 479.73 C 601.05 480.44 598.38 481.70 596.35 481.91 C 594.32 482.12 580.68 483.59 579.00 483.19 C 577.32 482.79 570.65 480.27 564.09 471.16 C 563.95 466.94 567.93 466.53 567.93 466.53 Z" fill="#ffbe92" fill-rule="nonzero" group-id="10,46" node-id="474" stroke="none" target-height="17.059937" target-width="37.71997" target-x="563.95" target-y="466.53003"></path><path d="M 570.33 465.98 L 563.38 472.70 C 563.38 472.70 555.42 464.12 561.01 459.79 C 566.60 455.46 570.33 465.98 570.33 465.98 Z" fill="url(#SVGID_27_)" fill-rule="nonzero" group-id="10,46" node-id="476" stroke="none" target-height="17.24002" target-width="14.910034" target-x="555.42" target-y="455.46"></path><path d="M 606.02 503.40 C 606.02 504.98 605.39 506.50 604.27 507.61 C 603.16 508.73 601.64 509.36 600.06 509.36 C 598.48 509.36 596.96 508.73 595.85 507.61 C 594.73 506.50 594.10 504.98 594.10 503.40 C 594.10 501.82 594.73 500.30 595.85 499.19 C 596.96 498.07 598.48 497.44 600.06 497.44 C 601.64 497.44 603.16 498.07 604.27 499.19 C 605.39 500.30 606.02 501.82 606.02 503.40 Z" fill="#aec1d6" fill-rule="nonzero" group-id="10,46" node-id="478" stroke="none" target-height="11.920013" target-width="11.920044" target-x="594.1" target-y="497.44"></path><path d="M 605.73 501.86 C 605.73 503.44 605.10 504.96 603.98 506.07 C 602.87 507.19 601.35 507.82 599.77 507.82 C 598.19 507.82 596.67 507.19 595.56 506.07 C 594.44 504.96 593.81 503.44 593.81 501.86 C 593.81 500.28 594.44 498.76 595.56 497.65 C 596.67 496.53 598.19 495.90 599.77 495.90 C 601.35 495.90 602.87 496.53 603.98 497.65 C 605.10 498.76 605.73 500.28 605.73 501.86 Z" fill="#f7f8f8" fill-rule="nonzero" group-id="10,46" node-id="480" stroke="none" target-height="11.920013" target-width="11.920044" target-x="593.81" target-y="495.89996"></path></g></g></svg>