<?xml version="1.0" standalone="no"?><!DOCTYPE svg PUBLIC "-//W3C//DTD SVG 1.1//EN" "http://www.w3.org/Graphics/SVG/1.1/DTD/svg11.dtd"><svg height="800" node-id="1" sillyvg="true" template-height="800" template-width="800" version="1.1" viewBox="0 0 800 800" width="800" xmlns="http://www.w3.org/2000/svg" xmlns:xlink="http://www.w3.org/1999/xlink"><defs node-id="177"><linearGradient gradientUnits="objectBoundingBox" id="SVGID_1_" node-id="7" spreadMethod="pad" x1="254.428" x2="254.428" y1="428.1164" y2="331.3282"><stop offset="0.0000005358273" stop-color="#ffffff"></stop><stop offset="1" stop-color="#dbe3ee"></stop></linearGradient><linearGradient gradientUnits="objectBoundingBox" id="SVGID_2_" node-id="11" spreadMethod="pad" x1="189.8111" x2="189.8111" y1="486.1083" y2="269.6193"><stop offset="0.0000005358273" stop-color="#ffffff"></stop><stop offset="1" stop-color="#dbe3ee"></stop></linearGradient><linearGradient gradientUnits="objectBoundingBox" id="SVGID_3_" node-id="15" spreadMethod="pad" x1="565.5927" x2="565.5927" y1="443.4294" y2="286.9486"><stop offset="0.0000005358273" stop-color="#ffffff"></stop><stop offset="1" stop-color="#dbe3ee"></stop></linearGradient><linearGradient gradientUnits="objectBoundingBox" id="SVGID_4_" node-id="19" spreadMethod="pad" x1="628.1175" x2="628.1175" y1="466.0994" y2="296.3588"><stop offset="0.0000005358273" stop-color="#ffffff"></stop><stop offset="1" stop-color="#dbe3ee"></stop></linearGradient><linearGradient gradientUnits="objectBoundingBox" id="SVGID_5_" node-id="23" spreadMethod="pad" x1="119.405" x2="119.405" y1="508.1779" y2="357.6645"><stop offset="0.0000005358273" stop-color="#ffffff"></stop><stop offset="1" stop-color="#edf1f9"></stop></linearGradient><linearGradient gradientUnits="objectBoundingBox" id="SVGID_6_" node-id="27" spreadMethod="pad" x1="682.0781" x2="682.0781" y1="491.5725" y2="368.4403"><stop offset="0.0000005358273" stop-color="#ffffff"></stop><stop offset="1" stop-color="#edf1f9"></stop></linearGradient><linearGradient gradientUnits="objectBoundingBox" id="SVGID_7_" node-id="31" spreadMethod="pad" x1="125.3686" x2="125.3686" y1="235.8706" y2="171.3294"><stop offset="0.2332" stop-color="#ffffff"></stop><stop offset="1" stop-color="#d3dfee"></stop></linearGradient><linearGradient gradientUnits="objectBoundingBox" id="SVGID_8_" node-id="35" spreadMethod="pad" x1="642.4371" x2="642.4371" y1="199.0502" y2="134.5089"><stop offset="0.2332" stop-color="#ffffff"></stop><stop offset="1" stop-color="#d3dfee"></stop></linearGradient><linearGradient gradientUnits="objectBoundingBox" id="SVGID_9_" node-id="39" spreadMethod="pad" x1="512.6661" x2="512.6661" y1="242.2237" y2="195.5064"><stop offset="0.2332" stop-color="#ffffff"></stop><stop offset="1" stop-color="#d3dfee"></stop></linearGradient><linearGradient gradientUnits="objectBoundingBox" id="SVGID_10_" node-id="43" spreadMethod="pad" x1="398.8834" x2="398.8834" y1="757.7485" y2="405.6196"><stop offset="0.4065" stop-color="#ffffff"></stop><stop offset="1" stop-color="#dae4ef"></stop></linearGradient><linearGradient gradientUnits="objectBoundingBox" id="SVGID_11_" node-id="49" spreadMethod="pad" x1="189.813" x2="138.3768" y1="581.2043" y2="519.905"><stop offset="0.4034" stop-color="#eff4f8"></stop><stop offset="1" stop-color="#d4dfec"></stop></linearGradient><linearGradient gradientUnits="objectBoundingBox" id="SVGID_12_" node-id="53" spreadMethod="pad" x1="110.7652" x2="174.952" y1="460.9139" y2="460.9139"><stop offset="0.1022" stop-color="#f0f5f8"></stop><stop offset="1" stop-color="#b4c7dc"></stop></linearGradient><linearGradient gradientUnits="objectBoundingBox" id="SVGID_13_" node-id="59" spreadMethod="pad" x1="708.6751" x2="661.3097" y1="561.2317" y2="504.7838"><stop offset="0.4034" stop-color="#eff4f8"></stop><stop offset="1" stop-color="#d4dfec"></stop></linearGradient><linearGradient gradientUnits="objectBoundingBox" id="SVGID_14_" node-id="63" spreadMethod="pad" x1="635.8834" x2="694.9902" y1="450.4615" y2="450.4615"><stop offset="0.1022" stop-color="#f0f5f8"></stop><stop offset="1" stop-color="#b4c7dc"></stop></linearGradient><linearGradient gradientUnits="objectBoundingBox" id="SVGID_15_" node-id="69" spreadMethod="pad" x1="250.0125" x2="224.5712" y1="462.061" y2="431.7412"><stop offset="0.0000001438503" stop-color="#eaeff6"></stop><stop offset="1" stop-color="#cddae9"></stop></linearGradient><linearGradient gradientUnits="objectBoundingBox" id="SVGID_16_" node-id="73" spreadMethod="pad" x1="210.914" x2="242.662" y1="402.5632" y2="402.5632"><stop offset="0.1022" stop-color="#f0f5f8"></stop><stop offset="1" stop-color="#b4c7dc"></stop></linearGradient><linearGradient gradientUnits="objectBoundingBox" id="SVGID_17_" node-id="79" spreadMethod="pad" x1="542.574" x2="479.4996" y1="694.0817" y2="441.1039"><stop offset="0.182" stop-color="#ffffff"></stop><stop offset="1" stop-color="#bbcbe0"></stop></linearGradient><linearGradient gradientUnits="objectBoundingBox" id="SVGID_18_" node-id="83" spreadMethod="pad" x1="528.4815" x2="445.5399" y1="278.2911" y2="278.2911"><stop offset="0" stop-color="#cad8e7"></stop><stop offset="0.4573" stop-color="#b3c7dd"></stop></linearGradient><linearGradient gradientUnits="objectBoundingBox" id="SVGID_19_" node-id="87" spreadMethod="pad" x1="410.1656" x2="410.1656" y1="246.8909" y2="494.8575"><stop offset="0" stop-color="#eff3f9"></stop><stop offset="1" stop-color="#b6c9de"></stop></linearGradient><linearGradient gradientUnits="objectBoundingBox" id="SVGID_20_" node-id="95" spreadMethod="pad" x1="371.323" x2="371.323" y1="438.91" y2="498.7176"><stop offset="0" stop-color="#dce5f0"></stop><stop offset="1" stop-color="#b8cbdf"></stop></linearGradient><linearGradient gradientUnits="objectBoundingBox" id="SVGID_21_" node-id="100" spreadMethod="pad" x1="348.5686" x2="460.3421" y1="251.3972" y2="251.3972"><stop offset="0.2247" stop-color="#e3eaf3"></stop><stop offset="1" stop-color="#b6c9de"></stop></linearGradient><linearGradient gradientUnits="objectBoundingBox" id="SVGID_22_" node-id="111" spreadMethod="pad" x1="359.5936" x2="406.6544" y1="232.2229" y2="232.2229"><stop offset="0" stop-color="#78c8ff"></stop><stop offset="0.6903" stop-color="#4d8fe9"></stop></linearGradient><linearGradient gradientUnits="objectBoundingBox" id="SVGID_23_" node-id="117" spreadMethod="pad" x1="419.1735" x2="419.1735" y1="253.7056" y2="230.9977"><stop offset="0" stop-color="#f2a319"></stop><stop offset="0.4796" stop-color="#ffc552"></stop></linearGradient><linearGradient gradientUnits="objectBoundingBox" id="SVGID_24_" node-id="123" spreadMethod="pad" x1="428.4131" x2="428.4131" y1="249.1134" y2="236.6056"><stop offset="0" stop-color="#f2a319"></stop><stop offset="0.4796" stop-color="#ffc552"></stop></linearGradient><linearGradient gradientUnits="objectBoundingBox" id="SVGID_25_" node-id="128" spreadMethod="pad" x1="283.9644" x2="368.3864" y1="557.6495" y2="557.6495"><stop offset="0" stop-color="#dae3ef"></stop><stop offset="0.6329" stop-color="#9cb6d2"></stop></linearGradient><linearGradient gradientUnits="objectBoundingBox" id="SVGID_26_" node-id="132" spreadMethod="pad" x1="320.5338" x2="366.7301" y1="548.3926" y2="548.3926"><stop offset="0" stop-color="#d5e0ee"></stop><stop offset="1" stop-color="#f5f9fa"></stop></linearGradient></defs><g node-id="445"><g node-id="486"><path d="M 268.88 334.73 L 268.88 331.32 L 239.38 331.32 L 239.38 335.28 L 232.90 335.28 L 232.90 428.11 L 275.95 428.11 L 275.95 334.73 L 268.88 334.73 Z M 272.23 417.47 L 236.19 417.47 L 236.19 414.72 L 272.23 414.72 L 272.23 417.47 Z M 272.23 404.79 L 236.19 404.79 L 236.19 402.04 L 272.23 402.04 L 272.23 404.79 Z M 272.23 392.12 L 236.19 392.12 L 236.19 389.37 L 272.23 389.37 L 272.23 392.12 Z M 272.23 379.78 L 236.19 379.78 L 236.19 377.03 L 272.23 377.03 L 272.23 379.78 Z M 272.23 367.46 L 236.19 367.46 L 236.19 364.71 L 272.23 364.71 L 272.23 367.46 Z M 272.23 354.78 L 236.19 354.78 L 236.19 352.03 L 272.23 352.03 L 272.23 354.78 Z M 272.23 342.44 L 236.19 342.44 L 236.19 339.69 L 272.23 339.69 L 272.23 342.44 Z" fill="url(#SVGID_1_)" fill-rule="nonzero" group-id="2,43" node-id="339" stroke="none" target-height="96.78998" target-width="43.05002" target-x="232.9" target-y="331.32"></path><path d="M 210.90 386.55 L 210.90 278.36 L 178.15 278.36 L 178.15 269.62 L 164.29 269.62 L 164.29 322.95 L 160.56 322.95 L 160.56 486.11 L 219.07 486.11 L 219.07 386.55 L 210.90 386.55 Z M 186.40 418.35 L 178.14 418.35 L 178.14 410.34 L 186.40 410.34 L 186.40 418.35 Z M 186.40 405.83 L 178.14 405.83 L 178.14 397.82 L 186.40 397.82 L 186.40 405.83 Z M 186.40 393.35 L 178.14 393.35 L 178.14 385.34 L 186.40 385.34 L 186.40 393.35 Z M 186.40 380.91 L 178.14 380.91 L 178.14 372.90 L 186.40 372.90 L 186.40 380.91 Z M 186.40 368.38 L 178.14 368.38 L 178.14 360.37 L 186.40 360.37 L 186.40 368.38 Z M 186.40 343.38 L 178.14 343.38 L 178.14 335.37 L 186.40 335.37 L 186.40 343.38 Z M 186.40 330.85 L 178.14 330.85 L 178.14 322.84 L 186.40 322.84 L 186.40 330.85 Z M 186.40 318.38 L 178.14 318.38 L 178.14 310.37 L 186.40 310.37 L 186.40 318.38 Z M 186.40 305.94 L 178.14 305.94 L 178.14 297.93 L 186.40 297.93 L 186.40 305.94 Z M 186.40 293.41 L 178.14 293.41 L 178.14 285.40 L 186.40 285.40 L 186.40 293.41 Z M 198.76 418.35 L 190.50 418.35 L 190.50 410.34 L 198.76 410.34 L 198.76 418.35 Z M 198.76 405.83 L 190.50 405.83 L 190.50 397.82 L 198.76 397.82 L 198.76 405.83 Z M 198.76 393.35 L 190.50 393.35 L 190.50 385.34 L 198.76 385.34 L 198.76 393.35 Z M 198.76 380.91 L 190.50 380.91 L 190.50 372.90 L 198.76 372.90 L 198.76 380.91 Z M 198.76 368.38 L 190.50 368.38 L 190.50 360.37 L 198.76 360.37 L 198.76 368.38 Z M 198.76 343.38 L 190.50 343.38 L 190.50 335.37 L 198.76 335.37 L 198.76 343.38 Z M 198.76 330.85 L 190.50 330.85 L 190.50 322.84 L 198.76 322.84 L 198.76 330.85 Z M 198.76 318.38 L 190.50 318.38 L 190.50 310.37 L 198.76 310.37 L 198.76 318.38 Z M 198.76 305.94 L 190.50 305.94 L 190.50 297.93 L 198.76 297.93 L 198.76 305.94 Z M 198.76 293.41 L 190.50 293.41 L 190.50 285.40 L 198.76 285.40 L 198.76 293.41 Z" fill="url(#SVGID_2_)" fill-rule="nonzero" group-id="2,43" node-id="341" stroke="none" target-height="216.49002" target-width="58.51001" target-x="160.56" target-y="269.62"></path><path d="M 533.21 443.43 C 533.57 438.78 533.21 286.95 533.21 286.95 L 551.74 286.95 L 551.74 320.66 L 581.24 320.66 L 581.24 391.11 L 597.97 391.11 L 597.97 443.43 L 533.21 443.43 Z" fill="url(#SVGID_3_)" fill-rule="nonzero" group-id="2,43" node-id="343" stroke="none" target-height="156.48001" target-width="64.75995" target-x="533.21" target-y="286.95"></path><path d="M 654.43 375.28 L 654.43 370.43 L 649.43 370.43 L 649.43 328.10 L 637.23 328.10 L 637.23 323.40 L 629.00 323.40 L 629.00 316.49 L 624.71 316.49 L 624.71 296.35 L 621.62 296.35 L 621.62 316.63 L 617.68 316.63 L 617.68 323.54 L 605.48 323.54 L 605.48 334.86 L 598.43 334.86 L 598.43 466.10 L 657.81 466.10 L 657.81 375.28 L 654.43 375.28 Z M 608.91 428.07 L 604.89 428.07 L 604.89 412.83 L 608.91 412.83 L 608.91 428.07 Z M 608.91 409.42 L 604.89 409.42 L 604.89 394.18 L 608.91 394.18 L 608.91 409.42 Z M 608.91 390.76 L 604.89 390.76 L 604.89 375.52 L 608.91 375.52 L 608.91 390.76 Z M 608.91 371.78 L 604.89 371.78 L 604.89 356.54 L 608.91 356.54 L 608.91 371.78 Z M 608.91 352.80 L 604.89 352.80 L 604.89 337.56 L 608.91 337.56 L 608.91 352.80 Z M 617.19 428.07 L 613.17 428.07 L 613.17 412.83 L 617.19 412.83 L 617.19 428.07 Z M 617.19 409.42 L 613.17 409.42 L 613.17 394.18 L 617.19 394.18 L 617.19 409.42 Z M 617.19 390.76 L 613.17 390.76 L 613.17 375.52 L 617.19 375.52 L 617.19 390.76 Z M 617.19 371.78 L 613.17 371.78 L 613.17 356.54 L 617.19 356.54 L 617.19 371.78 Z M 617.19 352.80 L 613.17 352.80 L 613.17 337.56 L 617.19 337.56 L 617.19 352.80 Z M 625.47 428.07 L 621.45 428.07 L 621.45 412.83 L 625.47 412.83 L 625.47 428.07 Z M 625.47 409.42 L 621.45 409.42 L 621.45 394.18 L 625.47 394.18 L 625.47 409.42 Z M 625.47 390.76 L 621.45 390.76 L 621.45 375.52 L 625.47 375.52 L 625.47 390.76 Z M 625.47 371.78 L 621.45 371.78 L 621.45 356.54 L 625.47 356.54 L 625.47 371.78 Z M 625.47 352.80 L 621.45 352.80 L 621.45 337.56 L 625.47 337.56 L 625.47 352.80 Z M 633.75 428.07 L 629.73 428.07 L 629.73 412.83 L 633.75 412.83 L 633.75 428.07 Z M 633.75 409.42 L 629.73 409.42 L 629.73 394.18 L 633.75 394.18 L 633.75 409.42 Z M 633.75 390.76 L 629.73 390.76 L 629.73 375.52 L 633.75 375.52 L 633.75 390.76 Z M 633.75 371.78 L 629.73 371.78 L 629.73 356.54 L 633.75 356.54 L 633.75 371.78 Z M 633.75 352.80 L 629.73 352.80 L 629.73 337.56 L 633.75 337.56 L 633.75 352.80 Z M 642.03 428.07 L 638.01 428.07 L 638.01 412.83 L 642.03 412.83 L 642.03 428.07 Z M 642.03 409.42 L 638.01 409.42 L 638.01 394.18 L 642.03 394.18 L 642.03 409.42 Z M 642.03 390.76 L 638.01 390.76 L 638.01 375.52 L 642.03 375.52 L 642.03 390.76 Z M 642.03 371.78 L 638.01 371.78 L 638.01 356.54 L 642.03 356.54 L 642.03 371.78 Z M 642.03 352.80 L 638.01 352.80 L 638.01 337.56 L 642.03 337.56 L 642.03 352.80 Z" fill="url(#SVGID_4_)" fill-rule="nonzero" group-id="2,43" node-id="345" stroke="none" target-height="169.75" target-width="59.380005" target-x="598.43" target-y="296.35"></path><path d="M 92.78 508.18 L 92.78 418.63 L 103.03 418.63 L 103.03 372.94 L 138.29 357.66 L 138.29 417.91 L 146.03 417.91 L 146.03 508.18 Z" fill="url(#SVGID_5_)" fill-rule="nonzero" group-id="2,43" node-id="347" stroke="none" target-height="150.51999" target-width="53.25" target-x="92.78" target-y="357.66"></path><path d="M 697.55 491.57 L 666.61 491.57 L 666.61 368.44 L 697.55 383.41 Z" fill="url(#SVGID_6_)" fill-rule="nonzero" group-id="2,43" node-id="349" stroke="none" target-height="123.130005" target-width="30.939941" target-x="666.61" target-y="368.44"></path><path d="M 87.60 194.76 C 87.60 194.76 96.94 169.28 119.90 179.28 C 125.20 173.90 131.76 169.99 140.63 171.75 C 149.50 173.51 155.22 180.16 157.16 184.58 C 159.94 184.45 182.20 185.19 182.20 208.28 C 182.20 231.37 155.26 230.93 153.31 229.10 C 150.91 231.24 139.37 242.85 125.37 229.60 C 122.34 232.19 112.44 243.16 96.79 228.02 C 89.54 231.05 72.31 233.38 68.97 215.59 C 65.62 197.81 82.76 192.79 87.60 194.76 Z" fill="url(#SVGID_7_)" fill-rule="nonzero" group-id="2,43" node-id="351" stroke="none" target-height="73.880005" target-width="116.579994" target-x="65.62" target-y="169.28"></path><path d="M 604.67 157.94 C 604.67 157.94 614.01 132.46 636.97 142.46 C 642.27 137.08 648.83 133.17 657.70 134.93 C 666.57 136.69 672.29 143.34 674.23 147.76 C 677.01 147.63 699.27 148.37 699.27 171.46 C 699.27 194.55 672.33 194.11 670.38 192.28 C 667.98 194.42 656.44 206.03 642.44 192.78 C 639.41 195.37 629.51 206.34 613.86 191.20 C 606.61 194.23 589.38 196.56 586.04 178.77 C 582.69 160.99 599.83 155.97 604.67 157.94 Z" fill="url(#SVGID_8_)" fill-rule="nonzero" group-id="2,43" node-id="353" stroke="none" target-height="73.87999" target-width="116.58002" target-x="582.69" target-y="132.46"></path><path d="M 485.33 212.47 C 485.33 212.47 492.09 194.02 508.71 201.27 C 512.55 197.37 517.29 194.54 523.72 195.82 C 530.15 197.10 534.28 201.91 535.68 205.10 C 537.69 205.01 553.81 205.54 553.81 222.25 C 553.81 238.96 534.31 238.64 532.90 237.32 C 531.16 238.87 522.81 247.27 512.67 237.69 C 510.48 239.56 503.31 247.51 491.99 236.55 C 486.74 238.74 474.27 240.43 471.85 227.55 C 469.42 214.68 481.83 211.04 485.33 212.47 Z" fill="url(#SVGID_9_)" fill-rule="nonzero" group-id="2,43" node-id="355" stroke="none" target-height="53.48999" target-width="84.38995" target-x="469.42004" target-y="194.02"></path><path d="M 769.86 581.68 C 769.86 628.37 730.77 673.16 661.20 706.17 C 591.63 739.19 497.27 757.74 398.88 757.74 C 300.49 757.74 206.13 739.19 136.56 706.17 C 66.99 673.16 27.90 628.37 27.90 581.68 C 27.90 534.99 66.99 490.20 136.56 457.19 C 206.13 424.17 300.49 405.62 398.88 405.62 C 497.27 405.62 591.63 424.17 661.20 457.19 C 730.77 490.20 769.86 534.99 769.86 581.68 Z" fill="url(#SVGID_10_)" fill-rule="nonzero" group-id="2,43" node-id="357" stroke="none" target-height="352.12" target-width="741.95996" target-x="27.899994" target-y="405.62"></path></g><g node-id="487"><g node-id="491"><path d="M 144.83 560.15 C 144.83 560.15 141.30 565.16 147.20 572.62 C 152.46 579.26 160.77 577.97 163.53 575.84 C 164.38 581.62 171.47 593.80 182.69 586.91 C 193.24 580.44 188.16 570.60 184.79 566.73 C 191.38 564.87 196.29 549.08 181.17 543.63 C 183.41 537.11 183.81 534.16 180.53 528.30 C 177.37 522.66 172.18 521.76 163.90 525.19 L 151.92 530.24 L 144.29 516.00 L 140.21 518.36 L 149.01 531.96 L 137.35 537.81 C 137.35 537.81 127.38 541.71 131.68 552.41 C 135.67 562.33 144.83 560.15 144.83 560.15 Z" fill="url(#SVGID_11_)" fill-rule="nonzero" group-id="2,44,48" node-id="363" stroke="none" target-height="77.79999" target-width="68.909996" target-x="127.38" target-y="516"></path><path d="M 124.53 499.44 L 160.59 499.44 C 160.59 499.44 172.24 499.77 174.56 486.46 C 177.11 471.85 166.48 469.84 166.48 469.84 C 166.48 469.84 172.88 466.90 171.49 455.85 C 170.10 444.80 160.37 443.41 156.32 443.92 C 156.98 437.37 158.36 422.54 142.96 422.39 C 128.09 422.24 128.18 437.21 129.29 443.11 C 123.99 443.17 107.98 451.12 119.24 468.56 C 113.11 473.81 110.52 476.84 110.79 484.41 C 111.06 491.98 115.70 499.44 124.53 499.44 Z" fill="url(#SVGID_12_)" fill-rule="nonzero" group-id="2,44,48" node-id="365" stroke="none" target-height="77.52997" target-width="69.13" target-x="107.98" target-y="422.24002"></path><path d="M 159.71 479.20 L 144.33 489.32 L 143.91 479.53 L 153.63 468.07 L 143.76 476.06 L 142.48 446.15 L 141.53 476.25 L 131.16 467.99 L 141.44 479.32 L 141.12 489.39 L 125.31 477.76 L 141.01 493.02 L 140.21 518.37 L 145.57 518.37 L 144.49 493.17 Z" fill="#c6d5e6" fill-rule="nonzero" group-id="2,44,48" node-id="367" stroke="none" target-height="72.22" target-width="34.400017" target-x="125.30999" target-y="446.15"></path></g><g node-id="492"><path d="M 667.25 541.84 C 667.25 541.84 664.00 546.46 669.43 553.32 C 674.27 559.44 681.93 558.25 684.47 556.28 C 685.25 561.60 691.79 572.81 702.12 566.48 C 711.83 560.52 707.16 551.46 704.05 547.90 C 710.12 546.19 714.64 531.64 700.72 526.63 C 702.79 520.63 703.16 517.91 700.13 512.52 C 697.22 507.33 692.44 506.49 684.82 509.66 L 673.78 514.31 L 666.75 501.20 L 663.00 503.37 L 671.10 515.89 L 660.37 521.28 C 660.37 521.28 651.19 524.87 655.15 534.73 C 658.82 543.85 667.25 541.84 667.25 541.84 Z" fill="url(#SVGID_13_)" fill-rule="nonzero" group-id="2,44,49" node-id="372" stroke="none" target-height="71.610016" target-width="63.450012" target-x="651.19" target-y="501.19998"></path><path d="M 648.56 485.93 L 681.76 485.93 C 681.76 485.93 692.49 486.24 694.62 473.98 C 696.96 460.53 687.18 458.68 687.18 458.68 C 687.18 458.68 693.08 455.97 691.79 445.80 C 690.50 435.63 681.55 434.34 677.82 434.82 C 678.43 428.79 679.70 415.13 665.52 414.99 C 651.83 414.85 651.91 428.63 652.93 434.07 C 648.05 434.12 633.30 441.44 643.68 457.51 C 638.04 462.34 635.65 465.14 635.90 472.10 C 636.16 479.07 640.43 485.93 648.56 485.93 Z" fill="url(#SVGID_14_)" fill-rule="nonzero" group-id="2,44,49" node-id="374" stroke="none" target-height="71.390015" target-width="63.660034" target-x="633.3" target-y="414.85"></path><path d="M 680.95 467.30 L 666.79 476.62 L 666.40 467.61 L 675.36 457.05 L 666.27 464.40 L 665.09 436.87 L 664.22 464.58 L 654.66 456.98 L 664.13 467.41 L 663.84 476.68 L 649.27 465.98 L 663.73 480.03 L 663.00 503.37 L 667.93 503.37 L 666.94 480.17 Z" fill="#c6d5e6" fill-rule="nonzero" group-id="2,44,49" node-id="376" stroke="none" target-height="66.50003" target-width="31.679993" target-x="649.27" target-y="436.87"></path></g><g node-id="493"><path d="M 227.76 451.65 C 227.76 451.65 226.01 454.13 228.93 457.82 C 231.53 461.11 235.64 460.47 237.01 459.41 C 237.43 462.27 240.94 468.29 246.49 464.89 C 251.71 461.69 249.20 456.82 247.53 454.91 C 250.79 453.99 253.22 446.18 245.74 443.49 C 246.85 440.27 247.05 438.81 245.42 435.91 C 243.86 433.12 241.29 432.67 237.20 434.37 L 231.27 436.87 L 227.50 429.83 L 225.48 431.00 L 229.83 437.72 L 224.06 440.61 C 224.06 440.61 219.13 442.54 221.26 447.83 C 223.23 452.72 227.76 451.65 227.76 451.65 Z" fill="url(#SVGID_15_)" fill-rule="nonzero" group-id="2,44,50" node-id="381" stroke="none" target-height="38.460052" target-width="34.089996" target-x="219.13" target-y="429.83"></path><path d="M 217.72 421.62 L 235.55 421.62 C 235.55 421.62 241.31 421.78 242.46 415.20 C 243.72 407.97 238.46 406.98 238.46 406.98 C 238.46 406.98 241.63 405.52 240.94 400.06 C 240.25 394.60 235.44 393.91 233.44 394.16 C 233.77 390.92 234.45 383.58 226.83 383.51 C 219.47 383.44 219.52 390.84 220.07 393.76 C 217.45 393.79 209.53 397.72 215.10 406.35 C 212.07 408.94 210.78 410.45 210.92 414.19 C 211.06 417.93 213.35 421.62 217.72 421.62 Z" fill="url(#SVGID_16_)" fill-rule="nonzero" group-id="2,44,50" node-id="383" stroke="none" target-height="38.339996" target-width="34.190002" target-x="209.53" target-y="383.44"></path><path d="M 235.12 411.61 L 227.51 416.61 L 227.31 411.77 L 232.12 406.10 L 227.23 410.05 L 226.60 395.26 L 226.13 410.15 L 221.00 406.06 L 226.09 411.67 L 225.93 416.65 L 218.11 410.90 L 225.87 418.44 L 225.48 430.98 L 228.13 430.98 L 227.60 418.52 Z" fill="#c6d5e6" fill-rule="nonzero" group-id="2,44,50" node-id="385" stroke="none" target-height="35.71997" target-width="17.010025" target-x="218.10999" target-y="395.26004"></path></g></g><g node-id="488"><path d="M 272.41 492.74 L 407.48 678.45 L 749.66 642.45 L 468.02 472.29 Z" fill="url(#SVGID_17_)" fill-rule="nonzero" group-id="2,45" node-id="390" stroke="none" target-height="206.16" target-width="477.24997" target-x="272.41" target-y="472.29"></path><path d="M 445.54 308.42 L 528.47 308.42 L 528.47 266.95 C 528.47 266.95 529.80 248.16 500.53 248.16 C 471.27 248.16 446.53 248.16 446.53 248.16 L 445.54 308.42 Z" fill="url(#SVGID_18_)" fill-rule="nonzero" group-id="2,45" node-id="392" stroke="none" target-height="60.26001" target-width="84.25995" target-x="445.54004" target-y="248.16"></path><path d="M 323.33 247.68 C 323.33 247.68 302.57 249.91 302.57 280.58 C 302.57 311.25 302.57 468.28 302.57 468.28 L 451.72 494.85 C 451.72 494.85 472.70 495.50 479.11 482.00 C 485.51 468.50 484.74 455.65 484.74 436.86 C 484.74 418.07 484.74 283.25 484.74 283.25 C 484.74 283.25 482.75 245.05 517.76 251.32 C 512.35 247.65 495.67 246.89 488.28 246.89 C 480.89 246.89 323.33 247.68 323.33 247.68 Z" fill="url(#SVGID_19_)" fill-rule="nonzero" group-id="2,45" node-id="394" stroke="none" target-height="250.45" target-width="215.19" target-x="302.57" target-y="245.05"></path><path d="M 332.66 291.17 L 448.83 291.17 L 448.83 305.10 L 332.66 305.10 Z" fill="#f7f8f8" fill-rule="nonzero" group-id="2,45" node-id="396" stroke="none" target-height="13.929993" target-width="116.17001" target-x="332.66" target-y="291.17"></path><path d="M 332.66 324.32 L 448.83 324.32 L 448.83 338.25 L 332.66 338.25 Z" fill="#f7f8f8" fill-rule="nonzero" group-id="2,45" node-id="398" stroke="none" target-height="13.929993" target-width="116.17001" target-x="332.66" target-y="324.32"></path><path d="M 332.66 359.32 L 448.83 359.32 L 448.83 373.25 L 332.66 373.25 Z" fill="#f7f8f8" fill-rule="nonzero" group-id="2,45" node-id="400" stroke="none" target-height="13.929993" target-width="116.17001" target-x="332.66" target-y="359.32"></path><path d="M 332.66 390.56 L 406.21 390.56 L 406.21 404.49 L 332.66 404.49 Z" fill="#f7f8f8" fill-rule="nonzero" group-id="2,45" node-id="402" stroke="none" target-height="13.929993" target-width="73.55002" target-x="332.66" target-y="390.56"></path><path d="M 440.39 438.91 C 440.39 438.91 281.61 438.91 270.35 438.91 C 263.36 451.21 263.08 463.84 264.47 477.26 C 265.11 483.48 269.56 498.67 287.11 498.67 C 308.46 498.67 450.55 498.67 450.55 498.67 C 450.55 498.67 474.87 500.46 478.84 482.46 C 474.13 487.36 460.41 497.09 447.45 483.84 C 442.74 478.22 434.35 460.51 440.39 438.91 Z" fill="url(#SVGID_20_)" fill-rule="nonzero" group-id="2,45" node-id="404" stroke="none" target-height="61.55002" target-width="215.76004" target-x="263.08" target-y="438.91"></path></g><g node-id="489"><path d="M 456.44 245.31 C 456.44 245.31 462.38 248.52 459.60 250.83 C 457.63 252.47 456.77 252.09 455.69 254.24 C 453.46 256.99 451.20 256.78 448.45 254.88 C 445.70 252.98 443.21 253.57 440.00 254.62 C 436.79 255.67 427.23 255.93 420.48 255.87 C 413.73 255.80 409.34 255.87 405.22 256.98 C 401.09 258.09 396.64 257.37 392.58 254.55 C 388.52 251.73 389.57 251.14 383.74 251.07 C 377.91 251.00 370.90 253.04 367.62 253.56 C 364.34 254.08 355.89 254.54 350.72 253.82 C 345.54 253.10 351.38 249.62 351.38 249.62 L 363.30 247.26 L 403.72 247.26 L 456.44 245.31 Z" fill="url(#SVGID_21_)" fill-rule="nonzero" group-id="2,46" node-id="408" stroke="none" target-height="12.779999" target-width="116.84" target-x="345.54" target-y="245.31"></path><path d="M 362.90 219.93 C 362.90 219.93 360.00 221.63 356.34 219.94 C 356.27 223.51 360.10 226.16 360.10 226.16 L 365.53 225.64 L 362.90 219.93 Z" fill="#ffbe92" fill-rule="nonzero" group-id="2,46" node-id="410" stroke="none" target-height="6.230011" target-width="9.26001" target-x="356.27" target-y="219.93"></path><path d="M 363.90 241.50 L 359.04 247.11 L 365.55 248.97 L 369.01 246.17 Z" fill="#ffbe92" fill-rule="nonzero" group-id="2,46" node-id="412" stroke="none" target-height="7.470001" target-width="9.969971" target-x="359.04" target-y="241.5"></path><path d="M 368.13 251.17 L 349.36 250.70 C 349.36 250.70 348.58 245.05 355.96 245.47 C 363.35 245.89 367.61 246.31 367.61 246.31 L 368.13 251.17 Z" fill="#f8b62d" fill-rule="nonzero" group-id="2,46" node-id="414" stroke="none" target-height="6.119995" target-width="19.549988" target-x="348.58002" target-y="245.05"></path><path d="M 368.47 252.41 L 360.18 252.93 L 359.92 251.42 L 349.29 251.83 L 349.11 250.55 L 368.20 249.62 Z" fill="#e6e8e8" fill-rule="nonzero" group-id="2,46" node-id="416" stroke="none" target-height="3.3099976" target-width="19.360016" target-x="349.11" target-y="249.62"></path><path d="M 359.74 230.01 L 348.00 217.06 C 348.00 217.06 351.29 212.90 355.76 218.15 C 356.66 219.21 358.60 219.02 359.33 219.90 C 359.33 223.42 362.64 226.25 362.64 226.25 L 359.74 230.01 Z" fill="#f8b62d" fill-rule="nonzero" group-id="2,46" node-id="418" stroke="none" target-height="17.109985" target-width="14.640015" target-x="348" target-y="212.90001"></path><path d="M 359.13 231.03 L 353.45 225.79 L 354.30 224.64 L 347.19 217.75 L 347.93 216.81 L 360.83 229.06 Z" fill="#e6e8e8" fill-rule="nonzero" group-id="2,46" node-id="420" stroke="none" target-height="14.220001" target-width="13.640015" target-x="347.18997" target-y="216.81"></path><path d="M 405.08 235.93 L 404.84 235.71 L 386.02 218.68 C 386.02 218.68 379.80 217.83 373.05 227.53 C 366.30 237.23 361.43 244.35 361.43 244.35 L 367.61 247.56 L 381.57 233.96 C 381.57 233.96 382.55 233.76 383.40 235.34 C 384.25 236.91 388.64 243.14 389.23 244.26 C 389.82 245.38 390.61 254.03 404.76 252.65 C 405.21 238.62 405.08 235.93 405.08 235.93 Z" fill="#4d8fe9" fill-rule="nonzero" group-id="2,46" node-id="422" stroke="none" target-height="36.199997" target-width="43.78003" target-x="361.42996" target-y="217.83002"></path><path d="M 403.84 232.85 C 403.84 232.85 394.57 217.21 392.54 214.65 C 390.51 212.09 390.41 211.54 385.73 212.62 C 381.05 213.70 359.60 220.60 359.60 220.60 L 362.17 226.72 C 362.17 226.72 377.67 223.41 383.80 222.52 C 383.80 222.52 385.54 221.63 385.86 224.68 C 386.19 227.73 386.15 236.12 389.23 244.84 C 390.93 248.97 392.70 252.64 403.51 252.32 C 410.39 245.84 403.84 232.85 403.84 232.85 Z" fill="url(#SVGID_22_)" fill-rule="nonzero" group-id="2,46" node-id="424" stroke="none" target-height="41.09999" target-width="50.789978" target-x="359.6" target-y="211.54"></path><path d="M 453.17 240.36 C 453.17 240.36 449.93 236.33 443.25 237.28 C 441.94 237.61 439.65 238.28 440.56 241.66 C 440.56 241.94 440.17 242.04 439.82 242.04 C 439.48 242.04 433.58 241.66 433.58 241.66 L 431.70 250.43 C 431.70 250.43 446.72 249.33 449.49 249.99 C 450.91 250.32 453.76 249.20 454.58 245.97 C 455.40 242.74 453.17 240.36 453.17 240.36 Z" fill="#ffbe92" fill-rule="nonzero" group-id="2,46" node-id="426" stroke="none" target-height="14.099991" target-width="23.699982" target-x="431.7" target-y="236.33"></path><path d="M 458.71 243.44 C 458.71 243.44 460.45 242.88 459.83 240.18 C 459.21 237.48 456.95 238.24 456.43 238.22 C 455.91 238.20 455.59 237.78 456.02 237.11 C 456.45 236.44 456.91 235.19 455.56 233.98 C 454.21 232.77 449.76 233.81 449.56 236.77 C 449.36 239.72 450.43 241.45 451.18 242.69 C 451.93 243.93 452.67 246.16 451.47 246.22 C 450.26 246.27 447.55 246.01 448.11 246.34 C 448.67 246.67 450.86 247.15 450.53 248.75 C 450.20 250.35 448.10 249.78 447.17 248.50 C 446.78 247.95 446.86 248.00 446.33 248.05 C 445.80 248.10 445.58 248.46 444.73 248.58 C 443.88 248.70 443.67 249.07 444.43 249.73 C 445.19 250.39 446.64 251.62 450.21 251.87 C 451.23 251.88 451.22 252.22 451.65 252.88 C 452.08 253.54 452.78 254.51 454.20 253.97 C 455.62 253.43 455.62 252.64 455.79 251.64 C 455.96 250.64 456.28 250.75 456.84 250.85 C 457.39 250.95 459.66 250.67 460.03 248.69 C 460.40 246.71 459.55 245.65 458.78 244.96 C 458.01 244.27 458.36 243.70 458.71 243.44 Z" fill="#171c61" fill-rule="nonzero" group-id="2,46" node-id="428" stroke="none" target-height="21.73999" target-width="16.779999" target-x="443.66998" target-y="232.77"></path><path d="M 425.32 253.38 C 425.32 253.38 439.70 254.46 439.34 248.92 C 438.98 243.38 438.68 238.10 426.30 234.79 C 421.62 233.68 414.41 233.87 410.71 233.05 C 407.01 232.23 402.85 229.67 401.31 231.87 C 399.77 234.07 398.82 246.17 399.02 249.64 C 399.22 253.12 399.09 253.67 403.15 253.71 C 407.21 253.75 417.63 253.08 425.32 253.38 Z" fill="url(#SVGID_23_)" fill-rule="nonzero" group-id="2,46" node-id="430" stroke="none" target-height="24.790024" target-width="40.880005" target-x="398.82004" target-y="229.66998"></path><path d="M 433.53 221.11 C 433.79 221.01 443.13 218.18 443.17 218.26 C 443.21 218.34 443.73 220.02 443.73 220.02 L 434.20 222.81 L 433.14 222.93 L 433.53 221.11 Z" fill="#171c61" fill-rule="nonzero" group-id="2,46" node-id="432" stroke="none" target-height="4.7500153" target-width="10.590027" target-x="433.13998" target-y="218.18"></path><path d="M 430.24 238.72 C 430.24 238.72 425.83 235.23 424.56 234.44 C 423.28 233.65 423.81 232.52 424.43 231.92 C 425.28 231.10 429.72 226.17 430.28 225.58 C 430.84 224.99 430.89 224.92 431.66 224.84 C 432.43 224.76 434.66 223.94 435.87 223.32 C 437.08 222.70 438.15 222.70 437.36 222.17 C 436.57 221.65 435.15 222.17 434.74 222.15 C 434.33 222.13 434.36 221.08 435.18 220.72 C 436.00 220.36 435.93 220.36 436.74 220.41 C 437.54 220.46 438.51 220.08 437.76 219.30 C 437.01 218.51 433.44 217.86 431.88 218.64 C 430.32 219.43 429.96 220.23 429.60 221.07 C 429.24 221.91 428.44 222.33 427.18 223.10 C 425.92 223.87 418.10 229.43 417.32 230.13 C 416.44 230.93 416.08 231.76 416.91 233.87 C 417.66 235.77 419.85 240.00 424.43 243.80 C 427.03 241.80 430.24 238.72 430.24 238.72 Z" fill="#ffbe92" fill-rule="nonzero" group-id="2,46" node-id="434" stroke="none" target-height="25.940002" target-width="22.430023" target-x="416.08" target-y="217.86"></path><path d="M 429.20 236.61 L 421.27 242.93 C 421.27 242.93 428.76 252.84 434.04 247.58 C 439.32 242.32 429.20 236.61 429.20 236.61 Z" fill="url(#SVGID_24_)" fill-rule="nonzero" group-id="2,46" node-id="436" stroke="none" target-height="16.229996" target-width="18.050018" target-x="421.27" target-y="236.61"></path></g><g node-id="490"><path d="M 343.74 533.89 C 330.13 533.89 319.10 539.79 319.10 547.06 C 319.10 548.38 319.10 552.50 319.10 554.94 C 318.36 555.42 317.55 556.21 317.14 557.48 C 314.34 558.30 293.45 567.12 284.67 574.04 C 284.01 574.56 283.79 575.46 284.11 576.23 C 284.79 577.87 285.35 579.26 285.75 580.24 C 286.11 581.14 287.10 581.61 288.03 581.33 C 292.41 580.01 305.17 575.73 321.98 566.10 C 323.29 566.25 325.22 566.39 326.27 565.67 C 330.73 568.07 336.92 569.56 343.75 569.56 C 357.36 569.56 368.39 563.66 368.39 556.39 C 368.39 554.75 368.39 548.70 368.39 547.06 C 368.39 539.79 357.35 533.89 343.74 533.89 Z" fill="url(#SVGID_25_)" fill-rule="nonzero" group-id="2,47" node-id="440" stroke="none" target-height="47.71997" target-width="84.600006" target-x="283.79" target-y="533.89"></path><path d="M 366.73 548.39 C 366.73 554.66 356.39 559.75 343.63 559.75 C 330.87 559.75 320.53 554.66 320.53 548.39 C 320.53 542.12 330.87 537.03 343.63 537.03 C 356.39 537.03 366.73 542.12 366.73 548.39 Z" fill="url(#SVGID_26_)" fill-rule="nonzero" group-id="2,47" node-id="442" stroke="none" target-height="22.71997" target-width="46.19998" target-x="320.53" target-y="537.03"></path></g></g></svg>