<?xml version="1.0" standalone="no"?><!DOCTYPE svg PUBLIC "-//W3C//DTD SVG 1.1//EN" "http://www.w3.org/Graphics/SVG/1.1/DTD/svg11.dtd"><svg height="800" node-id="1" sillyvg="true" template-height="800" template-width="800" version="1.1" viewBox="0 0 800 800" width="800" xmlns="http://www.w3.org/2000/svg" xmlns:xlink="http://www.w3.org/1999/xlink"><defs node-id="168"><linearGradient gradientUnits="objectBoundingBox" id="SVGID_1_" node-id="9" spreadMethod="pad" x1="256.1458" x2="256.1458" y1="428.6516" y2="331.8633"><stop offset="0.0000005358273" stop-color="#ffffff"></stop><stop offset="1" stop-color="#dbe3ee"></stop></linearGradient><linearGradient gradientUnits="objectBoundingBox" id="SVGID_2_" node-id="13" spreadMethod="pad" x1="191.5289" x2="191.5289" y1="486.6435" y2="270.1544"><stop offset="0.0000005358273" stop-color="#ffffff"></stop><stop offset="1" stop-color="#dbe3ee"></stop></linearGradient><linearGradient gradientUnits="objectBoundingBox" id="SVGID_3_" node-id="17" spreadMethod="pad" x1="567.3105" x2="567.3105" y1="443.9646" y2="287.4838"><stop offset="0.0000005358273" stop-color="#ffffff"></stop><stop offset="1" stop-color="#dbe3ee"></stop></linearGradient><linearGradient gradientUnits="objectBoundingBox" id="SVGID_4_" node-id="21" spreadMethod="pad" x1="629.8353" x2="629.8353" y1="466.6346" y2="296.894"><stop offset="0.0000005358273" stop-color="#ffffff"></stop><stop offset="1" stop-color="#dbe3ee"></stop></linearGradient><linearGradient gradientUnits="objectBoundingBox" id="SVGID_5_" node-id="25" spreadMethod="pad" x1="121.1228" x2="121.1228" y1="508.7131" y2="358.1997"><stop offset="0.0000005358273" stop-color="#ffffff"></stop><stop offset="1" stop-color="#edf1f9"></stop></linearGradient><linearGradient gradientUnits="objectBoundingBox" id="SVGID_6_" node-id="29" spreadMethod="pad" x1="683.7959" x2="683.7959" y1="492.1077" y2="368.9754"><stop offset="0.0000005358273" stop-color="#ffffff"></stop><stop offset="1" stop-color="#edf1f9"></stop></linearGradient><linearGradient gradientUnits="objectBoundingBox" id="SVGID_7_" node-id="33" spreadMethod="pad" x1="127.0864" x2="127.0864" y1="236.4058" y2="171.8645"><stop offset="0.2332" stop-color="#ffffff"></stop><stop offset="1" stop-color="#d3dfee"></stop></linearGradient><linearGradient gradientUnits="objectBoundingBox" id="SVGID_8_" node-id="37" spreadMethod="pad" x1="644.1548" x2="644.1548" y1="199.5854" y2="135.0441"><stop offset="0.2332" stop-color="#ffffff"></stop><stop offset="1" stop-color="#d3dfee"></stop></linearGradient><linearGradient gradientUnits="objectBoundingBox" id="SVGID_9_" node-id="41" spreadMethod="pad" x1="514.3839" x2="514.3839" y1="242.7588" y2="196.0416"><stop offset="0.2332" stop-color="#ffffff"></stop><stop offset="1" stop-color="#d3dfee"></stop></linearGradient><linearGradient gradientUnits="objectBoundingBox" id="SVGID_10_" node-id="45" spreadMethod="pad" x1="400.6012" x2="400.6012" y1="758.2836" y2="406.1548"><stop offset="0.4065" stop-color="#ffffff"></stop><stop offset="1" stop-color="#dae4ef"></stop></linearGradient><linearGradient gradientUnits="objectBoundingBox" id="SVGID_11_" node-id="51" spreadMethod="pad" x1="191.5308" x2="140.0945" y1="581.7394" y2="520.4402"><stop offset="0.4034" stop-color="#eff4f8"></stop><stop offset="1" stop-color="#d4dfec"></stop></linearGradient><linearGradient gradientUnits="objectBoundingBox" id="SVGID_12_" node-id="55" spreadMethod="pad" x1="112.483" x2="176.6698" y1="461.4491" y2="461.4491"><stop offset="0.1022" stop-color="#f0f5f8"></stop><stop offset="1" stop-color="#b4c7dc"></stop></linearGradient><linearGradient gradientUnits="objectBoundingBox" id="SVGID_13_" node-id="61" spreadMethod="pad" x1="710.3929" x2="663.0275" y1="561.7669" y2="505.319"><stop offset="0.4034" stop-color="#eff4f8"></stop><stop offset="1" stop-color="#d4dfec"></stop></linearGradient><linearGradient gradientUnits="objectBoundingBox" id="SVGID_14_" node-id="65" spreadMethod="pad" x1="637.6011" x2="696.7081" y1="450.9966" y2="450.9966"><stop offset="0.1022" stop-color="#f0f5f8"></stop><stop offset="1" stop-color="#b4c7dc"></stop></linearGradient><linearGradient gradientUnits="objectBoundingBox" id="SVGID_15_" node-id="71" spreadMethod="pad" x1="251.7303" x2="226.289" y1="462.5961" y2="432.2764"><stop offset="0.0000001438503" stop-color="#eaeff6"></stop><stop offset="1" stop-color="#cddae9"></stop></linearGradient><linearGradient gradientUnits="objectBoundingBox" id="SVGID_16_" node-id="75" spreadMethod="pad" x1="212.6318" x2="244.3798" y1="403.0984" y2="403.0984"><stop offset="0.1022" stop-color="#f0f5f8"></stop><stop offset="1" stop-color="#b4c7dc"></stop></linearGradient><linearGradient gradientUnits="objectBoundingBox" id="SVGID_17_" node-id="81" spreadMethod="pad" x1="529.7545" x2="468.7463" y1="685.7957" y2="458.1103"><stop offset="0.0938" stop-color="#ffffff"></stop><stop offset="1" stop-color="#bbcbe0"></stop></linearGradient><linearGradient gradientUnits="objectBoundingBox" id="SVGID_18_" node-id="85" spreadMethod="pad" x1="496.0797" x2="288.1534" y1="250.9345" y2="250.9345"><stop offset="0.0000005754013" stop-color="#dfe7f1"></stop><stop offset="1" stop-color="#afc4db"></stop></linearGradient><linearGradient gradientUnits="objectBoundingBox" id="SVGID_19_" node-id="89" spreadMethod="pad" x1="522.3669" x2="306.3021" y1="237.9666" y2="477.9308"><stop offset="0.0000005754013" stop-color="#eff3f9"></stop><stop offset="0.8631" stop-color="#becfe2"></stop><stop offset="1" stop-color="#9fb7ce"></stop></linearGradient><linearGradient gradientUnits="objectBoundingBox" id="SVGID_20_" node-id="94" spreadMethod="pad" x1="298.0162" x2="356.8063" y1="417.8605" y2="392.9056"><stop offset="0.0172" stop-color="#a7bed3"></stop><stop offset="0.3871" stop-color="#e7edf5"></stop><stop offset="0.6716" stop-color="#dfe7f1"></stop><stop offset="0.933" stop-color="#cad8e8"></stop></linearGradient><linearGradient gradientUnits="objectBoundingBox" id="SVGID_21_" node-id="112" spreadMethod="pad" x1="318.9774" x2="318.9774" y1="514.7993" y2="450.6568"><stop offset="0" stop-color="#4ea2f4"></stop><stop offset="0.6903" stop-color="#1e77cf"></stop></linearGradient><linearGradient gradientUnits="objectBoundingBox" id="SVGID_22_" node-id="116" spreadMethod="pad" x1="307.3958" x2="307.3958" y1="509.6771" y2="455.5446"><stop offset="0" stop-color="#78c8ff"></stop><stop offset="0.6903" stop-color="#2a80e2"></stop></linearGradient><linearGradient gradientUnits="objectBoundingBox" id="SVGID_23_" node-id="124" spreadMethod="pad" x1="323.6617" x2="286.0098" y1="442.6867" y2="442.6867"><stop offset="0" stop-color="#f2a319"></stop><stop offset="0.4796" stop-color="#ffc552"></stop></linearGradient></defs><g node-id="425"><g node-id="464"><path d="M 270.60 335.27 L 270.60 331.86 L 241.10 331.86 L 241.10 335.82 L 234.62 335.82 L 234.62 428.65 L 277.67 428.65 L 277.67 335.27 L 270.60 335.27 Z M 273.94 418.01 L 237.90 418.01 L 237.90 415.26 L 273.94 415.26 L 273.94 418.01 Z M 273.94 405.33 L 237.90 405.33 L 237.90 402.58 L 273.94 402.58 L 273.94 405.33 Z M 273.94 392.65 L 237.90 392.65 L 237.90 389.90 L 273.94 389.90 L 273.94 392.65 Z M 273.94 380.31 L 237.90 380.31 L 237.90 377.56 L 273.94 377.56 L 273.94 380.31 Z M 273.94 368.00 L 237.90 368.00 L 237.90 365.25 L 273.94 365.25 L 273.94 368.00 Z M 273.94 355.32 L 237.90 355.32 L 237.90 352.57 L 273.94 352.57 L 273.94 355.32 Z M 273.94 342.98 L 237.90 342.98 L 237.90 340.23 L 273.94 340.23 L 273.94 342.98 Z" fill="url(#SVGID_1_)" fill-rule="nonzero" group-id="4,43" node-id="320" stroke="none" target-height="96.79001" target-width="43.050034" target-x="234.61998" target-y="331.86"></path><path d="M 212.62 387.08 L 212.62 278.90 L 179.87 278.90 L 179.87 270.16 L 166.00 270.16 L 166.00 323.49 L 162.27 323.49 L 162.27 486.65 L 220.78 486.65 L 220.78 387.09 L 212.62 387.09 Z M 188.12 418.89 L 179.86 418.89 L 179.86 410.88 L 188.12 410.88 L 188.12 418.89 Z M 188.12 406.36 L 179.86 406.36 L 179.86 398.35 L 188.12 398.35 L 188.12 406.36 Z M 188.12 393.89 L 179.86 393.89 L 179.86 385.88 L 188.12 385.88 L 188.12 393.89 Z M 188.12 381.45 L 179.86 381.45 L 179.86 373.44 L 188.12 373.44 L 188.12 381.45 Z M 188.12 368.92 L 179.86 368.92 L 179.86 360.91 L 188.12 360.91 L 188.12 368.92 Z M 188.12 343.92 L 179.86 343.92 L 179.86 335.91 L 188.12 335.91 L 188.12 343.92 Z M 188.12 331.39 L 179.86 331.39 L 179.86 323.38 L 188.12 323.38 L 188.12 331.39 Z M 188.12 318.91 L 179.86 318.91 L 179.86 310.90 L 188.12 310.90 L 188.12 318.91 Z M 188.12 306.48 L 179.86 306.48 L 179.86 298.47 L 188.12 298.47 L 188.12 306.48 Z M 188.12 293.94 L 179.86 293.94 L 179.86 285.93 L 188.12 285.93 L 188.12 293.94 Z M 200.47 418.89 L 192.21 418.89 L 192.21 410.88 L 200.47 410.88 L 200.47 418.89 Z M 200.47 406.36 L 192.21 406.36 L 192.21 398.35 L 200.47 398.35 L 200.47 406.36 Z M 200.47 393.89 L 192.21 393.89 L 192.21 385.88 L 200.47 385.88 L 200.47 393.89 Z M 200.47 381.45 L 192.21 381.45 L 192.21 373.44 L 200.47 373.44 L 200.47 381.45 Z M 200.47 368.92 L 192.21 368.92 L 192.21 360.91 L 200.47 360.91 L 200.47 368.92 Z M 200.47 343.92 L 192.21 343.92 L 192.21 335.91 L 200.47 335.91 L 200.47 343.92 Z M 200.47 331.39 L 192.21 331.39 L 192.21 323.38 L 200.47 323.38 L 200.47 331.39 Z M 200.47 318.91 L 192.21 318.91 L 192.21 310.90 L 200.47 310.90 L 200.47 318.91 Z M 200.47 306.48 L 192.21 306.48 L 192.21 298.47 L 200.47 298.47 L 200.47 306.48 Z M 200.47 293.94 L 192.21 293.94 L 192.21 285.93 L 200.47 285.93 L 200.47 293.94 Z" fill="url(#SVGID_2_)" fill-rule="nonzero" group-id="4,43" node-id="322" stroke="none" target-height="216.48999" target-width="58.50998" target-x="162.27" target-y="270.16"></path><path d="M 534.93 443.96 C 535.29 439.31 534.93 287.48 534.93 287.48 L 553.46 287.48 L 553.46 321.19 L 582.96 321.19 L 582.96 391.64 L 599.69 391.64 L 599.69 443.96 L 534.93 443.96 Z" fill="url(#SVGID_3_)" fill-rule="nonzero" group-id="4,43" node-id="324" stroke="none" target-height="156.47998" target-width="64.76001" target-x="534.93" target-y="287.48"></path><path d="M 656.14 375.82 L 656.14 370.97 L 651.14 370.97 L 651.14 328.64 L 638.94 328.64 L 638.94 323.94 L 630.71 323.94 L 630.71 317.03 L 626.42 317.03 L 626.42 296.89 L 623.33 296.89 L 623.33 317.17 L 619.39 317.17 L 619.39 324.08 L 607.19 324.08 L 607.19 335.40 L 600.14 335.40 L 600.14 466.63 L 659.52 466.63 L 659.52 375.81 L 656.14 375.81 Z M 610.63 428.60 L 606.61 428.60 L 606.61 413.36 L 610.63 413.36 L 610.63 428.60 Z M 610.63 409.95 L 606.61 409.95 L 606.61 394.71 L 610.63 394.71 L 610.63 409.95 Z M 610.63 391.30 L 606.61 391.30 L 606.61 376.06 L 610.63 376.06 L 610.63 391.30 Z M 610.63 372.32 L 606.61 372.32 L 606.61 357.08 L 610.63 357.08 L 610.63 372.32 Z M 610.63 353.33 L 606.61 353.33 L 606.61 338.10 L 610.63 338.10 L 610.63 353.33 Z M 618.91 428.60 L 614.89 428.60 L 614.89 413.36 L 618.91 413.36 L 618.91 428.60 Z M 618.91 409.95 L 614.89 409.95 L 614.89 394.71 L 618.91 394.71 L 618.91 409.95 Z M 618.91 391.30 L 614.89 391.30 L 614.89 376.06 L 618.91 376.06 L 618.91 391.30 Z M 618.91 372.32 L 614.89 372.32 L 614.89 357.08 L 618.91 357.08 L 618.91 372.32 Z M 618.91 353.33 L 614.89 353.33 L 614.89 338.10 L 618.91 338.10 L 618.91 353.33 Z M 627.19 428.60 L 623.17 428.60 L 623.17 413.36 L 627.19 413.36 L 627.19 428.60 Z M 627.19 409.95 L 623.17 409.95 L 623.17 394.71 L 627.19 394.71 L 627.19 409.95 Z M 627.19 391.30 L 623.17 391.30 L 623.17 376.06 L 627.19 376.06 L 627.19 391.30 Z M 627.19 372.32 L 623.17 372.32 L 623.17 357.08 L 627.19 357.08 L 627.19 372.32 Z M 627.19 353.33 L 623.17 353.33 L 623.17 338.10 L 627.19 338.10 L 627.19 353.33 Z M 635.47 428.60 L 631.45 428.60 L 631.45 413.36 L 635.47 413.36 L 635.47 428.60 Z M 635.47 409.95 L 631.45 409.95 L 631.45 394.71 L 635.47 394.71 L 635.47 409.95 Z M 635.47 391.30 L 631.45 391.30 L 631.45 376.06 L 635.47 376.06 L 635.47 391.30 Z M 635.47 372.32 L 631.45 372.32 L 631.45 357.08 L 635.47 357.08 L 635.47 372.32 Z M 635.47 353.33 L 631.45 353.33 L 631.45 338.10 L 635.47 338.10 L 635.47 353.33 Z M 643.75 428.60 L 639.73 428.60 L 639.73 413.36 L 643.75 413.36 L 643.75 428.60 Z M 643.75 409.95 L 639.73 409.95 L 639.73 394.71 L 643.75 394.71 L 643.75 409.95 Z M 643.75 391.30 L 639.73 391.30 L 639.73 376.06 L 643.75 376.06 L 643.75 391.30 Z M 643.75 372.32 L 639.73 372.32 L 639.73 357.08 L 643.75 357.08 L 643.75 372.32 Z M 643.75 353.33 L 639.73 353.33 L 639.73 338.10 L 643.75 338.10 L 643.75 353.33 Z" fill="url(#SVGID_4_)" fill-rule="nonzero" group-id="4,43" node-id="326" stroke="none" target-height="169.73999" target-width="59.380005" target-x="600.14" target-y="296.89"></path><path d="M 94.50 508.71 L 94.50 419.17 L 104.75 419.17 L 104.75 373.47 L 140.01 358.20 L 140.01 418.45 L 147.75 418.45 L 147.75 508.71 Z" fill="url(#SVGID_5_)" fill-rule="nonzero" group-id="4,43" node-id="328" stroke="none" target-height="150.51004" target-width="53.249992" target-x="94.50001" target-y="358.19998"></path><path d="M 699.27 492.11 L 668.33 492.11 L 668.33 368.98 L 699.27 383.95 Z" fill="url(#SVGID_6_)" fill-rule="nonzero" group-id="4,43" node-id="330" stroke="none" target-height="123.129974" target-width="30.940002" target-x="668.33" target-y="368.98"></path><path d="M 89.32 195.30 C 89.32 195.30 98.66 169.82 121.62 179.82 C 126.92 174.44 133.48 170.53 142.35 172.29 C 151.22 174.06 156.94 180.70 158.88 185.12 C 161.66 184.99 183.92 185.73 183.92 208.82 C 183.92 231.91 156.98 231.47 155.03 229.64 C 152.63 231.78 141.09 243.39 127.09 230.14 C 124.06 232.73 114.16 243.70 98.51 228.56 C 91.26 231.59 74.03 233.92 70.69 216.13 C 67.35 198.34 84.48 193.32 89.32 195.30 Z" fill="url(#SVGID_7_)" fill-rule="nonzero" group-id="4,43" node-id="332" stroke="none" target-height="73.87999" target-width="116.57" target-x="67.35" target-y="169.82"></path><path d="M 606.38 158.48 C 606.38 158.48 615.72 133.00 638.68 143.00 C 643.98 137.62 650.54 133.71 659.41 135.47 C 668.28 137.24 674.00 143.88 675.94 148.30 C 678.72 148.17 700.98 148.91 700.98 172.00 C 700.98 195.09 674.04 194.65 672.09 192.82 C 669.69 194.96 658.15 206.57 644.15 193.32 C 641.12 195.91 631.22 206.88 615.57 191.74 C 608.32 194.77 591.09 197.10 587.75 179.31 C 584.41 161.53 601.55 156.50 606.38 158.48 Z" fill="url(#SVGID_8_)" fill-rule="nonzero" group-id="4,43" node-id="334" stroke="none" target-height="73.880005" target-width="116.57007" target-x="584.41" target-y="133"></path><path d="M 487.04 213.00 C 487.04 213.00 493.80 194.55 510.42 201.80 C 514.26 197.90 519.00 195.07 525.43 196.35 C 531.85 197.63 535.99 202.44 537.39 205.63 C 539.40 205.54 555.52 206.07 555.52 222.78 C 555.52 239.49 536.02 239.17 534.61 237.85 C 532.87 239.40 524.52 247.80 514.38 238.22 C 512.19 240.09 505.02 248.04 493.70 237.08 C 488.45 239.27 475.98 240.96 473.56 228.08 C 471.14 215.20 483.54 211.57 487.04 213.00 Z" fill="url(#SVGID_9_)" fill-rule="nonzero" group-id="4,43" node-id="336" stroke="none" target-height="53.48999" target-width="84.380005" target-x="471.14" target-y="194.55"></path><path d="M 771.58 582.22 C 771.58 628.91 732.49 673.70 662.92 706.71 C 593.35 739.73 498.99 758.28 400.60 758.28 C 302.21 758.28 207.85 739.73 138.28 706.71 C 68.71 673.70 29.62 628.91 29.62 582.22 C 29.62 535.53 68.71 490.74 138.28 457.73 C 207.85 424.71 302.21 406.16 400.60 406.16 C 498.99 406.16 593.35 424.71 662.92 457.73 C 732.49 490.74 771.58 535.53 771.58 582.22 Z" fill="url(#SVGID_10_)" fill-rule="nonzero" group-id="4,43" node-id="338" stroke="none" target-height="352.12" target-width="741.95996" target-x="29.619997" target-y="406.15997"></path></g><g node-id="465"><g node-id="468"><path d="M 146.55 560.69 C 146.55 560.69 143.02 565.70 148.92 573.16 C 154.18 579.80 162.49 578.51 165.25 576.38 C 166.10 582.16 173.19 594.34 184.41 587.45 C 194.96 580.98 189.88 571.14 186.51 567.27 C 193.10 565.41 198.01 549.62 182.89 544.17 C 185.13 537.65 185.53 534.70 182.25 528.84 C 179.09 523.20 173.90 522.30 165.62 525.73 L 153.64 530.78 L 146.01 516.54 L 141.93 518.90 L 150.73 532.50 L 139.07 538.35 C 139.07 538.35 129.10 542.25 133.40 552.95 C 137.39 562.86 146.55 560.69 146.55 560.69 Z" fill="url(#SVGID_11_)" fill-rule="nonzero" group-id="4,44,47" node-id="344" stroke="none" target-height="77.80005" target-width="68.90999" target-x="129.1" target-y="516.54"></path><path d="M 126.25 499.97 L 162.31 499.97 C 162.31 499.97 173.96 500.30 176.28 486.99 C 178.83 472.38 168.20 470.37 168.20 470.37 C 168.20 470.37 174.60 467.43 173.21 456.38 C 171.82 445.33 162.09 443.94 158.04 444.45 C 158.70 437.90 160.08 423.07 144.68 422.92 C 129.81 422.77 129.90 437.74 131.01 443.64 C 125.71 443.70 109.70 451.65 120.96 469.09 C 114.83 474.34 112.24 477.37 112.51 484.94 C 112.78 492.52 117.42 499.97 126.25 499.97 Z" fill="url(#SVGID_12_)" fill-rule="nonzero" group-id="4,44,47" node-id="346" stroke="none" target-height="77.53" target-width="69.130005" target-x="109.7" target-y="422.77"></path><path d="M 161.42 479.73 L 146.04 489.85 L 145.63 480.07 L 155.35 468.61 L 145.48 476.59 L 144.20 446.69 L 143.25 476.79 L 132.88 468.53 L 143.16 479.85 L 142.84 489.92 L 127.02 478.30 L 142.73 493.56 L 141.93 518.91 L 147.29 518.91 L 146.21 493.71 Z" fill="#c6d5e6" fill-rule="nonzero" group-id="4,44,47" node-id="348" stroke="none" target-height="72.21997" target-width="34.399994" target-x="127.020004" target-y="446.69"></path></g><g node-id="469"><path d="M 668.97 542.38 C 668.97 542.38 665.72 547.00 671.15 553.86 C 675.99 559.98 683.65 558.79 686.19 556.82 C 686.97 562.14 693.51 573.35 703.84 567.02 C 713.55 561.06 708.88 552.00 705.77 548.44 C 711.84 546.73 716.36 532.18 702.44 527.17 C 704.51 521.17 704.88 518.45 701.85 513.06 C 698.94 507.87 694.16 507.03 686.54 510.20 L 675.50 514.85 L 668.47 501.74 L 664.72 503.91 L 672.82 516.43 L 662.09 521.82 C 662.09 521.82 652.91 525.41 656.87 535.27 C 660.54 544.38 668.97 542.38 668.97 542.38 Z" fill="url(#SVGID_13_)" fill-rule="nonzero" group-id="4,44,48" node-id="353" stroke="none" target-height="71.610016" target-width="63.450012" target-x="652.91" target-y="501.73996"></path><path d="M 650.28 486.47 L 683.48 486.47 C 683.48 486.47 694.21 486.78 696.34 474.52 C 698.68 461.07 688.90 459.22 688.90 459.22 C 688.90 459.22 694.80 456.51 693.51 446.34 C 692.22 436.17 683.27 434.88 679.54 435.36 C 680.15 429.33 681.42 415.67 667.24 415.53 C 653.55 415.39 653.63 429.17 654.65 434.61 C 649.77 434.66 635.02 441.98 645.40 458.05 C 639.76 462.88 637.37 465.68 637.62 472.64 C 637.87 479.61 642.14 486.47 650.28 486.47 Z" fill="url(#SVGID_14_)" fill-rule="nonzero" group-id="4,44,48" node-id="355" stroke="none" target-height="71.389984" target-width="63.660034" target-x="635.02" target-y="415.39"></path><path d="M 682.67 467.83 L 668.51 477.15 L 668.12 468.14 L 677.08 457.59 L 667.98 464.94 L 666.80 437.40 L 665.94 465.12 L 656.38 457.51 L 665.85 467.94 L 665.56 477.22 L 650.99 466.51 L 665.45 480.56 L 664.72 503.91 L 669.65 503.91 L 668.66 480.70 Z" fill="#c6d5e6" fill-rule="nonzero" group-id="4,44,48" node-id="357" stroke="none" target-height="66.51001" target-width="31.679993" target-x="650.99" target-y="437.4"></path></g><g node-id="470"><path d="M 229.48 452.18 C 229.48 452.18 227.73 454.66 230.65 458.35 C 233.25 461.64 237.36 461.00 238.73 459.94 C 239.15 462.80 242.66 468.82 248.21 465.42 C 253.43 462.22 250.92 457.35 249.25 455.44 C 252.51 454.52 254.94 446.71 247.46 444.02 C 248.57 440.80 248.77 439.34 247.14 436.44 C 245.58 433.65 243.01 433.20 238.92 434.90 L 232.99 437.40 L 229.22 430.36 L 227.20 431.53 L 231.55 438.25 L 225.78 441.14 C 225.78 441.14 220.85 443.07 222.98 448.36 C 224.95 453.26 229.48 452.18 229.48 452.18 Z" fill="url(#SVGID_15_)" fill-rule="nonzero" group-id="4,44,49" node-id="362" stroke="none" target-height="38.45999" target-width="34.089996" target-x="220.85" target-y="430.36002"></path><path d="M 219.44 422.15 L 237.27 422.15 C 237.27 422.15 243.03 422.31 244.18 415.73 C 245.44 408.50 240.18 407.51 240.18 407.51 C 240.18 407.51 243.35 406.05 242.66 400.59 C 241.97 395.13 237.16 394.44 235.16 394.69 C 235.49 391.45 236.17 384.11 228.55 384.04 C 221.19 383.97 221.24 391.37 221.79 394.29 C 219.17 394.32 211.25 398.25 216.82 406.88 C 213.79 409.47 212.50 410.98 212.64 414.72 C 212.78 418.46 215.07 422.15 219.44 422.15 Z" fill="url(#SVGID_16_)" fill-rule="nonzero" group-id="4,44,49" node-id="364" stroke="none" target-height="38.339966" target-width="34.190018" target-x="211.24998" target-y="383.97003"></path><path d="M 236.84 412.14 L 229.23 417.15 L 229.02 412.31 L 233.83 406.64 L 228.95 410.59 L 228.32 395.80 L 227.85 410.68 L 222.72 406.60 L 227.80 412.20 L 227.65 417.18 L 219.82 411.43 L 227.59 418.98 L 227.20 431.52 L 229.85 431.52 L 229.31 419.05 Z" fill="#c6d5e6" fill-rule="nonzero" group-id="4,44,49" node-id="366" stroke="none" target-height="35.72" target-width="17.019989" target-x="219.82" target-y="395.8"></path></g></g><g node-id="466"><path d="M 527.72 490.75 L 324.39 496.79 L 332.19 515.28 L 329.25 520.34 L 346.21 542.56 L 309.39 515.06 L 294.06 517.00 L 427.74 704.47 L 707.47 638.18 Z" fill="url(#SVGID_17_)" fill-rule="nonzero" group-id="4,45" node-id="371" stroke="none" target-height="213.71997" target-width="413.40997" target-x="294.06" target-y="490.75"></path><path d="M 301.92 294.56 L 288.15 239.12 L 485.60 207.35 C 491.22 206.81 496.08 211.23 496.08 216.87 L 496.08 277.31 L 301.92 294.56 Z" fill="url(#SVGID_18_)" fill-rule="nonzero" group-id="4,45" node-id="373" stroke="none" target-height="87.750015" target-width="207.93" target-x="288.15" target-y="206.80998"></path><path d="M 529.20 299.07 L 529.20 248.16 C 529.20 243.15 525.14 239.08 520.12 239.08 L 287.99 239.08 C 282.98 239.08 278.91 243.14 278.91 248.16 L 278.91 299.08 C 283.78 299.13 287.72 303.09 287.72 307.98 C 287.72 312.87 283.78 316.83 278.91 316.88 L 278.91 330.44 L 330.42 499.67 L 330.63 499.67 L 520.12 499.67 C 525.13 499.67 529.20 495.61 529.20 490.59 L 529.20 316.89 C 524.28 316.89 520.30 312.91 520.30 307.99 C 520.30 303.05 524.28 299.07 529.20 299.07 Z" fill="url(#SVGID_19_)" fill-rule="nonzero" group-id="4,45" node-id="375" stroke="none" target-height="260.59003" target-width="250.29001" target-x="278.91" target-y="239.08"></path><path d="M 278.91 330.42 L 330.42 499.65 L 374.77 456.32 C 378.51 452.66 378.64 446.69 375.06 442.87 L 278.91 330.42 Z" fill="url(#SVGID_20_)" fill-rule="nonzero" group-id="4,45" node-id="377" stroke="none" target-height="169.22998" target-width="99.73001" target-x="278.91" target-y="330.42"></path><g node-id="471"><g node-id="472"><path d="M 298.80 309.13 L 302.80 309.13" fill="none" group-id="4,45,50,51" node-id="383" stroke="#f7f8f8" stroke-linecap="round" stroke-width="5" target-height="0" target-width="4" target-x="298.8" target-y="309.13"></path><path d="M 314.32 309.13 L 500.55 309.18" fill="none" group-id="4,45,50,51" node-id="385" stroke="#f7f8f8" stroke-dasharray="7.6796 11.5194" stroke-linecap="round" stroke-width="5" target-height="0.049987793" target-width="186.22998" target-x="314.32" target-y="309.13"></path><path d="M 506.31 309.18 L 510.31 309.18" fill="none" group-id="4,45,50,51" node-id="387" stroke="#f7f8f8" stroke-linecap="round" stroke-width="5" target-height="0" target-width="4" target-x="506.31" target-y="309.18"></path></g></g><path d="M 377.75 371.42 C 377.75 356.73 390.11 344.93 405.00 345.85 C 417.76 346.64 428.14 357.03 428.93 369.78 C 429.62 380.93 423.18 390.66 413.74 394.85 C 407.49 397.62 403.36 403.72 403.36 410.56 L 403.36 422.66" fill="none" group-id="4,45" node-id="391" stroke="#f7f8f8" stroke-linecap="round" stroke-width="10" target-height="77.73004" target-width="51.869965" target-x="377.75" target-y="344.92996"></path><path d="M 409.65 441.93 C 409.65 443.51 409.02 445.02 407.91 446.13 C 406.80 447.24 405.29 447.87 403.71 447.87 C 402.13 447.87 400.62 447.24 399.51 446.13 C 398.40 445.02 397.77 443.51 397.77 441.93 C 397.77 440.35 398.40 438.84 399.51 437.73 C 400.62 436.62 402.13 435.99 403.71 435.99 C 405.29 435.99 406.80 436.62 407.91 437.73 C 409.02 438.84 409.65 440.35 409.65 441.93 Z" fill="#f7f8f8" fill-rule="nonzero" group-id="4,45" node-id="393" stroke="none" target-height="11.880005" target-width="11.880035" target-x="397.77" target-y="435.99"></path></g><g node-id="467"><path d="M 303.59 510.10 C 303.59 510.10 304.30 510.86 302.89 514.07 C 305.71 514.67 309.13 513.14 309.13 513.14 L 308.33 508.17 L 303.59 510.10 Z" fill="#ffbe92" fill-rule="nonzero" group-id="4,46" node-id="398" stroke="none" target-height="6.5" target-width="6.23999" target-x="302.89" target-y="508.16998"></path><path d="M 309.96 516.86 L 294.12 516.06 C 294.12 516.06 293.55 511.27 299.78 511.78 C 301.04 511.88 302.15 510.52 303.19 510.61 C 305.46 512.88 309.60 512.73 309.60 512.73 L 309.96 516.86 Z" fill="#f8b62d" fill-rule="nonzero" group-id="4,46" node-id="400" stroke="none" target-height="6.3399963" target-width="16.410004" target-x="293.55" target-y="510.52"></path><path d="M 310.23 517.91 L 303.22 518.18 L 303.03 516.89 L 294.05 517.02 L 293.92 515.93 L 310.05 515.55 Z" fill="#e6e8e8" fill-rule="nonzero" group-id="4,46" node-id="402" stroke="none" target-height="2.630005" target-width="16.309998" target-x="293.92" target-y="515.55"></path><path d="M 329.09 515.99 C 329.09 515.99 329.58 517.36 329.40 518.06 C 329.22 518.76 328.92 520.12 330.89 520.03 C 332.86 519.94 334.99 519.54 335.38 519.46 C 335.77 519.39 335.47 518.03 335.80 517.22 C 336.13 516.41 337.70 513.62 337.73 513.29 C 337.78 512.73 337.68 511.00 336.02 510.63 C 334.36 510.26 332.89 511.93 332.22 512.63 C 331.55 513.33 329.09 515.99 329.09 515.99 Z" fill="#f8b62d" fill-rule="nonzero" group-id="4,46" node-id="404" stroke="none" target-height="9.859985" target-width="8.859985" target-x="328.92" target-y="510.26"></path><path d="M 320.32 452.80 C 320.53 452.81 325.21 456.80 325.45 468.25 C 326.27 475.65 326.05 479.99 327.57 485.40 C 329.04 490.62 333.51 508.05 334.35 515.80 C 330.53 517.81 329.33 516.52 329.33 516.52 C 329.33 516.52 320.69 493.00 318.60 488.41 C 316.51 483.82 311.62 475.05 303.81 468.96 C 302.13 460.02 312.03 452.45 320.32 452.80 Z" fill="url(#SVGID_21_)" fill-rule="nonzero" group-id="4,46" node-id="406" stroke="none" target-height="65.359985" target-width="32.22" target-x="302.13" target-y="452.45"></path><path d="M 315.37 458.17 C 315.37 458.17 321.69 464.31 314.53 474.10 C 307.37 483.88 305.27 487.07 306.12 490.03 C 306.97 492.98 308.70 507.52 309.19 511.28 C 307.53 511.64 306.41 511.42 303.67 511.34 C 302.42 508.43 298.76 496.46 297.95 492.12 C 297.14 487.78 296.34 484.78 297.23 480.80 C 298.12 476.82 301.49 463.32 301.49 463.32 C 301.49 463.32 305.99 454.70 315.37 458.17 Z" fill="url(#SVGID_22_)" fill-rule="nonzero" group-id="4,46" node-id="408" stroke="none" target-height="56.939972" target-width="25.350006" target-x="296.34" target-y="454.70004"></path><path d="M 293.42 406.66 C 293.42 406.66 296.74 408.76 297.42 410.32 C 298.10 411.88 298.86 415.56 298.51 417.61 C 298.08 419.20 296.72 418.83 297.62 423.05 C 295.61 426.22 292.08 428.40 292.08 428.40 L 289.79 416.83 C 289.79 416.83 287.65 408.72 288.37 408.10 C 289.09 407.48 293.42 406.66 293.42 406.66 Z" fill="#ffbe92" fill-rule="nonzero" group-id="4,46" node-id="410" stroke="none" target-height="21.73999" target-width="11.209991" target-x="287.65" target-y="406.66"></path><path d="M 289.56 406.56 C 289.56 406.56 289.89 404.41 291.08 405.04 C 292.27 405.67 292.98 405.95 293.83 405.38 C 294.68 404.81 296.60 404.28 296.58 406.15 C 296.56 408.02 297.41 408.44 297.69 408.64 C 297.97 408.84 298.91 409.48 298.22 410.78 C 297.53 412.08 296.70 412.21 297.33 413.23 C 297.95 414.25 298.03 416.00 297.31 416.41 C 296.60 416.82 297.25 417.52 297.55 417.61 C 297.86 417.70 298.04 418.80 296.75 418.85 C 295.46 418.90 294.15 419.28 293.40 420.00 C 292.66 420.73 289.22 421.77 289.47 420.35 C 289.76 418.67 288.57 418.73 287.65 418.36 C 286.73 417.99 285.46 417.40 285.38 416.18 C 285.34 415.48 285.96 413.44 284.79 412.82 C 283.58 412.18 283.96 409.00 284.93 408.73 C 285.90 408.46 286.20 405.45 289.56 406.56 Z" fill="#171c61" fill-rule="nonzero" group-id="4,46" node-id="412" stroke="none" target-height="17.48999" target-width="15.330017" target-x="283.58" target-y="404.28"></path><path d="M 314.25 417.70 C 314.25 417.70 318.05 417.41 318.72 417.21 C 319.23 417.05 316.24 412.89 315.66 412.47 C 315.08 412.05 315.04 412.00 313.83 411.93 C 311.35 411.80 309.42 409.90 308.93 408.38 C 308.74 407.87 309.57 407.87 310.65 408.66 C 311.07 408.97 311.63 408.77 310.61 408.10 C 309.08 407.10 306.02 403.06 311.69 403.43 C 314.23 403.76 315.34 405.18 316.22 406.32 C 317.10 407.46 316.96 407.94 318.67 409.77 C 320.56 411.78 324.57 415.03 325.76 417.20 C 326.95 419.37 325.33 421.61 318.08 423.48 C 310.12 424.22 314.25 417.70 314.25 417.70 Z" fill="#ffbe92" fill-rule="nonzero" group-id="4,46" node-id="414" stroke="none" target-height="21.160034" target-width="20.930023" target-x="306.02" target-y="403.06"></path><path d="M 288.91 443.04 C 288.91 443.04 291.86 450.11 293.12 451.99 C 294.37 453.87 295.00 455.12 298.22 455.70 C 301.44 456.28 297.86 439.42 297.86 439.42 L 289.76 440.49 L 288.91 443.04 Z" fill="#ffbe92" fill-rule="nonzero" group-id="4,46" node-id="416" stroke="none" target-height="16.859955" target-width="12.529999" target-x="288.91" target-y="439.42"></path><path d="M 286.32 434.04 C 286.32 434.04 287.79 430.38 290.55 426.90 C 290.83 424.71 294.79 418.05 299.42 419.63 C 302.40 418.32 304.31 417.01 309.95 416.98 C 314.87 416.80 315.53 417.04 315.53 417.04 L 317.65 424.17 L 312.01 425.99 C 312.01 425.99 316.39 441.71 322.72 452.03 C 323.44 453.16 324.90 455.47 321.65 458.56 C 318.41 461.65 311.74 463.70 301.54 468.18 C 298.77 469.43 297.02 466.26 297.78 462.23 C 298.54 458.20 295.27 446.36 292.83 442.84 C 289.91 444.33 287.96 445.20 287.96 445.20 C 287.96 445.20 285.08 437.62 286.32 434.04 Z" fill="url(#SVGID_23_)" fill-rule="nonzero" group-id="4,46" node-id="418" stroke="none" target-height="52.630005" target-width="39.820007" target-x="285.08" target-y="416.8"></path><path d="M 337.56 511.98 C 337.56 511.98 337.40 514.07 336.70 514.88 C 336.00 515.69 335.34 518.04 334.93 518.59 C 334.51 519.14 333.30 519.75 332.01 519.74 C 330.72 519.73 329.83 519.35 329.25 518.79 C 329.12 519.54 329.22 520.15 329.26 520.34 C 329.27 520.39 329.29 520.42 329.32 520.46 C 329.59 520.72 331.00 521.85 334.24 520.79 C 334.60 520.69 335.44 520.36 335.73 519.66 C 336.08 518.83 336.22 518.09 336.22 518.09 L 336.21 517.09 C 336.21 517.09 336.41 516.12 336.79 515.68 C 337.17 515.24 338.01 513.59 337.83 512.62 C 337.63 512.14 337.56 511.98 337.56 511.98 Z" fill="#e6e8e8" fill-rule="nonzero" group-id="4,46" node-id="420" stroke="none" target-height="9.869965" target-width="8.890015" target-x="329.12" target-y="511.98"></path></g></g></svg>