<?xml version="1.0" standalone="no"?><!DOCTYPE svg PUBLIC "-//W3C//DTD SVG 1.1//EN" "http://www.w3.org/Graphics/SVG/1.1/DTD/svg11.dtd"><svg height="800" node-id="1" sillyvg="true" template-height="800" template-width="800" version="1.1" viewBox="0 0 800 800" width="800" xmlns="http://www.w3.org/2000/svg" xmlns:xlink="http://www.w3.org/1999/xlink"><defs node-id="164"><linearGradient gradientUnits="objectBoundingBox" id="SVGID_1_" node-id="12" spreadMethod="pad" x1="254.6796" x2="254.6796" y1="427.5056" y2="330.7174"><stop offset="0.0000005358273" stop-color="#ffffff"></stop><stop offset="1" stop-color="#dbe3ee"></stop></linearGradient><linearGradient gradientUnits="objectBoundingBox" id="SVGID_2_" node-id="16" spreadMethod="pad" x1="190.0626" x2="190.0626" y1="485.4976" y2="269.0085"><stop offset="0.0000005358273" stop-color="#ffffff"></stop><stop offset="1" stop-color="#dbe3ee"></stop></linearGradient><linearGradient gradientUnits="objectBoundingBox" id="SVGID_3_" node-id="20" spreadMethod="pad" x1="565.8442" x2="565.8442" y1="442.8187" y2="286.3379"><stop offset="0.0000005358273" stop-color="#ffffff"></stop><stop offset="1" stop-color="#dbe3ee"></stop></linearGradient><linearGradient gradientUnits="objectBoundingBox" id="SVGID_4_" node-id="24" spreadMethod="pad" x1="628.369" x2="628.369" y1="465.4887" y2="295.748"><stop offset="0.0000005358273" stop-color="#ffffff"></stop><stop offset="1" stop-color="#dbe3ee"></stop></linearGradient><linearGradient gradientUnits="objectBoundingBox" id="SVGID_5_" node-id="28" spreadMethod="pad" x1="119.6565" x2="119.6565" y1="507.5672" y2="357.0538"><stop offset="0.0000005358273" stop-color="#ffffff"></stop><stop offset="1" stop-color="#edf1f9"></stop></linearGradient><linearGradient gradientUnits="objectBoundingBox" id="SVGID_6_" node-id="32" spreadMethod="pad" x1="682.3297" x2="682.3297" y1="490.9618" y2="367.8296"><stop offset="0.0000005358273" stop-color="#ffffff"></stop><stop offset="1" stop-color="#edf1f9"></stop></linearGradient><linearGradient gradientUnits="objectBoundingBox" id="SVGID_7_" node-id="36" spreadMethod="pad" x1="125.6201" x2="125.6201" y1="235.2599" y2="170.7186"><stop offset="0.2332" stop-color="#ffffff"></stop><stop offset="1" stop-color="#d3dfee"></stop></linearGradient><linearGradient gradientUnits="objectBoundingBox" id="SVGID_8_" node-id="40" spreadMethod="pad" x1="642.6886" x2="642.6886" y1="198.4395" y2="133.8982"><stop offset="0.2332" stop-color="#ffffff"></stop><stop offset="1" stop-color="#d3dfee"></stop></linearGradient><linearGradient gradientUnits="objectBoundingBox" id="SVGID_9_" node-id="44" spreadMethod="pad" x1="512.9177" x2="512.9177" y1="241.6129" y2="194.8957"><stop offset="0.2332" stop-color="#ffffff"></stop><stop offset="1" stop-color="#d3dfee"></stop></linearGradient><linearGradient gradientUnits="objectBoundingBox" id="SVGID_10_" node-id="48" spreadMethod="pad" x1="399.135" x2="399.135" y1="757.1378" y2="405.0089"><stop offset="0.4065" stop-color="#ffffff"></stop><stop offset="1" stop-color="#dae4ef"></stop></linearGradient><linearGradient gradientUnits="objectBoundingBox" id="SVGID_11_" node-id="54" spreadMethod="pad" x1="190.0645" x2="138.6283" y1="580.5936" y2="519.2943"><stop offset="0.4034" stop-color="#eff4f8"></stop><stop offset="1" stop-color="#d4dfec"></stop></linearGradient><linearGradient gradientUnits="objectBoundingBox" id="SVGID_12_" node-id="58" spreadMethod="pad" x1="111.0167" x2="175.2035" y1="460.3032" y2="460.3032"><stop offset="0.1022" stop-color="#f0f5f8"></stop><stop offset="1" stop-color="#b4c7dc"></stop></linearGradient><linearGradient gradientUnits="objectBoundingBox" id="SVGID_13_" node-id="64" spreadMethod="pad" x1="708.9266" x2="661.5612" y1="560.621" y2="504.1731"><stop offset="0.4034" stop-color="#eff4f8"></stop><stop offset="1" stop-color="#d4dfec"></stop></linearGradient><linearGradient gradientUnits="objectBoundingBox" id="SVGID_14_" node-id="68" spreadMethod="pad" x1="636.1349" x2="695.2418" y1="449.8507" y2="449.8507"><stop offset="0.1022" stop-color="#f0f5f8"></stop><stop offset="1" stop-color="#b4c7dc"></stop></linearGradient><linearGradient gradientUnits="objectBoundingBox" id="SVGID_15_" node-id="74" spreadMethod="pad" x1="250.264" x2="224.8227" y1="461.4502" y2="431.1305"><stop offset="0.0000001438503" stop-color="#eaeff6"></stop><stop offset="1" stop-color="#cddae9"></stop></linearGradient><linearGradient gradientUnits="objectBoundingBox" id="SVGID_16_" node-id="78" spreadMethod="pad" x1="211.1655" x2="242.9135" y1="401.9525" y2="401.9525"><stop offset="0.1022" stop-color="#f0f5f8"></stop><stop offset="1" stop-color="#b4c7dc"></stop></linearGradient><linearGradient gradientUnits="objectBoundingBox" id="SVGID_17_" node-id="84" spreadMethod="pad" x1="525.3731" x2="471.3414" y1="708.309" y2="401.8798"><stop offset="0.1887" stop-color="#ffffff"></stop><stop offset="1" stop-color="#bbcbe0"></stop></linearGradient><linearGradient gradientUnits="objectBoundingBox" id="SVGID_18_" node-id="88" spreadMethod="pad" x1="255.0594" x2="489.129" y1="361.9296" y2="361.9296"><stop offset="0" stop-color="#eff3f9"></stop><stop offset="1" stop-color="#b6c9de"></stop></linearGradient><linearGradient gradientUnits="objectBoundingBox" id="SVGID_19_" node-id="94" spreadMethod="pad" x1="370.9672" x2="598.9915" y1="442.0394" y2="442.0394"><stop offset="0" stop-color="#eff3f9"></stop><stop offset="1" stop-color="#b6c9de"></stop></linearGradient><linearGradient gradientUnits="objectBoundingBox" id="SVGID_20_" node-id="107" spreadMethod="pad" x1="309.847" x2="355.4126" y1="486.69" y2="486.69"><stop offset="0" stop-color="#609af0"></stop><stop offset="0.6903" stop-color="#3f88e0"></stop></linearGradient><linearGradient gradientUnits="objectBoundingBox" id="SVGID_21_" node-id="111" spreadMethod="pad" x1="7909.2583" x2="7891.895" y1="-1951.8392" y2="-1901.9119"><stop offset="0" stop-color="#78c8ff"></stop><stop offset="0.5112" stop-color="#4f92ea"></stop><stop offset="0.6903" stop-color="#4d8fe9"></stop></linearGradient><linearGradient gradientUnits="objectBoundingBox" id="SVGID_22_" node-id="118" spreadMethod="pad" x1="12030.561" x2="12030.561" y1="286.5852" y2="265.3934"><stop offset="0" stop-color="#f2a319"></stop><stop offset="0.4796" stop-color="#ffc552"></stop></linearGradient><linearGradient gradientUnits="objectBoundingBox" id="SVGID_23_" node-id="124" spreadMethod="pad" x1="12042.672" x2="12042.672" y1="281.8855" y2="270.1249"><stop offset="0" stop-color="#f2a319"></stop><stop offset="0.4796" stop-color="#ffc552"></stop></linearGradient></defs><g node-id="416"><g node-id="452"><path d="M 269.14 334.12 L 269.14 330.71 L 239.64 330.71 L 239.64 334.67 L 233.16 334.67 L 233.16 427.50 L 276.21 427.50 L 276.21 334.12 L 269.14 334.12 Z M 272.48 416.86 L 236.44 416.86 L 236.44 414.11 L 272.48 414.11 L 272.48 416.86 Z M 272.48 404.18 L 236.44 404.18 L 236.44 401.43 L 272.48 401.43 L 272.48 404.18 Z M 272.48 391.51 L 236.44 391.51 L 236.44 388.76 L 272.48 388.76 L 272.48 391.51 Z M 272.48 379.17 L 236.44 379.17 L 236.44 376.42 L 272.48 376.42 L 272.48 379.17 Z M 272.48 366.85 L 236.44 366.85 L 236.44 364.10 L 272.48 364.10 L 272.48 366.85 Z M 272.48 354.17 L 236.44 354.17 L 236.44 351.42 L 272.48 351.42 L 272.48 354.17 Z M 272.48 341.83 L 236.44 341.83 L 236.44 339.08 L 272.48 339.08 L 272.48 341.83 Z" fill="url(#SVGID_1_)" fill-rule="nonzero" group-id="7,43" node-id="315" stroke="none" target-height="96.79001" target-width="43.049988" target-x="233.16" target-y="330.71"></path><path d="M 211.15 385.94 L 211.15 277.75 L 178.40 277.75 L 178.40 269.01 L 164.54 269.01 L 164.54 322.34 L 160.81 322.34 L 160.81 485.50 L 219.32 485.50 L 219.32 385.94 L 211.15 385.94 Z M 186.66 417.74 L 178.40 417.74 L 178.40 409.73 L 186.66 409.73 L 186.66 417.74 Z M 186.66 405.21 L 178.40 405.21 L 178.40 397.20 L 186.66 397.20 L 186.66 405.21 Z M 186.66 392.74 L 178.40 392.74 L 178.40 384.73 L 186.66 384.73 L 186.66 392.74 Z M 186.66 380.30 L 178.40 380.30 L 178.40 372.29 L 186.66 372.29 L 186.66 380.30 Z M 186.66 367.77 L 178.40 367.77 L 178.40 359.76 L 186.66 359.76 L 186.66 367.77 Z M 186.66 342.77 L 178.40 342.77 L 178.40 334.76 L 186.66 334.76 L 186.66 342.77 Z M 186.66 330.24 L 178.40 330.24 L 178.40 322.23 L 186.66 322.23 L 186.66 330.24 Z M 186.66 317.77 L 178.40 317.77 L 178.40 309.76 L 186.66 309.76 L 186.66 317.77 Z M 186.66 305.33 L 178.40 305.33 L 178.40 297.32 L 186.66 297.32 L 186.66 305.33 Z M 186.66 292.80 L 178.40 292.80 L 178.40 284.79 L 186.66 284.79 L 186.66 292.80 Z M 199.01 417.74 L 190.75 417.74 L 190.75 409.73 L 199.01 409.73 L 199.01 417.74 Z M 199.01 405.21 L 190.75 405.21 L 190.75 397.20 L 199.01 397.20 L 199.01 405.21 Z M 199.01 392.74 L 190.75 392.74 L 190.75 384.73 L 199.01 384.73 L 199.01 392.74 Z M 199.01 380.30 L 190.75 380.30 L 190.75 372.29 L 199.01 372.29 L 199.01 380.30 Z M 199.01 367.77 L 190.75 367.77 L 190.75 359.76 L 199.01 359.76 L 199.01 367.77 Z M 199.01 342.77 L 190.75 342.77 L 190.75 334.76 L 199.01 334.76 L 199.01 342.77 Z M 199.01 330.24 L 190.75 330.24 L 190.75 322.23 L 199.01 322.23 L 199.01 330.24 Z M 199.01 317.77 L 190.75 317.77 L 190.75 309.76 L 199.01 309.76 L 199.01 317.77 Z M 199.01 305.33 L 190.75 305.33 L 190.75 297.32 L 199.01 297.32 L 199.01 305.33 Z M 199.01 292.80 L 190.75 292.80 L 190.75 284.79 L 199.01 284.79 L 199.01 292.80 Z" fill="url(#SVGID_2_)" fill-rule="nonzero" group-id="7,43" node-id="317" stroke="none" target-height="216.48999" target-width="58.51001" target-x="160.81" target-y="269.01"></path><path d="M 533.46 442.82 C 533.82 438.17 533.46 286.34 533.46 286.34 L 551.99 286.34 L 551.99 320.05 L 581.49 320.05 L 581.49 390.50 L 598.22 390.50 L 598.22 442.82 L 533.46 442.82 Z" fill="url(#SVGID_3_)" fill-rule="nonzero" group-id="7,43" node-id="319" stroke="none" target-height="156.48001" target-width="64.75995" target-x="533.46" target-y="286.34"></path><path d="M 654.68 374.67 L 654.68 369.82 L 649.68 369.82 L 649.68 327.49 L 637.48 327.49 L 637.48 322.79 L 629.25 322.79 L 629.25 315.88 L 624.96 315.88 L 624.96 295.74 L 621.87 295.74 L 621.87 316.02 L 617.93 316.02 L 617.93 322.93 L 605.73 322.93 L 605.73 334.25 L 598.68 334.25 L 598.68 465.48 L 658.06 465.48 L 658.06 374.66 L 654.68 374.66 Z M 609.16 427.46 L 605.14 427.46 L 605.14 412.22 L 609.16 412.22 L 609.16 427.46 Z M 609.16 408.81 L 605.14 408.81 L 605.14 393.57 L 609.16 393.57 L 609.16 408.81 Z M 609.16 390.15 L 605.14 390.15 L 605.14 374.91 L 609.16 374.91 L 609.16 390.15 Z M 609.16 371.17 L 605.14 371.17 L 605.14 355.93 L 609.16 355.93 L 609.16 371.17 Z M 609.16 352.19 L 605.14 352.19 L 605.14 336.95 L 609.16 336.95 L 609.16 352.19 Z M 617.44 427.46 L 613.42 427.46 L 613.42 412.22 L 617.44 412.22 L 617.44 427.46 Z M 617.44 408.81 L 613.42 408.81 L 613.42 393.57 L 617.44 393.57 L 617.44 408.81 Z M 617.44 390.15 L 613.42 390.15 L 613.42 374.91 L 617.44 374.91 L 617.44 390.15 Z M 617.44 371.17 L 613.42 371.17 L 613.42 355.93 L 617.44 355.93 L 617.44 371.17 Z M 617.44 352.19 L 613.42 352.19 L 613.42 336.95 L 617.44 336.95 L 617.44 352.19 Z M 625.72 427.46 L 621.70 427.46 L 621.70 412.22 L 625.72 412.22 L 625.72 427.46 Z M 625.72 408.81 L 621.70 408.81 L 621.70 393.57 L 625.72 393.57 L 625.72 408.81 Z M 625.72 390.15 L 621.70 390.15 L 621.70 374.91 L 625.72 374.91 L 625.72 390.15 Z M 625.72 371.17 L 621.70 371.17 L 621.70 355.93 L 625.72 355.93 L 625.72 371.17 Z M 625.72 352.19 L 621.70 352.19 L 621.70 336.95 L 625.72 336.95 L 625.72 352.19 Z M 634.00 427.46 L 629.98 427.46 L 629.98 412.22 L 634.00 412.22 L 634.00 427.46 Z M 634.00 408.81 L 629.98 408.81 L 629.98 393.57 L 634.00 393.57 L 634.00 408.81 Z M 634.00 390.15 L 629.98 390.15 L 629.98 374.91 L 634.00 374.91 L 634.00 390.15 Z M 634.00 371.17 L 629.98 371.17 L 629.98 355.93 L 634.00 355.93 L 634.00 371.17 Z M 634.00 352.19 L 629.98 352.19 L 629.98 336.95 L 634.00 336.95 L 634.00 352.19 Z M 642.28 427.46 L 638.26 427.46 L 638.26 412.22 L 642.28 412.22 L 642.28 427.46 Z M 642.28 408.81 L 638.26 408.81 L 638.26 393.57 L 642.28 393.57 L 642.28 408.81 Z M 642.28 390.15 L 638.26 390.15 L 638.26 374.91 L 642.28 374.91 L 642.28 390.15 Z M 642.28 371.17 L 638.26 371.17 L 638.26 355.93 L 642.28 355.93 L 642.28 371.17 Z M 642.28 352.19 L 638.26 352.19 L 638.26 336.95 L 642.28 336.95 L 642.28 352.19 Z" fill="url(#SVGID_4_)" fill-rule="nonzero" group-id="7,43" node-id="321" stroke="none" target-height="169.74002" target-width="59.380005" target-x="598.68" target-y="295.74"></path><path d="M 93.03 507.57 L 93.03 418.02 L 103.29 418.02 L 103.29 372.33 L 138.55 357.05 L 138.55 417.30 L 146.28 417.30 L 146.28 507.57 Z" fill="url(#SVGID_5_)" fill-rule="nonzero" group-id="7,43" node-id="323" stroke="none" target-height="150.52002" target-width="53.25" target-x="93.03" target-y="357.05"></path><path d="M 697.80 490.96 L 666.86 490.96 L 666.86 367.83 L 697.80 382.80 Z" fill="url(#SVGID_6_)" fill-rule="nonzero" group-id="7,43" node-id="325" stroke="none" target-height="123.130005" target-width="30.940002" target-x="666.86" target-y="367.83"></path><path d="M 87.85 194.15 C 87.85 194.15 97.19 168.67 120.15 178.67 C 125.45 173.29 132.01 169.38 140.88 171.14 C 149.75 172.90 155.47 179.55 157.41 183.97 C 160.19 183.84 182.45 184.58 182.45 207.67 C 182.45 230.76 155.51 230.32 153.56 228.49 C 151.16 230.63 139.62 242.24 125.62 228.99 C 122.59 231.58 112.69 242.55 97.04 227.41 C 89.79 230.44 72.56 232.77 69.22 214.98 C 65.88 197.20 83.01 192.18 87.85 194.15 Z" fill="url(#SVGID_7_)" fill-rule="nonzero" group-id="7,43" node-id="327" stroke="none" target-height="73.880005" target-width="116.57" target-x="65.88" target-y="168.67"></path><path d="M 604.92 157.33 C 604.92 157.33 614.26 131.85 637.22 141.85 C 642.52 136.47 649.08 132.56 657.95 134.32 C 666.82 136.09 672.54 142.73 674.48 147.15 C 677.26 147.02 699.52 147.76 699.52 170.85 C 699.52 193.94 672.58 193.50 670.63 191.67 C 668.23 193.81 656.69 205.42 642.69 192.17 C 639.66 194.76 629.76 205.73 614.11 190.59 C 606.86 193.62 589.63 195.95 586.29 178.16 C 582.94 160.38 600.08 155.35 604.92 157.33 Z" fill="url(#SVGID_8_)" fill-rule="nonzero" group-id="7,43" node-id="329" stroke="none" target-height="73.87999" target-width="116.58002" target-x="582.94" target-y="131.85"></path><path d="M 485.58 211.86 C 485.58 211.86 492.34 193.41 508.96 200.66 C 512.80 196.76 517.54 193.93 523.97 195.21 C 530.39 196.49 534.53 201.30 535.93 204.49 C 537.94 204.40 554.06 204.93 554.06 221.64 C 554.06 238.35 534.56 238.03 533.15 236.71 C 531.41 238.26 523.06 246.66 512.92 237.08 C 510.73 238.95 503.56 246.90 492.24 235.94 C 486.99 238.13 474.52 239.82 472.10 226.94 C 469.67 214.06 482.08 210.43 485.58 211.86 Z" fill="url(#SVGID_9_)" fill-rule="nonzero" group-id="7,43" node-id="331" stroke="none" target-height="53.48999" target-width="84.389984" target-x="469.67" target-y="193.41"></path><path d="M 770.11 581.07 C 770.11 627.76 731.02 672.55 661.45 705.56 C 591.88 738.58 497.52 757.13 399.13 757.13 C 300.74 757.13 206.38 738.58 136.81 705.56 C 67.24 672.55 28.15 627.76 28.15 581.07 C 28.15 534.38 67.24 489.59 136.81 456.58 C 206.38 423.56 300.74 405.01 399.13 405.01 C 497.52 405.01 591.88 423.56 661.45 456.58 C 731.02 489.59 770.11 534.38 770.11 581.07 Z" fill="url(#SVGID_10_)" fill-rule="nonzero" group-id="7,43" node-id="333" stroke="none" target-height="352.12" target-width="741.95996" target-x="28.149994" target-y="405.01"></path></g><g node-id="453"><g node-id="456"><path d="M 145.08 559.54 C 145.08 559.54 141.55 564.55 147.45 572.01 C 152.71 578.65 161.02 577.36 163.78 575.23 C 164.63 581.01 171.72 593.19 182.94 586.30 C 193.49 579.83 188.41 569.99 185.04 566.12 C 191.63 564.26 196.54 548.47 181.42 543.02 C 183.66 536.50 184.06 533.55 180.78 527.69 C 177.62 522.05 172.43 521.15 164.15 524.58 L 152.17 529.63 L 144.54 515.39 L 140.46 517.75 L 149.26 531.35 L 137.60 537.20 C 137.60 537.20 127.63 541.10 131.93 551.80 C 135.92 561.72 145.08 559.54 145.08 559.54 Z" fill="url(#SVGID_11_)" fill-rule="nonzero" group-id="7,44,47" node-id="339" stroke="none" target-height="77.79999" target-width="68.909996" target-x="127.63" target-y="515.39"></path><path d="M 124.79 498.82 L 160.85 498.82 C 160.85 498.82 172.50 499.15 174.82 485.84 C 177.37 471.23 166.74 469.22 166.74 469.22 C 166.74 469.22 173.14 466.28 171.75 455.23 C 170.36 444.18 160.63 442.79 156.58 443.30 C 157.24 436.75 158.62 421.92 143.22 421.77 C 128.35 421.62 128.44 436.59 129.55 442.49 C 124.25 442.55 108.24 450.50 119.50 467.94 C 113.37 473.19 110.78 476.22 111.05 483.79 C 111.31 491.37 115.95 498.82 124.79 498.82 Z" fill="url(#SVGID_12_)" fill-rule="nonzero" group-id="7,44,47" node-id="341" stroke="none" target-height="77.53" target-width="69.13" target-x="108.24" target-y="421.62"></path><path d="M 159.96 478.59 L 144.58 488.71 L 144.16 478.92 L 153.88 467.46 L 144.01 475.44 L 142.73 445.54 L 141.79 475.64 L 131.41 467.38 L 141.69 478.71 L 141.37 488.78 L 125.56 477.15 L 141.26 492.41 L 140.47 517.76 L 145.82 517.76 L 144.74 492.56 Z" fill="#c6d5e6" fill-rule="nonzero" group-id="7,44,47" node-id="343" stroke="none" target-height="72.21997" target-width="34.4" target-x="125.560005" target-y="445.54004"></path></g><g node-id="457"><path d="M 667.51 541.23 C 667.51 541.23 664.26 545.85 669.69 552.71 C 674.53 558.83 682.19 557.64 684.73 555.67 C 685.51 560.99 692.05 572.20 702.38 565.87 C 712.09 559.91 707.42 550.85 704.31 547.29 C 710.38 545.58 714.90 531.03 700.98 526.02 C 703.05 520.02 703.42 517.30 700.39 511.91 C 697.48 506.72 692.70 505.88 685.08 509.05 L 674.04 513.70 L 667.01 500.59 L 663.26 502.76 L 671.36 515.28 L 660.63 520.67 C 660.63 520.67 651.45 524.26 655.41 534.12 C 659.07 543.24 667.51 541.23 667.51 541.23 Z" fill="url(#SVGID_13_)" fill-rule="nonzero" group-id="7,44,48" node-id="348" stroke="none" target-height="71.61005" target-width="63.450012" target-x="651.45" target-y="500.58997"></path><path d="M 648.81 485.32 L 682.01 485.32 C 682.01 485.32 692.74 485.63 694.87 473.37 C 697.21 459.92 687.43 458.07 687.43 458.07 C 687.43 458.07 693.33 455.36 692.04 445.19 C 690.75 435.02 681.80 433.73 678.07 434.21 C 678.68 428.18 679.95 414.52 665.77 414.38 C 652.08 414.24 652.16 428.02 653.18 433.46 C 648.30 433.51 633.55 440.83 643.93 456.90 C 638.29 461.73 635.90 464.53 636.15 471.49 C 636.40 478.45 640.68 485.32 648.81 485.32 Z" fill="url(#SVGID_14_)" fill-rule="nonzero" group-id="7,44,48" node-id="350" stroke="none" target-height="71.390015" target-width="63.660095" target-x="633.55" target-y="414.24"></path><path d="M 681.20 466.69 L 667.04 476.01 L 666.65 467.00 L 675.61 456.44 L 666.52 463.79 L 665.34 436.26 L 664.47 463.97 L 654.91 456.37 L 664.38 466.80 L 664.09 476.07 L 649.53 465.37 L 663.99 479.42 L 663.25 502.76 L 668.19 502.76 L 667.19 479.56 Z" fill="#c6d5e6" fill-rule="nonzero" group-id="7,44,48" node-id="352" stroke="none" target-height="66.5" target-width="31.669983" target-x="649.53" target-y="436.26"></path></g><g node-id="458"><path d="M 228.02 451.04 C 228.02 451.04 226.27 453.52 229.19 457.21 C 231.79 460.50 235.90 459.86 237.27 458.80 C 237.69 461.66 241.20 467.68 246.75 464.28 C 251.97 461.08 249.46 456.21 247.79 454.30 C 251.05 453.38 253.48 445.57 246.00 442.88 C 247.11 439.66 247.31 438.20 245.68 435.30 C 244.12 432.51 241.55 432.06 237.46 433.76 L 231.53 436.26 L 227.76 429.22 L 225.74 430.39 L 230.09 437.11 L 224.32 440.00 C 224.32 440.00 219.39 441.93 221.52 447.22 C 223.48 452.11 228.02 451.04 228.02 451.04 Z" fill="url(#SVGID_15_)" fill-rule="nonzero" group-id="7,44,49" node-id="357" stroke="none" target-height="38.460022" target-width="34.089996" target-x="219.39" target-y="429.22"></path><path d="M 217.98 421.01 L 235.81 421.01 C 235.81 421.01 241.57 421.17 242.72 414.59 C 243.98 407.36 238.72 406.37 238.72 406.37 C 238.72 406.37 241.89 404.91 241.20 399.45 C 240.51 393.99 235.70 393.30 233.70 393.55 C 234.03 390.31 234.71 382.97 227.09 382.90 C 219.73 382.83 219.78 390.23 220.33 393.15 C 217.71 393.18 209.79 397.11 215.36 405.74 C 212.33 408.33 211.04 409.84 211.18 413.58 C 211.31 417.32 213.61 421.01 217.98 421.01 Z" fill="url(#SVGID_16_)" fill-rule="nonzero" group-id="7,44,49" node-id="359" stroke="none" target-height="38.340027" target-width="34.190002" target-x="209.79" target-y="382.83"></path><path d="M 235.37 411.00 L 227.77 416.00 L 227.56 411.16 L 232.37 405.49 L 227.48 409.44 L 226.85 394.65 L 226.38 409.54 L 221.25 405.45 L 226.34 411.06 L 226.18 416.04 L 218.36 410.29 L 226.12 417.83 L 225.73 430.37 L 228.38 430.37 L 227.85 417.91 Z" fill="#c6d5e6" fill-rule="nonzero" group-id="7,44,49" node-id="361" stroke="none" target-height="35.71997" target-width="17.010025" target-x="218.35999" target-y="394.65002"></path></g></g><g node-id="454"><path d="M 280.57 435.52 L 262.51 447.24 L 303.52 497.88 L 281.85 509.95 L 431.20 724.91 L 726.09 616.91 L 585.86 500.58 L 437.71 421.85 Z" fill="url(#SVGID_17_)" fill-rule="nonzero" group-id="7,45" node-id="366" stroke="none" target-height="303.06" target-width="463.58002" target-x="262.51" target-y="421.84998"></path><path d="M 472.20 449.85 L 271.99 449.85 C 262.64 449.85 255.06 441.79 255.06 431.85 L 255.06 292.00 C 255.06 282.06 262.64 274.00 271.99 274.00 L 472.20 274.00 C 481.55 274.00 489.13 282.06 489.13 292.00 L 489.13 431.85 C 489.13 441.79 481.55 449.85 472.20 449.85 Z" fill="url(#SVGID_18_)" fill-rule="nonzero" group-id="7,45" node-id="368" stroke="none" target-height="175.85" target-width="234.07005" target-x="255.05998" target-y="274"></path><path d="M 425.14 327.15 L 291.80 327.15 C 286.48 327.15 282.18 322.84 282.18 317.53 L 282.18 317.53 C 282.18 312.21 286.49 307.91 291.80 307.91 L 425.14 307.91 C 430.46 307.91 434.76 312.22 434.76 317.53 L 434.76 317.53 C 434.77 322.84 430.46 327.15 425.14 327.15 Z" fill="#ffffff" fill-rule="nonzero" group-id="7,45" node-id="370" stroke="none" target-height="19.23999" target-width="152.59" target-x="282.18" target-y="307.91"></path><path d="M 348.85 377.64 L 291.80 377.64 C 286.48 377.64 282.18 373.33 282.18 368.02 L 282.18 368.02 C 282.18 362.70 286.49 358.40 291.80 358.40 L 348.85 358.40 C 354.17 358.40 358.47 362.71 358.47 368.02 L 358.47 368.02 C 358.47 373.33 354.16 377.64 348.85 377.64 Z" fill="#ffffff" fill-rule="nonzero" group-id="7,45" node-id="372" stroke="none" target-height="19.24002" target-width="76.29001" target-x="282.18" target-y="358.4"></path><path d="M 387.46 515.58 L 527.50 515.58 C 527.83 515.58 528.16 515.66 528.46 515.83 L 568.60 537.92 C 570.00 538.69 571.66 537.59 571.68 535.87 L 571.81 517.87 C 571.82 516.60 572.77 515.58 573.93 515.58 L 582.52 515.58 C 591.63 515.58 599.01 507.53 599.01 497.60 L 599.01 363.89 C 599.01 353.96 591.63 345.91 582.52 345.91 L 387.46 345.91 C 378.35 345.91 370.97 353.96 370.97 363.89 L 370.97 497.61 C 370.97 507.53 378.35 515.58 387.46 515.58 Z" fill="url(#SVGID_19_)" fill-rule="nonzero" group-id="7,45" node-id="374" stroke="none" target-height="192.78003" target-width="228.04001" target-x="370.97" target-y="345.90997"></path><path d="M 419.74 404.38 L 553.08 404.38 C 558.40 404.38 562.70 400.07 562.70 394.76 L 562.70 394.76 C 562.70 389.44 558.39 385.14 553.08 385.14 L 419.74 385.14 C 414.42 385.14 410.12 389.45 410.12 394.76 L 410.12 394.76 C 410.12 400.08 414.43 404.38 419.74 404.38 Z" fill="#ffffff" fill-rule="nonzero" group-id="7,45" node-id="376" stroke="none" target-height="19.24002" target-width="152.58002" target-x="410.12" target-y="385.13998"></path><path d="M 473.49 454.88 L 553.08 454.88 C 558.40 454.88 562.70 450.57 562.70 445.26 L 562.70 445.26 C 562.70 439.94 558.39 435.64 553.08 435.64 L 473.49 435.64 C 468.17 435.64 463.87 439.95 463.87 445.26 L 463.87 445.26 C 463.87 450.57 468.18 454.88 473.49 454.88 Z" fill="#ffffff" fill-rule="nonzero" group-id="7,45" node-id="378" stroke="none" target-height="19.23996" target-width="98.83002" target-x="463.87" target-y="435.64005"></path></g><g node-id="455"><path d="M 288.02 500.64 C 288.02 500.64 284.83 501.71 281.38 499.26 C 280.77 502.78 284.24 506.22 284.24 506.22 L 289.81 506.86 L 288.02 500.64 Z" fill="#ffbe92" fill-rule="nonzero" group-id="7,46" node-id="382" stroke="none" target-height="7.5999756" target-width="9.040009" target-x="280.77" target-y="499.26"></path><path d="M 311.83 496.47 L 307.93 502.86 L 314.89 503.53 L 317.89 500.15 Z" fill="#ffbe92" fill-rule="nonzero" group-id="7,46" node-id="384" stroke="none" target-height="7.0599976" target-width="9.960022" target-x="307.93" target-y="496.47"></path><path d="M 317.78 504.22 L 298.47 502.88 C 298.47 502.88 297.71 497.18 305.31 497.94 C 312.91 498.70 317.29 499.32 317.29 499.32 L 317.78 504.22 Z" fill="#f8b62d" fill-rule="nonzero" group-id="7,46" node-id="386" stroke="none" target-height="7.0400696" target-width="20.070007" target-x="297.71" target-y="497.17996"></path><path d="M 318.12 505.48 L 309.58 505.62 L 309.33 504.09 L 298.38 504.02 L 298.21 502.73 L 317.87 502.67 Z" fill="#e6e8e8" fill-rule="nonzero" group-id="7,46" node-id="388" stroke="none" target-height="2.9499817" target-width="19.910004" target-x="298.21" target-y="502.67"></path><path d="M 283.31 509.95 L 273.40 494.64 C 273.40 494.64 277.36 491.22 281.08 497.36 C 281.83 498.60 283.82 498.82 284.43 499.85 C 283.90 503.34 286.81 506.84 286.81 506.84 L 283.31 509.95 Z" fill="#f8b62d" fill-rule="nonzero" group-id="7,46" node-id="390" stroke="none" target-height="18.72998" target-width="13.410004" target-x="273.4" target-y="491.22"></path><path d="M 282.53 510.84 L 277.59 504.44 L 278.62 503.49 L 272.48 495.15 L 273.37 494.38 L 284.55 509.24 Z" fill="#e6e8e8" fill-rule="nonzero" group-id="7,46" node-id="392" stroke="none" target-height="16.460022" target-width="12.069977" target-x="272.48" target-y="494.38"></path><path d="M 352.65 483.62 L 352.36 483.45 L 335.09 473.08 C 330.74 470.47 325.21 471.39 321.98 475.44 C 320.82 476.90 319.64 478.75 318.54 481.10 C 313.48 491.86 309.84 499.73 309.84 499.73 L 316.71 501.78 L 328.38 485.90 C 328.38 485.90 329.34 485.53 330.50 486.93 C 331.66 488.33 337.27 493.67 338.07 494.66 C 338.88 495.65 341.28 504.03 355.40 500.14 C 353.28 486.24 352.65 483.62 352.65 483.62 Z" fill="url(#SVGID_20_)" fill-rule="nonzero" group-id="7,46" node-id="394" stroke="none" target-height="33.559998" target-width="45.559998" target-x="309.84" target-y="470.47"></path><path d="M 351.67 486.06 C 351.67 486.06 330.15 488.08 326.95 488.64 C 323.75 489.20 322.23 488.76 317.92 491.23 C 312.82 494.14 285.90 500.01 285.90 500.01 L 287.58 507.41 C 287.58 507.41 313.85 506.12 321.81 502.22 C 322.88 501.70 324.06 501.49 325.22 501.65 C 326.80 501.86 328.95 502.17 330.55 502.50 C 336.51 503.75 344.53 505.18 353.36 506.14 C 357.66 506.69 367.27 508.14 367.27 496.39 C 365.84 486.70 351.67 486.06 351.67 486.06 Z" fill="url(#SVGID_21_)" fill-rule="nonzero" group-id="7,46" node-id="396" stroke="none" target-height="22.080017" target-width="81.369965" target-x="285.9" target-y="486.06"></path><path d="M 357.39 441.87 C 357.39 441.87 353.60 445.11 354.49 451.79 C 354.80 453.10 355.43 455.39 358.61 454.48 C 358.87 454.48 358.96 454.87 358.96 455.22 C 358.96 455.56 358.61 461.46 358.61 461.46 L 366.86 463.34 C 366.86 463.34 365.83 448.32 366.44 445.55 C 366.75 444.13 365.70 441.28 362.66 440.46 C 359.62 439.64 357.39 441.87 357.39 441.87 Z" fill="#ffbe92" fill-rule="nonzero" group-id="7,46" node-id="398" stroke="none" target-height="23.699982" target-width="13.26001" target-x="353.6" target-y="439.64"></path><path d="M 360.29 436.32 C 360.29 436.32 359.76 434.58 357.22 435.20 C 354.68 435.82 355.40 438.08 355.38 438.60 C 355.36 439.12 354.97 439.44 354.34 439.01 C 353.71 438.58 352.53 438.12 351.39 439.47 C 350.25 440.82 351.23 445.27 354.01 445.47 C 356.79 445.67 358.41 444.60 359.58 443.85 C 360.75 443.10 362.85 442.36 362.90 443.56 C 362.95 444.77 362.70 447.48 363.01 446.92 C 363.32 446.36 363.77 444.17 365.27 444.50 C 366.77 444.83 366.24 446.93 365.03 447.86 C 364.51 448.25 364.56 448.17 364.61 448.70 C 364.66 449.23 364.99 449.45 365.11 450.30 C 365.22 451.15 365.57 451.36 366.19 450.60 C 366.81 449.84 367.97 448.39 368.21 444.82 C 368.22 443.80 368.54 443.81 369.16 443.38 C 369.78 442.94 370.69 442.25 370.19 440.83 C 369.69 439.42 368.94 439.41 367.99 439.24 C 367.05 439.07 367.15 438.75 367.25 438.19 C 367.35 437.64 367.08 435.37 365.22 435.00 C 363.36 434.63 362.36 435.48 361.72 436.25 C 361.06 437.04 360.53 436.68 360.29 436.32 Z" fill="#171c61" fill-rule="nonzero" group-id="7,46" node-id="400" stroke="none" target-height="16.779999" target-width="20.440033" target-x="350.24997" target-y="434.58"></path><path d="M 369.63 469.71 C 369.63 469.71 370.65 455.33 365.44 455.69 C 360.23 456.05 355.27 456.35 352.15 468.73 C 351.10 473.41 351.29 480.62 350.52 484.32 C 349.75 488.02 348.06 494.73 350.12 496.27 C 352.19 497.81 363.05 501.97 366.31 501.77 C 369.58 501.57 370.29 499.93 370.32 495.87 C 370.35 491.81 369.35 477.41 369.63 469.71 Z" fill="url(#SVGID_22_)" fill-rule="nonzero" group-id="7,46" node-id="402" stroke="none" target-height="46.640015" target-width="22.589966" target-x="348.06003" target-y="455.33"></path><path d="M 339.29 461.50 C 339.19 461.24 336.54 451.90 336.61 451.86 C 336.68 451.81 338.27 451.30 338.27 451.30 L 340.90 460.83 L 341.01 461.89 L 339.29 461.50 Z" fill="#171c61" fill-rule="nonzero" group-id="7,46" node-id="404" stroke="none" target-height="10.590027" target-width="4.470001" target-x="336.54" target-y="451.3"></path><path d="M 355.85 464.80 C 355.85 464.80 352.57 469.21 351.83 470.48 C 351.09 471.75 350.02 471.23 349.46 470.61 C 348.69 469.76 344.05 465.32 343.49 464.76 C 342.94 464.20 342.87 464.15 342.80 463.38 C 342.72 462.61 341.95 460.38 341.37 459.17 C 340.79 457.96 340.78 456.89 340.29 457.68 C 339.80 458.47 340.29 459.89 340.27 460.30 C 340.25 460.71 339.27 460.68 338.93 459.86 C 338.59 459.04 338.59 459.11 338.64 458.30 C 338.69 457.50 338.33 456.53 337.59 457.28 C 336.85 458.03 336.23 461.60 336.97 463.16 C 337.71 464.72 338.47 465.08 339.25 465.44 C 340.04 465.80 340.44 466.60 341.16 467.86 C 341.88 469.12 347.11 476.94 347.77 477.72 C 348.52 478.60 349.30 478.96 351.28 478.13 C 353.07 477.38 357.05 475.19 360.62 470.61 C 358.74 468.01 355.85 464.80 355.85 464.80 Z" fill="#ffbe92" fill-rule="nonzero" group-id="7,46" node-id="406" stroke="none" target-height="22.429993" target-width="24.389984" target-x="336.23" target-y="456.53"></path><path d="M 353.86 465.84 L 359.80 473.77 C 359.80 473.77 369.12 466.28 364.17 461.00 C 359.22 455.72 353.86 465.84 353.86 465.84 Z" fill="url(#SVGID_23_)" fill-rule="nonzero" group-id="7,46" node-id="408" stroke="none" target-height="18.049957" target-width="15.26001" target-x="353.86" target-y="455.72003"></path></g></g></svg>