<?xml version="1.0" standalone="no"?><!DOCTYPE svg PUBLIC "-//W3C//DTD SVG 1.1//EN" "http://www.w3.org/Graphics/SVG/1.1/DTD/svg11.dtd"><svg height="800" node-id="1" sillyvg="true" template-height="800" template-width="800" version="1.1" viewBox="0 0 800 800" width="800" xmlns="http://www.w3.org/2000/svg" xmlns:xlink="http://www.w3.org/1999/xlink"><defs node-id="172"><linearGradient gradientUnits="objectBoundingBox" id="SVGID_1_" node-id="21" spreadMethod="pad" x1="257.2187" x2="257.2187" y1="416.7411" y2="319.9529"><stop offset="0.0000005358273" stop-color="#ffffff"></stop><stop offset="1" stop-color="#dbe3ee"></stop></linearGradient><linearGradient gradientUnits="objectBoundingBox" id="SVGID_2_" node-id="25" spreadMethod="pad" x1="192.6017" x2="192.6017" y1="474.733" y2="258.244"><stop offset="0.0000005358273" stop-color="#ffffff"></stop><stop offset="1" stop-color="#dbe3ee"></stop></linearGradient><linearGradient gradientUnits="objectBoundingBox" id="SVGID_3_" node-id="29" spreadMethod="pad" x1="568.3833" x2="568.3833" y1="432.0542" y2="275.5734"><stop offset="0.0000005358273" stop-color="#ffffff"></stop><stop offset="1" stop-color="#dbe3ee"></stop></linearGradient><linearGradient gradientUnits="objectBoundingBox" id="SVGID_4_" node-id="33" spreadMethod="pad" x1="630.9081" x2="630.9081" y1="454.7242" y2="284.9835"><stop offset="0.0000005358273" stop-color="#ffffff"></stop><stop offset="1" stop-color="#dbe3ee"></stop></linearGradient><linearGradient gradientUnits="objectBoundingBox" id="SVGID_5_" node-id="37" spreadMethod="pad" x1="122.1956" x2="122.1956" y1="496.8027" y2="346.2893"><stop offset="0.0000005358273" stop-color="#ffffff"></stop><stop offset="1" stop-color="#edf1f9"></stop></linearGradient><linearGradient gradientUnits="objectBoundingBox" id="SVGID_6_" node-id="41" spreadMethod="pad" x1="684.8688" x2="684.8688" y1="480.1973" y2="357.065"><stop offset="0.0000005358273" stop-color="#ffffff"></stop><stop offset="1" stop-color="#edf1f9"></stop></linearGradient><linearGradient gradientUnits="objectBoundingBox" id="SVGID_7_" node-id="45" spreadMethod="pad" x1="128.1592" x2="128.1592" y1="224.4954" y2="159.9541"><stop offset="0.2332" stop-color="#ffffff"></stop><stop offset="1" stop-color="#d3dfee"></stop></linearGradient><linearGradient gradientUnits="objectBoundingBox" id="SVGID_8_" node-id="49" spreadMethod="pad" x1="645.2277" x2="645.2277" y1="187.6749" y2="123.1337"><stop offset="0.2332" stop-color="#ffffff"></stop><stop offset="1" stop-color="#d3dfee"></stop></linearGradient><linearGradient gradientUnits="objectBoundingBox" id="SVGID_9_" node-id="53" spreadMethod="pad" x1="515.4567" x2="515.4567" y1="230.8484" y2="184.1312"><stop offset="0.2332" stop-color="#ffffff"></stop><stop offset="1" stop-color="#d3dfee"></stop></linearGradient><linearGradient gradientUnits="objectBoundingBox" id="SVGID_10_" node-id="57" spreadMethod="pad" x1="401.674" x2="401.674" y1="746.3732" y2="394.2444"><stop offset="0.4065" stop-color="#ffffff"></stop><stop offset="1" stop-color="#dae4ef"></stop></linearGradient><linearGradient gradientUnits="objectBoundingBox" id="SVGID_11_" node-id="63" spreadMethod="pad" x1="192.6036" x2="141.1674" y1="569.829" y2="508.5298"><stop offset="0.4034" stop-color="#eff4f8"></stop><stop offset="1" stop-color="#d4dfec"></stop></linearGradient><linearGradient gradientUnits="objectBoundingBox" id="SVGID_12_" node-id="67" spreadMethod="pad" x1="113.5558" x2="177.7426" y1="449.5387" y2="449.5387"><stop offset="0.1022" stop-color="#f0f5f8"></stop><stop offset="1" stop-color="#b4c7dc"></stop></linearGradient><linearGradient gradientUnits="objectBoundingBox" id="SVGID_13_" node-id="73" spreadMethod="pad" x1="711.4657" x2="664.1003" y1="549.8564" y2="493.4086"><stop offset="0.4034" stop-color="#eff4f8"></stop><stop offset="1" stop-color="#d4dfec"></stop></linearGradient><linearGradient gradientUnits="objectBoundingBox" id="SVGID_14_" node-id="77" spreadMethod="pad" x1="638.674" x2="697.7809" y1="439.0862" y2="439.0862"><stop offset="0.1022" stop-color="#f0f5f8"></stop><stop offset="1" stop-color="#b4c7dc"></stop></linearGradient><linearGradient gradientUnits="objectBoundingBox" id="SVGID_15_" node-id="83" spreadMethod="pad" x1="252.8031" x2="227.3618" y1="450.6857" y2="420.366"><stop offset="0.0000001438503" stop-color="#eaeff6"></stop><stop offset="1" stop-color="#cddae9"></stop></linearGradient><linearGradient gradientUnits="objectBoundingBox" id="SVGID_16_" node-id="87" spreadMethod="pad" x1="213.7046" x2="245.4526" y1="391.1879" y2="391.1879"><stop offset="0.1022" stop-color="#f0f5f8"></stop><stop offset="1" stop-color="#b4c7dc"></stop></linearGradient><linearGradient gradientUnits="objectBoundingBox" id="SVGID_17_" node-id="93" spreadMethod="pad" x1="537.9337" x2="445.4891" y1="702.793" y2="380.4003"><stop offset="0.1648" stop-color="#ffffff"></stop><stop offset="0.9362" stop-color="#bbcbe0"></stop></linearGradient><linearGradient gradientUnits="objectBoundingBox" id="SVGID_18_" node-id="97" spreadMethod="pad" x1="248.0848" x2="523.8126" y1="342.3759" y2="342.3759"><stop offset="0" stop-color="#eff3f9"></stop><stop offset="1" stop-color="#a7bed3"></stop></linearGradient><linearGradient gradientUnits="objectBoundingBox" id="SVGID_19_" node-id="101" spreadMethod="pad" x1="292.6555" x2="568.3833" y1="387.7963" y2="387.7963"><stop offset="0" stop-color="#eff3f9"></stop><stop offset="1" stop-color="#a7bed3"></stop></linearGradient><linearGradient gradientUnits="objectBoundingBox" id="SVGID_20_" node-id="105" spreadMethod="pad" x1="368.9556" x2="568.3833" y1="434.3968" y2="434.3968"><stop offset="0" stop-color="#eff3f9"></stop><stop offset="1" stop-color="#b6c9de"></stop></linearGradient><linearGradient gradientUnits="objectBoundingBox" id="SVGID_21_" node-id="109" spreadMethod="pad" x1="292.6555" x2="513.9545" y1="430.5593" y2="430.5593"><stop offset="0.067" stop-color="#ffffff"></stop><stop offset="1" stop-color="#b6c9de"></stop></linearGradient><linearGradient gradientUnits="objectBoundingBox" id="SVGID_22_" node-id="113" spreadMethod="pad" x1="452.1983" x2="504.0772" y1="341.4023" y2="341.4023"><stop offset="0" stop-color="#ffffff"></stop><stop offset="1" stop-color="#b6c9de"></stop></linearGradient><linearGradient gradientUnits="objectBoundingBox" id="SVGID_23_" node-id="123" spreadMethod="pad" x1="579.1113" x2="614.1082" y1="550.5175" y2="550.5175"><stop offset="0" stop-color="#4ea2f4"></stop><stop offset="0.6903" stop-color="#1e77cf"></stop></linearGradient><linearGradient gradientUnits="objectBoundingBox" id="SVGID_24_" node-id="127" spreadMethod="pad" x1="582.1901" x2="629.238" y1="548.2892" y2="548.2892"><stop offset="0" stop-color="#78c8ff"></stop><stop offset="0.6903" stop-color="#2a80e2"></stop></linearGradient><linearGradient gradientUnits="objectBoundingBox" id="SVGID_25_" node-id="134" spreadMethod="pad" x1="7972.236" x2="7972.236" y1="1994.9803" y2="1968.8289"><stop offset="0" stop-color="#f2a319"></stop><stop offset="0.4796" stop-color="#ffc552"></stop></linearGradient><linearGradient gradientUnits="objectBoundingBox" id="SVGID_26_" node-id="140" spreadMethod="pad" x1="8001.7983" x2="8001.7983" y1="1982.8364" y2="1969.5857"><stop offset="0" stop-color="#f2a319"></stop><stop offset="0.4796" stop-color="#ffc552"></stop></linearGradient></defs><g node-id="460"><g node-id="487"><path d="M 271.68 323.36 L 271.68 319.95 L 242.18 319.95 L 242.18 323.91 L 235.70 323.91 L 235.70 416.74 L 278.75 416.74 L 278.75 323.36 L 271.68 323.36 Z M 275.02 406.10 L 238.98 406.10 L 238.98 403.35 L 275.02 403.35 L 275.02 406.10 Z M 275.02 393.42 L 238.98 393.42 L 238.98 390.67 L 275.02 390.67 L 275.02 393.42 Z M 275.02 380.74 L 238.98 380.74 L 238.98 377.99 L 275.02 377.99 L 275.02 380.74 Z M 275.02 368.40 L 238.98 368.40 L 238.98 365.65 L 275.02 365.65 L 275.02 368.40 Z M 275.02 356.09 L 238.98 356.09 L 238.98 353.34 L 275.02 353.34 L 275.02 356.09 Z M 275.02 343.41 L 238.98 343.41 L 238.98 340.66 L 275.02 340.66 L 275.02 343.41 Z M 275.02 331.07 L 238.98 331.07 L 238.98 328.32 L 275.02 328.32 L 275.02 331.07 Z" fill="url(#SVGID_1_)" fill-rule="nonzero" group-id="16,43" node-id="348" stroke="none" target-height="96.78998" target-width="43.050003" target-x="235.7" target-y="319.95"></path><path d="M 213.69 375.17 L 213.69 266.99 L 180.94 266.99 L 180.94 258.25 L 167.08 258.25 L 167.08 311.58 L 163.35 311.58 L 163.35 474.74 L 221.86 474.74 L 221.86 375.18 L 213.69 375.18 Z M 189.20 406.98 L 180.94 406.98 L 180.94 398.97 L 189.20 398.97 L 189.20 406.98 Z M 189.20 394.45 L 180.94 394.45 L 180.94 386.44 L 189.20 386.44 L 189.20 394.45 Z M 189.20 381.98 L 180.94 381.98 L 180.94 373.97 L 189.20 373.97 L 189.20 381.98 Z M 189.20 369.54 L 180.94 369.54 L 180.94 361.53 L 189.20 361.53 L 189.20 369.54 Z M 189.20 357.01 L 180.94 357.01 L 180.94 349.00 L 189.20 349.00 L 189.20 357.01 Z M 189.20 332.01 L 180.94 332.01 L 180.94 324.00 L 189.20 324.00 L 189.20 332.01 Z M 189.20 319.48 L 180.94 319.48 L 180.94 311.47 L 189.20 311.47 L 189.20 319.48 Z M 189.20 307.00 L 180.94 307.00 L 180.94 299.00 L 189.20 299.00 L 189.20 307.00 Z M 189.20 294.56 L 180.94 294.56 L 180.94 286.55 L 189.20 286.55 L 189.20 294.56 Z M 189.20 282.03 L 180.94 282.03 L 180.94 274.02 L 189.20 274.02 L 189.20 282.03 Z M 201.55 406.98 L 193.29 406.98 L 193.29 398.97 L 201.55 398.97 L 201.55 406.98 Z M 201.55 394.45 L 193.29 394.45 L 193.29 386.44 L 201.55 386.44 L 201.55 394.45 Z M 201.55 381.98 L 193.29 381.98 L 193.29 373.97 L 201.55 373.97 L 201.55 381.98 Z M 201.55 369.54 L 193.29 369.54 L 193.29 361.53 L 201.55 361.53 L 201.55 369.54 Z M 201.55 357.01 L 193.29 357.01 L 193.29 349.00 L 201.55 349.00 L 201.55 357.01 Z M 201.55 332.01 L 193.29 332.01 L 193.29 324.00 L 201.55 324.00 L 201.55 332.01 Z M 201.55 319.48 L 193.29 319.48 L 193.29 311.47 L 201.55 311.47 L 201.55 319.48 Z M 201.55 307.00 L 193.29 307.00 L 193.29 299.00 L 201.55 299.00 L 201.55 307.00 Z M 201.55 294.56 L 193.29 294.56 L 193.29 286.55 L 201.55 286.55 L 201.55 294.56 Z M 201.55 282.03 L 193.29 282.03 L 193.29 274.02 L 201.55 274.02 L 201.55 282.03 Z" fill="url(#SVGID_2_)" fill-rule="nonzero" group-id="16,43" node-id="350" stroke="none" target-height="216.48999" target-width="58.509995" target-x="163.35" target-y="258.25"></path><path d="M 536.00 432.05 C 536.36 427.40 536.00 275.57 536.00 275.57 L 554.53 275.57 L 554.53 309.28 L 584.03 309.28 L 584.03 379.73 L 600.76 379.73 L 600.76 432.05 L 536.00 432.05 Z" fill="url(#SVGID_3_)" fill-rule="nonzero" group-id="16,43" node-id="352" stroke="none" target-height="156.47995" target-width="64.76001" target-x="536" target-y="275.57"></path><path d="M 657.22 363.91 L 657.22 359.06 L 652.22 359.06 L 652.22 316.73 L 640.02 316.73 L 640.02 312.03 L 631.79 312.03 L 631.79 305.12 L 627.50 305.12 L 627.50 284.98 L 624.41 284.98 L 624.41 305.26 L 620.47 305.26 L 620.47 312.17 L 608.27 312.17 L 608.27 323.49 L 601.22 323.49 L 601.22 454.72 L 660.60 454.72 L 660.60 363.90 L 657.22 363.90 Z M 611.70 416.69 L 607.68 416.69 L 607.68 401.45 L 611.70 401.45 L 611.70 416.69 Z M 611.70 398.04 L 607.68 398.04 L 607.68 382.80 L 611.70 382.80 L 611.70 398.04 Z M 611.70 379.39 L 607.68 379.39 L 607.68 364.15 L 611.70 364.15 L 611.70 379.39 Z M 611.70 360.41 L 607.68 360.41 L 607.68 345.17 L 611.70 345.17 L 611.70 360.41 Z M 611.70 341.42 L 607.68 341.42 L 607.68 326.18 L 611.70 326.18 L 611.70 341.42 Z M 619.98 416.69 L 615.96 416.69 L 615.96 401.45 L 619.98 401.45 L 619.98 416.69 Z M 619.98 398.04 L 615.96 398.04 L 615.96 382.80 L 619.98 382.80 L 619.98 398.04 Z M 619.98 379.39 L 615.96 379.39 L 615.96 364.15 L 619.98 364.15 L 619.98 379.39 Z M 619.98 360.41 L 615.96 360.41 L 615.96 345.17 L 619.98 345.17 L 619.98 360.41 Z M 619.98 341.42 L 615.96 341.42 L 615.96 326.18 L 619.98 326.18 L 619.98 341.42 Z M 628.26 416.69 L 624.24 416.69 L 624.24 401.45 L 628.26 401.45 L 628.26 416.69 Z M 628.26 398.04 L 624.24 398.04 L 624.24 382.80 L 628.26 382.80 L 628.26 398.04 Z M 628.26 379.39 L 624.24 379.39 L 624.24 364.15 L 628.26 364.15 L 628.26 379.39 Z M 628.26 360.41 L 624.24 360.41 L 624.24 345.17 L 628.26 345.17 L 628.26 360.41 Z M 628.26 341.42 L 624.24 341.42 L 624.24 326.18 L 628.26 326.18 L 628.26 341.42 Z M 636.54 416.69 L 632.52 416.69 L 632.52 401.45 L 636.54 401.45 L 636.54 416.69 Z M 636.54 398.04 L 632.52 398.04 L 632.52 382.80 L 636.54 382.80 L 636.54 398.04 Z M 636.54 379.39 L 632.52 379.39 L 632.52 364.15 L 636.54 364.15 L 636.54 379.39 Z M 636.54 360.41 L 632.52 360.41 L 632.52 345.17 L 636.54 345.17 L 636.54 360.41 Z M 636.54 341.42 L 632.52 341.42 L 632.52 326.18 L 636.54 326.18 L 636.54 341.42 Z M 644.82 416.69 L 640.80 416.69 L 640.80 401.45 L 644.82 401.45 L 644.82 416.69 Z M 644.82 398.04 L 640.80 398.04 L 640.80 382.80 L 644.82 382.80 L 644.82 398.04 Z M 644.82 379.39 L 640.80 379.39 L 640.80 364.15 L 644.82 364.15 L 644.82 379.39 Z M 644.82 360.41 L 640.80 360.41 L 640.80 345.17 L 644.82 345.17 L 644.82 360.41 Z M 644.82 341.42 L 640.80 341.42 L 640.80 326.18 L 644.82 326.18 L 644.82 341.42 Z" fill="url(#SVGID_4_)" fill-rule="nonzero" group-id="16,43" node-id="354" stroke="none" target-height="169.74002" target-width="59.380005" target-x="601.22" target-y="284.98"></path><path d="M 95.57 496.80 L 95.57 407.26 L 105.82 407.26 L 105.82 361.56 L 141.09 346.29 L 141.09 406.54 L 148.82 406.54 L 148.82 496.80 Z" fill="url(#SVGID_5_)" fill-rule="nonzero" group-id="16,43" node-id="356" stroke="none" target-height="150.50998" target-width="53.250008" target-x="95.57" target-y="346.29"></path><path d="M 700.34 480.20 L 669.40 480.20 L 669.40 357.07 L 700.34 372.04 Z" fill="url(#SVGID_6_)" fill-rule="nonzero" group-id="16,43" node-id="358" stroke="none" target-height="123.130035" target-width="30.940063" target-x="669.4" target-y="357.06998"></path><path d="M 90.39 183.39 C 90.39 183.39 99.73 157.91 122.69 167.91 C 127.99 162.53 134.55 158.62 143.42 160.38 C 152.29 162.14 158.01 168.79 159.95 173.21 C 162.73 173.08 184.99 173.82 184.99 196.91 C 184.99 220.00 158.05 219.56 156.10 217.73 C 153.70 219.87 142.16 231.48 128.16 218.23 C 125.13 220.82 115.23 231.79 99.58 216.65 C 92.33 219.68 75.10 222.01 71.76 204.22 C 68.42 186.44 85.55 181.41 90.39 183.39 Z" fill="url(#SVGID_7_)" fill-rule="nonzero" group-id="16,43" node-id="360" stroke="none" target-height="73.87999" target-width="116.57001" target-x="68.42" target-y="157.91"></path><path d="M 607.46 146.57 C 607.46 146.57 616.80 121.09 639.76 131.09 C 645.06 125.71 651.62 121.80 660.49 123.56 C 669.36 125.33 675.08 131.97 677.02 136.39 C 679.80 136.26 702.06 137.00 702.06 160.09 C 702.06 183.18 675.12 182.74 673.17 180.91 C 670.77 183.05 659.23 194.66 645.23 181.41 C 642.20 184.00 632.30 194.97 616.65 179.83 C 609.40 182.86 592.17 185.19 588.83 167.40 C 585.48 149.62 602.62 144.59 607.46 146.57 Z" fill="url(#SVGID_8_)" fill-rule="nonzero" group-id="16,43" node-id="362" stroke="none" target-height="73.88002" target-width="116.58002" target-x="585.48" target-y="121.09"></path><path d="M 488.12 201.09 C 488.12 201.09 494.88 182.64 511.50 189.89 C 515.34 185.99 520.08 183.16 526.51 184.44 C 532.93 185.72 537.07 190.53 538.47 193.72 C 540.48 193.63 556.60 194.16 556.60 210.87 C 556.60 227.58 537.10 227.26 535.69 225.94 C 533.95 227.49 525.60 235.89 515.46 226.31 C 513.27 228.18 506.10 236.13 494.78 225.17 C 489.53 227.36 477.06 229.05 474.64 216.17 C 472.21 203.30 484.62 199.66 488.12 201.09 Z" fill="url(#SVGID_9_)" fill-rule="nonzero" group-id="16,43" node-id="364" stroke="none" target-height="53.48999" target-width="84.389984" target-x="472.21" target-y="182.64"></path><path d="M 772.65 570.31 C 772.65 617.00 733.56 661.79 663.99 694.80 C 594.42 727.82 500.06 746.37 401.67 746.37 C 303.28 746.37 208.92 727.82 139.35 694.80 C 69.78 661.79 30.69 617.00 30.69 570.31 C 30.69 523.62 69.78 478.83 139.35 445.82 C 208.92 412.80 303.28 394.25 401.67 394.25 C 500.06 394.25 594.42 412.80 663.99 445.82 C 733.56 478.83 772.65 523.62 772.65 570.31 Z" fill="url(#SVGID_10_)" fill-rule="nonzero" group-id="16,43" node-id="366" stroke="none" target-height="352.12" target-width="741.96" target-x="30.690002" target-y="394.25"></path></g><g node-id="488"><g node-id="491"><path d="M 147.62 548.78 C 147.62 548.78 144.09 553.79 149.99 561.25 C 155.25 567.89 163.56 566.60 166.32 564.47 C 167.17 570.25 174.26 582.43 185.48 575.54 C 196.03 569.07 190.95 559.23 187.58 555.36 C 194.17 553.50 199.08 537.71 183.96 532.26 C 186.20 525.74 186.60 522.79 183.32 516.93 C 180.16 511.29 174.97 510.39 166.69 513.82 L 154.71 518.87 L 147.08 504.63 L 143.00 506.99 L 151.80 520.59 L 140.14 526.44 C 140.14 526.44 130.17 530.34 134.47 541.04 C 138.46 550.95 147.62 548.78 147.62 548.78 Z" fill="url(#SVGID_11_)" fill-rule="nonzero" group-id="16,44,47" node-id="372" stroke="none" target-height="77.80002" target-width="68.91" target-x="130.17" target-y="504.62997"></path><path d="M 127.32 488.06 L 163.38 488.06 C 163.38 488.06 175.03 488.39 177.35 475.08 C 179.90 460.47 169.27 458.46 169.27 458.46 C 169.27 458.46 175.67 455.52 174.28 444.47 C 172.89 433.42 163.16 432.03 159.11 432.54 C 159.77 425.99 161.15 411.16 145.75 411.01 C 130.88 410.86 130.97 425.83 132.08 431.73 C 126.78 431.79 110.77 439.74 122.03 457.18 C 115.90 462.43 113.31 465.46 113.58 473.03 C 113.85 480.61 118.49 488.06 127.32 488.06 Z" fill="url(#SVGID_12_)" fill-rule="nonzero" group-id="16,44,47" node-id="374" stroke="none" target-height="77.53003" target-width="69.12999" target-x="110.76999" target-y="410.86"></path><path d="M 162.50 467.82 L 147.12 477.94 L 146.70 468.16 L 156.42 456.70 L 146.55 464.68 L 145.27 434.78 L 144.33 464.88 L 133.95 456.62 L 144.23 467.94 L 143.91 478.01 L 128.10 466.39 L 143.80 481.64 L 143.01 507.00 L 148.36 507.00 L 147.28 481.80 Z" fill="#c6d5e6" fill-rule="nonzero" group-id="16,44,47" node-id="376" stroke="none" target-height="72.22" target-width="34.399994" target-x="128.1" target-y="434.78"></path></g><g node-id="492"><path d="M 670.04 530.47 C 670.04 530.47 666.79 535.09 672.22 541.95 C 677.06 548.07 684.72 546.88 687.26 544.91 C 688.04 550.23 694.58 561.44 704.91 555.11 C 714.62 549.15 709.95 540.09 706.84 536.53 C 712.91 534.82 717.43 520.27 703.51 515.26 C 705.58 509.26 705.95 506.54 702.92 501.15 C 700.01 495.96 695.23 495.12 687.61 498.29 L 676.57 502.94 L 669.54 489.83 L 665.79 492.00 L 673.89 504.52 L 663.16 509.91 C 663.16 509.91 653.98 513.50 657.94 523.36 C 661.61 532.47 670.04 530.47 670.04 530.47 Z" fill="url(#SVGID_13_)" fill-rule="nonzero" group-id="16,44,48" node-id="381" stroke="none" target-height="71.610016" target-width="63.450012" target-x="653.98" target-y="489.83"></path><path d="M 651.35 474.56 L 684.55 474.56 C 684.55 474.56 695.28 474.87 697.41 462.61 C 699.75 449.16 689.97 447.31 689.97 447.31 C 689.97 447.31 695.87 444.60 694.58 434.43 C 693.29 424.26 684.34 422.97 680.61 423.45 C 681.22 417.42 682.49 403.76 668.31 403.62 C 654.62 403.48 654.70 417.26 655.72 422.70 C 650.84 422.75 636.09 430.07 646.47 446.14 C 640.83 450.97 638.44 453.77 638.69 460.73 C 638.95 467.70 643.22 474.56 651.35 474.56 Z" fill="url(#SVGID_14_)" fill-rule="nonzero" group-id="16,44,48" node-id="383" stroke="none" target-height="71.389984" target-width="63.659973" target-x="636.09" target-y="403.48"></path><path d="M 683.74 455.92 L 669.58 465.24 L 669.19 456.23 L 678.15 445.68 L 669.06 453.03 L 667.88 425.49 L 667.01 453.21 L 657.45 445.60 L 666.92 456.03 L 666.63 465.31 L 652.06 454.60 L 666.52 468.65 L 665.79 492.00 L 670.72 492.00 L 669.73 468.79 Z" fill="#c6d5e6" fill-rule="nonzero" group-id="16,44,48" node-id="385" stroke="none" target-height="66.51001" target-width="31.679993" target-x="652.06" target-y="425.49"></path></g><g node-id="493"><path d="M 230.55 440.27 C 230.55 440.27 228.80 442.75 231.72 446.44 C 234.32 449.73 238.43 449.09 239.80 448.03 C 240.22 450.89 243.73 456.91 249.28 453.51 C 254.50 450.31 251.99 445.44 250.32 443.53 C 253.58 442.61 256.01 434.80 248.53 432.11 C 249.64 428.89 249.84 427.43 248.21 424.53 C 246.65 421.74 244.08 421.29 239.99 422.99 L 234.06 425.49 L 230.29 418.45 L 228.27 419.62 L 232.62 426.34 L 226.85 429.23 C 226.85 429.23 221.92 431.16 224.05 436.45 C 226.02 441.35 230.55 440.27 230.55 440.27 Z" fill="url(#SVGID_15_)" fill-rule="nonzero" group-id="16,44,49" node-id="390" stroke="none" target-height="38.45996" target-width="34.090027" target-x="221.91998" target-y="418.45"></path><path d="M 220.51 410.24 L 238.34 410.24 C 238.34 410.24 244.10 410.40 245.25 403.82 C 246.51 396.59 241.25 395.60 241.25 395.60 C 241.25 395.60 244.42 394.14 243.73 388.68 C 243.04 383.22 238.23 382.53 236.23 382.78 C 236.56 379.54 237.24 372.20 229.62 372.13 C 222.26 372.06 222.31 379.46 222.86 382.38 C 220.24 382.41 212.32 386.34 217.89 394.97 C 214.86 397.56 213.57 399.07 213.71 402.81 C 213.85 406.55 216.15 410.24 220.51 410.24 Z" fill="url(#SVGID_16_)" fill-rule="nonzero" group-id="16,44,49" node-id="392" stroke="none" target-height="38.339996" target-width="34.189987" target-x="212.32" target-y="372.06"></path><path d="M 237.91 400.23 L 230.30 405.24 L 230.10 400.40 L 234.91 394.73 L 230.02 398.68 L 229.39 383.89 L 228.92 398.77 L 223.79 394.69 L 228.88 400.29 L 228.72 405.27 L 220.90 399.52 L 228.66 407.07 L 228.27 419.61 L 230.92 419.61 L 230.39 407.14 Z" fill="#c6d5e6" fill-rule="nonzero" group-id="16,44,49" node-id="394" stroke="none" target-height="35.71994" target-width="17.00998" target-x="220.90001" target-y="383.89"></path></g></g><g node-id="489"><path d="M 565.07 481.32 C 572.75 485.17 724.41 615.00 724.41 615.00 L 423.39 735.64 L 249.92 436.48 L 536.00 456.45 L 565.07 481.32 Z" fill="url(#SVGID_17_)" fill-rule="nonzero" group-id="16,45" node-id="400" stroke="none" target-height="299.16" target-width="474.49" target-x="249.92" target-y="436.48"></path><path d="M 501.80 449.69 L 270.09 449.69 C 257.93 449.69 248.08 439.84 248.08 427.68 L 248.08 257.07 C 248.08 244.91 257.93 235.06 270.09 235.06 L 501.80 235.06 C 513.96 235.06 523.81 244.91 523.81 257.07 L 523.81 427.68 C 523.81 439.84 513.96 449.69 501.80 449.69 Z" fill="url(#SVGID_18_)" fill-rule="nonzero" group-id="16,45" node-id="402" stroke="none" target-height="214.63" target-width="275.72998" target-x="248.08" target-y="235.06"></path><path d="M 546.37 491.73 L 314.67 491.73 C 302.51 491.73 292.66 481.88 292.66 469.72 L 292.66 305.88 C 292.66 293.72 302.51 283.87 314.67 283.87 L 546.38 283.87 C 558.54 283.87 568.39 293.72 568.39 305.88 L 568.39 469.72 C 568.38 481.87 558.53 491.73 546.37 491.73 Z" fill="url(#SVGID_19_)" fill-rule="nonzero" group-id="16,45" node-id="404" stroke="none" target-height="207.86002" target-width="275.73" target-x="292.66" target-y="283.87"></path><path d="M 568.38 474.26 L 568.38 377.06 L 368.95 454.44 L 390.98 491.72 L 550.92 491.72 C 560.56 491.73 568.38 483.91 568.38 474.26 Z" fill="url(#SVGID_20_)" fill-rule="nonzero" group-id="16,45" node-id="406" stroke="none" target-height="114.67001" target-width="199.43" target-x="368.95" target-y="377.06"></path><path d="M 389.62 369.39 L 292.66 421.38 L 292.66 474.26 C 292.66 483.91 300.48 491.72 310.12 491.72 L 513.95 491.72 L 389.62 369.39 Z" fill="url(#SVGID_21_)" fill-rule="nonzero" group-id="16,45" node-id="408" stroke="none" target-height="122.32999" target-width="221.29001" target-x="292.66" target-y="369.39"></path><path d="M 504.08 341.40 C 504.08 355.73 492.47 367.34 478.14 367.34 C 463.81 367.34 452.20 355.73 452.20 341.40 C 452.20 327.07 463.81 315.46 478.14 315.46 C 492.47 315.46 504.08 327.07 504.08 341.40 Z" fill="url(#SVGID_22_)" fill-rule="nonzero" group-id="16,45" node-id="410" stroke="none" target-height="51.880005" target-width="51.880005" target-x="452.2" target-y="315.46"></path></g><g node-id="490"><path d="M 582.01 554.80 C 582.01 554.80 582.77 555.83 580.56 559.56 C 583.92 560.72 588.35 559.35 588.35 559.35 L 588.11 553.14 L 582.01 554.80 Z" fill="#ffbe92" fill-rule="nonzero" group-id="16,46" node-id="415" stroke="none" target-height="7.579956" target-width="7.789978" target-x="580.56" target-y="553.14"></path><path d="M 590.81 563.56 L 571.27 564.55 C 571.27 564.55 569.98 558.74 577.69 558.59 C 579.25 558.56 580.45 556.74 581.73 556.73 C 584.80 559.24 589.87 558.54 589.87 558.54 L 590.81 563.56 Z" fill="#f8b62d" fill-rule="nonzero" group-id="16,46" node-id="417" stroke="none" target-height="7.8200073" target-width="20.830017" target-x="569.98" target-y="556.73"></path><path d="M 591.27 564.82 L 582.70 566.02 L 582.31 564.47 L 571.29 565.74 L 571.00 564.43 L 590.76 561.94 Z" fill="#e6e8e8" fill-rule="nonzero" group-id="16,46" node-id="419" stroke="none" target-height="4.080017" target-width="20.27002" target-x="571" target-y="561.94"></path><path d="M 604.27 484.98 C 604.27 484.98 602.20 489.01 605.09 494.31 C 605.77 495.30 607.03 497.01 609.34 495.14 C 609.56 495.05 609.76 495.35 609.87 495.64 C 609.98 495.93 611.59 501.00 611.59 501.00 L 618.98 499.73 C 618.98 499.73 613.28 487.48 612.90 484.95 C 612.69 483.65 610.91 481.62 608.15 481.98 C 605.39 482.34 604.27 484.98 604.27 484.98 Z" fill="#ffbe92" fill-rule="nonzero" group-id="16,46" node-id="421" stroke="none" target-height="19.380005" target-width="16.779968" target-x="602.2" target-y="481.62"></path><path d="M 604.93 479.39 C 604.93 479.39 603.93 478.11 602.04 479.51 C 600.15 480.91 601.47 482.56 601.62 483.00 C 601.77 483.44 601.55 483.85 600.90 483.71 C 600.24 483.57 599.13 483.59 598.62 485.11 C 598.11 486.63 600.36 490.03 602.71 489.24 C 605.06 488.45 606.05 486.99 606.77 485.96 C 607.49 484.93 608.98 483.58 609.41 484.57 C 609.84 485.57 610.16 487.76 610.59 487.35 C 610.99 486.97 610.33 484.78 611.67 484.54 C 613.01 484.30 613.25 486.25 612.56 487.44 C 612.26 487.95 612.27 487.86 612.48 488.29 C 612.69 488.72 612.71 489.03 613.29 489.48 C 613.88 489.93 614.13 490.19 614.39 489.34 C 614.65 488.49 615.14 486.87 614.18 483.79 C 613.86 482.94 614.13 482.83 614.50 482.25 C 614.87 481.67 615.39 480.77 614.52 479.76 C 613.65 478.75 613.03 479.00 612.20 479.19 C 611.37 479.38 611.35 479.06 611.25 478.57 C 611.15 478.07 610.20 476.26 608.55 476.59 C 606.90 476.92 606.35 477.98 606.07 478.85 C 605.79 479.72 605.24 479.60 604.93 479.39 Z" fill="#171c61" fill-rule="nonzero" group-id="16,46" node-id="423" stroke="none" target-height="13.929993" target-width="17.28003" target-x="598.11" target-y="476.26"></path><path d="M 611.96 532.19 C 611.26 531.84 584.02 519.99 578.72 525.08 C 573.42 530.18 581.74 556.29 581.74 556.29 L 589.11 555.77 L 588.15 537.87 L 602.27 546.48 L 611.96 532.19 Z" fill="url(#SVGID_23_)" fill-rule="nonzero" group-id="16,46" node-id="425" stroke="none" target-height="36.299988" target-width="38.54004" target-x="573.42" target-y="519.99"></path><path d="M 607.40 534.71 C 607.40 534.71 579.00 552.80 582.49 562.95 C 582.49 562.95 583.28 567.55 592.17 566.04 C 601.06 564.53 615.41 559.21 615.41 559.21 L 615.88 552.12 C 615.88 552.12 627.59 552.42 629.06 541.32 C 630.84 527.85 618.98 527.94 607.40 534.71 Z" fill="url(#SVGID_24_)" fill-rule="nonzero" group-id="16,46" node-id="427" stroke="none" target-height="39.700012" target-width="51.840027" target-x="579" target-y="527.85"></path><path d="M 620.45 550.97 L 620.46 568.88 C 620.46 568.88 619.31 569.91 618.11 570.16 C 616.82 570.43 615.49 569.86 615.73 568.44 C 615.97 567.00 617.58 565.76 615.52 563.22 C 614.54 562.01 613.43 560.89 613.29 559.75 C 615.90 556.80 615.38 551.71 615.38 551.71 L 620.45 550.97 Z" fill="#f8b62d" fill-rule="nonzero" group-id="16,46" node-id="429" stroke="none" target-height="19.460022" target-width="7.170044" target-x="613.29" target-y="550.97"></path><path d="M 621.73 550.56 L 622.63 559.16 L 621.06 559.49 C 621.06 559.49 621.59 566.36 621.51 567.23 C 621.43 568.09 619.77 569.96 619.39 570.17 C 619.01 570.38 617.81 570.20 617.81 570.20 C 617.81 570.20 620.29 567.53 620.22 566.76 C 620.15 565.99 618.83 550.96 618.83 550.96 L 621.73 550.56 Z" fill="#e6e8e8" fill-rule="nonzero" group-id="16,46" node-id="431" stroke="none" target-height="19.820007" target-width="4.8200073" target-x="617.81" target-y="550.56"></path><path d="M 610.06 502.15 C 610.06 502.15 599.84 510.44 595.87 514.17 C 596.03 511.66 598.48 501.14 597.95 498.60 C 597.94 496.43 597.98 495.20 596.68 494.39 C 595.38 493.58 593.65 492.78 592.75 492.24 C 591.90 491.73 590.74 492.40 592.22 493.84 C 593.24 494.84 591.23 493.79 590.18 493.06 C 589.13 492.33 587.93 491.11 587.11 491.47 C 586.11 491.91 587.11 495.35 589.30 496.57 C 591.49 497.79 593.27 498.09 593.27 500.28 C 593.27 502.47 586.65 522.42 591.19 524.15 C 595.73 525.88 613.09 509.23 613.09 509.23 L 610.06 502.15 Z" fill="#f2ad7e" fill-rule="nonzero" group-id="16,46" node-id="433" stroke="none" target-height="34.77002" target-width="26.980042" target-x="586.11" target-y="491.11"></path><path d="M 627.85 507.84 C 627.85 507.84 624.50 492.24 615.39 495.41 C 610.44 497.14 606.21 501.00 604.86 511.84 C 604.39 517.27 605.45 525.43 605.14 529.71 C 604.82 533.99 603.59 535.84 607.56 537.07 C 610.16 537.87 619.92 543.80 623.19 544.07 C 627.02 544.39 630.50 544.30 630.53 539.67 C 630.56 534.31 629.57 516.17 627.85 507.84 Z" fill="url(#SVGID_25_)" fill-rule="nonzero" group-id="16,46" node-id="435" stroke="none" target-height="52.150024" target-width="26.96997" target-x="603.59" target-y="492.24"></path><path d="M 601.41 494.30 C 600.84 490.76 598.57 489.47 598.57 489.47 L 598.57 487.66 L 598.57 486.38 L 598.57 486.23 L 598.45 486.25 C 598.44 486.25 598.43 486.23 598.41 486.23 L 594.89 486.23 C 594.80 486.23 594.74 486.30 594.74 486.38 L 594.74 487.12 L 592.63 487.12 C 592.24 487.12 591.93 487.43 591.93 487.82 L 591.93 487.95 C 591.93 488.34 591.62 488.65 591.23 488.65 L 583.48 488.65 C 582.93 488.65 582.49 489.09 582.49 489.64 L 582.49 494.01 C 582.49 494.52 582.87 494.94 583.38 494.99 L 586.38 495.30 L 598.35 497.98 C 598.35 497.98 598.59 493.67 598.45 491.23 C 599.74 492.00 599.89 494.73 599.89 494.73 L 600.61 499.28 L 601.76 499.66 C 601.75 499.66 601.84 499.09 601.41 494.30 Z" fill="#171c61" fill-rule="nonzero" group-id="16,46" node-id="437" stroke="none" target-height="13.430023" target-width="19.350037" target-x="582.49" target-y="486.23"></path><path d="M 609.11 505.33 C 609.11 505.33 598.94 512.17 594.97 515.89 C 595.13 513.38 597.00 502.30 596.48 499.76 C 596.47 497.59 596.51 496.36 595.21 495.55 C 593.91 494.74 592.18 493.94 591.28 493.40 C 590.43 492.89 589.27 493.56 590.75 495.00 C 591.77 495.99 589.76 494.95 588.71 494.22 C 587.66 493.49 586.46 492.27 585.64 492.63 C 584.64 493.07 585.64 496.51 587.83 497.73 C 590.02 498.95 591.80 499.25 591.80 501.44 C 591.80 503.63 585.18 523.58 589.72 525.31 C 594.26 527.04 611.83 513.39 611.83 513.39 L 609.11 505.33 Z" fill="#ffbe92" fill-rule="nonzero" group-id="16,46" node-id="439" stroke="none" target-height="34.76999" target-width="27.190002" target-x="584.64" target-y="492.27"></path><path d="M 605.71 506.63 L 611.33 516.17 C 611.33 516.17 622.73 509.13 617.88 502.65 C 613.03 496.17 605.71 506.63 605.71 506.63 Z" fill="url(#SVGID_26_)" fill-rule="nonzero" group-id="16,46" node-id="441" stroke="none" target-height="19.99997" target-width="17.019958" target-x="605.71" target-y="496.17"></path><path d="M 615.39 551.70 C 615.39 551.70 598.87 555.38 594.08 559.59 C 600.72 558.18 615.39 551.70 615.39 551.70 Z" fill="#4286e7" fill-rule="nonzero" group-id="16,46" node-id="443" stroke="none" target-height="7.8900146" target-width="21.309998" target-x="594.08" target-y="551.7"></path></g></g></svg>