<?xml version="1.0" standalone="no"?><!DOCTYPE svg PUBLIC "-//W3C//DTD SVG 1.1//EN" "http://www.w3.org/Graphics/SVG/1.1/DTD/svg11.dtd"><svg height="800" node-id="1" sillyvg="true" template-height="800" template-width="800" version="1.1" viewBox="0 0 800 800" width="800" xmlns="http://www.w3.org/2000/svg" xmlns:xlink="http://www.w3.org/1999/xlink"><defs node-id="218"><linearGradient gradientUnits="objectBoundingBox" id="SVGID_1_" node-id="38" spreadMethod="pad" x1="255.8308" x2="255.8308" y1="423.3921" y2="326.6038"><stop offset="0.0000005358273" stop-color="#ffffff"></stop><stop offset="1" stop-color="#dbe3ee"></stop></linearGradient><linearGradient gradientUnits="objectBoundingBox" id="SVGID_2_" node-id="42" spreadMethod="pad" x1="191.2138" x2="191.2138" y1="481.384" y2="264.895"><stop offset="0.0000005358273" stop-color="#ffffff"></stop><stop offset="1" stop-color="#dbe3ee"></stop></linearGradient><linearGradient gradientUnits="objectBoundingBox" id="SVGID_3_" node-id="46" spreadMethod="pad" x1="566.9954" x2="566.9954" y1="438.7051" y2="282.2243"><stop offset="0.0000005358273" stop-color="#ffffff"></stop><stop offset="1" stop-color="#dbe3ee"></stop></linearGradient><linearGradient gradientUnits="objectBoundingBox" id="SVGID_4_" node-id="50" spreadMethod="pad" x1="629.5203" x2="629.5203" y1="461.3751" y2="291.6344"><stop offset="0.0000005358273" stop-color="#ffffff"></stop><stop offset="1" stop-color="#dbe3ee"></stop></linearGradient><linearGradient gradientUnits="objectBoundingBox" id="SVGID_5_" node-id="54" spreadMethod="pad" x1="120.8077" x2="120.8077" y1="503.4536" y2="352.9402"><stop offset="0.0000005358273" stop-color="#ffffff"></stop><stop offset="1" stop-color="#edf1f9"></stop></linearGradient><linearGradient gradientUnits="objectBoundingBox" id="SVGID_6_" node-id="58" spreadMethod="pad" x1="683.4809" x2="683.4809" y1="486.8482" y2="363.7159"><stop offset="0.0000005358273" stop-color="#ffffff"></stop><stop offset="1" stop-color="#edf1f9"></stop></linearGradient><linearGradient gradientUnits="objectBoundingBox" id="SVGID_7_" node-id="62" spreadMethod="pad" x1="126.7714" x2="126.7714" y1="231.1463" y2="166.605"><stop offset="0.2332" stop-color="#ffffff"></stop><stop offset="1" stop-color="#d3dfee"></stop></linearGradient><linearGradient gradientUnits="objectBoundingBox" id="SVGID_8_" node-id="66" spreadMethod="pad" x1="643.8398" x2="643.8398" y1="194.3259" y2="129.7846"><stop offset="0.2332" stop-color="#ffffff"></stop><stop offset="1" stop-color="#d3dfee"></stop></linearGradient><linearGradient gradientUnits="objectBoundingBox" id="SVGID_9_" node-id="70" spreadMethod="pad" x1="514.0689" x2="514.0689" y1="237.4993" y2="190.7821"><stop offset="0.2332" stop-color="#ffffff"></stop><stop offset="1" stop-color="#d3dfee"></stop></linearGradient><linearGradient gradientUnits="objectBoundingBox" id="SVGID_10_" node-id="74" spreadMethod="pad" x1="400.2862" x2="400.2862" y1="753.0242" y2="400.8953"><stop offset="0.4065" stop-color="#ffffff"></stop><stop offset="1" stop-color="#dae4ef"></stop></linearGradient><linearGradient gradientUnits="objectBoundingBox" id="SVGID_11_" node-id="80" spreadMethod="pad" x1="191.2157" x2="139.7795" y1="576.48" y2="515.1807"><stop offset="0.4034" stop-color="#eff4f8"></stop><stop offset="1" stop-color="#d4dfec"></stop></linearGradient><linearGradient gradientUnits="objectBoundingBox" id="SVGID_12_" node-id="84" spreadMethod="pad" x1="112.1679" x2="176.3548" y1="456.1896" y2="456.1896"><stop offset="0.1022" stop-color="#f0f5f8"></stop><stop offset="1" stop-color="#b4c7dc"></stop></linearGradient><linearGradient gradientUnits="objectBoundingBox" id="SVGID_13_" node-id="90" spreadMethod="pad" x1="710.0778" x2="662.7124" y1="556.5074" y2="500.0595"><stop offset="0.4034" stop-color="#eff4f8"></stop><stop offset="1" stop-color="#d4dfec"></stop></linearGradient><linearGradient gradientUnits="objectBoundingBox" id="SVGID_14_" node-id="94" spreadMethod="pad" x1="637.2861" x2="696.393" y1="445.7372" y2="445.7372"><stop offset="0.1022" stop-color="#f0f5f8"></stop><stop offset="1" stop-color="#b4c7dc"></stop></linearGradient><linearGradient gradientUnits="objectBoundingBox" id="SVGID_15_" node-id="100" spreadMethod="pad" x1="251.4152" x2="225.974" y1="457.3366" y2="427.0169"><stop offset="0.0000001438503" stop-color="#eaeff6"></stop><stop offset="1" stop-color="#cddae9"></stop></linearGradient><linearGradient gradientUnits="objectBoundingBox" id="SVGID_16_" node-id="104" spreadMethod="pad" x1="212.3168" x2="244.0647" y1="397.8389" y2="397.8389"><stop offset="0.1022" stop-color="#f0f5f8"></stop><stop offset="1" stop-color="#b4c7dc"></stop></linearGradient><linearGradient gradientUnits="objectBoundingBox" id="SVGID_17_" node-id="110" spreadMethod="pad" x1="541.3365" x2="463.5646" y1="667.4052" y2="396.1824"><stop offset="0.0938" stop-color="#ffffff"></stop><stop offset="0.9362" stop-color="#bbcbe0"></stop></linearGradient><linearGradient gradientUnits="objectBoundingBox" id="SVGID_18_" node-id="114" spreadMethod="pad" x1="287.9778" x2="454.4445" y1="367.5066" y2="367.5066"><stop offset="0.0000002877006" stop-color="#e0e8f2"></stop><stop offset="1" stop-color="#b6c9de"></stop></linearGradient><linearGradient gradientUnits="objectBoundingBox" id="SVGID_19_" node-id="118" spreadMethod="pad" x1="287.9778" x2="454.4445" y1="408.9109" y2="408.9109"><stop offset="0.1453" stop-color="#f5f8fb"></stop><stop offset="1" stop-color="#d8e3ef"></stop></linearGradient><linearGradient gradientUnits="objectBoundingBox" id="SVGID_20_" node-id="122" spreadMethod="pad" x1="454.3232" x2="567.0399" y1="382.7337" y2="382.7337"><stop offset="0" stop-color="#d5e0ed"></stop><stop offset="1" stop-color="#9fb7ce"></stop></linearGradient><linearGradient gradientUnits="objectBoundingBox" id="SVGID_21_" node-id="126" spreadMethod="pad" x1="543.0164" x2="567.04" y1="420.8317" y2="420.8317"><stop offset="0" stop-color="#eff3f9"></stop><stop offset="1" stop-color="#b6c9de"></stop></linearGradient><linearGradient gradientUnits="objectBoundingBox" id="SVGID_22_" node-id="132" spreadMethod="pad" x1="280.2353" x2="576.5266" y1="448.7512" y2="448.7512"><stop offset="0" stop-color="#eff3f9"></stop><stop offset="1" stop-color="#b6c9de"></stop></linearGradient><linearGradient gradientUnits="objectBoundingBox" id="SVGID_23_" node-id="137" spreadMethod="pad" x1="308.2401" x2="370.4831" y1="456.4172" y2="456.4172"><stop offset="0" stop-color="#dfe8f3"></stop><stop offset="1" stop-color="#9fb7ce"></stop></linearGradient><linearGradient gradientUnits="objectBoundingBox" id="SVGID_24_" node-id="141" spreadMethod="pad" x1="323.1892" x2="355.5341" y1="456.4172" y2="456.4172"><stop offset="0.1453" stop-color="#ffffff"></stop><stop offset="1" stop-color="#d8e3ef"></stop></linearGradient><linearGradient gradientUnits="objectBoundingBox" id="SVGID_25_" node-id="145" spreadMethod="pad" x1="487.8712" x2="550.1143" y1="456.4172" y2="456.4172"><stop offset="0" stop-color="#dfe8f3"></stop><stop offset="1" stop-color="#9fb7ce"></stop></linearGradient><linearGradient gradientUnits="objectBoundingBox" id="SVGID_26_" node-id="149" spreadMethod="pad" x1="502.8203" x2="535.1652" y1="456.4172" y2="456.4172"><stop offset="0.1453" stop-color="#ffffff"></stop><stop offset="1" stop-color="#d8e3ef"></stop></linearGradient><linearGradient gradientUnits="objectBoundingBox" id="SVGID_27_" node-id="154" spreadMethod="pad" x1="377.365" x2="399.79" y1="329.6396" y2="329.6396"><stop offset="0.1453" stop-color="#ffffff"></stop><stop offset="1" stop-color="#d8e3ef"></stop></linearGradient><linearGradient gradientUnits="objectBoundingBox" id="SVGID_28_" node-id="158" spreadMethod="pad" x1="345.0221" x2="367.5405" y1="329.6439" y2="329.6439"><stop offset="0.1453" stop-color="#ffffff"></stop><stop offset="1" stop-color="#d8e3ef"></stop></linearGradient><linearGradient gradientUnits="objectBoundingBox" id="SVGID_29_" node-id="162" spreadMethod="pad" x1="342.9775" x2="401.7012" y1="360.8237" y2="360.8237"><stop offset="0.1453" stop-color="#ffffff"></stop><stop offset="1" stop-color="#d8e3ef"></stop></linearGradient><linearGradient gradientUnits="objectBoundingBox" id="SVGID_30_" node-id="167" spreadMethod="pad" x1="300.9272" x2="259.0834" y1="684.5671" y2="538.6403"><stop offset="0.2949" stop-color="#ffffff"></stop><stop offset="0.9362" stop-color="#d6e1ed"></stop></linearGradient><linearGradient gradientUnits="objectBoundingBox" id="SVGID_31_" node-id="177" spreadMethod="pad" x1="236.9659" x2="236.9659" y1="533.4318" y2="479.8275"><stop offset="0" stop-color="#4ea2f4"></stop><stop offset="0.6903" stop-color="#1e77cf"></stop></linearGradient><linearGradient gradientUnits="objectBoundingBox" id="SVGID_32_" node-id="181" spreadMethod="pad" x1="250.7812" x2="250.7812" y1="531.9191" y2="476.974"><stop offset="0" stop-color="#78c8ff"></stop><stop offset="0.6903" stop-color="#2a80e2"></stop></linearGradient><linearGradient gradientUnits="objectBoundingBox" id="SVGID_33_" node-id="187" spreadMethod="pad" x1="8796.536" x2="8796.536" y1="-2887.6318" y2="-2911.836"><stop offset="0" stop-color="#f2a319"></stop><stop offset="0.4796" stop-color="#ffc552"></stop></linearGradient><linearGradient gradientUnits="objectBoundingBox" id="SVGID_34_" node-id="191" spreadMethod="pad" x1="207.3071" x2="234.7297" y1="459.3751" y2="461.5116"><stop offset="0" stop-color="#dfe8f3"></stop><stop offset="1" stop-color="#9fb7ce"></stop></linearGradient><linearGradient gradientUnits="objectBoundingBox" id="SVGID_35_" node-id="195" spreadMethod="pad" x1="216.2736" x2="225.9058" y1="454.9916" y2="455.742"><stop offset="0.1453" stop-color="#ffffff"></stop><stop offset="1" stop-color="#d8e3ef"></stop></linearGradient><linearGradient gradientUnits="objectBoundingBox" id="SVGID_36_" node-id="199" spreadMethod="pad" x1="205.6915" x2="236.0458" y1="445.8642" y2="448.2292"><stop offset="0" stop-color="#eff3f9"></stop><stop offset="1" stop-color="#b6c9de"></stop></linearGradient><linearGradient gradientUnits="objectBoundingBox" id="SVGID_37_" node-id="204" spreadMethod="pad" x1="8801.209" x2="8815.112" y1="-2900.5781" y2="-2899.4949"><stop offset="0" stop-color="#f2a319"></stop><stop offset="0.4796" stop-color="#ffc552"></stop></linearGradient></defs><g node-id="633"><g node-id="643"><path d="M 270.29 330.01 L 270.29 326.60 L 240.79 326.60 L 240.79 330.56 L 234.31 330.56 L 234.31 423.39 L 277.36 423.39 L 277.36 330.01 L 270.29 330.01 Z M 273.63 412.75 L 237.59 412.75 L 237.59 410.00 L 273.63 410.00 L 273.63 412.75 Z M 273.63 400.07 L 237.59 400.07 L 237.59 397.32 L 273.63 397.32 L 273.63 400.07 Z M 273.63 387.39 L 237.59 387.39 L 237.59 384.64 L 273.63 384.64 L 273.63 387.39 Z M 273.63 375.05 L 237.59 375.05 L 237.59 372.30 L 273.63 372.30 L 273.63 375.05 Z M 273.63 362.74 L 237.59 362.74 L 237.59 359.99 L 273.63 359.99 L 273.63 362.74 Z M 273.63 350.06 L 237.59 350.06 L 237.59 347.31 L 273.63 347.31 L 273.63 350.06 Z M 273.63 337.72 L 237.59 337.72 L 237.59 334.97 L 273.63 334.97 L 273.63 337.72 Z" fill="url(#SVGID_1_)" fill-rule="nonzero" group-id="33,43" node-id="477" stroke="none" target-height="96.79001" target-width="43.049988" target-x="234.31" target-y="326.6"></path><path d="M 212.30 381.82 L 212.30 273.64 L 179.55 273.64 L 179.55 264.90 L 165.69 264.90 L 165.69 318.23 L 161.96 318.23 L 161.96 481.39 L 220.47 481.39 L 220.47 381.83 L 212.30 381.83 Z M 187.81 413.63 L 179.55 413.63 L 179.55 405.62 L 187.81 405.62 L 187.81 413.63 Z M 187.81 401.10 L 179.55 401.10 L 179.55 393.09 L 187.81 393.09 L 187.81 401.10 Z M 187.81 388.63 L 179.55 388.63 L 179.55 380.62 L 187.81 380.62 L 187.81 388.63 Z M 187.81 376.19 L 179.55 376.19 L 179.55 368.18 L 187.81 368.18 L 187.81 376.19 Z M 187.81 363.66 L 179.55 363.66 L 179.55 355.65 L 187.81 355.65 L 187.81 363.66 Z M 187.81 338.66 L 179.55 338.66 L 179.55 330.65 L 187.81 330.65 L 187.81 338.66 Z M 187.81 326.13 L 179.55 326.13 L 179.55 318.12 L 187.81 318.12 L 187.81 326.13 Z M 187.81 313.65 L 179.55 313.65 L 179.55 305.64 L 187.81 305.64 L 187.81 313.65 Z M 187.81 301.22 L 179.55 301.22 L 179.55 293.21 L 187.81 293.21 L 187.81 301.22 Z M 187.81 288.69 L 179.55 288.69 L 179.55 280.68 L 187.81 280.68 L 187.81 288.69 Z M 200.16 413.63 L 191.90 413.63 L 191.90 405.62 L 200.16 405.62 L 200.16 413.63 Z M 200.16 401.10 L 191.90 401.10 L 191.90 393.09 L 200.16 393.09 L 200.16 401.10 Z M 200.16 388.63 L 191.90 388.63 L 191.90 380.62 L 200.16 380.62 L 200.16 388.63 Z M 200.16 376.19 L 191.90 376.19 L 191.90 368.18 L 200.16 368.18 L 200.16 376.19 Z M 200.16 363.66 L 191.90 363.66 L 191.90 355.65 L 200.16 355.65 L 200.16 363.66 Z M 200.16 338.66 L 191.90 338.66 L 191.90 330.65 L 200.16 330.65 L 200.16 338.66 Z M 200.16 326.13 L 191.90 326.13 L 191.90 318.12 L 200.16 318.12 L 200.16 326.13 Z M 200.16 313.65 L 191.90 313.65 L 191.90 305.64 L 200.16 305.64 L 200.16 313.65 Z M 200.16 301.22 L 191.90 301.22 L 191.90 293.21 L 200.16 293.21 L 200.16 301.22 Z M 200.16 288.69 L 191.90 288.69 L 191.90 280.68 L 200.16 280.68 L 200.16 288.69 Z" fill="url(#SVGID_2_)" fill-rule="nonzero" group-id="33,43" node-id="479" stroke="none" target-height="216.49002" target-width="58.509995" target-x="161.96" target-y="264.9"></path><path d="M 534.61 438.71 C 534.97 434.06 534.61 282.23 534.61 282.23 L 553.14 282.23 L 553.14 315.94 L 582.64 315.94 L 582.64 386.39 L 599.37 386.39 L 599.37 438.71 L 534.61 438.71 Z" fill="url(#SVGID_3_)" fill-rule="nonzero" group-id="33,43" node-id="481" stroke="none" target-height="156.47998" target-width="64.76001" target-x="534.61" target-y="282.23"></path><path d="M 655.83 370.56 L 655.83 365.71 L 650.83 365.71 L 650.83 323.38 L 638.63 323.38 L 638.63 318.68 L 630.40 318.68 L 630.40 311.77 L 626.11 311.77 L 626.11 291.63 L 623.02 291.63 L 623.02 311.91 L 619.08 311.91 L 619.08 318.82 L 606.88 318.82 L 606.88 330.14 L 599.83 330.14 L 599.83 461.37 L 659.21 461.37 L 659.21 370.55 L 655.83 370.55 Z M 610.32 423.34 L 606.30 423.34 L 606.30 408.10 L 610.32 408.10 L 610.32 423.34 Z M 610.32 404.69 L 606.30 404.69 L 606.30 389.45 L 610.32 389.45 L 610.32 404.69 Z M 610.32 386.04 L 606.30 386.04 L 606.30 370.80 L 610.32 370.80 L 610.32 386.04 Z M 610.32 367.06 L 606.30 367.06 L 606.30 351.82 L 610.32 351.82 L 610.32 367.06 Z M 610.32 348.07 L 606.30 348.07 L 606.30 332.83 L 610.32 332.83 L 610.32 348.07 Z M 618.60 423.34 L 614.58 423.34 L 614.58 408.10 L 618.60 408.10 L 618.60 423.34 Z M 618.60 404.69 L 614.58 404.69 L 614.58 389.45 L 618.60 389.45 L 618.60 404.69 Z M 618.60 386.04 L 614.58 386.04 L 614.58 370.80 L 618.60 370.80 L 618.60 386.04 Z M 618.60 367.06 L 614.58 367.06 L 614.58 351.82 L 618.60 351.82 L 618.60 367.06 Z M 618.60 348.07 L 614.58 348.07 L 614.58 332.83 L 618.60 332.83 L 618.60 348.07 Z M 626.87 423.34 L 622.85 423.34 L 622.85 408.10 L 626.87 408.10 L 626.87 423.34 Z M 626.87 404.69 L 622.85 404.69 L 622.85 389.45 L 626.87 389.45 L 626.87 404.69 Z M 626.87 386.04 L 622.85 386.04 L 622.85 370.80 L 626.87 370.80 L 626.87 386.04 Z M 626.87 367.06 L 622.85 367.06 L 622.85 351.82 L 626.87 351.82 L 626.87 367.06 Z M 626.87 348.07 L 622.85 348.07 L 622.85 332.83 L 626.87 332.83 L 626.87 348.07 Z M 635.15 423.34 L 631.13 423.34 L 631.13 408.10 L 635.15 408.10 L 635.15 423.34 Z M 635.15 404.69 L 631.13 404.69 L 631.13 389.45 L 635.15 389.45 L 635.15 404.69 Z M 635.15 386.04 L 631.13 386.04 L 631.13 370.80 L 635.15 370.80 L 635.15 386.04 Z M 635.15 367.06 L 631.13 367.06 L 631.13 351.82 L 635.15 351.82 L 635.15 367.06 Z M 635.15 348.07 L 631.13 348.07 L 631.13 332.83 L 635.15 332.83 L 635.15 348.07 Z M 643.43 423.34 L 639.41 423.34 L 639.41 408.10 L 643.43 408.10 L 643.43 423.34 Z M 643.43 404.69 L 639.41 404.69 L 639.41 389.45 L 643.43 389.45 L 643.43 404.69 Z M 643.43 386.04 L 639.41 386.04 L 639.41 370.80 L 643.43 370.80 L 643.43 386.04 Z M 643.43 367.06 L 639.41 367.06 L 639.41 351.82 L 643.43 351.82 L 643.43 367.06 Z M 643.43 348.07 L 639.41 348.07 L 639.41 332.83 L 643.43 332.83 L 643.43 348.07 Z" fill="url(#SVGID_4_)" fill-rule="nonzero" group-id="33,43" node-id="483" stroke="none" target-height="169.73999" target-width="59.380005" target-x="599.83" target-y="291.63"></path><path d="M 94.18 503.45 L 94.18 413.91 L 104.44 413.91 L 104.44 368.21 L 139.70 352.94 L 139.70 413.19 L 147.43 413.19 L 147.43 503.45 Z" fill="url(#SVGID_5_)" fill-rule="nonzero" group-id="33,43" node-id="485" stroke="none" target-height="150.51001" target-width="53.249992" target-x="94.18" target-y="352.94"></path><path d="M 698.95 486.85 L 668.01 486.85 L 668.01 363.72 L 698.95 378.69 Z" fill="url(#SVGID_6_)" fill-rule="nonzero" group-id="33,43" node-id="487" stroke="none" target-height="123.129974" target-width="30.940002" target-x="668.01" target-y="363.72"></path><path d="M 89.00 190.04 C 89.00 190.04 98.34 164.56 121.30 174.56 C 126.60 169.18 133.16 165.27 142.03 167.03 C 150.90 168.79 156.62 175.44 158.56 179.86 C 161.34 179.73 183.60 180.47 183.60 203.56 C 183.60 226.65 156.66 226.21 154.71 224.38 C 152.31 226.52 140.77 238.13 126.77 224.88 C 123.74 227.47 113.84 238.44 98.19 223.30 C 90.94 226.33 73.71 228.66 70.37 210.87 C 67.03 193.09 84.16 188.06 89.00 190.04 Z" fill="url(#SVGID_7_)" fill-rule="nonzero" group-id="33,43" node-id="489" stroke="none" target-height="73.880005" target-width="116.57001" target-x="67.03" target-y="164.56"></path><path d="M 606.07 153.22 C 606.07 153.22 615.41 127.74 638.37 137.74 C 643.67 132.36 650.23 128.45 659.10 130.21 C 667.97 131.98 673.69 138.62 675.63 143.04 C 678.41 142.91 700.67 143.65 700.67 166.74 C 700.67 189.83 673.73 189.39 671.78 187.56 C 669.38 189.70 657.84 201.31 643.84 188.06 C 640.81 190.65 630.91 201.62 615.26 186.48 C 608.01 189.51 590.78 191.84 587.44 174.05 C 584.10 156.27 601.23 151.24 606.07 153.22 Z" fill="url(#SVGID_8_)" fill-rule="nonzero" group-id="33,43" node-id="491" stroke="none" target-height="73.88" target-width="116.56995" target-x="584.1" target-y="127.74"></path><path d="M 486.73 207.74 C 486.73 207.74 493.49 189.29 510.11 196.54 C 513.95 192.64 518.69 189.81 525.12 191.09 C 531.54 192.37 535.68 197.18 537.08 200.37 C 539.09 200.28 555.21 200.81 555.21 217.52 C 555.21 234.23 535.71 233.91 534.30 232.59 C 532.56 234.14 524.21 242.54 514.07 232.96 C 511.88 234.83 504.71 242.78 493.39 231.82 C 488.14 234.01 475.67 235.70 473.25 222.82 C 470.83 209.94 483.23 206.31 486.73 207.74 Z" fill="url(#SVGID_9_)" fill-rule="nonzero" group-id="33,43" node-id="493" stroke="none" target-height="53.49002" target-width="84.380035" target-x="470.83" target-y="189.28998"></path><path d="M 771.27 576.96 C 771.27 623.65 732.18 668.44 662.61 701.45 C 593.04 734.47 498.68 753.02 400.29 753.02 C 301.90 753.02 207.54 734.47 137.97 701.45 C 68.40 668.44 29.31 623.65 29.31 576.96 C 29.31 530.27 68.40 485.48 137.97 452.47 C 207.54 419.45 301.90 400.90 400.29 400.90 C 498.68 400.90 593.04 419.45 662.61 452.47 C 732.18 485.48 771.27 530.27 771.27 576.96 Z" fill="url(#SVGID_10_)" fill-rule="nonzero" group-id="33,43" node-id="495" stroke="none" target-height="352.12" target-width="741.96" target-x="29.309998" target-y="400.90002"></path></g><g node-id="644"><g node-id="647"><path d="M 146.23 555.43 C 146.23 555.43 142.70 560.44 148.60 567.90 C 153.86 574.54 162.17 573.25 164.93 571.12 C 165.78 576.90 172.87 589.08 184.09 582.19 C 194.64 575.72 189.56 565.88 186.19 562.01 C 192.78 560.15 197.69 544.36 182.57 538.91 C 184.81 532.39 185.21 529.44 181.93 523.58 C 178.77 517.94 173.58 517.04 165.30 520.47 L 153.32 525.52 L 145.69 511.28 L 141.61 513.64 L 150.41 527.24 L 138.75 533.09 C 138.75 533.09 128.78 536.99 133.08 547.69 C 137.07 557.60 146.23 555.43 146.23 555.43 Z" fill="url(#SVGID_11_)" fill-rule="nonzero" group-id="33,44,47" node-id="501" stroke="none" target-height="77.80002" target-width="68.91" target-x="128.78" target-y="511.28"></path><path d="M 125.94 494.71 L 162.00 494.71 C 162.00 494.71 173.65 495.04 175.97 481.73 C 178.52 467.12 167.89 465.11 167.89 465.11 C 167.89 465.11 174.29 462.17 172.90 451.12 C 171.51 440.07 161.78 438.68 157.73 439.19 C 158.39 432.64 159.77 417.81 144.37 417.66 C 129.50 417.51 129.59 432.48 130.70 438.38 C 125.40 438.44 109.39 446.39 120.65 463.83 C 114.52 469.08 111.93 472.11 112.20 479.68 C 112.46 487.26 117.10 494.71 125.94 494.71 Z" fill="url(#SVGID_12_)" fill-rule="nonzero" group-id="33,44,47" node-id="503" stroke="none" target-height="77.53003" target-width="69.130005" target-x="109.39" target-y="417.50998"></path><path d="M 161.11 474.48 L 145.73 484.60 L 145.31 474.81 L 155.03 463.35 L 145.16 471.33 L 143.88 441.43 L 142.94 471.53 L 132.56 463.27 L 142.84 474.59 L 142.53 484.66 L 126.71 473.04 L 142.41 488.30 L 141.62 513.65 L 146.97 513.65 L 145.89 488.45 Z" fill="#c6d5e6" fill-rule="nonzero" group-id="33,44,47" node-id="505" stroke="none" target-height="72.22006" target-width="34.4" target-x="126.71" target-y="441.42996"></path></g><g node-id="648"><path d="M 668.66 537.12 C 668.66 537.12 665.41 541.74 670.84 548.60 C 675.68 554.72 683.34 553.53 685.88 551.56 C 686.66 556.88 693.20 568.09 703.53 561.76 C 713.24 555.80 708.57 546.74 705.46 543.18 C 711.53 541.47 716.05 526.92 702.13 521.91 C 704.20 515.91 704.57 513.19 701.54 507.80 C 698.63 502.61 693.85 501.77 686.23 504.94 L 675.19 509.59 L 668.16 496.48 L 664.41 498.65 L 672.51 511.17 L 661.78 516.56 C 661.78 516.56 652.60 520.15 656.56 530.01 C 660.22 539.13 668.66 537.12 668.66 537.12 Z" fill="url(#SVGID_13_)" fill-rule="nonzero" group-id="33,44,48" node-id="510" stroke="none" target-height="71.610016" target-width="63.450073" target-x="652.6" target-y="496.48"></path><path d="M 649.96 481.21 L 683.16 481.21 C 683.16 481.21 693.89 481.52 696.02 469.26 C 698.36 455.81 688.58 453.96 688.58 453.96 C 688.58 453.96 694.48 451.25 693.19 441.08 C 691.90 430.91 682.95 429.62 679.22 430.10 C 679.83 424.07 681.10 410.41 666.92 410.27 C 653.23 410.13 653.31 423.91 654.33 429.35 C 649.45 429.40 634.70 436.72 645.08 452.79 C 639.44 457.62 637.05 460.42 637.30 467.38 C 637.56 474.35 641.83 481.21 649.96 481.21 Z" fill="url(#SVGID_14_)" fill-rule="nonzero" group-id="33,44,48" node-id="512" stroke="none" target-height="71.38995" target-width="63.659973" target-x="634.7" target-y="410.13004"></path><path d="M 682.35 462.58 L 668.19 471.89 L 667.81 462.88 L 676.76 452.33 L 667.67 459.68 L 666.49 432.14 L 665.62 459.86 L 656.07 452.25 L 665.53 462.68 L 665.24 471.96 L 650.68 461.25 L 665.14 475.30 L 664.40 498.65 L 669.34 498.65 L 668.34 475.44 Z" fill="#c6d5e6" fill-rule="nonzero" group-id="33,44,48" node-id="514" stroke="none" target-height="66.50998" target-width="31.669983" target-x="650.68" target-y="432.14"></path></g><g node-id="649"><path d="M 229.17 446.92 C 229.17 446.92 227.42 449.40 230.34 453.09 C 232.94 456.38 237.05 455.74 238.42 454.68 C 238.84 457.54 242.35 463.56 247.90 460.16 C 253.12 456.96 250.61 452.09 248.94 450.18 C 252.20 449.26 254.63 441.45 247.15 438.76 C 248.26 435.54 248.46 434.08 246.83 431.18 C 245.27 428.39 242.70 427.94 238.61 429.64 L 232.68 432.14 L 228.91 425.10 L 226.89 426.27 L 231.24 432.99 L 225.47 435.88 C 225.47 435.88 220.54 437.81 222.67 443.10 C 224.64 448.00 229.17 446.92 229.17 446.92 Z" fill="url(#SVGID_15_)" fill-rule="nonzero" group-id="33,44,49" node-id="519" stroke="none" target-height="38.45999" target-width="34.09001" target-x="220.54" target-y="425.1"></path><path d="M 219.13 416.89 L 236.96 416.89 C 236.96 416.89 242.72 417.05 243.87 410.47 C 245.13 403.24 239.87 402.25 239.87 402.25 C 239.87 402.25 243.04 400.79 242.35 395.33 C 241.66 389.87 236.85 389.18 234.85 389.43 C 235.18 386.19 235.86 378.85 228.24 378.78 C 220.88 378.71 220.93 386.11 221.48 389.03 C 218.86 389.06 210.94 392.99 216.51 401.62 C 213.48 404.21 212.19 405.72 212.33 409.46 C 212.47 413.20 214.76 416.89 219.13 416.89 Z" fill="url(#SVGID_16_)" fill-rule="nonzero" group-id="33,44,49" node-id="521" stroke="none" target-height="38.339996" target-width="34.190018" target-x="210.94" target-y="378.70996"></path><path d="M 236.52 406.88 L 228.92 411.89 L 228.71 407.05 L 233.52 401.38 L 228.64 405.33 L 228.00 390.54 L 227.54 405.42 L 222.40 401.34 L 227.49 406.94 L 227.33 411.92 L 219.51 406.17 L 227.28 413.72 L 226.88 426.26 L 229.53 426.26 L 229.00 413.79 Z" fill="#c6d5e6" fill-rule="nonzero" group-id="33,44,49" node-id="523" stroke="none" target-height="35.72003" target-width="17.010025" target-x="219.50998" target-y="390.54"></path></g></g><g node-id="645"><path d="M 567.21 453.16 C 573.39 458.90 721.37 603.34 721.37 603.34 L 416.58 703.17 L 280.24 448.75 L 567.21 453.16 Z" fill="url(#SVGID_17_)" fill-rule="nonzero" group-id="33,45" node-id="529" stroke="none" target-height="254.41995" target-width="441.13" target-x="280.24" target-y="448.75003"></path><path d="M 454.44 440.55 L 287.98 440.55 L 287.98 301.28 C 287.98 297.51 291.03 294.46 294.80 294.46 L 447.63 294.46 C 451.40 294.46 454.45 297.51 454.45 301.28 L 454.45 440.55 Z" fill="url(#SVGID_18_)" fill-rule="nonzero" group-id="33,45" node-id="531" stroke="none" target-height="146.09" target-width="166.47" target-x="287.98" target-y="294.46"></path><path d="M 287.98 403.36 L 454.45 403.36 L 454.45 414.46 L 287.98 414.46 Z" fill="url(#SVGID_19_)" fill-rule="nonzero" group-id="33,45" node-id="533" stroke="none" target-height="11.100006" target-width="166.47" target-x="287.98" target-y="403.36"></path><path d="M 524.96 324.92 L 454.33 324.92 L 454.33 440.55 L 567.05 440.55 L 567.05 399.29 C 567.05 397.42 566.60 395.59 565.74 393.93 L 532.20 329.32 C 530.79 326.62 528.00 324.92 524.96 324.92 Z M 479.68 389.53 L 463.12 389.53 L 463.12 336.75 L 479.68 336.75 L 479.68 389.53 Z M 492.06 389.53 L 492.06 336.75 L 519.27 336.75 L 548.84 389.53 L 492.06 389.53 Z" fill="url(#SVGID_20_)" fill-rule="nonzero" group-id="33,45" node-id="535" stroke="none" target-height="115.629974" target-width="112.72" target-x="454.33" target-y="324.92"></path><path d="M 543.02 413.01 L 567.04 413.01 L 567.04 428.66 L 543.02 428.66 Z" fill="url(#SVGID_21_)" fill-rule="nonzero" group-id="33,45" node-id="537" stroke="none" target-height="15.649994" target-width="24.02002" target-x="543.02" target-y="413.01"></path><path d="M 509.08 378.19 L 531.19 357.92 L 533.68 362.35 L 523.64 371.54 L 512.41 381.82 C 511.44 382.70 509.95 382.68 509.02 381.76 L 509.02 381.76 C 508.01 380.77 508.04 379.14 509.08 378.19 Z" fill="#aabfd4" fill-rule="nonzero" group-id="33,45" node-id="539" stroke="none" target-height="24.779968" target-width="25.669983" target-x="508.01" target-y="357.92004"></path><path d="M 542.59 389.53 L 523.91 371.03 L 519.78 374.85 L 534.89 389.47 Z" fill="#aabfd4" fill-rule="nonzero" group-id="33,45" node-id="541" stroke="none" target-height="18.49997" target-width="22.809998" target-x="519.78" target-y="371.03003"></path><path d="M 568.32 456.96 L 288.44 456.96 C 283.91 456.96 280.23 453.29 280.23 448.75 L 280.23 448.75 C 280.23 444.22 283.90 440.54 288.44 440.54 L 568.32 440.54 C 572.85 440.54 576.53 444.21 576.53 448.75 L 576.53 448.75 C 576.53 453.28 572.85 456.96 568.32 456.96 Z" fill="url(#SVGID_22_)" fill-rule="nonzero" group-id="33,45" node-id="543" stroke="none" target-height="16.419983" target-width="296.30002" target-x="280.23" target-y="440.54"></path><path d="M 491.51 408.36 L 474.40 408.36 C 472.84 408.36 471.58 407.10 471.58 405.54 L 471.58 405.54 C 471.58 403.98 472.84 402.72 474.40 402.72 L 491.51 402.72 C 493.07 402.72 494.33 403.98 494.33 405.54 L 494.33 405.54 C 494.33 407.10 493.07 408.36 491.51 408.36 Z" fill="#aabfd4" fill-rule="nonzero" group-id="33,45" node-id="545" stroke="none" target-height="5.639984" target-width="22.75" target-x="471.58" target-y="402.72"></path><path d="M 370.48 456.42 C 370.48 473.61 356.55 487.54 339.36 487.54 C 322.17 487.54 308.24 473.61 308.24 456.42 C 308.24 439.23 322.17 425.30 339.36 425.30 C 356.55 425.30 370.48 439.23 370.48 456.42 Z" fill="url(#SVGID_23_)" fill-rule="nonzero" group-id="33,45" node-id="547" stroke="none" target-height="62.23999" target-width="62.23996" target-x="308.24" target-y="425.30002"></path><path d="M 355.53 456.42 C 355.53 460.71 353.83 464.82 350.79 467.85 C 347.76 470.89 343.65 472.59 339.36 472.59 C 335.07 472.59 330.96 470.89 327.93 467.85 C 324.89 464.82 323.19 460.71 323.19 456.42 C 323.19 452.13 324.89 448.02 327.93 444.99 C 330.96 441.95 335.07 440.25 339.36 440.25 C 343.65 440.25 347.76 441.95 350.79 444.99 C 353.83 448.02 355.53 452.13 355.53 456.42 Z" fill="url(#SVGID_24_)" fill-rule="nonzero" group-id="33,45" node-id="549" stroke="none" target-height="32.339996" target-width="32.340057" target-x="323.18997" target-y="440.25"></path><path d="M 550.11 456.42 C 550.11 473.61 536.18 487.54 518.99 487.54 C 501.80 487.54 487.87 473.61 487.87 456.42 C 487.87 439.23 501.80 425.30 518.99 425.30 C 536.18 425.30 550.11 439.23 550.11 456.42 Z" fill="url(#SVGID_25_)" fill-rule="nonzero" group-id="33,45" node-id="551" stroke="none" target-height="62.23999" target-width="62.23996" target-x="487.87003" target-y="425.30002"></path><path d="M 535.16 456.42 C 535.16 465.35 527.92 472.59 518.99 472.59 C 514.70 472.59 510.59 470.89 507.56 467.85 C 504.52 464.82 502.82 460.71 502.82 456.42 C 502.82 452.13 504.52 448.02 507.56 444.99 C 510.59 441.95 514.70 440.25 518.99 440.25 C 527.92 440.25 535.16 447.49 535.16 456.42 Z" fill="url(#SVGID_26_)" fill-rule="nonzero" group-id="33,45" node-id="553" stroke="none" target-height="32.339996" target-width="32.339996" target-x="502.81998" target-y="440.25"></path><g node-id="650"><path d="M 378.42 334.04 C 378.42 334.50 378.80 334.88 379.27 334.87 L 398.84 334.87 L 398.85 334.87 C 399.49 334.87 400.00 334.60 399.69 333.80 L 393.32 325.04 C 393.07 324.60 392.50 324.40 392.04 324.40 L 378.21 324.40 C 377.74 324.40 377.36 324.78 377.36 325.26 L 378.42 334.02 C 378.42 334.03 378.42 334.04 378.42 334.04 Z" fill="url(#SVGID_27_)" fill-rule="nonzero" group-id="33,45,50" node-id="557" stroke="none" target-height="10.480011" target-width="22.640015" target-x="377.36" target-y="324.4"></path><path d="M 345.96 334.88 L 365.61 334.88 L 365.61 334.88 C 366.09 334.88 366.46 334.50 366.46 334.03 L 367.53 325.27 C 367.53 324.79 367.15 324.41 366.67 324.41 L 352.80 324.41 C 352.32 324.41 351.76 324.61 351.52 325.05 L 345.11 333.81 C 344.81 334.59 345.31 334.88 345.96 334.88 Z" fill="url(#SVGID_28_)" fill-rule="nonzero" group-id="33,45,50" node-id="559" stroke="none" target-height="10.470001" target-width="22.720001" target-x="344.81" target-y="324.41"></path><path d="M 400.85 338.50 L 379.05 338.50 C 378.59 338.50 378.21 338.88 378.21 339.36 L 378.21 343.84 C 378.21 344.32 377.83 344.70 377.36 344.70 L 367.32 344.70 C 366.84 344.70 366.47 344.32 366.47 343.84 L 366.47 339.36 C 366.47 338.88 366.09 338.50 365.62 338.50 L 343.84 338.50 C 343.36 338.50 342.99 338.88 342.99 339.36 L 342.99 382.29 C 342.99 382.76 343.37 383.14 343.84 383.14 L 400.86 383.14 L 400.86 383.14 C 400.87 383.14 400.87 383.14 400.88 383.14 C 401.34 383.13 401.71 382.74 401.70 382.28 L 401.70 339.36 C 401.70 338.88 401.31 338.50 400.85 338.50 Z M 386.71 364.95 L 376.89 375.96 C 375.91 377.01 374.26 377.06 373.22 376.08 C 372.17 375.10 372.12 373.45 373.10 372.41 L 379.17 365.54 L 379.17 365.54 L 357.59 365.54 C 356.91 365.54 356.36 364.38 356.36 362.94 C 356.36 361.50 356.91 360.34 357.59 360.34 L 378.75 360.34 L 373.11 353.95 C 372.13 352.90 372.18 351.26 373.23 350.28 C 374.28 349.30 375.92 349.35 376.90 350.40 L 386.71 361.41 C 387.65 362.40 387.65 363.95 386.71 364.95 Z" fill="url(#SVGID_29_)" fill-rule="nonzero" group-id="33,45,50" node-id="561" stroke="none" target-height="44.640015" target-width="58.72" target-x="342.99" target-y="338.5"></path></g></g><g node-id="646"><path d="M 270.37 536.59 L 342.97 662.83 L 274.21 684.85 L 210.27 539.53 L 229.22 537.24 L 270.38 585.68 L 251.09 542.50 Z" fill="url(#SVGID_30_)" fill-rule="nonzero" group-id="33,46" node-id="567" stroke="none" target-height="148.25995" target-width="132.7" target-x="210.27" target-y="536.59"></path><path d="M 259.44 530.38 C 259.44 530.38 261.35 530.98 260.31 535.21 C 263.85 535.34 266.79 532.90 266.79 532.90 L 264.79 527.01 L 259.44 530.38 Z" fill="#ffbe92" fill-rule="nonzero" group-id="33,46" node-id="569" stroke="none" target-height="8.330017" target-width="7.350006" target-x="259.44" target-y="527.01"></path><path d="M 222.31 530.07 C 222.31 530.07 222.98 531.16 220.46 534.69 C 223.71 536.13 228.24 535.15 228.24 535.15 L 228.53 528.95 L 222.31 530.07 Z" fill="#ffbe92" fill-rule="nonzero" group-id="33,46" node-id="571" stroke="none" target-height="7.1799927" target-width="8.069992" target-x="220.46" target-y="528.95"></path><path d="M 229.91 539.03 L 210.35 538.34 C 210.35 538.34 209.56 532.44 217.25 532.95 C 218.80 533.05 220.16 531.35 221.43 531.44 C 224.27 534.20 229.38 533.94 229.38 533.94 L 229.91 539.03 Z" fill="#f8b62d" fill-rule="nonzero" group-id="33,46" node-id="573" stroke="none" target-height="7.6800537" target-width="20.34999" target-x="209.56" target-y="531.35"></path><path d="M 230.26 540.33 L 221.62 540.79 L 221.36 539.21 L 210.27 539.53 L 210.10 538.19 L 229.99 537.41 Z" fill="#e6e8e8" fill-rule="nonzero" group-id="33,46" node-id="575" stroke="none" target-height="3.380005" target-width="20.159988" target-x="210.1" target-y="537.41"></path><path d="M 269.76 535.89 L 251.38 542.55 C 251.38 542.55 248.49 537.35 255.81 534.95 C 257.29 534.47 257.92 532.37 259.14 531.98 C 262.78 533.49 267.43 531.34 267.43 531.34 L 269.76 535.89 Z" fill="#f8b62d" fill-rule="nonzero" group-id="33,46" node-id="577" stroke="none" target-height="11.209961" target-width="21.270004" target-x="248.49" target-y="531.34"></path><path d="M 270.56 536.96 L 262.72 540.62 L 261.90 539.24 L 251.74 543.68 L 251.09 542.50 L 269.25 534.35 Z" fill="#e6e8e8" fill-rule="nonzero" group-id="33,46" node-id="579" stroke="none" target-height="9.330017" target-width="19.470001" target-x="251.09" target-y="534.35"></path><path d="M 235.74 480.11 C 235.74 480.11 228.51 494.63 227.35 502.97 C 226.19 511.31 222.01 530.63 222.01 530.63 L 228.61 533.43 C 228.61 533.43 236.83 510.70 237.51 508.27 C 238.19 505.84 247.23 494.58 247.23 494.58 L 251.93 479.83 L 235.74 480.11 Z" fill="url(#SVGID_31_)" fill-rule="nonzero" group-id="33,46" node-id="581" stroke="none" target-height="53.600006" target-width="29.919998" target-x="222.01" target-y="479.83"></path><path d="M 234.24 479.55 C 234.24 479.55 238.29 497.96 244.24 507.79 C 250.19 517.62 259.68 531.92 259.68 531.92 L 267.32 530.25 C 267.32 530.25 258.03 511.20 254.40 503.75 C 252.85 496.13 253.77 491.38 253.98 489.39 C 254.19 487.40 256.19 484.92 253.77 479.40 C 251.35 473.86 234.24 479.55 234.24 479.55 Z" fill="url(#SVGID_32_)" fill-rule="nonzero" group-id="33,46" node-id="583" stroke="none" target-height="58.059998" target-width="33.08" target-x="234.24" target-y="473.86"></path><path d="M 236.84 426.09 C 236.84 426.09 234.38 429.90 236.74 435.46 C 237.32 436.51 238.40 438.34 240.89 436.71 C 241.11 436.64 241.29 436.96 241.37 437.26 C 241.45 437.56 242.56 442.76 242.56 442.76 L 250.04 442.23 C 250.04 442.23 245.57 429.48 245.44 426.92 C 245.36 425.60 243.79 423.41 241.00 423.50 C 238.22 423.57 236.84 426.09 236.84 426.09 Z" fill="#ffbe92" fill-rule="nonzero" group-id="33,46" node-id="585" stroke="none" target-height="19.350037" target-width="15.659988" target-x="234.38" target-y="423.41"></path><path d="M 238.05 420.59 C 238.05 420.59 237.18 419.22 235.17 420.42 C 233.16 421.62 234.30 423.39 234.41 423.85 C 234.52 424.31 234.26 424.69 233.62 424.48 C 232.98 424.28 231.87 424.18 231.22 425.65 C 230.57 427.12 232.47 430.72 234.89 430.16 C 237.31 429.60 238.44 428.25 239.25 427.30 C 240.06 426.34 241.68 425.15 242.01 426.18 C 242.34 427.21 242.45 429.43 242.91 429.06 C 243.34 428.72 242.90 426.48 244.26 426.37 C 245.62 426.26 245.67 428.22 244.86 429.35 C 244.51 429.82 244.53 429.74 244.70 430.19 C 244.86 430.64 244.86 430.95 245.39 431.45 C 245.93 431.96 246.15 432.24 246.50 431.41 C 246.84 430.59 247.49 429.03 246.84 425.87 C 246.60 424.99 246.88 424.91 247.31 424.37 C 247.74 423.83 248.34 422.99 247.58 421.89 C 246.81 420.80 246.17 420.99 245.33 421.09 C 244.49 421.19 244.50 420.88 244.45 420.38 C 244.40 419.87 243.63 417.98 241.96 418.15 C 240.28 418.31 239.64 419.32 239.27 420.16 C 238.88 421.00 238.34 420.83 238.05 420.59 Z" fill="#171c61" fill-rule="nonzero" group-id="33,46" node-id="587" stroke="none" target-height="14.259979" target-width="17.769974" target-x="230.57" target-y="417.98"></path><path d="M 252.64 453.05 C 252.64 453.05 252.38 436.61 247.20 437.42 C 242.02 438.24 236.16 439.03 234.14 453.36 C 233.51 458.77 234.33 466.96 233.89 471.23 C 233.45 475.50 231.41 480.42 233.61 482.02 C 235.81 483.61 248.20 483.73 251.45 483.26 C 254.70 482.78 257.09 482.75 256.76 478.12 C 256.43 473.49 253.04 461.84 252.64 453.05 Z" fill="url(#SVGID_33_)" fill-rule="nonzero" group-id="33,46" node-id="589" stroke="none" target-height="47.120056" target-width="25.679977" target-x="231.41002" target-y="436.60995"></path><path d="M 231.69 470.43 L 210.53 470.43 C 209.13 470.43 207.99 469.29 207.99 467.89 L 207.99 450.66 L 234.23 450.66 L 234.23 467.89 C 234.23 469.29 233.09 470.43 231.69 470.43 Z" fill="url(#SVGID_34_)" fill-rule="nonzero" group-id="33,46" node-id="591" stroke="none" target-height="19.77002" target-width="26.240005" target-x="207.99" target-y="450.65997"></path><path d="M 225.57 460.01 L 221.06 458.29 L 216.61 460.01 L 216.61 450.73 L 225.57 450.73 Z" fill="url(#SVGID_35_)" fill-rule="nonzero" group-id="33,46" node-id="593" stroke="none" target-height="9.279999" target-width="8.960022" target-x="216.61" target-y="450.73"></path><path d="M 234.38 451.20 L 207.35 451.20 C 206.50 451.20 205.80 450.51 205.80 449.65 L 205.80 444.44 C 205.80 443.59 206.49 442.89 207.35 442.89 L 234.38 442.89 C 235.23 442.89 235.93 443.58 235.93 444.44 L 235.93 449.65 C 235.93 450.51 235.24 451.20 234.38 451.20 Z" fill="url(#SVGID_36_)" fill-rule="nonzero" group-id="33,46" node-id="595" stroke="none" target-height="8.310028" target-width="30.12999" target-x="205.8" target-y="442.88998"></path><path d="M 238.41 449.42 C 238.27 449.71 235.20 457.81 233.94 459.11 C 232.68 460.41 225.62 468.11 224.79 468.15 C 223.96 468.19 221.13 467.99 220.59 468.41 C 220.05 468.83 221.22 469.27 221.56 469.44 C 221.90 469.61 221.95 470.45 220.34 470.00 C 218.15 469.39 216.57 470.44 217.91 471.40 C 219.25 472.36 222.95 473.70 225.88 471.70 C 228.81 469.70 236.90 463.84 238.76 461.30 C 240.62 458.76 244.94 450.68 244.94 450.68 L 238.41 449.42 Z" fill="#ffbe92" fill-rule="nonzero" group-id="33,46" node-id="597" stroke="none" target-height="24.279999" target-width="28.37001" target-x="216.56999" target-y="449.42"></path><path d="M 236.34 449.01 L 242.77 456.23 C 242.77 456.23 251.35 448.27 246.09 443.54 C 240.83 438.81 236.34 449.01 236.34 449.01 Z" fill="url(#SVGID_37_)" fill-rule="nonzero" group-id="33,46" node-id="599" stroke="none" target-height="17.420013" target-width="15.010025" target-x="236.34" target-y="438.81"></path></g></g></svg>