<?xml version="1.0" standalone="no"?><!DOCTYPE svg PUBLIC "-//W3C//DTD SVG 1.1//EN" "http://www.w3.org/Graphics/SVG/1.1/DTD/svg11.dtd"><svg height="800" node-id="1" sillyvg="true" template-height="800" template-width="800" version="1.1" viewBox="0 0 800 800" width="800" xmlns="http://www.w3.org/2000/svg" xmlns:xlink="http://www.w3.org/1999/xlink"><defs node-id="171"><linearGradient gradientUnits="objectBoundingBox" id="SVGID_1_" node-id="19" spreadMethod="pad" x1="256.0968" x2="256.0968" y1="421.2973" y2="324.5091"><stop offset="0.0000005358273" stop-color="#ffffff"></stop><stop offset="1" stop-color="#dbe3ee"></stop></linearGradient><linearGradient gradientUnits="objectBoundingBox" id="SVGID_2_" node-id="23" spreadMethod="pad" x1="191.4798" x2="191.4798" y1="479.2892" y2="262.8002"><stop offset="0.0000005358273" stop-color="#ffffff"></stop><stop offset="1" stop-color="#dbe3ee"></stop></linearGradient><linearGradient gradientUnits="objectBoundingBox" id="SVGID_3_" node-id="27" spreadMethod="pad" x1="567.2614" x2="567.2614" y1="436.6104" y2="280.1296"><stop offset="0.0000005358273" stop-color="#ffffff"></stop><stop offset="1" stop-color="#dbe3ee"></stop></linearGradient><linearGradient gradientUnits="objectBoundingBox" id="SVGID_4_" node-id="31" spreadMethod="pad" x1="629.7863" x2="629.7863" y1="459.2804" y2="289.5397"><stop offset="0.0000005358273" stop-color="#ffffff"></stop><stop offset="1" stop-color="#dbe3ee"></stop></linearGradient><linearGradient gradientUnits="objectBoundingBox" id="SVGID_5_" node-id="35" spreadMethod="pad" x1="121.0737" x2="121.0737" y1="501.3589" y2="350.8455"><stop offset="0.0000005358273" stop-color="#ffffff"></stop><stop offset="1" stop-color="#edf1f9"></stop></linearGradient><linearGradient gradientUnits="objectBoundingBox" id="SVGID_6_" node-id="39" spreadMethod="pad" x1="683.7469" x2="683.7469" y1="484.7534" y2="361.6212"><stop offset="0.0000005358273" stop-color="#ffffff"></stop><stop offset="1" stop-color="#edf1f9"></stop></linearGradient><linearGradient gradientUnits="objectBoundingBox" id="SVGID_7_" node-id="43" spreadMethod="pad" x1="127.0373" x2="127.0373" y1="229.0516" y2="164.5103"><stop offset="0.2332" stop-color="#ffffff"></stop><stop offset="1" stop-color="#d3dfee"></stop></linearGradient><linearGradient gradientUnits="objectBoundingBox" id="SVGID_8_" node-id="47" spreadMethod="pad" x1="644.1058" x2="644.1058" y1="192.2311" y2="127.6899"><stop offset="0.2332" stop-color="#ffffff"></stop><stop offset="1" stop-color="#d3dfee"></stop></linearGradient><linearGradient gradientUnits="objectBoundingBox" id="SVGID_9_" node-id="51" spreadMethod="pad" x1="514.3348" x2="514.3348" y1="235.4046" y2="188.6874"><stop offset="0.2332" stop-color="#ffffff"></stop><stop offset="1" stop-color="#d3dfee"></stop></linearGradient><linearGradient gradientUnits="objectBoundingBox" id="SVGID_10_" node-id="55" spreadMethod="pad" x1="400.5522" x2="400.5522" y1="750.9294" y2="398.8005"><stop offset="0.4065" stop-color="#ffffff"></stop><stop offset="1" stop-color="#dae4ef"></stop></linearGradient><linearGradient gradientUnits="objectBoundingBox" id="SVGID_11_" node-id="61" spreadMethod="pad" x1="191.4817" x2="140.0455" y1="574.3853" y2="513.0859"><stop offset="0.4034" stop-color="#eff4f8"></stop><stop offset="1" stop-color="#d4dfec"></stop></linearGradient><linearGradient gradientUnits="objectBoundingBox" id="SVGID_12_" node-id="65" spreadMethod="pad" x1="112.4339" x2="176.6207" y1="454.0949" y2="454.0949"><stop offset="0.1022" stop-color="#f0f5f8"></stop><stop offset="1" stop-color="#b4c7dc"></stop></linearGradient><linearGradient gradientUnits="objectBoundingBox" id="SVGID_13_" node-id="71" spreadMethod="pad" x1="710.3438" x2="662.9784" y1="554.4127" y2="497.9648"><stop offset="0.4034" stop-color="#eff4f8"></stop><stop offset="1" stop-color="#d4dfec"></stop></linearGradient><linearGradient gradientUnits="objectBoundingBox" id="SVGID_14_" node-id="75" spreadMethod="pad" x1="637.5521" x2="696.659" y1="443.6424" y2="443.6424"><stop offset="0.1022" stop-color="#f0f5f8"></stop><stop offset="1" stop-color="#b4c7dc"></stop></linearGradient><linearGradient gradientUnits="objectBoundingBox" id="SVGID_15_" node-id="81" spreadMethod="pad" x1="251.6812" x2="226.2399" y1="455.2419" y2="424.9222"><stop offset="0.0000001438503" stop-color="#eaeff6"></stop><stop offset="1" stop-color="#cddae9"></stop></linearGradient><linearGradient gradientUnits="objectBoundingBox" id="SVGID_16_" node-id="85" spreadMethod="pad" x1="212.5827" x2="244.3307" y1="395.7441" y2="395.7441"><stop offset="0.1022" stop-color="#f0f5f8"></stop><stop offset="1" stop-color="#b4c7dc"></stop></linearGradient><linearGradient gradientUnits="objectBoundingBox" id="SVGID_17_" node-id="91" spreadMethod="pad" x1="537.0577" x2="456.9708" y1="702.5777" y2="423.2816"><stop offset="0.1648" stop-color="#ffffff"></stop><stop offset="0.9362" stop-color="#bbcbe0"></stop></linearGradient><linearGradient gradientUnits="objectBoundingBox" id="SVGID_18_" node-id="95" spreadMethod="pad" x1="299.4682" x2="519.6037" y1="254.8083" y2="254.8083"><stop offset="0" stop-color="#eff3f9"></stop><stop offset="1" stop-color="#b6c9de"></stop></linearGradient><linearGradient gradientUnits="objectBoundingBox" id="SVGID_19_" node-id="99" spreadMethod="pad" x1="263.2583" x2="374.7811" y1="325.5883" y2="325.5883"><stop offset="0" stop-color="#eff3f9"></stop><stop offset="1" stop-color="#b6c9de"></stop></linearGradient><linearGradient gradientUnits="objectBoundingBox" id="SVGID_20_" node-id="103" spreadMethod="pad" x1="374.7811" x2="564.1719" y1="325.5883" y2="325.5883"><stop offset="0" stop-color="#eff3f9"></stop><stop offset="1" stop-color="#b6c9de"></stop></linearGradient><linearGradient gradientUnits="objectBoundingBox" id="SVGID_21_" node-id="107" spreadMethod="pad" x1="271.3167" x2="374.7811" y1="434.8681" y2="434.8681"><stop offset="0" stop-color="#eff3f9"></stop><stop offset="1" stop-color="#b6c9de"></stop></linearGradient><linearGradient gradientUnits="objectBoundingBox" id="SVGID_22_" node-id="111" spreadMethod="pad" x1="374.7811" x2="559.5232" y1="436.162" y2="436.162"><stop offset="0" stop-color="#eff3f9"></stop><stop offset="1" stop-color="#b6c9de"></stop></linearGradient><linearGradient gradientUnits="objectBoundingBox" id="SVGID_23_" node-id="118" spreadMethod="pad" x1="374.7811" x2="559.5233" y1="370.6432" y2="370.6432"><stop offset="0" stop-color="#ffffff"></stop><stop offset="1" stop-color="#eef2f8"></stop></linearGradient><linearGradient gradientUnits="objectBoundingBox" id="SVGID_24_" node-id="124" spreadMethod="pad" x1="570.1172" x2="570.1172" y1="475.8546" y2="459.2368"><stop offset="0.3408" stop-color="#f4ae7f"></stop><stop offset="1" stop-color="#ffbe92"></stop></linearGradient><linearGradient gradientUnits="objectBoundingBox" id="SVGID_25_" node-id="132" spreadMethod="pad" x1="584.0698" x2="562.9752" y1="567.291" y2="509.3342"><stop offset="0" stop-color="#78c8ff"></stop><stop offset="0.6903" stop-color="#2a80e2"></stop></linearGradient><linearGradient gradientUnits="objectBoundingBox" id="SVGID_26_" node-id="138" spreadMethod="pad" x1="571.1412" x2="571.1412" y1="516.8079" y2="473.3618"><stop offset="0" stop-color="#f2a319"></stop><stop offset="0.4796" stop-color="#ffc552"></stop></linearGradient></defs><g node-id="453"><g node-id="482"><path d="M 270.55 327.91 L 270.55 324.50 L 241.05 324.50 L 241.05 328.46 L 234.57 328.46 L 234.57 421.29 L 277.62 421.29 L 277.62 327.91 L 270.55 327.91 Z M 273.89 410.65 L 237.85 410.65 L 237.85 407.90 L 273.89 407.90 L 273.89 410.65 Z M 273.89 397.98 L 237.85 397.98 L 237.85 395.23 L 273.89 395.23 L 273.89 397.98 Z M 273.89 385.30 L 237.85 385.30 L 237.85 382.55 L 273.89 382.55 L 273.89 385.30 Z M 273.89 372.96 L 237.85 372.96 L 237.85 370.21 L 273.89 370.21 L 273.89 372.96 Z M 273.89 360.64 L 237.85 360.64 L 237.85 357.89 L 273.89 357.89 L 273.89 360.64 Z M 273.89 347.97 L 237.85 347.97 L 237.85 345.22 L 273.89 345.22 L 273.89 347.97 Z M 273.89 335.62 L 237.85 335.62 L 237.85 332.87 L 273.89 332.87 L 273.89 335.62 Z" fill="url(#SVGID_1_)" fill-rule="nonzero" group-id="14,43" node-id="345" stroke="none" target-height="96.79004" target-width="43.049988" target-x="234.57" target-y="324.5"></path><path d="M 212.57 379.73 L 212.57 271.54 L 179.82 271.54 L 179.82 262.80 L 165.96 262.80 L 165.96 316.13 L 162.23 316.13 L 162.23 479.29 L 220.74 479.29 L 220.74 379.73 L 212.57 379.73 Z M 188.07 411.53 L 179.81 411.53 L 179.81 403.52 L 188.07 403.52 L 188.07 411.53 Z M 188.07 399.01 L 179.81 399.01 L 179.81 391.00 L 188.07 391.00 L 188.07 399.01 Z M 188.07 386.53 L 179.81 386.53 L 179.81 378.52 L 188.07 378.52 L 188.07 386.53 Z M 188.07 374.09 L 179.81 374.09 L 179.81 366.08 L 188.07 366.08 L 188.07 374.09 Z M 188.07 361.56 L 179.81 361.56 L 179.81 353.55 L 188.07 353.55 L 188.07 361.56 Z M 188.07 336.56 L 179.81 336.56 L 179.81 328.55 L 188.07 328.55 L 188.07 336.56 Z M 188.07 324.03 L 179.81 324.03 L 179.81 316.02 L 188.07 316.02 L 188.07 324.03 Z M 188.07 311.56 L 179.81 311.56 L 179.81 303.55 L 188.07 303.55 L 188.07 311.56 Z M 188.07 299.12 L 179.81 299.12 L 179.81 291.11 L 188.07 291.11 L 188.07 299.12 Z M 188.07 286.59 L 179.81 286.59 L 179.81 278.58 L 188.07 278.58 L 188.07 286.59 Z M 200.42 411.53 L 192.16 411.53 L 192.16 403.52 L 200.42 403.52 L 200.42 411.53 Z M 200.42 399.01 L 192.16 399.01 L 192.16 391.00 L 200.42 391.00 L 200.42 399.01 Z M 200.42 386.53 L 192.16 386.53 L 192.16 378.52 L 200.42 378.52 L 200.42 386.53 Z M 200.42 374.09 L 192.16 374.09 L 192.16 366.08 L 200.42 366.08 L 200.42 374.09 Z M 200.42 361.56 L 192.16 361.56 L 192.16 353.55 L 200.42 353.55 L 200.42 361.56 Z M 200.42 336.56 L 192.16 336.56 L 192.16 328.55 L 200.42 328.55 L 200.42 336.56 Z M 200.42 324.03 L 192.16 324.03 L 192.16 316.02 L 200.42 316.02 L 200.42 324.03 Z M 200.42 311.56 L 192.16 311.56 L 192.16 303.55 L 200.42 303.55 L 200.42 311.56 Z M 200.42 299.12 L 192.16 299.12 L 192.16 291.11 L 200.42 291.11 L 200.42 299.12 Z M 200.42 286.59 L 192.16 286.59 L 192.16 278.58 L 200.42 278.58 L 200.42 286.59 Z" fill="url(#SVGID_2_)" fill-rule="nonzero" group-id="14,43" node-id="347" stroke="none" target-height="216.49002" target-width="58.510025" target-x="162.23" target-y="262.8"></path><path d="M 534.88 436.61 C 535.24 431.96 534.88 280.13 534.88 280.13 L 553.41 280.13 L 553.41 313.84 L 582.91 313.84 L 582.91 384.29 L 599.64 384.29 L 599.64 436.61 L 534.88 436.61 Z" fill="url(#SVGID_3_)" fill-rule="nonzero" group-id="14,43" node-id="349" stroke="none" target-height="156.47995" target-width="64.76001" target-x="534.88" target-y="280.13"></path><path d="M 656.09 368.46 L 656.09 363.61 L 651.09 363.61 L 651.09 321.28 L 638.89 321.28 L 638.89 316.58 L 630.66 316.58 L 630.66 309.67 L 626.37 309.67 L 626.37 289.53 L 623.28 289.53 L 623.28 309.81 L 619.34 309.81 L 619.34 316.72 L 607.14 316.72 L 607.14 328.04 L 600.09 328.04 L 600.09 459.27 L 659.47 459.27 L 659.47 368.45 L 656.09 368.45 Z M 610.58 421.25 L 606.56 421.25 L 606.56 406.01 L 610.58 406.01 L 610.58 421.25 Z M 610.58 402.60 L 606.56 402.60 L 606.56 387.36 L 610.58 387.36 L 610.58 402.60 Z M 610.58 383.95 L 606.56 383.95 L 606.56 368.71 L 610.58 368.71 L 610.58 383.95 Z M 610.58 364.96 L 606.56 364.96 L 606.56 349.72 L 610.58 349.72 L 610.58 364.96 Z M 610.58 345.98 L 606.56 345.98 L 606.56 330.74 L 610.58 330.74 L 610.58 345.98 Z M 618.86 421.25 L 614.84 421.25 L 614.84 406.01 L 618.86 406.01 L 618.86 421.25 Z M 618.86 402.60 L 614.84 402.60 L 614.84 387.36 L 618.86 387.36 L 618.86 402.60 Z M 618.86 383.95 L 614.84 383.95 L 614.84 368.71 L 618.86 368.71 L 618.86 383.95 Z M 618.86 364.96 L 614.84 364.96 L 614.84 349.72 L 618.86 349.72 L 618.86 364.96 Z M 618.86 345.98 L 614.84 345.98 L 614.84 330.74 L 618.86 330.74 L 618.86 345.98 Z M 627.14 421.25 L 623.12 421.25 L 623.12 406.01 L 627.14 406.01 L 627.14 421.25 Z M 627.14 402.60 L 623.12 402.60 L 623.12 387.36 L 627.14 387.36 L 627.14 402.60 Z M 627.14 383.95 L 623.12 383.95 L 623.12 368.71 L 627.14 368.71 L 627.14 383.95 Z M 627.14 364.96 L 623.12 364.96 L 623.12 349.72 L 627.14 349.72 L 627.14 364.96 Z M 627.14 345.98 L 623.12 345.98 L 623.12 330.74 L 627.14 330.74 L 627.14 345.98 Z M 635.42 421.25 L 631.40 421.25 L 631.40 406.01 L 635.42 406.01 L 635.42 421.25 Z M 635.42 402.60 L 631.40 402.60 L 631.40 387.36 L 635.42 387.36 L 635.42 402.60 Z M 635.42 383.95 L 631.40 383.95 L 631.40 368.71 L 635.42 368.71 L 635.42 383.95 Z M 635.42 364.96 L 631.40 364.96 L 631.40 349.72 L 635.42 349.72 L 635.42 364.96 Z M 635.42 345.98 L 631.40 345.98 L 631.40 330.74 L 635.42 330.74 L 635.42 345.98 Z M 643.70 421.25 L 639.68 421.25 L 639.68 406.01 L 643.70 406.01 L 643.70 421.25 Z M 643.70 402.60 L 639.68 402.60 L 639.68 387.36 L 643.70 387.36 L 643.70 402.60 Z M 643.70 383.95 L 639.68 383.95 L 639.68 368.71 L 643.70 368.71 L 643.70 383.95 Z M 643.70 364.96 L 639.68 364.96 L 639.68 349.72 L 643.70 349.72 L 643.70 364.96 Z M 643.70 345.98 L 639.68 345.98 L 639.68 330.74 L 643.70 330.74 L 643.70 345.98 Z" fill="url(#SVGID_4_)" fill-rule="nonzero" group-id="14,43" node-id="351" stroke="none" target-height="169.73999" target-width="59.379944" target-x="600.09" target-y="289.53"></path><path d="M 94.45 501.36 L 94.45 411.81 L 104.70 411.81 L 104.70 366.12 L 139.96 350.85 L 139.96 411.09 L 147.70 411.09 L 147.70 501.36 Z" fill="url(#SVGID_5_)" fill-rule="nonzero" group-id="14,43" node-id="353" stroke="none" target-height="150.50998" target-width="53.249992" target-x="94.450005" target-y="350.85"></path><path d="M 699.22 484.75 L 668.28 484.75 L 668.28 361.62 L 699.22 376.59 Z" fill="url(#SVGID_6_)" fill-rule="nonzero" group-id="14,43" node-id="355" stroke="none" target-height="123.130005" target-width="30.939941" target-x="668.28" target-y="361.62"></path><path d="M 89.27 187.94 C 89.27 187.94 98.61 162.46 121.57 172.46 C 126.87 167.08 133.43 163.17 142.30 164.93 C 151.17 166.69 156.89 173.34 158.83 177.76 C 161.61 177.63 183.87 178.37 183.87 201.46 C 183.87 224.55 156.93 224.11 154.98 222.28 C 152.58 224.42 141.04 236.03 127.04 222.78 C 124.01 225.37 114.11 236.34 98.46 221.20 C 91.21 224.23 73.98 226.56 70.64 208.77 C 67.29 190.99 84.43 185.97 89.27 187.94 Z" fill="url(#SVGID_7_)" fill-rule="nonzero" group-id="14,43" node-id="357" stroke="none" target-height="73.87999" target-width="116.579994" target-x="67.29" target-y="162.46"></path><path d="M 606.34 151.12 C 606.34 151.12 615.68 125.64 638.64 135.64 C 643.94 130.26 650.50 126.35 659.37 128.11 C 668.24 129.88 673.96 136.52 675.90 140.94 C 678.68 140.81 700.94 141.55 700.94 164.64 C 700.94 187.73 674.00 187.29 672.05 185.46 C 669.65 187.60 658.11 199.21 644.11 185.96 C 641.08 188.55 631.18 199.52 615.53 184.38 C 608.28 187.41 591.05 189.74 587.71 171.95 C 584.36 154.17 601.50 149.15 606.34 151.12 Z" fill="url(#SVGID_8_)" fill-rule="nonzero" group-id="14,43" node-id="359" stroke="none" target-height="73.880005" target-width="116.58008" target-x="584.36" target-y="125.64"></path><path d="M 487.00 205.65 C 487.00 205.65 493.76 187.20 510.38 194.45 C 514.22 190.55 518.96 187.72 525.39 189.00 C 531.81 190.28 535.95 195.09 537.35 198.28 C 539.36 198.19 555.48 198.72 555.48 215.43 C 555.48 232.14 535.98 231.82 534.57 230.50 C 532.83 232.05 524.48 240.45 514.34 230.87 C 512.15 232.74 504.98 240.69 493.66 229.73 C 488.41 231.92 475.94 233.61 473.52 220.73 C 471.09 207.86 483.49 204.22 487.00 205.65 Z" fill="url(#SVGID_9_)" fill-rule="nonzero" group-id="14,43" node-id="361" stroke="none" target-height="53.49002" target-width="84.38995" target-x="471.09003" target-y="187.2"></path><path d="M 771.53 574.86 C 771.53 621.55 732.44 666.34 662.87 699.35 C 593.30 732.37 498.94 750.92 400.55 750.92 C 302.16 750.92 207.80 732.37 138.23 699.35 C 68.66 666.34 29.57 621.55 29.57 574.86 C 29.57 528.17 68.66 483.38 138.23 450.37 C 207.80 417.35 302.16 398.80 400.55 398.80 C 498.94 398.80 593.30 417.35 662.87 450.37 C 732.44 483.38 771.53 528.17 771.53 574.86 Z" fill="url(#SVGID_10_)" fill-rule="nonzero" group-id="14,43" node-id="363" stroke="none" target-height="352.12" target-width="741.9601" target-x="29.569977" target-y="398.8"></path></g><g node-id="483"><g node-id="486"><path d="M 146.50 553.33 C 146.50 553.33 142.97 558.34 148.87 565.80 C 154.13 572.44 162.44 571.15 165.20 569.02 C 166.05 574.80 173.14 586.98 184.36 580.09 C 194.91 573.62 189.83 563.78 186.46 559.91 C 193.05 558.05 197.96 542.26 182.84 536.81 C 185.08 530.29 185.48 527.34 182.20 521.48 C 179.04 515.84 173.85 514.94 165.57 518.37 L 153.59 523.42 L 145.96 509.18 L 141.88 511.54 L 150.68 525.14 L 139.02 530.99 C 139.02 530.99 129.05 534.89 133.35 545.59 C 137.34 555.51 146.50 553.33 146.50 553.33 Z" fill="url(#SVGID_11_)" fill-rule="nonzero" group-id="14,44,47" node-id="369" stroke="none" target-height="77.79999" target-width="68.91" target-x="129.05" target-y="509.18"></path><path d="M 126.20 492.62 L 162.26 492.62 C 162.26 492.62 173.91 492.95 176.23 479.64 C 178.78 465.03 168.15 463.02 168.15 463.02 C 168.15 463.02 174.55 460.08 173.16 449.03 C 171.76 437.99 162.04 436.59 157.99 437.10 C 158.65 430.55 160.03 415.72 144.63 415.57 C 129.76 415.42 129.85 430.39 130.96 436.29 C 125.66 436.35 109.65 444.30 120.91 461.74 C 114.78 466.99 112.19 470.02 112.46 477.59 C 112.73 485.16 117.37 492.62 126.20 492.62 Z" fill="url(#SVGID_12_)" fill-rule="nonzero" group-id="14,44,47" node-id="371" stroke="none" target-height="77.52997" target-width="69.13" target-x="109.65" target-y="415.42"></path><path d="M 161.37 472.38 L 146.00 482.50 L 145.58 472.72 L 155.30 461.25 L 145.43 469.24 L 144.15 439.33 L 143.20 469.43 L 132.83 461.17 L 143.11 472.50 L 142.79 482.57 L 126.98 470.94 L 142.68 486.20 L 141.88 511.56 L 147.24 511.56 L 146.16 486.35 Z" fill="#c6d5e6" fill-rule="nonzero" group-id="14,44,47" node-id="373" stroke="none" target-height="72.23001" target-width="34.38999" target-x="126.98" target-y="439.33"></path></g><g node-id="487"><path d="M 668.92 535.03 C 668.92 535.03 665.67 539.65 671.10 546.51 C 675.94 552.63 683.60 551.44 686.14 549.47 C 686.92 554.79 693.46 566.00 703.79 559.67 C 713.50 553.71 708.83 544.65 705.72 541.09 C 711.79 539.38 716.31 524.83 702.39 519.82 C 704.46 513.82 704.83 511.10 701.80 505.71 C 698.89 500.52 694.11 499.68 686.49 502.85 L 675.45 507.50 L 668.42 494.39 L 664.67 496.56 L 672.77 509.08 L 662.04 514.47 C 662.04 514.47 652.86 518.06 656.82 527.92 C 660.49 537.03 668.92 535.03 668.92 535.03 Z" fill="url(#SVGID_13_)" fill-rule="nonzero" group-id="14,44,48" node-id="378" stroke="none" target-height="71.609985" target-width="63.450073" target-x="652.86" target-y="494.39"></path><path d="M 650.23 479.12 L 683.43 479.12 C 683.43 479.12 694.16 479.43 696.29 467.17 C 698.63 453.72 688.85 451.87 688.85 451.87 C 688.85 451.87 694.75 449.16 693.46 438.99 C 692.17 428.82 683.23 427.52 679.50 428.00 C 680.11 421.97 681.38 408.31 667.20 408.17 C 653.51 408.03 653.59 421.81 654.61 427.25 C 649.73 427.30 634.98 434.62 645.36 450.69 C 639.72 455.52 637.33 458.32 637.58 465.28 C 637.82 472.25 642.10 479.12 650.23 479.12 Z" fill="url(#SVGID_14_)" fill-rule="nonzero" group-id="14,44,48" node-id="380" stroke="none" target-height="71.399994" target-width="63.650024" target-x="634.98" target-y="408.03"></path><path d="M 682.62 460.48 L 668.46 469.80 L 668.07 460.79 L 677.03 450.24 L 667.93 457.59 L 666.76 430.05 L 665.89 457.77 L 656.33 450.16 L 665.80 460.59 L 665.51 469.86 L 650.94 459.16 L 665.40 473.21 L 664.67 496.56 L 669.60 496.56 L 668.61 473.35 Z" fill="#c6d5e6" fill-rule="nonzero" group-id="14,44,48" node-id="382" stroke="none" target-height="66.51001" target-width="31.679993" target-x="650.94" target-y="430.05"></path></g><g node-id="488"><path d="M 229.43 444.83 C 229.43 444.83 227.68 447.31 230.60 451.00 C 233.20 454.29 237.31 453.65 238.68 452.59 C 239.10 455.45 242.61 461.47 248.16 458.07 C 253.38 454.87 250.87 450.00 249.20 448.09 C 252.46 447.17 254.89 439.36 247.41 436.67 C 248.52 433.45 248.72 431.99 247.09 429.09 C 245.53 426.30 242.96 425.85 238.87 427.55 L 232.94 430.05 L 229.17 423.01 L 227.15 424.18 L 231.50 430.90 L 225.73 433.79 C 225.73 433.79 220.80 435.72 222.93 441.01 C 224.90 445.91 229.43 444.83 229.43 444.83 Z" fill="url(#SVGID_15_)" fill-rule="nonzero" group-id="14,44,49" node-id="387" stroke="none" target-height="38.45996" target-width="34.089996" target-x="220.8" target-y="423.01"></path><path d="M 219.39 414.80 L 237.22 414.80 C 237.22 414.80 242.98 414.96 244.13 408.38 C 245.39 401.15 240.13 400.16 240.13 400.16 C 240.13 400.16 243.30 398.70 242.61 393.24 C 241.92 387.78 237.11 387.09 235.11 387.34 C 235.44 384.10 236.12 376.76 228.50 376.69 C 221.14 376.62 221.19 384.02 221.74 386.94 C 219.12 386.97 211.20 390.90 216.77 399.53 C 213.74 402.12 212.45 403.63 212.59 407.37 C 212.73 411.11 215.02 414.80 219.39 414.80 Z" fill="url(#SVGID_16_)" fill-rule="nonzero" group-id="14,44,49" node-id="389" stroke="none" target-height="38.339996" target-width="34.190018" target-x="211.2" target-y="376.62"></path><path d="M 236.79 404.79 L 229.18 409.79 L 228.98 404.95 L 233.79 399.29 L 228.90 403.23 L 228.27 388.44 L 227.80 403.33 L 222.67 399.24 L 227.75 404.85 L 227.60 409.83 L 219.78 404.08 L 227.54 411.62 L 227.15 424.17 L 229.80 424.17 L 229.26 411.70 Z" fill="#c6d5e6" fill-rule="nonzero" group-id="14,44,49" node-id="391" stroke="none" target-height="35.73004" target-width="17.00998" target-x="219.78" target-y="388.43997"></path></g></g><g node-id="484"><path d="M 556.03 486.15 L 711.56 619.06 L 437.79 731.04 L 273.60 475.86 Z" fill="url(#SVGID_17_)" fill-rule="nonzero" group-id="14,45" node-id="397" stroke="none" target-height="255.18002" target-width="437.96" target-x="273.6" target-y="475.85995"></path><path d="M 498.63 223.18 C 457.19 194.55 410.30 269.17 410.30 269.17 C 401.83 255.66 372.50 224.69 348.89 219.32 C 315.01 211.60 295.35 247.95 300.19 264.67 C 304.33 278.97 332.86 292.97 410.30 292.97 C 487.74 292.97 493.49 284.29 501.05 280.75 C 508.61 277.22 540.07 251.81 498.63 223.18 Z M 355.69 274.80 C 345.41 274.16 303.56 266.81 326.55 241.51 C 352.61 212.83 393.10 274.32 393.10 274.32 C 378.88 274.96 365.97 275.45 355.69 274.80 Z M 464.95 274.80 C 454.67 275.44 441.76 274.96 427.54 274.32 C 427.54 274.32 468.03 212.83 494.09 241.51 C 517.08 266.82 475.24 274.16 464.95 274.80 Z" fill="url(#SVGID_18_)" fill-rule="nonzero" group-id="14,45" node-id="399" stroke="none" target-height="98.42" target-width="244.72" target-x="295.35" target-y="194.55"></path><path d="M 263.26 294.36 L 374.78 284.54 L 374.78 366.64 L 266.56 358.92 Z" fill="url(#SVGID_19_)" fill-rule="nonzero" group-id="14,45" node-id="401" stroke="none" target-height="82.100006" target-width="111.51999" target-x="263.26" target-y="284.54"></path><path d="M 564.17 292.26 L 564.17 361.72 L 374.78 366.64 L 374.78 284.54 Z" fill="url(#SVGID_20_)" fill-rule="nonzero" group-id="14,45" node-id="403" stroke="none" target-height="82.100006" target-width="189.38998" target-x="374.78" target-y="284.54"></path><path d="M 273.60 475.86 L 271.32 359.26 L 374.78 366.64 L 374.78 510.48 Z" fill="url(#SVGID_21_)" fill-rule="nonzero" group-id="14,45" node-id="405" stroke="none" target-height="151.22" target-width="103.45999" target-x="271.32" target-y="359.26"></path><path d="M 556.03 486.15 L 559.52 361.84 L 374.78 366.64 L 374.78 510.48 Z" fill="url(#SVGID_22_)" fill-rule="nonzero" group-id="14,45" node-id="407" stroke="none" target-height="148.64001" target-width="184.74002" target-x="374.78" target-y="361.84"></path><path d="M 461.25 288.06 L 461.25 498.87 L 473.20 497.27 L 473.20 288.06 Z" fill="#ffffff" fill-rule="nonzero" group-id="14,45" node-id="409" stroke="none" target-height="210.81" target-width="11.950012" target-x="461.25" target-y="288.06"></path><path d="M 299.47 291.17 L 305.04 486.62 L 314.78 489.95 L 310.77 290.18 Z" fill="#ffffff" fill-rule="nonzero" group-id="14,45" node-id="411" stroke="none" target-height="199.77002" target-width="15.309998" target-x="299.47" target-y="290.18"></path><path d="M 271.32 359.26 L 271.56 371.49 L 374.78 379.44 L 374.78 366.64 Z" fill="#ffffff" fill-rule="nonzero" group-id="14,45" node-id="413" stroke="none" target-height="20.179993" target-width="103.45999" target-x="271.32" target-y="359.26"></path><path d="M 374.78 366.64 L 374.78 379.44 L 559.52 374.35 L 559.52 361.85 Z" fill="url(#SVGID_23_)" fill-rule="nonzero" group-id="14,45" node-id="415" stroke="none" target-height="17.589996" target-width="184.74002" target-x="374.78" target-y="361.85"></path></g><g node-id="485"><path d="M 570.12 455.31 C 570.12 455.31 571.18 453.96 572.68 454.11 C 574.29 454.27 573.87 455.29 574.97 455.52 C 576.08 455.75 576.77 455.67 576.47 457.78 C 576.30 458.95 576.44 458.94 576.75 459.49 C 576.94 459.82 578.27 460.94 577.37 462.39 C 576.48 463.80 576.23 463.28 576.46 464.63 C 576.68 465.98 576.17 467.17 575.36 467.58 C 574.57 467.98 574.77 468.71 574.92 469.13 C 575.06 469.54 574.62 470.87 573.28 470.39 C 571.94 469.91 570.75 469.74 569.70 470.20 C 568.65 470.66 564.29 470.93 565.22 469.03 C 566.07 467.29 564.89 466.94 564.09 466.16 C 563.30 465.38 562.66 464.04 563.07 462.72 C 563.31 461.95 563.65 461.13 562.70 459.98 C 561.72 458.79 563.40 455.57 564.51 455.69 C 565.62 455.81 567.13 452.72 570.12 455.31 Z" fill="#171c61" fill-rule="nonzero" group-id="14,46" node-id="420" stroke="none" target-height="18.210022" target-width="16.550049" target-x="561.72" target-y="452.71997"></path><path d="M 566.71 460.73 C 565.72 461.76 565.81 461.52 565.58 462.15 C 564.05 461.33 563.98 465.68 565.26 465.79 C 565.62 468.08 566.60 468.72 567.17 469.27 C 567.54 470.53 566.66 475.85 566.66 475.85 L 573.23 475.85 L 572.87 469.12 C 572.87 469.12 574.35 468.65 574.66 465.98 C 575.88 466.12 576.57 461.35 574.90 462.51 C 574.95 461.25 573.03 460.93 572.78 459.48 C 572.75 459.30 572.59 459.18 572.44 459.25 C 571.76 459.55 570.62 460.35 569.46 460.32 C 568.50 460.30 567.38 460.03 566.71 460.73 Z" fill="url(#SVGID_24_)" fill-rule="nonzero" group-id="14,46" node-id="422" stroke="none" target-height="16.670013" target-width="12.590027" target-x="563.98" target-y="459.18"></path><path d="M 583.24 565.88 C 583.19 566.17 583.04 566.44 582.82 566.64 C 582.37 567.06 582.15 567.66 581.02 567.52 C 579.32 567.30 578.98 566.77 578.62 565.76 C 577.90 567.26 578.88 568.80 578.55 570.93 C 578.23 573.06 577.47 576.49 580.66 578.15 C 583.85 579.81 586.32 576.17 586.20 573.33 C 586.08 570.49 583.63 567.21 583.86 566.00 C 583.91 565.15 583.53 564.47 583.53 564.47 C 583.53 564.47 583.34 565.32 583.24 565.88 Z" fill="#f8b62d" fill-rule="nonzero" group-id="14,46" node-id="424" stroke="none" target-height="15.340027" target-width="8.850037" target-x="577.47" target-y="564.47"></path><path d="M 585.76 571.16 C 585.76 571.16 586.67 575.28 584.53 576.92 C 583.95 577.42 580.94 578.89 578.67 576.08 C 578.87 576.61 579.71 578.43 581.69 578.87 C 582.58 578.94 584.40 578.96 585.79 576.78 C 587.17 574.59 585.76 571.16 585.76 571.16 Z" fill="#e6e8e8" fill-rule="nonzero" group-id="14,46" node-id="426" stroke="none" target-height="7.800049" target-width="8.5" target-x="578.67" target-y="571.16"></path><path d="M 564.28 566.13 C 564.33 566.42 564.48 566.69 564.70 566.89 C 565.15 567.31 565.37 567.91 566.50 567.77 C 568.20 567.55 568.54 567.02 568.90 566.01 C 569.62 567.51 569.64 569.05 569.97 571.18 C 570.30 573.31 572.05 576.74 568.86 578.40 C 565.67 580.06 562.81 576.10 562.93 573.26 C 563.05 570.42 563.89 567.46 563.66 566.26 C 563.61 565.41 563.99 564.73 563.99 564.73 C 563.99 564.73 564.18 565.58 564.28 566.13 Z" fill="#f8b62d" fill-rule="nonzero" group-id="14,46" node-id="428" stroke="none" target-height="15.330017" target-width="9.23999" target-x="562.81" target-y="564.73"></path><path d="M 563.08 571.41 C 563.08 571.41 562.99 575.63 564.99 577.17 C 565.57 577.67 568.23 579.45 570.51 576.63 C 570.29 577.10 569.81 578.68 567.83 579.12 C 566.94 579.19 565.12 579.21 563.73 577.03 C 562.35 574.85 563.08 571.41 563.08 571.41 Z" fill="#e6e8e8" fill-rule="nonzero" group-id="14,46" node-id="430" stroke="none" target-height="8.040039" target-width="8.160034" target-x="562.35" target-y="571.41"></path><path d="M 562.10 509.65 C 562.10 509.65 559.50 515.93 560.19 526.84 C 560.78 536.08 563.16 558.51 563.88 566.38 C 564.00 567.65 565.06 568.62 566.34 568.62 L 566.76 568.62 C 568.05 568.62 569.12 567.63 569.22 566.35 L 572.86 524.66 L 578.43 566.40 C 578.58 567.67 579.56 568.18 580.84 568.18 L 581.07 568.13 C 582.40 568.13 583.37 567.59 583.46 566.27 C 584.20 555.33 587.01 513.77 582.74 509.65 L 562.10 509.65 Z" fill="url(#SVGID_25_)" fill-rule="nonzero" group-id="14,46" node-id="432" stroke="none" target-height="58.97" target-width="27.51001" target-x="559.5" target-y="509.65"></path><path d="M 606.73 476.21 C 606.73 476.21 604.59 477.17 604.41 478.50 C 603.99 481.59 597.41 487.73 595.68 488.10 C 593.95 488.47 587.64 479.95 587.01 479.96 C 585.52 481.27 583.26 485.47 583.26 485.47 C 583.26 485.47 592.14 496.48 596.10 494.59 C 600.07 492.71 603.99 487.07 606.56 483.14 C 607.18 481.89 608.09 481.57 608.67 481.43 C 609.25 481.29 612.65 479.86 612.58 476.63 C 612.54 474.68 609.57 476.91 609.21 477.35 C 608.85 477.79 606.91 479.19 607.18 477.10 C 607.41 476.32 607.25 475.91 606.73 476.21 Z" fill="#ffbe92" fill-rule="nonzero" group-id="14,46" node-id="434" stroke="none" target-height="21.800018" target-width="29.390015" target-x="583.26" target-y="474.68"></path><path d="M 535.99 478.39 C 535.99 478.39 538.13 479.35 538.31 480.68 C 538.73 483.77 545.31 489.91 547.04 490.28 C 548.77 490.65 554.18 481.61 554.81 481.63 C 556.30 482.94 559.45 487.65 559.45 487.65 C 559.45 487.65 550.28 498.58 546.32 496.70 C 542.35 494.82 538.72 489.26 536.15 485.33 C 535.53 484.08 534.62 483.76 534.04 483.62 C 533.46 483.48 530.06 482.05 530.13 478.82 C 530.17 476.87 533.14 479.10 533.50 479.54 C 533.86 479.98 535.80 481.38 535.53 479.29 C 535.30 478.50 535.47 478.09 535.99 478.39 Z" fill="#ffbe92" fill-rule="nonzero" group-id="14,46" node-id="436" stroke="none" target-height="21.709991" target-width="29.390015" target-x="530.06" target-y="476.87"></path><path d="M 591.85 483.29 L 587.11 491.14 C 587.11 491.14 585.46 489.37 584.04 487.65 C 583.89 489.71 584.09 489.70 584.21 491.84 C 584.33 493.98 587.56 514.37 584.15 515.64 C 580.74 516.91 563.11 517.04 560.51 516.52 C 557.91 516.00 558.41 497.67 559.39 492.29 C 559.86 489.62 559.68 488.02 559.68 488.02 L 556.76 491.23 L 550.44 485.34 C 550.44 485.34 553.75 476.72 558.64 475.03 C 563.15 473.47 566.65 473.64 567.00 473.47 C 567.23 474.29 567.84 475.79 570.05 475.86 C 571.48 475.90 572.86 475.01 573.10 473.37 C 573.65 473.60 577.06 473.45 581.88 474.68 C 586.53 475.85 588.53 480.15 591.85 483.29 Z" fill="url(#SVGID_26_)" fill-rule="nonzero" group-id="14,46" node-id="438" stroke="none" target-height="43.669983" target-width="41.409973" target-x="550.44" target-y="473.37"></path></g></g></svg>