<?xml version="1.0" standalone="no"?><!DOCTYPE svg PUBLIC "-//W3C//DTD SVG 1.1//EN" "http://www.w3.org/Graphics/SVG/1.1/DTD/svg11.dtd"><svg height="800" node-id="1" sillyvg="true" template-height="800" template-width="800" version="1.1" viewBox="0 0 800 800" width="800" xmlns="http://www.w3.org/2000/svg" xmlns:xlink="http://www.w3.org/1999/xlink"><defs node-id="212"><linearGradient gradientUnits="objectBoundingBox" id="SVGID_1_" node-id="10" spreadMethod="pad" x1="254.8575" x2="254.8575" y1="429.3264" y2="332.5381"><stop offset="0.0000005358273" stop-color="#ffffff"></stop><stop offset="1" stop-color="#dbe3ee"></stop></linearGradient><linearGradient gradientUnits="objectBoundingBox" id="SVGID_2_" node-id="14" spreadMethod="pad" x1="190.2405" x2="190.2405" y1="487.3183" y2="270.8293"><stop offset="0.0000005358273" stop-color="#ffffff"></stop><stop offset="1" stop-color="#dbe3ee"></stop></linearGradient><linearGradient gradientUnits="objectBoundingBox" id="SVGID_3_" node-id="18" spreadMethod="pad" x1="566.0221" x2="566.0221" y1="444.6394" y2="288.1587"><stop offset="0.0000005358273" stop-color="#ffffff"></stop><stop offset="1" stop-color="#dbe3ee"></stop></linearGradient><linearGradient gradientUnits="objectBoundingBox" id="SVGID_4_" node-id="22" spreadMethod="pad" x1="628.5469" x2="628.5469" y1="467.3094" y2="297.5688"><stop offset="0.0000005358273" stop-color="#ffffff"></stop><stop offset="1" stop-color="#dbe3ee"></stop></linearGradient><linearGradient gradientUnits="objectBoundingBox" id="SVGID_5_" node-id="26" spreadMethod="pad" x1="119.8344" x2="119.8344" y1="509.3879" y2="358.8745"><stop offset="0.0000005358273" stop-color="#ffffff"></stop><stop offset="1" stop-color="#edf1f9"></stop></linearGradient><linearGradient gradientUnits="objectBoundingBox" id="SVGID_6_" node-id="30" spreadMethod="pad" x1="682.5076" x2="682.5076" y1="492.7825" y2="369.6503"><stop offset="0.0000005358273" stop-color="#ffffff"></stop><stop offset="1" stop-color="#edf1f9"></stop></linearGradient><linearGradient gradientUnits="objectBoundingBox" id="SVGID_7_" node-id="34" spreadMethod="pad" x1="125.7981" x2="125.7981" y1="237.0806" y2="172.5394"><stop offset="0.2332" stop-color="#ffffff"></stop><stop offset="1" stop-color="#d3dfee"></stop></linearGradient><linearGradient gradientUnits="objectBoundingBox" id="SVGID_8_" node-id="38" spreadMethod="pad" x1="642.8665" x2="642.8665" y1="200.2602" y2="135.719"><stop offset="0.2332" stop-color="#ffffff"></stop><stop offset="1" stop-color="#d3dfee"></stop></linearGradient><linearGradient gradientUnits="objectBoundingBox" id="SVGID_9_" node-id="42" spreadMethod="pad" x1="513.0956" x2="513.0956" y1="243.4337" y2="196.7165"><stop offset="0.2332" stop-color="#ffffff"></stop><stop offset="1" stop-color="#d3dfee"></stop></linearGradient><linearGradient gradientUnits="objectBoundingBox" id="SVGID_10_" node-id="46" spreadMethod="pad" x1="399.3129" x2="399.3129" y1="758.9585" y2="406.8296"><stop offset="0.4065" stop-color="#ffffff"></stop><stop offset="1" stop-color="#dae4ef"></stop></linearGradient><linearGradient gradientUnits="objectBoundingBox" id="SVGID_11_" node-id="52" spreadMethod="pad" x1="190.2424" x2="138.8062" y1="582.4143" y2="521.115"><stop offset="0.4034" stop-color="#eff4f8"></stop><stop offset="1" stop-color="#d4dfec"></stop></linearGradient><linearGradient gradientUnits="objectBoundingBox" id="SVGID_12_" node-id="56" spreadMethod="pad" x1="111.1946" x2="175.3815" y1="462.124" y2="462.124"><stop offset="0.1022" stop-color="#f0f5f8"></stop><stop offset="1" stop-color="#b4c7dc"></stop></linearGradient><linearGradient gradientUnits="objectBoundingBox" id="SVGID_13_" node-id="62" spreadMethod="pad" x1="709.1046" x2="661.7391" y1="562.4417" y2="505.9938"><stop offset="0.4034" stop-color="#eff4f8"></stop><stop offset="1" stop-color="#d4dfec"></stop></linearGradient><linearGradient gradientUnits="objectBoundingBox" id="SVGID_14_" node-id="66" spreadMethod="pad" x1="636.3128" x2="695.4197" y1="451.6715" y2="451.6715"><stop offset="0.1022" stop-color="#f0f5f8"></stop><stop offset="1" stop-color="#b4c7dc"></stop></linearGradient><linearGradient gradientUnits="objectBoundingBox" id="SVGID_15_" node-id="72" spreadMethod="pad" x1="250.4419" x2="225.0007" y1="463.271" y2="432.9512"><stop offset="0.0000001438503" stop-color="#eaeff6"></stop><stop offset="1" stop-color="#cddae9"></stop></linearGradient><linearGradient gradientUnits="objectBoundingBox" id="SVGID_16_" node-id="76" spreadMethod="pad" x1="211.3435" x2="243.0914" y1="403.7732" y2="403.7732"><stop offset="0.1022" stop-color="#f0f5f8"></stop><stop offset="1" stop-color="#b4c7dc"></stop></linearGradient><linearGradient gradientUnits="objectBoundingBox" id="SVGID_17_" node-id="82" spreadMethod="pad" x1="545.3754" x2="447.0908" y1="677.8552" y2="407.8204"><stop offset="0.0938" stop-color="#ffffff"></stop><stop offset="1" stop-color="#bbcbe0"></stop></linearGradient><linearGradient gradientUnits="objectBoundingBox" id="SVGID_18_" node-id="86" spreadMethod="pad" x1="356.9417" x2="486.8474" y1="374.3993" y2="374.3993"><stop offset="0" stop-color="#becfe2"></stop><stop offset="0.7733" stop-color="#e7edf5"></stop></linearGradient><linearGradient gradientUnits="objectBoundingBox" id="SVGID_19_" node-id="90" spreadMethod="pad" x1="356.9417" x2="297.6963" y1="376.8626" y2="376.8626"><stop offset="0" stop-color="#cfdbea"></stop><stop offset="1" stop-color="#aec3da"></stop></linearGradient><linearGradient gradientUnits="objectBoundingBox" id="SVGID_20_" node-id="94" spreadMethod="pad" x1="381.4643" x2="381.4643" y1="295.7743" y2="270.5677"><stop offset="0.0000005309115" stop-color="#e5ecf3"></stop><stop offset="1" stop-color="#becfe0"></stop></linearGradient><linearGradient gradientUnits="objectBoundingBox" id="SVGID_21_" node-id="98" spreadMethod="pad" x1="297.6963" x2="473.9955" y1="472.8251" y2="472.8251"><stop offset="0" stop-color="#becfe2"></stop><stop offset="0.7733" stop-color="#e7edf5"></stop></linearGradient><linearGradient gradientUnits="objectBoundingBox" id="SVGID_22_" node-id="102" spreadMethod="pad" x1="465.2322" x2="527.8404" y1="385.7147" y2="385.7147"><stop offset="0.0000005309115" stop-color="#e5ecf3"></stop><stop offset="1" stop-color="#becfe0"></stop></linearGradient><linearGradient gradientUnits="objectBoundingBox" id="SVGID_23_" node-id="106" spreadMethod="pad" x1="506.7049" x2="297.6963" y1="255.6187" y2="255.6187"><stop offset="0" stop-color="#becfe2"></stop><stop offset="0.7733" stop-color="#e7edf5"></stop></linearGradient><linearGradient gradientUnits="objectBoundingBox" id="SVGID_24_" node-id="110" spreadMethod="pad" x1="465.2322" x2="512.1425" y1="387.5417" y2="387.5417"><stop offset="0" stop-color="#becfe2"></stop><stop offset="0.7733" stop-color="#e7edf5"></stop></linearGradient><linearGradient gradientUnits="objectBoundingBox" id="SVGID_25_" node-id="114" spreadMethod="pad" x1="324.0647" x2="446.383" y1="398.204" y2="398.204"><stop offset="0.0000005309115" stop-color="#e5ecf3"></stop><stop offset="1" stop-color="#afc4da"></stop></linearGradient><linearGradient gradientUnits="objectBoundingBox" id="SVGID_26_" node-id="118" spreadMethod="pad" x1="327.773" x2="446.1534" y1="400.3981" y2="400.3981"><stop offset="0.0000004424263" stop-color="#f7fafb"></stop><stop offset="1" stop-color="#cfdbea"></stop></linearGradient><linearGradient gradientUnits="objectBoundingBox" id="SVGID_27_" node-id="122" spreadMethod="pad" x1="359.4836" x2="367.264" y1="533.2283" y2="484.1049"><stop offset="0" stop-color="#ffffff"></stop><stop offset="1" stop-color="#bbcbe0"></stop></linearGradient><linearGradient gradientUnits="objectBoundingBox" id="SVGID_28_" node-id="126" spreadMethod="pad" x1="263.1717" x2="297.6963" y1="376.8626" y2="376.8626"><stop offset="0.0000004424263" stop-color="#f7fafb"></stop><stop offset="1" stop-color="#d5e0ee"></stop></linearGradient><linearGradient gradientUnits="objectBoundingBox" id="SVGID_29_" node-id="132" spreadMethod="pad" x1="323.135" x2="355.5085" y1="489.3006" y2="489.3006"><stop offset="0" stop-color="#4ea2f4"></stop><stop offset="0.6903" stop-color="#1e77cf"></stop></linearGradient><linearGradient gradientUnits="objectBoundingBox" id="SVGID_30_" node-id="136" spreadMethod="pad" x1="300.1656" x2="354.7723" y1="494.499" y2="494.499"><stop offset="0" stop-color="#78c8ff"></stop><stop offset="0.6903" stop-color="#2a80e2"></stop></linearGradient><linearGradient gradientUnits="objectBoundingBox" id="SVGID_31_" node-id="142" spreadMethod="pad" x1="367.7374" x2="367.7374" y1="512.8907" y2="486.733"><stop offset="0" stop-color="#f2a319"></stop><stop offset="0.4796" stop-color="#ffc552"></stop></linearGradient><linearGradient gradientUnits="objectBoundingBox" id="SVGID_32_" node-id="147" spreadMethod="pad" x1="384.7233" x2="376.9703" y1="518.0352" y2="504.6067"><stop offset="0" stop-color="#f2a319"></stop><stop offset="0.4796" stop-color="#ffc552"></stop></linearGradient><linearGradient gradientUnits="objectBoundingBox" id="SVGID_33_" node-id="153" spreadMethod="pad" x1="290.0985" x2="307.4727" y1="476.6396" y2="476.6396"><stop offset="0.0000004424263" stop-color="#f7fafb"></stop><stop offset="1" stop-color="#cfdbea"></stop></linearGradient><linearGradient gradientUnits="objectBoundingBox" id="SVGID_34_" node-id="161" spreadMethod="pad" x1="417.2743" x2="430.9384" y1="514.7715" y2="530.4904"><stop offset="0.0000005754013" stop-color="#eff3f9"></stop><stop offset="0.2694" stop-color="#becfe2"></stop><stop offset="1" stop-color="#90aabf"></stop></linearGradient><linearGradient gradientUnits="objectBoundingBox" id="SVGID_35_" node-id="166" spreadMethod="pad" x1="409.2484" x2="437.2333" y1="521.5635" y2="521.5635"><stop offset="0.0000005309115" stop-color="#e5ecf3"></stop><stop offset="1" stop-color="#afc4da"></stop></linearGradient><linearGradient gradientUnits="objectBoundingBox" id="SVGID_36_" node-id="170" spreadMethod="pad" x1="418.0966" x2="429.8657" y1="529.101" y2="514.0372"><stop offset="0.0000004424263" stop-color="#f7fafb"></stop><stop offset="1" stop-color="#cfdbea"></stop></linearGradient></defs><g node-id="557"><g node-id="595"><path d="M 269.31 335.94 L 269.31 332.53 L 239.81 332.53 L 239.81 336.49 L 233.33 336.49 L 233.33 429.32 L 276.38 429.32 L 276.38 335.94 L 269.31 335.94 Z M 272.65 418.68 L 236.61 418.68 L 236.61 415.93 L 272.65 415.93 L 272.65 418.68 Z M 272.65 406.00 L 236.61 406.00 L 236.61 403.25 L 272.65 403.25 L 272.65 406.00 Z M 272.65 393.33 L 236.61 393.33 L 236.61 390.58 L 272.65 390.58 L 272.65 393.33 Z M 272.65 380.99 L 236.61 380.99 L 236.61 378.24 L 272.65 378.24 L 272.65 380.99 Z M 272.65 368.67 L 236.61 368.67 L 236.61 365.92 L 272.65 365.92 L 272.65 368.67 Z M 272.65 355.99 L 236.61 355.99 L 236.61 353.24 L 272.65 353.24 L 272.65 355.99 Z M 272.65 343.65 L 236.61 343.65 L 236.61 340.90 L 272.65 340.90 L 272.65 343.65 Z" fill="url(#SVGID_1_)" fill-rule="nonzero" group-id="5,43" node-id="439" stroke="none" target-height="96.78998" target-width="43.05002" target-x="233.32999" target-y="332.53"></path><path d="M 211.33 387.76 L 211.33 279.57 L 178.58 279.57 L 178.58 270.83 L 164.72 270.83 L 164.72 324.16 L 160.99 324.16 L 160.99 487.32 L 219.50 487.32 L 219.50 387.76 L 211.33 387.76 Z M 186.83 419.56 L 178.57 419.56 L 178.57 411.55 L 186.83 411.55 L 186.83 419.56 Z M 186.83 407.04 L 178.57 407.04 L 178.57 399.03 L 186.83 399.03 L 186.83 407.04 Z M 186.83 394.56 L 178.57 394.56 L 178.57 386.55 L 186.83 386.55 L 186.83 394.56 Z M 186.83 382.12 L 178.57 382.12 L 178.57 374.11 L 186.83 374.11 L 186.83 382.12 Z M 186.83 369.59 L 178.57 369.59 L 178.57 361.58 L 186.83 361.58 L 186.83 369.59 Z M 186.83 344.59 L 178.57 344.59 L 178.57 336.58 L 186.83 336.58 L 186.83 344.59 Z M 186.83 332.06 L 178.57 332.06 L 178.57 324.05 L 186.83 324.05 L 186.83 332.06 Z M 186.83 319.59 L 178.57 319.59 L 178.57 311.58 L 186.83 311.58 L 186.83 319.59 Z M 186.83 307.15 L 178.57 307.15 L 178.57 299.14 L 186.83 299.14 L 186.83 307.15 Z M 186.83 294.62 L 178.57 294.62 L 178.57 286.61 L 186.83 286.61 L 186.83 294.62 Z M 199.18 419.56 L 190.92 419.56 L 190.92 411.55 L 199.18 411.55 L 199.18 419.56 Z M 199.18 407.04 L 190.92 407.04 L 190.92 399.03 L 199.18 399.03 L 199.18 407.04 Z M 199.18 394.56 L 190.92 394.56 L 190.92 386.55 L 199.18 386.55 L 199.18 394.56 Z M 199.18 382.12 L 190.92 382.12 L 190.92 374.11 L 199.18 374.11 L 199.18 382.12 Z M 199.18 369.59 L 190.92 369.59 L 190.92 361.58 L 199.18 361.58 L 199.18 369.59 Z M 199.18 344.59 L 190.92 344.59 L 190.92 336.58 L 199.18 336.58 L 199.18 344.59 Z M 199.18 332.06 L 190.92 332.06 L 190.92 324.05 L 199.18 324.05 L 199.18 332.06 Z M 199.18 319.59 L 190.92 319.59 L 190.92 311.58 L 199.18 311.58 L 199.18 319.59 Z M 199.18 307.15 L 190.92 307.15 L 190.92 299.14 L 199.18 299.14 L 199.18 307.15 Z M 199.18 294.62 L 190.92 294.62 L 190.92 286.61 L 199.18 286.61 L 199.18 294.62 Z" fill="url(#SVGID_2_)" fill-rule="nonzero" group-id="5,43" node-id="441" stroke="none" target-height="216.49002" target-width="58.50998" target-x="160.99" target-y="270.83"></path><path d="M 533.64 444.64 C 534.00 439.99 533.64 288.16 533.64 288.16 L 552.17 288.16 L 552.17 321.87 L 581.67 321.87 L 581.67 392.32 L 598.40 392.32 L 598.40 444.64 L 533.64 444.64 Z" fill="url(#SVGID_3_)" fill-rule="nonzero" group-id="5,43" node-id="443" stroke="none" target-height="156.48001" target-width="64.76001" target-x="533.64" target-y="288.16"></path><path d="M 654.86 376.49 L 654.86 371.64 L 649.86 371.64 L 649.86 329.31 L 637.66 329.31 L 637.66 324.61 L 629.43 324.61 L 629.43 317.70 L 625.14 317.70 L 625.14 297.56 L 622.05 297.56 L 622.05 317.84 L 618.11 317.84 L 618.11 324.75 L 605.91 324.75 L 605.91 336.07 L 598.86 336.07 L 598.86 467.30 L 658.24 467.30 L 658.24 376.48 L 654.86 376.48 Z M 609.34 429.28 L 605.32 429.28 L 605.32 414.04 L 609.34 414.04 L 609.34 429.28 Z M 609.34 410.63 L 605.32 410.63 L 605.32 395.39 L 609.34 395.39 L 609.34 410.63 Z M 609.34 391.97 L 605.32 391.97 L 605.32 376.73 L 609.34 376.73 L 609.34 391.97 Z M 609.34 372.99 L 605.32 372.99 L 605.32 357.75 L 609.34 357.75 L 609.34 372.99 Z M 609.34 354.01 L 605.32 354.01 L 605.32 338.77 L 609.34 338.77 L 609.34 354.01 Z M 617.62 429.28 L 613.60 429.28 L 613.60 414.04 L 617.62 414.04 L 617.62 429.28 Z M 617.62 410.63 L 613.60 410.63 L 613.60 395.39 L 617.62 395.39 L 617.62 410.63 Z M 617.62 391.97 L 613.60 391.97 L 613.60 376.73 L 617.62 376.73 L 617.62 391.97 Z M 617.62 372.99 L 613.60 372.99 L 613.60 357.75 L 617.62 357.75 L 617.62 372.99 Z M 617.62 354.01 L 613.60 354.01 L 613.60 338.77 L 617.62 338.77 L 617.62 354.01 Z M 625.90 429.28 L 621.88 429.28 L 621.88 414.04 L 625.90 414.04 L 625.90 429.28 Z M 625.90 410.63 L 621.88 410.63 L 621.88 395.39 L 625.90 395.39 L 625.90 410.63 Z M 625.90 391.97 L 621.88 391.97 L 621.88 376.73 L 625.90 376.73 L 625.90 391.97 Z M 625.90 372.99 L 621.88 372.99 L 621.88 357.75 L 625.90 357.75 L 625.90 372.99 Z M 625.90 354.01 L 621.88 354.01 L 621.88 338.77 L 625.90 338.77 L 625.90 354.01 Z M 634.18 429.28 L 630.16 429.28 L 630.16 414.04 L 634.18 414.04 L 634.18 429.28 Z M 634.18 410.63 L 630.16 410.63 L 630.16 395.39 L 634.18 395.39 L 634.18 410.63 Z M 634.18 391.97 L 630.16 391.97 L 630.16 376.73 L 634.18 376.73 L 634.18 391.97 Z M 634.18 372.99 L 630.16 372.99 L 630.16 357.75 L 634.18 357.75 L 634.18 372.99 Z M 634.18 354.01 L 630.16 354.01 L 630.16 338.77 L 634.18 338.77 L 634.18 354.01 Z M 642.46 429.28 L 638.44 429.28 L 638.44 414.04 L 642.46 414.04 L 642.46 429.28 Z M 642.46 410.63 L 638.44 410.63 L 638.44 395.39 L 642.46 395.39 L 642.46 410.63 Z M 642.46 391.97 L 638.44 391.97 L 638.44 376.73 L 642.46 376.73 L 642.46 391.97 Z M 642.46 372.99 L 638.44 372.99 L 638.44 357.75 L 642.46 357.75 L 642.46 372.99 Z M 642.46 354.01 L 638.44 354.01 L 638.44 338.77 L 642.46 338.77 L 642.46 354.01 Z" fill="url(#SVGID_4_)" fill-rule="nonzero" group-id="5,43" node-id="445" stroke="none" target-height="169.73999" target-width="59.380005" target-x="598.86" target-y="297.56"></path><path d="M 93.21 509.39 L 93.21 419.84 L 103.46 419.84 L 103.46 374.15 L 138.72 358.87 L 138.72 419.12 L 146.46 419.12 L 146.46 509.39 Z" fill="url(#SVGID_5_)" fill-rule="nonzero" group-id="5,43" node-id="447" stroke="none" target-height="150.52005" target-width="53.250008" target-x="93.21" target-y="358.86996"></path><path d="M 697.98 492.78 L 667.04 492.78 L 667.04 369.65 L 697.98 384.62 Z" fill="url(#SVGID_6_)" fill-rule="nonzero" group-id="5,43" node-id="449" stroke="none" target-height="123.130005" target-width="30.939941" target-x="667.04" target-y="369.65"></path><path d="M 88.03 195.97 C 88.03 195.97 97.37 170.49 120.33 180.49 C 125.63 175.11 132.19 171.20 141.06 172.96 C 149.93 174.73 155.65 181.37 157.59 185.79 C 160.37 185.66 182.63 186.40 182.63 209.49 C 182.63 232.58 155.69 232.14 153.74 230.31 C 151.34 232.45 139.80 244.06 125.80 230.81 C 122.77 233.40 112.87 244.37 97.22 229.23 C 89.97 232.26 72.74 234.59 69.40 216.80 C 66.06 199.01 83.19 194.00 88.03 195.97 Z" fill="url(#SVGID_7_)" fill-rule="nonzero" group-id="5,43" node-id="451" stroke="none" target-height="73.87999" target-width="116.57001" target-x="66.06" target-y="170.49"></path><path d="M 605.10 159.15 C 605.10 159.15 614.44 133.67 637.40 143.67 C 642.70 138.29 649.26 134.38 658.13 136.14 C 667.00 137.90 672.72 144.55 674.66 148.97 C 677.44 148.84 699.70 149.58 699.70 172.67 C 699.70 195.76 672.76 195.32 670.81 193.49 C 668.41 195.63 656.87 207.24 642.87 193.99 C 639.84 196.58 629.94 207.55 614.29 192.41 C 607.04 195.44 589.81 197.77 586.47 179.98 C 583.12 162.20 600.26 157.18 605.10 159.15 Z" fill="url(#SVGID_8_)" fill-rule="nonzero" group-id="5,43" node-id="453" stroke="none" target-height="73.87999" target-width="116.58002" target-x="583.12" target-y="133.67"></path><path d="M 485.76 213.68 C 485.76 213.68 492.52 195.23 509.14 202.48 C 512.98 198.58 517.72 195.75 524.15 197.03 C 530.57 198.31 534.71 203.12 536.11 206.31 C 538.12 206.22 554.24 206.75 554.24 223.46 C 554.24 240.17 534.74 239.85 533.33 238.53 C 531.59 240.08 523.24 248.48 513.10 238.90 C 510.91 240.77 503.74 248.72 492.42 237.76 C 487.17 239.95 474.70 241.64 472.28 228.76 C 469.85 215.89 482.26 212.25 485.76 213.68 Z" fill="url(#SVGID_9_)" fill-rule="nonzero" group-id="5,43" node-id="455" stroke="none" target-height="53.490005" target-width="84.390015" target-x="469.84998" target-y="195.23"></path><path d="M 770.29 582.89 C 770.29 629.58 731.20 674.37 661.63 707.38 C 592.06 740.40 497.70 758.95 399.31 758.95 C 300.92 758.95 206.56 740.40 136.99 707.38 C 67.42 674.37 28.33 629.58 28.33 582.89 C 28.33 536.20 67.42 491.41 136.99 458.40 C 206.56 425.38 300.92 406.83 399.31 406.83 C 497.70 406.83 592.06 425.38 661.63 458.40 C 731.20 491.41 770.29 536.20 770.29 582.89 Z" fill="url(#SVGID_10_)" fill-rule="nonzero" group-id="5,43" node-id="457" stroke="none" target-height="352.1201" target-width="741.9601" target-x="28.329987" target-y="406.83"></path></g><g node-id="596"><g node-id="599"><path d="M 145.26 561.36 C 145.26 561.36 141.73 566.37 147.63 573.83 C 152.89 580.47 161.20 579.18 163.96 577.05 C 164.81 582.83 171.90 595.01 183.12 588.12 C 193.67 581.65 188.59 571.81 185.22 567.94 C 191.81 566.08 196.72 550.29 181.60 544.84 C 183.84 538.32 184.24 535.37 180.96 529.51 C 177.80 523.87 172.61 522.97 164.33 526.40 L 152.35 531.45 L 144.72 517.21 L 140.64 519.57 L 149.44 533.17 L 137.78 539.02 C 137.78 539.02 127.81 542.92 132.11 553.62 C 136.10 563.54 145.26 561.36 145.26 561.36 Z" fill="url(#SVGID_11_)" fill-rule="nonzero" group-id="5,44,47" node-id="463" stroke="none" target-height="77.79999" target-width="68.91" target-x="127.81" target-y="517.21"></path><path d="M 124.96 500.65 L 161.02 500.65 C 161.02 500.65 172.67 500.98 174.99 487.67 C 177.54 473.06 166.91 471.05 166.91 471.05 C 166.91 471.05 173.31 468.11 171.92 457.06 C 170.53 446.01 160.80 444.62 156.75 445.13 C 157.41 438.58 158.79 423.75 143.39 423.60 C 128.52 423.45 128.61 438.42 129.72 444.32 C 124.42 444.38 108.41 452.33 119.67 469.77 C 113.54 475.02 110.95 478.05 111.22 485.62 C 111.49 493.19 116.13 500.65 124.96 500.65 Z" fill="url(#SVGID_12_)" fill-rule="nonzero" group-id="5,44,47" node-id="465" stroke="none" target-height="77.53" target-width="69.13" target-x="108.409996" target-y="423.45"></path><path d="M 160.13 480.41 L 144.76 490.53 L 144.34 480.74 L 154.06 469.28 L 144.19 477.27 L 142.91 447.36 L 141.96 477.46 L 131.59 469.20 L 141.87 480.53 L 141.55 490.60 L 125.74 478.97 L 141.44 494.23 L 140.64 519.58 L 146.00 519.58 L 144.92 494.38 Z" fill="#c6d5e6" fill-rule="nonzero" group-id="5,44,47" node-id="467" stroke="none" target-height="72.22003" target-width="34.390007" target-x="125.74" target-y="447.36"></path></g><g node-id="600"><path d="M 667.68 543.05 C 667.68 543.05 664.43 547.67 669.86 554.53 C 674.70 560.65 682.36 559.46 684.90 557.49 C 685.68 562.81 692.22 574.02 702.55 567.69 C 712.26 561.73 707.59 552.67 704.48 549.11 C 710.55 547.40 715.07 532.85 701.15 527.84 C 703.22 521.84 703.59 519.12 700.56 513.73 C 697.65 508.54 692.87 507.70 685.25 510.87 L 674.21 515.52 L 667.18 502.41 L 663.43 504.58 L 671.53 517.10 L 660.80 522.49 C 660.80 522.49 651.62 526.08 655.58 535.94 C 659.25 545.06 667.68 543.05 667.68 543.05 Z" fill="url(#SVGID_13_)" fill-rule="nonzero" group-id="5,44,48" node-id="472" stroke="none" target-height="71.610016" target-width="63.450012" target-x="651.62" target-y="502.41"></path><path d="M 648.99 487.14 L 682.19 487.14 C 682.19 487.14 692.92 487.45 695.05 475.19 C 697.39 461.74 687.61 459.89 687.61 459.89 C 687.61 459.89 693.51 457.18 692.22 447.01 C 690.93 436.84 681.98 435.55 678.25 436.03 C 678.86 430.00 680.13 416.34 665.95 416.20 C 652.26 416.06 652.34 429.84 653.36 435.28 C 648.48 435.33 633.73 442.65 644.11 458.72 C 638.47 463.55 636.08 466.35 636.33 473.31 C 636.58 480.27 640.86 487.14 648.99 487.14 Z" fill="url(#SVGID_14_)" fill-rule="nonzero" group-id="5,44,48" node-id="474" stroke="none" target-height="71.390015" target-width="63.660034" target-x="633.73" target-y="416.06"></path><path d="M 681.38 468.51 L 667.22 477.83 L 666.83 468.82 L 675.79 458.26 L 666.69 465.61 L 665.52 438.08 L 664.65 465.79 L 655.09 458.19 L 664.56 468.62 L 664.27 477.89 L 649.70 467.19 L 664.16 481.24 L 663.43 504.58 L 668.36 504.58 L 667.37 481.38 Z" fill="#c6d5e6" fill-rule="nonzero" group-id="5,44,48" node-id="476" stroke="none" target-height="66.5" target-width="31.679993" target-x="649.7" target-y="438.08"></path></g><g node-id="601"><path d="M 228.19 452.86 C 228.19 452.86 226.44 455.34 229.36 459.03 C 231.96 462.32 236.07 461.68 237.44 460.62 C 237.86 463.48 241.37 469.50 246.92 466.10 C 252.14 462.90 249.63 458.03 247.96 456.12 C 251.22 455.20 253.65 447.39 246.17 444.70 C 247.28 441.48 247.48 440.02 245.85 437.12 C 244.29 434.33 241.72 433.88 237.63 435.58 L 231.70 438.08 L 227.93 431.04 L 225.91 432.21 L 230.26 438.93 L 224.49 441.82 C 224.49 441.82 219.56 443.75 221.69 449.04 C 223.66 453.93 228.19 452.86 228.19 452.86 Z" fill="url(#SVGID_15_)" fill-rule="nonzero" group-id="5,44,49" node-id="481" stroke="none" target-height="38.45999" target-width="34.09001" target-x="219.56" target-y="431.04"></path><path d="M 218.15 422.83 L 235.98 422.83 C 235.98 422.83 241.74 422.99 242.89 416.41 C 244.15 409.18 238.89 408.19 238.89 408.19 C 238.89 408.19 242.06 406.73 241.37 401.27 C 240.68 395.81 235.87 395.12 233.87 395.37 C 234.20 392.13 234.88 384.79 227.26 384.72 C 219.90 384.65 219.95 392.05 220.50 394.97 C 217.88 395.00 209.96 398.93 215.53 407.56 C 212.50 410.15 211.21 411.66 211.35 415.40 C 211.49 419.14 213.78 422.83 218.15 422.83 Z" fill="url(#SVGID_16_)" fill-rule="nonzero" group-id="5,44,49" node-id="483" stroke="none" target-height="38.339996" target-width="34.189987" target-x="209.95999" target-y="384.65"></path><path d="M 235.55 412.82 L 227.94 417.82 L 227.74 412.98 L 232.55 407.31 L 227.66 411.26 L 227.03 396.47 L 226.56 411.36 L 221.43 407.27 L 226.52 412.88 L 226.36 417.86 L 218.54 412.11 L 226.30 419.65 L 225.91 432.19 L 228.56 432.19 L 228.03 419.73 Z" fill="#c6d5e6" fill-rule="nonzero" group-id="5,44,49" node-id="485" stroke="none" target-height="35.72003" target-width="17.01001" target-x="218.54" target-y="396.46997"></path></g></g><g node-id="597"><path d="M 263.17 474.76 L 451.90 702.64 L 729.29 610.91 L 527.84 456.86 Z" fill="url(#SVGID_17_)" fill-rule="nonzero" group-id="5,45" node-id="490" stroke="none" target-height="245.78009" target-width="466.12003" target-x="263.17" target-y="456.86"></path><path d="M 484.07 453.96 L 356.94 446.03 L 356.94 295.77 L 486.85 294.84 Z" fill="url(#SVGID_18_)" fill-rule="nonzero" group-id="5,45" node-id="492" stroke="none" target-height="159.12003" target-width="129.90994" target-x="356.94003" target-y="294.84"></path><path d="M 356.94 446.03 L 297.70 483.16 L 297.70 270.57 L 356.94 295.77 Z" fill="url(#SVGID_19_)" fill-rule="nonzero" group-id="5,45" node-id="494" stroke="none" target-height="212.59003" target-width="59.24002" target-x="297.7" target-y="270.57"></path><path d="M 356.94 295.77 L 297.70 270.57 L 465.23 271.81 L 465.23 294.84 Z" fill="url(#SVGID_20_)" fill-rule="nonzero" group-id="5,45" node-id="496" stroke="none" target-height="25.199982" target-width="167.53003" target-x="297.7" target-y="270.57"></path><path d="M 356.94 446.03 L 474.00 453.17 L 465.36 499.62 L 297.70 483.16 Z" fill="url(#SVGID_21_)" fill-rule="nonzero" group-id="5,45" node-id="498" stroke="none" target-height="53.589996" target-width="176.29999" target-x="297.7" target-y="446.03"></path><path d="M 465.23 271.81 L 465.23 499.62 L 527.84 456.86 L 527.84 294.84 Z" fill="url(#SVGID_22_)" fill-rule="nonzero" group-id="5,45" node-id="500" stroke="none" target-height="227.81" target-width="62.609985" target-x="465.23004" target-y="271.81"></path><path d="M 297.70 270.57 C 297.70 270.57 347.08 238.79 349.99 239.44 C 352.90 240.10 506.71 239.44 506.71 239.44 L 465.24 271.81 L 297.70 270.57 Z" fill="url(#SVGID_23_)" fill-rule="nonzero" group-id="5,45" node-id="502" stroke="none" target-height="33.020004" target-width="209.00995" target-x="297.7" target-y="238.79"></path><path d="M 465.23 271.81 L 465.23 499.62 L 512.14 515.22 L 512.14 259.87 Z" fill="url(#SVGID_24_)" fill-rule="nonzero" group-id="5,45" node-id="504" stroke="none" target-height="255.34998" target-width="46.909973" target-x="465.23004" target-y="259.87"></path><path d="M 390.09 342.73 L 403.96 370.84 C 404.86 372.67 406.61 373.94 408.63 374.24 L 439.65 378.75 C 445.75 379.61 448.37 388.19 444.69 391.79 L 420.65 411.22 C 419.19 412.65 418.52 414.70 418.86 416.71 L 424.16 447.61 C 425.03 452.68 419.71 456.55 415.15 454.15 L 387.40 439.56 C 385.59 438.61 383.43 438.61 381.62 439.56 L 356.45 456.53 C 351.90 458.92 343.86 453.74 344.87 447.60 L 350.17 416.70 C 350.52 414.69 349.85 412.63 348.38 411.21 L 325.93 389.33 C 322.25 385.74 324.28 379.48 329.37 378.74 L 360.39 374.23 C 362.41 373.94 364.16 372.67 365.06 370.83 L 378.93 342.72 C 381.23 338.12 387.81 338.12 390.09 342.73 Z" fill="url(#SVGID_25_)" fill-rule="nonzero" group-id="5,45" node-id="506" stroke="none" target-height="120.80002" target-width="126.119995" target-x="322.25" target-y="338.12"></path><path d="M 392.41 347.19 L 406.00 374.72 C 406.89 376.51 408.60 377.76 410.58 378.04 L 440.95 382.45 C 445.93 383.17 447.92 389.30 444.32 392.82 L 422.34 414.24 C 420.91 415.64 420.25 417.65 420.59 419.62 L 425.78 449.87 C 426.63 454.83 421.42 458.62 416.96 456.28 L 389.79 442.00 C 388.02 441.07 385.90 441.07 384.13 442.00 L 356.96 456.28 C 352.50 458.62 347.29 454.84 348.14 449.87 L 353.33 419.62 C 353.67 417.65 353.01 415.64 351.58 414.24 L 329.60 392.82 C 325.99 389.30 327.98 383.18 332.97 382.45 L 363.34 378.04 C 365.32 377.75 367.03 376.51 367.92 374.72 L 381.50 347.20 C 383.74 342.68 390.18 342.68 392.41 347.19 Z" fill="url(#SVGID_26_)" fill-rule="nonzero" group-id="5,45" node-id="508" stroke="none" target-height="115.94" target-width="121.93002" target-x="325.99" target-y="342.68"></path><path d="M 297.70 483.16 L 261.52 517.71 L 450.57 543.33 L 465.23 499.62 Z" fill="url(#SVGID_27_)" fill-rule="nonzero" group-id="5,45" node-id="510" stroke="none" target-height="60.169983" target-width="203.71005" target-x="261.52" target-y="483.16003"></path><path d="M 297.70 270.57 L 297.70 483.16 L 263.17 474.76 L 263.17 272.85 Z" fill="url(#SVGID_28_)" fill-rule="nonzero" group-id="5,45" node-id="512" stroke="none" target-height="212.59003" target-width="34.53" target-x="263.17" target-y="270.57"></path><path d="M 261.52 517.71 L 303.38 523.38 L 303.48 523.38 L 282.35 497.81 Z" fill="#f4f8fa" fill-rule="nonzero" group-id="5,45" node-id="514" stroke="none" target-height="25.570038" target-width="41.960022" target-x="261.52" target-y="497.80997"></path></g><g node-id="598"><path d="M 337.23 474.25 L 341.79 476.64 C 341.79 476.64 335.53 486.78 332.35 488.79 C 337.76 487.41 348.71 485.18 355.48 489.18 C 355.87 497.85 349.79 504.36 349.79 504.36 C 349.79 504.36 323.14 501.30 323.12 491.26 C 323.37 485.91 337.23 474.25 337.23 474.25 Z" fill="url(#SVGID_29_)" fill-rule="nonzero" group-id="5,46" node-id="519" stroke="none" target-height="30.109985" target-width="32.75" target-x="323.12" target-y="474.25"></path><path d="M 300.17 482.27 C 300.89 482.10 306.99 480.61 306.99 480.61 C 306.99 480.61 319.11 490.44 321.94 492.80 C 322.58 493.28 325.17 495.68 326.83 495.40 C 328.49 495.12 335.69 492.46 336.69 492.20 C 340.56 491.18 350.13 489.34 354.76 493.61 C 355.13 500.24 349.64 508.22 349.64 508.22 C 349.64 508.22 334.22 509.25 325.09 506.23 C 315.96 503.21 300.17 482.27 300.17 482.27 Z" fill="url(#SVGID_30_)" fill-rule="nonzero" group-id="5,46" node-id="521" stroke="none" target-height="28.640015" target-width="54.95999" target-x="300.17" target-y="480.61"></path><path d="M 393.15 506.08 C 393.15 506.08 405.39 516.21 409.35 513.33 C 410.84 512.24 413.97 508.45 404.29 501.04 C 403.04 498.79 402.54 494.93 400.59 494.86 C 399.38 495.74 400.52 502.26 400.85 502.85 C 401.18 503.44 404.67 506.98 405.17 507.44 C 405.11 507.56 400.95 504.12 400.40 503.86 C 399.86 503.60 394.46 505.04 394.49 505.07 C 394.51 505.09 393.15 506.08 393.15 506.08 Z" fill="#ffbe92" fill-rule="nonzero" group-id="5,46" node-id="523" stroke="none" target-height="21.350006" target-width="20.819946" target-x="393.15002" target-y="494.86002"></path><path d="M 398.53 492.11 C 398.53 492.11 401.14 495.39 401.81 500.10 C 402.34 503.52 402.40 506.91 399.05 508.12 C 395.70 509.33 391.91 506.57 391.91 506.57 C 391.91 506.57 389.80 506.92 387.01 506.99 C 384.54 504.49 383.33 502.83 384.14 500.70 C 386.89 499.12 389.62 490.01 398.53 492.11 Z" fill="#f9caaa" fill-rule="nonzero" group-id="5,46" node-id="525" stroke="none" target-height="19.319977" target-width="19.070038" target-x="383.33" target-y="490.01"></path><path d="M 387.29 492.94 C 387.29 492.94 382.73 492.46 380.00 493.23 C 377.27 494.00 363.36 491.68 358.98 488.52 C 354.60 485.35 355.00 486.94 352.72 489.07 C 350.44 491.20 343.92 498.27 345.06 505.34 C 346.20 512.41 348.59 511.05 350.91 510.64 C 353.23 510.24 367.58 511.12 372.78 512.44 C 377.97 513.77 380.51 511.92 382.90 509.46 C 385.40 509.17 390.48 507.95 390.52 505.15 C 390.57 502.36 387.29 492.94 387.29 492.94 Z" fill="url(#SVGID_31_)" fill-rule="nonzero" group-id="5,46" node-id="527" stroke="none" target-height="28.420044" target-width="46.650024" target-x="343.92" target-y="485.34998"></path><path d="M 399.47 489.77 C 399.97 490.86 402.59 491.38 401.50 493.36 C 400.41 495.34 401.16 495.86 400.98 496.63 C 400.33 499.38 395.99 498.34 396.46 500.32 C 396.93 502.29 396.10 503.10 393.45 503.18 C 392.51 503.21 392.20 502.82 391.53 502.71 C 390.86 502.60 391.01 503.91 391.01 505.20 C 391.01 506.50 389.04 506.91 388.10 505.51 C 387.16 504.11 387.32 503.17 385.35 502.03 C 383.38 500.89 380.57 500.47 382.18 498.76 C 383.79 497.05 383.56 496.58 383.17 495.30 C 382.42 492.85 381.89 493.03 383.79 490.86 C 384.70 489.82 387.95 490.08 388.99 487.69 C 390.03 485.30 392.06 485.56 393.87 487.22 C 395.69 488.88 396.10 488.73 397.30 488.42 C 398.48 488.11 398.85 488.42 399.47 489.77 Z" fill="#171c61" fill-rule="nonzero" group-id="5,46" node-id="529" stroke="none" target-height="21.610046" target-width="22.019989" target-x="380.57" target-y="485.3"></path><path d="M 388.99 513.85 C 388.99 513.85 383.78 518.71 380.61 520.41 C 377.31 516.87 370.05 509.23 376.25 505.05 C 380.43 502.22 385.57 505.76 388.99 513.85 Z" fill="url(#SVGID_32_)" fill-rule="nonzero" group-id="5,46" node-id="531" stroke="none" target-height="18.190002" target-width="18.939972" target-x="370.05002" target-y="502.21997"></path><path d="M 397.61 506.88 C 396.74 505.96 392.22 505.81 391.90 505.33 C 390.57 503.27 388.48 502.66 387.90 502.85 C 387.32 503.04 387.96 504.73 389.42 507.02 C 390.88 509.31 394.01 509.68 395.04 510.18 C 396.07 510.68 395.57 511.39 395.57 511.39 L 391.63 520.57 C 390.76 519.15 389.24 516.40 388.21 514.52 C 387.42 515.29 384.53 517.73 382.06 519.47 C 387.01 527.03 391.69 530.41 394.29 529.85 C 397.20 529.22 398.71 517.46 398.95 512.62 C 399.20 507.79 398.47 507.80 397.61 506.88 Z" fill="#ffbe92" fill-rule="nonzero" group-id="5,46" node-id="533" stroke="none" target-height="27.74997" target-width="17.140015" target-x="382.06" target-y="502.66"></path><path d="M 290.16 475.35 C 290.16 475.35 289.85 478.65 291.67 479.45 C 293.49 480.25 296.77 479.88 300.03 482.71 C 301.42 482.03 304.06 480.83 307.83 481.06 C 307.76 479.84 307.68 476.20 306.75 476.20 C 305.82 476.20 291.14 475.46 291.14 475.46 L 290.16 475.35 Z" fill="#f8b62d" fill-rule="nonzero" group-id="5,46" node-id="535" stroke="none" target-height="7.3599854" target-width="17.97998" target-x="289.85" target-y="475.35"></path><path d="M 301.73 475.45 C 299.35 475.26 292.57 472.51 290.53 474.69 C 288.49 476.87 294.24 478.44 297.23 478.87 C 300.47 479.33 302.34 479.48 303.55 479.42 C 304.27 479.39 307.63 478.71 307.47 476.73 C 307.37 475.51 304.16 475.25 301.78 475.08 C 301.76 475.21 301.76 475.31 301.73 475.45 Z" fill="url(#SVGID_33_)" fill-rule="nonzero" group-id="5,46" node-id="537" stroke="none" target-height="6.970001" target-width="19.140015" target-x="288.49" target-y="472.51"></path><path d="M 338.64 459.53 L 337.09 459.75 C 337.09 459.75 334.43 461.69 335.89 467.24 C 336.54 469.23 336.21 471.54 336.17 472.77 C 336.14 474.00 335.77 477.39 338.51 478.04 C 341.25 478.69 342.03 476.83 342.16 476.25 C 342.31 475.66 338.64 459.53 338.64 459.53 Z" fill="#f8b62d" fill-rule="nonzero" group-id="5,46" node-id="539" stroke="none" target-height="19.160004" target-width="7.880005" target-x="334.43" target-y="459.53"></path><path d="M 343.13 471.27 C 343.13 471.27 347.27 459.51 340.19 458.98 C 333.11 458.46 337.52 467.70 337.37 470.12 C 337.22 472.54 335.73 477.30 339.56 477.77 C 343.39 478.24 343.13 471.27 343.13 471.27 Z" fill="#e6e8e8" fill-rule="nonzero" group-id="5,46" node-id="541" stroke="none" target-height="19.779999" target-width="14.160004" target-x="333.11" target-y="458.46"></path><path d="M 290.19 475.18 C 290.19 475.18 289.84 476.98 294.35 477.85 C 296.55 478.27 298.44 478.51 299.92 478.65 C 299.91 478.57 299.97 478.22 300.01 478.07 C 301.41 478.19 302.58 478.37 303.07 478.41 C 304.40 478.51 307.40 478.00 307.43 476.53 C 307.56 476.92 307.62 477.67 307.64 478.20 C 307.70 478.83 306.40 479.94 303.17 479.75 C 300.13 479.57 296.60 479.11 295.18 478.84 C 293.76 478.56 290.71 478.03 290.06 476.21 C 290.02 475.60 290.12 475.19 290.19 475.18 Z" fill="#e6e8e8" fill-rule="nonzero" group-id="5,46" node-id="543" stroke="none" target-height="4.76001" target-width="17.860016" target-x="289.84" target-y="475.18"></path><path d="M 301.73 475.45 L 300.01 478.06 L 299.92 478.65 L 298.60 478.52 Z" fill="#d4dfec" fill-rule="nonzero" group-id="5,46" node-id="545" stroke="none" target-height="3.1999817" target-width="3.130005" target-x="298.6" target-y="475.45"></path><path d="M 416.22 515.73 L 409.35 524.78 C 408.83 525.77 409.19 526.80 409.90 526.90 L 431.56 529.51 C 431.97 529.57 432.37 529.37 432.56 529.00 L 437.41 518.50 C 437.72 517.91 437.70 516.74 436.53 516.34 L 417.16 515.32 C 416.78 515.27 416.42 515.43 416.22 515.73 Z" fill="url(#SVGID_34_)" fill-rule="nonzero" group-id="5,46" node-id="547" stroke="none" target-height="14.299988" target-width="28.889984" target-x="408.83" target-y="515.27"></path><path d="M 415.90 514.95 L 409.42 524.67 C 409.02 525.26 409.37 526.06 410.07 526.16 L 431.29 528.71 C 431.69 528.77 432.09 528.57 432.28 528.20 L 437.13 517.70 C 437.44 517.11 437.06 516.39 436.40 516.31 L 417.06 514.41 C 416.70 514.37 416.10 514.65 415.90 514.95 Z" fill="url(#SVGID_35_)" fill-rule="nonzero" group-id="5,46" node-id="549" stroke="none" target-height="14.400024" target-width="28.420013" target-x="409.02002" target-y="514.37"></path><path d="M 417.38 516.24 L 412.27 524.04 C 411.98 524.50 412.49 524.81 413.07 524.89 L 430.13 526.83 C 430.46 526.88 430.78 526.71 430.94 526.42 L 434.72 518.67 C 434.97 518.19 434.84 517.67 434.13 517.53 L 418.13 515.90 C 417.84 515.87 417.55 516.00 417.38 516.24 Z" fill="url(#SVGID_36_)" fill-rule="nonzero" group-id="5,46" node-id="551" stroke="none" target-height="11.01001" target-width="22.98999" target-x="411.98" target-y="515.87"></path></g></g></svg>