<?xml version="1.0" standalone="no"?><!DOCTYPE svg PUBLIC "-//W3C//DTD SVG 1.1//EN" "http://www.w3.org/Graphics/SVG/1.1/DTD/svg11.dtd"><svg height="800" node-id="1" sillyvg="true" template-height="800" template-width="800" version="1.1" viewBox="0 0 800 800" width="800" xmlns="http://www.w3.org/2000/svg" xmlns:xlink="http://www.w3.org/1999/xlink"><defs node-id="179"><linearGradient gradientUnits="objectBoundingBox" id="SVGID_1_" node-id="13" spreadMethod="pad" x1="255.8907" x2="255.8907" y1="426.4184" y2="329.6301"><stop offset="0.0000005358273" stop-color="#ffffff"></stop><stop offset="1" stop-color="#dbe3ee"></stop></linearGradient><linearGradient gradientUnits="objectBoundingBox" id="SVGID_2_" node-id="17" spreadMethod="pad" x1="191.2738" x2="191.2738" y1="484.4102" y2="267.9212"><stop offset="0.0000005358273" stop-color="#ffffff"></stop><stop offset="1" stop-color="#dbe3ee"></stop></linearGradient><linearGradient gradientUnits="objectBoundingBox" id="SVGID_3_" node-id="21" spreadMethod="pad" x1="567.0554" x2="567.0554" y1="441.7314" y2="285.2506"><stop offset="0.0000005358273" stop-color="#ffffff"></stop><stop offset="1" stop-color="#dbe3ee"></stop></linearGradient><linearGradient gradientUnits="objectBoundingBox" id="SVGID_4_" node-id="25" spreadMethod="pad" x1="629.5802" x2="629.5802" y1="464.4014" y2="294.6607"><stop offset="0.0000005358273" stop-color="#ffffff"></stop><stop offset="1" stop-color="#dbe3ee"></stop></linearGradient><linearGradient gradientUnits="objectBoundingBox" id="SVGID_5_" node-id="29" spreadMethod="pad" x1="120.8677" x2="120.8677" y1="506.4799" y2="355.9665"><stop offset="0.0000005358273" stop-color="#ffffff"></stop><stop offset="1" stop-color="#edf1f9"></stop></linearGradient><linearGradient gradientUnits="objectBoundingBox" id="SVGID_6_" node-id="33" spreadMethod="pad" x1="683.5408" x2="683.5408" y1="489.8745" y2="366.7422"><stop offset="0.0000005358273" stop-color="#ffffff"></stop><stop offset="1" stop-color="#edf1f9"></stop></linearGradient><linearGradient gradientUnits="objectBoundingBox" id="SVGID_7_" node-id="37" spreadMethod="pad" x1="126.8313" x2="126.8313" y1="234.1726" y2="169.6313"><stop offset="0.2332" stop-color="#ffffff"></stop><stop offset="1" stop-color="#d3dfee"></stop></linearGradient><linearGradient gradientUnits="objectBoundingBox" id="SVGID_8_" node-id="41" spreadMethod="pad" x1="643.8998" x2="643.8998" y1="197.3522" y2="132.8109"><stop offset="0.2332" stop-color="#ffffff"></stop><stop offset="1" stop-color="#d3dfee"></stop></linearGradient><linearGradient gradientUnits="objectBoundingBox" id="SVGID_9_" node-id="45" spreadMethod="pad" x1="514.1288" x2="514.1288" y1="240.5256" y2="193.8084"><stop offset="0.2332" stop-color="#ffffff"></stop><stop offset="1" stop-color="#d3dfee"></stop></linearGradient><linearGradient gradientUnits="objectBoundingBox" id="SVGID_10_" node-id="49" spreadMethod="pad" x1="400.3461" x2="400.3461" y1="756.0504" y2="403.9216"><stop offset="0.4065" stop-color="#ffffff"></stop><stop offset="1" stop-color="#dae4ef"></stop></linearGradient><linearGradient gradientUnits="objectBoundingBox" id="SVGID_11_" node-id="55" spreadMethod="pad" x1="191.2757" x2="139.8395" y1="579.5063" y2="518.207"><stop offset="0.4034" stop-color="#eff4f8"></stop><stop offset="1" stop-color="#d4dfec"></stop></linearGradient><linearGradient gradientUnits="objectBoundingBox" id="SVGID_12_" node-id="59" spreadMethod="pad" x1="112.2279" x2="176.4147" y1="459.2159" y2="459.2159"><stop offset="0.1022" stop-color="#f0f5f8"></stop><stop offset="1" stop-color="#b4c7dc"></stop></linearGradient><linearGradient gradientUnits="objectBoundingBox" id="SVGID_13_" node-id="65" spreadMethod="pad" x1="710.1378" x2="662.7723" y1="559.5337" y2="503.0858"><stop offset="0.4034" stop-color="#eff4f8"></stop><stop offset="1" stop-color="#d4dfec"></stop></linearGradient><linearGradient gradientUnits="objectBoundingBox" id="SVGID_14_" node-id="69" spreadMethod="pad" x1="637.346" x2="696.4529" y1="448.7634" y2="448.7634"><stop offset="0.1022" stop-color="#f0f5f8"></stop><stop offset="1" stop-color="#b4c7dc"></stop></linearGradient><linearGradient gradientUnits="objectBoundingBox" id="SVGID_15_" node-id="75" spreadMethod="pad" x1="251.4752" x2="226.0339" y1="460.3629" y2="430.0432"><stop offset="0.0000001438503" stop-color="#eaeff6"></stop><stop offset="1" stop-color="#cddae9"></stop></linearGradient><linearGradient gradientUnits="objectBoundingBox" id="SVGID_16_" node-id="79" spreadMethod="pad" x1="212.3767" x2="244.1247" y1="400.8652" y2="400.8652"><stop offset="0.1022" stop-color="#f0f5f8"></stop><stop offset="1" stop-color="#b4c7dc"></stop></linearGradient><linearGradient gradientUnits="objectBoundingBox" id="SVGID_17_" node-id="85" spreadMethod="pad" x1="539.1889" x2="467.5389" y1="709.0822" y2="459.2088"><stop offset="0.1887" stop-color="#ffffff"></stop><stop offset="1" stop-color="#bbcbe0"></stop></linearGradient><linearGradient gradientUnits="objectBoundingBox" id="SVGID_18_" node-id="89" spreadMethod="pad" x1="329.2207" x2="526.6727" y1="355.7325" y2="355.7325"><stop offset="0" stop-color="#eff3f9"></stop><stop offset="1" stop-color="#b6c9de"></stop></linearGradient><linearGradient gradientUnits="objectBoundingBox" id="SVGID_19_" node-id="93" spreadMethod="pad" x1="284.3214" x2="481.7735" y1="394.3465" y2="394.3465"><stop offset="0" stop-color="#eff3f9"></stop><stop offset="1" stop-color="#b6c9de"></stop></linearGradient><linearGradient gradientUnits="objectBoundingBox" id="SVGID_20_" node-id="106" spreadMethod="pad" x1="569.0545" x2="441.0057" y1="460.02" y2="460.02"><stop offset="0" stop-color="#eff3f9"></stop><stop offset="1" stop-color="#a3b9d1"></stop></linearGradient><linearGradient gradientUnits="objectBoundingBox" id="SVGID_21_" node-id="110" spreadMethod="pad" x1="435.624" x2="564.6737" y1="460.2505" y2="460.2505"><stop offset="0" stop-color="#eff3f9"></stop><stop offset="1" stop-color="#b6c9de"></stop></linearGradient><linearGradient gradientUnits="objectBoundingBox" id="SVGID_22_" node-id="116" spreadMethod="pad" x1="502.6904" x2="502.6904" y1="355.5377" y2="338.9199"><stop offset="0.3408" stop-color="#f4ae7f"></stop><stop offset="1" stop-color="#ffbe92"></stop></linearGradient><linearGradient gradientUnits="objectBoundingBox" id="SVGID_23_" node-id="122" spreadMethod="pad" x1="502.3931" x2="502.3931" y1="385.5446" y2="351.3852"><stop offset="0" stop-color="#f2a319"></stop><stop offset="0.4796" stop-color="#ffc552"></stop></linearGradient><linearGradient gradientUnits="objectBoundingBox" id="SVGID_24_" node-id="126" spreadMethod="pad" x1="501.9057" x2="501.9057" y1="388.0353" y2="368.6981"><stop offset="0" stop-color="#171c61"></stop><stop offset="0.7869" stop-color="#272f7c"></stop></linearGradient><linearGradient gradientUnits="objectBoundingBox" id="SVGID_25_" node-id="131" spreadMethod="pad" x1="488.967" x2="513.5679" y1="390.9068" y2="390.9068"><stop offset="0" stop-color="#4ea2f4"></stop><stop offset="0.6903" stop-color="#1e77cf"></stop></linearGradient><linearGradient gradientUnits="objectBoundingBox" id="SVGID_26_" node-id="140" spreadMethod="pad" x1="581.7508" x2="569.6813" y1="386.4545" y2="402.4522"><stop offset="0" stop-color="#4ea2f4"></stop><stop offset="0.6903" stop-color="#1e77cf"></stop></linearGradient></defs><g node-id="464"><g node-id="499"><path d="M 270.35 333.04 L 270.35 329.63 L 240.85 329.63 L 240.85 333.59 L 234.37 333.59 L 234.37 426.42 L 277.42 426.42 L 277.42 333.04 L 270.35 333.04 Z M 273.69 415.77 L 237.65 415.77 L 237.65 413.02 L 273.69 413.02 L 273.69 415.77 Z M 273.69 403.10 L 237.65 403.10 L 237.65 400.35 L 273.69 400.35 L 273.69 403.10 Z M 273.69 390.42 L 237.65 390.42 L 237.65 387.67 L 273.69 387.67 L 273.69 390.42 Z M 273.69 378.08 L 237.65 378.08 L 237.65 375.33 L 273.69 375.33 L 273.69 378.08 Z M 273.69 365.76 L 237.65 365.76 L 237.65 363.01 L 273.69 363.01 L 273.69 365.76 Z M 273.69 353.09 L 237.65 353.09 L 237.65 350.34 L 273.69 350.34 L 273.69 353.09 Z M 273.69 340.74 L 237.65 340.74 L 237.65 338.00 L 273.69 338.00 L 273.69 340.74 Z" fill="url(#SVGID_1_)" fill-rule="nonzero" group-id="8,43" node-id="347" stroke="none" target-height="96.79001" target-width="43.050034" target-x="234.36998" target-y="329.63"></path><path d="M 212.36 384.85 L 212.36 276.66 L 179.61 276.66 L 179.61 267.92 L 165.75 267.92 L 165.75 321.25 L 162.02 321.25 L 162.02 484.41 L 220.53 484.41 L 220.53 384.85 L 212.36 384.85 Z M 187.87 416.66 L 179.61 416.66 L 179.61 408.65 L 187.87 408.65 L 187.87 416.66 Z M 187.87 404.13 L 179.61 404.13 L 179.61 396.12 L 187.87 396.12 L 187.87 404.13 Z M 187.87 391.65 L 179.61 391.65 L 179.61 383.64 L 187.87 383.64 L 187.87 391.65 Z M 187.87 379.22 L 179.61 379.22 L 179.61 371.21 L 187.87 371.21 L 187.87 379.22 Z M 187.87 366.68 L 179.61 366.68 L 179.61 358.67 L 187.87 358.67 L 187.87 366.68 Z M 187.87 341.68 L 179.61 341.68 L 179.61 333.67 L 187.87 333.67 L 187.87 341.68 Z M 187.87 329.15 L 179.61 329.15 L 179.61 321.14 L 187.87 321.14 L 187.87 329.15 Z M 187.87 316.68 L 179.61 316.68 L 179.61 308.67 L 187.87 308.67 L 187.87 316.68 Z M 187.87 304.24 L 179.61 304.24 L 179.61 296.23 L 187.87 296.23 L 187.87 304.24 Z M 187.87 291.71 L 179.61 291.71 L 179.61 283.70 L 187.87 283.70 L 187.87 291.71 Z M 200.22 416.66 L 191.96 416.66 L 191.96 408.65 L 200.22 408.65 L 200.22 416.66 Z M 200.22 404.13 L 191.96 404.13 L 191.96 396.12 L 200.22 396.12 L 200.22 404.13 Z M 200.22 391.65 L 191.96 391.65 L 191.96 383.64 L 200.22 383.64 L 200.22 391.65 Z M 200.22 379.22 L 191.96 379.22 L 191.96 371.21 L 200.22 371.21 L 200.22 379.22 Z M 200.22 366.68 L 191.96 366.68 L 191.96 358.67 L 200.22 358.67 L 200.22 366.68 Z M 200.22 341.68 L 191.96 341.68 L 191.96 333.67 L 200.22 333.67 L 200.22 341.68 Z M 200.22 329.15 L 191.96 329.15 L 191.96 321.14 L 200.22 321.14 L 200.22 329.15 Z M 200.22 316.68 L 191.96 316.68 L 191.96 308.67 L 200.22 308.67 L 200.22 316.68 Z M 200.22 304.24 L 191.96 304.24 L 191.96 296.23 L 200.22 296.23 L 200.22 304.24 Z M 200.22 291.71 L 191.96 291.71 L 191.96 283.70 L 200.22 283.70 L 200.22 291.71 Z" fill="url(#SVGID_2_)" fill-rule="nonzero" group-id="8,43" node-id="349" stroke="none" target-height="216.48999" target-width="58.509995" target-x="162.02" target-y="267.92"></path><path d="M 534.67 441.73 C 535.03 437.08 534.67 285.25 534.67 285.25 L 553.20 285.25 L 553.20 318.96 L 582.70 318.96 L 582.70 389.41 L 599.43 389.41 L 599.43 441.73 L 534.67 441.73 Z" fill="url(#SVGID_3_)" fill-rule="nonzero" group-id="8,43" node-id="351" stroke="none" target-height="156.48001" target-width="64.76001" target-x="534.67" target-y="285.25"></path><path d="M 655.89 373.59 L 655.89 368.74 L 650.89 368.74 L 650.89 326.41 L 638.69 326.41 L 638.69 321.71 L 630.46 321.71 L 630.46 314.80 L 626.17 314.80 L 626.17 294.66 L 623.08 294.66 L 623.08 314.94 L 619.14 314.94 L 619.14 321.85 L 606.94 321.85 L 606.94 333.17 L 599.89 333.17 L 599.89 464.40 L 659.27 464.40 L 659.27 373.58 L 655.89 373.58 Z M 610.38 426.37 L 606.36 426.37 L 606.36 411.13 L 610.38 411.13 L 610.38 426.37 Z M 610.38 407.72 L 606.36 407.72 L 606.36 392.48 L 610.38 392.48 L 610.38 407.72 Z M 610.38 389.07 L 606.36 389.07 L 606.36 373.83 L 610.38 373.83 L 610.38 389.07 Z M 610.38 370.08 L 606.36 370.08 L 606.36 354.84 L 610.38 354.84 L 610.38 370.08 Z M 610.38 351.10 L 606.36 351.10 L 606.36 335.86 L 610.38 335.86 L 610.38 351.10 Z M 618.66 426.37 L 614.64 426.37 L 614.64 411.13 L 618.66 411.13 L 618.66 426.37 Z M 618.66 407.72 L 614.64 407.72 L 614.64 392.48 L 618.66 392.48 L 618.66 407.72 Z M 618.66 389.07 L 614.64 389.07 L 614.64 373.83 L 618.66 373.83 L 618.66 389.07 Z M 618.66 370.08 L 614.64 370.08 L 614.64 354.84 L 618.66 354.84 L 618.66 370.08 Z M 618.66 351.10 L 614.64 351.10 L 614.64 335.86 L 618.66 335.86 L 618.66 351.10 Z M 626.93 426.37 L 622.91 426.37 L 622.91 411.13 L 626.93 411.13 L 626.93 426.37 Z M 626.93 407.72 L 622.91 407.72 L 622.91 392.48 L 626.93 392.48 L 626.93 407.72 Z M 626.93 389.07 L 622.91 389.07 L 622.91 373.83 L 626.93 373.83 L 626.93 389.07 Z M 626.93 370.08 L 622.91 370.08 L 622.91 354.84 L 626.93 354.84 L 626.93 370.08 Z M 626.93 351.10 L 622.91 351.10 L 622.91 335.86 L 626.93 335.86 L 626.93 351.10 Z M 635.21 426.37 L 631.19 426.37 L 631.19 411.13 L 635.21 411.13 L 635.21 426.37 Z M 635.21 407.72 L 631.19 407.72 L 631.19 392.48 L 635.21 392.48 L 635.21 407.72 Z M 635.21 389.07 L 631.19 389.07 L 631.19 373.83 L 635.21 373.83 L 635.21 389.07 Z M 635.21 370.08 L 631.19 370.08 L 631.19 354.84 L 635.21 354.84 L 635.21 370.08 Z M 635.21 351.10 L 631.19 351.10 L 631.19 335.86 L 635.21 335.86 L 635.21 351.10 Z M 643.49 426.37 L 639.47 426.37 L 639.47 411.13 L 643.49 411.13 L 643.49 426.37 Z M 643.49 407.72 L 639.47 407.72 L 639.47 392.48 L 643.49 392.48 L 643.49 407.72 Z M 643.49 389.07 L 639.47 389.07 L 639.47 373.83 L 643.49 373.83 L 643.49 389.07 Z M 643.49 370.08 L 639.47 370.08 L 639.47 354.84 L 643.49 354.84 L 643.49 370.08 Z M 643.49 351.10 L 639.47 351.10 L 639.47 335.86 L 643.49 335.86 L 643.49 351.10 Z" fill="url(#SVGID_4_)" fill-rule="nonzero" group-id="8,43" node-id="353" stroke="none" target-height="169.73996" target-width="59.380005" target-x="599.89" target-y="294.66"></path><path d="M 94.24 506.48 L 94.24 416.94 L 104.50 416.94 L 104.50 371.24 L 139.76 355.97 L 139.76 416.22 L 147.49 416.22 L 147.49 506.48 Z" fill="url(#SVGID_5_)" fill-rule="nonzero" group-id="8,43" node-id="355" stroke="none" target-height="150.51001" target-width="53.250008" target-x="94.24" target-y="355.97"></path><path d="M 699.01 489.87 L 668.07 489.87 L 668.07 366.74 L 699.01 381.71 Z" fill="url(#SVGID_6_)" fill-rule="nonzero" group-id="8,43" node-id="357" stroke="none" target-height="123.130005" target-width="30.940002" target-x="668.07" target-y="366.74"></path><path d="M 89.06 193.06 C 89.06 193.06 98.40 167.58 121.36 177.58 C 126.66 172.20 133.22 168.29 142.09 170.05 C 150.96 171.81 156.68 178.46 158.62 182.88 C 161.40 182.75 183.66 183.49 183.66 206.58 C 183.66 229.67 156.72 229.23 154.77 227.40 C 152.37 229.54 140.83 241.15 126.83 227.90 C 123.80 230.49 113.90 241.46 98.25 226.32 C 91.00 229.35 73.77 231.68 70.43 213.89 C 67.09 196.11 84.22 191.09 89.06 193.06 Z" fill="url(#SVGID_7_)" fill-rule="nonzero" group-id="8,43" node-id="359" stroke="none" target-height="73.87999" target-width="116.57002" target-x="67.09" target-y="167.58"></path><path d="M 606.13 156.24 C 606.13 156.24 615.47 130.76 638.43 140.76 C 643.73 135.38 650.29 131.47 659.16 133.23 C 668.03 135.00 673.75 141.64 675.69 146.06 C 678.47 145.93 700.73 146.67 700.73 169.76 C 700.73 192.85 673.79 192.41 671.84 190.58 C 669.44 192.72 657.90 204.33 643.90 191.08 C 640.87 193.67 630.97 204.64 615.32 189.50 C 608.07 192.53 590.84 194.86 587.50 177.07 C 584.16 159.29 601.29 154.27 606.13 156.24 Z" fill="url(#SVGID_8_)" fill-rule="nonzero" group-id="8,43" node-id="361" stroke="none" target-height="73.87999" target-width="116.57001" target-x="584.16" target-y="130.76"></path><path d="M 486.79 210.77 C 486.79 210.77 493.55 192.32 510.17 199.57 C 514.01 195.67 518.75 192.84 525.18 194.12 C 531.61 195.40 535.74 200.21 537.14 203.40 C 539.15 203.31 555.27 203.84 555.27 220.55 C 555.27 237.26 535.77 236.94 534.36 235.62 C 532.62 237.17 524.27 245.57 514.13 235.99 C 511.94 237.86 504.77 245.81 493.45 234.85 C 488.20 237.04 475.73 238.73 473.31 225.85 C 470.88 212.98 483.29 209.34 486.79 210.77 Z" fill="url(#SVGID_9_)" fill-rule="nonzero" group-id="8,43" node-id="363" stroke="none" target-height="53.48999" target-width="84.390015" target-x="470.88" target-y="192.32"></path><path d="M 771.33 579.99 C 771.33 626.68 732.24 671.47 662.67 704.48 C 593.10 737.50 498.74 756.05 400.35 756.05 C 301.96 756.05 207.60 737.50 138.03 704.48 C 68.46 671.47 29.37 626.68 29.37 579.99 C 29.37 533.30 68.46 488.51 138.03 455.50 C 207.60 422.48 301.96 403.93 400.35 403.93 C 498.74 403.93 593.10 422.48 662.67 455.50 C 732.24 488.51 771.33 533.30 771.33 579.99 Z" fill="url(#SVGID_10_)" fill-rule="nonzero" group-id="8,43" node-id="365" stroke="none" target-height="352.12" target-width="741.9601" target-x="29.369995" target-y="403.93"></path></g><g node-id="500"><g node-id="503"><path d="M 146.29 558.45 C 146.29 558.45 142.76 563.46 148.66 570.92 C 153.92 577.56 162.23 576.27 164.99 574.14 C 165.84 579.92 172.93 592.10 184.15 585.21 C 194.70 578.74 189.62 568.90 186.25 565.03 C 192.84 563.17 197.75 547.38 182.63 541.93 C 184.87 535.41 185.27 532.46 181.99 526.60 C 178.83 520.96 173.64 520.06 165.36 523.49 L 153.38 528.54 L 145.75 514.30 L 141.67 516.66 L 150.47 530.26 L 138.81 536.11 C 138.81 536.11 128.84 540.01 133.14 550.71 C 137.13 560.63 146.29 558.45 146.29 558.45 Z" fill="url(#SVGID_11_)" fill-rule="nonzero" group-id="8,44,47" node-id="371" stroke="none" target-height="77.79999" target-width="68.91" target-x="128.84" target-y="514.3"></path><path d="M 126.00 497.74 L 162.06 497.74 C 162.06 497.74 173.71 498.07 176.03 484.76 C 178.58 470.15 167.95 468.14 167.95 468.14 C 167.95 468.14 174.35 465.20 172.96 454.15 C 171.56 443.11 161.84 441.71 157.79 442.22 C 158.45 435.67 159.83 420.84 144.43 420.69 C 129.56 420.54 129.65 435.51 130.76 441.41 C 125.46 441.47 109.45 449.42 120.71 466.86 C 114.58 472.11 111.99 475.14 112.26 482.71 C 112.52 490.28 117.16 497.74 126.00 497.74 Z" fill="url(#SVGID_12_)" fill-rule="nonzero" group-id="8,44,47" node-id="373" stroke="none" target-height="77.53" target-width="69.130005" target-x="109.45" target-y="420.54"></path><path d="M 161.17 477.50 L 145.79 487.62 L 145.37 477.84 L 155.09 466.38 L 145.22 474.36 L 143.94 444.46 L 143.00 474.55 L 132.62 466.29 L 142.90 477.62 L 142.59 487.69 L 126.77 476.07 L 142.47 491.32 L 141.68 516.68 L 147.03 516.68 L 145.95 491.47 Z" fill="#c6d5e6" fill-rule="nonzero" group-id="8,44,47" node-id="375" stroke="none" target-height="72.22" target-width="34.40001" target-x="126.76999" target-y="444.46"></path></g><g node-id="504"><path d="M 668.72 540.15 C 668.72 540.15 665.47 544.77 670.90 551.63 C 675.74 557.75 683.40 556.56 685.94 554.59 C 686.72 559.91 693.26 571.12 703.59 564.79 C 713.30 558.83 708.63 549.77 705.52 546.21 C 711.59 544.50 716.11 529.95 702.19 524.94 C 704.26 518.94 704.63 516.22 701.60 510.83 C 698.69 505.64 693.91 504.80 686.29 507.97 L 675.25 512.62 L 668.22 499.51 L 664.47 501.68 L 672.57 514.20 L 661.84 519.59 C 661.84 519.59 652.66 523.18 656.62 533.04 C 660.28 542.15 668.72 540.15 668.72 540.15 Z" fill="url(#SVGID_13_)" fill-rule="nonzero" group-id="8,44,48" node-id="380" stroke="none" target-height="71.609955" target-width="63.450012" target-x="652.66" target-y="499.51004"></path><path d="M 650.02 484.24 L 683.22 484.24 C 683.22 484.24 693.95 484.55 696.08 472.29 C 698.42 458.84 688.64 456.99 688.64 456.99 C 688.64 456.99 694.54 454.28 693.25 444.11 C 691.96 433.94 683.01 432.65 679.28 433.13 C 679.89 427.10 681.16 413.44 666.98 413.30 C 653.29 413.16 653.37 426.94 654.39 432.38 C 649.51 432.43 634.76 439.75 645.14 455.82 C 639.50 460.65 637.11 463.45 637.36 470.41 C 637.62 477.37 641.89 484.24 650.02 484.24 Z" fill="url(#SVGID_14_)" fill-rule="nonzero" group-id="8,44,48" node-id="382" stroke="none" target-height="71.389984" target-width="63.660034" target-x="634.76" target-y="413.16"></path><path d="M 682.41 465.60 L 668.25 474.92 L 667.87 465.91 L 676.82 455.36 L 667.73 462.71 L 666.55 435.17 L 665.68 462.89 L 656.13 455.28 L 665.59 465.71 L 665.30 474.98 L 650.74 464.28 L 665.20 478.33 L 664.46 501.68 L 669.40 501.68 L 668.40 478.47 Z" fill="#c6d5e6" fill-rule="nonzero" group-id="8,44,48" node-id="384" stroke="none" target-height="66.50998" target-width="31.669983" target-x="650.74" target-y="435.17"></path></g><g node-id="505"><path d="M 229.23 449.95 C 229.23 449.95 227.48 452.43 230.40 456.12 C 233.00 459.41 237.11 458.77 238.48 457.71 C 238.90 460.57 242.41 466.59 247.96 463.19 C 253.18 459.99 250.67 455.12 249.00 453.21 C 252.26 452.29 254.69 444.48 247.21 441.79 C 248.32 438.57 248.52 437.11 246.89 434.21 C 245.33 431.42 242.76 430.97 238.67 432.67 L 232.74 435.17 L 228.97 428.13 L 226.95 429.30 L 231.30 436.02 L 225.53 438.91 C 225.53 438.91 220.60 440.84 222.73 446.13 C 224.70 451.03 229.23 449.95 229.23 449.95 Z" fill="url(#SVGID_15_)" fill-rule="nonzero" group-id="8,44,49" node-id="389" stroke="none" target-height="38.45999" target-width="34.089996" target-x="220.6" target-y="428.13"></path><path d="M 219.19 419.92 L 237.02 419.92 C 237.02 419.92 242.78 420.08 243.93 413.50 C 245.19 406.27 239.93 405.28 239.93 405.28 C 239.93 405.28 243.10 403.82 242.41 398.36 C 241.72 392.90 236.91 392.21 234.91 392.46 C 235.24 389.22 235.92 381.88 228.30 381.81 C 220.94 381.74 220.99 389.14 221.54 392.06 C 218.92 392.09 211.00 396.02 216.57 404.65 C 213.54 407.24 212.25 408.75 212.39 412.49 C 212.52 416.23 214.82 419.92 219.19 419.92 Z" fill="url(#SVGID_16_)" fill-rule="nonzero" group-id="8,44,49" node-id="391" stroke="none" target-height="38.339996" target-width="34.190002" target-x="211" target-y="381.74"></path><path d="M 236.58 409.91 L 228.98 414.92 L 228.77 410.08 L 233.58 404.41 L 228.70 408.35 L 228.06 393.56 L 227.60 408.45 L 222.46 404.37 L 227.55 409.97 L 227.39 414.95 L 219.57 409.20 L 227.34 416.75 L 226.94 429.29 L 229.59 429.29 L 229.06 416.82 Z" fill="#c6d5e6" fill-rule="nonzero" group-id="8,44,49" node-id="393" stroke="none" target-height="35.73004" target-width="17.009995" target-x="219.57" target-y="393.55997"></path></g></g><g node-id="501"><path d="M 309.08 506.48 L 287.08 510.96 L 447.91 735.26 L 711.35 628.40 L 519.28 474.06 Z" fill="url(#SVGID_17_)" fill-rule="nonzero" group-id="8,45" node-id="398" stroke="none" target-height="261.20004" target-width="424.26993" target-x="287.08" target-y="474.05997"></path><path d="M 505.99 482.71 L 349.90 482.71 C 338.48 482.71 329.22 473.45 329.22 462.03 L 329.22 249.43 C 329.22 238.01 338.48 228.75 349.90 228.75 L 505.99 228.75 C 517.41 228.75 526.67 238.01 526.67 249.43 L 526.67 462.03 C 526.67 473.45 517.41 482.71 505.99 482.71 Z" fill="url(#SVGID_18_)" fill-rule="nonzero" group-id="8,45" node-id="400" stroke="none" target-height="253.95998" target-width="197.44998" target-x="329.22" target-y="228.75002"></path><path d="M 461.09 521.33 L 305.00 521.33 C 293.58 521.33 284.32 512.07 284.32 500.65 L 284.32 288.05 C 284.32 276.63 293.58 267.37 305.00 267.37 L 461.09 267.37 C 472.51 267.37 481.77 276.63 481.77 288.05 L 481.77 500.65 C 481.77 512.07 472.51 521.33 461.09 521.33 Z" fill="url(#SVGID_19_)" fill-rule="nonzero" group-id="8,45" node-id="402" stroke="none" target-height="253.96002" target-width="197.45001" target-x="284.32" target-y="267.37"></path><path d="M 309.08 297.37 L 345.11 297.37 L 345.11 333.40 L 309.08 333.40 Z" fill="#ffffff" fill-rule="nonzero" group-id="8,45" node-id="404" stroke="none" target-height="36.03" target-width="36.03" target-x="309.08" target-y="297.37"></path><path d="M 365.91 297.37 L 447.92 297.37 L 447.92 307.74 L 365.91 307.74 Z" fill="#ffffff" fill-rule="nonzero" group-id="8,45" node-id="406" stroke="none" target-height="10.369995" target-width="82.01001" target-x="365.91" target-y="297.37"></path><path d="M 365.91 316.25 L 413.00 316.25 L 413.00 326.62 L 365.91 326.62 Z" fill="#ffffff" fill-rule="nonzero" group-id="8,45" node-id="408" stroke="none" target-height="10.369995" target-width="47.089996" target-x="365.91" target-y="316.25"></path><path d="M 309.08 361.12 L 345.11 361.12 L 345.11 397.15 L 309.08 397.15 Z" fill="#ffffff" fill-rule="nonzero" group-id="8,45" node-id="410" stroke="none" target-height="36.03" target-width="36.03" target-x="309.08" target-y="361.12"></path><path d="M 365.91 361.12 L 447.92 361.12 L 447.92 371.49 L 365.91 371.49 Z" fill="#ffffff" fill-rule="nonzero" group-id="8,45" node-id="412" stroke="none" target-height="10.369995" target-width="82.01001" target-x="365.91" target-y="361.12"></path><path d="M 365.91 380.01 L 413.00 380.01 L 413.00 390.38 L 365.91 390.38 Z" fill="#ffffff" fill-rule="nonzero" group-id="8,45" node-id="414" stroke="none" target-height="10.369995" target-width="47.089996" target-x="365.91" target-y="380.01"></path><path d="M 309.08 426.51 L 345.11 426.51 L 345.11 462.54 L 309.08 462.54 Z" fill="#ffffff" fill-rule="nonzero" group-id="8,45" node-id="416" stroke="none" target-height="36.03" target-width="36.03" target-x="309.08" target-y="426.51"></path><path d="M 365.91 426.51 L 447.92 426.51 L 447.92 436.88 L 365.91 436.88 Z" fill="#ffffff" fill-rule="nonzero" group-id="8,45" node-id="418" stroke="none" target-height="10.369995" target-width="82.01001" target-x="365.91" target-y="426.51"></path><path d="M 365.91 445.40 L 413.00 445.40 L 413.00 455.77 L 365.91 455.77 Z" fill="#ffffff" fill-rule="nonzero" group-id="8,45" node-id="420" stroke="none" target-height="10.369995" target-width="47.089996" target-x="365.91" target-y="445.4"></path><path d="M 566.45 517.89 L 549.51 494.42 C 561.54 482.77 569.05 466.47 569.05 448.44 C 569.05 413.14 540.33 384.42 505.03 384.42 C 469.73 384.42 441.01 413.14 441.01 448.44 C 441.01 483.74 469.73 512.46 505.03 512.46 C 515.12 512.46 524.67 510.11 533.16 505.93 L 550.24 529.59 C 552.20 532.30 554.32 535.62 557.42 535.62 C 559.45 535.62 562.61 533.34 564.20 531.84 C 568.77 527.54 569.05 521.60 566.45 517.89 Z M 459.01 448.44 C 459.01 423.06 479.66 402.42 505.03 402.42 C 530.40 402.42 551.05 423.07 551.05 448.44 C 551.05 473.81 530.40 494.46 505.03 494.46 C 479.66 494.46 459.01 473.81 459.01 448.44 Z" fill="url(#SVGID_20_)" fill-rule="nonzero" group-id="8,45" node-id="422" stroke="none" target-height="151.19998" target-width="128.03998" target-x="441.01" target-y="384.42"></path><path d="M 562.78 520.23 L 544.13 494.41 C 556.16 482.76 563.67 466.46 563.67 448.43 C 563.67 413.13 534.95 384.41 499.65 384.41 C 464.35 384.41 435.63 413.13 435.63 448.43 C 435.63 483.73 464.35 512.45 499.65 512.45 C 509.74 512.45 519.29 510.10 527.78 505.92 L 546.57 531.93 C 548.53 534.64 551.58 536.08 554.69 536.08 C 556.72 536.08 558.77 535.46 560.54 534.19 C 565.00 530.96 566.01 524.71 562.78 520.23 Z M 453.62 448.44 C 453.62 423.06 474.27 402.42 499.64 402.42 C 525.01 402.42 545.66 423.07 545.66 448.44 C 545.66 473.81 525.01 494.46 499.64 494.46 C 474.27 494.46 453.62 473.81 453.62 448.44 Z" fill="url(#SVGID_21_)" fill-rule="nonzero" group-id="8,45" node-id="424" stroke="none" target-height="151.67001" target-width="130.38" target-x="435.63" target-y="384.41"></path></g><g node-id="502"><path d="M 502.69 334.99 C 502.69 334.99 503.75 333.64 505.25 333.79 C 506.86 333.95 506.44 334.97 507.54 335.20 C 508.65 335.43 509.34 335.35 509.04 337.46 C 508.87 338.63 509.01 338.62 509.32 339.17 C 509.51 339.50 510.84 340.62 509.94 342.07 C 509.05 343.48 508.80 342.96 509.03 344.31 C 509.26 345.66 508.74 346.85 507.93 347.26 C 507.14 347.66 507.34 348.39 507.49 348.81 C 507.63 349.22 507.19 350.55 505.85 350.07 C 504.51 349.59 503.32 349.42 502.27 349.88 C 501.22 350.34 496.86 350.61 497.79 348.71 C 498.64 346.97 497.46 346.62 496.66 345.84 C 495.87 345.06 495.23 343.72 495.64 342.40 C 495.88 341.63 496.22 340.81 495.27 339.66 C 494.29 338.47 495.97 335.25 497.08 335.37 C 498.19 335.49 499.71 332.41 502.69 334.99 Z" fill="#171c61" fill-rule="nonzero" group-id="8,46" node-id="429" stroke="none" target-height="18.199982" target-width="16.550018" target-x="494.29" target-y="332.41"></path><path d="M 499.28 340.41 C 498.29 341.44 498.38 341.20 498.15 341.83 C 496.62 341.01 496.55 345.36 497.83 345.47 C 498.19 347.76 499.17 348.40 499.74 348.95 C 500.11 350.21 499.23 355.53 499.23 355.53 L 505.80 355.53 L 505.44 348.80 C 505.44 348.80 506.92 348.33 507.23 345.66 C 508.45 345.80 509.14 341.03 507.47 342.19 C 507.52 340.93 505.60 340.61 505.35 339.16 C 505.32 338.98 505.16 338.86 505.01 338.93 C 504.33 339.23 503.19 340.03 502.03 340.00 C 501.08 339.98 499.95 339.71 499.28 340.41 Z" fill="url(#SVGID_22_)" fill-rule="nonzero" group-id="8,46" node-id="431" stroke="none" target-height="16.670044" target-width="12.590057" target-x="496.54996" target-y="338.86"></path><path d="M 487.96 361.78 C 487.96 361.78 484.63 371.19 485.99 374.54 C 487.08 377.24 489.57 380.30 492.15 381.19 C 493.78 379.85 492.92 378.50 492.92 378.50 C 492.92 378.50 489.81 375.07 489.39 373.48 C 488.97 371.89 492.37 364.51 492.37 364.51 L 487.96 361.78 Z" fill="#ffbe92" fill-rule="nonzero" group-id="8,46" node-id="433" stroke="none" target-height="19.410004" target-width="9.149994" target-x="484.63" target-y="361.78003"></path><path d="M 517.06 361.96 C 517.06 361.96 520.02 371.49 518.53 374.79 C 517.33 377.44 514.73 380.41 512.12 381.20 C 510.54 379.80 511.45 378.48 511.45 378.48 C 511.45 378.48 514.69 375.17 515.17 373.60 C 515.65 372.03 512.54 364.53 512.54 364.53 L 517.06 361.96 Z" fill="#ffbe92" fill-rule="nonzero" group-id="8,46" node-id="435" stroke="none" target-height="19.24002" target-width="9.480011" target-x="510.54" target-y="361.96"></path><path d="M 518.12 364.00 L 512.44 366.63 C 512.44 366.63 512.19 364.22 511.43 361.79 C 511.48 363.64 511.86 365.06 511.94 366.70 C 512.02 368.34 513.89 383.95 511.46 384.93 C 509.03 385.91 495.14 385.51 493.30 385.11 C 491.46 384.71 492.23 370.96 492.93 366.83 C 493.36 363.59 493.30 362.75 493.30 362.75 L 492.13 366.01 L 486.67 363.80 C 486.67 363.80 489.10 354.71 492.34 352.85 C 495.16 351.23 499.40 351.55 499.74 351.53 C 499.80 352.03 500.29 353.61 502.69 353.61 C 504.79 353.49 505.32 352.34 505.57 351.39 C 507.47 351.51 515.68 351.00 518.12 364.00 Z" fill="url(#SVGID_23_)" fill-rule="nonzero" group-id="8,46" node-id="437" stroke="none" target-height="34.910004" target-width="31.449982" target-x="486.67" target-y="351"></path><path d="M 513.49 388.04 L 490.31 388.04 C 488.81 388.04 487.60 386.83 487.60 385.33 L 487.60 371.42 C 487.60 369.92 488.81 368.71 490.31 368.71 L 513.49 368.71 C 514.99 368.71 516.20 369.92 516.20 371.42 L 516.20 385.33 C 516.21 386.82 514.99 388.04 513.49 388.04 Z" fill="url(#SVGID_24_)" fill-rule="nonzero" group-id="8,46" node-id="439" stroke="none" target-height="19.330017" target-width="28.610016" target-x="487.6" target-y="368.71"></path><path d="M 512.14 404.15 L 515.21 407.84 L 513.07 411.57 L 508.41 406.99 Z" fill="#ffbe92" fill-rule="nonzero" group-id="8,46" node-id="441" stroke="none" target-height="7.4200134" target-width="6.799988" target-x="508.41003" target-y="404.15"></path><path d="M 513.57 404.94 L 508.99 408.45 C 508.99 408.45 480.61 382.61 491.44 374.32 C 495.63 371.78 498.89 374.12 503.21 384.07 C 507.52 394.01 513.57 404.94 513.57 404.94 Z" fill="url(#SVGID_25_)" fill-rule="nonzero" group-id="8,46" node-id="443" stroke="none" target-height="36.670013" target-width="32.960022" target-x="480.61" target-y="371.78"></path><path d="M 510.63 409.16 C 510.81 409.34 511.04 409.47 511.30 409.50 C 511.83 409.58 512.73 409.58 513.47 408.93 C 514.58 407.95 514.33 407.41 514.10 406.51 C 515.49 406.71 516.84 409.04 518.11 410.41 C 519.38 411.78 522.31 413.39 520.83 416.14 C 519.35 418.89 515.36 417.44 514.07 415.34 C 512.77 413.24 511.00 410.31 510.24 409.56 C 509.79 408.97 509.73 408.30 509.73 408.30 C 509.73 408.30 510.29 408.81 510.63 409.16 Z" fill="#f8b62d" fill-rule="nonzero" group-id="8,46" node-id="445" stroke="none" target-height="12.380005" target-width="12.579987" target-x="509.73" target-y="406.51"></path><path d="M 513.95 414.98 C 513.95 414.98 516.36 417.91 518.19 418.15 C 518.85 418.23 521.63 418.20 521.89 415.08 C 521.96 415.53 522.39 416.89 521.18 418.17 C 520.58 418.66 519.28 419.56 517.21 418.66 C 515.16 417.77 513.95 414.98 513.95 414.98 Z" fill="#e6e8e8" fill-rule="nonzero" group-id="8,46" node-id="447" stroke="none" target-height="4.5799866" target-width="8.440002" target-x="513.95" target-y="414.98"></path><path d="M 495.55 406.89 L 493.33 411.67 L 496.36 415.59 L 500.15 409.21 Z" fill="#ffbe92" fill-rule="nonzero" group-id="8,46" node-id="449" stroke="none" target-height="8.699982" target-width="6.8200073" target-x="493.33" target-y="406.89"></path><path d="M 498.19 412.14 C 498.01 412.38 497.77 412.56 497.48 412.64 C 496.89 412.81 496.43 413.26 495.48 412.64 C 494.05 411.69 493.98 411.07 494.10 410.00 C 492.80 411.03 491.65 413.30 490.42 415.07 C 489.19 416.84 486.11 419.14 488.23 422.04 C 490.35 424.94 494.68 422.65 495.82 420.04 C 496.96 417.44 497.96 413.51 498.69 412.53 C 499.11 411.79 499.07 411.01 499.07 411.01 C 499.07 411.01 498.52 411.69 498.19 412.14 Z" fill="#f8b62d" fill-rule="nonzero" group-id="8,46" node-id="451" stroke="none" target-height="14.940002" target-width="12.999939" target-x="486.11002" target-y="410"></path><path d="M 496.57 418.34 C 496.57 418.34 494.29 422.07 492.24 422.63 C 491.50 422.82 488.33 423.24 487.53 419.71 C 487.52 420.23 487.25 421.85 488.83 423.12 C 489.60 423.58 491.22 424.40 493.43 423.05 C 495.64 421.70 496.57 418.34 496.57 418.34 Z" fill="#e6e8e8" fill-rule="nonzero" group-id="8,46" node-id="453" stroke="none" target-height="6.0599976" target-width="9.320007" target-x="487.25" target-y="418.34"></path><path d="M 493.90 409.19 L 498.93 412.03 C 498.93 412.03 523.45 382.50 511.58 375.79 C 507.08 373.86 504.18 376.63 501.27 387.08 C 498.38 397.53 493.90 409.19 493.90 409.19 Z" fill="url(#SVGID_26_)" fill-rule="nonzero" group-id="8,46" node-id="455" stroke="none" target-height="38.170013" target-width="29.550018" target-x="493.9" target-y="373.86"></path></g></g></svg>