<?xml version="1.0" standalone="no"?><!DOCTYPE svg PUBLIC "-//W3C//DTD SVG 1.1//EN" "http://www.w3.org/Graphics/SVG/1.1/DTD/svg11.dtd"><svg height="800" node-id="1" sillyvg="true" template-height="800" template-width="800" version="1.1" viewBox="0 0 800 800" width="800" xmlns="http://www.w3.org/2000/svg" xmlns:xlink="http://www.w3.org/1999/xlink"><defs node-id="199"><linearGradient gradientUnits="objectBoundingBox" id="SVGID_1_" node-id="16" spreadMethod="pad" x1="255.5446" x2="255.5446" y1="423.7103" y2="326.9221"><stop offset="0.0000005358273" stop-color="#ffffff"></stop><stop offset="1" stop-color="#dbe3ee"></stop></linearGradient><linearGradient gradientUnits="objectBoundingBox" id="SVGID_2_" node-id="20" spreadMethod="pad" x1="190.9276" x2="190.9276" y1="481.7022" y2="265.2132"><stop offset="0.0000005358273" stop-color="#ffffff"></stop><stop offset="1" stop-color="#dbe3ee"></stop></linearGradient><linearGradient gradientUnits="objectBoundingBox" id="SVGID_3_" node-id="24" spreadMethod="pad" x1="566.7092" x2="566.7092" y1="439.0233" y2="282.5426"><stop offset="0.0000005358273" stop-color="#ffffff"></stop><stop offset="1" stop-color="#dbe3ee"></stop></linearGradient><linearGradient gradientUnits="objectBoundingBox" id="SVGID_4_" node-id="28" spreadMethod="pad" x1="629.2341" x2="629.2341" y1="461.6933" y2="291.9527"><stop offset="0.0000005358273" stop-color="#ffffff"></stop><stop offset="1" stop-color="#dbe3ee"></stop></linearGradient><linearGradient gradientUnits="objectBoundingBox" id="SVGID_5_" node-id="32" spreadMethod="pad" x1="120.5215" x2="120.5215" y1="503.7719" y2="353.2585"><stop offset="0.0000005358273" stop-color="#ffffff"></stop><stop offset="1" stop-color="#edf1f9"></stop></linearGradient><linearGradient gradientUnits="objectBoundingBox" id="SVGID_6_" node-id="36" spreadMethod="pad" x1="683.1947" x2="683.1947" y1="487.1664" y2="364.0342"><stop offset="0.0000005358273" stop-color="#ffffff"></stop><stop offset="1" stop-color="#edf1f9"></stop></linearGradient><linearGradient gradientUnits="objectBoundingBox" id="SVGID_7_" node-id="40" spreadMethod="pad" x1="126.4852" x2="126.4852" y1="231.4646" y2="166.9233"><stop offset="0.2332" stop-color="#ffffff"></stop><stop offset="1" stop-color="#d3dfee"></stop></linearGradient><linearGradient gradientUnits="objectBoundingBox" id="SVGID_8_" node-id="44" spreadMethod="pad" x1="643.5536" x2="643.5536" y1="194.6441" y2="130.1029"><stop offset="0.2332" stop-color="#ffffff"></stop><stop offset="1" stop-color="#d3dfee"></stop></linearGradient><linearGradient gradientUnits="objectBoundingBox" id="SVGID_9_" node-id="48" spreadMethod="pad" x1="513.7827" x2="513.7827" y1="237.8176" y2="191.1004"><stop offset="0.2332" stop-color="#ffffff"></stop><stop offset="1" stop-color="#d3dfee"></stop></linearGradient><linearGradient gradientUnits="objectBoundingBox" id="SVGID_10_" node-id="52" spreadMethod="pad" x1="400" x2="400" y1="753.3424" y2="401.2135"><stop offset="0.4065" stop-color="#ffffff"></stop><stop offset="1" stop-color="#dae4ef"></stop></linearGradient><linearGradient gradientUnits="objectBoundingBox" id="SVGID_11_" node-id="58" spreadMethod="pad" x1="190.9295" x2="139.4933" y1="576.7982" y2="515.4989"><stop offset="0.4034" stop-color="#eff4f8"></stop><stop offset="1" stop-color="#d4dfec"></stop></linearGradient><linearGradient gradientUnits="objectBoundingBox" id="SVGID_12_" node-id="62" spreadMethod="pad" x1="111.8817" x2="176.0686" y1="456.5079" y2="456.5079"><stop offset="0.1022" stop-color="#f0f5f8"></stop><stop offset="1" stop-color="#b4c7dc"></stop></linearGradient><linearGradient gradientUnits="objectBoundingBox" id="SVGID_13_" node-id="68" spreadMethod="pad" x1="709.7916" x2="662.4262" y1="556.8256" y2="500.3777"><stop offset="0.4034" stop-color="#eff4f8"></stop><stop offset="1" stop-color="#d4dfec"></stop></linearGradient><linearGradient gradientUnits="objectBoundingBox" id="SVGID_14_" node-id="72" spreadMethod="pad" x1="636.9999" x2="696.1068" y1="446.0554" y2="446.0554"><stop offset="0.1022" stop-color="#f0f5f8"></stop><stop offset="1" stop-color="#b4c7dc"></stop></linearGradient><linearGradient gradientUnits="objectBoundingBox" id="SVGID_15_" node-id="78" spreadMethod="pad" x1="251.1291" x2="225.6878" y1="457.6549" y2="427.3351"><stop offset="0.0000001438503" stop-color="#eaeff6"></stop><stop offset="1" stop-color="#cddae9"></stop></linearGradient><linearGradient gradientUnits="objectBoundingBox" id="SVGID_16_" node-id="82" spreadMethod="pad" x1="212.0306" x2="243.7785" y1="398.1571" y2="398.1571"><stop offset="0.1022" stop-color="#f0f5f8"></stop><stop offset="1" stop-color="#b4c7dc"></stop></linearGradient><linearGradient gradientUnits="objectBoundingBox" id="SVGID_17_" node-id="88" spreadMethod="pad" x1="540.1861" x2="454.2194" y1="698.5102" y2="398.7087"><stop offset="0.0938" stop-color="#ffffff"></stop><stop offset="0.9362" stop-color="#bbcbe0"></stop></linearGradient><linearGradient gradientUnits="objectBoundingBox" id="SVGID_18_" node-id="92" spreadMethod="pad" x1="277.4977" x2="551.926" y1="340.8084" y2="340.8084"><stop offset="0" stop-color="#eff3f9"></stop><stop offset="1" stop-color="#b6c9de"></stop></linearGradient><linearGradient gradientUnits="objectBoundingBox" id="SVGID_19_" node-id="96" spreadMethod="pad" x1="306.1491" x2="523.2745" y1="340.8084" y2="340.8084"><stop offset="0" stop-color="#eff3f9"></stop><stop offset="1" stop-color="#9bb8d1"></stop></linearGradient><linearGradient gradientUnits="objectBoundingBox" id="SVGID_20_" node-id="100" spreadMethod="pad" x1="229.4042" x2="503.8324" y1="380.0766" y2="380.0766"><stop offset="0" stop-color="#eff3f9"></stop><stop offset="1" stop-color="#b6c9de"></stop></linearGradient><linearGradient gradientUnits="objectBoundingBox" id="SVGID_21_" node-id="104" spreadMethod="pad" x1="258.0556" x2="475.181" y1="380.0766" y2="380.0766"><stop offset="0" stop-color="#e5ebf4"></stop><stop offset="1" stop-color="#9bb8d1"></stop></linearGradient><linearGradient gradientUnits="objectBoundingBox" id="SVGID_22_" node-id="108" spreadMethod="pad" x1="437.2299" x2="296.0068" y1="373.9526" y2="373.9526"><stop offset="0" stop-color="#c5d6e8"></stop><stop offset="1" stop-color="#f5f9fa"></stop></linearGradient><linearGradient gradientUnits="objectBoundingBox" id="SVGID_23_" node-id="112" spreadMethod="pad" x1="476.251" x2="575.3145" y1="478.6393" y2="478.6393"><stop offset="0" stop-color="#e5ebf4"></stop><stop offset="1" stop-color="#9bb8d1"></stop></linearGradient><linearGradient gradientUnits="objectBoundingBox" id="SVGID_24_" node-id="116" spreadMethod="pad" x1="575.3145" x2="476.251" y1="458.3495" y2="458.3495"><stop offset="0" stop-color="#c5d6e8"></stop><stop offset="1" stop-color="#f5f9fa"></stop></linearGradient><linearGradient gradientUnits="objectBoundingBox" id="SVGID_25_" node-id="120" spreadMethod="pad" x1="575.3145" x2="476.251" y1="493.4074" y2="493.4074"><stop offset="0" stop-color="#c5d6e8"></stop><stop offset="1" stop-color="#f5f9fa"></stop></linearGradient><linearGradient gradientUnits="objectBoundingBox" id="SVGID_26_" node-id="131" spreadMethod="pad" x1="469.7102" x2="497.5167" y1="457.5623" y2="457.5623"><stop offset="0" stop-color="#4ea2f4"></stop><stop offset="0.6903" stop-color="#1e77cf"></stop></linearGradient><linearGradient gradientUnits="objectBoundingBox" id="SVGID_27_" node-id="135" spreadMethod="pad" x1="476.8536" x2="505.3108" y1="483.9986" y2="434.7093"><stop offset="0" stop-color="#78c8ff"></stop><stop offset="0.6903" stop-color="#2a80e2"></stop></linearGradient><linearGradient gradientUnits="objectBoundingBox" id="SVGID_28_" node-id="142" spreadMethod="pad" x1="501.457" x2="501.457" y1="429.2892" y2="410.3631"><stop offset="0" stop-color="#f2a319"></stop><stop offset="0.4796" stop-color="#ffc552"></stop></linearGradient><linearGradient gradientUnits="objectBoundingBox" id="SVGID_29_" node-id="146" spreadMethod="pad" x1="510.7296" x2="510.7296" y1="450.1812" y2="405.977"><stop offset="0" stop-color="#f2a319"></stop><stop offset="0.4796" stop-color="#ffc552"></stop></linearGradient><linearGradient gradientUnits="objectBoundingBox" id="SVGID_30_" node-id="150" spreadMethod="pad" x1="503.4694" x2="475.9588" y1="438.7947" y2="438.7947"><stop offset="0" stop-color="#171c61"></stop><stop offset="0.7869" stop-color="#272f7c"></stop></linearGradient><linearGradient gradientUnits="objectBoundingBox" id="SVGID_31_" node-id="154" spreadMethod="pad" x1="488.7885" x2="503.6449" y1="439.0101" y2="439.0101"><stop offset="0" stop-color="#171c61"></stop><stop offset="0.7869" stop-color="#272f7c"></stop></linearGradient><linearGradient gradientUnits="objectBoundingBox" id="SVGID_32_" node-id="159" spreadMethod="pad" x1="520.2191" x2="520.2191" y1="428.9968" y2="410.0707"><stop offset="0" stop-color="#f2a319"></stop><stop offset="0.4796" stop-color="#ffc552"></stop></linearGradient><linearGradient gradientUnits="objectBoundingBox" id="SVGID_33_" node-id="163" spreadMethod="pad" x1="489.372" x2="467.167" y1="431.6063" y2="431.6063"><stop offset="0" stop-color="#171c61"></stop><stop offset="0.7869" stop-color="#272f7c"></stop></linearGradient></defs><g node-id="531"><g node-id="563"><path d="M 270.00 330.33 L 270.00 326.92 L 240.50 326.92 L 240.50 330.88 L 234.02 330.88 L 234.02 423.71 L 277.07 423.71 L 277.07 330.33 L 270.00 330.33 Z M 273.34 413.07 L 237.30 413.07 L 237.30 410.32 L 273.34 410.32 L 273.34 413.07 Z M 273.34 400.39 L 237.30 400.39 L 237.30 397.64 L 273.34 397.64 L 273.34 400.39 Z M 273.34 387.71 L 237.30 387.71 L 237.30 384.96 L 273.34 384.96 L 273.34 387.71 Z M 273.34 375.37 L 237.30 375.37 L 237.30 372.62 L 273.34 372.62 L 273.34 375.37 Z M 273.34 363.06 L 237.30 363.06 L 237.30 360.31 L 273.34 360.31 L 273.34 363.06 Z M 273.34 350.38 L 237.30 350.38 L 237.30 347.63 L 273.34 347.63 L 273.34 350.38 Z M 273.34 338.04 L 237.30 338.04 L 237.30 335.29 L 273.34 335.29 L 273.34 338.04 Z" fill="url(#SVGID_1_)" fill-rule="nonzero" group-id="11,43" node-id="412" stroke="none" target-height="96.78998" target-width="43.050003" target-x="234.02" target-y="326.92"></path><path d="M 212.02 382.14 L 212.02 273.95 L 179.27 273.95 L 179.27 265.21 L 165.40 265.21 L 165.40 318.54 L 161.67 318.54 L 161.67 481.70 L 220.18 481.70 L 220.18 382.14 L 212.02 382.14 Z M 187.52 413.95 L 179.26 413.95 L 179.26 405.94 L 187.52 405.94 L 187.52 413.95 Z M 187.52 401.42 L 179.26 401.42 L 179.26 393.41 L 187.52 393.41 L 187.52 401.42 Z M 187.52 388.94 L 179.26 388.94 L 179.26 380.93 L 187.52 380.93 L 187.52 388.94 Z M 187.52 376.51 L 179.26 376.51 L 179.26 368.50 L 187.52 368.50 L 187.52 376.51 Z M 187.52 363.98 L 179.26 363.98 L 179.26 355.97 L 187.52 355.97 L 187.52 363.98 Z M 187.52 338.97 L 179.26 338.97 L 179.26 330.96 L 187.52 330.96 L 187.52 338.97 Z M 187.52 326.45 L 179.26 326.45 L 179.26 318.44 L 187.52 318.44 L 187.52 326.45 Z M 187.52 313.97 L 179.26 313.97 L 179.26 305.96 L 187.52 305.96 L 187.52 313.97 Z M 187.52 301.53 L 179.26 301.53 L 179.26 293.52 L 187.52 293.52 L 187.52 301.53 Z M 187.52 289.00 L 179.26 289.00 L 179.26 281.00 L 187.52 281.00 L 187.52 289.00 Z M 199.87 413.95 L 191.61 413.95 L 191.61 405.94 L 199.87 405.94 L 199.87 413.95 Z M 199.87 401.42 L 191.61 401.42 L 191.61 393.41 L 199.87 393.41 L 199.87 401.42 Z M 199.87 388.94 L 191.61 388.94 L 191.61 380.93 L 199.87 380.93 L 199.87 388.94 Z M 199.87 376.51 L 191.61 376.51 L 191.61 368.50 L 199.87 368.50 L 199.87 376.51 Z M 199.87 363.98 L 191.61 363.98 L 191.61 355.97 L 199.87 355.97 L 199.87 363.98 Z M 199.87 338.97 L 191.61 338.97 L 191.61 330.96 L 199.87 330.96 L 199.87 338.97 Z M 199.87 326.45 L 191.61 326.45 L 191.61 318.44 L 199.87 318.44 L 199.87 326.45 Z M 199.87 313.97 L 191.61 313.97 L 191.61 305.96 L 199.87 305.96 L 199.87 313.97 Z M 199.87 301.53 L 191.61 301.53 L 191.61 293.52 L 199.87 293.52 L 199.87 301.53 Z M 199.87 289.00 L 191.61 289.00 L 191.61 281.00 L 199.87 281.00 L 199.87 289.00 Z" fill="url(#SVGID_2_)" fill-rule="nonzero" group-id="11,43" node-id="414" stroke="none" target-height="216.49002" target-width="58.509995" target-x="161.67" target-y="265.21"></path><path d="M 534.33 439.02 C 534.69 434.37 534.33 282.54 534.33 282.54 L 552.86 282.54 L 552.86 316.25 L 582.36 316.25 L 582.36 386.70 L 599.09 386.70 L 599.09 439.02 L 534.33 439.02 Z" fill="url(#SVGID_3_)" fill-rule="nonzero" group-id="11,43" node-id="416" stroke="none" target-height="156.47995" target-width="64.76001" target-x="534.33" target-y="282.54"></path><path d="M 655.54 370.88 L 655.54 366.03 L 650.54 366.03 L 650.54 323.70 L 638.34 323.70 L 638.34 319.00 L 630.11 319.00 L 630.11 312.09 L 625.82 312.09 L 625.82 291.95 L 622.73 291.95 L 622.73 312.23 L 618.79 312.23 L 618.79 319.14 L 606.59 319.14 L 606.59 330.46 L 599.54 330.46 L 599.54 461.69 L 658.92 461.69 L 658.92 370.87 L 655.54 370.87 Z M 610.03 423.66 L 606.01 423.66 L 606.01 408.42 L 610.03 408.42 L 610.03 423.66 Z M 610.03 405.01 L 606.01 405.01 L 606.01 389.77 L 610.03 389.77 L 610.03 405.01 Z M 610.03 386.36 L 606.01 386.36 L 606.01 371.12 L 610.03 371.12 L 610.03 386.36 Z M 610.03 367.37 L 606.01 367.37 L 606.01 352.13 L 610.03 352.13 L 610.03 367.37 Z M 610.03 348.39 L 606.01 348.39 L 606.01 333.15 L 610.03 333.15 L 610.03 348.39 Z M 618.31 423.66 L 614.29 423.66 L 614.29 408.42 L 618.31 408.42 L 618.31 423.66 Z M 618.31 405.01 L 614.29 405.01 L 614.29 389.77 L 618.31 389.77 L 618.31 405.01 Z M 618.31 386.36 L 614.29 386.36 L 614.29 371.12 L 618.31 371.12 L 618.31 386.36 Z M 618.31 367.37 L 614.29 367.37 L 614.29 352.13 L 618.31 352.13 L 618.31 367.37 Z M 618.31 348.39 L 614.29 348.39 L 614.29 333.15 L 618.31 333.15 L 618.31 348.39 Z M 626.59 423.66 L 622.57 423.66 L 622.57 408.42 L 626.59 408.42 L 626.59 423.66 Z M 626.59 405.01 L 622.57 405.01 L 622.57 389.77 L 626.59 389.77 L 626.59 405.01 Z M 626.59 386.36 L 622.57 386.36 L 622.57 371.12 L 626.59 371.12 L 626.59 386.36 Z M 626.59 367.37 L 622.57 367.37 L 622.57 352.13 L 626.59 352.13 L 626.59 367.37 Z M 626.59 348.39 L 622.57 348.39 L 622.57 333.15 L 626.59 333.15 L 626.59 348.39 Z M 634.87 423.66 L 630.85 423.66 L 630.85 408.42 L 634.87 408.42 L 634.87 423.66 Z M 634.87 405.01 L 630.85 405.01 L 630.85 389.77 L 634.87 389.77 L 634.87 405.01 Z M 634.87 386.36 L 630.85 386.36 L 630.85 371.12 L 634.87 371.12 L 634.87 386.36 Z M 634.87 367.37 L 630.85 367.37 L 630.85 352.13 L 634.87 352.13 L 634.87 367.37 Z M 634.87 348.39 L 630.85 348.39 L 630.85 333.15 L 634.87 333.15 L 634.87 348.39 Z M 643.15 423.66 L 639.13 423.66 L 639.13 408.42 L 643.15 408.42 L 643.15 423.66 Z M 643.15 405.01 L 639.13 405.01 L 639.13 389.77 L 643.15 389.77 L 643.15 405.01 Z M 643.15 386.36 L 639.13 386.36 L 639.13 371.12 L 643.15 371.12 L 643.15 386.36 Z M 643.15 367.37 L 639.13 367.37 L 639.13 352.13 L 643.15 352.13 L 643.15 367.37 Z M 643.15 348.39 L 639.13 348.39 L 639.13 333.15 L 643.15 333.15 L 643.15 348.39 Z" fill="url(#SVGID_4_)" fill-rule="nonzero" group-id="11,43" node-id="418" stroke="none" target-height="169.74002" target-width="59.380005" target-x="599.54" target-y="291.95"></path><path d="M 93.90 503.77 L 93.90 414.23 L 104.15 414.23 L 104.15 368.53 L 139.41 353.26 L 139.41 413.51 L 147.15 413.51 L 147.15 503.77 Z" fill="url(#SVGID_5_)" fill-rule="nonzero" group-id="11,43" node-id="420" stroke="none" target-height="150.50998" target-width="53.249992" target-x="93.9" target-y="353.26"></path><path d="M 698.67 487.17 L 667.72 487.17 L 667.72 364.03 L 698.67 379.01 Z" fill="url(#SVGID_6_)" fill-rule="nonzero" group-id="11,43" node-id="422" stroke="none" target-height="123.140015" target-width="30.950012" target-x="667.72" target-y="364.03"></path><path d="M 88.71 190.36 C 88.71 190.36 98.05 164.88 121.01 174.88 C 126.31 169.50 132.87 165.59 141.74 167.35 C 150.61 169.12 156.33 175.76 158.27 180.18 C 161.05 180.05 183.31 180.79 183.31 203.88 C 183.31 226.97 156.37 226.53 154.42 224.70 C 152.02 226.84 140.48 238.45 126.48 225.20 C 123.45 227.79 113.55 238.76 97.90 223.62 C 90.65 226.65 73.42 228.98 70.08 211.19 C 66.74 193.40 83.88 188.38 88.71 190.36 Z" fill="url(#SVGID_7_)" fill-rule="nonzero" group-id="11,43" node-id="424" stroke="none" target-height="73.87999" target-width="116.569984" target-x="66.74" target-y="164.88"></path><path d="M 605.78 153.54 C 605.78 153.54 615.12 128.06 638.08 138.06 C 643.38 132.68 649.94 128.77 658.81 130.53 C 667.68 132.30 673.40 138.94 675.34 143.36 C 678.12 143.23 700.38 143.97 700.38 167.06 C 700.38 190.15 673.44 189.71 671.49 187.88 C 669.09 190.02 657.55 201.63 643.55 188.38 C 640.52 190.97 630.62 201.94 614.97 186.80 C 607.72 189.83 590.49 192.16 587.15 174.37 C 583.81 156.58 600.95 151.56 605.78 153.54 Z" fill="url(#SVGID_8_)" fill-rule="nonzero" group-id="11,43" node-id="426" stroke="none" target-height="73.880005" target-width="116.57007" target-x="583.81" target-y="128.06"></path><path d="M 486.44 208.06 C 486.44 208.06 493.20 189.61 509.82 196.86 C 513.66 192.96 518.40 190.13 524.83 191.41 C 531.25 192.69 535.39 197.50 536.79 200.69 C 538.80 200.60 554.92 201.13 554.92 217.84 C 554.92 234.55 535.42 234.23 534.01 232.91 C 532.27 234.46 523.92 242.86 513.78 233.28 C 511.59 235.15 504.42 243.10 493.10 232.14 C 487.85 234.33 475.38 236.02 472.96 223.14 C 470.54 210.26 482.94 206.63 486.44 208.06 Z" fill="url(#SVGID_9_)" fill-rule="nonzero" group-id="11,43" node-id="428" stroke="none" target-height="53.48999" target-width="84.379974" target-x="470.54" target-y="189.61"></path><path d="M 770.98 577.28 C 770.98 623.97 731.89 668.76 662.32 701.77 C 592.75 734.79 498.39 753.34 400.00 753.34 C 301.61 753.34 207.25 734.79 137.68 701.77 C 68.11 668.76 29.02 623.97 29.02 577.28 C 29.02 530.59 68.11 485.80 137.68 452.79 C 207.25 419.77 301.61 401.22 400.00 401.22 C 498.39 401.22 592.75 419.77 662.32 452.79 C 731.89 485.80 770.98 530.59 770.98 577.28 Z" fill="url(#SVGID_10_)" fill-rule="nonzero" group-id="11,43" node-id="430" stroke="none" target-height="352.12" target-width="741.95996" target-x="29.019989" target-y="401.22003"></path></g><g node-id="564"><g node-id="567"><path d="M 145.95 555.75 C 145.95 555.75 142.42 560.76 148.32 568.22 C 153.58 574.86 161.89 573.57 164.65 571.44 C 165.50 577.22 172.59 589.40 183.81 582.51 C 194.36 576.04 189.28 566.20 185.91 562.33 C 192.50 560.47 197.41 544.68 182.29 539.23 C 184.53 532.71 184.93 529.76 181.65 523.90 C 178.49 518.26 173.30 517.36 165.02 520.79 L 153.04 525.84 L 145.41 511.60 L 141.33 513.96 L 150.13 527.56 L 138.47 533.41 C 138.47 533.41 128.50 537.31 132.80 548.01 C 136.79 557.92 145.95 555.75 145.95 555.75 Z" fill="url(#SVGID_11_)" fill-rule="nonzero" group-id="11,44,47" node-id="436" stroke="none" target-height="77.79999" target-width="68.91" target-x="128.5" target-y="511.60004"></path><path d="M 125.65 495.03 L 161.71 495.03 C 161.71 495.03 173.36 495.36 175.68 482.05 C 178.23 467.44 167.60 465.43 167.60 465.43 C 167.60 465.43 174.00 462.49 172.61 451.44 C 171.22 440.39 161.49 439.00 157.44 439.51 C 158.10 432.96 159.48 418.13 144.08 417.98 C 129.21 417.83 129.30 432.80 130.41 438.70 C 125.11 438.76 109.10 446.71 120.36 464.15 C 114.23 469.40 111.64 472.43 111.91 480.00 C 112.18 487.58 116.82 495.03 125.65 495.03 Z" fill="url(#SVGID_12_)" fill-rule="nonzero" group-id="11,44,47" node-id="438" stroke="none" target-height="77.53003" target-width="69.13001" target-x="109.1" target-y="417.82996"></path><path d="M 160.82 474.79 L 145.44 484.91 L 145.02 475.13 L 154.75 463.67 L 144.88 471.65 L 143.59 441.75 L 142.65 471.84 L 132.28 463.58 L 142.56 474.91 L 142.24 484.98 L 126.42 473.36 L 142.13 488.61 L 141.33 513.97 L 146.69 513.97 L 145.61 488.77 Z" fill="#c6d5e6" fill-rule="nonzero" group-id="11,44,47" node-id="440" stroke="none" target-height="72.21997" target-width="34.40001" target-x="126.42" target-y="441.75"></path></g><g node-id="568"><path d="M 668.37 537.44 C 668.37 537.44 665.12 542.06 670.55 548.92 C 675.39 555.04 683.05 553.85 685.59 551.88 C 686.37 557.20 692.91 568.41 703.24 562.08 C 712.95 556.12 708.28 547.06 705.17 543.50 C 711.24 541.79 715.76 527.24 701.84 522.23 C 703.91 516.23 704.28 513.51 701.25 508.12 C 698.34 502.93 693.56 502.09 685.94 505.26 L 674.90 509.91 L 667.87 496.80 L 664.12 498.97 L 672.22 511.49 L 661.49 516.88 C 661.49 516.88 652.31 520.47 656.27 530.33 C 659.94 539.44 668.37 537.44 668.37 537.44 Z" fill="url(#SVGID_13_)" fill-rule="nonzero" group-id="11,44,48" node-id="445" stroke="none" target-height="71.609985" target-width="63.450012" target-x="652.31" target-y="496.8"></path><path d="M 649.68 481.53 L 682.88 481.53 C 682.88 481.53 693.61 481.84 695.74 469.58 C 698.08 456.13 688.30 454.28 688.30 454.28 C 688.30 454.28 694.20 451.57 692.91 441.40 C 691.62 431.23 682.67 429.94 678.94 430.42 C 679.55 424.39 680.82 410.73 666.64 410.59 C 652.95 410.45 653.03 424.23 654.05 429.67 C 649.17 429.72 634.42 437.04 644.80 453.11 C 639.16 457.94 636.77 460.74 637.02 467.70 C 637.27 474.66 641.54 481.53 649.68 481.53 Z" fill="url(#SVGID_14_)" fill-rule="nonzero" group-id="11,44,48" node-id="447" stroke="none" target-height="71.389984" target-width="63.660095" target-x="634.42" target-y="410.45"></path><path d="M 682.07 462.89 L 667.90 472.21 L 667.52 463.20 L 676.47 452.65 L 667.38 460.00 L 666.20 432.46 L 665.33 460.18 L 655.78 452.57 L 665.25 463.00 L 664.96 472.27 L 650.39 461.57 L 664.85 475.62 L 664.12 498.97 L 669.05 498.97 L 668.06 475.76 Z" fill="#c6d5e6" fill-rule="nonzero" group-id="11,44,48" node-id="449" stroke="none" target-height="66.51001" target-width="31.679993" target-x="650.39" target-y="432.46"></path></g><g node-id="569"><path d="M 228.88 447.24 C 228.88 447.24 227.13 449.72 230.05 453.41 C 232.65 456.70 236.76 456.06 238.13 455.00 C 238.55 457.86 242.06 463.88 247.61 460.48 C 252.83 457.28 250.32 452.41 248.65 450.50 C 251.91 449.58 254.34 441.77 246.86 439.08 C 247.97 435.86 248.17 434.40 246.54 431.50 C 244.98 428.71 242.41 428.26 238.32 429.96 L 232.39 432.46 L 228.62 425.42 L 226.60 426.59 L 230.95 433.31 L 225.18 436.20 C 225.18 436.20 220.25 438.13 222.38 443.42 C 224.35 448.32 228.88 447.24 228.88 447.24 Z" fill="url(#SVGID_15_)" fill-rule="nonzero" group-id="11,44,49" node-id="454" stroke="none" target-height="38.45996" target-width="34.08998" target-x="220.25002" target-y="425.42"></path><path d="M 218.84 417.21 L 236.67 417.21 C 236.67 417.21 242.43 417.37 243.58 410.79 C 244.84 403.56 239.58 402.57 239.58 402.57 C 239.58 402.57 242.75 401.11 242.06 395.65 C 241.37 390.19 236.56 389.50 234.56 389.75 C 234.89 386.51 235.57 379.17 227.95 379.10 C 220.59 379.03 220.64 386.43 221.19 389.35 C 218.57 389.38 210.65 393.31 216.22 401.94 C 213.19 404.53 211.90 406.04 212.04 409.78 C 212.18 413.52 214.47 417.21 218.84 417.21 Z" fill="url(#SVGID_16_)" fill-rule="nonzero" group-id="11,44,49" node-id="456" stroke="none" target-height="38.339996" target-width="34.190002" target-x="210.65" target-y="379.03"></path><path d="M 236.24 407.20 L 228.63 412.21 L 228.42 407.37 L 233.23 401.70 L 228.35 405.65 L 227.72 390.86 L 227.25 405.74 L 222.12 401.66 L 227.20 407.26 L 227.05 412.24 L 219.22 406.49 L 226.99 414.04 L 226.60 426.58 L 229.25 426.58 L 228.71 414.11 Z" fill="#c6d5e6" fill-rule="nonzero" group-id="11,44,49" node-id="458" stroke="none" target-height="35.71997" target-width="17.020004" target-x="219.22002" target-y="390.86"></path></g></g><g node-id="565"><path d="M 575.31 509.15 L 735.15 617.69 L 414.71 734.49 L 252.65 456.51 L 491.68 449.37 Z" fill="url(#SVGID_17_)" fill-rule="nonzero" group-id="11,45" node-id="464" stroke="none" target-height="285.12" target-width="482.50006" target-x="252.64998" target-y="449.37"></path><path d="M 551.92 340.81 C 551.92 416.59 490.49 478.02 414.71 478.02 C 338.93 478.02 277.50 416.59 277.50 340.81 C 277.50 265.03 338.93 203.60 414.71 203.60 C 490.49 203.60 551.92 265.03 551.92 340.81 Z" fill="url(#SVGID_18_)" fill-rule="nonzero" group-id="11,45" node-id="466" stroke="none" target-height="274.42004" target-width="274.41998" target-x="277.5" target-y="203.59999"></path><path d="M 523.27 340.81 C 523.27 400.77 474.67 449.37 414.71 449.37 C 354.75 449.37 306.15 400.77 306.15 340.81 C 306.15 280.85 354.75 232.25 414.71 232.25 C 474.67 232.25 523.27 280.85 523.27 340.81 Z" fill="url(#SVGID_19_)" fill-rule="nonzero" group-id="11,45" node-id="468" stroke="none" target-height="217.12004" target-width="217.12003" target-x="306.15" target-y="232.24998"></path><path d="M 503.83 380.08 C 503.83 455.86 442.40 517.29 366.62 517.29 C 290.84 517.29 229.41 455.86 229.41 380.08 C 229.41 304.30 290.84 242.87 366.62 242.87 C 442.40 242.87 503.83 304.30 503.83 380.08 Z" fill="url(#SVGID_20_)" fill-rule="nonzero" group-id="11,45" node-id="470" stroke="none" target-height="274.42" target-width="274.42004" target-x="229.41" target-y="242.86996"></path><path d="M 475.18 380.08 C 475.18 440.04 426.58 488.64 366.62 488.64 C 306.66 488.64 258.06 440.04 258.06 380.08 C 258.06 320.12 306.66 271.52 366.62 271.52 C 426.58 271.52 475.18 320.12 475.18 380.08 Z" fill="url(#SVGID_21_)" fill-rule="nonzero" group-id="11,45" node-id="472" stroke="none" target-height="217.12" target-width="217.12" target-x="258.06" target-y="271.52"></path><path d="M 375.14 311.63 L 389.60 340.93 C 390.98 343.73 393.66 345.68 396.76 346.13 L 429.09 350.83 C 436.88 351.96 440.00 361.54 434.36 367.04 L 410.97 389.84 C 408.73 392.02 407.71 395.17 408.24 398.25 L 413.76 430.45 C 415.09 438.21 406.94 444.13 399.97 440.47 L 371.05 425.27 C 368.28 423.81 364.97 423.81 362.21 425.27 L 333.29 440.47 C 326.32 444.14 318.17 438.22 319.50 430.45 L 325.02 398.25 C 325.55 395.17 324.53 392.02 322.29 389.84 L 298.90 367.04 C 293.26 361.54 296.37 351.96 304.17 350.83 L 336.50 346.13 C 339.60 345.68 342.27 343.74 343.66 340.93 L 358.12 311.63 C 361.58 304.57 371.65 304.57 375.14 311.63 Z" fill="url(#SVGID_22_)" fill-rule="nonzero" group-id="11,45" node-id="474" stroke="none" target-height="139.57" target-width="146.73999" target-x="293.26" target-y="304.57"></path><path d="M 525.78 425.92 C 498.42 425.92 476.25 435.87 476.25 448.13 L 476.25 509.15 C 476.25 521.42 498.43 531.36 525.78 531.36 C 553.14 531.36 575.31 521.41 575.31 509.15 L 575.31 448.13 C 575.31 435.86 553.14 425.92 525.78 425.92 Z" fill="url(#SVGID_23_)" fill-rule="nonzero" group-id="11,45" node-id="476" stroke="none" target-height="105.43997" target-width="99.06" target-x="476.25" target-y="425.92"></path><path d="M 525.78 470.19 C 549.95 470.19 565.47 464.26 575.31 457.51 L 575.31 448.13 C 575.31 447.87 575.29 447.62 575.27 447.36 C 567.34 454.45 552.56 462.19 525.78 462.19 C 497.71 462.19 483.47 453.78 476.39 446.50 C 476.30 447.04 476.24 447.58 476.24 448.12 L 476.24 456.93 C 485.63 463.93 500.96 470.19 525.78 470.19 Z" fill="url(#SVGID_24_)" fill-rule="nonzero" group-id="11,45" node-id="478" stroke="none" target-height="23.690002" target-width="99.07001" target-x="476.24" target-y="446.5"></path><path d="M 476.25 481.49 L 476.25 492.07 C 485.63 499.07 500.96 505.33 525.78 505.33 C 549.95 505.33 565.47 499.40 575.31 492.65 L 575.31 482.54 C 567.41 489.62 552.65 497.33 525.78 497.33 C 497.52 497.33 483.27 488.80 476.25 481.49 Z" fill="url(#SVGID_25_)" fill-rule="nonzero" group-id="11,45" node-id="480" stroke="none" target-height="23.839996" target-width="99.06" target-x="476.25" target-y="481.49"></path></g><g node-id="566"><path d="M 479.91 475.24 C 479.91 475.24 480.67 476.27 478.46 480.00 C 481.82 481.16 486.25 479.78 486.25 479.78 L 486.01 473.57 L 479.91 475.24 Z" fill="#ffbe92" fill-rule="nonzero" group-id="11,46" node-id="485" stroke="none" target-height="7.589966" target-width="7.7900085" target-x="478.46" target-y="473.57"></path><path d="M 488.25 483.52 L 468.71 484.52 C 468.71 484.52 467.42 478.71 475.12 478.55 C 476.68 478.52 477.88 476.70 479.16 476.69 C 482.23 479.19 487.30 478.50 487.30 478.50 L 488.25 483.52 Z" fill="#f8b62d" fill-rule="nonzero" group-id="11,46" node-id="487" stroke="none" target-height="7.829956" target-width="20.830017" target-x="467.41998" target-y="476.69003"></path><path d="M 488.71 484.78 L 480.14 485.98 L 479.74 484.43 L 468.73 485.70 L 468.44 484.39 L 488.20 481.90 Z" fill="#e6e8e8" fill-rule="nonzero" group-id="11,46" node-id="489" stroke="none" target-height="4.0799866" target-width="20.27002" target-x="468.43997" target-y="481.90002"></path><path d="M 470.10 478.08 C 470.10 478.08 471.41 479.60 468.30 482.65 C 471.24 484.62 475.03 484.09 475.03 484.09 L 476.42 478.03 L 470.10 478.08 Z" fill="#ffbe92" fill-rule="nonzero" group-id="11,46" node-id="491" stroke="none" target-height="6.5899963" target-width="8.120026" target-x="468.3" target-y="478.03"></path><path d="M 476.89 488.26 L 457.34 487.80 C 457.34 487.80 456.53 481.90 464.22 482.33 C 465.77 482.42 467.12 480.69 468.40 480.77 C 471.25 483.50 476.36 483.18 476.36 483.18 L 476.89 488.26 Z" fill="#f8b62d" fill-rule="nonzero" group-id="11,46" node-id="493" stroke="none" target-height="7.569977" target-width="20.360046" target-x="456.53" target-y="480.69"></path><path d="M 477.24 489.56 L 468.61 490.12 L 468.34 488.54 L 457.27 488.99 L 457.09 487.65 L 476.97 486.64 Z" fill="#e6e8e8" fill-rule="nonzero" group-id="11,46" node-id="495" stroke="none" target-height="3.4799805" target-width="20.149994" target-x="457.09" target-y="486.64"></path><path d="M 497.52 442.11 C 497.52 442.11 472.71 435.41 470.35 441.15 C 467.99 446.89 472.84 456.16 475.25 463.11 C 477.66 470.06 479.48 476.28 479.48 476.28 L 487.23 475.56 L 484.36 451.29 C 484.36 451.29 486.03 446.98 491.85 446.50 C 497.66 446.04 497.52 442.11 497.52 442.11 Z" fill="url(#SVGID_26_)" fill-rule="nonzero" group-id="11,46" node-id="497" stroke="none" target-height="40.869995" target-width="29.669983" target-x="467.99" target-y="435.41"></path><path d="M 506.47 438.67 C 506.47 438.67 481.22 435.38 478.27 439.48 C 475.32 443.58 469.48 479.74 469.48 479.74 L 475.97 482.33 C 475.97 482.33 485.92 455.34 488.27 454.10 C 490.28 453.04 496.17 454.18 501.76 455.84 C 507.35 457.50 516.88 459.47 521.20 448.93 C 519.24 437.58 506.47 438.67 506.47 438.67 Z" fill="url(#SVGID_27_)" fill-rule="nonzero" group-id="11,46" node-id="499" stroke="none" target-height="46.94995" target-width="51.72" target-x="469.48" target-y="435.38"></path><path d="M 502.87 392.84 C 502.87 392.84 499.56 397.19 501.88 404.08 C 502.47 405.40 503.61 407.69 506.75 405.96 C 507.02 405.90 507.20 406.29 507.27 406.66 C 507.34 407.03 508.19 413.38 508.19 413.38 L 517.23 413.43 C 517.23 413.43 513.04 397.70 513.12 394.61 C 513.15 393.02 511.46 390.24 508.11 390.09 C 504.76 389.94 502.87 392.84 502.87 392.84 Z" fill="#ffbe92" fill-rule="nonzero" group-id="11,46" node-id="501" stroke="none" target-height="23.48996" target-width="17.669983" target-x="499.56" target-y="389.94003"></path><path d="M 505.31 387.02 C 505.31 387.02 504.39 385.29 501.86 386.55 C 499.33 387.81 500.54 390.04 500.63 390.60 C 500.72 391.16 500.37 391.59 499.62 391.29 C 498.87 390.98 497.54 390.77 496.62 392.47 C 495.70 394.17 497.65 398.68 500.61 398.23 C 503.57 397.78 505.05 396.27 506.11 395.19 C 507.17 394.11 509.23 392.83 509.53 394.10 C 509.83 395.37 509.75 398.04 510.34 397.65 C 510.89 397.28 510.57 394.55 512.21 394.54 C 513.85 394.54 513.73 396.90 512.65 398.17 C 512.19 398.71 512.22 398.61 512.38 399.16 C 512.54 399.71 512.50 400.09 513.09 400.74 C 513.69 401.40 513.93 401.75 514.42 400.80 C 514.91 399.85 515.83 398.03 515.34 394.18 C 515.14 393.10 515.48 393.03 516.04 392.42 C 516.60 391.81 517.41 390.85 516.59 389.47 C 515.77 388.08 514.98 388.26 513.96 388.30 C 512.93 388.35 512.98 387.97 512.97 387.36 C 512.96 386.75 512.21 384.40 510.18 384.45 C 508.15 384.49 507.28 385.64 506.76 386.61 C 506.27 387.59 505.63 387.34 505.31 387.02 Z" fill="#171c61" fill-rule="nonzero" group-id="11,46" node-id="503" stroke="none" target-height="17.350067" target-width="21.70996" target-x="495.7" target-y="384.39996"></path><path d="M 497.15 423.09 C 497.15 423.09 496.81 426.86 495.89 427.75 C 494.97 428.64 488.40 434.13 484.89 435.79 C 485.59 437.83 486.04 438.09 486.04 438.09 C 486.04 438.09 495.68 435.41 498.81 432.28 C 499.90 431.07 501.89 428.42 502.45 424.49 C 499.96 421.99 497.15 423.09 497.15 423.09 Z" fill="#ffbe92" fill-rule="nonzero" group-id="11,46" node-id="505" stroke="none" target-height="16.100037" target-width="17.559998" target-x="484.89" target-y="421.99"></path><path d="M 495.89 424.79 L 503.79 429.29 C 503.79 429.29 510.01 415.17 505.18 410.76 C 503.65 409.47 499.48 411.33 497.95 416.03 C 496.42 420.72 495.89 424.79 495.89 424.79 Z" fill="url(#SVGID_28_)" fill-rule="nonzero" group-id="11,46" node-id="507" stroke="none" target-height="19.820007" target-width="14.119995" target-x="495.89" target-y="409.47"></path><path d="M 523.94 412.05 C 523.94 412.05 520.57 405.58 515.34 406.00 C 514.62 409.64 510.48 409.80 507.57 408.81 C 505.44 409.10 504.24 409.24 502.78 411.39 C 501.32 413.54 501.47 414.05 500.47 418.58 C 499.75 423.20 501.56 427.12 500.78 431.34 C 500.01 435.57 496.03 436.22 498.10 437.98 C 500.17 439.74 513.16 440.72 519.13 449.53 C 520.97 452.25 522.42 446.10 522.45 441.46 C 522.49 436.81 520.07 424.82 523.94 412.05 Z" fill="url(#SVGID_29_)" fill-rule="nonzero" group-id="11,46" node-id="509" stroke="none" target-height="46.670013" target-width="27.910034" target-x="496.02997" target-y="405.58"></path><path d="M 475.96 437.39 L 485.28 437.14 L 503.47 438.35 L 488.79 440.45 Z" fill="url(#SVGID_30_)" fill-rule="nonzero" group-id="11,46" node-id="511" stroke="none" target-height="3.3099976" target-width="27.51001" target-x="475.96" target-y="437.14"></path><path d="M 503.64 437.57 L 488.79 439.62 L 488.79 440.45 L 503.64 438.40 Z" fill="url(#SVGID_31_)" fill-rule="nonzero" group-id="11,46" node-id="513" stroke="none" target-height="2.8799744" target-width="14.850006" target-x="488.79" target-y="437.57004"></path><path d="M 516.96 423.22 C 516.96 423.22 514.77 430.25 514.13 430.47 C 513.49 430.69 503.01 435.09 501.77 435.15 C 500.53 435.21 495.04 432.60 492.94 438.09 C 492.81 438.66 492.68 439.05 494.22 438.92 C 495.76 438.79 498.09 438.21 499.71 438.72 C 501.33 439.23 502.01 438.34 503.48 438.34 C 504.95 438.34 516.69 437.32 518.22 435.85 C 519.75 434.38 521.60 431.76 522.56 426.15 C 518.66 423.67 516.96 423.22 516.96 423.22 Z" fill="#ffbe92" fill-rule="nonzero" group-id="11,46" node-id="515" stroke="none" target-height="16.00998" target-width="29.880005" target-x="492.68" target-y="423.22003"></path><path d="M 514.66 424.50 L 522.56 429.00 C 522.56 429.00 528.78 414.88 523.95 410.47 C 522.42 409.18 518.25 411.04 516.72 415.74 C 515.18 420.43 514.66 424.50 514.66 424.50 Z" fill="url(#SVGID_32_)" fill-rule="nonzero" group-id="11,46" node-id="517" stroke="none" target-height="19.820007" target-width="14.120056" target-x="514.66" target-y="409.18"></path><path d="M 468.23 422.88 L 484.37 423.20 C 484.83 423.21 485.23 423.52 485.35 423.97 L 489.34 439.02 C 489.52 439.71 488.96 440.38 488.25 440.32 L 472.69 439.00 C 472.27 438.96 471.92 438.68 471.79 438.29 L 467.22 424.24 C 467.00 423.56 467.51 422.87 468.23 422.88 Z" fill="url(#SVGID_33_)" fill-rule="nonzero" group-id="11,46" node-id="519" stroke="none" target-height="17.51004" target-width="22.52002" target-x="467" target-y="422.86996"></path></g></g></svg>