<?xml version="1.0" standalone="no"?><!DOCTYPE svg PUBLIC "-//W3C//DTD SVG 1.1//EN" "http://www.w3.org/Graphics/SVG/1.1/DTD/svg11.dtd"><svg height="800" node-id="1" sillyvg="true" template-height="800" template-width="800" version="1.1" viewBox="0 0 800 800" width="800" xmlns="http://www.w3.org/2000/svg" xmlns:xlink="http://www.w3.org/1999/xlink"><defs node-id="183"><linearGradient gradientUnits="objectBoundingBox" id="SVGID_1_" node-id="37" spreadMethod="pad" x1="258.248" x2="258.248" y1="423.3921" y2="326.6038"><stop offset="0.0000005358273" stop-color="#ffffff"></stop><stop offset="1" stop-color="#dbe3ee"></stop></linearGradient><linearGradient gradientUnits="objectBoundingBox" id="SVGID_2_" node-id="41" spreadMethod="pad" x1="193.631" x2="193.631" y1="481.384" y2="264.895"><stop offset="0.0000005358273" stop-color="#ffffff"></stop><stop offset="1" stop-color="#dbe3ee"></stop></linearGradient><linearGradient gradientUnits="objectBoundingBox" id="SVGID_3_" node-id="45" spreadMethod="pad" x1="569.4126" x2="569.4126" y1="438.7051" y2="282.2243"><stop offset="0.0000005358273" stop-color="#ffffff"></stop><stop offset="1" stop-color="#dbe3ee"></stop></linearGradient><linearGradient gradientUnits="objectBoundingBox" id="SVGID_4_" node-id="49" spreadMethod="pad" x1="631.9374" x2="631.9374" y1="461.3751" y2="291.6344"><stop offset="0.0000005358273" stop-color="#ffffff"></stop><stop offset="1" stop-color="#dbe3ee"></stop></linearGradient><linearGradient gradientUnits="objectBoundingBox" id="SVGID_5_" node-id="53" spreadMethod="pad" x1="123.2249" x2="123.2249" y1="503.4536" y2="352.9402"><stop offset="0.0000005358273" stop-color="#ffffff"></stop><stop offset="1" stop-color="#edf1f9"></stop></linearGradient><linearGradient gradientUnits="objectBoundingBox" id="SVGID_6_" node-id="57" spreadMethod="pad" x1="685.8981" x2="685.8981" y1="486.8482" y2="363.7159"><stop offset="0.0000005358273" stop-color="#ffffff"></stop><stop offset="1" stop-color="#edf1f9"></stop></linearGradient><linearGradient gradientUnits="objectBoundingBox" id="SVGID_7_" node-id="61" spreadMethod="pad" x1="129.1886" x2="129.1886" y1="231.1463" y2="166.605"><stop offset="0.2332" stop-color="#ffffff"></stop><stop offset="1" stop-color="#d3dfee"></stop></linearGradient><linearGradient gradientUnits="objectBoundingBox" id="SVGID_8_" node-id="65" spreadMethod="pad" x1="646.257" x2="646.257" y1="194.3259" y2="129.7846"><stop offset="0.2332" stop-color="#ffffff"></stop><stop offset="1" stop-color="#d3dfee"></stop></linearGradient><linearGradient gradientUnits="objectBoundingBox" id="SVGID_9_" node-id="69" spreadMethod="pad" x1="516.4861" x2="516.4861" y1="237.4993" y2="190.7821"><stop offset="0.2332" stop-color="#ffffff"></stop><stop offset="1" stop-color="#d3dfee"></stop></linearGradient><linearGradient gradientUnits="objectBoundingBox" id="SVGID_10_" node-id="73" spreadMethod="pad" x1="402.7034" x2="402.7034" y1="753.0242" y2="400.8953"><stop offset="0.4065" stop-color="#ffffff"></stop><stop offset="1" stop-color="#dae4ef"></stop></linearGradient><linearGradient gradientUnits="objectBoundingBox" id="SVGID_11_" node-id="79" spreadMethod="pad" x1="193.6329" x2="142.1967" y1="576.48" y2="515.1807"><stop offset="0.4034" stop-color="#eff4f8"></stop><stop offset="1" stop-color="#d4dfec"></stop></linearGradient><linearGradient gradientUnits="objectBoundingBox" id="SVGID_12_" node-id="83" spreadMethod="pad" x1="114.5851" x2="178.7719" y1="456.1896" y2="456.1896"><stop offset="0.1022" stop-color="#f0f5f8"></stop><stop offset="1" stop-color="#b4c7dc"></stop></linearGradient><linearGradient gradientUnits="objectBoundingBox" id="SVGID_13_" node-id="89" spreadMethod="pad" x1="712.495" x2="665.1296" y1="556.5074" y2="500.0595"><stop offset="0.4034" stop-color="#eff4f8"></stop><stop offset="1" stop-color="#d4dfec"></stop></linearGradient><linearGradient gradientUnits="objectBoundingBox" id="SVGID_14_" node-id="93" spreadMethod="pad" x1="639.7032" x2="698.8102" y1="445.7372" y2="445.7372"><stop offset="0.1022" stop-color="#f0f5f8"></stop><stop offset="1" stop-color="#b4c7dc"></stop></linearGradient><linearGradient gradientUnits="objectBoundingBox" id="SVGID_15_" node-id="99" spreadMethod="pad" x1="253.8324" x2="228.3911" y1="457.3366" y2="427.0169"><stop offset="0.0000001438503" stop-color="#eaeff6"></stop><stop offset="1" stop-color="#cddae9"></stop></linearGradient><linearGradient gradientUnits="objectBoundingBox" id="SVGID_16_" node-id="103" spreadMethod="pad" x1="214.7339" x2="246.4819" y1="397.8389" y2="397.8389"><stop offset="0.1022" stop-color="#f0f5f8"></stop><stop offset="1" stop-color="#b4c7dc"></stop></linearGradient><linearGradient gradientUnits="objectBoundingBox" id="SVGID_17_" node-id="109" spreadMethod="pad" x1="536.4573" x2="498.9254" y1="686.3049" y2="449.3378"><stop offset="0.1468" stop-color="#ffffff"></stop><stop offset="1" stop-color="#bbcbe0"></stop></linearGradient><linearGradient gradientUnits="objectBoundingBox" id="SVGID_18_" node-id="113" spreadMethod="pad" x1="295.8143" x2="409.6212" y1="398.7847" y2="398.7847"><stop offset="0.0000005309115" stop-color="#e5ecf3"></stop><stop offset="1" stop-color="#becfe0"></stop></linearGradient><linearGradient gradientUnits="objectBoundingBox" id="SVGID_19_" node-id="117" spreadMethod="pad" x1="409.6212" x2="546.9032" y1="373.3691" y2="373.3691"><stop offset="0" stop-color="#d9e3ed"></stop><stop offset="1" stop-color="#acc2db"></stop></linearGradient><linearGradient gradientUnits="objectBoundingBox" id="SVGID_20_" node-id="121" spreadMethod="pad" x1="276.0708" x2="276.0708" y1="417.7526" y2="353.0554"><stop offset="0" stop-color="#eff3f9"></stop><stop offset="0.9705" stop-color="#9cb6d2"></stop></linearGradient><linearGradient gradientUnits="objectBoundingBox" id="SVGID_21_" node-id="125" spreadMethod="pad" x1="295.8143" x2="430.0915" y1="444.5141" y2="444.5141"><stop offset="0" stop-color="#eff3f9"></stop><stop offset="1" stop-color="#b4c7dc"></stop></linearGradient><linearGradient gradientUnits="objectBoundingBox" id="SVGID_22_" node-id="129" spreadMethod="pad" x1="403.7328" x2="561.6102" y1="504.5598" y2="372.0849"><stop offset="0" stop-color="#eff3f9"></stop><stop offset="0.9705" stop-color="#9cb6d2"></stop></linearGradient><linearGradient gradientUnits="objectBoundingBox" id="SVGID_23_" node-id="133" spreadMethod="pad" x1="430.0915" x2="586.4664" y1="403.7614" y2="403.7614"><stop offset="0" stop-color="#d5e0ee"></stop><stop offset="1" stop-color="#f5f9fa"></stop></linearGradient><linearGradient gradientUnits="objectBoundingBox" id="SVGID_24_" node-id="137" spreadMethod="pad" x1="260.3201" x2="430.0915" y1="405.7333" y2="405.7333"><stop offset="0.0000004424263" stop-color="#f7fafb"></stop><stop offset="1" stop-color="#d5e0ee"></stop></linearGradient><linearGradient gradientUnits="objectBoundingBox" id="SVGID_25_" node-id="141" spreadMethod="pad" x1="447.3969" x2="472.2547" y1="316.4088" y2="359.4638"><stop offset="0.3735" stop-color="#cfdbe8"></stop><stop offset="1" stop-color="#9fb7ce"></stop></linearGradient><linearGradient gradientUnits="objectBoundingBox" id="SVGID_26_" node-id="145" spreadMethod="pad" x1="432.3996" x2="471.9781" y1="260.5178" y2="260.5178"><stop offset="0" stop-color="#eff3f9"></stop><stop offset="1" stop-color="#b4c7dc"></stop></linearGradient><linearGradient gradientUnits="objectBoundingBox" id="SVGID_27_" node-id="149" spreadMethod="pad" x1="336.9254" x2="375.6631" y1="251.9931" y2="251.9931"><stop offset="0" stop-color="#dde5f0"></stop><stop offset="1" stop-color="#9fb7ce"></stop></linearGradient><linearGradient gradientUnits="objectBoundingBox" id="SVGID_28_" node-id="162" spreadMethod="pad" x1="569.4727" x2="619.6047" y1="530.5295" y2="530.5295"><stop offset="0" stop-color="#78c8ff"></stop><stop offset="0.6903" stop-color="#2a80e2"></stop></linearGradient><linearGradient gradientUnits="objectBoundingBox" id="SVGID_29_" node-id="166" spreadMethod="pad" x1="606.6335" x2="606.6335" y1="512.3148" y2="465.0279"><stop offset="0" stop-color="#f2a319"></stop><stop offset="0.4796" stop-color="#ffc552"></stop></linearGradient></defs><g node-id="524"><g node-id="535"><path d="M 272.70 330.01 L 272.70 326.60 L 243.20 326.60 L 243.20 330.56 L 236.72 330.56 L 236.72 423.39 L 279.77 423.39 L 279.77 330.01 L 272.70 330.01 Z M 276.05 412.75 L 240.01 412.75 L 240.01 410.00 L 276.05 410.00 L 276.05 412.75 Z M 276.05 400.07 L 240.01 400.07 L 240.01 397.32 L 276.05 397.32 L 276.05 400.07 Z M 276.05 387.39 L 240.01 387.39 L 240.01 384.64 L 276.05 384.64 L 276.05 387.39 Z M 276.05 375.05 L 240.01 375.05 L 240.01 372.30 L 276.05 372.30 L 276.05 375.05 Z M 276.05 362.74 L 240.01 362.74 L 240.01 359.99 L 276.05 359.99 L 276.05 362.74 Z M 276.05 350.06 L 240.01 350.06 L 240.01 347.31 L 276.05 347.31 L 276.05 350.06 Z M 276.05 337.72 L 240.01 337.72 L 240.01 334.97 L 276.05 334.97 L 276.05 337.72 Z" fill="url(#SVGID_1_)" fill-rule="nonzero" group-id="32,43" node-id="393" stroke="none" target-height="96.79001" target-width="43.049988" target-x="236.72" target-y="326.6"></path><path d="M 214.72 381.82 L 214.72 273.64 L 181.97 273.64 L 181.97 264.90 L 168.11 264.90 L 168.11 318.23 L 164.38 318.23 L 164.38 481.39 L 222.89 481.39 L 222.89 381.83 L 214.72 381.83 Z M 190.22 413.63 L 181.96 413.63 L 181.96 405.62 L 190.22 405.62 L 190.22 413.63 Z M 190.22 401.10 L 181.96 401.10 L 181.96 393.09 L 190.22 393.09 L 190.22 401.10 Z M 190.22 388.63 L 181.96 388.63 L 181.96 380.62 L 190.22 380.62 L 190.22 388.63 Z M 190.22 376.19 L 181.96 376.19 L 181.96 368.18 L 190.22 368.18 L 190.22 376.19 Z M 190.22 363.66 L 181.96 363.66 L 181.96 355.65 L 190.22 355.65 L 190.22 363.66 Z M 190.22 338.66 L 181.96 338.66 L 181.96 330.65 L 190.22 330.65 L 190.22 338.66 Z M 190.22 326.13 L 181.96 326.13 L 181.96 318.12 L 190.22 318.12 L 190.22 326.13 Z M 190.22 313.65 L 181.96 313.65 L 181.96 305.64 L 190.22 305.64 L 190.22 313.65 Z M 190.22 301.22 L 181.96 301.22 L 181.96 293.21 L 190.22 293.21 L 190.22 301.22 Z M 190.22 288.69 L 181.96 288.69 L 181.96 280.68 L 190.22 280.68 L 190.22 288.69 Z M 202.58 413.63 L 194.32 413.63 L 194.32 405.62 L 202.58 405.62 L 202.58 413.63 Z M 202.58 401.10 L 194.32 401.10 L 194.32 393.09 L 202.58 393.09 L 202.58 401.10 Z M 202.58 388.63 L 194.32 388.63 L 194.32 380.62 L 202.58 380.62 L 202.58 388.63 Z M 202.58 376.19 L 194.32 376.19 L 194.32 368.18 L 202.58 368.18 L 202.58 376.19 Z M 202.58 363.66 L 194.32 363.66 L 194.32 355.65 L 202.58 355.65 L 202.58 363.66 Z M 202.58 338.66 L 194.32 338.66 L 194.32 330.65 L 202.58 330.65 L 202.58 338.66 Z M 202.58 326.13 L 194.32 326.13 L 194.32 318.12 L 202.58 318.12 L 202.58 326.13 Z M 202.58 313.65 L 194.32 313.65 L 194.32 305.64 L 202.58 305.64 L 202.58 313.65 Z M 202.58 301.22 L 194.32 301.22 L 194.32 293.21 L 202.58 293.21 L 202.58 301.22 Z M 202.58 288.69 L 194.32 288.69 L 194.32 280.68 L 202.58 280.68 L 202.58 288.69 Z" fill="url(#SVGID_2_)" fill-rule="nonzero" group-id="32,43" node-id="395" stroke="none" target-height="216.49002" target-width="58.509995" target-x="164.38" target-y="264.9"></path><path d="M 537.03 438.71 C 537.39 434.06 537.03 282.23 537.03 282.23 L 555.56 282.23 L 555.56 315.94 L 585.06 315.94 L 585.06 386.39 L 601.79 386.39 L 601.79 438.71 L 537.03 438.71 Z" fill="url(#SVGID_3_)" fill-rule="nonzero" group-id="32,43" node-id="397" stroke="none" target-height="156.47998" target-width="64.75995" target-x="537.03" target-y="282.23"></path><path d="M 658.25 370.56 L 658.25 365.71 L 653.25 365.71 L 653.25 323.38 L 641.05 323.38 L 641.05 318.68 L 632.82 318.68 L 632.82 311.77 L 628.53 311.77 L 628.53 291.63 L 625.44 291.63 L 625.44 311.91 L 621.50 311.91 L 621.50 318.82 L 609.30 318.82 L 609.30 330.14 L 602.25 330.14 L 602.25 461.37 L 661.63 461.37 L 661.63 370.55 L 658.25 370.55 Z M 612.73 423.34 L 608.71 423.34 L 608.71 408.10 L 612.73 408.10 L 612.73 423.34 Z M 612.73 404.69 L 608.71 404.69 L 608.71 389.45 L 612.73 389.45 L 612.73 404.69 Z M 612.73 386.04 L 608.71 386.04 L 608.71 370.80 L 612.73 370.80 L 612.73 386.04 Z M 612.73 367.06 L 608.71 367.06 L 608.71 351.82 L 612.73 351.82 L 612.73 367.06 Z M 612.73 348.07 L 608.71 348.07 L 608.71 332.83 L 612.73 332.83 L 612.73 348.07 Z M 621.01 423.34 L 617.00 423.34 L 617.00 408.10 L 621.02 408.10 L 621.02 423.34 Z M 621.01 404.69 L 617.00 404.69 L 617.00 389.45 L 621.02 389.45 L 621.02 404.69 Z M 621.01 386.04 L 617.00 386.04 L 617.00 370.80 L 621.02 370.80 L 621.02 386.04 Z M 621.01 367.06 L 617.00 367.06 L 617.00 351.82 L 621.02 351.82 L 621.02 367.06 Z M 621.01 348.07 L 617.00 348.07 L 617.00 332.83 L 621.02 332.83 L 621.02 348.07 Z M 629.29 423.34 L 625.27 423.34 L 625.27 408.10 L 629.29 408.10 L 629.29 423.34 Z M 629.29 404.69 L 625.27 404.69 L 625.27 389.45 L 629.29 389.45 L 629.29 404.69 Z M 629.29 386.04 L 625.27 386.04 L 625.27 370.80 L 629.29 370.80 L 629.29 386.04 Z M 629.29 367.06 L 625.27 367.06 L 625.27 351.82 L 629.29 351.82 L 629.29 367.06 Z M 629.29 348.07 L 625.27 348.07 L 625.27 332.83 L 629.29 332.83 L 629.29 348.07 Z M 637.57 423.34 L 633.55 423.34 L 633.55 408.10 L 637.57 408.10 L 637.57 423.34 Z M 637.57 404.69 L 633.55 404.69 L 633.55 389.45 L 637.57 389.45 L 637.57 404.69 Z M 637.57 386.04 L 633.55 386.04 L 633.55 370.80 L 637.57 370.80 L 637.57 386.04 Z M 637.57 367.06 L 633.55 367.06 L 633.55 351.82 L 637.57 351.82 L 637.57 367.06 Z M 637.57 348.07 L 633.55 348.07 L 633.55 332.83 L 637.57 332.83 L 637.57 348.07 Z M 645.85 423.34 L 641.83 423.34 L 641.83 408.10 L 645.85 408.10 L 645.85 423.34 Z M 645.85 404.69 L 641.83 404.69 L 641.83 389.45 L 645.85 389.45 L 645.85 404.69 Z M 645.85 386.04 L 641.83 386.04 L 641.83 370.80 L 645.85 370.80 L 645.85 386.04 Z M 645.85 367.06 L 641.83 367.06 L 641.83 351.82 L 645.85 351.82 L 645.85 367.06 Z M 645.85 348.07 L 641.83 348.07 L 641.83 332.83 L 645.85 332.83 L 645.85 348.07 Z" fill="url(#SVGID_4_)" fill-rule="nonzero" group-id="32,43" node-id="399" stroke="none" target-height="169.73999" target-width="59.380005" target-x="602.25" target-y="291.63"></path><path d="M 96.60 503.45 L 96.60 413.91 L 106.85 413.91 L 106.85 368.21 L 142.11 352.94 L 142.11 413.19 L 149.85 413.19 L 149.85 503.45 Z" fill="url(#SVGID_5_)" fill-rule="nonzero" group-id="32,43" node-id="401" stroke="none" target-height="150.51001" target-width="53.25" target-x="96.600006" target-y="352.94"></path><path d="M 701.37 486.85 L 670.43 486.85 L 670.43 363.72 L 701.37 378.69 Z" fill="url(#SVGID_6_)" fill-rule="nonzero" group-id="32,43" node-id="403" stroke="none" target-height="123.129974" target-width="30.939941" target-x="670.43" target-y="363.72"></path><path d="M 91.42 190.04 C 91.42 190.04 100.76 164.56 123.72 174.56 C 129.02 169.18 135.58 165.27 144.45 167.03 C 153.32 168.79 159.04 175.44 160.98 179.86 C 163.76 179.73 186.02 180.47 186.02 203.56 C 186.02 226.65 159.08 226.21 157.13 224.38 C 154.73 226.52 143.19 238.13 129.19 224.88 C 126.16 227.47 116.26 238.44 100.61 223.30 C 93.36 226.33 76.13 228.66 72.79 210.87 C 69.44 193.09 86.58 188.06 91.42 190.04 Z" fill="url(#SVGID_7_)" fill-rule="nonzero" group-id="32,43" node-id="405" stroke="none" target-height="73.880005" target-width="116.58" target-x="69.44" target-y="164.56"></path><path d="M 608.49 153.22 C 608.49 153.22 617.83 127.74 640.79 137.74 C 646.09 132.36 652.65 128.45 661.52 130.21 C 670.39 131.98 676.11 138.62 678.05 143.04 C 680.83 142.91 703.09 143.65 703.09 166.74 C 703.09 189.83 676.15 189.39 674.20 187.56 C 671.80 189.70 660.26 201.31 646.26 188.06 C 643.23 190.65 633.33 201.62 617.68 186.48 C 610.43 189.51 593.20 191.84 589.86 174.05 C 586.51 156.27 603.65 151.24 608.49 153.22 Z" fill="url(#SVGID_8_)" fill-rule="nonzero" group-id="32,43" node-id="407" stroke="none" target-height="73.88" target-width="116.58002" target-x="586.51" target-y="127.74"></path><path d="M 489.15 207.74 C 489.15 207.74 495.91 189.29 512.53 196.54 C 516.37 192.64 521.11 189.81 527.54 191.09 C 533.96 192.37 538.10 197.18 539.50 200.37 C 541.51 200.28 557.63 200.81 557.63 217.52 C 557.63 234.23 538.13 233.91 536.72 232.59 C 534.98 234.14 526.63 242.54 516.49 232.96 C 514.30 234.83 507.13 242.78 495.81 231.82 C 490.56 234.01 478.09 235.70 475.67 222.82 C 473.25 209.94 485.65 206.31 489.15 207.74 Z" fill="url(#SVGID_9_)" fill-rule="nonzero" group-id="32,43" node-id="409" stroke="none" target-height="53.49002" target-width="84.380005" target-x="473.25" target-y="189.28998"></path><path d="M 773.68 576.96 C 773.68 623.65 734.59 668.44 665.02 701.45 C 595.45 734.47 501.09 753.02 402.70 753.02 C 304.31 753.02 209.95 734.47 140.38 701.45 C 70.81 668.44 31.72 623.65 31.72 576.96 C 31.72 530.27 70.81 485.48 140.38 452.47 C 209.95 419.45 304.31 400.90 402.70 400.90 C 501.09 400.90 595.45 419.45 665.02 452.47 C 734.59 485.48 773.68 530.27 773.68 576.96 Z" fill="url(#SVGID_10_)" fill-rule="nonzero" group-id="32,43" node-id="411" stroke="none" target-height="352.12" target-width="741.96014" target-x="31.72" target-y="400.90002"></path></g><g node-id="536"><g node-id="539"><path d="M 148.65 555.43 C 148.65 555.43 145.12 560.44 151.02 567.90 C 156.28 574.54 164.59 573.25 167.35 571.12 C 168.20 576.90 175.29 589.08 186.51 582.19 C 197.06 575.72 191.98 565.88 188.61 562.01 C 195.20 560.15 200.11 544.36 184.99 538.91 C 187.23 532.39 187.63 529.44 184.35 523.58 C 181.19 517.94 176.00 517.04 167.72 520.47 L 155.74 525.52 L 148.11 511.28 L 144.03 513.64 L 152.83 527.24 L 141.17 533.09 C 141.17 533.09 131.20 536.99 135.50 547.69 C 139.49 557.60 148.65 555.43 148.65 555.43 Z" fill="url(#SVGID_11_)" fill-rule="nonzero" group-id="32,44,47" node-id="417" stroke="none" target-height="77.80002" target-width="68.91" target-x="131.2" target-y="511.28"></path><path d="M 128.35 494.71 L 164.41 494.71 C 164.41 494.71 176.06 495.04 178.38 481.73 C 180.93 467.12 170.30 465.11 170.30 465.11 C 170.30 465.11 176.70 462.17 175.31 451.12 C 173.92 440.07 164.19 438.68 160.14 439.19 C 160.80 432.64 162.18 417.81 146.78 417.66 C 131.91 417.51 132.00 432.48 133.11 438.38 C 127.81 438.44 111.80 446.39 123.06 463.83 C 116.93 469.08 114.34 472.11 114.61 479.68 C 114.88 487.26 119.52 494.71 128.35 494.71 Z" fill="url(#SVGID_12_)" fill-rule="nonzero" group-id="32,44,47" node-id="419" stroke="none" target-height="77.53003" target-width="69.12999" target-x="111.8" target-y="417.50998"></path><path d="M 163.53 474.48 L 148.15 484.60 L 147.73 474.81 L 157.45 463.35 L 147.58 471.33 L 146.30 441.43 L 145.35 471.53 L 134.98 463.27 L 145.26 474.59 L 144.94 484.66 L 129.13 473.04 L 144.83 488.30 L 144.03 513.65 L 149.39 513.65 L 148.31 488.45 Z" fill="#c6d5e6" fill-rule="nonzero" group-id="32,44,47" node-id="421" stroke="none" target-height="72.22006" target-width="34.399994" target-x="129.13" target-y="441.42996"></path></g><g node-id="540"><path d="M 671.07 537.12 C 671.07 537.12 667.82 541.74 673.25 548.60 C 678.09 554.72 685.75 553.53 688.29 551.56 C 689.07 556.88 695.61 568.09 705.94 561.76 C 715.65 555.80 710.98 546.74 707.87 543.18 C 713.94 541.47 718.46 526.92 704.54 521.91 C 706.61 515.91 706.98 513.19 703.95 507.80 C 701.04 502.61 696.26 501.77 688.64 504.94 L 677.60 509.59 L 670.57 496.48 L 666.82 498.65 L 674.92 511.17 L 664.19 516.56 C 664.19 516.56 655.01 520.15 658.97 530.01 C 662.64 539.13 671.07 537.12 671.07 537.12 Z" fill="url(#SVGID_13_)" fill-rule="nonzero" group-id="32,44,48" node-id="426" stroke="none" target-height="71.610016" target-width="63.450012" target-x="655.01" target-y="496.48"></path><path d="M 652.38 481.21 L 685.58 481.21 C 685.58 481.21 696.31 481.52 698.44 469.26 C 700.78 455.81 691.00 453.96 691.00 453.96 C 691.00 453.96 696.90 451.25 695.61 441.08 C 694.32 430.91 685.37 429.62 681.64 430.10 C 682.25 424.07 683.52 410.41 669.34 410.27 C 655.65 410.13 655.73 423.91 656.75 429.35 C 651.87 429.40 637.12 436.72 647.50 452.79 C 641.86 457.62 639.47 460.42 639.72 467.38 C 639.98 474.35 644.25 481.21 652.38 481.21 Z" fill="url(#SVGID_14_)" fill-rule="nonzero" group-id="32,44,48" node-id="428" stroke="none" target-height="71.38995" target-width="63.660034" target-x="637.12" target-y="410.13004"></path><path d="M 684.77 462.58 L 670.61 471.89 L 670.22 462.88 L 679.18 452.33 L 670.09 459.68 L 668.91 432.14 L 668.04 459.86 L 658.48 452.25 L 667.95 462.68 L 667.66 471.96 L 653.09 461.25 L 667.55 475.30 L 666.82 498.65 L 671.75 498.65 L 670.76 475.44 Z" fill="#c6d5e6" fill-rule="nonzero" group-id="32,44,48" node-id="430" stroke="none" target-height="66.50998" target-width="31.679993" target-x="653.09" target-y="432.14"></path></g><g node-id="541"><path d="M 231.58 446.92 C 231.58 446.92 229.83 449.40 232.75 453.09 C 235.35 456.38 239.46 455.74 240.83 454.68 C 241.25 457.54 244.76 463.56 250.31 460.16 C 255.53 456.96 253.02 452.09 251.35 450.18 C 254.61 449.26 257.04 441.45 249.56 438.76 C 250.67 435.54 250.87 434.08 249.24 431.18 C 247.68 428.39 245.11 427.94 241.02 429.64 L 235.09 432.14 L 231.32 425.10 L 229.30 426.27 L 233.65 432.99 L 227.88 435.88 C 227.88 435.88 222.95 437.81 225.08 443.10 C 227.05 448.00 231.58 446.92 231.58 446.92 Z" fill="url(#SVGID_15_)" fill-rule="nonzero" group-id="32,44,49" node-id="435" stroke="none" target-height="38.45999" target-width="34.09001" target-x="222.95" target-y="425.1"></path><path d="M 221.54 416.89 L 239.37 416.89 C 239.37 416.89 245.13 417.05 246.28 410.47 C 247.54 403.24 242.28 402.25 242.28 402.25 C 242.28 402.25 245.45 400.79 244.76 395.33 C 244.07 389.87 239.26 389.18 237.26 389.43 C 237.59 386.19 238.27 378.85 230.65 378.78 C 223.29 378.71 223.34 386.11 223.89 389.03 C 221.27 389.06 213.35 392.99 218.92 401.62 C 215.89 404.21 214.60 405.72 214.74 409.46 C 214.88 413.20 217.17 416.89 221.54 416.89 Z" fill="url(#SVGID_16_)" fill-rule="nonzero" group-id="32,44,49" node-id="437" stroke="none" target-height="38.339996" target-width="34.189987" target-x="213.35" target-y="378.70996"></path><path d="M 238.94 406.88 L 231.33 411.89 L 231.13 407.05 L 235.94 401.38 L 231.05 405.33 L 230.42 390.54 L 229.95 405.42 L 224.82 401.34 L 229.91 406.94 L 229.75 411.92 L 221.93 406.17 L 229.69 413.72 L 229.30 426.26 L 231.95 426.26 L 231.42 413.79 Z" fill="#c6d5e6" fill-rule="nonzero" group-id="32,44,49" node-id="439" stroke="none" target-height="35.72003" target-width="17.010025" target-x="221.92998" target-y="390.54"></path></g></g><g node-id="537"><path d="M 295.82 481.51 L 427.80 703.51 L 736.12 632.40 L 546.80 479.42 Z" fill="url(#SVGID_17_)" fill-rule="nonzero" group-id="32,45" node-id="444" stroke="none" target-height="224.09" target-width="440.3" target-x="295.82" target-y="479.42"></path><path d="M 295.81 474.37 L 409.62 474.37 L 409.62 323.20 L 295.81 353.06 Z" fill="url(#SVGID_18_)" fill-rule="nonzero" group-id="32,45" node-id="446" stroke="none" target-height="151.16998" target-width="113.81" target-x="295.81" target-y="323.2"></path><path d="M 546.90 423.54 L 409.62 423.54 L 409.62 323.20 L 546.90 354.56 Z" fill="url(#SVGID_19_)" fill-rule="nonzero" group-id="32,45" node-id="448" stroke="none" target-height="100.34" target-width="137.28003" target-x="409.62" target-y="323.2"></path><path d="M 295.81 353.06 L 256.33 400.10 L 295.81 417.75 Z" fill="url(#SVGID_20_)" fill-rule="nonzero" group-id="32,45" node-id="450" stroke="none" target-height="64.69003" target-width="39.48001" target-x="256.33" target-y="353.06"></path><path d="M 430.09 535.97 L 295.81 481.51 L 295.81 353.06 L 430.09 387.24 Z" fill="url(#SVGID_21_)" fill-rule="nonzero" group-id="32,45" node-id="452" stroke="none" target-height="182.90997" target-width="134.28" target-x="295.81" target-y="353.06"></path><path d="M 430.09 535.97 L 546.90 479.63 L 546.90 354.56 L 430.09 387.24 Z" fill="url(#SVGID_22_)" fill-rule="nonzero" group-id="32,45" node-id="454" stroke="none" target-height="181.40997" target-width="116.81003" target-x="430.09" target-y="354.56"></path><path d="M 546.90 354.56 L 586.47 407.52 L 471.91 452.97 L 430.09 387.24 Z" fill="url(#SVGID_23_)" fill-rule="nonzero" group-id="32,45" node-id="456" stroke="none" target-height="98.41" target-width="156.37997" target-x="430.09" target-y="354.56"></path><path d="M 295.81 353.06 L 260.32 412.40 L 399.67 458.41 L 430.09 387.24 Z" fill="url(#SVGID_24_)" fill-rule="nonzero" group-id="32,45" node-id="458" stroke="none" target-height="105.349976" target-width="169.76999" target-x="260.32" target-y="353.06"></path><path d="M 460.87 310.87 L 460.87 345.45 C 460.87 345.45 449.05 338.88 436.43 347.49 C 423.81 356.10 426.91 365.73 428.84 368.43 C 431.94 372.84 448.47 376.87 462.04 364.42 C 465.98 360.12 466.17 356.01 466.03 346.42 C 465.92 339.51 465.49 329.15 465.49 329.15 C 465.49 329.15 465.00 325.99 469.38 326.23 C 473.76 326.47 478.16 327.28 479.04 327.57 C 479.92 327.86 487.94 329.98 493.16 324.65 C 496.99 320.42 498.01 319.43 497.14 318.34 C 496.26 317.25 494.38 318.24 493.36 318.33 C 492.34 318.42 486.96 318.78 481.49 314.18 C 476.02 309.58 472.37 306.01 467.96 306.01 C 463.55 306.01 460.87 308.65 460.87 310.87 Z" fill="url(#SVGID_25_)" fill-rule="nonzero" group-id="32,45" node-id="460" stroke="none" target-height="70.860016" target-width="74.20004" target-x="423.81" target-y="306.01"></path><path d="M 441.92 234.57 L 432.10 260.49 C 432.10 260.49 428.18 256.55 422.12 259.00 C 416.06 261.45 415.27 265.31 415.12 267.12 C 414.97 268.93 417.37 273.78 423.80 273.46 C 430.23 273.14 432.86 270.19 434.67 265.41 C 436.48 260.63 441.62 247.05 441.62 247.05 L 459.28 249.67 L 452.70 267.23 C 452.70 267.23 447.73 263.61 442.86 265.54 C 437.99 267.47 435.69 270.84 435.66 273.62 C 435.63 276.41 438.84 281.02 445.61 279.97 C 452.38 278.93 454.37 274.22 455.31 271.73 C 456.25 269.25 467.68 239.06 467.68 239.06 C 467.68 239.06 468.86 236.88 466.67 236.60 C 464.48 236.32 443.72 233.38 443.72 233.38 C 443.72 233.38 442.51 233.01 441.92 234.57 Z" fill="url(#SVGID_26_)" fill-rule="nonzero" group-id="32,45" node-id="462" stroke="none" target-height="48.009995" target-width="53.889954" target-x="414.97003" target-y="233.01"></path><path d="M 366.39 302.38 C 366.74 302.88 366.94 303.19 367.16 303.47 C 369.75 306.87 371.92 306.91 374.73 303.63 C 377.00 300.98 377.64 297.84 377.42 294.46 C 377.16 290.46 375.57 286.89 373.73 283.40 C 373.14 282.27 372.37 282.93 371.74 283.23 C 368.70 284.67 365.52 285.20 362.19 284.89 C 353.33 284.07 343.45 276.51 343.85 263.66 C 344.01 258.60 345.31 253.84 347.57 249.34 C 348.02 248.44 347.98 247.85 347.36 247.00 C 341.56 238.99 340.61 230.38 344.39 221.25 C 344.76 220.36 345.27 219.53 345.76 218.70 C 346.06 218.19 346.45 217.73 346.84 217.19 C 351.85 219.46 355.81 222.73 358.50 227.57 C 361.82 233.56 361.76 239.52 358.73 245.53 C 357.59 247.79 356.37 250.01 355.12 252.21 C 354.64 253.05 354.61 253.66 355.31 254.41 C 356.34 255.51 357.23 256.74 358.22 257.95 C 359.46 256.90 360.52 255.80 361.76 254.99 C 366.36 251.98 371.26 251.03 376.20 253.97 C 381.25 256.98 383.48 261.68 383.04 267.50 C 382.62 273.05 379.83 277.40 375.57 280.85 C 374.80 281.48 374.63 281.90 375.11 282.88 C 376.56 285.85 378.14 288.81 379.10 291.95 C 380.60 296.87 379.40 301.47 376.08 305.38 C 371.19 311.12 362.84 310.18 358.84 303.52 C 355.88 298.60 356.62 292.64 360.75 289.55 C 362.07 288.56 363.71 287.75 365.31 287.41 C 368.68 286.70 371.62 288.77 373.30 292.61 C 375.11 296.77 372.78 300.88 367.99 302.01 C 367.52 302.13 367.07 302.22 366.39 302.38 Z M 378.50 264.28 C 378.40 263.93 378.31 263.57 378.19 263.22 C 376.87 259.26 373.07 257.30 369.09 258.45 C 366.60 259.17 364.96 260.91 363.47 262.89 C 362.93 263.61 362.90 264.18 363.46 264.97 C 366.39 269.20 369.26 273.46 372.11 277.74 C 373.17 279.33 373.19 279.39 374.61 278.11 C 378.78 274.31 379.65 269.57 378.50 264.28 Z M 364.46 275.26 C 362.57 275.04 360.61 273.95 359.35 272.10 C 357.07 268.74 356.02 265.07 356.89 260.99 C 356.96 260.66 356.97 260.19 356.80 259.94 C 355.76 258.45 354.66 257.01 353.31 255.19 C 352.53 257.00 351.74 258.41 351.30 259.92 C 349.22 267.07 353.28 276.44 359.87 279.92 C 363.70 281.94 367.52 281.67 371.69 279.91 C 368.45 275.53 365.33 271.31 362.14 266.99 C 361.93 267.28 361.74 267.42 361.74 267.56 C 361.72 268.11 361.62 268.72 361.81 269.20 C 362.64 271.24 363.57 273.25 364.46 275.26 Z M 349.67 245.17 C 355.85 240.03 356.04 228.57 350.04 223.84 C 346.83 228.37 346.72 240.46 349.67 245.17 Z" fill="url(#SVGID_27_)" fill-rule="nonzero" group-id="32,45" node-id="464" stroke="none" target-height="93.92998" target-width="42.870026" target-x="340.61" target-y="217.19002"></path></g><g node-id="538"><path d="M 597.25 559.80 L 596.38 563.38 L 600.97 568.64 L 602.22 567.34 L 602.45 561.34 Z" fill="#ffbe92" fill-rule="nonzero" group-id="32,46" node-id="469" stroke="none" target-height="8.840027" target-width="6.0700073" target-x="596.38" target-y="559.8"></path><path d="M 592.07 564.23 L 602.34 577.22 C 602.34 577.22 603.79 577.32 604.83 576.83 C 605.94 576.30 606.62 575.15 605.62 574.25 C 604.62 573.34 602.70 573.34 602.78 570.35 C 602.82 568.92 603.01 567.49 602.46 566.58 C 598.81 565.91 596.28 561.92 596.28 561.92 L 592.07 564.23 Z" fill="#f8b62d" fill-rule="nonzero" group-id="32,46" node-id="471" stroke="none" target-height="15.400024" target-width="14.549988" target-x="592.07" target-y="561.92"></path><path d="M 590.88 564.65 L 595.14 571.39 L 596.50 570.75 C 596.50 570.75 600.05 576.03 600.60 576.61 C 601.15 577.19 603.46 577.61 603.87 577.55 C 604.28 577.49 605.07 576.68 605.07 576.68 C 605.07 576.68 601.68 576.13 601.29 575.54 C 600.90 574.94 593.27 563.30 593.27 563.30 L 590.88 564.65 Z" fill="#e6e8e8" fill-rule="nonzero" group-id="32,46" node-id="473" stroke="none" target-height="14.309998" target-width="14.190002" target-x="590.88" target-y="563.3"></path><path d="M 589.28 528.38 C 589.28 528.38 590.48 528.44 591.88 532.18 C 594.73 530.47 596.39 526.54 596.39 526.54 L 591.73 523.10 L 589.28 528.38 Z" fill="#ffbe92" fill-rule="nonzero" group-id="32,46" node-id="475" stroke="none" target-height="9.080017" target-width="7.1099854" target-x="589.28" target-y="523.1"></path><path d="M 600.36 527.72 L 589.38 542.13 C 589.38 542.13 584.37 539.66 588.88 534.11 C 589.79 532.99 589.19 531.08 589.94 530.17 C 593.60 529.46 596.13 525.46 596.13 525.46 L 600.36 527.72 Z" fill="#f8b62d" fill-rule="nonzero" group-id="32,46" node-id="477" stroke="none" target-height="16.669983" target-width="15.98999" target-x="584.37" target-y="525.46"></path><path d="M 601.56 528.13 L 597.30 534.89 L 595.93 534.27 L 590.26 542.81 L 589.13 542.25 L 599.15 526.81 Z" fill="#e6e8e8" fill-rule="nonzero" group-id="32,46" node-id="479" stroke="none" target-height="16" target-width="12.429993" target-x="589.13" target-y="526.81"></path><path d="M 588.08 463.85 C 588.08 463.85 587.26 465.78 591.01 469.94 C 591.84 470.69 593.21 472.16 596.47 471.72 C 596.65 471.60 596.90 471.82 597.06 472.06 C 597.22 472.30 599.24 475.90 599.24 475.90 L 605.78 473.29 C 605.78 473.29 598.02 463.47 597.14 461.28 C 596.68 460.16 594.63 458.70 592.16 459.57 C 589.68 460.45 588.08 463.85 588.08 463.85 Z" fill="#ffbe92" fill-rule="nonzero" group-id="32,46" node-id="481" stroke="none" target-height="17.199982" target-width="18.52002" target-x="587.26" target-y="458.7"></path><path d="M 588.65 457.90 C 588.65 457.90 587.47 456.95 586.02 458.58 C 584.57 460.21 586.12 461.42 586.35 461.78 C 586.58 462.15 586.46 462.55 585.83 462.56 C 585.20 462.57 584.17 462.80 584.02 464.27 C 583.87 465.74 586.64 468.32 588.64 467.15 C 590.64 465.98 591.25 464.47 591.70 463.40 C 592.15 462.33 594.72 461.64 595.91 461.16 C 597.10 460.68 597.79 464.98 598.42 465.26 C 599.06 465.55 600.05 465.04 600.12 464.22 C 600.19 463.40 600.59 461.11 598.07 459.99 C 597.60 459.29 597.82 459.14 598.04 458.55 C 598.26 457.96 598.56 457.05 597.55 456.31 C 596.54 455.58 596.03 455.93 595.30 456.26 C 594.57 456.59 594.50 456.32 594.30 455.89 C 594.11 455.46 592.86 454.04 591.41 454.66 C 589.96 455.28 589.67 456.35 589.60 457.18 C 589.52 458.02 588.98 458.03 588.65 457.90 Z" fill="#171c61" fill-rule="nonzero" group-id="32,46" node-id="483" stroke="none" target-height="14.279999" target-width="16.720032" target-x="583.87" target-y="454.04"></path><path d="M 599.80 497.79 C 599.80 497.79 596.41 499.40 590.53 499.11 C 584.65 498.82 569.40 499.91 569.37 506.36 C 569.34 512.81 579.01 521.00 581.90 523.04 C 584.78 525.09 589.85 529.94 589.85 529.94 L 595.01 524.37 C 595.01 524.37 590.09 519.62 587.96 516.47 C 586.42 514.19 583.86 510.74 583.86 510.74 C 583.86 510.74 595.42 514.83 601.80 513.56 C 603.05 513.13 602.23 515.34 602.11 516.99 C 601.99 518.64 597.45 538.83 596.88 544.84 C 596.31 550.85 596.72 561.76 596.72 561.76 L 602.44 563.16 C 602.44 563.16 607.44 542.91 607.29 540.17 C 607.14 537.43 612.41 533.20 615.46 525.91 C 616.93 522.39 620.46 512.17 619.93 506.21 C 619.40 500.27 599.80 497.79 599.80 497.79 Z" fill="url(#SVGID_28_)" fill-rule="nonzero" group-id="32,46" node-id="485" stroke="none" target-height="65.369995" target-width="51.119995" target-x="569.34" target-y="497.78998"></path><path d="M 585.49 483.04 C 585.31 483.26 590.71 487.03 591.42 489.26 C 592.83 487.88 593.44 487.49 594.05 487.74 C 594.66 487.99 600.48 492.68 598.63 495.91 C 596.78 499.14 595.19 498.14 597.72 500.13 C 600.25 502.12 609.00 502.77 611.32 503.01 C 613.64 503.24 619.61 508.91 620.98 508.71 C 622.34 508.52 624.19 503.33 623.94 500.65 C 623.69 497.97 622.79 494.01 622.08 489.00 C 621.38 483.98 617.39 476.62 615.86 473.72 C 614.33 470.82 615.14 468.91 615.14 468.91 C 615.14 468.91 613.08 462.81 609.04 462.67 C 607.77 464.13 606.33 466.43 606.11 468.39 C 605.89 470.35 603.16 470.23 603.16 470.23 C 603.16 470.23 602.38 474.53 598.21 473.95 C 596.76 474.79 593.76 475.32 591.31 477.47 C 588.82 479.62 588.23 479.77 585.49 483.04 Z" fill="url(#SVGID_29_)" fill-rule="nonzero" group-id="32,46" node-id="487" stroke="none" target-height="46.23996" target-width="38.880005" target-x="585.31" target-y="462.67004"></path><path d="M 609.27 464.93 C 609.27 464.93 611.60 453.81 613.15 450.16 C 614.71 446.51 616.32 441.83 616.82 439.92 C 617.32 438.01 618.68 435.65 620.54 434.33 C 622.39 433.01 625.63 431.95 626.19 432.40 C 626.75 432.85 623.99 434.96 623.54 435.81 C 623.09 436.66 623.18 436.82 624.22 436.62 C 625.26 436.42 626.00 435.97 626.27 436.63 C 626.54 437.29 625.79 437.62 624.53 438.11 C 623.27 438.60 621.90 439.18 621.09 439.38 C 620.28 439.58 619.98 440.07 619.98 441.70 C 619.98 443.34 617.67 453.27 617.29 455.63 C 616.91 457.99 616.36 466.25 614.18 469.93 C 610.72 466.74 609.27 464.93 609.27 464.93 Z" fill="#ffbe92" fill-rule="nonzero" group-id="32,46" node-id="489" stroke="none" target-height="37.97995" target-width="17.47998" target-x="609.27" target-y="431.95004"></path><path d="M 586.21 483.41 C 586.21 483.41 574.78 486.06 571.06 487.70 C 567.34 489.34 562.55 491.07 560.59 491.63 C 558.63 492.19 556.24 493.60 554.93 495.45 C 553.63 497.30 552.65 500.50 553.13 501.02 C 553.61 501.54 555.71 498.78 556.57 498.32 C 557.43 497.86 557.60 497.94 557.43 498.96 C 557.26 499.98 556.82 500.72 557.52 500.96 C 558.21 501.21 558.53 500.46 558.99 499.21 C 559.45 497.96 560.01 496.61 560.19 495.81 C 560.37 495.01 560.86 494.71 562.55 494.65 C 564.24 494.59 574.44 492.00 576.87 491.55 C 579.30 491.10 587.82 490.28 591.56 488.03 C 588.14 484.77 586.21 483.41 586.21 483.41 Z" fill="#ffbe92" fill-rule="nonzero" group-id="32,46" node-id="491" stroke="none" target-height="18.130005" target-width="38.909973" target-x="552.65" target-y="483.41"></path></g></g></svg>