<?xml version="1.0" standalone="no"?><!DOCTYPE svg PUBLIC "-//W3C//DTD SVG 1.1//EN" "http://www.w3.org/Graphics/SVG/1.1/DTD/svg11.dtd"><svg height="800" node-id="1" sillyvg="true" template-height="800" template-width="800" version="1.1" viewBox="0 0 800 800" width="800" xmlns="http://www.w3.org/2000/svg" xmlns:xlink="http://www.w3.org/1999/xlink"><defs node-id="210"><linearGradient gradientUnits="objectBoundingBox" id="SVGID_1_" node-id="17" spreadMethod="pad" x1="255.7471" x2="255.7471" y1="423.9034" y2="327.1151"><stop offset="0.0000005358273" stop-color="#ffffff"></stop><stop offset="1" stop-color="#dbe3ee"></stop></linearGradient><linearGradient gradientUnits="objectBoundingBox" id="SVGID_2_" node-id="21" spreadMethod="pad" x1="191.1301" x2="191.1301" y1="481.8953" y2="265.4063"><stop offset="0.0000005358273" stop-color="#ffffff"></stop><stop offset="1" stop-color="#dbe3ee"></stop></linearGradient><linearGradient gradientUnits="objectBoundingBox" id="SVGID_3_" node-id="25" spreadMethod="pad" x1="566.9117" x2="566.9117" y1="439.2164" y2="282.7356"><stop offset="0.0000005358273" stop-color="#ffffff"></stop><stop offset="1" stop-color="#dbe3ee"></stop></linearGradient><linearGradient gradientUnits="objectBoundingBox" id="SVGID_4_" node-id="29" spreadMethod="pad" x1="629.4365" x2="629.4365" y1="461.8864" y2="292.1458"><stop offset="0.0000005358273" stop-color="#ffffff"></stop><stop offset="1" stop-color="#dbe3ee"></stop></linearGradient><linearGradient gradientUnits="objectBoundingBox" id="SVGID_5_" node-id="33" spreadMethod="pad" x1="120.724" x2="120.724" y1="503.9649" y2="353.4515"><stop offset="0.0000005358273" stop-color="#ffffff"></stop><stop offset="1" stop-color="#edf1f9"></stop></linearGradient><linearGradient gradientUnits="objectBoundingBox" id="SVGID_6_" node-id="37" spreadMethod="pad" x1="683.3972" x2="683.3972" y1="487.3595" y2="364.2273"><stop offset="0.0000005358273" stop-color="#ffffff"></stop><stop offset="1" stop-color="#edf1f9"></stop></linearGradient><linearGradient gradientUnits="objectBoundingBox" id="SVGID_7_" node-id="41" spreadMethod="pad" x1="126.6876" x2="126.6876" y1="231.6576" y2="167.1163"><stop offset="0.2332" stop-color="#ffffff"></stop><stop offset="1" stop-color="#d3dfee"></stop></linearGradient><linearGradient gradientUnits="objectBoundingBox" id="SVGID_8_" node-id="45" spreadMethod="pad" x1="643.7561" x2="643.7561" y1="194.8372" y2="130.2959"><stop offset="0.2332" stop-color="#ffffff"></stop><stop offset="1" stop-color="#d3dfee"></stop></linearGradient><linearGradient gradientUnits="objectBoundingBox" id="SVGID_9_" node-id="49" spreadMethod="pad" x1="411.3469" x2="411.3469" y1="222.7456" y2="176.0284"><stop offset="0.2332" stop-color="#ffffff"></stop><stop offset="1" stop-color="#d3dfee"></stop></linearGradient><linearGradient gradientUnits="objectBoundingBox" id="SVGID_10_" node-id="53" spreadMethod="pad" x1="400.2025" x2="400.2025" y1="753.5355" y2="401.4066"><stop offset="0.4065" stop-color="#ffffff"></stop><stop offset="1" stop-color="#dae4ef"></stop></linearGradient><linearGradient gradientUnits="objectBoundingBox" id="SVGID_11_" node-id="59" spreadMethod="pad" x1="191.132" x2="139.6958" y1="576.9913" y2="515.692"><stop offset="0.4034" stop-color="#eff4f8"></stop><stop offset="1" stop-color="#d4dfec"></stop></linearGradient><linearGradient gradientUnits="objectBoundingBox" id="SVGID_12_" node-id="63" spreadMethod="pad" x1="112.0842" x2="176.271" y1="456.7009" y2="456.7009"><stop offset="0.1022" stop-color="#f0f5f8"></stop><stop offset="1" stop-color="#b4c7dc"></stop></linearGradient><linearGradient gradientUnits="objectBoundingBox" id="SVGID_13_" node-id="69" spreadMethod="pad" x1="709.9941" x2="662.6287" y1="557.0187" y2="500.5708"><stop offset="0.4034" stop-color="#eff4f8"></stop><stop offset="1" stop-color="#d4dfec"></stop></linearGradient><linearGradient gradientUnits="objectBoundingBox" id="SVGID_14_" node-id="73" spreadMethod="pad" x1="637.2023" x2="696.3093" y1="446.2484" y2="446.2484"><stop offset="0.1022" stop-color="#f0f5f8"></stop><stop offset="1" stop-color="#b4c7dc"></stop></linearGradient><linearGradient gradientUnits="objectBoundingBox" id="SVGID_15_" node-id="79" spreadMethod="pad" x1="251.3315" x2="225.8902" y1="457.848" y2="427.5282"><stop offset="0.0000001438503" stop-color="#eaeff6"></stop><stop offset="1" stop-color="#cddae9"></stop></linearGradient><linearGradient gradientUnits="objectBoundingBox" id="SVGID_16_" node-id="83" spreadMethod="pad" x1="212.233" x2="243.981" y1="398.3502" y2="398.3502"><stop offset="0.1022" stop-color="#f0f5f8"></stop><stop offset="1" stop-color="#b4c7dc"></stop></linearGradient><linearGradient gradientUnits="objectBoundingBox" id="SVGID_17_" node-id="89" spreadMethod="pad" x1="521.0083" x2="451.7175" y1="707.6402" y2="465.9944"><stop offset="0.0938" stop-color="#ffffff"></stop><stop offset="0.9362" stop-color="#bbcbe0"></stop></linearGradient><linearGradient gradientUnits="objectBoundingBox" id="SVGID_18_" node-id="93" spreadMethod="pad" x1="273.1758" x2="438.6055" y1="509.2187" y2="509.2187"><stop offset="0" stop-color="#eff3f9"></stop><stop offset="1" stop-color="#b6c9de"></stop></linearGradient><linearGradient gradientUnits="objectBoundingBox" id="SVGID_19_" node-id="97" spreadMethod="pad" x1="320.8766" x2="452.1593" y1="244.2347" y2="471.6229"><stop offset="0" stop-color="#eff3f9"></stop><stop offset="1" stop-color="#b6c9de"></stop></linearGradient><linearGradient gradientUnits="objectBoundingBox" id="SVGID_20_" node-id="101" spreadMethod="pad" x1="327.7525" x2="530.1508" y1="332.1114" y2="332.1114"><stop offset="0" stop-color="#eff3f9"></stop><stop offset="1" stop-color="#b6c9de"></stop></linearGradient><linearGradient gradientUnits="objectBoundingBox" id="SVGID_21_" node-id="105" spreadMethod="pad" x1="491.988" x2="388.6532" y1="326.9745" y2="326.9745"><stop offset="0" stop-color="#eff3f9"></stop><stop offset="1" stop-color="#a1bbd3"></stop></linearGradient><linearGradient gradientUnits="objectBoundingBox" id="SVGID_22_" node-id="109" spreadMethod="pad" x1="476.479" x2="507.4971" y1="270.9212" y2="270.9212"><stop offset="0" stop-color="#eff3f9"></stop><stop offset="1" stop-color="#b6c9de"></stop></linearGradient><linearGradient gradientUnits="objectBoundingBox" id="SVGID_23_" node-id="114" spreadMethod="pad" x1="474.928" x2="545.0728" y1="255.3485" y2="255.3485"><stop offset="0" stop-color="#eff3f9"></stop><stop offset="1" stop-color="#9bb8d1"></stop></linearGradient><linearGradient gradientUnits="objectBoundingBox" id="SVGID_24_" node-id="119" spreadMethod="pad" x1="475.5411" x2="544.6396" y1="252.2649" y2="252.2649"><stop offset="0" stop-color="#eff3f9"></stop><stop offset="1" stop-color="#b6c9de"></stop></linearGradient><linearGradient gradientUnits="objectBoundingBox" id="SVGID_25_" node-id="124" spreadMethod="pad" x1="475.5845" x2="571.824" y1="239.9985" y2="239.9985"><stop offset="0" stop-color="#eff3f9"></stop><stop offset="1" stop-color="#9bb8d1"></stop></linearGradient><linearGradient gradientUnits="objectBoundingBox" id="SVGID_26_" node-id="129" spreadMethod="pad" x1="475.525" x2="572.3337" y1="237.503" y2="237.503"><stop offset="0" stop-color="#eff3f9"></stop><stop offset="1" stop-color="#b6c9de"></stop></linearGradient><linearGradient gradientUnits="objectBoundingBox" id="SVGID_27_" node-id="133" spreadMethod="pad" x1="390.3244" x2="390.3244" y1="502.295" y2="458.1057"><stop offset="0" stop-color="#e5ebf4"></stop><stop offset="1" stop-color="#9bb8d1"></stop></linearGradient><linearGradient gradientUnits="objectBoundingBox" id="SVGID_28_" node-id="137" spreadMethod="pad" x1="361.9835" x2="361.9835" y1="517.6196" y2="406.4716"><stop offset="0" stop-color="#eff3f9"></stop><stop offset="1" stop-color="#b6c9de"></stop></linearGradient><linearGradient gradientUnits="objectBoundingBox" id="SVGID_29_" node-id="141" spreadMethod="pad" x1="295.3315" x2="363.7124" y1="462.0454" y2="462.0454"><stop offset="0" stop-color="#eff3f9"></stop><stop offset="1" stop-color="#b6c9de"></stop></linearGradient><linearGradient gradientUnits="objectBoundingBox" id="SVGID_30_" node-id="145" spreadMethod="pad" x1="326.0265" x2="343.3819" y1="447.2749" y2="447.2749"><stop offset="0" stop-color="#e5ebf4"></stop><stop offset="1" stop-color="#9bb8d1"></stop></linearGradient><linearGradient gradientUnits="objectBoundingBox" id="SVGID_31_" node-id="149" spreadMethod="pad" x1="332.0732" x2="332.0732" y1="457.4296" y2="437.1202"><stop offset="0" stop-color="#e5ebf4"></stop><stop offset="1" stop-color="#9bb8d1"></stop></linearGradient><linearGradient gradientUnits="objectBoundingBox" id="SVGID_32_" node-id="153" spreadMethod="pad" x1="273.1758" x2="365.3068" y1="521.6591" y2="521.6591"><stop offset="0" stop-color="#eff3f9"></stop><stop offset="1" stop-color="#b6c9de"></stop></linearGradient><linearGradient gradientUnits="objectBoundingBox" id="SVGID_33_" node-id="157" spreadMethod="pad" x1="365.3068" x2="438.6055" y1="522.8592" y2="522.8592"><stop offset="0" stop-color="#eff3f9"></stop><stop offset="1" stop-color="#b6c9de"></stop></linearGradient><linearGradient gradientUnits="objectBoundingBox" id="SVGID_34_" node-id="169" spreadMethod="pad" x1="584.1464" x2="561.4282" y1="611.1307" y2="548.7132"><stop offset="0" stop-color="#78c8ff"></stop><stop offset="0.6903" stop-color="#2a80e2"></stop></linearGradient><linearGradient gradientUnits="objectBoundingBox" id="SVGID_35_" node-id="175" spreadMethod="pad" x1="571.062" x2="571.062" y1="555.8657" y2="506.6671"><stop offset="0" stop-color="#f2a319"></stop><stop offset="0.4796" stop-color="#ffc552"></stop></linearGradient></defs><g node-id="570"><g node-id="601"><path d="M 270.20 330.52 L 270.20 327.11 L 240.70 327.11 L 240.70 331.07 L 234.22 331.07 L 234.22 423.90 L 277.27 423.90 L 277.27 330.52 L 270.20 330.52 Z M 273.54 413.26 L 237.50 413.26 L 237.50 410.51 L 273.54 410.51 L 273.54 413.26 Z M 273.54 400.58 L 237.50 400.58 L 237.50 397.83 L 273.54 397.83 L 273.54 400.58 Z M 273.54 387.91 L 237.50 387.91 L 237.50 385.16 L 273.54 385.16 L 273.54 387.91 Z M 273.54 375.56 L 237.50 375.56 L 237.50 372.81 L 273.54 372.81 L 273.54 375.56 Z M 273.54 363.25 L 237.50 363.25 L 237.50 360.50 L 273.54 360.50 L 273.54 363.25 Z M 273.54 350.57 L 237.50 350.57 L 237.50 347.82 L 273.54 347.82 L 273.54 350.57 Z M 273.54 338.23 L 237.50 338.23 L 237.50 335.48 L 273.54 335.48 L 273.54 338.23 Z" fill="url(#SVGID_1_)" fill-rule="nonzero" group-id="12,43" node-id="436" stroke="none" target-height="96.79001" target-width="43.050003" target-x="234.21999" target-y="327.11"></path><path d="M 212.22 382.33 L 212.22 274.15 L 179.47 274.15 L 179.47 265.41 L 165.61 265.41 L 165.61 318.74 L 161.88 318.74 L 161.88 481.90 L 220.39 481.90 L 220.39 382.34 L 212.22 382.34 Z M 187.72 414.14 L 179.46 414.14 L 179.46 406.13 L 187.72 406.13 L 187.72 414.14 Z M 187.72 401.61 L 179.46 401.61 L 179.46 393.60 L 187.72 393.60 L 187.72 401.61 Z M 187.72 389.14 L 179.46 389.14 L 179.46 381.13 L 187.72 381.13 L 187.72 389.14 Z M 187.72 376.70 L 179.46 376.70 L 179.46 368.69 L 187.72 368.69 L 187.72 376.70 Z M 187.72 364.17 L 179.46 364.17 L 179.46 356.16 L 187.72 356.16 L 187.72 364.17 Z M 187.72 339.17 L 179.46 339.17 L 179.46 331.16 L 187.72 331.16 L 187.72 339.17 Z M 187.72 326.64 L 179.46 326.64 L 179.46 318.63 L 187.72 318.63 L 187.72 326.64 Z M 187.72 314.16 L 179.46 314.16 L 179.46 306.15 L 187.72 306.15 L 187.72 314.16 Z M 187.72 301.73 L 179.46 301.73 L 179.46 293.72 L 187.72 293.72 L 187.72 301.73 Z M 187.72 289.20 L 179.46 289.20 L 179.46 281.19 L 187.72 281.19 L 187.72 289.20 Z M 200.07 414.14 L 191.81 414.14 L 191.81 406.13 L 200.07 406.13 L 200.07 414.14 Z M 200.07 401.61 L 191.81 401.61 L 191.81 393.60 L 200.07 393.60 L 200.07 401.61 Z M 200.07 389.14 L 191.81 389.14 L 191.81 381.13 L 200.07 381.13 L 200.07 389.14 Z M 200.07 376.70 L 191.81 376.70 L 191.81 368.69 L 200.07 368.69 L 200.07 376.70 Z M 200.07 364.17 L 191.81 364.17 L 191.81 356.16 L 200.07 356.16 L 200.07 364.17 Z M 200.07 339.17 L 191.81 339.17 L 191.81 331.16 L 200.07 331.16 L 200.07 339.17 Z M 200.07 326.64 L 191.81 326.64 L 191.81 318.63 L 200.07 318.63 L 200.07 326.64 Z M 200.07 314.16 L 191.81 314.16 L 191.81 306.15 L 200.07 306.15 L 200.07 314.16 Z M 200.07 301.73 L 191.81 301.73 L 191.81 293.72 L 200.07 293.72 L 200.07 301.73 Z M 200.07 289.20 L 191.81 289.20 L 191.81 281.19 L 200.07 281.19 L 200.07 289.20 Z" fill="url(#SVGID_2_)" fill-rule="nonzero" group-id="12,43" node-id="438" stroke="none" target-height="216.49002" target-width="58.50998" target-x="161.88" target-y="265.41"></path><path d="M 534.53 439.22 C 534.89 434.57 534.53 282.74 534.53 282.74 L 553.06 282.74 L 553.06 316.45 L 582.56 316.45 L 582.56 386.90 L 599.29 386.90 L 599.29 439.22 L 534.53 439.22 Z" fill="url(#SVGID_3_)" fill-rule="nonzero" group-id="12,43" node-id="440" stroke="none" target-height="156.48004" target-width="64.75995" target-x="534.53" target-y="282.74"></path><path d="M 655.74 371.07 L 655.74 366.22 L 650.74 366.22 L 650.74 323.89 L 638.54 323.89 L 638.54 319.19 L 630.31 319.19 L 630.31 312.28 L 626.02 312.28 L 626.02 292.14 L 622.93 292.14 L 622.93 312.42 L 619.00 312.42 L 619.00 319.33 L 606.80 319.33 L 606.80 330.65 L 599.75 330.65 L 599.75 461.88 L 659.13 461.88 L 659.13 371.06 L 655.74 371.06 Z M 610.23 423.85 L 606.21 423.85 L 606.21 408.61 L 610.23 408.61 L 610.23 423.85 Z M 610.23 405.20 L 606.21 405.20 L 606.21 389.96 L 610.23 389.96 L 610.23 405.20 Z M 610.23 386.55 L 606.21 386.55 L 606.21 371.31 L 610.23 371.31 L 610.23 386.55 Z M 610.23 367.57 L 606.21 367.57 L 606.21 352.33 L 610.23 352.33 L 610.23 367.57 Z M 610.23 348.58 L 606.21 348.58 L 606.21 333.34 L 610.23 333.34 L 610.23 348.58 Z M 618.51 423.85 L 614.49 423.85 L 614.49 408.61 L 618.51 408.61 L 618.51 423.85 Z M 618.51 405.20 L 614.49 405.20 L 614.49 389.96 L 618.51 389.96 L 618.51 405.20 Z M 618.51 386.55 L 614.49 386.55 L 614.49 371.31 L 618.51 371.31 L 618.51 386.55 Z M 618.51 367.57 L 614.49 367.57 L 614.49 352.33 L 618.51 352.33 L 618.51 367.57 Z M 618.51 348.58 L 614.49 348.58 L 614.49 333.34 L 618.51 333.34 L 618.51 348.58 Z M 626.79 423.85 L 622.77 423.85 L 622.77 408.61 L 626.79 408.61 L 626.79 423.85 Z M 626.79 405.20 L 622.77 405.20 L 622.77 389.96 L 626.79 389.96 L 626.79 405.20 Z M 626.79 386.55 L 622.77 386.55 L 622.77 371.31 L 626.79 371.31 L 626.79 386.55 Z M 626.79 367.57 L 622.77 367.57 L 622.77 352.33 L 626.79 352.33 L 626.79 367.57 Z M 626.79 348.58 L 622.77 348.58 L 622.77 333.34 L 626.79 333.34 L 626.79 348.58 Z M 635.07 423.85 L 631.05 423.85 L 631.05 408.61 L 635.07 408.61 L 635.07 423.85 Z M 635.07 405.20 L 631.05 405.20 L 631.05 389.96 L 635.07 389.96 L 635.07 405.20 Z M 635.07 386.55 L 631.05 386.55 L 631.05 371.31 L 635.07 371.31 L 635.07 386.55 Z M 635.07 367.57 L 631.05 367.57 L 631.05 352.33 L 635.07 352.33 L 635.07 367.57 Z M 635.07 348.58 L 631.05 348.58 L 631.05 333.34 L 635.07 333.34 L 635.07 348.58 Z M 643.35 423.85 L 639.33 423.85 L 639.33 408.61 L 643.35 408.61 L 643.35 423.85 Z M 643.35 405.20 L 639.33 405.20 L 639.33 389.96 L 643.35 389.96 L 643.35 405.20 Z M 643.35 386.55 L 639.33 386.55 L 639.33 371.31 L 643.35 371.31 L 643.35 386.55 Z M 643.35 367.57 L 639.33 367.57 L 639.33 352.33 L 643.35 352.33 L 643.35 367.57 Z M 643.35 348.58 L 639.33 348.58 L 639.33 333.34 L 643.35 333.34 L 643.35 348.58 Z" fill="url(#SVGID_4_)" fill-rule="nonzero" group-id="12,43" node-id="442" stroke="none" target-height="169.73999" target-width="59.380005" target-x="599.75" target-y="292.14"></path><path d="M 94.10 503.96 L 94.10 414.42 L 104.35 414.42 L 104.35 368.72 L 139.61 353.45 L 139.61 413.70 L 147.35 413.70 L 147.35 503.96 Z" fill="url(#SVGID_5_)" fill-rule="nonzero" group-id="12,43" node-id="444" stroke="none" target-height="150.50998" target-width="53.250008" target-x="94.1" target-y="353.45"></path><path d="M 698.87 487.36 L 667.93 487.36 L 667.93 364.23 L 698.87 379.20 Z" fill="url(#SVGID_6_)" fill-rule="nonzero" group-id="12,43" node-id="446" stroke="none" target-height="123.129974" target-width="30.940002" target-x="667.93" target-y="364.23"></path><path d="M 88.92 190.55 C 88.92 190.55 98.26 165.07 121.22 175.07 C 126.52 169.69 133.08 165.78 141.95 167.54 C 150.82 169.31 156.54 175.95 158.48 180.37 C 161.26 180.24 183.52 180.98 183.52 204.07 C 183.52 227.16 156.58 226.72 154.63 224.89 C 152.23 227.03 140.69 238.64 126.69 225.39 C 123.66 227.98 113.76 238.95 98.11 223.81 C 90.86 226.84 73.63 229.17 70.29 211.38 C 66.95 193.59 84.08 188.57 88.92 190.55 Z" fill="url(#SVGID_7_)" fill-rule="nonzero" group-id="12,43" node-id="448" stroke="none" target-height="73.87999" target-width="116.57001" target-x="66.95" target-y="165.07"></path><path d="M 605.99 153.73 C 605.99 153.73 615.33 128.25 638.29 138.25 C 643.59 132.87 650.15 128.96 659.02 130.72 C 667.89 132.49 673.61 139.13 675.55 143.55 C 678.33 143.42 700.59 144.16 700.59 167.25 C 700.59 190.34 673.65 189.90 671.70 188.07 C 669.30 190.21 657.76 201.82 643.76 188.57 C 640.73 191.16 630.83 202.13 615.18 186.99 C 607.93 190.02 590.70 192.35 587.36 174.56 C 584.01 156.78 601.15 151.75 605.99 153.73 Z" fill="url(#SVGID_8_)" fill-rule="nonzero" group-id="12,43" node-id="450" stroke="none" target-height="73.880005" target-width="116.58002" target-x="584.01" target-y="128.25"></path><path d="M 384.01 192.99 C 384.01 192.99 390.77 174.54 407.39 181.79 C 411.23 177.89 415.97 175.06 422.40 176.34 C 428.83 177.62 432.96 182.43 434.36 185.62 C 436.37 185.53 452.49 186.06 452.49 202.77 C 452.49 219.48 432.99 219.16 431.58 217.84 C 429.84 219.39 421.49 227.79 411.35 218.21 C 409.16 220.08 401.99 228.03 390.67 217.07 C 385.42 219.26 372.95 220.95 370.53 208.07 C 368.10 195.20 380.51 191.56 384.01 192.99 Z" fill="url(#SVGID_9_)" fill-rule="nonzero" group-id="12,43" node-id="452" stroke="none" target-height="53.48999" target-width="84.38995" target-x="368.10004" target-y="174.54001"></path><path d="M 771.18 577.47 C 771.18 624.16 732.09 668.95 662.52 701.96 C 592.95 734.98 498.59 753.53 400.20 753.53 C 301.81 753.53 207.45 734.98 137.88 701.96 C 68.31 668.95 29.22 624.16 29.22 577.47 C 29.22 530.78 68.31 485.99 137.88 452.98 C 207.45 419.96 301.81 401.41 400.20 401.41 C 498.59 401.41 592.95 419.96 662.52 452.98 C 732.09 485.99 771.18 530.78 771.18 577.47 Z" fill="url(#SVGID_10_)" fill-rule="nonzero" group-id="12,43" node-id="454" stroke="none" target-height="352.12" target-width="741.9601" target-x="29.220001" target-y="401.40997"></path></g><g node-id="602"><g node-id="605"><path d="M 146.15 555.94 C 146.15 555.94 142.62 560.95 148.52 568.41 C 153.78 575.05 162.09 573.76 164.85 571.63 C 165.70 577.41 172.79 589.59 184.01 582.70 C 194.56 576.23 189.48 566.39 186.11 562.52 C 192.70 560.66 197.61 544.87 182.49 539.42 C 184.73 532.90 185.13 529.95 181.85 524.09 C 178.69 518.45 173.50 517.55 165.22 520.98 L 153.24 526.03 L 145.61 511.79 L 141.53 514.15 L 150.33 527.75 L 138.67 533.60 C 138.67 533.60 128.70 537.50 133.00 548.20 C 136.99 558.12 146.15 555.94 146.15 555.94 Z" fill="url(#SVGID_11_)" fill-rule="nonzero" group-id="12,44,47" node-id="460" stroke="none" target-height="77.80002" target-width="68.91" target-x="128.7" target-y="511.79"></path><path d="M 125.85 495.22 L 161.91 495.22 C 161.91 495.22 173.56 495.55 175.88 482.24 C 178.43 467.63 167.80 465.62 167.80 465.62 C 167.80 465.62 174.20 462.68 172.81 451.63 C 171.42 440.58 161.69 439.19 157.64 439.70 C 158.30 433.15 159.68 418.32 144.28 418.17 C 129.40 418.03 129.50 433.00 130.60 438.90 C 125.30 438.96 109.29 446.91 120.55 464.35 C 114.42 469.60 111.83 472.63 112.10 480.20 C 112.38 487.77 117.02 495.22 125.85 495.22 Z" fill="url(#SVGID_12_)" fill-rule="nonzero" group-id="12,44,47" node-id="462" stroke="none" target-height="77.51993" target-width="69.13999" target-x="109.29" target-y="418.03003"></path><path d="M 161.02 474.99 L 145.65 485.11 L 145.23 475.32 L 154.95 463.86 L 145.08 471.84 L 143.80 441.94 L 142.85 472.04 L 132.48 463.78 L 142.76 475.10 L 142.44 485.17 L 126.63 473.55 L 142.33 488.81 L 141.53 514.16 L 146.89 514.16 L 145.81 488.96 Z" fill="#c6d5e6" fill-rule="nonzero" group-id="12,44,47" node-id="464" stroke="none" target-height="72.21997" target-width="34.390007" target-x="126.63" target-y="441.94"></path></g><g node-id="606"><path d="M 668.57 537.63 C 668.57 537.63 665.32 542.25 670.75 549.11 C 675.59 555.23 683.25 554.04 685.79 552.07 C 686.57 557.39 693.11 568.60 703.44 562.27 C 713.15 556.31 708.48 547.25 705.37 543.69 C 711.44 541.98 715.96 527.43 702.04 522.42 C 704.11 516.42 704.48 513.70 701.45 508.31 C 698.54 503.12 693.76 502.28 686.14 505.45 L 675.10 510.10 L 668.07 496.99 L 664.32 499.16 L 672.42 511.68 L 661.69 517.07 C 661.69 517.07 652.51 520.66 656.47 530.52 C 660.14 539.64 668.57 537.63 668.57 537.63 Z" fill="url(#SVGID_13_)" fill-rule="nonzero" group-id="12,44,48" node-id="469" stroke="none" target-height="71.609985" target-width="63.450012" target-x="652.51" target-y="496.99"></path><path d="M 649.88 481.72 L 683.08 481.72 C 683.08 481.72 693.81 482.03 695.94 469.77 C 698.28 456.32 688.50 454.47 688.50 454.47 C 688.50 454.47 694.40 451.76 693.11 441.59 C 691.82 431.42 682.87 430.13 679.14 430.61 C 679.75 424.58 681.02 410.92 666.84 410.78 C 653.15 410.64 653.23 424.42 654.25 429.86 C 649.37 429.91 634.62 437.23 645.00 453.30 C 639.36 458.13 636.97 460.93 637.22 467.89 C 637.47 474.86 641.75 481.72 649.88 481.72 Z" fill="url(#SVGID_14_)" fill-rule="nonzero" group-id="12,44,48" node-id="471" stroke="none" target-height="71.390015" target-width="63.660034" target-x="634.62" target-y="410.64"></path><path d="M 682.27 463.09 L 668.11 472.41 L 667.72 463.40 L 676.68 452.84 L 667.58 460.19 L 666.41 432.66 L 665.54 460.37 L 655.98 452.77 L 665.45 463.20 L 665.16 472.47 L 650.59 461.76 L 665.05 475.81 L 664.32 499.16 L 669.25 499.16 L 668.26 475.95 Z" fill="#c6d5e6" fill-rule="nonzero" group-id="12,44,48" node-id="473" stroke="none" target-height="66.50003" target-width="31.679993" target-x="650.59" target-y="432.66"></path></g><g node-id="607"><path d="M 229.08 447.43 C 229.08 447.43 227.33 449.91 230.25 453.60 C 232.85 456.89 236.96 456.25 238.33 455.19 C 238.75 458.05 242.26 464.07 247.81 460.67 C 253.03 457.47 250.52 452.60 248.85 450.69 C 252.11 449.77 254.54 441.96 247.06 439.27 C 248.17 436.05 248.37 434.59 246.74 431.69 C 245.18 428.90 242.61 428.45 238.52 430.15 L 232.59 432.65 L 228.82 425.61 L 226.80 426.78 L 231.15 433.50 L 225.38 436.39 C 225.38 436.39 220.45 438.32 222.58 443.61 C 224.55 448.51 229.08 447.43 229.08 447.43 Z" fill="url(#SVGID_15_)" fill-rule="nonzero" group-id="12,44,49" node-id="478" stroke="none" target-height="38.460022" target-width="34.09001" target-x="220.45" target-y="425.61"></path><path d="M 219.04 417.40 L 236.87 417.40 C 236.87 417.40 242.63 417.56 243.78 410.98 C 245.04 403.75 239.78 402.76 239.78 402.76 C 239.78 402.76 242.95 401.30 242.26 395.84 C 241.57 390.38 236.76 389.69 234.76 389.94 C 235.09 386.70 235.77 379.36 228.15 379.29 C 220.79 379.22 220.84 386.62 221.39 389.54 C 218.77 389.57 210.85 393.50 216.42 402.13 C 213.39 404.72 212.10 406.23 212.24 409.97 C 212.38 413.72 214.67 417.40 219.04 417.40 Z" fill="url(#SVGID_16_)" fill-rule="nonzero" group-id="12,44,49" node-id="480" stroke="none" target-height="38.339996" target-width="34.189987" target-x="210.84999" target-y="379.22"></path><path d="M 236.44 407.39 L 228.83 412.40 L 228.63 407.56 L 233.44 401.89 L 228.55 405.84 L 227.92 391.05 L 227.45 405.94 L 222.32 401.85 L 227.40 407.45 L 227.25 412.43 L 219.43 406.68 L 227.19 414.23 L 226.80 426.77 L 229.45 426.77 L 228.91 414.31 Z" fill="#c6d5e6" fill-rule="nonzero" group-id="12,44,49" node-id="482" stroke="none" target-height="35.72" target-width="17.01001" target-x="219.43" target-y="391.05"></path></g></g><g node-id="603"><path d="M 438.61 519.67 L 698.87 654.06 L 411.35 739.09 L 273.18 517.19 Z" fill="url(#SVGID_17_)" fill-rule="nonzero" group-id="12,45" node-id="488" stroke="none" target-height="221.90002" target-width="425.69" target-x="273.18" target-y="517.19"></path><path d="M 302.16 495.09 L 273.18 499.89 L 365.31 523.34 L 438.61 502.29 L 417.00 499.16 Z" fill="url(#SVGID_18_)" fill-rule="nonzero" group-id="12,45" node-id="490" stroke="none" target-height="28.25003" target-width="165.43002" target-x="273.18" target-y="495.09"></path><path d="M 333.68 236.84 C 333.68 236.84 252.15 314.42 327.30 413.82 C 397.09 506.14 516.84 438.73 521.21 429.78 C 464.29 375.42 333.68 236.84 333.68 236.84 Z" fill="url(#SVGID_19_)" fill-rule="nonzero" group-id="12,45" node-id="492" stroke="none" target-height="269.30002" target-width="269.06006" target-x="252.14998" target-y="236.84"></path><path d="M 463.00 298.06 C 515.62 350.68 543.03 408.57 524.22 427.38 C 505.42 446.18 447.52 418.78 394.90 366.16 C 342.28 313.54 314.87 255.65 333.68 236.84 C 352.49 218.03 410.38 245.45 463.00 298.06 Z" fill="url(#SVGID_20_)" fill-rule="nonzero" group-id="12,45" node-id="494" stroke="none" target-height="228.15" target-width="228.16003" target-x="314.87" target-y="218.03"></path><path d="M 394.90 366.16 C 399.62 370.88 404.39 375.40 409.17 379.70 L 491.99 279.41 L 487.19 274.24 L 388.66 359.75 C 390.70 361.90 392.78 364.03 394.90 366.16 Z" fill="url(#SVGID_21_)" fill-rule="nonzero" group-id="12,45" node-id="496" stroke="none" target-height="105.46002" target-width="103.329956" target-x="388.66003" target-y="274.24"></path><path d="M 507.50 270.92 C 507.50 275.03 505.87 278.98 502.96 281.89 C 500.05 284.80 496.10 286.43 491.99 286.43 C 487.88 286.43 483.93 284.80 481.02 281.89 C 478.11 278.98 476.48 275.03 476.48 270.92 C 476.48 262.35 483.42 255.41 491.99 255.41 C 500.56 255.41 507.50 262.35 507.50 270.92 Z" fill="url(#SVGID_22_)" fill-rule="nonzero" group-id="12,45" node-id="498" stroke="none" target-height="31.020004" target-width="31.02002" target-x="476.47998" target-y="255.41002"></path><g node-id="608"><path d="M 535.59 288.79 C 532.03 288.72 528.98 286.03 528.56 282.40 C 523.13 235.87 486.47 236.41 484.80 236.46 C 480.82 236.56 474.74 234.61 475.55 226.98 C 475.97 223.02 477.89 222.07 481.87 221.94 C 482.43 221.92 495.71 221.55 509.81 228.64 C 522.91 235.23 537.19 249.39 544.64 278.12 C 544.64 287.31 539.27 288.79 535.59 288.79 Z" fill="url(#SVGID_23_)" fill-rule="nonzero" group-id="12,45,50" node-id="502" stroke="none" target-height="67.240005" target-width="69.900024" target-x="474.74" target-y="221.55"></path></g><g node-id="609"><path d="M 537.40 285.17 C 533.84 285.17 530.74 282.54 530.24 278.92 C 523.88 232.50 484.78 233.76 483.12 233.83 C 479.14 234.01 475.75 230.95 475.55 226.97 C 475.35 222.99 478.39 219.60 482.36 219.39 C 482.92 219.36 496.19 218.72 510.43 225.53 C 523.66 231.86 540.32 245.91 544.57 276.95 C 545.11 280.91 542.34 284.55 538.39 285.10 C 538.06 285.15 537.73 285.17 537.40 285.17 Z" fill="url(#SVGID_24_)" fill-rule="nonzero" group-id="12,45,51" node-id="507" stroke="none" target-height="66.45" target-width="69.75998" target-x="475.35" target-y="218.72002"></path></g><g node-id="610"><path d="M 562.73 288.36 C 557.59 288.01 555.36 283.47 555.15 279.59 C 553.52 248.72 540.39 227.03 516.11 215.11 C 497.67 206.06 483.05 205.94 482.85 205.93 C 482.84 205.93 474.06 206.35 475.53 196.59 C 477.12 194.00 478.68 191.52 482.68 191.47 C 483.56 191.46 500.99 191.57 522.48 202.13 C 542.65 212.03 572.19 233.81 572.19 279.32 C 572.20 287.62 565.35 288.57 562.73 288.36 Z" fill="url(#SVGID_25_)" fill-rule="nonzero" group-id="12,45,52" node-id="512" stroke="none" target-height="97.11" target-width="98.140045" target-x="474.05997" target-y="191.46"></path></g><g node-id="611"><path d="M 565.10 285.17 C 561.26 285.17 558.06 282.14 557.88 278.27 C 556.48 247.39 543.50 225.61 519.31 213.51 C 500.93 204.32 482.99 204.31 482.79 204.30 C 482.78 204.30 482.77 204.30 482.76 204.30 C 478.78 204.30 475.55 201.08 475.53 197.10 C 475.51 193.11 478.73 189.85 482.73 189.83 C 483.61 189.83 504.37 189.85 525.79 200.56 C 545.88 210.61 570.27 232.13 572.34 277.60 C 572.52 281.59 569.43 284.97 565.44 285.15 C 565.32 285.17 565.21 285.17 565.10 285.17 Z" fill="url(#SVGID_26_)" fill-rule="nonzero" group-id="12,45,53" node-id="517" stroke="none" target-height="95.34001" target-width="97.01001" target-x="475.51" target-y="189.83"></path></g><path d="M 392.08 458.11 L 392.08 475.90 L 363.65 480.33 L 363.65 502.30 L 417.00 491.22 L 417.00 461.75 C 408.75 461.36 400.39 460.22 392.08 458.11 Z" fill="url(#SVGID_27_)" fill-rule="nonzero" group-id="12,45" node-id="520" stroke="none" target-height="44.190002" target-width="53.350006" target-x="363.65" target-y="458.11"></path><path d="M 409.25 461.16 L 409.25 479.40 L 367.61 486.66 L 367.80 480.32 C 367.80 480.32 370.75 406.47 337.52 406.47 C 304.29 406.47 299.49 462.23 299.49 472.94 C 299.49 483.65 299.49 502.11 299.49 502.11 L 362.54 517.62 L 366.69 517.62 L 424.48 501.56 L 424.48 461.90 C 419.45 461.93 414.36 461.70 409.25 461.16 Z" fill="url(#SVGID_28_)" fill-rule="nonzero" group-id="12,45" node-id="522" stroke="none" target-height="111.149994" target-width="124.99005" target-x="299.49" target-y="406.47"></path><path d="M 295.33 502.11 C 295.33 502.11 295.33 483.65 295.33 472.94 C 295.33 462.23 300.13 406.47 333.36 406.47 C 366.59 406.47 363.64 480.32 363.64 480.32 L 362.53 517.62 L 295.33 502.11 Z" fill="url(#SVGID_29_)" fill-rule="nonzero" group-id="12,45" node-id="524" stroke="none" target-height="111.149994" target-width="71.26001" target-x="295.33" target-y="406.47"></path><path d="M 343.38 447.27 C 343.38 441.66 339.49 437.12 334.70 437.12 L 331.73 437.12 L 331.40 437.88 C 328.24 439.40 326.02 443.03 326.02 447.27 C 326.02 451.52 328.25 455.15 331.41 456.67 L 331.61 457.41 L 334.60 457.42 C 334.63 457.42 334.66 457.43 334.69 457.43 C 334.72 457.43 334.74 457.43 334.77 457.43 L 334.91 457.43 L 334.91 457.42 C 339.61 457.28 343.38 452.80 343.38 447.27 Z" fill="url(#SVGID_30_)" fill-rule="nonzero" group-id="12,45" node-id="526" stroke="none" target-height="20.309967" target-width="17.360016" target-x="326.02" target-y="437.12"></path><path d="M 340.75 447.27 C 340.75 452.88 336.86 457.42 332.07 457.42 C 327.28 457.42 323.39 452.88 323.39 447.27 C 323.39 441.66 327.28 437.12 332.07 437.12 C 336.86 437.12 340.75 441.66 340.75 447.27 Z" fill="url(#SVGID_31_)" fill-rule="nonzero" group-id="12,45" node-id="528" stroke="none" target-height="20.299988" target-width="17.359985" target-x="323.39" target-y="437.12"></path><path d="M 273.18 517.19 L 273.18 499.89 L 365.31 523.34 L 365.31 543.42 Z" fill="url(#SVGID_32_)" fill-rule="nonzero" group-id="12,45" node-id="530" stroke="none" target-height="43.52997" target-width="92.130005" target-x="273.18" target-y="499.89"></path><path d="M 438.61 519.67 L 438.61 502.29 L 365.31 523.34 L 365.31 543.42 Z" fill="url(#SVGID_33_)" fill-rule="nonzero" group-id="12,45" node-id="532" stroke="none" target-height="41.129974" target-width="73.30002" target-x="365.31" target-y="502.29"></path></g><g node-id="604"><path d="M 567.26 498.97 L 564.92 499.92 C 564.92 499.92 564.10 501.31 564.44 504.30 C 564.79 507.29 566.35 508.43 566.70 509.53 C 567.05 510.63 566.83 514.84 566.83 514.84 L 573.03 514.84 L 573.29 508.94 C 573.29 508.94 574.69 507.18 575.15 505.96 C 575.61 504.74 576.54 502.75 576.22 501.80 C 575.90 500.85 571.80 497.18 567.26 498.97 Z" fill="#ffbe92" fill-rule="nonzero" group-id="12,46" node-id="537" stroke="none" target-height="17.660065" target-width="12.440002" target-x="564.1" target-y="497.17996"></path><path d="M 570.15 495.91 C 570.15 495.91 571.15 494.10 571.94 495.08 C 572.73 496.06 573.23 496.55 574.14 496.34 C 575.05 496.12 576.84 496.32 576.20 497.99 C 575.56 499.66 576.17 499.81 576.42 500.26 C 576.57 500.54 577.67 501.48 576.93 502.69 C 576.20 503.88 575.17 503.44 575.35 504.57 C 575.53 505.70 575.11 506.70 574.44 507.05 C 573.79 507.39 573.95 508.00 574.07 508.35 C 574.19 508.69 573.82 509.81 572.72 509.41 C 571.62 509.01 570.64 508.86 569.77 509.25 C 568.90 509.64 565.32 509.87 566.08 508.27 C 566.78 506.81 565.81 506.51 565.16 505.86 C 564.51 505.21 563.98 504.09 564.33 502.97 C 564.53 502.33 564.81 500.80 564.03 499.84 C 563.23 498.85 564.61 496.14 565.52 496.24 C 566.44 496.34 567.70 493.75 570.15 495.91 Z" fill="#171c61" fill-rule="nonzero" group-id="12,46" node-id="539" stroke="none" target-height="16.119995" target-width="14.440002" target-x="563.23" target-y="493.75"></path><path d="M 551.88 528.24 C 551.88 528.24 549.51 538.36 555.29 539.11 C 561.07 539.86 564.95 525.58 564.95 525.58 L 564.95 519.10 L 554.37 521.36 L 551.88 528.24 Z" fill="#ffbe92" fill-rule="nonzero" group-id="12,46" node-id="541" stroke="none" target-height="20.76001" target-width="15.440002" target-x="549.51" target-y="519.1"></path><path d="M 578.61 601.57 C 578.61 601.57 574.49 600.35 574.42 604.06 C 575.16 607.41 575.83 608.55 575.80 610.12 C 575.77 611.69 577.25 614.20 580.46 614.63 C 583.67 615.06 585.10 612.54 583.99 609.01 C 582.88 605.47 582.50 602.24 578.61 601.57 Z" fill="#f8b62d" fill-rule="nonzero" group-id="12,46" node-id="543" stroke="none" target-height="14.710022" target-width="10.679993" target-x="574.42" target-y="600.35"></path><path d="M 574.51 603.25 C 574.51 603.25 574.98 606.00 575.47 606.95 C 575.96 607.90 576.27 609.15 576.52 610.19 C 576.77 611.23 577.29 613.73 581.07 613.86 C 583.39 613.77 584.35 612.66 584.34 611.68 C 584.33 612.32 584.45 613.30 583.98 613.92 C 583.46 614.59 582.30 614.87 581.03 614.88 C 578.56 614.90 576.76 614.30 575.77 610.91 C 575.59 609.52 575.50 608.46 575.24 607.64 C 574.97 606.83 574.04 604.23 574.51 603.25 Z" fill="#e6e8e8" fill-rule="nonzero" group-id="12,46" node-id="545" stroke="none" target-height="11.650024" target-width="10.410034" target-x="574.04" target-y="603.25"></path><path d="M 565.09 601.73 C 565.09 601.73 560.09 600.63 560.09 604.19 C 560.32 607.34 560.85 608.75 560.82 610.31 C 560.79 611.88 562.27 614.39 565.48 614.82 C 568.69 615.25 570.12 612.73 569.01 609.20 C 567.90 605.66 568.97 602.40 565.09 601.73 Z" fill="#f8b62d" fill-rule="nonzero" group-id="12,46" node-id="547" stroke="none" target-height="14.619995" target-width="10.029968" target-x="560.09" target-y="600.63"></path><path d="M 560.67 602.49 C 560.67 602.49 559.80 603.74 560.74 607.16 C 561.06 608.18 561.30 609.33 561.54 610.38 C 561.79 611.42 562.31 613.92 566.09 614.05 C 568.41 613.96 569.37 612.85 569.36 611.87 C 569.35 612.51 569.53 613.34 569.06 613.96 C 568.54 614.63 567.33 615.06 566.06 615.07 C 563.59 615.09 561.79 614.49 560.80 611.10 C 560.62 609.71 560.53 608.65 560.27 607.83 C 560.00 607.02 559.61 603.23 560.67 602.49 Z" fill="#e6e8e8" fill-rule="nonzero" group-id="12,46" node-id="549" stroke="none" target-height="12.600037" target-width="9.920044" target-x="559.61" target-y="602.49"></path><path d="M 561.44 548.71 C 561.44 548.71 558.84 554.99 559.53 565.90 C 560.22 576.81 563.42 611.68 563.42 611.68 L 568.38 611.68 L 572.20 563.72 L 578.05 611.68 L 582.65 611.68 C 582.65 611.68 586.95 553.39 582.10 548.71 C 573.75 548.71 561.44 548.71 561.44 548.71 Z" fill="url(#SVGID_34_)" fill-rule="nonzero" group-id="12,46" node-id="551" stroke="none" target-height="62.96997" target-width="28.109985" target-x="558.84" target-y="548.71"></path><path d="M 581.27 477.68 L 577.09 479.67 C 576.79 479.81 576.43 479.69 576.28 479.38 L 571.42 469.15 C 571.28 468.85 571.40 468.49 571.71 468.34 L 575.89 466.35 C 576.19 466.21 576.55 466.33 576.70 466.64 L 581.57 476.87 C 581.70 477.17 581.57 477.53 581.27 477.68 Z" fill="#171c61" fill-rule="nonzero" group-id="12,46" node-id="553" stroke="none" target-height="13.600006" target-width="10.419983" target-x="571.28" target-y="466.21"></path><path d="M 576.04 478.81 C 576.04 478.81 576.21 481.64 577.60 482.63 C 578.99 483.62 579.68 485.17 580.26 486.22 C 580.84 487.26 583.23 492.11 583.69 492.80 C 584.15 493.49 585.02 495.29 584.62 497.48 C 584.22 499.68 579.94 509.91 579.65 510.66 C 580.46 513.03 585.37 519.22 585.37 519.22 C 585.37 519.22 593.12 502.10 592.83 496.55 C 592.54 491.00 587.43 487.25 584.08 482.34 C 582.92 481.01 582.98 479.80 583.10 479.04 C 583.22 478.29 583.18 473.62 579.37 472.15 C 577.07 471.26 578.24 475.81 578.59 476.44 C 578.94 477.08 579.63 480.02 577.32 478.69 C 576.50 478.06 575.94 478.06 576.04 478.81 Z" fill="#ffbe92" fill-rule="nonzero" group-id="12,46" node-id="555" stroke="none" target-height="47.95996" target-width="17.179993" target-x="575.94" target-y="471.26"></path><path d="M 579.84 506.67 L 590.33 511.24 C 590.33 511.24 586.92 518.76 585.36 522.11 C 584.96 523.61 583.43 528.76 583.55 530.90 C 583.67 533.04 586.90 553.43 583.49 554.70 C 580.08 555.97 562.45 556.10 559.85 555.58 C 557.25 555.06 558.34 537.14 559.32 531.76 C 559.93 527.54 559.84 526.44 559.84 526.44 L 558.19 530.69 L 551.80 527.93 C 551.80 527.93 553.09 515.77 557.98 514.08 C 562.49 512.52 564.09 512.38 564.44 512.21 C 565.05 511.60 568.17 511.21 569.60 511.21 C 571.03 511.21 573.33 511.17 575.02 512.08 C 575.93 512.48 578.17 511.18 579.84 506.67 Z" fill="url(#SVGID_35_)" fill-rule="nonzero" group-id="12,46" node-id="557" stroke="none" target-height="49.429993" target-width="38.53003" target-x="551.8" target-y="506.66998"></path></g></g></svg>